<?xml version="1.0" encoding="UTF-8"?>
<!-- Generator: Adobe Illustrator 13.0.0, SVG Export Plug-In  -->
<svg width="1e3" height="500" version="1.1" viewBox="0 0 1e3 500" xmlns="http://www.w3.org/2000/svg" xmlns:cc="http://creativecommons.org/ns#" xmlns:dc="http://purl.org/dc/elements/1.1/" xmlns:rdf="http://www.w3.org/1999/02/22-rdf-syntax-ns#">
  <metadata>
    <rdf:RDF>
      <cc:Work rdf:about="">
        <dc:format>image/svg+xml</dc:format>
        <dc:type rdf:resource="http://purl.org/dc/dcmitype/StillImage"/>
      </cc:Work>
    </rdf:RDF>
  </metadata>
  <rect width="1e3" height="500" fill="#00247d"/>
  <polygon points="0 27.949 110.76 83.332 0 83.332 0 166.67 110.76 166.67 0 222.05 0 250 55.902 250 208.33 173.78 208.33 250 291.67 250 291.67 173.78 444.1 250 500 250 500 222.05 389.23 166.67 500 166.67 500 83.332 389.23 83.332 500 27.949 500 0 444.1 0 291.67 76.215 291.67 0 208.33 0 208.33 76.215 55.902 0 0 0" fill="#fff"/>
  <polygon points="500 0 462.73 0 296.06 83.332 333.33 83.332" fill="#cf142b"/>
  <polygon points="166.67 83.332 0 0 0 18.633 129.4 83.332" fill="#cf142b"/>
  <polygon points="0 250 37.268 250 203.93 166.67 166.67 166.67" fill="#cf142b"/>
  <polygon points="333.33 166.67 500 250 500 231.36 370.6 166.67" fill="#cf142b"/>
  <path id="path2938_1_" d="m225 0h50v100h225v50h-225v100h-50v-100h-225v-50h225v-100z" fill="#cf142b"/>
  <path d="m750 114.38c-38.643 22.217-80.302 21.495-106.38 3.619v138.16c0 47.827 29.102 101.45 106.38 129.47 77.281-28.02 106.38-81.639 106.38-129.47v-138.16c-26.083 17.876-67.739 18.598-106.38-3.619z" fill="#fff"/>
  <path d="m652.88 302.11c13.86 33.12 44.19 64.318 97.118 83.509 52.933-19.19 83.258-50.389 97.121-83.509h-194.24z" fill="#0073bd"/>
  <path d="m819.92 178.02c-12.438-11.473-27.048-6.279-38.644-16.303-9.984-8.638-24.631-12.079-35.744-11.113 0.728-1.448 1.692-3.138 2.417-4.586-52.65 12.559-58.443 82.121-10.385 90.093 0.603-7.368-5.314-11.837-5.557-19.083 2.295 0.481 4.952 1.451 6.764 2.66-0.724-8.215-7.966-9.896-7.729-20.05 0.482-20.531 10.906-33.256 29.706-34.782 8.938-0.724 21.095 2.828 24.878 10.388 1.447 2.9 4.344 6.883 6.517 9.055 2.056 2.056 2.114 1.331 2.419-1.569 0.637-6.124 11.557-8.859 24.392-2.896 3.379 1.567 3.487 0.513 0.966-1.814z" fill="#e77329"/>
  <path d="m773.79 216.54c-3.861 2.295-8.815 10.989-16.664 11.836 0.121-2.896 0-7.609-0.481-9.417-4.469 6.883-5.559 15.697-16.908 23.427-12.74 8.676-35.351 11.454-46.852-0.966-6.04-6.521-9.904-15.216-6.525-27.539 2.261-8.209 9.302-8.64 13.165-12.075 1.087-0.963 0.111-1.129-1.568-1.328-7.127-0.845-9.201-10.727-3.141-25.601 1.328-3.263-0.482-3.142-4.345 3.744-5.504 9.799-5.438 19.038-8.456 27.292-7.246 19.806-3.441 47.522 14.913 57.425-0.905 1.33-1.991 3.08-3.141 4.408 41.603 9.902 83.142-7.486 80.003-51.206z" fill="#e77329"/>
  <path d="m762.2 185.15c2.414 4.83 9.419 8.212 11.591 14.732-1.931 0-5.557 0.968-7.487 2.175 5.193 2.416 7.971 2.78 12.798 6.644l1.207 0.604c15.456 16.421 22.185 32.696 16.426 47.338-2.896 7.368-8.927 15.604-18.718 18.719-13.283 4.228-16.906-6.643-28.86-4.709-0.842 0.136-0.188 0.825 0.966 1.33 7.489 3.259 4.887 11.57-9.297 17.872-1.088 0.481-1.163 0.574 1.236 0.847 8.542 0.966 19.351-1.828 24.966-4.832 7.005-3.745 15.604-6.267 23.067-9.783 14.61-6.882 22.578-19.08 24.875-35.989 2.777 2.055 3.621 3.865 4.95 6.161 6.038-27.293-13.043-62.319-57.72-61.109z" fill="#e77329"/>
  <circle cx="719.93" cy="215.82" r="2.468" fill="#fff"/>
  <path d="m766.06 231.23c-1.357 0-2.463 1.105-2.463 2.466 0 1.365 1.105 2.472 2.463 2.472 1.364 0 2.468-1.106 2.468-2.472-1e-3 -1.361-1.104-2.466-2.468-2.466z" fill="#fff"/>
  <path d="m785.38 190.79c-1.363 0-2.471 1.101-2.471 2.466 0 1.364 1.107 2.468 2.471 2.468 1.361 0 2.465-1.104 2.465-2.468 0-1.365-1.104-2.466-2.465-2.466z" fill="#fff"/>
</svg>
