<?xml version="1.0" encoding="UTF-8"?>
<!-- Created with Inkscape (http://www.inkscape.org/) -->
<svg width="1440" height="720" fill-rule="evenodd" version="1.0" xml:space="preserve" xmlns="http://www.w3.org/2000/svg" xmlns:cc="http://creativecommons.org/ns#" xmlns:dc="http://purl.org/dc/elements/1.1/" xmlns:rdf="http://www.w3.org/1999/02/22-rdf-syntax-ns#" xmlns:xlink="http://www.w3.org/1999/xlink"><metadata><rdf:RDF><cc:Work rdf:about=""><dc:format>image/svg+xml</dc:format><dc:type rdf:resource="http://purl.org/dc/dcmitype/StillImage"/><dc:title/></cc:Work></rdf:RDF></metadata><defs>
  <style type="text/css"/>
 
  
  
  
  
  
 
   
   
   
   
   
   
   
   
   
   
   
   
   
   
   
   
   
   
   
   
   
   
   
   
   
   
   
   
   
   
   
   
   
   
   
   
   
   
   
   
   
   
   
   
   
   
   
   
  
    
    
    
    
    
    
    
    
    
   
    
    
    
    
    
    
    
    
    
   
    
    
    
    
    
    
    
    
    
    
    
    
    
    
    
    
    
    
    
   </defs><rect width="1440" height="720" fill="#f7e017" fill-rule="nonzero"/><polygon transform="scale(.4)" points="3600 875 3600 1300 0 550 0 125 0 125" fill="#fff"/><polygon transform="scale(.4)" points="3600 1300 3600 1675 0 925 0 550 0 550"/><path d="m695.74 569.72c-19.368-2.566-37.115-8.7294-49.447-17.172-2.3888-1.6355-4.6331-2.9736-4.9872-2.9736-0.35613 0-0.64502 1.8164-0.64639 4.0641-0.0038 6.3787-2.5674 9.5806-9.0083 11.251-6.1602 1.5979-15.558-1.6251-23.177-7.9486-7.8893-6.5479-17.001-11.545-24.71-13.551-6.3526-1.6531-14.777-1.3887-20.869 0.65493-2.828 0.9487-6.0542 2.2882-7.1694 2.9766s-2.3588 1.2517-2.7636 1.2517c-1.0806 0-0.92428-6.8535 0.2061-9.0394 1.4855-2.8727 5.161-5.701 9.4326-7.2586 2.162-0.78828 3.9309-1.8031 3.9309-2.2552 0-0.45205-0.72803-2.0954-1.6178-3.6519-2.9021-5.0766-1.7128-9.9988 3.35-13.865 5.1832-3.9576 13.949-4.6423 21.703-1.6951 1.9528 0.74223 3.77 1.3496 4.0383 1.3498 1.0168 6.9e-4 0.39603-1.4214-2.4085-5.5179-3.246-4.7412-3.8861-7.0811-3.4786-12.715 0.51703-7.1478 6.339-12.984 13.467-13.5 5.8203-0.42099 9.4449 1.5327 18.028 9.7175 25.655 24.463 53.544 37.939 86.074 41.59 8.2099 0.92149 24.726 0.42564 34.417-1.0332 29.27-4.4064 58.761-19.124 81.794-40.819 6.3785-6.0082 9.446-7.6005 14.68-7.6204 4.5482-0.01724 7.7354 1.4484 10.994 5.0557 2.9763 3.2944 3.9793 6.4264 3.6606 11.431-0.20484 3.217-0.73057 4.7912-2.6387 7.9014-2.8199 4.5961-2.3406 5.018 3.2372 2.8498 7.5424-2.9319 16.83-1.5787 21.843 3.1825 4.4095 4.1876 4.8281 8.3781 1.405 14.063-1.2518 2.0788-2.2759 4.0312-2.2759 4.3386 0 0.57131 0.9499 0.84224 5.5272 1.5764 5.9901 0.96078 9.4288 5.4167 9.4288 12.218 0 2.0329-0.2524 3.6962-0.56084 3.6962s-2.5764-0.83114-5.0398-1.847c-6.9878-2.8815-10.959-3.6244-19.109-3.5747-6.215 0.03786-8.3566 0.33208-12.68 1.742-6.6389 2.165-13.727 6.344-19.508 11.502-6.3657 5.6795-10.373 7.4712-16.582 7.414-5.7574-0.05296-9.6955-1.7322-11.775-5.0209-1.1116-1.758-1.2692-2.8304-1-6.8015 0.17577-2.5929 0.14299-4.7144-0.07288-4.7144-0.21585 0-2.4611 1.4244-4.9894 3.1652-6.6349 4.5686-10.873 6.8245-18.468 9.8315-23.183 9.1777-56.628 13.143-82.236 9.7504z" fill="#cf1126" fill-rule="evenodd"/><path d="m802.72 539.75c4.1252-2.1045 9.5297-7.6076 11.744-11.958 1.7646-3.4672 2.0122-4.6618 2.2239-10.729 0.1952-5.5933 0.02884-7.2392-0.92021-9.1036-1.0627-2.0877-1.3983-2.2759-4.0587-2.2759-2.5724 0-3.0686 0.24982-4.3893 2.2095-1.9045 2.8262-2.097 8.9253-0.34981 11.083 1.0898 1.3459 1.2438 1.3631 3.5555 0.39718 3.2162-1.3438 3.7598-1.2781 3.7523 0.45346-0.01918 4.4165-6.3468 12.919-12.986 17.45-1.7869 1.2193-3.3895 2.5836-3.5615 3.0316-0.48231 1.2569 1.9697 0.98283 4.9894-0.55768z" fill="#fc0" fill-rule="evenodd"/><path d="m711.05 563.82c3.992-1.3197 6.2633-3.7344 7.8954-8.3943 0.8142-2.3247 1.3637-4.7388 1.2211-5.3646-0.3391-1.4883-2.0578-1.413-3.9618 0.17357-1.3033 1.086-1.4593 1.6398-1.0854 3.8525 0.94741 5.6077-1.0427 6.9973-11.649 8.1337-1.0456 0.11206-4.0897-0.06801-6.7646-0.4001-5.0401-0.62574-6.8397-0.12727-5.0132 1.3886 0.55383 0.45965 1.9562 1.0794 3.1163 1.3772 2.8245 0.72506 13.212 0.23486 16.241-0.76646z" fill="#ffd42a" fill-rule="evenodd"/><path d="m733.02 562.89c0.60106-0.54397 2.6624-1.495 4.5808-2.1133 2.5574-0.8244 3.88-1.7076 4.9574-3.3104 3.115-4.6338 2.5348-8.6204-2.0387-14.008-2.4784-2.9195-3.5806-2.8395-5.5576 0.40312-1.7096 2.804-1.6713 2.9789 0.79216 3.6172 1.2889 0.33398 2.5261 1.2822 3.2061 2.4571 2.6818 4.6337 1.8917 7.5053-2.0738 7.5378-3.6047 0.02958-4.5922 0.53882-5.5665 2.8706-0.5038 1.2058-0.91603 2.4944-0.91603 2.8635 0 0.98372 1.3606 0.8184 2.6161-0.31786z" fill="#ffd42a" fill-rule="evenodd"/><path d="m725.81 557.65c0.67838-1.8421 0.91204-5.1493 0.84062-11.898-0.05438-5.1407-0.25815-9.506-0.45279-9.7007-0.59816-0.59817-3.5595 1.3037-3.9511 2.5374-0.20319 0.64015 0.12411 2.1183 0.72733 3.2848 0.92168 1.7823 1.0427 3.4531 0.75829 10.466-0.35942 8.8619 0.22227 10.349 2.0777 5.3105z" fill="#ffd42a" fill-rule="evenodd"/><path d="m708.89 553.43c0.3546-1.6535 0.81808-5.0267 1.0299-7.496 0.21183-2.4693 0.71327-5.5957 1.1143-6.9476 1.0243-3.4532-0.00554-4.3683-2.7315-2.4272l-2.0393 1.4521 0.42711 4.9678c0.38497 4.4779-0.31998 12.835-1.3559 16.075-0.27274 0.85286 0.12494 0.63605 1.2558-0.68463 0.91022-1.063 1.945-3.2856 2.2997-4.9391z" fill="#ffd42a" fill-rule="evenodd"/><path d="m693.88 555.84c2.3808-2.1777 2.8693-3.5373 3.7712-10.497 0.46348-3.5764 1.0314-7.4536 1.2621-8.616 0.51657-2.6035-0.51061-2.7816-3.277-0.56823-1.8111 1.4491-1.881 1.6757-1.2004 3.8933 0.90189 2.9385 0.09511 10.21-1.3831 12.466-1.1238 1.7151-3.4261 2.102-5.5964 0.94045-0.95234-0.50967-1.1498-1.1091-0.85337-2.591 0.55419-2.771-1.0356-3.0965-5.4251-1.1105-4.1068 1.8581-5.6895 1.6958-5.1318-0.52608 0.22358-0.89075-0.01393-1.7794-0.60711-2.2718-0.9005-0.74731-1.7836-0.73087-7.7916 0.1451-1.0043 0.14642-1.3005-0.18068-1.3005-1.436 0-0.89413-0.20203-1.9352-0.44891-2.3136-0.25622-0.39268-3.1562-0.73315-6.7566-0.79326-6.9358-0.11578-11.85-1.2625-15.261-3.5612-3.4781-2.3439-3.7875-4.1912-1.4583-8.7072 1.0801-2.0941 2.303-4.8565 2.7176-6.1386 0.41458-1.2822 1.6249-3.1658 2.6896-4.1858 1.0646-1.02 1.9357-2.1307 1.9357-2.4682 0-0.86245-4.3771-0.05733-6.2071 1.1417-1.2438 0.81495-1.4539 1.3879-1.164 3.1742 0.39295 2.4216-1.1431 6.0224-4.0352 9.4595-3.1785 3.7774-7.8557 2.2263-14.071-4.6666-2.3433-2.5988-3.2218-3.1991-3.8205-2.6106-1.1187 1.0998-0.23829 4.9303 1.5088 6.5644 1.9634 1.8364 9.5173 5.3479 11.532 5.3609 2.0287 0.01306 2.6738 0.482 3.9016 2.8362 1.5543 2.9802 11.464 5.9986 21.13 6.4362 3.0589 0.13846 3.2674 0.26059 3.5808 2.0978 0.33024 1.9351 0.37062 1.9523 5.0429 2.1418 4.6951 0.19046 5.3696 0.51486 3.9734 1.9111-0.4051 0.40516-0.55575 1.2079-0.33473 1.7839 0.33302 0.8678 1.0987 0.98214 4.4683 0.66738 2.2366-0.20894 4.655-0.5188 5.3742-0.68856 0.98897-0.23341 1.5456 0.20902 2.2832 1.8148 0.74918 1.631 1.5032 2.2181 3.2513 2.5314 3.211 0.57551 5.9276 0.00536 7.7003-1.6161z" fill="#ffd42a" fill-rule="evenodd"/><path d="m780.7 552.27c5.8482-2.8793 9.2977-6.1177 11.515-10.811 1.0501-2.2225 1.9092-4.3313 1.9092-4.6863 0-0.80664-2.8797-2.1547-4.6028-2.1547-1.7256 0-2.0791-1.1818-1.3389-4.4762 0.72082-3.2081-0.1423-7.2285-1.5518-7.2285-0.51138 0-1.4179 0.74493-2.0145 1.6554-0.92433 1.4107-0.9675 2.0114-0.29203 4.0641 1.0012 3.0424 0.21558 5.313-2.5097 7.2535-1.291 0.91927-1.9959 1.9798-1.9959 3.0026 0 0.86976 0.10947 1.5814 0.24324 1.5814 0.13375 0 1.5552-0.73328 3.1587-1.6295l2.9155-1.6295 1.7182 1.3516c0.94503 0.74334 1.7182 1.9541 1.7182 2.6906 0 3.5538-10.145 9.5411-17.115 10.101-3.7064 0.29752-4.3433 0.17135-5.6298-1.1152-1.0464-1.0464-1.3503-1.9301-1.0904-3.1712 0.1982-0.94626 0.5579-2.6715 0.79929-3.8338 0.64355-3.0986-0.69499-2.6776-2.9893 0.94013-1.8926 2.9843-2.4553 6.1764-1.3859 7.8619 0.86598 1.3649 6.6463 2.6723 10.735 2.4281 2.5695-0.15345 5.107-0.86705 7.8031-2.1944z" fill="#fc0" fill-rule="evenodd"/><path d="m809.35 514.79c-1.5472-2.3613-0.61916-5.2064 1.6982-5.2064 1.3744 0 1.6384 0.33779 1.8041 2.3091 0.13838 1.6464-0.17365 2.642-1.0871 3.4686-1.2387 1.121-1.3188 1.102-2.4152-0.57133z" fill="#cf1126" fill-rule="evenodd"/><path d="m819.74 530.49c3.6732-3.6732 5.2345-8.144 5.2557-15.05l0.01599-5.1922 3.0354-1.4413c3.9511-1.8761 7.6939-5.6237 7.6939-7.7037 0-2.1337-0.95007-2.0253-2.6729 0.30488-1.2495 1.6901-2.9227 2.7122-9.0318 5.5174-1.5439 0.70894-1.6442 1.0885-1.9942 7.552-0.40355 7.4517-1.4194 10.243-5.5771 15.326-2.5432 3.109-2.642 3.5095-0.86491 3.5095 0.72471 0 2.5877-1.27 4.1399-2.8223z" fill="#fc0" fill-rule="evenodd"/><path d="m634.12 525.57c1.1095-1.4009 2.7679-4.2539 3.6853-6.34 0.91737-2.0861 2.2834-4.4552 3.0357-5.2646 1.7629-1.897 0.77516-3.0672-2.0628-2.4438-1.5012 0.32971-2.1045 0.88586-2.3636 2.1791-0.85029 4.2438-2.3847 8.5789-3.7517 10.599-2.4801 3.6659-2.5402 3.817-1.5194 3.817 0.52753 0 1.867-1.1462 2.9765-2.5471z" fill="#ffd42a" fill-rule="evenodd"/><path d="m779.66 526.33c0.35554-1.0678-1.6819-1.8301-2.5558-0.95617-0.37397 0.37396-0.47334 1.0142-0.2208 1.4229 0.57454 0.92963 2.4146 0.62033 2.7766-0.46669z" fill="#fc0" fill-rule="evenodd"/><path d="m620.53 519.32c3.3155-1.6801 6.4828-5.6035 6.4828-8.0305 0-1.5878-2.6652-3.339-5.0816-3.339-1.0717 0-3.0862 0.87661-4.6986 2.0446-5.0432 3.6532-10.436 2.9075-13.386-1.851-2.428-3.9164-4.9634-6.046-7.1986-6.046-2.7951 0-2.9079 1.7537-0.17418 2.7066 1.3226 0.46107 2.4207 1.5766 3.3271 3.38 2.659 5.2906 4.2119 6.2333 11.28 6.8479l4.5518 0.39576 0.19997 2.7636c0.11 1.52 0.48549 2.7636 0.83447 2.7636 0.34892 0 2.087-0.73607 3.8623-1.6357z" fill="#ffd42a" fill-rule="evenodd"/><path d="m619.44 514.78c-0.58074-1.5134 0.23775-2.9262 1.6952-2.9262 1.3333 0 1.6508 0.98476 0.9262 2.873-0.5001 1.3032-2.1291 1.3363-2.6214 0.05318z" fill="#cf1126" fill-rule="evenodd"/><path d="m834.93 512.02c0.35554-1.0678-1.6819-1.83-2.5558-0.95616-0.37396 0.37396-0.47333 1.0142-0.22078 1.4228 0.57453 0.92961 2.4146 0.62034 2.7766-0.46669z" fill="#fc0" fill-rule="evenodd"/><path d="m706.34 525.17c-0.53647-0.10609-3.6089-0.53779-6.8277-0.95928-16.574-2.1703-36.293-9.0216-50.747-17.631-32.615-19.428-56.468-53.14-63.972-90.412-8.5762-42.601-2.4676-79.249 17.661-105.95 3.6655-4.8633 7.5314-8.8826 6.8169-7.0874-0.21352 0.53647-1.742 4.2608-3.3965 8.2764-9.3003 22.572-10.457 46.435-3.5379 73.006 2.7394 10.521 5.3137 17.282 10.156 26.675 16.957 32.892 48.726 57.156 83.768 63.977 2.8611 0.55693 8.2745 1.6028 12.03 2.3243 9.8672 1.8956 15.239 1.7049 28.581-1.0146 12.469-2.5416 22.516-5.5601 31.556-9.4805 27.439-11.9 50.243-34.609 61.933-61.673 8.0029-18.529 11.763-45.723 9.2171-66.652-1.5384-12.644-5.5208-26.488-10.429-36.252-1.0337-2.0564-1.5962-3.739-1.2502-3.739 1.0793 0 8.5153 9.0924 12.864 15.73 9.5843 14.628 16.066 32.788 18.383 51.503 1.9046 15.388 0.25804 40.034-3.6297 54.329-7.9854 29.362-25.458 57.246-46.596 74.357-22.397 18.131-46.181 27.522-76.894 30.36-6.4427 0.59527-23.233 0.8033-25.685 0.31822z" fill="#cf1126" fill-rule="evenodd"/><path d="m763.06 512.65c0.61886-0.53717 1.3142-1.984 1.5452-3.2152 0.23097-1.2312 0.74881-2.3281 1.1507-2.4375 0.40189-0.10941 1.9667-0.53441 3.4772-0.94447 1.8457-0.50099 3.3066-1.4798 4.4543-2.9845 2.6067-3.4175 2.3591-7.8307-1.0236-18.246-1.5022-4.6254-2.9458-9.1413-3.208-10.035-0.6228-2.1243-1.1743-2.0507-3.0719 0.40998l-1.5698 2.0356 1.6314 1.9388c2.1626 2.5701 5.6518 13.126 5.7519 17.401 0.05342 2.2811-0.30303 3.9851-1.0824 5.1746-1.257 1.9184-0.61057 1.8797-9.9934 0.59749-2.0828-0.28461-3.4097-0.04107-5.3847 0.98833-3.4724 1.8099-5.0406 1.7372-5.958-0.27647-1.1384-2.4985-2.15-1.5473-2.15 2.0218v3.1971h7.116l0.41475 2.5062c0.22811 1.3784 0.79649 2.7421 1.2631 3.0305 1.1826 0.7309 5.2833 0.01285 6.637-1.1622z" fill="#fc0" fill-rule="evenodd"/><path d="m757.98 509.59c-1.3522-2.0637-0.77891-3.5815 1.3527-3.5815 1.1731 0 1.8434 0.47668 2.2781 1.62 1.3098 3.445-1.6212 5.0284-3.6308 1.9615z" fill="#d40000" fill-rule="evenodd"/><path d="m675.68 506.63c2.0495-0.88167 4.4866-2.7357 6.5329-4.9697l3.2638-3.5634 3.7658 0.45646c4.664 0.56536 4.7412 0.61155 4.7412 2.8395 0 1.7705 0.11568 1.8293 4.3893 2.2329 2.4141 0.22801 5.5972 0.41662 7.0736 0.41917 1.8947 0.00326 2.9467 0.37032 3.5764 1.2478 0.84018 1.1708 1.3274 1.204 8.366 0.56946 6.5813-0.59329 7.8765-0.53687 10.845 0.47229 2.1079 0.71651 4.4261 1.0271 6.1854 0.82884 5.0398-0.56804 12.01-4.7137 13.02-7.7441 0.12164-0.36492 1.9474-1.0086 4.0573-1.4305 5.0911-1.0178 5.3232-2.1101 0.57457-2.7034-2.0587-0.25725-5.1546-1.0241-6.8798-1.7041-1.7252-0.68002-4.085-1.2364-5.244-1.2364-2.5559 0-4.9976 1.5835-4.9976 3.2412 0 1.0782 0.38848 1.1772 3.4139 0.87019 2.8528-0.28948 3.7088-0.11292 5.2082 1.0745 0.98693 0.7815 1.6246 1.6956 1.4171 2.0314-0.67068 1.0852-6.6065 3.7928-9.2371 4.2134-1.7555 0.28073-3.1886 0.08205-4.5733-0.63396-2.3062-1.1926-5.6997-1.3766-6.3381-0.34366-0.27639 0.4472-0.99494 0.17041-1.9938-0.76798l-1.5617-1.4672-3.5487 1.4709c-3.5911 1.4884-4.8953 1.4081-4.8953-0.30166 0-0.78392-1.0543-0.87217-6.34-0.53066-5.8346 0.37699-6.4343 0.30445-7.5224-0.90985-1.0059-1.1225-1.0569-1.5204-0.3414-2.666 0.66575-1.066 0.67421-1.5133 0.04059-2.1469-0.62981-0.62982-1.4249-0.6333-3.732-0.01623-5.7935 1.5495-7.4648 0.69057-7.4648-3.8363 0-3.9621-3.2353-5.6582-6.4705-3.3921-5.3145 3.7224-6.6936 8.1277-3.0835 9.8496 2.6553 1.2665 1.9793 2.7628-2.1913 4.8499-5.9683 2.9868-11.224 2.6063-21.231-1.5368-2.4627-1.0197-3.0955-0.60992-2.5311 1.639 0.55359 2.2056 2.5627 3.4134 7.5864 4.5607 5.3942 1.2319 11.919 0.84076 16.12-0.96629z" fill="#fc0" fill-rule="evenodd"/><path d="m680.53 493.88c-0.25178-0.65606 0.05886-1.4125 0.80365-1.9571 1.0302-0.75325 1.3551-0.74666 2.1454 0.04362 0.51224 0.51224 0.75419 1.393 0.53767 1.9571-0.51807 1.3501-2.9636 1.3195-3.4867-0.04362z" fill="#cf1126" fill-rule="evenodd"/><path d="m672.1 495.6c3.5351-2.2419 3.4523-2.0684 3.9593-8.2926 0.35747-4.3883 0.29532-4.7144-0.89814-4.7144-1.7253 0-2.6284 1.8946-2.6284 5.514 0 2.3166-0.36302 3.3614-1.5961 4.5946-2.9377 2.9378-10.244 1.5959-11.159-2.0494-0.3158-1.2583 0.08341-2.3844 1.6162-4.559 3.1902-4.526 2.4663-5.6307-1.4414-2.1997-2.6849 2.3573-3.1705 2.4296-2.6601 0.39605 0.46942-1.8704-0.50461-2.6161-2.698-2.0656-1.1239 0.2821-1.7254 0.98863-1.9968 2.3456-0.26619 1.3309-0.87528 2.0641-1.9358 2.3302-1.7717 0.44465-4.7893-1.2328-4.7893-2.6624 0-1.0611 4.5177-6.575 10.326-12.603 2.189-2.2718 3.98-4.3932 3.98-4.7144s-1.1705-0.58392-2.601-0.58392c-2.0945 0-2.601 0.23363-2.601 1.1995 0 0.65969-2.9262 4.4947-6.5026 8.5223-7.4577 8.3984-8.0766 10.146-4.3893 12.394 2.974 1.8132 6.7775 1.6747 9.7655-0.3557l2.4269-1.6491v2.9924c0 3.8196 0.76123 5.1915 3.7591 6.7745 3.768 1.9897 8.3243 1.7576 12.065-0.61447z" fill="#fc0" fill-rule="evenodd"/><path d="m779.5 491.97c0.00773-4.1286 0.11417-4.4777 1.3005-4.2656 7.4459 1.3316 10.889 0.33573 14.106-4.08 1.7585-2.4136 1.9102-3.0266 1.6781-6.7767l-0.25526-4.123 3.611 0.43226c6.5478 0.78383 6.6208 0.82528 6.166 3.499-1.2418 7.2995-3.5225 11.319-9.1496 16.127-3.9344 3.3612-3.9236 5.006 0.02043 3.1344 3.3387-1.5843 7.215-5.5683 9.301-9.5594 1.5316-2.9305 1.8007-4.2362 1.8279-8.8724 0.0286-4.877 0.18664-5.5615 1.5365-6.6546 1.1316-0.9163 2.3906-1.1807 5.0777-1.0664 3.2278 0.13729 3.7299-0.03036 5.197-1.7351 1.2781-1.4852 1.5404-2.332 1.2319-3.9768-0.56796-3.0276 0.07203-4.0856 3.5321-5.839 4.6853-2.3742 6.5062-4.9017 6.5062-9.031 0-3.7992-1.174-6.0388-2.8321-5.4025-1.2592 0.48318-1.4456 3.768-0.31655 5.576 0.4141 0.66307 0.57023 1.6816 0.34697 2.2634-0.60564 1.5782-4.1157 3.4833-7.2969 3.9604-4.0152 0.60215-6.7931 2.7473-8.8878 6.8634-3.3311 6.5459-2.851 6.2444-5.7591 3.617-4.4636-4.0326-8.4093-2.9666-10.088 2.7253l-0.71716 2.4316-1.2026-2.4385c-1.2221-2.478-2.6736-3.0675-4.083-1.6582-1.261 1.261-0.88762 3.2531 1.1823 6.3078 1.0664 1.5738 1.9389 3.5635 1.9389 4.4215 0 4.0023-3.7846 7.2413-7.4007 6.3338-1.9367-0.48605-3.6537-3.203-3.6537-5.7813 0-2.3323-1.7475-2.113-2.2743 0.28536-0.88513 4.03-2.6947 2.3906-3.4888-3.1604-0.53765-3.7587-1.8994-3.9633-3.5731-0.53698-1.0704 2.1912-1.0985 2.5982-0.24755 3.5764 1.774 2.0392 4.5524 10.171 4.8845 14.295 0.45395 5.6374 1.7704 4.9783 1.7814-0.89193z" fill="#fc0" fill-rule="evenodd"/><path d="m800.97 470.01c-1.5871-1.1605-0.85934-3.0202 1.1819-3.0202 1.8566 0 3.3254 1.5337 2.7942 2.9179-0.4687 1.2214-2.3784 1.2706-3.9761 0.10231z" fill="#cf1126" fill-rule="evenodd"/><path d="m815.25 465.66c-0.50809-1.6009 0.68133-3.2201 2.3654-3.2201 1.2485 0 1.6011 1.5038 0.82623 3.5232-0.56502 1.4724-2.6922 1.2703-3.1916-0.30316z" fill="#cf1126" fill-rule="evenodd"/><path d="m645.1 491.48c0.12165-0.6272-0.20473-1.0841-0.77446-1.0841-1.208 0-1.9371 1.06-1.3654 1.9851 0.58818 0.95169 1.8865 0.40499 2.1398-0.90106z" fill="#fc0" fill-rule="evenodd"/><path d="m695.94 485.8c0-0.93057-0.35018-1.2808-1.1305-1.1305-1.6951 0.32643-1.8841 2.4787-0.21773 2.4787 0.93057 0 1.3482-0.41761 1.3482-1.3482z" fill="#fc0" fill-rule="evenodd"/><path d="m625.4 480.24 1.7987-2.3582 6.7458 0.45188c8.2149 0.55029 9.1963 0.0912 15.288-7.1517 2.2389-2.6621 4.4454-4.8402 4.9034-4.8402 0.45791 0 0.8326-0.73153 0.8326-1.6256 0-2.3582-2.8292-2.2522-4.3403 0.16257-2.1756 3.4768-8.2437 10.036-9.8495 10.646-0.89509 0.34033-2.9366 0.42243-4.5367 0.18246-2.4256-0.36371-2.712-0.54665-1.7227-1.1003 1.7162-0.96045 5.4932-4.8512 5.4932-5.6587 0-1.0505-3.1262-2.008-5.0847-1.5574-0.95868 0.22059-3.2431 1.2273-5.0765 2.2371-3.47 1.9114-6.0953 1.9589-6.0953 0.11051 0-0.55184 1.5362-2.6624 3.4139-4.69 1.8776-2.0277 4.2434-4.6146 5.2572-5.7486s2.1112-2.0618 2.4385-2.0618c0.32731 0 0.59513-0.43893 0.59513-0.9754 0-0.6937-0.70457-0.97539-2.4396-0.97539-2.2306 0-2.5736 0.25253-4.0038 2.9486-0.86031 1.6217-2.5878 3.8473-3.8388 4.9457-1.845 1.6199-2.6754 1.932-4.3971 1.6526-3.3728-0.54732-5.4788-2.254-5.4788-4.44 0-1.043-0.41603-2.0561-0.92458-2.2512-1.3728-0.52678-3.6272 0.91276-3.6272 2.3161 0 2.3867 0.85734 3.3674 4.5916 5.2524 3.3185 1.6752 3.8025 2.1652 3.9823 4.0322 0.18114 1.8813 0.41335 2.1107 2.0232 1.9986 2.571-0.17895 3.5783 2.1119 2.1463 4.8811-1.113 2.1523-1.4109 5.9748-0.46562 5.9748 0.31519 0 1.3825-1.0612 2.3718-2.3582z" fill="#fc0" fill-rule="evenodd"/><path d="m628.31 475.12c0-1.0592 0.59482-1.2054 2.2772-0.55977 0.86397 0.33155 0.90762 0.52683 0.21574 0.96543-1.3478 0.85437-2.493 0.668-2.493-0.40566z" fill="#f0f" fill-rule="evenodd"/><path d="m630.91 472.3c0-0.56697 2.8473-2.0552 3.9322-2.0552 1.2651 0 0.56718 1.8132-0.84344 2.1912-2.0464 0.54839-3.0887 0.50249-3.0887-0.13605z" fill="#cf1126" fill-rule="evenodd"/><path d="m674.15 476.74c0-1.4102-2.5369-1.216-2.8126 0.21537-0.17783 0.92339 0.11216 1.1424 1.2916 0.97536 0.8365-0.11846 1.5209-0.65428 1.5209-1.1907z" fill="#fc0" fill-rule="evenodd"/><path d="m786.2 466.82c0.2588-1.3438-1.6184-2.2493-2.6091-1.2586-0.99077 0.99074-0.08526 2.8679 1.2586 2.6091 0.62286-0.11995 1.2306-0.72768 1.3505-1.3506z" fill="#fc0" fill-rule="evenodd"/><path d="m611.82 453.09c1.7558-1.5103 1.7767-1.612 1.0116-4.9266-1.0739-4.6523-1.0051-5.155 0.76584-5.5995 2.2416-0.56261 7.9264 2.4868 9.1894 4.9292 0.97486 1.8852 0.94844 2.0173-0.71156 3.5557-1.7847 1.654-1.7788 3.5833 0.01106 3.5833 1.4778 0 5.5702-3.8701 5.5702-5.2676 0-1.9255-4.543-6.4853-8.1282-8.1584-2.2188-1.0354-4.4454-1.5193-7.0113-1.5236-4.5994-0.0078-5.2222 0.98436-3.9778 6.3375 1.4571 6.2683-0.52105 7.1156-5.5752 2.388-3.7499-3.5076-5.2238-7.1605-5.2099-12.912 0.01499-6.1723 2.3743-9.2212 7.6873-9.9338 3.5318-0.47371 3.4481-1.3016-0.18658-1.8467-5.2971-0.79435-9.7789 2.7433-11.48 9.0617-1.8878 7.0105 2.4371 15.555 10.097 19.949 4.013 2.3018 5.6105 2.3749 7.9484 0.36395z" fill="#fc0" fill-rule="evenodd"/><path d="m820.66 445.4c0.42918-0.42915 0.78033-1.3965 0.78033-2.1496 0-0.75312 0.73154-2.3608 1.6257-3.5727 0.8941-1.2119 1.6256-2.4484 1.6256-2.7478 0-1.2317-2.0253-1.1896-3.6337 0.07564-1.6383 1.2887-2.8689 1.318-2.8689 0.0682 0-0.31701 0.78309-0.95812 1.7402-1.4247 2.385-1.1626 2.5866-2.308 0.56799-3.2278-2.5797-1.1754-5.1679 0.96924-5.4315 4.5006-0.17635 2.3628 0.01719 2.7675 1.8347 3.8366 1.6662 0.98008 1.9706 1.5031 1.6919 2.9066-0.48169 2.4249 0.52945 3.2733 2.0678 1.7349z" fill="#fc0" fill-rule="evenodd"/><path d="m840.29 443.18c1.4316-1.2934 2.6029-2.7546 2.6029-3.2472s1.2436-1.7891 2.7636-2.8811c4.3116-3.0976 5.2571-6.2316 3.3316-11.044-0.75435-1.8853-3.1166-4.4996-8.2378-9.1168-3.9491-3.5604-7.5698-6.4735-8.046-6.4735-1.4 0-1.1499 5.1521 0.2721 5.6066 2.5637 0.81934 4.1076 1.8627 8.1346 5.4972 4.688 4.2311 6.8452 8.184 5.6673 10.385-1.1353 2.1212-2.6354 1.4639-6.7645-2.9639-2.1718-2.3289-4.3144-4.2309-4.7615-4.2267-0.47397 0.00447-0.8128 0.84884-0.8128 2.0255 0 1.4758 0.78597 2.892 2.9262 5.2724 3.4862 3.8775 3.8285 6.2113 1.2128 8.2688-0.94235 0.74126-1.9089 1.3477-2.1478 1.3477-0.23896 0-1.0042-1.1546-1.7005-2.5657-1.4641-2.9671-10.391-12.39-11.737-12.39-0.60314 0-0.90821 0.75885-0.90821 2.2592 0 1.8096 0.35766 2.4442 1.7971 3.1886 1.7777 0.91929 6.1505 5.3321 10.558 10.655 1.2517 1.5117 2.4945 2.75 2.7617 2.7518 0.26718 0.00179 1.6571-1.055 3.0887-2.3483z" fill="#fc0" fill-rule="evenodd"/><path d="m849.05 418.11c-0.58057-1.8643-12.557-14.192-13.788-14.192-0.64444 0-0.8357 0.7529-0.69111 2.7203 0.17469 2.3764 0.43614 2.783 2.0683 3.2165 1.0276 0.27286 4.1814 2.7471 7.0084 5.4982s5.305 4.8372 5.5065 4.6356c0.20152-0.20152 0.15453-1.0468-0.10446-1.8785z" fill="#fc0" fill-rule="evenodd"/><use transform="matrix(-1,0,0,1,1440,0)" width="17926044" height="16293461" fill-rule="evenodd" xlink:href="#g3939"/><g id="g3939" transform="matrix(2.6777e-5 0 0 2.6777e-5 480 143.85)" fill="#cf1126" fill-rule="evenodd"><path d="m1195950 12176545c-97850-10304-196280 71238-162934 175416 8264.5 18850 41164 55323 96084 92604 55862 37920 134104 78243 230395 114653 192582 72823 457646 129071 766606 120826h-43874c313544 4129 481784-24892 701036-97317 185320-60594 345175-106626 356370-270451 0-28183-8514.2-44753-22730-58208-14215-13454-36209-23929-64056-29986-55691-12113-1.2e5 20066-175943 38441-119198 39154-371634 145894-794619 148592-222989 5686-387405-47398-557586-104078-203707-67846-232199-116600-328749-130492z"/><path d="m56999 5932315c-2962.6 254-5396 987.8-7937.5 1763.9-10166 3107.2-20988 10552-31750 30868v880.6c-3701.2 6347.1-13126 4e4 -15875 86430-2748.5 46431-1383.5 107018 2645.8 178153 8058.7 142270 28734 325180 59090 520347 60686 390165 158973 830473 262819 1093611 101736 243549 324570 461945 541514 658812 216897 196824 428359 368505 504472 545924 14209 31721 20933 76067 28222 139347 7311.8 63476 12802 144076 17639 238125 9674.6 188097 15494 429460 17639 688799 3407.2 412056-798.4 864911-7937.5 1224139 10146 4432 20790 9093 31750 14111 52426 24001 114024 55103 182562 86430 137076 62653 302686 123411 474486 118181h881.9c346521-2506 500929-103890 618243-149049h882c22498-8652 47158-15215 72319-19403-4419-329506-34838-2613630-34396-3010076v-880.5c3792.5-108545-99088-246870-232833-370417-133746-123546-292177-233216-384528-302507l-881.9-880.5-1763.9-880.6c-54871-48795-166878-166863-272521-283986-52822-58561-103837-117070-143757-164924s-67435-81072-81139-108479c-3901.2-7812.5-25616-36306-55562-65264-29947-28958-68613-60437-110243-87312s-86482-48986-126118-58208c-39636-9222.1-72200-6673.1-98778 9701.4-23782 14640-32958 37992-31750 81139s16821 101351 41451 162278c49261 121854 133152 257376 194028 340430 37175 50715 71492 135374 104951 233715s64322 208720 86430 303389c22108 94668 36602 167231 33514 213430-771.8 11550 3354 25074-18521 42333-10937 8628.9-30148 10124-40569 6173.6-10422-3950.6-15758-9364.7-20285-14111-18108-18985-30211-43681-50271-88194v-880.5l-881.9-880.6c-30362-77511-148655-163924-298979-251354s-329357-179016-473604-290160c-34717-28160-43513-69795-53799-119062s-20314-110735-41451-186090c-42275-150711-129437-358184-353660-621771l-11465-13229 3527.8-17639c49115-251151-17192-492753-107597-642056-45202-74651-97863-125460-135819-142875-14234-6530.9-25508-8678.9-34396-7937.5z"/><path d="m427416 5987877c-16943 389.5-31818 6864.2-45861 17639-27648 21213-49262 64035-47625 120826 73393 158345 117161 371214 77611 595312 222246 264857 312376 479270 356306 635882 22339 79640 32654 144135 42333 190500 9574.6 45862 20851 70423 28222 76729 136174 104816 311215 195182 463903 283986 124789 72578 236598 141500 298097 227542-3466.2-17066-7185.6-34591-11465-52917-12340-52839-28102-111252-44979-169333-24844-62465-96358-142394-179035-207257-82676-64862-176962-115716-239889-130528l-27340-6173.6-1763.9-27340c-4735.2-71200-62813-235344-143757-388938-80944-153593-187558-301861-271639-356306l-17639-11465 881.95-21167c13561-487948-94786-702216-179035-757590-21062-13844-40383-19792-57326-19403z"/><path d="m736978 6078718c-12840 773.2-22251 4845.7-33514 18521-10598 12868-21798 36140-29104 70556 44524 131207 70109 318738 64382 579438 102756 75107 200144 220573 279576 371299 76774 145680 134661 292444 149049 392465 76433 23770 163491 74879 243417 137583 21270 16687 42095 33985 61736 52035-22700-56914-45425-103545-62618-127000-64184-87566-149786-225932-202847-357188-18024-44585-32704-87930-40570-129646-86837-90696-169478-255076-149049-417160 18156-207911-68193-412078-161396-516819-46650-52425-93383-75630-119062-74083z"/><path d="m1088874 6128988c-9787.9 654.7-20675 4827.1-34396 14993-17837 13216-39392 37722-61736 74965 68592 123343 113877 286844 98778 457729v1761c-12338 96264 26292 205979 75847 286632 9557.4-33799 28645-63614 59972-82903 33426-20589 71004-26678 108479-24694-17280-256375-70558-493466-138465-623535-35512-68019-73464-101563-98778-104951-3164.2-423.4-6438.7-225.8-9701.4 0z"/><path d="m1620687 8272995c-3839.1 5178.8-217.3 5895.9 0 2644.5 45.2-691.5-10.5-1778 0-2644.5z"/><path d="m2809548 11465634c-16574 3364-32545 7770-46743 13229-61369 23624-152275 72827-293688 109361l342194-3528c-0.8-56-1639.7-109902-1763.8-119062z"/><path d="m1429698 11417218c-72548-10304-145527 71238-120804 175416 6127.5 18850 30520 55323 71239 92604 41417 37920 99428 78243 170821 114653 142785 72823 339311 129071 568382 120826h-32529c232469 4129 357207-24892 519766-97317 137401-60594 255921-106626 264222-270451 0-28183-6312.8-44753-16852-58208-10539-13454-26846-23929-47493-29986-41290-12113-88974 20066-130448 38441-88377 39154-275539 145894-589151 148592-165329 5686-287232-47398-413409-104078-151034-67846-172158-116600-243743-130492z"/><path d="m1300692 11788956c-85014-10304-170532 71238-141560 175416 7180.3 18850 35764 55323 83480 92604 48534 37920 116512 78243 200172 114653 167319 72823 397612 129071 666042 120826h-38119c272412 4129 418583-24892 609073-97317 161010-60594 299894-106626 309621-270451 0-28183-7397.4-44753-19748-58208-12350-13454-31459-23929-55653-29986-48385-12113-104262 20066-152862 38441-103562 39154-322882 145894-690379 148592-193737 5686-336585-47398-484441-104078-176984-67846-201739-116600-285623-130492z"/></g><path d="m715.67 475.98c-12.481-1.3173-23.35-9.2272-28.612-20.821-1.7606-3.8794-1.7142-4.8846 0.16288-3.5322 3.1748 2.2873 7.6994 4.3066 9.6494 4.3066 1.6026 0 2.9326 0.82365 6.0722 3.7606 6.083 5.6904 12.901 7.1637 9.9375 2.1476-2.0787-3.5189-1.4987-5.8933 2.9523-12.085 2.2353-3.1096 4.3568-5.6753 4.7144-5.7015 0.35763-0.02618 2.1661 2.0662 4.0189 4.6497 3.9814 5.5518 5.2141 9.73 3.7449 12.693-1.2879 2.5977-1.1944 4.2894 0.23711 4.2894 1.5671 0 6.9833-3.4384 10.206-6.4793 1.7495-1.6506 3.6655-2.7083 5.8523-3.2306 1.7882-0.42706 4.8171-1.655 6.7309-2.7288s3.6143-1.8176 3.779-1.6529c0.78231 0.78234-4.4105 9.6047-7.7742 13.208-6.527 6.9919-12.809 10.119-22.282 11.092-2.84 0.29176-7.0657 0.32973-9.3903 0.08435z" fill="#cf1126" fill-rule="evenodd"/><path d="m731.53 460.22c-0.20519-0.53476-0.20592-1.2428-0.00156-1.5734 0.78445-1.2692-1.694-7.2868-4.7652-11.569-1.7643-2.4603-3.6799-5.1317-4.2568-5.9364-0.57691-0.80469-1.4143-1.4631-1.8608-1.4631-0.94984 0-7.1087 8.366-9.6942 13.168-0.98353 1.8268-1.7882 4.2931-1.7882 5.4808 0 1.1876-0.31214 2.1593-0.69363 2.1593-1.7896 0-5.3172-3.7389-7.2676-7.703-1.9745-4.0128-2.1154-4.7448-2.0825-10.818 0.04153-7.6878 1.1726-12.553 5.3699-23.096 2.6946-6.7685 2.9802-8.0024 3.0095-13.005 0.03534-6.0257-1.1024-9.1814-4.4298-12.287-1.9824-1.8502-1.689-2.6691 0.95635-2.6691 2.4642 0 6.3267 1.9684 8.2642 4.2115 1.8472 2.1385 3.0337 1.4423 3.6024-2.1137 0.21368-1.3362 1.2519-3.4521 2.3073-4.7021 1.5899-1.8831 2.1224-2.1541 3.1066-1.5812 1.7768 1.0344 4.1139 6.0764 4.1139 8.8751 0 3.2097 1.008 3.1644 4.2573-0.19138 2.8713-2.9653 4.8175-4.1216 7.9351-4.7142 2.8149-0.5351 2.7673 0.6276-0.14119 3.4466-3.3795 3.2756-5.069 7.3703-5.1064 12.376-0.0359 4.818 0.61707 7.1653 4.1777 15.017 3.3569 7.4024 5.134 14.579 5.134 20.733 0 6.6287-1.3325 10.833-4.6152 14.563-3.2705 3.7155-5.0001 4.7764-5.5311 3.3928z" fill="#cf1126" fill-rule="evenodd"/><path d="m726.73 389.63c-1.6381-3.2109-5.0613-7.1709-6.1988-7.1709-1.0268 0-6.1654 5.7006-6.1654 6.8397 0 0.44232-0.4032 1.1388-0.89603 1.5478-0.69483 0.57665-1.494 0.35218-3.5587-0.99965-3.3576-2.1983-4.872-6.2856-4.8286-13.032 0.03792-5.8844 0.98206-9.9034 4.2339-18.023 2.3623-5.8983 2.5576-6.8481 2.3401-11.38-0.28745-5.9901-1.91-9.6676-6.4638-14.65-1.75-1.9148-3.1819-3.6599-3.1819-3.878 0-0.21808 1.3554-0.39652 3.012-0.39652 3.3528 0 6.109 1.4022 8.8888 4.522 0.97061 1.0893 2.0174 1.9806 2.3262 1.9806 0.30882 0 0.76298-1.5362 1.0092-3.4139 0.49275-3.7565 1.8352-6.34 3.2945-6.34 1.3791 0 2.9279 3.4334 2.9279 6.4907 0 3.7173 1.3304 3.9536 4.2242 0.75056 1.3003-1.4393 3.3701-2.9489 4.5995-3.3546 2.3095-0.76219 5.8237-0.36031 6.5062 0.74405 0.21387 0.34601-0.83315 1.9548-2.3267 3.5751-6.5476 7.1033-7.8655 15.103-4.0193 24.396 3.1376 7.5814 4.1894 12.961 3.8603 19.744-0.35572 7.3326-1.676 10.701-5.076 12.951-1.396 0.92379-2.6847 1.6796-2.864 1.6796s-0.91884-1.1623-1.6436-2.583z" fill="#cf1126" fill-rule="evenodd"/><path d="m711.61 326.89c-3.3595-2.4655-4.4715-4.8194-4.4715-9.4654 0-2.3837 0.44209-3.667 2.0078-5.8284 2.3153-3.1962 1.8889-4.2069-1.3794-3.2695-5.2543 1.5069-7.7668 0.13135-7.9455-4.3502-0.08729-2.1894 0.37905-3.1239 3.3264-6.6656 2.3618-2.838 3.2188-4.3284 2.7552-4.7919-0.46351-0.46351-3.2581 1.9574-8.9848 7.7834-4.5716 4.6509-9.7112 9.4022-11.421 10.558-9.8336 6.6484-19.234 7.6744-23.53 2.5684-2.197-2.611-2.0755-4.0866 0.46642-5.6631 1.1624-0.72087 3.1375-2.38 4.3893-3.6869 2.9475-3.0774 11.732-9.4186 16.094-11.617 3.5379-1.7833 4.3843-2.9994 2.0874-2.9994-2.9848 0-12.548 6.2269-19.791 12.887-2.1371 1.965-5.2048 4.1562-6.8172 4.8695-3.6172 1.6001-10.724 2.1849-13.883 1.1425-2.2384-0.73873-6.302-4.573-6.302-5.9463 0-0.36183 0.92618-1.1563 2.0582-1.7656s3.1566-2.0713 4.4991-3.2491c5.799-5.0875 16.787-10.321 25.514-12.152 2.7691-0.58111 1.7451-1.9834-1.3484-1.8463-5.9817 0.26506-17.871 5.8302-24.979 11.692-8.3214 6.8628-20.87 6.2142-24.91-1.2876-0.69343-1.2876-1.1036-2.4984-0.9115-2.6905 0.19212-0.19211 2.6665-0.93503 5.4987-1.6509 3.0569-0.77271 9.1129-3.2779 14.903-6.165 9.1166-4.5456 11.808-5.516 18.086-6.52 2.8193-0.45089 2.9625-1.8305 0.22366-2.1544-3.5322-0.41772-8.9402 1.3523-18.495 6.0535-12.278 6.041-15.723 7.0799-22.193 6.6932-5.9023-0.35271-9.2249-1.87-14.015-6.4001-3.1315-2.9616-7.5773-10.505-6.7052-11.377 0.2065-0.20649 1.6486-0.00158 3.2047 0.45536 1.7206 0.50524 6.6514 0.8405 12.583 0.85557 8.3136 0.02111 10.522-0.19755 14.956-1.4808 7.4027-2.1425 17.262-7.1479 23.993-12.181 12.89-9.6382 23.402-13.512 36.806-13.566 12.371-0.04902 20.237 2.806 27.21 9.8755 2.356 2.3886 4.3697 3.9389 4.6945 3.6142 0.31278-0.31278 0.65081-4.4927 0.75119-9.2887 0 0 3.647-0.34989 4.4092 0.67016 0 7.7859 0.08933 8.4002 1.2216 8.4002 0.74332 0 1.5369-0.76106 2.0268-1.9438 1.0553-2.5477 4.9783-6.0433 9.1605-8.1626 9.0581-4.5901 24.719-4.7304 37.293-0.33402 5.3007 1.8533 11.182 5.1796 16.785 9.4925 5.6118 4.32 17.103 10.106 23.899 12.033 6.8684 1.9478 18.974 2.4414 25.192 1.0272 2.5585-0.58191 4.9598-1.058 5.3362-1.058 2.2916 0-1.6137 7.6354-6.191 12.104-8.3699 8.1717-19.258 8.1334-34.585-0.12142-9.5469-5.1418-20.965-7.9494-20.965-5.1552 0 0.58305 0.59895 0.97539 1.489 0.97539 3.3157 0 9.7314 2.2241 18.669 6.4718 9.6749 4.5982 15.103 6.5334 18.325 6.5334 2.3364 0 2.4084 1.452 0.23092 4.6565-2.3151 3.407-6.2372 5.1007-11.771 5.0831-5.2972-0.01677-8.2362-1.1745-12.962-5.1063-7.9073-6.578-27.617-13.919-26.863-10.005 0.15159 0.78702 1.1055 1.2661 3.1364 1.5753 6.8595 1.0443 14.911 4.892 23.148 11.063 2.5425 1.9046 5.1748 3.7867 5.8497 4.1824 1.1292 0.6621 1.1494 0.86426 0.25433 2.5368-1.4739 2.754-5.2035 4.8993-9.2418 5.3161-5.2331 0.5401-9.7851-1.0163-14.49-4.9545-9.9441-8.3234-19.311-14.347-22.31-14.347-2.4544 0-1.3538 1.3502 2.969 3.6418 5.6788 3.0105 11.517 7.0845 15.814 11.034 2.0383 1.8739 4.3242 3.7378 5.0796 4.1422 1.8038 0.96535 1.7345 2.3693-0.24485 4.9644-2.0168 2.6442-5.3625 3.7972-9.6921 3.3402-8.6395-0.91182-15.381-5.0823-25.972-16.067-4.1384-4.2924-7.8307-7.8044-8.2052-7.8044-1.4126 0-0.58599 1.9163 2.1433 4.9692 3.3833 3.7843 4.0378 5.917 2.7568 8.9828-1.135 2.7163-3.0134 3.3461-6.877 2.3058-3.948-1.0631-4.5628-0.09182-1.9778 3.1248 3.8662 4.8109 3.2908 10.695-1.4421 14.746-1.4691 1.2575-3.0083 2.2864-3.4205 2.2864-0.41218 0-1.4568-1.0735-2.3214-2.3856-3.0434-4.6184-5.7176-4.592-8.6744 0.08576-1.0256 1.6226-1.8955 2.9429-1.933 2.934s-1.4212-1.009-3.0748-2.2226z" fill="#cf1126" fill-rule="evenodd"/><path d="m726.67 233.03-5.1246 4.0619-4.605-3.4715v27.748l9.7296 0.11808z" fill="#cf1126" fill-rule="evenodd"/><path d="m716.95 197.56c-4.4593 0.07734-9.1663 0.13842-13.39 0.96824-2.9353 0.57669-5.5964 1.5232-7.8168 3.0936 0.3673 8.5315 41 12.09 51.907 0.16531-2.2966-1.6749-5.0892-2.6613-8.171-3.259-4.0694-0.78918-8.5718-0.87473-12.847-0.94462 0.00807 2.3458 0.02358 4.6916 0.02358 7.0374l-9.7059-0.02361c-6e-5 -2.4016 8e-5 -4.9536-4e-5 -7.0374z" fill="#cf1126" fill-rule="evenodd"/><path d="m724.89 155.24-2.4162 23.639 24.326 11.879-12.313-16.459 16.813-5.4416z" fill="#cf1126" fill-rule="evenodd"/><path d="m722.18 149.08c-3.694 0-6.4234 1.3798-6.4234 3.0168 0 1.6381 2.7295 3.0288 6.4234 3.0288 3.6914 0 6.3998-1.3907 6.3998-3.0288 0-1.637-2.7084-3.0168-6.3998-3.0168z" fill="#cf1126" fill-rule="evenodd"/><path d="m724.9 153.97-6.3136 0.04723-2.5e-4 49.385 6.4378 0.02361z" fill="#cf1126" fill-rule="evenodd"/><path d="m694.89 204.25c-1.0215 13.117-4.347 22.266-8.9761 32.357l11.097-10.293 7.7199 9.1673 8.3632-9.3282 8.524 7.8807 8.2024-8.2024 8.524 9.9715 7.3982-8.2024 12.545 9.0065c-4.5536-10.094-10.715-18.648-9.9411-32.84-12.152 9.0221-41.028 10.652-53.456 0.48249z" fill="#cf1126" fill-rule="evenodd"/><g transform="matrix(2.6777e-5 0 0 2.6777e-5 -70.97 143.85)" fill="#fc0" fill-rule="nonzero"><path transform="matrix(28222 0 0 28222 -332495 35170)" d="m1134.5 545.32a2.3563 2.1599 0 1 1-4.7125 0 2.3563 2.1599 0 1 1 4.7125 0z"/><path transform="matrix(28222 0 0 28222 -97451 -43178)" d="m1134.5 545.32a2.3563 2.1599 0 1 1-4.7125 0 2.3563 2.1599 0 1 1 4.7125 0z"/></g></svg>
