<?xml version="1.0" encoding="UTF-8"?>
<!-- Created with Inkscape (http://www.inkscape.org/) -->
<svg width="600" height="300" sodipodi:docbase="C:\Documents and Settings\David Nelson\Archives\Svg" sodipodi:docname="Flag of the Cocos (Keeling) Islands.svg" sodipodi:version="0.32" version="1.0" xmlns="http://www.w3.org/2000/svg" xmlns:cc="http://web.resource.org/cc/" xmlns:dc="http://purl.org/dc/elements/1.1/" xmlns:rdf="http://www.w3.org/1999/02/22-rdf-syntax-ns#" xmlns:sodipodi="http://inkscape.sourceforge.net/DTD/sodipodi-0.dtd">
  <sodipodi:namedview id="base" bordercolor="#666666" borderopacity="1.0" pagecolor="#ffffff"/>
  <metadata>
    <rdf:RDF>
      <cc:Work rdf:about="">
        <dc:format>image/svg+xml</dc:format>
        <dc:type rdf:resource="http://purl.org/dc/dcmitype/StillImage"/>
      </cc:Work>
    </rdf:RDF>
  </metadata>
  <g fill-rule="evenodd">
    <rect y="2.3706e-6" width="600" height="300" fill="#008000"/>
    <path transform="matrix(1.4153 0 0 1.4153 -1.115 -.30326)" d="m119.53 62.039a46.123 46.123 0 1 1-92.247 0 46.123 46.123 0 1 1 92.247 0z" fill="#ffe000" sodipodi:cx="73.407516" sodipodi:cy="62.039097" sodipodi:rx="46.12331" sodipodi:ry="46.12331" sodipodi:type="arc"/>
    <path d="m98.458 136.87h16.349s0.73798-1.4987-0.16463-2.248c-0.90261-0.74933-4.4184-0.91429-3.4685-3.565 1.9528-5.4497 2.2253-3.7694 3.4515-16.712 1.2262-12.943 1.8166-33.243 1.8166-33.243h-2.3615s0.45414 6.3126-0.90829 14.533c-1.3624 8.22-1.7712 8.9466-3.2698 15.259-1.4987 6.3126-1.7257 6.8576-3.0882 10.536s-1.4987 3.8602-3.6332 7.2663-1.3624 2.1345-2.5432 4.1781c-0.59039 1.0218-1.317 0.74934-1.7144 1.493-0.39738 0.74366-0.4655 2.5035-0.4655 2.5035z" fill="#802000" stroke="#7b3100" stroke-width="1.3889" sodipodi:nodetypes="ccsssccssssssc"/>
    <g transform="matrix(5 0 0 5 0 -1.4811e-5)" fill="#ffe000">
      <polygon points="90 45.714 90.826 48.284 93.351 47.328 91.857 49.576 94.178 50.954 91.489 51.188 91.86 53.861 90 51.905 88.14 53.861 88.511 51.188 85.822 50.954 88.143 49.576 86.649 47.328 89.174 48.284"/>
      <polygon points="90 5.7143 90.826 8.2839 93.351 7.3279 91.857 9.5762 94.178 10.954 91.489 11.188 91.86 13.861 90 11.905 88.14 13.861 88.511 11.188 85.822 10.954 88.143 9.5762 86.649 7.3279 89.174 8.2839"/>
      <polygon points="75 21.964 75.826 24.534 78.351 23.578 76.857 25.826 79.178 27.204 76.489 27.438 76.86 30.111 75 28.155 73.14 30.111 73.511 27.438 70.822 27.204 73.143 25.826 71.649 23.578 74.174 24.534"/>
      <polygon points="103.33 17.964 104.16 20.534 106.68 19.578 105.19 21.826 107.51 23.204 104.82 23.438 105.19 26.111 103.33 24.155 101.47 26.111 101.84 23.438 99.155 23.204 101.48 21.826 99.983 19.578 102.51 20.534"/>
      <polygon points="96 30 96.653 31.601 98.378 31.728 97.057 32.843 97.47 34.522 96 33.611 94.53 34.522 94.943 32.843 93.622 31.728 95.347 31.601"/>
    </g>
    <path d="m300 87.5c-34.5 0-62.5 28-62.5 62.5s28 62.5 62.5 62.5c16.175 0 30.782-6.3126 41.884-16.406-0.81754 0.39872-1.5461 0.94614-2.3872 1.3021-3.0761 1.3018-6.2885 2.3094-9.6354 2.9948-3.3469 0.68545-6.8247 1.0417-10.373 1.0417s-7.0264-0.35622-10.373-1.0417c-3.3469-0.68544-6.5594-1.693-9.6354-2.9948s-5.9878-2.9253-8.724-4.7743-5.3118-3.9229-7.6389-6.25-4.4444-4.9027-6.2934-7.6389-3.4291-5.6479-4.7309-8.724-2.3094-6.2886-2.9948-9.6354c-0.68544-3.3469-1.0417-6.8247-1.0417-10.373 0-3.5486 0.35622-7.0264 1.0417-10.373 0.68545-3.3469 1.693-6.5594 2.9948-9.6354 1.3018-3.0761 2.8819-5.9878 4.7309-8.724s3.9663-5.3117 6.2934-7.6389c2.3271-2.3271 4.9027-4.401 7.6389-6.25s5.6479-3.4725 8.724-4.7743 6.2885-2.3094 9.6354-2.9948c3.3469-0.68545 6.8247-1.0417 10.373-1.0417s7.0264 0.35622 10.373 1.0417c3.3469 0.68544 6.5594 1.693 9.6354 2.9948 0.84107 0.35594 1.5696 0.90335 2.3872 1.3021-11.102-10.094-25.709-16.406-41.884-16.406z" fill="#ffe000"/>
    <path d="m110.94 39.8c0.13581 2.5394-0.11946 5.9011-1.1719 8.6372-1.0671 3.0485-2.2276 6.0874-2.1701 9.2448-1.6965 0.57705-3.4451-3.6713-5.0781-1.1719 1.2276 3.4534 4.0619 6.1878 6.0038 9.2991 0.32751 0.9646 3.1213 3.4832 1.5048 4.0689-4.0802-1.3964-5.0692-6.5659-7.6-9.7056-2.9393-5.2831-8.4193-9.0172-14.524-9.2749-2.2931 0.060077-9.749-0.56834-7.8091 3.3583 2.8569 1.9424 6.3773 3.2089 9.1985 5.3891 2.1018 0.19662 5.9113 3.7053 5.6893 5.031-3.6965-1.4972-5.4267-3.2916-9.4094-4.8666-5.3963-2.0842-12.86-0.83058-15.848 4.525-0.55697 1.3948-1.3793 5.4602 0.37231 5.8475 2.0467-3.1956 4.9744-6.7677 9.3123-5.8095 3.4074 0.26603-3.8022 6.3478-1.0443 5.1241 0.8739-0.38778 2.8919-1.7124 4.2918-1.8508 1.3999-0.13834 2.1817 0.90964 3.2439 1.0546 2.1243 0.28999 2.7092 1.1805 2.5123 1.6986-0.23231 0.61125-0.90721 0.089364-3.0667 0.77404-1.0797 0.34234-1.6438 1.2912-2.9032 1.7256-1.2594 0.43438-3.8794 0.46517-4.8584 0.079977-3.4254-1.4879-9.041-1.2288-10.109 3.0635-9.38e-4 1.8876-1.6807-0.20856-2.457 0.60689-0.58211 2.0597-0.73267 4.1745-3.7877 3.9875-1.8545 1.9455-3.7536 3.9599-6.1081 5.3441 1.3818 3.1717 6.857-3.1854 6.601-0.50498-2.3935 3.2638 1.2315 3.9506 2.8183 1.4384 2.6838-2.8357 6.008-6.2873 10.013-3.4296 1.9074 1.7958 3.0157-0.94944 4.3962-0.80243 0.86978 2.2307 1.9642 0.10979 2.9514-0.52083 1.616-0.20133 1.1614 2.0184 3.0816 0.65104 3.827-2.5328 8.5354-0.40452 12.274-2.8689 3.9793-1.813 0.55868 1.4603-0.53964 2.7398-1.7484 3.3911-0.23212 7.8432-4.0246 9.9489-1.5234 4.0414 1.7998 9.3693-1.5897 12.359-0.49307 1.8748 4.3592 1.6601 5.721 2.4305 2.3863 0.09449-0.10256-5.4618 2.2651-6.2065 3.1752 1.9654 3.0266-3.5148 2.3709-5.2052 0.30781-3.8424 0.52466-8.0436 2.434-11.524 2.0299-4.2656 3.9087 1.7372 1.6364 3.426-1.2908 3.9224-3.1696 8.8308-0.23466 12.479 0.84588 0.1893 1.5404 2.2396 2.6357 2.8698 1.0952 0.63017 2.5911-0.15978 2.8642-2.0251 1.4048-5.6172 0.69712-11.658 2.7033-17.121 1.416-1.6922 3.3692-0.27286 4.2473 1.2833 2.8113 3.2638 4.7875 7.3439 8.1912 10.033 3.099 1.4502 5.8396 3.6435 7.2679 6.8341-0.01911 2.4615 6.9913 2.8388 4.8963 0.10281-2.01-2.6635-0.68378-5.3276 1.3521-7.0989 1.0904 0.26894 0.76811-1.6839-0.08681-0.91146-1.3688-0.32288-1.4563-2.8281 0.44623-1.6373 3.2045 1.0345-0.24982-2.3192-1.4081-2.422-2.7095-1.6795-5.8225-3.6117-7.1545-6.5309 3.5271 0.035969 7.1884 1.9383 10.793 0.75835 2.8891-1.4843 5.8196 0.12381 6.8286 2.6705 2.2333-0.35639 1.2812-2.5961 0-3.342 1.6335-0.67408 2.7632-2.0717 0.78255-3.3045-1.0461-1.3651 1.4027-3.6936-1.6072-3.5966 0.09827-2.2992-0.8069-4.4031-3.3131-5.1975-2.5106-2.126-9.8781 3.1321-9.6643-1.6601-0.74234-2.6082 2.9927-0.34845 4.0364-1.6493 1.0785-2.7496-5.1391-2.4813-3.0875-4.6131 1.3399-0.86272 7.6278-2.102 2.6968-3.025-2.4612 0.67643-4.5734 0.17553-6.5103-1.0425-1.7653 2.9525-6.8061-1.6034-5.9078 3.6459-0.68958 1.978-5.1951 7.1173-6.4142 3.18 1.037-3.086 6.3747-4.0951 4.7197-8.2558-0.25406-2.5974-2.4075 0.45171-3.422 0.25804-0.51374-1.6168 1.5538-3.5225 2.9948-3.9063 2.8594 2.1993 2.946-2.7747 5.6654-2.37 1.9854-0.44112-0.64113-1.2927-1.1949-1.6664 0.54409-1.4533 3.592-2.196 0.60332-3.4579-2.637-1.9567-4.5916 1.9476-6.7665 2.1559-2.0876-2.3569 1.8953-3.4898 2.9948-4.7309 0.05907-0.92519-2.3224-0.27913-1.6059-1.0851 0.62236-1.1125 4.8394-1.1953 2.8646-2.8646-2.9741-1.021-6.8116-0.76644-9.6654 0.55632-1.7978 0.58198-2.3267 4.6469-3.8763 4.4784-0.72858-1.8094 0.23722-5.3793-2.2569-5.9028zm14.062 39.714c2.2662-0.38375 0.04811 3.4415-1.0417 3.3854 0.09633-1.3745-3.2777-1.2422-1.1844-2.4398 0.67886-0.43836 1.4352-0.77273 2.226-0.94564z" fill="#008000" sodipodi:nodetypes="cccccccccccccccsssssscccccccccccccccccccccsccccccccccccccccccccccccccccccccccccccccc"/>
  </g>
</svg>
