<?xml version="1.0" encoding="UTF-8"?>
<svg width="1e3" height="500" version="1.0" viewBox="0 0 512 256" xmlns="http://www.w3.org/2000/svg">
  <rect width="512" height="256" fill="#fff"/>
  <rect y="171.5" width="512" height="84.5" fill="#da000c"/>
  <path d="m235.78 227.56v8.0312h5.0312v-4.0312h6.8438v4.0312h5.4062v-8.0312zm0 11.062v8.0625h17.281v-8.0625h-5.4062v4.0312h-6.8438v-4.0312z" fill="#f8d80e" stroke="#000"/>
  <rect x="196.57" y="116.3" width="118.86" height="43.993"/>
  <path d="m229.82 153.86h-39.069l-8.6601 5.6998v6.0397h47.729" fill="#da000c" stroke="#000" stroke-linecap="square"/>
  <path d="m282.18 153.86h39.069l8.6601 5.6998v6.0397h-47.729" fill="#da000c" stroke="#000" stroke-linecap="square"/>
  <path d="m182.09 159.56h147.82" stroke="#000" stroke-linecap="square"/>
  <path d="m228.56 156.81-9.7812 4.7188v7.0312h74.438v-7.0312l-9.7812-4.7188h-27.438z" fill="#da000c" fill-rule="evenodd" stroke="#000"/>
  <g stroke="#000" stroke-linecap="round">
    <path d="m273.3 150.03c-1.3418 0.39513-3.04 1.2531-5.125 2.4062-2.085 1.1532-4.47 2.604-6.7188 4.0938-1.6672 1.1044-3.0598 2.2073-4.4375 3.2812-0.48062 0.37465-1.1431 0.76616-1.5625 1.125-0.49019 0.41944-0.82607 0.81979-1.2188 1.2188-0.25679 0.2609-0.59888 0.52432-0.8125 0.78125-0.5403 0.64982-1.0625 1.2153-1.0625 2.4062 0 0.21619 0.00613 0.43298 0.03125 0.65625 0.77484-0.92888 1.8874-1.5749 3.125-1.7188 0.00595 1.5e-4 0.02745 1.7e-4 0.03125 0 0.03147 9e-5 0.09339-6.2e-4 0.125 0 0.00381-7e-5 0.02529-9e-5 0.03125 0 0.12206-0.00958 0.21933 0 0.34375 0 0.12441 0 0.22168-0.00958 0.34375 0 0.18759 0.01472 0.35356 0.05908 0.53125 0.09375 0.06833-0.06295 0.12149-0.12616 0.1875-0.1875 0.22719-0.21114 0.34986-0.35832 0.625-0.59375 0.54971-0.47037 1.456-1.0657 2.1562-1.5938 1.1328-0.85434 2.1593-1.6743 3.5-2.5625 2.1695-1.4372 4.4804-2.8378 6.4688-3.9375s3.7534-1.8923 4.4375-2.0938z" fill="#f8d80e" fill-rule="evenodd" stroke-width=".768"/>
    <path d="m260.4 157.39v3.9119"/>
    <path d="m262.82 155.69v3.8828"/>
    <path d="m265.23 154.18v3.8581"/>
    <path d="m267.65 152.69v3.9813"/>
  </g>
  <path d="m218.77 161.52h74.458" stroke="#000"/>
  <path d="m213.47 128.59c5.6248 0 10.219 4.6893 10.219 10.469v14.781h7.3438v-56h-40.281v56h12.5v-14.781c-1e-5 -5.5537 4.5149-10.469 10.219-10.469z" fill="#da000c" stroke="#000" stroke-linecap="square"/>
  <rect x="204.53" y="59.962" width="18.523" height="33.959"/>
  <path d="m223 88.656h-16.209v-5.75h-11.885v5.75h-8.0625v-5.75h-4.8125v10.438h40.969m-36.156-0.037712h34.97v4.5377h-34.97z" fill="#da000c" fill-rule="evenodd" stroke="#000"/>
  <path d="m200.72 47.625v35.281h6.0723v-9.6875c0-3.6293 2.5621-6.5994 6.1464-6.7812 0.11562-0.005867 0.22668 0 0.34375 0 3.7464-3e-6 6.7812 3.0349 6.7812 6.7812v9.6875h5.7812v-35.281z" fill="#da000c" fill-rule="evenodd" stroke="#000"/>
  <rect x="240.8" y="38.351" width="29.329" height="53.255"/>
  <path d="m238.75 38.375v44.562h9.3125v-13.219c0-3.0489 1.9525-7.2812 7.9375-7.2812s7.9375 4.2323 7.9375 7.2812v13.219h9.3125v-44.562h-17.25zm15.812 5h2.875v15.25h-2.875zm-8.25 3h2.9062v11.156h-2.9062zm16.469 0h2.9062v11.156h-2.9062z" fill="#da000c" fill-rule="evenodd" stroke="#000"/>
  <path d="m235.59 31.969v6.3438h40.812v-6.3438h-20.406z" fill="#da000c" stroke="#000" stroke-linecap="square"/>
  <path d="m231.75 24.594v7.375h48.5v-7.375h-6.0938v4.0625h-6.875v-4.0625h-7.8438v4.0625h-6.875v-4.0625h-7.8438v4.0625h-6.875v-4.0625z" fill="#da000c" stroke="#000" stroke-linecap="square"/>
  <path d="m198.53 42.844v4.7812h29.25v-4.7812z" fill="#da000c" stroke="#000" stroke-linecap="square"/>
  <path d="m194.78 33.688v9.1562h35.094v-9.1562h-5.4062v4.6562h-6.5312v-4.6562h-9.9688v4.6562h-6.5312v-4.6562z" fill="#da000c" stroke="#000" stroke-linecap="square"/>
  <rect x="253.05" y="193.65" width="4.9902" height="58.115" fill="#f8d80e" stroke="#000"/>
  <path d="m255.55 179.41 10.625 6.1875-10.625 6.1562-10.625-6.1562zm-14.219 3.9688h-2.7812v4.4375h2.7812l14.219 8.25 14.219-8.25h2.7812v-4.4375h-2.7812l-14.219-8.25z" fill="#f8d80e" stroke="#000" stroke-width="1.024"/>
  <path d="m238.89 150.16-1.1875 3.3125c3.8406 1.388 9.2899 4.0862 13.656 6.7188 2.1832 1.3163 4.0937 2.6103 5.4062 3.6875 0.65627 0.53861 1.1603 1.0384 1.4375 1.375 0.03413 0.04145 0.07416 0.09175 0.09375 0.125 0.00348 0.00635-0.00309 0.0252 0 0.03125 0.02197 0.04614 0.04874 0.09464 0.0625 0.125-0.02533 0.22369-0.06536 0.46484-0.125 0.625-0.00516 0.01283-0.02571 0.05079-0.03125 0.0625-0.00287 0.00556 0.00297 0.026 0 0.03125-0.00309 0.00493-0.02806 0.02665-0.03125 0.03125-0.02069 0.02668-0.04055 0.06763-0.0625 0.09375-0.00458 0.00517-0.02646 0.02615-0.03125 0.03125-0.00509 0.00503-0.02587 0.02631-0.03125 0.03125-0.01151 0.00969-0.04929 0.02201-0.0625 0.03125-0.02132 0.01347-0.06719 0.05039-0.09375 0.0625-0.14286 0.05797-0.37638 0.09375-0.75 0.09375-0.22157 0-0.40077-0.03272-0.53125-0.0625-0.05023-0.01255-0.11654-0.01528-0.15625-0.03125-0.01272-0.00549-0.05076-0.02544-0.0625-0.03125-0.03386-0.01786-0.06691-0.04239-0.09375-0.0625-0.00828-0.00829-0.0268-0.02738-0.03125-0.03125-0.00275-0.00343-0.02859-0.02726-0.03125-0.03125-0.00767-0.01344-0.02369-0.0517-0.03125-0.0625-0.00217 1e-4 -0.02875-4e-5 -0.03125 0-0.00277 1.9e-4 -0.02797-7.4e-4 -0.03125 0-0.00698-2.3e-4 -0.02335 4e-5 -0.03125 0-0.01643 1.2e-4 -0.04841 0-0.0625 0-0.09694 0-0.18682-0.00954-0.28125 0-1.1474 0.11588-2.1197 0.93411-2.4375 2.0625 3.1e-4 0.00274-9e-5 0.02861 0 0.03125 0.0038 0.00423 0.02737 0.02743 0.03125 0.03125 0.01567 0.01427 0.04669 0.0458 0.0625 0.0625 0.80273 0.96876 2.18 1.625 3.7188 1.625 1.6184 0 3.0296-0.67766 3.8125-1.6875 0.78284-1.0098 0.96875-2.1581 0.96875-3.0938 0-1.0911-0.48992-1.7245-1-2.3438-0.51009-0.61922-1.1723-1.2157-1.9375-1.8438-1.5304-1.256-3.535-2.5956-5.8125-3.9688-4.5551-2.7463-10.081-5.5132-14.281-7.0312z" fill="#f8d80e" fill-rule="evenodd" stroke="#000" stroke-width=".768"/>
  <g stroke="#000" stroke-linecap="round">
    <path d="m254.05 158.04-0.31238 3.3395"/>
    <path d="m256.83 159.74-0.86199 3.2697"/>
    <path d="m259.8 162.01-1.8089 2.5373"/>
    <path d="m260.72 168.18-2.6102-1.4005"/>
    <path d="m261.53 165.43-2.9954 0.28045"/>
    <path d="m257.66 169.76-0.2051-2.6323"/>
    <path d="m256.57 166.76-2.473 1.8222"/>
    <path d="m244.68 152.94v3.115"/>
    <path d="m250.96 156.24v3.5342"/>
    <path d="m247.82 154.59v3.3189"/>
  </g>
  <path d="m255.34 164.28c-2.3197 0.35626-4.0938 2.4671-4.0938 4.9375v11.031c0 2.7174 2.1585 4.9688 4.8125 4.9688 0.06912 0 0.11905 0.00297 0.1875 0 0.06845 0.00297 0.11838 0 0.1875 0 1.8869 1e-5 3.5241-1.147 4.3125-2.7812l-1.7188-1.0312c-0.4275 1.0595-1.4305 1.7813-2.5938 1.7812-0.04496 0-0.08827-2.6e-4 -0.125 0-0.01145-1.9e-4 -0.04602 1.3e-4 -0.0625 0-0.01764 0.00133-0.04723-2.5e-4 -0.0625 0-0.03673-2.6e-4 -0.08004 0-0.125 0-1.551 2e-5 -2.8125-1.2781-2.8125-2.9375v-11.031c0-1.6594 1.2615-2.9062 2.8125-2.9062 0.04402 0 0.08788 2.8e-4 0.125 0 0.01531 2.7e-4 0.04526-0.00144 0.0625 0 0.01641-1.4e-4 0.05102 2e-4 0.0625 0 0.03712 2.8e-4 0.08098 0 0.125 0 0.43622 0 0.84996 0.10255 1.2188 0.28125 0.00255 9e-5 0.0291-2.9e-4 0.03125 0 0.08168-0.01478 0.16518-0.04076 0.21875-0.0625 0.02511-0.01612 0.07776-0.0524 0.09375-0.0625 0.00523-0.00552 0.02613-0.02571 0.03125-0.03125 0.00292 3e-5 0.02757-1.6e-4 0.03125 0 0.00538-0.00494 0.02616-0.02622 0.03125-0.03125 0.00664-0.00653 0.02896-0.02866 0.03125-0.03125 0.01879-0.0257 0.0444-0.0704 0.0625-0.09375-6e-5 -0.00287 4e-4 -0.02773 0-0.03125l0.03125-0.03125c0.00415-0.00878 0.02304-0.04586 0.03125-0.0625 0.05964-0.16016 0.09967-0.40131 0.125-0.625-0.01376-0.03036-0.04052-0.07886-0.0625-0.125 2e-4 -0.00156 6e-5 -0.02417 0-0.03125-0.02125-0.03247-0.06389-0.08873-0.09375-0.125-0.20307-0.24652-0.55161-0.56469-0.96875-0.9375-0.00319 6.4e-4 -0.0285-1.6e-4 -0.03125 0-0.02985-0.00682-0.095-0.02492-0.125-0.03125-0.00416-2.5e-4 -0.02745-5e-5 -0.03125 0-0.01613 2.4e-4 -0.05309 3.7e-4 -0.0625 0-0.00615 1e-4 -0.02729 9e-5 -0.03125 0-0.01772 2.2e-4 -0.05044-3.8e-4 -0.0625 0-0.0324 0.00141-0.09592 0.00229-0.125 0-0.12206-0.00958-0.21934 0-0.34375 0-0.07776 0-0.11827 4.7e-4 -0.1875 0-0.06923 4.7e-4 -0.10974 0-0.1875 0-0.12441 0-0.22169-0.00958-0.34375 0-0.02908 0.00229-0.0926 0.00141-0.125 0-0.01205-3.8e-4 -0.04478 2.2e-4 -0.0625 0-0.00792 1.8e-4 -0.02585-6.3e-4 -0.03125 0-0.01254 4.9e-4 -0.05193 9e-4 -0.0625 0-0.0038-5e-5 -0.02709-2.5e-4 -0.03125 0-0.01833 0.00259-0.04423-0.00281-0.0625 0zm5.7812 3.9062c-0.05069 0.07539-0.10115 0.17474-0.15625 0.25-0.41589 0.53648-1.0113 0.98407-1.7188 1.2812v7.5625l2 1.1562v-9.2188c0-0.35013-0.02571-0.69981-0.09375-1.0312-0.00323-0.00101-0.02848 2.5e-4 -0.03125 0z" fill="#f8d80e" stroke="#000" stroke-width="1.024"/>
  <path d="m298.53 128.59c-5.6248 0-10.219 4.6893-10.219 10.469v14.781h-7.3438v-56h40.281v56h-12.5v-14.781c1e-5 -5.5537-4.5149-10.469-10.219-10.469z" fill="#da000c" stroke="#000" stroke-linecap="square"/>
  <path d="m222.75 97.844v4.5938h66.5v-4.5938h-33.25z" fill="#da000c" stroke="#000" stroke-linecap="round"/>
  <rect transform="scale(-1,1)" x="-307.47" y="59.962" width="18.523" height="33.959"/>
  <path d="m289 88.656h16.209v-5.75h11.885v5.75h8.0625v-5.75h4.8125v10.438h-40.969m36.156-0.037712h-34.97v4.5377h34.97z" fill="#da000c" fill-rule="evenodd" stroke="#000"/>
  <path d="m311.28 47.625v35.281h-6.0723v-9.6875c0-3.6293-2.5621-6.5994-6.1464-6.7812-0.11562-0.005867-0.22668 0-0.34375 0-3.7464-3e-6 -6.7812 3.0349-6.7812 6.7812v9.6875h-5.7812v-35.281z" fill="#da000c" fill-rule="evenodd" stroke="#000"/>
  <path d="m220.03 82.906v14.938h71.938v-14.938h-6.8125v5.75h-9.0625v-5.75h-12.156v5.75h-15.875v-5.75h-12.156v5.75h-9.0625v-5.75z" fill="#da000c" fill-rule="evenodd" stroke="#000"/>
  <path d="m313.47 42.844v4.7812h-29.25v-4.7812z" fill="#da000c" stroke="#000" stroke-linecap="square"/>
  <path d="m317.22 33.688v9.1562h-35.094v-9.1562h5.4062v4.6562h6.5312v-4.6562h9.9688v4.6562h6.5312v-4.6562z" fill="#da000c" stroke="#000" stroke-linecap="square"/>
  <rect x="253.05" y="198.68" width="4.9902" height="50.06" fill="#f8d80e" stroke="#000"/>
  <path d="m228.69 102.44v54.344h12.844v-20.344c0-9.5827 6.3963-14.094 14.469-14.094 7.7589 0 14.469 4.511 14.469 14.094v20.344h12.844v-54.344h-27.312z" fill="#da000c" fill-rule="evenodd" stroke="#000" stroke-linejoin="round"/>
</svg>
