<?xml version="1.0" encoding="UTF-8"?>
<svg width="820" height="440" version="1.0" xmlns="http://www.w3.org/2000/svg">
  <rect width="820" height="440" fill="#c62139"/>
  <rect x="20" y="20" width="780" height="400" fill="#00297b"/>
  <path d="m410.26 100s-80.257 54.71-80.257 119.22c0 64.521 80.257 120.78 80.257 120.78s79.743-51.619 79.743-120.78c0-69.156-79.743-119.22-79.743-119.22" fill="#c62139"/>
  <path d="m477.92 240.56c1.7605-6.864 2.7606-13.991 2.7606-21.34 0-61.93-70.426-107.86-70.426-107.86s-71.455 47.485-71.455 107.86c0 7.251 1.0177 14.316 2.8133 21.16l136.31 0.18063" fill="#66afeb"/>
  <path d="m409.67 328.13s55.236-36.58 68.226-87.745h-136.34c13.189 50.179 68.109 87.745 68.109 87.745" fill="#007bde"/>
  <path d="m480.34 226.45c-12.084 8.6083-80.088 4.4745-80.088 4.4745l-3.8017 9.6353h81.468c0.33923-1.3212 0.64923-2.6424 0.92997-3.979l1.4914-10.131" fill="#9c8431"/>
  <path d="m406.08 287.36c-1.0352-7.2097-32.841-14.93-49.721-14.296 5.2698 8.2677 11.241 15.834 17.248 22.558 8.5744-9.2018 32.812-5.8834 32.473-8.2625" fill="#fff100"/>
  <path d="m470.45 260.55c-4.0415 0.14451-11.376 0.78962-16.4 3.4062-7.2467 3.7829-23.471 7.9168-30.724 5.8473-7.2467-2.0643-18.64 4.4745-17.254 5.8473 2.2986 2.2966 18.979-0.34062 18.979 14.456 0 12.386-19.324 6.8846-26.922 12.045-4.5796 3.1017-7.7731 6.4717-9.5862 8.6393 11.861 10.977 21.149 17.335 21.149 17.335s22.021-14.585 41.521-38.201l9.1709-12.169c3.6965-5.4137 7.1239-11.158 10.066-17.206" fill="#fff100"/>
  <path d="m384.64 257.16h2.9244v-31.481h-2.9244v31.481z"/>
  <path d="m394.14 263.1s-1.199 0.2116-3.1057 0.45416v-2.4566h-1.9418v2.6682c-1.9886 0.20128-4.3983 0.36642-6.925 0.36642-2.6846 0-5.3926-0.19611-7.6268-0.42319v-2.5443h-2.1407v2.3017c-1.8482-0.23224-3.0414-0.43351-3.0414-0.43351s-0.58488 3.2255 12.622 3.2255c13.201 0 12.166-3.1584 12.166-3.1584" fill="#7b4800"/>
  <path d="m405.86 165.17s-11.007-6.4511-26.021-3.3597c-15.014 3.0965-18.254 12.51-18.254 12.51l5.0475-2.3172 0.12868 2.0643 4.5328-2.8385 0.12867 2.0643 3.8836-3.6074 0.63753 2.3172 3.4976-3.0965 0.2632 1.6773 5.6909-3.6126v2.3224l4.5328-2.0695-0.38602 2.1985 8.5451-1.5431s-20.196 6.704-22.781 22.832l3.8778-4.6345 0.39187 2.183 2.4565-4.8977 0.64922 1.9353 2.1992-4.5158 0.64338 2.7043 3.3631-4.9028 0.2632 2.8436 3.8778-5.2899v2.5701l4.1468-4.5158-0.12868 3.3649s4.0123-3.3649 5.299-3.3649l-4.7843 6.1982 1.5558 0.51609s-3.3689 2.7094-3.6263 3.2255c-0.25735 0.51092 2.205 0 2.205 0s-2.9829 3.0914-3.1116 3.9997c-0.12867 0.90831 1.9418 0 1.9418 0s-2.7197 3.4784-3.1057 4.779c-0.39187 1.2902 1.4212 0.25288 1.4212 0.25288s-1.6786 4.1287-1.8131 5.2899c-0.12868 1.1509 1.9418-0.26321 1.9418-0.26321l1.1698 7.0962 2.0705-8.5051 1.2926 1.9353v-6.0692l1.1639 1.027-0.12866-3.9894 1.5499 1.5431-0.77205-4.9028 1.6786 1.925-0.25735-4.1184 1.6786 1.6824v-5.4241l1.5558 1.4089 0.25735-3.7262 1.8131 0.89799s0.25735-4.5158 2.3337-4.3867c2.0646 0.1187 4.6557 2.3172 3.6204 3.3442l1.8131-0.5006-0.38602 4.3712 1.6786-1.027-0.25735 3.2255 1.4213-0.64511-0.51469 4.1235 1.6845-1.0167 0.12282 5.0164 1.936-1.4089-0.12868 5.9247 1.9418-1.5379v4.8977l1.8131-1.2799 1.9476 4.7686-0.39186-7.0962 1.4271 1.156-2.5969-5.0267 1.9477-0.2632-2.0763-3.3597 1.9418 0.1445-2.8425-3.3597 1.936-0.3819-4.2755-3.1017 2.3337-0.89799-4.4042-2.8436 1.6845-0.64511-3.0999-3.2255 3.2344 1.2902 1.0294-2.0644 3.8836 3.1017v-3.1017l3.3631 4.6448 0.39188-2.8436 2.591 3.6178 0.5147-1.6721 1.8131 3.6074 0.90072-2.6991 1.8131 3.8706 0.5147-2.7198 1.6845 4.2629 1.5558-1.6824 0.77789 4.3919 1.5441-1.6824 1.4213 3.8706 1.8131-1.4192 1.5558 4.3919s4.2696-23.487-32.362-23.879l-10.873-2.054" fill="#009270"/>
  <path d="m389.03 144.26 2.0646 2.5701-1.0352 0.78446 3.4976 1.9353-0.7779 1.4141 3.4976 1.2902-1.2984 1.0373 3.1116 1.796-2.0705 0.65543 3.7491 1.8011-0.51469 1.6721 3.2344 0.77929-1.4213 1.156 3.7491 2.9778 4.2755 2.9623 2.977-1.027-1.1698-5.6873s-12.294-16.773-21.869-16.128" fill="#009270"/>
  <path d="m400.29 128 1.4271 3.3442-1.9476 0.39223 4.4042 4.3867-3.4976 0.12902 4.2755 3.3494-2.0763 0.65542 3.8895 3.8706-2.0763 1.027 4.0123 3.9997-2.7138 1.027 4.5328 4.1338-2.591 0.13418 2.7138 3.4733-2.4565 0.77929s2.977 5.5428 2.8425 7.8703l5.0475 0.25288s0.77788-14.966 0.13452-16.902l-1.2984 0.90315 0.38603-5.4189-1.9418 1.1664-0.38018-6.4511-1.9477 2.0592-0.50884-6.3221-1.4271 2.1985-1.4271-6.1982-1.5499 1.9353-1.4271-3.9945-1.1639 1.5431-3.2344-3.3546" fill="#009270"/>
  <path d="m413.36 165.68c1.4271-9.0315 10.879-22.192 28.612-22.708l-4.0181 2.0643 2.3337 1.0322-4.6615 1.6824 2.3278 1.4089-5.5622 0.39223 2.8425 1.9353-4.1351 0.51609-3.2402 0.64511 2.3278 2.1882-4.6615 0.51093 2.9829 1.5534s-7.3812 2.5804-7.8959 3.3597c0 0 24.857-6.3221 30.94 5.4086l-4.796-2.0644 0.39188 2.1985-3.3631-2.4514 0.5147 1.8063-3.4917-1.8063 0.5147 2.1882-3.6263-2.0644 0.7779 1.9456-4.6615-2.1985 0.77789 2.0643-4.0123-1.2902 0.39187 2.1882-4.0181-0.25288 0.39186 2.5804-12.429-0.2632-1.5558-2.5804" fill="#009270"/>
  <path d="m409.57 173.46 2.591-0.17031c-1.2107 24.607-0.07607 59.887 3.2753 72.949 5.6909 22.187 22.284 30.733 26.232 32.859 2.2401 1.1973 1.3803 6.1879-3.1116 5.8473-4.4802-0.34578-20.137-11.875-25.542-32.519-7.2408-27.698-3.7257-76.081-3.445-78.966" fill="#7b4800"/>
  <path d="m374.97 211.16h-3.0706c-0.2398-1.3212-0.81883-2.2501-1.7371-2.7611-0.51469-0.29417-1.082-0.43351-1.7078-0.43351-1.2107 0-2.1933 0.57286-2.9654 1.7547-0.77789 1.1664-1.1639 2.9417-1.1639 5.2899 0 2.3792 0.42111 4.0513 1.2575 5.0525 0.83637 0.9754 1.7897 1.4708 2.8601 1.4708 1.0469 0 1.9009-0.38706 2.5735-1.1715 0.66677-0.77413 1.0762-1.8012 1.24-3.0759h-3.4625v-3.2152h6.2231v10.353h-2.0646l-0.31583-2.4101c-0.60243 0.91864-1.1405 1.5637-1.6201 1.9456-0.82468 0.65543-1.8365 0.98056-3.0414 0.98056-1.9769 0-3.6029-0.88767-4.8604-2.663-1.316-1.7753-1.9769-4.2113-1.9769-7.2975 0-3.1223 0.66677-5.6357 2.0003-7.5194 1.3218-1.8837 3.0823-2.823 5.2756-2.823 1.895 0 3.4216 0.62447 4.5738 1.8682 1.1464 1.2386 1.8131 2.792 1.9828 4.6551" fill="#c62139"/>
  <path d="m389.59 217v-11.865h3.1701v11.865c0 1.3212 0.12868 2.2863 0.36847 2.9004 0.38018 1.0786 1.199 1.6257 2.4741 1.6257 1.2575 0 2.0822-0.54705 2.4623-1.6257 0.24566-0.61415 0.35678-1.5792 0.35678-2.9004v-11.865h3.1759v11.865c0 2.0437-0.24565 3.6384-0.73695 4.7893-0.92411 2.085-2.6729 3.1326-5.2639 3.1326-2.5852 0-4.3457-1.0373-5.2698-3.1326-0.49129-1.1406-0.73695-2.7456-0.73695-4.7893" fill="#c62139"/>
  <path d="m423.12 205.12-5.3438 19.312h3.2812l1.0312-3.9688h5.5l0.96875 3.9688h3.375l-5.3125-19.312h-3.5zm1.7188 4.4062 1.875 7.5938h-3.7812l1.9062-7.5938z" fill="#c62139"/>
  <path d="m451.66 220.3 2.6963-15.168h4.486v19.291h-2.9069v-13.042c0-0.3819 0.00582-0.90831 0.01175-1.5844 0.00582-0.67608 0.01175-1.1973 0.01175-1.5586l-2.8308 16.184h-3.0297l-2.8074-16.184c0 0.36126 0.00582 0.8825 0.01175 1.5586 0.00582 0.67607 0.01175 1.2025 0.01175 1.5844v13.042h-2.9069v-19.291h4.5387l2.7138 15.168" fill="#c62139"/>
  <path d="m381.6 257.07c10.703 0 19.681-1.7134 19.681-1.7134s1.3745 6.8743-19.681 6.8743c-21.056 0-19.33-5.8421-19.33-5.8421s8.6328 0.68123 19.33 0.68123" fill="#7b4800"/>
  <path d="m372.63 227.48s16.57 6.1982 23.132 27.879c0 0-15.189-3.0914-23.822 0.34578h-4.8311c0-0.01075 8.2878-12.045 5.5213-28.225" fill="#fff"/>
  <path d="m413.76 165.21c1.6143 0 2.9302 1.3109 2.9302 2.921 0 1.6154-1.316 2.921-2.9302 2.921-1.6201 0-2.9302-1.3057-2.9302-2.921 0-1.6102 1.3101-2.921 2.9302-2.921" fill="#7b4800"/>
  <path d="m409.09 164.36c1.5148 0 2.7431 1.218 2.7431 2.7301s-1.2282 2.7404-2.7431 2.7404-2.7431-1.2283-2.7431-2.7404 1.2283-2.7301 2.7431-2.7301" fill="#7b4800"/>
  <path d="m409.09 169.32c1.4154 0 2.5618 1.1354 2.5618 2.5495 0 1.4089-1.1464 2.5598-2.5618 2.5598s-2.5618-1.1509-2.5618-2.5598c0-1.4141 1.1464-2.5495 2.5618-2.5495" fill="#7b4800"/>
  <path d="m412.59 167.85c1.5207 0 2.7489 1.2231 2.7489 2.7353s-1.2282 2.7301-2.7489 2.7301c-1.5148 0-2.7431-1.218-2.7431-2.7301s1.2282-2.7353 2.7431-2.7353" fill="#7b4800"/>
</svg>
