<?xml version="1.0" encoding="UTF-8"?>
<svg width="1280" height="640" viewBox="0 0 30240 15120" xmlns="http://www.w3.org/2000/svg" xmlns:xlink="http://www.w3.org/1999/xlink">
  <defs>
    <polygon id="Star7" points="0 -9 1.7355 -3.6039 7.0365 -5.6114 3.8997 -0.89008 8.7744 2.0027 3.1273 2.494 3.905 8.1087 0 4 -3.905 8.1087 -3.1273 2.494 -8.7744 2.0027 -3.8997 -0.89008 -7.0365 -5.6114 -1.7355 -3.6039"/>
    <polygon id="Star5" points="0 -9 2.3511 -3.2361 8.5595 -2.7812 3.8042 1.2361 5.2901 7.2812 0 4 -5.2901 7.2812 -3.8042 1.2361 -8.5595 -2.7812 -2.3511 -3.2361"/>
  </defs>
  <path d="m0 0h30240v15120h-30240v-15120z" fill="#00008b"/>
  <use id="Commonwealth_Star" transform="matrix(252,0,0,252,7560,11340)" fill="#fff" xlink:href="#Star7"/>
  <use id="Star_Alpha_Crucis" transform="matrix(120,0,0,120,22680,12600)" fill="#fff" xlink:href="#Star7"/>
  <use id="Star_Beta_Crucis" transform="matrix(120,0,0,120,18900,6615)" fill="#fff" xlink:href="#Star7"/>
  <use id="Star_Gamma_Crucis" transform="matrix(120,0,0,120,22680,2520)" fill="#fff" xlink:href="#Star7"/>
  <use id="Star_Delta_Crucis" transform="matrix(120,0,0,120,26040,5607)" fill="#fff" xlink:href="#Star7"/>
  <use id="Star_Epsilon_Crucis" transform="matrix(70,0,0,70,24192,8190)" fill="#fff" xlink:href="#Star5"/>
  <path id="White_Cross" d="m6300 0h2520v2520h6300v2520h-6300v2520h-2520v-2520h-6300v-2520h6300v-2520z" fill="#fff"/>
  <path id="White_Diagonal" d="m0 0h1690.5l13430 6714.8v845.23h-1690.5l-13430-6714.8v-845.23z" fill="#fff"/>
  <use id="White_Diagonal_Flipped" transform="matrix(-1,0,0,1,15120,0)" fill="#fff" xlink:href="#White_Diagonal"/>
  <path id="Red_Cross" d="m6804 0h1512v3024h6804v1512h-6804v3024h-1512v-3024h-6804v-1512h6804v-3024z" fill="red"/>
  <path id="Red_Diagonals" d="m0 0 5040 2520h-1127l-3913-1956.5v-563.49zm15120 0h-1127l-5040 2520h1127l5040-2520z" fill="red"/>
  <use id="Red_Diagonals_Rotated" transform="matrix(-1,0,0,-1,15120,7560)" fill="red" xlink:href="#Red_Diagonals"/>
</svg>
