<?xml version="1.0" encoding="UTF-8"?>
<svg width="1575" height="900" version="1.1" viewBox="-157.5 0 315 180" xmlns="http://www.w3.org/2000/svg" xmlns:cc="http://creativecommons.org/ns#" xmlns:dc="http://purl.org/dc/elements/1.1/" xmlns:rdf="http://www.w3.org/1999/02/22-rdf-syntax-ns#" xmlns:xlink="http://www.w3.org/1999/xlink">
  <metadata>
    <rdf:RDF>
      <cc:Work rdf:about="">
        <dc:format>image/svg+xml</dc:format>
        <dc:type rdf:resource="http://purl.org/dc/dcmitype/StillImage"/>
        <dc:title>Flag of Iran</dc:title>
      </cc:Work>
    </rdf:RDF>
  </metadata>
  <title>Flag of Iran</title>
  <rect x="-157.5" width="315" height="180" fill="#239f40"/>
  <rect x="-157.5" y="60" width="315" height="60" fill="#fff"/>
  <rect x="-157.5" y="120" width="315" height="60" fill="#da0000"/>
  <g id="b4">
    <g id="b2">
      <g id="b" transform="translate(0 55.1)" fill="none" stroke="#fff" stroke-linecap="square">
        <path id="p" transform="scale(1.4)" d="m-9-3h12m-12 4v-2h4v2h4v-2h-2m6 2h-2v-2h4v-2m0 2v2h4v-4m-2 0v4m-14 0h1e-3"/>
        <path id="t" transform="scale(1.4 2)" d="m-9 2.25h8m2 0h8"/>
        <use transform="translate(0 72.6)" xlink:href="#p"/>
        <use transform="translate(0 60.8)" xlink:href="#t"/>
      </g>
      <use transform="translate(28)" xlink:href="#b"/>
    </g>
    <use transform="translate(-56)" xlink:href="#b2"/>
  </g>
  <use transform="translate(112)" xlink:href="#b4"/>
  <use transform="translate(-84)" xlink:href="#b"/>
  <use transform="translate(-140)" xlink:href="#b2"/>
  <g transform="matrix(.10436 0 0 .10436 -21.796 68.941)" fill="#da0000">
    <g fill="#da0000">
      <path d="m296.69 47.667s156 122 41.333 297.33c108-66 117.33-247.5-41.333-297.33z"/>
      <path d="m208.86 30.334c-24.834 28-67.5 0.1665-52.833-30.334 25.667 46 52.833 8.8335 52.833 8.8335s27.166 37.166 52.833-8.8335c14.667 30.5-27.999 58.334-52.833 30.334z"/>
      <path d="m208.86 410.34-17.833-23.334s-41.999 14-97.333-5.333c45.333 0 70.667-8.001 80-12.667 0 0-102.67-55.333-100.67-168 6-114 66.667-148.67 66.667-148.67s-108 157.33 50.666 288.83l-7-162.67v-119.5c9-2.167 25.5-21.167 25.5-21.167s16.5 19 25.5 21.167v119.5l-7 162.67c158.67-131.5 50.666-288.83 50.666-288.83s60.667 34.667 66.667 148.67c2 112.67-100.67 168-100.67 168 9.333 4.666 34.667 12.667 80 12.667-55.334 19.333-97.333 5.333-97.333 5.333l-17.833 23.334z"/>
      <path d="m121.03 47.667s-156 122-41.333 297.33c-108-66-117.33-247.5 41.333-297.33z"/>
    </g>
  </g>
</svg>
