<?xml version="1.0" encoding="UTF-8"?>
<!-- Created with Inkscape (http://www.inkscape.org/) -->
<svg width="1e3" height="600" version="1.0" xmlns="http://www.w3.org/2000/svg" xmlns:cc="http://web.resource.org/cc/" xmlns:dc="http://purl.org/dc/elements/1.1/" xmlns:rdf="http://www.w3.org/1999/02/22-rdf-syntax-ns#">
  <defs>
    <clipPath id="clip">
      <circle cy="-39" r="46"/>
    </clipPath>
  </defs>
  <metadata>
    <rdf:RDF>
      <cc:Work rdf:about="">
        <dc:format>image/svg+xml</dc:format>
        <dc:type rdf:resource="http://purl.org/dc/dcmitype/StillImage"/>
      </cc:Work>
    </rdf:RDF>
  </metadata>
  <g transform="translate(697.89 382.43)">
    <g transform="matrix(2 0 0 2 697.89 -217.57)">
      <rect x="-697.89" y="-82.426" width="500" height="300" fill="#e8112d"/>
      <g transform="translate(-447.55 67.877)" fill="#ffef00">
        <path d="m4.2-54c-4.2-11 4.8-28-4.2-36 3 12-7 25-4.2 36s12.6 11 8.4 0z"/>
        <path d="m12.596-52.678c-2.4275-11.522 9.1211-26.904 1.4834-36.214 1.0859 12.322-10.825 23.597-9.7799 34.9 1.0447 11.303 10.724 12.836 8.2966 1.314z"/>
        <path d="m20.681-50.059c-0.59525-11.759 13.218-25.146 7.1302-35.536-0.85504 12.34-14.383 21.613-15.119 32.94-0.73623 11.327 8.5841 14.355 7.9889 2.5957z"/>
        <path d="m28.258-46.208c1.2517-11.708 16.989-22.769 12.601-33.983-2.7749 12.054-17.587 19.097-20.086 30.169-2.4991 11.072 6.2328 15.521 7.4845 3.8135z"/>
        <path d="m35.138-41.218c3.0678-11.368 20.341-19.831 17.762-31.593-4.6264 11.472-20.358 16.111-24.558 26.656-4.2004 10.545 3.728 16.305 6.7957 4.9374z"/>
        <path d="m41.154-35.214c4.8083-10.748 23.193-16.405 22.486-28.426-6.364 10.607-22.627 12.728-28.426 22.486-5.7983 9.7581 1.1314 16.688 5.9397 5.9397z"/>
        <path d="m46.156-28.343c6.4305-9.8635 25.474-12.575 26.656-24.558-7.9448 9.4805-24.34 9.0315-31.593 17.762-7.2534 8.7309-1.4931 16.659 4.9374 6.7957z"/>
        <path d="m50.021-20.773c7.8943-8.7361 27.127-8.4349 30.169-20.086-9.3301 8.1209-25.453 5.1127-33.983 12.601-8.5299 7.4887-4.0808 16.221 3.8135 7.4845z"/>
        <path d="m52.655-12.692c9.1638-7.3936 28.113-4.0874 32.94-15.119-10.486 6.5614-25.94 1.068-35.536 7.1302-9.5964 6.0621-6.568 15.382 2.5957 7.9889z"/>
        <path d="m53.992-4.2992c10.208-5.8691 28.406 0.36074 34.9-9.7799-11.383 4.8403-25.787-3.003-36.214 1.4834-10.427 4.4863-8.8935 14.166 1.314 8.2966z"/>
      </g>
      <g transform="matrix(0 1 -1 0 -447.55 67.877)" fill="#ffef00">
        <path d="m4.2-54c-4.2-11 4.8-28-4.2-36 3 12-7 25-4.2 36s12.6 11 8.4 0z"/>
        <path d="m12.596-52.678c-2.4275-11.522 9.1211-26.904 1.4834-36.214 1.0859 12.322-10.825 23.597-9.7799 34.9 1.0447 11.303 10.724 12.836 8.2966 1.314z"/>
        <path d="m20.681-50.059c-0.59525-11.759 13.218-25.146 7.1302-35.536-0.85504 12.34-14.383 21.613-15.119 32.94-0.73623 11.327 8.5841 14.355 7.9889 2.5957z"/>
        <path d="m28.258-46.208c1.2517-11.708 16.989-22.769 12.601-33.983-2.7749 12.054-17.587 19.097-20.086 30.169-2.4991 11.072 6.2328 15.521 7.4845 3.8135z"/>
        <path d="m35.138-41.218c3.0678-11.368 20.341-19.831 17.762-31.593-4.6264 11.472-20.358 16.111-24.558 26.656-4.2004 10.545 3.728 16.305 6.7957 4.9374z"/>
        <path d="m41.154-35.214c4.8083-10.748 23.193-16.405 22.486-28.426-6.364 10.607-22.627 12.728-28.426 22.486-5.7983 9.7581 1.1314 16.688 5.9397 5.9397z"/>
        <path d="m46.156-28.343c6.4305-9.8635 25.474-12.575 26.656-24.558-7.9448 9.4805-24.34 9.0315-31.593 17.762-7.2534 8.7309-1.4931 16.659 4.9374 6.7957z"/>
        <path d="m50.021-20.773c7.8943-8.7361 27.127-8.4349 30.169-20.086-9.3301 8.1209-25.453 5.1127-33.983 12.601-8.5299 7.4887-4.0808 16.221 3.8135 7.4845z"/>
        <path d="m52.655-12.692c9.1638-7.3936 28.113-4.0874 32.94-15.119-10.486 6.5614-25.94 1.068-35.536 7.1302-9.5964 6.0621-6.568 15.382 2.5957 7.9889z"/>
        <path d="m53.992-4.2992c10.208-5.8691 28.406 0.36074 34.9-9.7799-11.383 4.8403-25.787-3.003-36.214 1.4834-10.427 4.4863-8.8935 14.166 1.314 8.2966z"/>
      </g>
      <g transform="matrix(-1 0 0 -1 -447.55 67.877)" fill="#ffef00">
        <path d="m4.2-54c-4.2-11 4.8-28-4.2-36 3 12-7 25-4.2 36s12.6 11 8.4 0z"/>
        <path d="m12.596-52.678c-2.4275-11.522 9.1211-26.904 1.4834-36.214 1.0859 12.322-10.825 23.597-9.7799 34.9 1.0447 11.303 10.724 12.836 8.2966 1.314z"/>
        <path d="m20.681-50.059c-0.59525-11.759 13.218-25.146 7.1302-35.536-0.85504 12.34-14.383 21.613-15.119 32.94-0.73623 11.327 8.5841 14.355 7.9889 2.5957z"/>
        <path d="m28.258-46.208c1.2517-11.708 16.989-22.769 12.601-33.983-2.7749 12.054-17.587 19.097-20.086 30.169-2.4991 11.072 6.2328 15.521 7.4845 3.8135z"/>
        <path d="m35.138-41.218c3.0678-11.368 20.341-19.831 17.762-31.593-4.6264 11.472-20.358 16.111-24.558 26.656-4.2004 10.545 3.728 16.305 6.7957 4.9374z"/>
        <path d="m41.154-35.214c4.8083-10.748 23.193-16.405 22.486-28.426-6.364 10.607-22.627 12.728-28.426 22.486-5.7983 9.7581 1.1314 16.688 5.9397 5.9397z"/>
        <path d="m46.156-28.343c6.4305-9.8635 25.474-12.575 26.656-24.558-7.9448 9.4805-24.34 9.0315-31.593 17.762-7.2534 8.7309-1.4931 16.659 4.9374 6.7957z"/>
        <path d="m50.021-20.773c7.8943-8.7361 27.127-8.4349 30.169-20.086-9.3301 8.1209-25.453 5.1127-33.983 12.601-8.5299 7.4887-4.0808 16.221 3.8135 7.4845z"/>
        <path d="m52.655-12.692c9.1638-7.3936 28.113-4.0874 32.94-15.119-10.486 6.5614-25.94 1.068-35.536 7.1302-9.5964 6.0621-6.568 15.382 2.5957 7.9889z"/>
        <path d="m53.992-4.2992c10.208-5.8691 28.406 0.36074 34.9-9.7799-11.383 4.8403-25.787-3.003-36.214 1.4834-10.427 4.4863-8.8935 14.166 1.314 8.2966z"/>
      </g>
      <g transform="matrix(0 -1 1 0 -447.55 67.877)" fill="#ffef00">
        <path d="m4.2-54c-4.2-11 4.8-28-4.2-36 3 12-7 25-4.2 36s12.6 11 8.4 0z"/>
        <path d="m12.596-52.678c-2.4275-11.522 9.1211-26.904 1.4834-36.214 1.0859 12.322-10.825 23.597-9.7799 34.9 1.0447 11.303 10.724 12.836 8.2966 1.314z"/>
        <path d="m20.681-50.059c-0.59525-11.759 13.218-25.146 7.1302-35.536-0.85504 12.34-14.383 21.613-15.119 32.94-0.73623 11.327 8.5841 14.355 7.9889 2.5957z"/>
        <path d="m28.258-46.208c1.2517-11.708 16.989-22.769 12.601-33.983-2.7749 12.054-17.587 19.097-20.086 30.169-2.4991 11.072 6.2328 15.521 7.4845 3.8135z"/>
        <path d="m35.138-41.218c3.0678-11.368 20.341-19.831 17.762-31.593-4.6264 11.472-20.358 16.111-24.558 26.656-4.2004 10.545 3.728 16.305 6.7957 4.9374z"/>
        <path d="m41.154-35.214c4.8083-10.748 23.193-16.405 22.486-28.426-6.364 10.607-22.627 12.728-28.426 22.486-5.7983 9.7581 1.1314 16.688 5.9397 5.9397z"/>
        <path d="m46.156-28.343c6.4305-9.8635 25.474-12.575 26.656-24.558-7.9448 9.4805-24.34 9.0315-31.593 17.762-7.2534 8.7309-1.4931 16.659 4.9374 6.7957z"/>
        <path d="m50.021-20.773c7.8943-8.7361 27.127-8.4349 30.169-20.086-9.3301 8.1209-25.453 5.1127-33.983 12.601-8.5299 7.4887-4.0808 16.221 3.8135 7.4845z"/>
        <path d="m52.655-12.692c9.1638-7.3936 28.113-4.0874 32.94-15.119-10.486 6.5614-25.94 1.068-35.536 7.1302-9.5964 6.0621-6.568 15.382 2.5957 7.9889z"/>
        <path d="m53.992-4.2992c10.208-5.8691 28.406 0.36074 34.9-9.7799-11.383 4.8403-25.787-3.003-36.214 1.4834-10.427 4.4863-8.8935 14.166 1.314 8.2966z"/>
      </g>
      <circle transform="translate(-447.55 67.877)" r="54" fill="#e8112d"/>
      <path transform="matrix(1.3677 0 0 1.3677 -176.99 -86.201)" d="m-158.96 112.06a38.825 38.825 0 1 1-77.65 0 38.825 38.825 0 1 1 77.65 0z" fill="none" stroke="#ffef00" stroke-linecap="round" stroke-linejoin="round" stroke-width="8"/>
      <circle transform="matrix(.88995 0 0 .89973 -447.55 67.626)" cy="-3" r="45" fill="#ffef00"/>
      <g transform="matrix(.88995 0 0 .89973 -447.55 100.02)" clip-path="url(#clip)" fill="#e8112d">
        <path d="m45-63.64c-35.147 0-63.64 28.492-63.64 63.64 0 35.147 28.492 63.64 63.64 63.64l-3.6 2.4651c-36.509 0-66.105-29.596-66.105-66.105s29.596-66.105 66.105-66.105l3.6 2.4651z"/>
        <path d="m39-67.849c-37.472 0-67.849 30.377-67.849 67.849s30.377 67.849 67.849 67.849l-3.6 2.7532c-38.993 0-70.602-31.61-70.602-70.602 0-38.993 31.61-70.602 70.602-70.602l3.6 2.7532z"/>
        <path d="m33-72.521c-40.052 0-72.521 32.469-72.521 72.521s32.469 72.521 72.521 72.521l-3.6 2.9896c-41.703 0-75.51-33.807-75.51-75.51s33.807-75.51 75.51-75.51l3.6 2.9896z"/>
        <g transform="scale(-1,1)">
          <path d="m45-63.64c-35.147 0-63.64 28.492-63.64 63.64 0 35.147 28.492 63.64 63.64 63.64l-3.6 2.4651c-36.509 0-66.105-29.596-66.105-66.105s29.596-66.105 66.105-66.105l3.6 2.4651z"/>
          <path d="m39-67.849c-37.472 0-67.849 30.377-67.849 67.849s30.377 67.849 67.849 67.849l-3.6 2.7532c-38.993 0-70.602-31.61-70.602-70.602 0-38.993 31.61-70.602 70.602-70.602l3.6 2.7532z"/>
          <path d="m33-72.521c-40.052 0-72.521 32.469-72.521 72.521s32.469 72.521 72.521 72.521l-3.6 2.9896c-41.703 0-75.51-33.807-75.51-75.51s33.807-75.51 75.51-75.51l3.6 2.9896z"/>
        </g>
      </g>
    </g>
  </g>
</svg>
