<?xml version="1.0" encoding="UTF-8"?>
<svg width="684" height="360" viewBox="0 0 570 300" xmlns="http://www.w3.org/2000/svg">
  <title>Flag of the Marshall Islands</title>
  <rect transform="matrix(2.4 0 0 2.4 -300 -1325.7)" x="125" y="552.36" width="237.5" height="125" fill="#003893"/>
  <path transform="matrix(2.4 0 0 2.4 -300 -1325.7)" d="m170.64 636.75-1.6-26.61-5.58 14.66 2.49-15.48-9.19 12.71 6.42-14.31-12.16 9.9 9.9-12.16-14.31 6.41 12.71-9.18-15.49 2.49 14.66-5.58-26.6-1.6 26.6-1.6-14.66-5.58 15.49 2.49-12.71-9.19 14.31 6.42-9.9-12.16 12.16 9.9-6.42-14.31 9.19 12.71-2.49-15.48 5.58 14.65 1.6-26.6 1.6 26.6 5.58-14.65-2.49 15.48 9.18-12.71-6.42 14.31 12.17-9.9-9.9 12.16 14.31-6.42-12.71 9.19 15.48-2.49-14.66 5.58 26.61 1.6-26.61 1.6 14.66 5.58-15.48-2.49 12.71 9.18-14.31-6.41 9.9 12.16-12.17-9.9 6.42 14.31-9.18-12.71 2.49 15.48-5.58-14.66-1.6 26.61z" fill="#FFF" fill-rule="evenodd"/>
  <path transform="matrix(2.4 0 0 2.4 -300 -1325.7)" d="m125 675.36 237.5-72v-49l-237.5 117v4z" fill="#FFF" fill-rule="evenodd"/>
  <path transform="matrix(2.4 0 0 2.4 -300 -1325.7)" d="m125 673.36 237.5-94.5v-24.5l-237.5 117v2z" fill="#dd7500" fill-rule="evenodd"/>
</svg>
