<?xml version="1.0" encoding="UTF-8"?>
<!DOCTYPE svg  PUBLIC '-//W3C//DTD SVG 1.1//EN'  'http://www.w3.org/Graphics/SVG/1.1/DTD/svg11.dtd'>
<svg width="1e3" height="600" version="1.1" viewBox="0 0 1e3 600" xmlns="http://www.w3.org/2000/svg">
  <rect width="1e3" height="600" fill="#0067C6"/>
  <rect y="200" width="1e3" height="200" fill="#fff"/>
  <g transform="matrix(.307 0 0 .309 358.8 111)">
    <path d="m263.5 725.4 196.6-338.6 196.5 338.6h-393.1z" fill="#FFCE00"/>
    <path d="m282.9 714.2 177.1-305.1 177.2 305.1h-354.3z" fill="#84D6FF"/>
  </g>
  <path d="m500 238.2v71.8m-25.9-27.6h51.9m-45.1-10.9 58 33.4m-19.2-33.6-58.6 33.8m27.2-2.1 21.9-38m-21-1.4 24.5 42.5" stroke="#fff" stroke-width=".5"/>
  <circle cx="500" cy="282.4" r="8" fill="#84D6FF"/>
  <g transform="matrix(1.629,0,0,1.648,443.8,251)">
    <path d="m61.83 38.44-16.52 0.25s0.08 2.41 1.16 2.5c1.09 0.08 14.75-0.17 15.34 0.91 0.58 1.09-13.34 1.67-13.34 1.67s12.25-0.08 12.92 0.83c0.67 0.92-6.75 1.09-6.17 1.25 0.59 0.17 8.67-0.16 9.42 0.75 0.75 0.92-3.67 1.5-3.67 1.5s6.67 0.65 6.86 0.63c-1.61-2.78-6-10.29-6-10.29z" fill="#317CA6"/>
    <path d="m32.04 15.87c-0.53 0.35 1.24 0.57 1.08 1.72-0.12 0.83-1.08 1.92-1.5 2.67s1.92 3.48 4.08 2c2.18-1.49 1.91-4.18 1.17-4.67-1.73-1.12-2.85-2.84-4.83-1.72z" fill="#D21734"/>
    <path d="m32 20.76c-0.34-0.92 1.12-0.5 1.79-0.08 0.66 0.41 1.82 1.5 0.99 1.61" fill="none" stroke="#000" stroke-linecap="round" stroke-width=".3"/>
    <path d="m20.31 25.75c1.95-0.45 2.5 1.81 3.12 2.19 0.63 0.37 2.31 0.56 2.75 0.81s2.13 1.38 2.13 1.38 0.75-2 1.62-2.19c0.88-0.19 4.63 2.37 4.63 2.37s0.43-2.37 1.43-2.06 6 4.06 6 4.06 0.25-1.31 1.32-1.68c1.06-0.38 4.75 1.87 4.75 1.87s0.44-1.81 1.19-1.81c2.17 0 9.27 7.6 10.84 7.77 0.73 0.08-2.59 1.04-2.59 1.04s0.56 0.5 0.25 0.94c-0.32 0.44-10.13 0.06-10.13 0.06s0.29 0.66 0.12 0.88c-0.29 0.38-42.694 0.66-42.694 0.66 3.947-6.74 11.764-15.48 15.264-16.29z" fill="#57702E"/>
    <path d="m37.05 41.7c1.5-0.38 0.44-4.45-7.68-10.64 12.87 8.79 4.69 10 17.85 10.38-2.36 0.16-10.17 0.26-10.17 0.26z" fill="#1D332F"/>
    <path d="m34.99 30.75s12.17 9.29 12.65 9.75c0.62 0.02 2.62 0.09 2.62 0.09s-1.68-0.12-15.27-9.84z" fill="#1D332F"/>
    <path d="m42.24 32.56s10.21 7.97 8.57 8c-1.69 0.04 5.58 0.22 6.86-0.07-6.62-0.39-5.25-0.66-15.43-7.93z" fill="#1D332F"/>
    <path d="m48.43 32.88 9.06 6.62s1.39-0.39 2.13-0.69c-2.69 0.39-3.16-0.81-11.19-5.93z" fill="#1D332F"/>
    <path d="m21.92 26.64c0.69 0.47 0.87 1.37 1.31 1.62s4.63 2.19 6.94 4.56c2.31 2.38 5.81 5.38 4.56 5.75-1.25 0.38-2.44-0.93-2.44-0.93s1.75 2.81-0.56 3c-2.31 0.18-8-8.32-8-8.32s2.75 7.69-0.75 7.38c-3.5-0.32-3.12-5.82-3.12-5.82s-0.94 2.63-1.63 2.57c-0.69-0.07 0-3.44 0-3.44s-4 6.62-5.56 5.87c-1.57-0.75 6.15-12.81 9.25-12.24z" fill="#8DC32E"/>
    <path d="m30.24 28.89c-0.1-0.64 0.5-0.43 1.75 0.19 1.25 0.61 11.32 8.31 11.07 9.11s-12.25-5.63-12.82-9.3z" fill="#8DC32E"/>
    <path d="m37.68 30.19c-0.74-0.17 8 8.62 10.06 8.06 2.07-0.56-9.5-7.94-10.06-8.06z" fill="#8DC32E"/>
    <path d="m43.74 30.94c-0.95-0.08 8.5 8.37 10.57 7.94 2.06-0.44-9.07-7.82-10.57-7.94z" fill="#8DC32E"/>
    <path d="m49.31 31.42c-1.06 0.18 7.07 6.36 8.07 6.3s-5.66-6.71-8.07-6.3z" fill="#8DC32E"/>
    <path d="m21.3 14.22s5-5.782 13.18-5.782c8.19 0 13.2 5.772 13.2 5.772l-1.99-3.46s-4.07-4.052-11.19-4.052c-7.13 0-11.15 3.992-11.15 3.992l-2.05 3.53z" fill="#c0148c"/>
    <path d="m44.43 8.608s-3.57-3.006-9.94-3.006c-6.38 0-9.94 3.05-9.94 3.05l-1.64 2.788s3.83-4.331 11.58-4.331 11.61 4.341 11.61 4.341l-1.67-2.842z" fill="#d21734"/>
    <path d="m43.19 6.183s-3.26-2.422-8.7-2.422-8.37 2.177-8.37 2.177l-1.75 3s3.26-3.181 10.13-3.181c6.88 0 10.14 3.181 10.14 3.181l-1.45-2.755z" fill="#fdce12"/>
    <path d="m41.66 3.898 1.56 2.665s-3.23-2.358-8.73-2.358-8.81 2.483-8.81 2.483l1.59-2.688s2.22-1.625 7.22-1.625 7.17 1.523 7.17 1.523z" fill="#8DC32E"/>
    <path d="m40.57 2.052 1.33 2.25s-3.16-1.591-7.41-1.591-7.63 1.977-7.63 1.977l1.27-2.167s2.23-1.333 6.36-1.333c4.12 0 6.08 0.864 6.08 0.864z" fill="#4e94c2"/>
    <path d="m39.88 0.8478 1.05 1.8262s-2-1.287-6.44-1.287c-4.43 0-6.45 1.282-6.45 1.282l1.09-1.8861s1.96-0.70216 5.36-0.70216c3.48 0 5.39 0.76706 5.39 0.76706z" fill="#1B4895"/>
    <path d="m26.39 42.6 16.67 0.17s-2.92 0.33-2.84 0.67c0.09 0.33 5.92 0.5 5.92 0.5s-3.58 0.25-3.67 0.58c-0.08 0.33 1.67 0.5 1.67 0.5s-3.25 0.33-3.25 0.67c0 0.33 4.17 0.5 3.83 0.5-0.33 0-5.5 0.08-5.5 0.5 0 0.41 3.71 1.29 3.71 1.29l-21.87 0.37s3.41-0.5 3.41-1.16c0-0.67-2.41-0.84-2.41-0.84s8.91 0.17 9.33-0.25c0.42-0.41-1.87-0.71-1.87-0.71s3.54 0.21 3.79-0.2c0.25-0.42-4.75-1.09-4.75-1.09s2.91 0.09 3.33-0.41c0.41-0.5-5.5-1.09-5.5-1.09z" fill="#fff"/>
    <path d="m23.22 43.02s-16.414 0.5-17.831 1.42c-1.417 0.91 9.171 1.83 9.171 1.83s-10.921 0.08-11.754 1.08 6.5 0.84 6.5 0.84l-8.187 0.57 3.919-6.7 18.182 0.96z" fill="#317CA6"/>
  </g>
  <g transform="matrix(.896 0 0 .896 410 210)" fill="#FDCE12">
    <path d="m12.62 128.3c0.32 1.1-0.25 2.2-1.3 2.5-1.02 0.3-2.13-0.2-2.455-1.3-0.331-1 0.244-2.1 1.275-2.5 1.04-0.3 2.15 0.3 2.48 1.3z"/>
    <path d="m15.77 147.4c-1.2 1.1-2.12 1.7-1.32 3.5l-0.64 0.3-3.25-6.8 0.64-0.3c0.63 1.2 1.02 1.4 1.6 1.1 0.37-0.2 0.72-0.5 1.02-0.8l1.96-1.8-2.37-4.9-1.42 0.1c-0.59 0.1-1.28 0.2-1.82 0.4-0.992 0.5-0.954 1.6-0.605 2.5l-0.641 0.3-2.464-5.2 0.641-0.3c1.367 1.6 2.523 1.5 4.399 1.3l11.91-1 2.27 2.4-9.91 9.2zm6.08-10.4-7.34 0.6 2.03 4.3 5.31-4.9z"/>
    <path d="m26.51 164.2c-1.22 0.9-1.28 1.6-0.36 2.9l-0.57 0.4-4.56-6.2 0.57-0.4c0.91 1.2 1.61 1.4 2.83 0.5l9.09-6.7h-0.03l-14.12 4.3-0.46-0.6 8.02-11.9-0.03-0.1-7.06 5.2c-2.77 2.1-3 2.5-2.02 4.1l-0.58 0.5-3.22-4.4 0.57-0.5c1.42 1.4 1.8 1.5 4.59-0.6l6.68-4.9c1.3-0.9 1.21-1.7 0.36-2.8l0.57-0.5 3.73 5.1-5.92 8.6 10.05-3 3.63 5-0.57 0.4c-1-1.2-1.51-1.5-2.83-0.5l-8.36 6.1z"/>
    <path d="m29.05 169.9c1.15 1 1.87 1 2.87-0.1l6.91-7.8c1-1.1 0.92-1.8-0.24-2.8l0.47-0.6 9.69 8.7-1.67 3.9-0.68-0.2c0.16-2.4-0.44-5.1-2.28-6.7-1.42-1.3-1.85-0.8-2.92 0.4l-2.79 3.1 0.32 0.3c1.61 1.4 2.56 1.8 4.55 0.7l0.63 0.5-4.14 4.7-0.63-0.6c1.02-2 0.53-3.1-1.05-4.5l-0.35-0.3-3.02 3.4c-0.84 0.9-1.3 1.6-0.16 2.6 2 1.8 4.78 2.3 7.34 1.9l0.23 0.6-3.87 1.9-9.68-8.6 0.47-0.5z"/>
    <path d="m53.84 185c-0.1 1.7-0.18 3.2 1.32 4.3l-0.38 0.6-4.51-2.8c-0.01-0.7 0.11-1.4 0.18-2l0.35-3c0.38-3-0.21-3.7-0.97-4.2l-2.56 4.1c-0.8 1.3-0.6 2 0.72 2.8l-0.38 0.6-6.53-4.1 0.38-0.6c1.31 0.9 2.02 0.7 2.81-0.5l5.51-8.8c0.8-1.3 0.59-2-0.72-2.8l0.38-0.6 7.84 4.9c2.7 1.7 3.45 4.2 2.24 6.1-1.26 2-3.62 1.9-5.58 1.1 0.33 0.7 0.22 1.5 0.15 2.3l-0.25 2.6zm-3.13-7.7c3.01 1.9 4.54 1.5 5.75-0.5 1.15-1.8 0.5-3.1-1.45-4.3-1.2-0.8-1.54-0.4-2.19 0.7l-2.46 3.9 0.35 0.2z"/>
    <path d="m62.91 179c0.62-1.4 0.33-2.1-1.08-2.7l0.29-0.6 7.02 3.1-0.3 0.7c-1.41-0.7-2.09-0.4-2.72 0.9l-4.29 9.5c-0.62 1.3-0.33 2 1.08 2.6l-0.29 0.7-7.01-3.2 0.29-0.7c1.41 0.7 2.1 0.5 2.72-0.9l4.29-9.4z"/>
    <path d="m80.09 187.2-1.01-0.1c-0.27-2.2-1.29-4.9-3.62-5.6-3.12-1-5.08 2.7-5.86 5.1-1.59 4.9 0.21 7.8 2.5 8.5 2.03 0.7 3.78-0.3 5.33-1.5l0.41 0.6c-2.19 2-4.65 3-7.62 2.1-4.07-1.4-5.85-5.7-4.58-9.6 1.37-4.3 5.55-7.5 9.79-6.1 0.74 0.2 1.28 0.6 1.74 0.9s0.83 0.6 1.24 0.8c0.54 0.1 1.11 0 1.65 0l0.26-0.1-0.23 5z"/>
    <path d="m90.9 196.8c0.22 1.6 0.26 2.7 2.16 3.1l-0.11 0.7-7.46-1.2 0.11-0.7c1.37 0.2 1.73-0.1 1.84-0.7 0.06-0.4 0-0.9-0.06-1.3l-0.37-2.6-5.41-0.9-0.69 1.3c-0.28 0.5-0.61 1.1-0.71 1.7-0.17 1.1 0.74 1.7 1.66 1.9l-0.11 0.7-5.65-0.9 0.11-0.7c2.07-0.2 2.66-1.2 3.6-2.9l5.91-10.4 3.26-0.5 1.92 13.4zm-5.1-10.9-3.62 6.4 4.65 0.7-1.03-7.1z"/>
    <path d="m113 188.6-0.9 0.4c-1.1-2-3-4.2-5.4-4-3.3 0.2-3.8 4.4-3.6 6.9 0.3 5.2 3 7.2 5.4 7 2.1-0.1 3.4-1.7 4.4-3.3l0.6 0.4c-1.3 2.6-3.2 4.5-6.4 4.7-4.2 0.2-7.45-3.2-7.7-7.3-0.27-4.5 2.5-9 6.9-9.2 0.8-0.1 1.4 0 2 0.2 0.5 0.1 1 0.3 1.4 0.2 0.6 0 1.1-0.3 1.5-0.5l0.3-0.2 1.5 4.7z"/>
    <path d="m116 198.8c1.5-0.3 2-0.9 1.6-2.4l-2.3-10.1c-0.4-1.4-1-1.8-2.5-1.4l-0.2-0.7 12.7-3 2.2 3.7-0.6 0.4c-1.8-1.5-4.4-2.6-6.7-2-1.9 0.4-1.8 1.1-1.4 2.6l0.9 4.1 0.5-0.1c2.1-0.5 2.9-1.1 3.1-3.3l0.8-0.2 1.4 6-0.8 0.2c-1-2-2.2-2.2-4.3-1.7l-0.4 0.1 1 4.4c0.3 1.2 0.6 2 2.1 1.7 2.6-0.6 4.6-2.6 5.8-4.9l0.6 0.1-0.7 4.3-12.6 2.9-0.2-0.7z"/>
    <path d="m143 185.8-2.8-6.6c-0.8-1.7-1.4-2.5-3.4-1.9l-0.3-0.6 5.2-2.3 0.3 0.7c-1.7 1.1-1.6 1.9-0.8 3.7l4.8 10.9-1.8 0.8-12.8-7.7 3.3 7.6c0.9 2.1 1.3 2.4 3.6 1.9l0.3 0.7-5.6 2.4-0.3-0.6c1.8-1.1 1.9-1.9 1.1-3.7l-4-9.1c-0.8-0.4-1.9-0.5-2.8-0.3l-0.3-0.7 5-2.2 11.3 7z"/>
    <path d="m153.2 166.5 3.4 2.9-0.5 0.6c-1.8-0.7-4.5-1.3-6.3-0.2l6.9 10.1c0.9 1.2 1.6 1.3 2.9 0.5l0.4 0.5-6.4 4.4-0.4-0.6c1.3-0.9 1.5-1.6 0.6-2.8l-6.9-10.1c-1.6 1.4-2 3.8-2 5.8l-0.8 0.3-1.5-4.1 10.6-7.3z"/>
    <path d="m171.6 165.6c1.6 0.5 3.1 1 4.5-0.2l0.5 0.5-3.8 3.7c-0.7-0.1-1.3-0.4-1.9-0.6l-2.8-1.1c-2.9-1.1-3.6-0.6-4.3 0l3.4 3.4c1 1.1 1.8 1.1 2.9 0l0.5 0.5-5.5 5.4-0.5-0.5c1.1-1.1 1.1-1.8 0.1-2.9l-7.3-7.4c-1.1-1.1-1.8-1-2.9 0l-0.5-0.5 6.6-6.4c2.3-2.3 4.9-2.4 6.5-0.8 1.7 1.7 1 4-0.2 5.7 0.7-0.1 1.5 0.2 2.3 0.4l2.4 0.8zm-8.2 1.3c2.5-2.5 2.5-4.1 0.9-5.7-1.5-1.6-3-1.2-4.6 0.4-1 1-0.7 1.4 0.2 2.3l3.2 3.3 0.3-0.3z"/>
    <path d="m182.6 151.6c1.5 0.5 2.6 1 3.7-0.6l0.6 0.5-4.4 6.1-0.5-0.4c0.7-1.1 0.7-1.6 0.2-1.9-0.4-0.3-0.8-0.4-1.2-0.6l-2.5-0.8-3.2 4.5 0.8 1.1c0.4 0.5 0.8 1.1 1.2 1.4 0.9 0.7 1.9 0.1 2.5-0.6l0.5 0.4-3.3 4.7-0.6-0.5c0.8-1.9 0.1-2.9-0.9-4.4l-6.7-10 1-3.1 12.8 4.2zm-12-0.3 4.1 6.1 2.8-3.8-6.9-2.3z"/>
    <path d="m186.7 150.2c0.7-1.4 0.5-2.1-0.9-2.8l-9.3-4.6c-1.3-0.7-2-0.4-2.7 1l-0.6-0.3 3.4-6.9 0.7 0.3c-0.7 1.4-0.6 2.1 0.8 2.7l9.3 4.6c1.1 0.6 1.7 0.8 2.4-0.6 1.1-2.3 0.6-5.1-0.4-7.4l0.4-0.4 3.3 3.1-5.8 11.6-0.6-0.3z"/>
    <path d="m188.3 128.3c0.3-1 1.4-1.5 2.4-1.2 1.1 0.3 1.6 1.4 1.3 2.4-0.3 1.1-1.4 1.7-2.5 1.3-1-0.3-1.6-1.4-1.2-2.5z"/>
    <path d="m12.72 109c1.32-1 2.53-1.9 2.37-3.8l0.7-0.1 0.82 5.3c-0.5 0.4-1.09 0.8-1.64 1.2l-2.46 1.6c-2.545 1.7-2.649 2.6-2.51 3.5l4.76-0.8c1.49-0.2 1.88-0.8 1.64-2.3l0.7-0.1 1.19 7.6-0.7 0.1c-0.24-1.5-0.79-2-2.28-1.8l-10.251 1.6c-1.488 0.3-1.873 0.9-1.633 2.4l-0.702 0.1-1.43-9.1c-0.492-3.2 0.906-5.4 3.16-5.7 2.339-0.4 3.767 1.5 4.469 3.5 0.343-0.8 1.035-1.2 1.677-1.7l2.12-1.5zm-3.783 7.4c-0.549-3.5-1.863-4.4-4.117-4-2.147 0.3-2.72 1.7-2.364 4 0.219 1.4 0.761 1.3 1.973 1.2l4.571-0.8-0.063-0.4z"/>
    <path d="m15.19 104.3c0.06-1.5-0.4-2.1-1.9-2.1l-10.367-0.4c-1.505-0.1-1.999 0.4-2.058 2h-0.709l0.492-13 4.073-1.2 0.254 0.68c-1.926 1.36-3.602 3.54-3.695 5.99-0.073 1.92 0.572 1.94 2.164 2l4.193 0.16 0.017-0.43c0.082-2.15-0.248-3.11-2.392-3.92l0.032-0.84 6.216 0.23-0.03 0.84c-2.197 0.5-2.733 1.58-2.814 3.69l-0.018 0.47 4.542 0.17c1.24 0.05 2.09-0.05 2.15-1.58 0.1-2.66-1.32-5.11-3.21-6.86l0.32-0.57 3.94 1.77-0.49 13-0.71-0.1z"/>
    <path d="m10.72 82.05 4.43 0.98c1.47 0.33 2.05-0.09 2.39-1.6l0.69 0.15-1.68 7.52-0.69-0.15c0.34-1.51-0.01-2.14-1.48-2.47l-10.119-2.26c-1.47-0.33-2.049 0.09-2.387 1.6l-0.694-0.15 1.689-7.56c1.051-4.71 3.425-6.05 5.504-5.59 3.867 0.87 3.427 4.71 2.757 7.72l-0.41 1.81zm-0.817-0.19 0.277-1.24c0.56-2.5-0.1-3.88-2.582-4.43-2.289-0.52-3.553 0.5-3.994 2.48-0.38 1.7 0.25 1.84 1.699 2.16l4.6 1.03z"/>
    <path d="m16.3 68.9c3.58 1.54 5.1 0.81 5.98-1.34 1.18-2.89-0.22-4.51-3.13-5.7l-7-2.85c-1.39-0.57-2.03-0.25-2.617 1.18l-0.658-0.27 2.005-4.9 0.65 0.27c-0.58 1.44-0.35 2.11 1.05 2.68l7.15 2.92c3.47 1.42 4.68 3.68 3.09 7.57-1.62 3.96-4.22 5.2-7.3 3.94l-7.575-3.09c-1.395-0.57-2.036-0.25-2.623 1.18l-0.657-0.27 2.914-7.13 0.657 0.27c-0.586 1.43-0.351 2.11 1.043 2.68l7.021 2.86z"/>
    <path d="m25.06 61.86-0.6-0.38c0.83-1.31 0.72-2.02-0.55-2.83l-8.76-5.56c-1.27-0.81-1.95-0.61-2.79 0.7l-0.59-0.38 4.18-6.59c2.95-4.64 5.03-4.74 6.64-3.71 1.88 1.18 1.54 3.65 0.86 5.43l0.03 0.03c1.68-1.76 3.75-3.36 6.2-1.8 2.14 1.36 2.55 3.81 0.3 7.35l-4.92 7.74zm-3.87-10.57c1.46-2.29 1.34-3.79-0.55-4.99s-3.21-0.48-4.32 1.26c-0.26 0.42-0.57 1.02-0.46 1.49 0.12 0.41 0.52 0.63 0.84 0.84l3.84 2.44 0.65-1.04zm4.03 4.01c1.56 1 2.23 1.47 3.42-0.4 1.13-1.78 1.1-3.66-1.24-5.15-1.62-1.02-3.23-1.26-5.34 2.07l-0.67 1.05 3.83 2.43z"/>
    <path d="m33.19 48.07c1.04-1.15 1.05-1.87-0.07-2.88l-7.69-6.96c-1.12-1.01-1.83-0.93-2.87 0.22l-0.52-0.48 5.17-5.71 0.52 0.48c-1.04 1.14-1.05 1.86 0.07 2.87l7.69 6.96c0.96 0.87 1.38 1.23 2.45 0.05 1.78-1.96 1.99-4.79 1.67-7.29l0.52-0.25 2.28 3.86-8.7 9.6-0.52-0.47z"/>
    <path d="m36.87 26.68c-0.96-1.16-1.68-1.18-2.87-0.19l-0.45-0.54 5.92-4.93 0.45 0.55c-1.19 0.99-1.3 1.7-0.33 2.86l6.62 7.97c0.97 1.16 1.68 1.18 2.88 0.19l0.45 0.55-5.93 4.92-0.45-0.54c1.19-0.99 1.3-1.7 0.34-2.86l-6.63-7.98z"/>
    <path d="m55.38 15.82-0.65 0.77c-1.91-1.23-4.61-2.17-6.69-0.86-2.76 1.75-1.16 5.66 0.19 7.78 2.79 4.4 6.12 4.83 8.16 3.55 1.8-1.15 2.15-3.13 2.24-5.07l0.69 0.05c0.16 2.98-0.63 5.52-3.26 7.19-3.62 2.29-8.08 0.88-10.29-2.61-2.39-3.78-2.19-9.05 1.57-11.43 0.65-0.42 1.27-0.61 1.82-0.75 0.54-0.14 1.02-0.24 1.38-0.47 0.48-0.3 0.77-0.79 1.06-1.26l0.15-0.22 3.63 3.33z"/>
    <path d="m72.87 16.95c1.03 1.25 1.65 2.21 3.46 1.52l0.27 0.66-7 2.84-0.27-0.65c1.26-0.56 1.45-0.94 1.21-1.54-0.15-0.38-0.44-0.75-0.71-1.06l-1.67-2.06-5.08 2.07 0.07 1.43c0.03 0.59 0.05 1.28 0.28 1.84 0.41 1.01 1.49 1.04 2.39 0.74l0.27 0.66-5.3 2.16-0.27-0.66c1.64-1.27 1.64-2.43 1.59-4.32l-0.33-11.943 2.53-2.121 8.56 10.434zm-10.01-6.68 0.23 7.36 4.37-1.78-4.6-5.58z"/>
    <path d="m82.92 16.87c1.54-0.17 2.02-0.7 1.85-2.2l-1.14-10.31c-0.17-1.498-0.75-1.909-2.29-1.738l-0.08-0.706 7.44-0.826c1.33-0.147 2.54-0.13 3.7 0.174 2.88 0.785 5.18 3.107 5.6 6.893 0.38 3.483-1.4 6.323-3.88 7.623-1.08 0.57-2.31 0.81-3.68 0.97l-7.44 0.82-0.08-0.7zm5.34-2.82c0.17 1.6 0.23 2.07 2.11 1.86 2.67-0.29 4.49-2.01 3.84-7.895-0.58-5.262-2.72-6.388-5.63-6.066-1.65 0.183-1.58 0.825-1.42 2.172l1.1 9.929z"/>
    <path d="m99.11 15.17c1.59 0.1 2.09-0.33 2.19-1.84l0.7-10.347c0.1-1.503-0.4-2.011-1.9-2.115v-0.708l13 0.87 1 4.106-0.6 0.234c-1.4-1.964-3.5-3.704-5.9-3.868-1.9-0.128-2 0.516-2.1 2.104l-0.3 4.187 0.5 0.029c2.1 0.144 3.1-0.157 4-2.277l0.8 0.056-0.4 6.209-0.9-0.06c-0.4-2.208-1.5-2.775-3.6-2.916l-0.4-0.032-0.3 4.528c-0.1 1.25-0.1 2.09 1.5 2.2 2.6 0.18 5.1-1.17 6.9-3.01l0.6 0.34-1.9 3.89-12.94-0.87 0.05-0.71z"/>
    <path d="m133.5 17.55 2.3-6.81c0.6-1.732 0.7-2.766-1.2-3.63l0.2-0.673 5.4 1.806-0.3 0.673c-2-0.326-2.4 0.387-3.1 2.184l-3.8 11.36-1.8-0.63-4.3-14.362-2.7 7.832c-0.7 2.22-0.6 2.73 1.4 3.9l-0.2 0.68-5.8-1.95 0.2-0.67c2.1 0.35 2.6-0.13 3.3-2.01l3.1-9.384c-0.3-0.906-1-1.704-1.8-2.19l0.2-0.673 5.2 1.744 3.7 12.803z"/>
    <path d="m142.6 12.67c0.7-1.35 0.4-2.01-1-2.709l0.4-0.634 6.8 3.463-0.3 0.64c-1.4-0.7-2.1-0.52-2.7 0.83l-4.7 9.26c-0.7 1.34-0.4 2.01 1 2.71l-0.3 0.63-6.9-3.46 0.3-0.64c1.4 0.7 2.1 0.52 2.8-0.83l4.6-9.26z"/>
    <path d="m160 25.32-1-0.3c0.4-2.24 0.2-5.09-1.9-6.47-2.7-1.83-5.6 1.19-7 3.28-2.9 4.31-2 7.54 0 8.89 1.7 1.2 3.7 0.73 5.5 0.04l0.3 0.65c-2.7 1.33-5.4 1.62-7.9-0.13-3.6-2.4-4.1-7.05-1.8-10.47 2.6-3.7 7.5-5.62 11.2-3.12 0.6 0.43 1 0.92 1.4 1.37 0.3 0.44 0.6 0.84 0.9 1.08 0.5 0.32 1.1 0.39 1.6 0.47l0.3 0.05-1.6 4.66z"/>
    <path d="m165.9 41.79c-0.7 1.44-1.3 2.39 0 3.77l-0.5 0.51-5.4-5.27 0.5-0.51c1 0.93 1.5 0.96 1.9 0.49 0.3-0.29 0.5-0.7 0.7-1.07l1.2-2.36-3.9-3.83-1.3 0.64c-0.5 0.27-1.2 0.56-1.6 0.99-0.7 0.79-0.3 1.79 0.3 2.5l-0.5 0.51-4.1-4 0.5-0.51c1.8 1 2.9 0.53 4.6-0.27l10.8-5.08 3 1.47-6.2 12.02zm2.2-11.85-6.7 3.16 3.4 3.29 3.3-6.45z"/>
    <path d="m176.1 55.23c-0.8 1.49-1.5 2.84-0.5 4.44l-0.6 0.41-3-4.39c0.2-0.62 0.6-1.2 0.9-1.79l1.5-2.56c1.6-2.64 1.3-3.46 0.8-4.21l-4 2.72c-1.2 0.85-1.3 1.56-0.4 2.84l-0.6 0.4-4.3-6.36 0.5-0.4c0.9 1.28 1.6 1.46 2.9 0.61l8.5-5.86c1.3-0.85 1.3-1.56 0.5-2.84l0.6-0.4 5.2 7.64c1.8 2.63 1.5 5.22-0.4 6.5-2 1.34-4.1 0.25-5.6-1.24 0 0.81-0.4 1.52-0.8 2.22l-1.2 2.27zm0.2-8.33c2 2.93 3.6 3.16 5.4 1.87 1.8-1.22 1.8-2.69 0.5-4.59-0.8-1.17-1.3-0.92-2.3-0.23l-3.8 2.61 0.2 0.34z"/>
    <path d="m183.9 72.74c-1.2 1.03-2.2 1.65-1.5 3.46l-0.6 0.27-2.9-6.99 0.6-0.27c0.6 1.26 1 1.45 1.6 1.2 0.4-0.15 0.7-0.44 1-0.71l2.1-1.68-2.1-5.08-1.4 0.08c-0.6 0.03-1.3 0.06-1.8 0.29-1.1 0.41-1.1 1.49-0.8 2.39l-0.6 0.27-2.2-5.3 0.6-0.26c1.3 1.64 2.5 1.63 4.4 1.57l11.9-0.35 2.1 2.52-10.4 8.59zm6.7-10.03-7.4 0.25 1.8 4.36 5.6-4.61z"/>
    <path d="m195.7 87.71-0.4-0.65c2.2-2.43 3.3-4.01 2.9-5.91-0.4-2.03-2.8-3.75-8.1-2.67-5.3 1.07-7 3.1-6.5 5.44 0.5 2.32 2.3 2.33 4.2 1.94 1.7-0.35 1.8-0.82 1.6-2.47l0.8-0.17 1.5 7.15-0.9 0.17c-0.5-1.69-1-1.78-2.6-1.46l-3.2 0.63c-0.3-1.47-0.3-1.57-1-2.82-0.6-1.02-1-1.92-1.3-3.08-0.9-4.51 1.6-7.97 6.1-8.89 4.3-0.86 9.2 1.27 10.2 5.89 0.1 0.63 0.1 1.19 0 1.71s-0.1 0.97 0 1.35c0.1 0.55 0.5 1.24 0.9 1.65l-4.2 2.19z"/>
    <path d="m190.2 96.17c-3.9 0.01-5 1.28-5 3.61 0.1 3.12 2 4.02 5.2 4.02l7.5-0.2c1.5 0 2-0.6 2-2.1h0.7l0.1 5.3h-0.7c-0.1-1.6-0.6-2.1-2.1-2.1l-7.7 0.2c-3.7 0.1-5.7-1.5-5.8-5.73-0.1-4.28 1.8-6.45 5.1-6.51l8.2-0.16c1.5-0.03 2-0.58 1.9-2.13l0.7-0.01 0.2 7.7-0.7 0.02c0-1.55-0.5-2.08-2-2.05l-7.6 0.14z"/>
    <path d="m186.1 120.5c-1.6 0.2-2.7 0.3-3.1 2.2l-0.7-0.1 1.2-7.5 0.7 0.1c-0.2 1.4 0.1 1.7 0.7 1.8 0.4 0.1 0.9 0.1 1.3 0l2.6-0.4 0.9-5.4-1.3-0.7c-0.5-0.2-1.1-0.6-1.7-0.7-1.1-0.2-1.7 0.8-1.9 1.7l-0.7-0.1 0.9-5.7 0.7 0.1c0.3 2.1 1.3 2.7 2.9 3.6l10.4 6 0.5 3.2-13.4 1.9zm10.9-5.1-6.4-3.6-0.7 4.7 7.1-1.1z"/>
  </g>
</svg>
