<?xml version="1.0" encoding="UTF-8"?>
<!DOCTYPE svg  PUBLIC '-//W3C//DTD SVG 1.1//EN'  'http://www.w3.org/Graphics/SVG/1.1/DTD/svg11.dtd'>
<svg width="960" height="480" version="1.0" viewBox="0 0 240 120" xmlns="http://www.w3.org/2000/svg" xmlns:xlink="http://www.w3.org/1999/xlink">
  <title>Flag of New Zealand</title>
  <rect width="240" height="120" fill="#00247d"/>
  <svg width="120" height="60" viewBox="0 0 12 6">
    <clipPath id="t">
      <path d="m6 3h6v3zv3h-6zh-6v-3zv-3h6z"/>
    </clipPath>
    <g stroke="#cf142b" stroke-width="1.2">
      <path d="m0 0 12 6m0-6-12 6" stroke="#fff"/>
      <path d="m0 0 12 6m0-6-12 6" clip-path="url(#t)" stroke-width=".8"/>
      <path d="m6 0v6m-6-3h12" stroke="#fff" stroke-width="2"/>
      <path d="m6 0v6m-6-3h12"/>
    </g>
  </svg>
  <polygon id="star" transform="scale(1.0235e-6)" points="0 -513674 301930 415571 -488533 -158734 488533 -158734 -301930 415571"/>
  <g transform="translate(180,24)">
    <use transform="scale(18.472)" fill="#fff" xlink:href="#star"/>
    <use transform="scale(12)" fill="#cc142b" xlink:href="#star"/>
  </g>
  <g transform="translate(180,96)">
    <use transform="scale(20.472)" fill="#fff" xlink:href="#star"/>
    <use transform="scale(14)" fill="#cc142b" xlink:href="#star"/>
  </g>
  <g transform="rotate(-8,180,48) translate(204,48) rotate(8)">
    <use transform="scale(16.472)" fill="#fff" xlink:href="#star"/>
    <use transform="scale(10)" fill="#cc142b" xlink:href="#star"/>
  </g>
  <g transform="rotate(-8,180,48) translate(152,48) rotate(8)">
    <use transform="scale(18.472)" fill="#fff" xlink:href="#star"/>
    <use transform="scale(12)" fill="#cc142b" xlink:href="#star"/>
  </g>
</svg>
