<?xml version="1.0" encoding="UTF-8"?>
<svg width="4320" height="2880" xmlns="http://www.w3.org/2000/svg" xmlns:xlink="http://www.w3.org/1999/xlink">
  <rect width="4320" height="1440" fill="#ed2939"/>
  <rect y="1440" width="4320" height="1440" fill="#fff"/>
  <path d="m1481.7 720a541.5 541.5 0 1 1-1083 0 541.5 541.5 0 1 1 1083 0z" fill="#fff"/>
  <path d="m1651.8 720a511.73 511.73 0 1 1-1023.5 0 511.73 511.73 0 1 1 1023.5 0z" fill="#ed2939"/>
  <path id="star" d="m1007.2 733.06-73.56-56.43-73.542 56.457 28.313-90.994-73.794-56.092 91.059 0.1928 27.934-91.123 27.964 91.113 91.059-0.22552-73.776 56.118 28.343 90.984z" fill="#fff"/>
  <use transform="translate(577.19)" xlink:href="#star"/>
  <use transform="translate(288.89 -214.21)" xlink:href="#star"/>
  <use transform="translate(108 342.75)" xlink:href="#star"/>
  <use transform="translate(469.19 342.75)" xlink:href="#star"/>
</svg>
