<?xml version="1.0" encoding="UTF-8"?>
<!DOCTYPE svg  PUBLIC '-//W3C//DTD SVG 1.1//EN'  'http://www.w3.org/Graphics/SVG/1.1/DTD/svg11.dtd'>
<svg width="900" height="600" version="1.1" viewBox="0 0 9 6" xmlns="http://www.w3.org/2000/svg" xmlns:xlink="http://www.w3.org/1999/xlink">
  <title>Flag of Slovakia</title>
  <rect width="9" height="6" fill="#ee1c25"/>
  <rect width="9" height="4" fill="#0b4ea2"/>
  <rect width="9" height="2" fill="#fff"/>
  <clipPath id="clip">
    <path id="coa" d="m0 1.5c-0.49338-0.23768-1.1991-0.70938-1.1991-1.6425s0.044613-1.3575 0.044613-1.3575h2.3091s0.044649 0.42437 0.044649 1.3575-0.7058 1.4048-1.1992 1.6425z"/>
  </clipPath>
  <g transform="translate(3.1625 3)">
    <use transform="scale(1.09)" fill="#fff" xlink:href="#coa"/>
    <use fill="#ee1c25" xlink:href="#coa"/>
    <path id="k" d="m0.10554 0.34482h-0.21102v-0.51538c-0.15056-0.001908-0.41345-4.22e-4 -0.62635 0.070818 0 0 0.00613-0.08306 0.00613-0.17983 0-0.096743-0.00613-0.1798-0.00613-0.1798 0.23209 0.077668 0.49275 0.072438 0.62635 0.070278v-0.32368c-0.12177-0.00108-0.29723 0.004744-0.49563 0.071133 0 0 0.00613-0.083051 0.00613-0.17982 0-0.096752-0.00613-0.1798-0.00613-0.1798 0.1981 0.066281 0.37334 0.072186 0.49508 0.071133-0.006247-0.20496-0.065957-0.4633-0.065957-0.4633s0.12288 0.009596 0.172 0.009596z" fill="#fff"/>
    <use transform="scale(-1,1)" xlink:href="#k"/>
    <g clip-path="url(#clip)">
      <path d="m-0.021722 1.8061-1.0223-0.91129s0.13069-0.42268 0.38581-0.42268c0.20272 0 0.2767 0.16343 0.2767 0.16343s0.1331-0.34456 0.38155-0.34456c0.2485 0 0.3816 0.34456 0.3816 0.34456s0.073986-0.16343 0.27672-0.16343c0.25511 0 0.3858 0.42268 0.3858 0.42268l-1.0658 0.91129z" fill="#0b4ea2"/>
    </g>
  </g>
</svg>
