<?xml version="1.0" encoding="UTF-8"?>
<!-- Created with Inkscape (http://www.inkscape.org/) -->
<svg width="600" height="400" version="1.1" xmlns="http://www.w3.org/2000/svg" xmlns:cc="http://creativecommons.org/ns#" xmlns:dc="http://purl.org/dc/elements/1.1/" xmlns:rdf="http://www.w3.org/1999/02/22-rdf-syntax-ns#">
  <metadata>
    <rdf:RDF>
      <cc:Work rdf:about="">
        <dc:format>image/svg+xml</dc:format>
        <dc:type rdf:resource="http://purl.org/dc/dcmitype/StillImage"/>
        <dc:title/>
      </cc:Work>
    </rdf:RDF>
  </metadata>
  <g transform="translate(-432.11 -589.71)">
    <g transform="translate(432.11 589.71)">
      <rect y="2.7534e-14" width="600" height="400" fill="#01327a"/>
      <rect x="80" y="2.7534e-14" width="160" height="160" fill="#fff"/>
      <rect x="160" y="2.7534e-14" width="80" height="160" fill="#cf142b" fill-rule="evenodd"/>
      <rect x="-10" y="-10" width="249.92" height="169.87" fill="none" stroke="#fff" stroke-width="4.2059"/>
      <path d="m355 182.98 12.875 20.5h36.625v71.5l-27.5-43-37 59h23l3.4375-6.5h23.031l26.531 42.5 26.531-42.5h23.031l3.4375 6.5h23l-37-59-27.5 43v-39.5h16.5l12.25-19.5h-28.75v-12.5h36.625l12.875-20.5h-122zm22.177 73.701 8.9743 13.951-15.973 0.0886 6.9989-14.04zm77.291 1.418 7.1762 12.533-14.555-0.0886 7.379-12.445z" fill="#fff" fill-rule="evenodd"/>
      <path transform="translate(4.6085 8.1431)" d="m456 298.64 4.7344 14.844 15.58-0.0842-12.654 9.0897 4.8946 14.792-12.555-9.2259-12.555 9.2259 4.8946-14.792-12.654-9.0897 15.58 0.0842z" fill="#fff" fill-rule="evenodd"/>
      <path transform="translate(-40.505 42.593)" d="m456 298.64 4.7344 14.844 15.58-0.0842-12.654 9.0897 4.8946 14.792-12.555-9.2259-12.555 9.2259 4.8946-14.792-12.654-9.0897 15.58 0.0842z" fill="#fff" fill-rule="evenodd"/>
      <path transform="matrix(-1 0 0 1 827.62 8.2039)" d="m456 298.64 4.7344 14.844 15.58-0.0842-12.654 9.0897 4.8946 14.792-12.555-9.2259-12.555 9.2259 4.8946-14.792-12.654-9.0897 15.58 0.0842z" fill="#fff" fill-rule="evenodd"/>
      <path transform="translate(42.517 -92.952)" d="m456 298.64 4.7344 14.844 15.58-0.0842-12.654 9.0897 4.8946 14.792-12.555-9.2259-12.555 9.2259 4.8946-14.792-12.654-9.0897 15.58 0.0842z" fill="#fff" fill-rule="evenodd"/>
      <path transform="translate(-121.8 -93.246)" d="m456 298.64 4.7344 14.844 15.58-0.0842-12.654 9.0897 4.8946 14.792-12.555-9.2259-12.555 9.2259 4.8946-14.792-12.654-9.0897 15.58 0.0842z" fill="#fff" fill-rule="evenodd"/>
    </g>
  </g>
</svg>
