<?xml version="1.0" encoding="UTF-8"?>
<!-- Created with Inkscape (http://www.inkscape.org/) -->
<svg width="1e3" height="500" version="1.0" xmlns="http://www.w3.org/2000/svg" xmlns:cc="http://creativecommons.org/ns#" xmlns:dc="http://purl.org/dc/elements/1.1/" xmlns:rdf="http://www.w3.org/1999/02/22-rdf-syntax-ns#" xmlns:xlink="http://www.w3.org/1999/xlink">
  <metadata>
    <rdf:RDF>
      <cc:Work rdf:about="">
        <dc:title>British Virgin Islands</dc:title>
        <dc:description/>
        <dc:subject>
          <rdf:Bag>
            <rdf:li/>
            <rdf:li>united_kingdom</rdf:li>
            <rdf:li>flags</rdf:li>
            <rdf:li>caribbean</rdf:li>
            <rdf:li>america</rdf:li>
            <rdf:li>signs_and_symbols</rdf:li>
            <rdf:li>sign</rdf:li>
          </rdf:Bag>
        </dc:subject>
        <dc:publisher>
          <cc:Agent rdf:about="http://www.openclipart.org">
            <dc:title>Tobias Jakobs</dc:title>
          </cc:Agent>
        </dc:publisher>
        <dc:creator>
          <cc:Agent>
            <dc:title>Tobias Jakobs</dc:title>
          </cc:Agent>
        </dc:creator>
        <dc:rights>
          <cc:Agent>
            <dc:title>Tobias Jakobs</dc:title>
          </cc:Agent>
        </dc:rights>
        <dc:date/>
        <dc:format>image/svg+xml</dc:format>
        <dc:type rdf:resource="http://purl.org/dc/dcmitype/StillImage"/>
        <cc:license rdf:resource="http://web.resource.org/cc/PublicDomain"/>
        <dc:language>en</dc:language>
      </cc:Work>
      <cc:License rdf:about="http://web.resource.org/cc/PublicDomain">
        <cc:permits rdf:resource="http://web.resource.org/cc/Reproduction"/>
        <cc:permits rdf:resource="http://web.resource.org/cc/Distribution"/>
        <cc:permits rdf:resource="http://web.resource.org/cc/DerivativeWorks"/>
      </cc:License>
    </rdf:RDF>
  </metadata>
  <defs>
    <linearGradient id="linearGradient570">
      <stop stop-color="#f00" offset="0"/>
      <stop stop-color="#ff0" offset="1"/>
    </linearGradient>
    <linearGradient id="linearGradient2125" x1="103.08" x2="92.551" y1="111.28" y2="107.76" gradientTransform="matrix(.65977 0 0 1.4919 -3.68 -.67323)" gradientUnits="userSpaceOnUse" xlink:href="#linearGradient570"/>
    <linearGradient id="linearGradient2127" x1="103.08" x2="92.551" y1="111.28" y2="107.76" gradientTransform="matrix(.65977 0 0 1.4919 -3.6759 -.45102)" gradientUnits="userSpaceOnUse" xlink:href="#linearGradient570"/>
    <linearGradient id="linearGradient2129" x1="103.08" x2="92.551" y1="111.28" y2="107.76" gradientTransform="matrix(.65977 0 0 1.4919 -4.4568 -.24902)" gradientUnits="userSpaceOnUse" xlink:href="#linearGradient570"/>
    <linearGradient id="linearGradient2131" x1="103.08" x2="92.551" y1="111.28" y2="107.76" gradientTransform="matrix(.65977 0 0 1.4919 -3.6941 -.033018)" gradientUnits="userSpaceOnUse" xlink:href="#linearGradient570"/>
    <linearGradient id="linearGradient2133" x1="103.08" x2="92.551" y1="111.28" y2="107.76" gradientTransform="matrix(.65977 0 0 1.4919 -3.6957 .17928)" gradientUnits="userSpaceOnUse" xlink:href="#linearGradient570"/>
    <linearGradient id="linearGradient2135" x1="103.08" x2="92.551" y1="111.28" y2="107.76" gradientTransform="matrix(.65977 0 0 1.4919 -3.6998 .39469)" gradientUnits="userSpaceOnUse" xlink:href="#linearGradient570"/>
    <linearGradient id="linearGradient2137" x1="103.08" x2="92.551" y1="111.28" y2="107.76" gradientTransform="matrix(.65977 0 0 1.4919 -4.4626 .39119)" gradientUnits="userSpaceOnUse" xlink:href="#linearGradient570"/>
    <linearGradient id="linearGradient2139" x1="103.08" x2="92.551" y1="111.28" y2="107.76" gradientTransform="matrix(.65977 0 0 1.4919 -4.4556 .17973)" gradientUnits="userSpaceOnUse" xlink:href="#linearGradient570"/>
    <linearGradient id="linearGradient2141" x1="103.08" x2="92.551" y1="111.28" y2="107.76" gradientTransform="matrix(.65977 0 0 1.4919 -4.4463 -.036398)" gradientUnits="userSpaceOnUse" xlink:href="#linearGradient570"/>
    <linearGradient id="linearGradient2145" x1="103.08" x2="92.551" y1="111.28" y2="107.76" gradientTransform="matrix(.65977 0 0 1.4919 -4.4545 -.46164)" gradientUnits="userSpaceOnUse" xlink:href="#linearGradient570"/>
    <linearGradient id="linearGradient2147" x1="103.08" x2="92.551" y1="111.28" y2="107.76" gradientTransform="matrix(.65977 0 0 1.4919 -3.8334 -.26294)" gradientUnits="userSpaceOnUse" xlink:href="#linearGradient570"/>
    <linearGradient id="linearGradient2243" x1="103.08" x2="92.551" y1="111.28" y2="107.76" gradientTransform="matrix(.83012 0 0 1.8771 706.36 107.11)" gradientUnits="userSpaceOnUse" xlink:href="#linearGradient570"/>
  </defs>
  <rect y="-.00020946" width="1e3" height="500" fill="#00247d" stroke-width="1pt"/>
  <path d="m646.88 120.06 208.67-0.77429-0.38715 185.83s7.3556 28.261-87.493 71.234c34.068-3.4842 71.234-39.875 71.234-39.875s15.098-19.357 22.454-8.517c7.3556 10.84 14.324 16.26 19.744 20.518 5.42 4.2585 9.6783 15.873 1.5485 24.39-8.1299 8.517-20.906 9.6785-24.39-0.77429-5.42 2.71-38.714 42.972-106.85 44.908-69.298-1.1614-107.24-45.295-107.24-45.295s-9.2913 14.711-22.454 3.0972c-12.776-15.099-3.0971-24.777-3.0971-24.777s10.84-6.1941 13.937-10.453c5.0328-5.8071 6.5814-13.55 15.098-13.55 10.066 0.7743 13.937 8.9042 13.937 8.9042s34.842 36.778 72.395 41.424c-84.783-40.65-87.88-65.814-87.493-72.008l0.38715-184.28z" fill="#fff" fill-rule="evenodd"/>
  <path d="m651.92 125.09 198.99-1.1614v178.86c0.38715 23.228-38.714 46.844-99.882 77.041-63.104-32.52-99.495-52.264-99.882-77.428l0.77427-177.31z" fill="#006129" fill-rule="evenodd" stroke="#000" stroke-width="1.2582pt"/>
  <g transform="matrix(1.2582 0 0 1.2582 588.04 107.61)">
    <path d="m69.786 170.53 9.3354-13.711 9.3809 13.74" fill="none" stroke="#f7c600" stroke-width="1pt"/>
    <path transform="matrix(1.087 0 0 1.087 -6.9653 -4.9563)" d="m80.922 156.72c3.23e-4 0.94218-0.7634 1.7061-1.7056 1.7061s-1.7059-0.76396-1.7056-1.7061c-3.23e-4 -0.94218 0.7634-1.7061 1.7056-1.7061s1.7059 0.76396 1.7056 1.7061z" fill="#f7c600" fill-rule="evenodd" stroke="#000" stroke-width=".575"/>
    <path d="m71.541 180.66 14.473 0.0412s0.22693-1.8783-1.5117-3.0199c7.5805-1.0424 5.6112-7.7289 11.96-8.1079 1.2318 0.1895-3.3165 2.8427-3.3165 2.8427s-3.8277 2.7012-2.0846 4.0745c1.3839 1.0903 1.9899-0.6632 2.1794-1.9898 0.18951-1.3266 6.1592-2.1794 5.3064-5.9696-1.4214-3.127-9.7599 2.0845-9.7599 2.0845l-5.9491-0.033c-0.37093-0.6677-2.0105-3.3452-3.7036-3.3576-2.0088 0.0733-3.4237 3.3906-3.4237 3.3906h-13.455s-0.46132 3.4524 6.3612 4.1157c1.536 2.0061 2.7268 2.5666 4.0621 3.0859-0.89021 0.7419-1.1408 1.6394-1.1371 2.8427z" fill="#f7c600" fill-rule="evenodd" stroke="#000" stroke-width=".625"/>
    <path d="m72.583 177.72 12.055-0.0411" fill="none" stroke="#000" stroke-width=".625"/>
    <path d="m67.062 170.61s0.96439 5.6381 5.4154 6.9734" fill="none" stroke="#000" stroke-width=".625"/>
    <path d="m66.32 170.54c0.4451-2.1513 1.2611-2.5223 2.1513-5.2671 0.14837-2.6706-2.1513-2.3739-1.4837-4.0801 1.1869-1.8546 0.59347-3.635-1.632-5.0445 0.44511 2.4481-2.8932 4.7478-2.8932 6.7507 0 2.003 1.7062 1.5579 1.4837 4.5995 0.14837 1.7803-0.4451 1.3353-0.59347 3.0415h2.9674z" fill="url(#linearGradient2125)" fill-rule="evenodd" stroke="#000" stroke-width=".625"/>
    <path transform="translate(-.074186 .44507)" d="m80.922 156.72c3.23e-4 0.94218-0.7634 1.7061-1.7056 1.7061s-1.7059-0.76396-1.7056-1.7061c-3.23e-4 -0.94218 0.7634-1.7061 1.7056-1.7061s1.7059 0.76396 1.7056 1.7061z" fill="#f7c600" fill-rule="evenodd" stroke="#000" stroke-width=".625"/>
  </g>
  <g transform="matrix(1.2582 0 0 1.2582 587.38 72.1)">
    <path d="m69.786 170.53 9.3354-13.711 9.3809 13.74" fill="none" stroke="#f7c600" stroke-width="1pt"/>
    <path transform="matrix(1.087 0 0 1.087 -6.9653 -4.9563)" d="m80.922 156.72c3.23e-4 0.94218-0.7634 1.7061-1.7056 1.7061s-1.7059-0.76396-1.7056-1.7061c-3.23e-4 -0.94218 0.7634-1.7061 1.7056-1.7061s1.7059 0.76396 1.7056 1.7061z" fill="#f7c600" fill-rule="evenodd" stroke="#000" stroke-width=".575"/>
    <path d="m71.541 180.66 14.473 0.0412s0.22693-1.8783-1.5117-3.0199c7.5805-1.0424 5.6112-7.7289 11.96-8.1079 1.2318 0.1895-3.3165 2.8427-3.3165 2.8427s-3.8277 2.7012-2.0846 4.0745c1.3839 1.0903 1.9899-0.6632 2.1794-1.9898 0.18951-1.3266 6.1592-2.1794 5.3064-5.9696-1.4214-3.127-9.7599 2.0845-9.7599 2.0845l-5.9491-0.033c-0.37093-0.6677-2.0105-3.3452-3.7036-3.3576-2.0088 0.0733-3.4237 3.3906-3.4237 3.3906h-13.455s-0.46132 3.4524 6.3612 4.1157c1.536 2.0061 2.7268 2.5666 4.0621 3.0859-0.89021 0.7419-1.1408 1.6394-1.1371 2.8427z" fill="#f7c600" fill-rule="evenodd" stroke="#000" stroke-width=".625"/>
    <path d="m72.583 177.72 12.055-0.0411" fill="none" stroke="#000" stroke-width=".625"/>
    <path d="m67.062 170.61s0.96439 5.6381 5.4154 6.9734" fill="none" stroke="#000" stroke-width=".625"/>
    <path d="m66.32 170.54c0.4451-2.1513 1.2611-2.5223 2.1513-5.2671 0.14837-2.6706-2.1513-2.3739-1.4837-4.0801 1.1869-1.8546 0.59347-3.635-1.632-5.0445 0.44511 2.4481-2.8932 4.7478-2.8932 6.7507 0 2.003 1.7062 1.5579 1.4837 4.5995 0.14837 1.7803-0.4451 1.3353-0.59347 3.0415h2.9674z" fill="url(#linearGradient2127)" fill-rule="evenodd" stroke="#000" stroke-width=".625"/>
    <path transform="translate(-.074186 .44507)" d="m80.922 156.72c3.23e-4 0.94218-0.7634 1.7061-1.7056 1.7061s-1.7059-0.76396-1.7056-1.7061c-3.23e-4 -0.94218 0.7634-1.7061 1.7056-1.7061s1.7059 0.76396 1.7056 1.7061z" fill="#f7c600" fill-rule="evenodd" stroke="#000" stroke-width=".625"/>
  </g>
  <g transform="matrix(1.2582 0 0 1.2582 712.16 39.823)">
    <path d="m69.786 170.53 9.3354-13.711 9.3809 13.74" fill="none" stroke="#f7c600" stroke-width="1pt"/>
    <path transform="matrix(1.087 0 0 1.087 -6.9653 -4.9563)" d="m80.922 156.72c3.23e-4 0.94218-0.7634 1.7061-1.7056 1.7061s-1.7059-0.76396-1.7056-1.7061c-3.23e-4 -0.94218 0.7634-1.7061 1.7056-1.7061s1.7059 0.76396 1.7056 1.7061z" fill="#f7c600" fill-rule="evenodd" stroke="#000" stroke-width=".575"/>
    <path d="m71.541 180.66 14.473 0.0412s0.22693-1.8783-1.5117-3.0199c7.5805-1.0424 5.6112-7.7289 11.96-8.1079 1.2318 0.1895-3.3165 2.8427-3.3165 2.8427s-3.8277 2.7012-2.0846 4.0745c1.3839 1.0903 1.9899-0.6632 2.1794-1.9898 0.18951-1.3266 6.1592-2.1794 5.3064-5.9696-1.4214-3.127-9.7599 2.0845-9.7599 2.0845l-5.9491-0.033c-0.37093-0.6677-2.0105-3.3452-3.7036-3.3576-2.0088 0.0733-3.4237 3.3906-3.4237 3.3906h-13.455s-0.46132 3.4524 6.3612 4.1157c1.536 2.0061 2.7268 2.5666 4.0621 3.0859-0.89021 0.7419-1.1408 1.6394-1.1371 2.8427z" fill="#f7c600" fill-rule="evenodd" stroke="#000" stroke-width=".625"/>
    <path d="m72.583 177.72 12.055-0.0411" fill="none" stroke="#000" stroke-width=".625"/>
    <path d="m67.062 170.61s0.96439 5.6381 5.4154 6.9734" fill="none" stroke="#000" stroke-width=".625"/>
    <path d="m66.32 170.54c0.4451-2.1513 1.2611-2.5223 2.1513-5.2671 0.14837-2.6706-2.1513-2.3739-1.4837-4.0801 1.1869-1.8546 0.59347-3.635-1.632-5.0445 0.44511 2.4481-2.8932 4.7478-2.8932 6.7507 0 2.003 1.7062 1.5579 1.4837 4.5995 0.14837 1.7803-0.4451 1.3353-0.59347 3.0415h2.9674z" fill="url(#linearGradient2129)" fill-rule="evenodd" stroke="#000" stroke-width=".625"/>
    <path transform="translate(-.074186 .44507)" d="m80.922 156.72c3.23e-4 0.94218-0.7634 1.7061-1.7056 1.7061s-1.7059-0.76396-1.7056-1.7061c-3.23e-4 -0.94218 0.7634-1.7061 1.7056-1.7061s1.7059 0.76396 1.7056 1.7061z" fill="#f7c600" fill-rule="evenodd" stroke="#000" stroke-width=".625"/>
  </g>
  <g transform="matrix(1.2582 0 0 1.2582 590.28 5.3077)">
    <path d="m69.786 170.53 9.3354-13.711 9.3809 13.74" fill="none" stroke="#f7c600" stroke-width="1pt"/>
    <path transform="matrix(1.087 0 0 1.087 -6.9653 -4.9563)" d="m80.922 156.72c3.23e-4 0.94218-0.7634 1.7061-1.7056 1.7061s-1.7059-0.76396-1.7056-1.7061c-3.23e-4 -0.94218 0.7634-1.7061 1.7056-1.7061s1.7059 0.76396 1.7056 1.7061z" fill="#f7c600" fill-rule="evenodd" stroke="#000" stroke-width=".575"/>
    <path d="m71.541 180.66 14.473 0.0412s0.22693-1.8783-1.5117-3.0199c7.5805-1.0424 5.6112-7.7289 11.96-8.1079 1.2318 0.1895-3.3165 2.8427-3.3165 2.8427s-3.8277 2.7012-2.0846 4.0745c1.3839 1.0903 1.9899-0.6632 2.1794-1.9898 0.18951-1.3266 6.1592-2.1794 5.3064-5.9696-1.4214-3.127-9.7599 2.0845-9.7599 2.0845l-5.9491-0.033c-0.37093-0.6677-2.0105-3.3452-3.7036-3.3576-2.0088 0.0733-3.4237 3.3906-3.4237 3.3906h-13.455s-0.46132 3.4524 6.3612 4.1157c1.536 2.0061 2.7268 2.5666 4.0621 3.0859-0.89021 0.7419-1.1408 1.6394-1.1371 2.8427z" fill="#f7c600" fill-rule="evenodd" stroke="#000" stroke-width=".625"/>
    <path d="m72.583 177.72 12.055-0.0411" fill="none" stroke="#000" stroke-width=".625"/>
    <path d="m67.062 170.61s0.96439 5.6381 5.4154 6.9734" fill="none" stroke="#000" stroke-width=".625"/>
    <path d="m66.32 170.54c0.4451-2.1513 1.2611-2.5223 2.1513-5.2671 0.14837-2.6706-2.1513-2.3739-1.4837-4.0801 1.1869-1.8546 0.59347-3.635-1.632-5.0445 0.44511 2.4481-2.8932 4.7478-2.8932 6.7507 0 2.003 1.7062 1.5579 1.4837 4.5995 0.14837 1.7803-0.4451 1.3353-0.59347 3.0415h2.9674z" fill="url(#linearGradient2131)" fill-rule="evenodd" stroke="#000" stroke-width=".625"/>
    <path transform="translate(-.074186 .44507)" d="m80.922 156.72c3.23e-4 0.94218-0.7634 1.7061-1.7056 1.7061s-1.7059-0.76396-1.7056-1.7061c-3.23e-4 -0.94218 0.7634-1.7061 1.7056-1.7061s1.7059 0.76396 1.7056 1.7061z" fill="#f7c600" fill-rule="evenodd" stroke="#000" stroke-width=".625"/>
  </g>
  <g transform="matrix(1.2582 0 0 1.2582 590.55 -28.616)">
    <path d="m69.786 170.53 9.3354-13.711 9.3809 13.74" fill="none" stroke="#f7c600" stroke-width="1pt"/>
    <path transform="matrix(1.087 0 0 1.087 -6.9653 -4.9563)" d="m80.922 156.72c3.23e-4 0.94218-0.7634 1.7061-1.7056 1.7061s-1.7059-0.76396-1.7056-1.7061c-3.23e-4 -0.94218 0.7634-1.7061 1.7056-1.7061s1.7059 0.76396 1.7056 1.7061z" fill="#f7c600" fill-rule="evenodd" stroke="#000" stroke-width=".575"/>
    <path d="m71.541 180.66 14.473 0.0412s0.22693-1.8783-1.5117-3.0199c7.5805-1.0424 5.6112-7.7289 11.96-8.1079 1.2318 0.1895-3.3165 2.8427-3.3165 2.8427s-3.8277 2.7012-2.0846 4.0745c1.3839 1.0903 1.9899-0.6632 2.1794-1.9898 0.18951-1.3266 6.1592-2.1794 5.3064-5.9696-1.4214-3.127-9.7599 2.0845-9.7599 2.0845l-5.9491-0.033c-0.37093-0.6677-2.0105-3.3452-3.7036-3.3576-2.0088 0.0733-3.4237 3.3906-3.4237 3.3906h-13.455s-0.46132 3.4524 6.3612 4.1157c1.536 2.0061 2.7268 2.5666 4.0621 3.0859-0.89021 0.7419-1.1408 1.6394-1.1371 2.8427z" fill="#f7c600" fill-rule="evenodd" stroke="#000" stroke-width=".625"/>
    <path d="m72.583 177.72 12.055-0.0411" fill="none" stroke="#000" stroke-width=".625"/>
    <path d="m67.062 170.61s0.96439 5.6381 5.4154 6.9734" fill="none" stroke="#000" stroke-width=".625"/>
    <path d="m66.32 170.54c0.4451-2.1513 1.2611-2.5223 2.1513-5.2671 0.14837-2.6706-2.1513-2.3739-1.4837-4.0801 1.1869-1.8546 0.59347-3.635-1.632-5.0445 0.44511 2.4481-2.8932 4.7478-2.8932 6.7507 0 2.003 1.7062 1.5579 1.4837 4.5995 0.14837 1.7803-0.4451 1.3353-0.59347 3.0415h2.9674z" fill="url(#linearGradient2133)" fill-rule="evenodd" stroke="#000" stroke-width=".625"/>
    <path transform="translate(-.074186 .44507)" d="m80.922 156.72c3.23e-4 0.94218-0.7634 1.7061-1.7056 1.7061s-1.7059-0.76396-1.7056-1.7061c-3.23e-4 -0.94218 0.7634-1.7061 1.7056-1.7061s1.7059 0.76396 1.7056 1.7061z" fill="#f7c600" fill-rule="evenodd" stroke="#000" stroke-width=".625"/>
  </g>
  <g transform="matrix(1.2582 0 0 1.2582 591.19 -63.036)">
    <path d="m69.786 170.53 9.3354-13.711 9.3809 13.74" fill="none" stroke="#f7c600" stroke-width="1pt"/>
    <path transform="matrix(1.087 0 0 1.087 -6.9653 -4.9563)" d="m80.922 156.72c3.23e-4 0.94218-0.7634 1.7061-1.7056 1.7061s-1.7059-0.76396-1.7056-1.7061c-3.23e-4 -0.94218 0.7634-1.7061 1.7056-1.7061s1.7059 0.76396 1.7056 1.7061z" fill="#f7c600" fill-rule="evenodd" stroke="#000" stroke-width=".575"/>
    <path d="m71.541 180.66 14.473 0.0412s0.22693-1.8783-1.5117-3.0199c7.5805-1.0424 5.6112-7.7289 11.96-8.1079 1.2318 0.1895-3.3165 2.8427-3.3165 2.8427s-3.8277 2.7012-2.0846 4.0745c1.3839 1.0903 1.9899-0.6632 2.1794-1.9898 0.18951-1.3266 6.1592-2.1794 5.3064-5.9696-1.4214-3.127-9.7599 2.0845-9.7599 2.0845l-5.9491-0.033c-0.37093-0.6677-2.0105-3.3452-3.7036-3.3576-2.0088 0.0733-3.4237 3.3906-3.4237 3.3906h-13.455s-0.46132 3.4524 6.3612 4.1157c1.536 2.0061 2.7268 2.5666 4.0621 3.0859-0.89021 0.7419-1.1408 1.6394-1.1371 2.8427z" fill="#f7c600" fill-rule="evenodd" stroke="#000" stroke-width=".625"/>
    <path d="m72.583 177.72 12.055-0.0411" fill="none" stroke="#000" stroke-width=".625"/>
    <path d="m67.062 170.61s0.96439 5.6381 5.4154 6.9734" fill="none" stroke="#000" stroke-width=".625"/>
    <path d="m66.32 170.54c0.4451-2.1513 1.2611-2.5223 2.1513-5.2671 0.14837-2.6706-2.1513-2.3739-1.4837-4.0801 1.1869-1.8546 0.59347-3.635-1.632-5.0445 0.44511 2.4481-2.8932 4.7478-2.8932 6.7507 0 2.003 1.7062 1.5579 1.4837 4.5995 0.14837 1.7803-0.4451 1.3353-0.59347 3.0415h2.9674z" fill="url(#linearGradient2135)" fill-rule="evenodd" stroke="#000" stroke-width=".625"/>
    <path transform="translate(-.074186 .44507)" d="m80.922 156.72c3.23e-4 0.94218-0.7634 1.7061-1.7056 1.7061s-1.7059-0.76396-1.7056-1.7061c-3.23e-4 -0.94218 0.7634-1.7061 1.7056-1.7061s1.7059 0.76396 1.7056 1.7061z" fill="#f7c600" fill-rule="evenodd" stroke="#000" stroke-width=".625"/>
  </g>
  <g transform="matrix(1.2582 0 0 1.2582 713.09 -62.476)">
    <path d="m69.786 170.53 9.3354-13.711 9.3809 13.74" fill="none" stroke="#f7c600" stroke-width="1pt"/>
    <path transform="matrix(1.087 0 0 1.087 -6.9653 -4.9563)" d="m80.922 156.72c3.23e-4 0.94218-0.7634 1.7061-1.7056 1.7061s-1.7059-0.76396-1.7056-1.7061c-3.23e-4 -0.94218 0.7634-1.7061 1.7056-1.7061s1.7059 0.76396 1.7056 1.7061z" fill="#f7c600" fill-rule="evenodd" stroke="#000" stroke-width=".575"/>
    <path d="m71.541 180.66 14.473 0.0412s0.22693-1.8783-1.5117-3.0199c7.5805-1.0424 5.6112-7.7289 11.96-8.1079 1.2318 0.1895-3.3165 2.8427-3.3165 2.8427s-3.8277 2.7012-2.0846 4.0745c1.3839 1.0903 1.9899-0.6632 2.1794-1.9898 0.18951-1.3266 6.1592-2.1794 5.3064-5.9696-1.4214-3.127-9.7599 2.0845-9.7599 2.0845l-5.9491-0.033c-0.37093-0.6677-2.0105-3.3452-3.7036-3.3576-2.0088 0.0733-3.4237 3.3906-3.4237 3.3906h-13.455s-0.46132 3.4524 6.3612 4.1157c1.536 2.0061 2.7268 2.5666 4.0621 3.0859-0.89021 0.7419-1.1408 1.6394-1.1371 2.8427z" fill="#f7c600" fill-rule="evenodd" stroke="#000" stroke-width=".625"/>
    <path d="m72.583 177.72 12.055-0.0411" fill="none" stroke="#000" stroke-width=".625"/>
    <path d="m67.062 170.61s0.96439 5.6381 5.4154 6.9734" fill="none" stroke="#000" stroke-width=".625"/>
    <path d="m66.32 170.54c0.4451-2.1513 1.2611-2.5223 2.1513-5.2671 0.14837-2.6706-2.1513-2.3739-1.4837-4.0801 1.1869-1.8546 0.59347-3.635-1.632-5.0445 0.44511 2.4481-2.8932 4.7478-2.8932 6.7507 0 2.003 1.7062 1.5579 1.4837 4.5995 0.14837 1.7803-0.4451 1.3353-0.59347 3.0415h2.9674z" fill="url(#linearGradient2137)" fill-rule="evenodd" stroke="#000" stroke-width=".625"/>
    <path transform="translate(-.074186 .44507)" d="m80.922 156.72c3.23e-4 0.94218-0.7634 1.7061-1.7056 1.7061s-1.7059-0.76396-1.7056-1.7061c-3.23e-4 -0.94218 0.7634-1.7061 1.7056-1.7061s1.7059 0.76396 1.7056 1.7061z" fill="#f7c600" fill-rule="evenodd" stroke="#000" stroke-width=".625"/>
  </g>
  <g transform="matrix(1.2582 0 0 1.2582 711.97 -28.688)">
    <path d="m69.786 170.53 9.3354-13.711 9.3809 13.74" fill="none" stroke="#f7c600" stroke-width="1pt"/>
    <path transform="matrix(1.087 0 0 1.087 -6.9653 -4.9563)" d="m80.922 156.72c3.23e-4 0.94218-0.7634 1.7061-1.7056 1.7061s-1.7059-0.76396-1.7056-1.7061c-3.23e-4 -0.94218 0.7634-1.7061 1.7056-1.7061s1.7059 0.76396 1.7056 1.7061z" fill="#f7c600" fill-rule="evenodd" stroke="#000" stroke-width=".575"/>
    <path d="m71.541 180.66 14.473 0.0412s0.22693-1.8783-1.5117-3.0199c7.5805-1.0424 5.6112-7.7289 11.96-8.1079 1.2318 0.1895-3.3165 2.8427-3.3165 2.8427s-3.8277 2.7012-2.0846 4.0745c1.3839 1.0903 1.9899-0.6632 2.1794-1.9898 0.18951-1.3266 6.1592-2.1794 5.3064-5.9696-1.4214-3.127-9.7599 2.0845-9.7599 2.0845l-5.9491-0.033c-0.37093-0.6677-2.0105-3.3452-3.7036-3.3576-2.0088 0.0733-3.4237 3.3906-3.4237 3.3906h-13.455s-0.46132 3.4524 6.3612 4.1157c1.536 2.0061 2.7268 2.5666 4.0621 3.0859-0.89021 0.7419-1.1408 1.6394-1.1371 2.8427z" fill="#f7c600" fill-rule="evenodd" stroke="#000" stroke-width=".625"/>
    <path d="m72.583 177.72 12.055-0.0411" fill="none" stroke="#000" stroke-width=".625"/>
    <path d="m67.062 170.61s0.96439 5.6381 5.4154 6.9734" fill="none" stroke="#000" stroke-width=".625"/>
    <path d="m66.32 170.54c0.4451-2.1513 1.2611-2.5223 2.1513-5.2671 0.14837-2.6706-2.1513-2.3739-1.4837-4.0801 1.1869-1.8546 0.59347-3.635-1.632-5.0445 0.44511 2.4481-2.8932 4.7478-2.8932 6.7507 0 2.003 1.7062 1.5579 1.4837 4.5995 0.14837 1.7803-0.4451 1.3353-0.59347 3.0415h2.9674z" fill="url(#linearGradient2139)" fill-rule="evenodd" stroke="#000" stroke-width=".625"/>
    <path transform="translate(-.074186 .44507)" d="m80.922 156.72c3.23e-4 0.94218-0.7634 1.7061-1.7056 1.7061s-1.7059-0.76396-1.7056-1.7061c-3.23e-4 -0.94218 0.7634-1.7061 1.7056-1.7061s1.7059 0.76396 1.7056 1.7061z" fill="#f7c600" fill-rule="evenodd" stroke="#000" stroke-width=".625"/>
  </g>
  <g transform="matrix(1.2582 0 0 1.2582 710.48 5.8477)">
    <path d="m69.786 170.53 9.3354-13.711 9.3809 13.74" fill="none" stroke="#f7c600" stroke-width="1pt"/>
    <path transform="matrix(1.087 0 0 1.087 -6.9653 -4.9563)" d="m80.922 156.72c3.23e-4 0.94218-0.7634 1.7061-1.7056 1.7061s-1.7059-0.76396-1.7056-1.7061c-3.23e-4 -0.94218 0.7634-1.7061 1.7056-1.7061s1.7059 0.76396 1.7056 1.7061z" fill="#f7c600" fill-rule="evenodd" stroke="#000" stroke-width=".575"/>
    <path d="m71.541 180.66 14.473 0.0412s0.22693-1.8783-1.5117-3.0199c7.5805-1.0424 5.6112-7.7289 11.96-8.1079 1.2318 0.1895-3.3165 2.8427-3.3165 2.8427s-3.8277 2.7012-2.0846 4.0745c1.3839 1.0903 1.9899-0.6632 2.1794-1.9898 0.18951-1.3266 6.1592-2.1794 5.3064-5.9696-1.4214-3.127-9.7599 2.0845-9.7599 2.0845l-5.9491-0.033c-0.37093-0.6677-2.0105-3.3452-3.7036-3.3576-2.0088 0.0733-3.4237 3.3906-3.4237 3.3906h-13.455s-0.46132 3.4524 6.3612 4.1157c1.536 2.0061 2.7268 2.5666 4.0621 3.0859-0.89021 0.7419-1.1408 1.6394-1.1371 2.8427z" fill="#f7c600" fill-rule="evenodd" stroke="#000" stroke-width=".625"/>
    <path d="m72.583 177.72 12.055-0.0411" fill="none" stroke="#000" stroke-width=".625"/>
    <path d="m67.062 170.61s0.96439 5.6381 5.4154 6.9734" fill="none" stroke="#000" stroke-width=".625"/>
    <path d="m66.32 170.54c0.4451-2.1513 1.2611-2.5223 2.1513-5.2671 0.14837-2.6706-2.1513-2.3739-1.4837-4.0801 1.1869-1.8546 0.59347-3.635-1.632-5.0445 0.44511 2.4481-2.8932 4.7478-2.8932 6.7507 0 2.003 1.7062 1.5579 1.4837 4.5995 0.14837 1.7803-0.4451 1.3353-0.59347 3.0415h2.9674z" fill="url(#linearGradient2141)" fill-rule="evenodd" stroke="#000" stroke-width=".625"/>
    <path transform="translate(-.074186 .44507)" d="m80.922 156.72c3.23e-4 0.94218-0.7634 1.7061-1.7056 1.7061s-1.7059-0.76396-1.7056-1.7061c-3.23e-4 -0.94218 0.7634-1.7061 1.7056-1.7061s1.7059 0.76396 1.7056 1.7061z" fill="#f7c600" fill-rule="evenodd" stroke="#000" stroke-width=".625"/>
  </g>
  <path d="m799.78 322.52 11.746-17.251 11.803 17.287" fill="none" stroke="#f7c600" stroke-width="1.2582"/>
  <path d="m813.88 316.07c4.5e-4 1.2886-1.0441 2.3334-2.3327 2.3334s-2.3332-1.0448-2.3327-2.3334c-4.5e-4 -1.2886 1.0441-2.3334 2.3327-2.3334s2.3331 1.0448 2.3327 2.3334z" fill="#f7c600" fill-rule="evenodd" stroke="#000" stroke-width=".78641"/>
  <path d="m801.98 335.26 18.21 0.05184s0.28553-2.3633-1.9021-3.7996c9.5378-1.3116 7.06-9.7245 15.048-10.201 1.5499 0.23844-4.1728 3.5767-4.1728 3.5767s-4.8161 3.3987-2.6229 5.1265c1.7412 1.3718 2.5037-0.83444 2.7422-2.5036 0.23843-1.6691 7.7494-2.7421 6.6765-7.511-1.7883-3.9344-12.28 2.6227-12.28 2.6227l-7.4851-0.04152c-0.46671-0.84011-2.5296-4.2089-4.6599-4.2245-2.5274 0.09223-4.3077 4.2661-4.3077 4.2661h-16.929s-0.58043 4.3438 8.0036 5.1784c1.9326 2.5241 3.4308 3.2293 5.1109 3.8827-1.1201 0.93346-1.4354 2.0627-1.4307 3.5767z" fill="#f7c600" fill-rule="evenodd" stroke="#000" stroke-width=".78638"/>
  <path d="m803.29 331.57 15.167-0.05172" fill="none" stroke="#000" stroke-width=".78638"/>
  <path d="m796.35 322.62s1.2134 7.0939 6.8137 8.7739" fill="none" stroke="#000" stroke-width=".78638"/>
  <path d="m795.41 322.53c0.56002-2.7068 1.5868-3.1736 2.7068-6.6271 0.18668-3.3602-2.7068-2.9868-1.8668-5.1336 1.4934-2.3335 0.74671-4.5736-2.0534-6.347 0.56003 3.0802-3.6402 5.9737-3.6402 8.4937 0 2.5202 2.1468 1.9602 1.8668 5.7871 0.18668 2.24-0.56002 1.6801-0.7467 3.8268h3.7335z" fill="url(#linearGradient2243)" fill-rule="evenodd" stroke="#000" stroke-width=".78638"/>
  <path d="m813.69 305.71c4.1e-4 1.1854-0.96051 2.1467-2.146 2.1467-1.1855 0-2.1464-0.96121-2.146-2.1467-4.1e-4 -1.1855 0.96051-2.1467 2.146-2.1467 1.1855 0 2.1464 0.96121 2.146 2.1467z" fill="#f7c600" fill-rule="evenodd" stroke="#000" stroke-width=".78638"/>
  <g transform="matrix(1.2582 0 0 1.2582 711.78 73.798)">
    <path d="m69.786 170.53 9.3354-13.711 9.3809 13.74" fill="none" stroke="#f7c600" stroke-width="1pt"/>
    <path transform="matrix(1.087 0 0 1.087 -6.9653 -4.9563)" d="m80.922 156.72c3.23e-4 0.94218-0.7634 1.7061-1.7056 1.7061s-1.7059-0.76396-1.7056-1.7061c-3.23e-4 -0.94218 0.7634-1.7061 1.7056-1.7061s1.7059 0.76396 1.7056 1.7061z" fill="#f7c600" fill-rule="evenodd" stroke="#000" stroke-width=".575"/>
    <path d="m71.541 180.66 14.473 0.0412s0.22693-1.8783-1.5117-3.0199c7.5805-1.0424 5.6112-7.7289 11.96-8.1079 1.2318 0.1895-3.3165 2.8427-3.3165 2.8427s-3.8277 2.7012-2.0846 4.0745c1.3839 1.0903 1.9899-0.6632 2.1794-1.9898 0.18951-1.3266 6.1592-2.1794 5.3064-5.9696-1.4214-3.127-9.7599 2.0845-9.7599 2.0845l-5.9491-0.033c-0.37093-0.6677-2.0105-3.3452-3.7036-3.3576-2.0088 0.0733-3.4237 3.3906-3.4237 3.3906h-13.455s-0.46132 3.4524 6.3612 4.1157c1.536 2.0061 2.7268 2.5666 4.0621 3.0859-0.89021 0.7419-1.1408 1.6394-1.1371 2.8427z" fill="#f7c600" fill-rule="evenodd" stroke="#000" stroke-width=".625"/>
    <path d="m72.583 177.72 12.055-0.0411" fill="none" stroke="#000" stroke-width=".625"/>
    <path d="m67.062 170.61s0.96439 5.6381 5.4154 6.9734" fill="none" stroke="#000" stroke-width=".625"/>
    <path d="m66.32 170.54c0.4451-2.1513 1.2611-2.5223 2.1513-5.2671 0.14837-2.6706-2.1513-2.3739-1.4837-4.0801 1.1869-1.8546 0.59347-3.635-1.632-5.0445 0.44511 2.4481-2.8932 4.7478-2.8932 6.7507 0 2.003 1.7062 1.5579 1.4837 4.5995 0.14837 1.7803-0.4451 1.3353-0.59347 3.0415h2.9674z" fill="url(#linearGradient2145)" fill-rule="evenodd" stroke="#000" stroke-width=".625"/>
    <path transform="translate(-.074186 .44507)" d="m80.922 156.72c3.23e-4 0.94218-0.7634 1.7061-1.7056 1.7061s-1.7059-0.76396-1.7056-1.7061c-3.23e-4 -0.94218 0.7634-1.7061 1.7056-1.7061s1.7059 0.76396 1.7056 1.7061z" fill="#f7c600" fill-rule="evenodd" stroke="#000" stroke-width=".625"/>
  </g>
  <g transform="matrix(1.2582 0 0 1.2582 612.55 42.046)">
    <path d="m69.786 170.53 9.3354-13.711 9.3809 13.74" fill="none" stroke="#f7c600" stroke-width="1pt"/>
    <path transform="matrix(1.087 0 0 1.087 -6.9653 -4.9563)" d="m80.922 156.72c3.23e-4 0.94218-0.7634 1.7061-1.7056 1.7061s-1.7059-0.76396-1.7056-1.7061c-3.23e-4 -0.94218 0.7634-1.7061 1.7056-1.7061s1.7059 0.76396 1.7056 1.7061z" fill="#f7c600" fill-rule="evenodd" stroke="#000" stroke-width=".575"/>
    <path d="m71.541 180.66 14.473 0.0412s0.22693-1.8783-1.5117-3.0199c7.5805-1.0424 5.6112-7.7289 11.96-8.1079 1.2318 0.1895-3.3165 2.8427-3.3165 2.8427s-3.8277 2.7012-2.0846 4.0745c1.3839 1.0903 1.9899-0.6632 2.1794-1.9898 0.18951-1.3266 6.1592-2.1794 5.3064-5.9696-1.4214-3.127-9.7599 2.0845-9.7599 2.0845l-5.9491-0.033c-0.37093-0.6677-2.0105-3.3452-3.7036-3.3576-2.0088 0.0733-3.4237 3.3906-3.4237 3.3906h-13.455s-0.46132 3.4524 6.3612 4.1157c1.536 2.0061 2.7268 2.5666 4.0621 3.0859-0.89021 0.7419-1.1408 1.6394-1.1371 2.8427z" fill="#f7c600" fill-rule="evenodd" stroke="#000" stroke-width=".625"/>
    <path d="m72.583 177.72 12.055-0.0411" fill="none" stroke="#000" stroke-width=".625"/>
    <path d="m67.062 170.61s0.96439 5.6381 5.4154 6.9734" fill="none" stroke="#000" stroke-width=".625"/>
    <path d="m66.32 170.54c0.4451-2.1513 1.2611-2.5223 2.1513-5.2671 0.14837-2.6706-2.1513-2.3739-1.4837-4.0801 1.1869-1.8546 0.59347-3.635-1.632-5.0445 0.44511 2.4481-2.8932 4.7478-2.8932 6.7507 0 2.003 1.7062 1.5579 1.4837 4.5995 0.14837 1.7803-0.4451 1.3353-0.59347 3.0415h2.9674z" fill="url(#linearGradient2147)" fill-rule="evenodd" stroke="#000" stroke-width=".625"/>
    <path transform="translate(-.074186 .44507)" d="m80.922 156.72c3.23e-4 0.94218-0.7634 1.7061-1.7056 1.7061s-1.7059-0.76396-1.7056-1.7061c-3.23e-4 -0.94218 0.7634-1.7061 1.7056-1.7061s1.7059 0.76396 1.7056 1.7061z" fill="#f7c600" fill-rule="evenodd" stroke="#000" stroke-width=".625"/>
  </g>
  <g transform="matrix(1.2582 0 0 1.2582 588.04 107.21)" stroke="#000">
    <path d="m139.22 183.9s3.7768 8.7077 8.0782 3.3572 2.7278-7.6586 2.7278-7.6586l-9.652-5.2456-2.8326 5.98 1.6786 3.567z" fill="#f7c600" fill-rule="evenodd" stroke-width=".625"/>
    <path d="m147.51 182.75s0.6294 0.105 1.154-0.8392-1.154-1.364-1.8884-2.4131l-0.8393 1.6787 1.5737 1.5736z" fill="#ffc6b5" fill-rule="evenodd" stroke-width=".625"/>
    <path d="m125.68 180.44-8.4979 4.6161s-4.1965 0.8392-4.5112 0c-0.3148-0.8393 0.1049-1.5737 2.308-1.6786 2.2032-0.1049 8.1832-5.5604 8.1832-5.5604l2.5179 2.6229z" fill="#ffc6b5" fill-rule="evenodd" stroke-width=".625"/>
    <path d="m125.79 29.47s0.2098 1.9933 0.3147 3.0424-1.6786 3.2523-1.7835 3.1474-0.9442 0.10491-0.8393 0.73441 1.3639 0.83931 1.3639 0.83931-0.5246 2.2031 0 2.308c0.5245 0.10491-1.3639 2.8327 0 3.567 1.3638 0.73433 3.6719 1.6785 4.721 1.4687s0 4.0916 0 4.0916l-2.9375 6.2947 16.156-1.6785-3.3572-5.3506s-1.5736-1.0491-1.154-4.0916c0.4197-3.0424-0.2098-16.786-0.2098-16.786l-11.54-1.5737-0.7344 3.9867z" fill="#ffc6b5" fill-rule="evenodd" stroke-width=".625"/>
    <path d="m122.85 53.39s-5.2456 2.413-5.0358 8.9175c-1.3638 6.2947-2.0982 12.589-2.0982 12.589s-6.1898 7.029-8.0782 9.547c-1.8884 2.5179-4.7211 7.6585-5.7702 9.0224s-5.1407 5.8752-5.0358 7.5537c0.10491 1.6785-0.94421 9.1274 3.1474 9.9666 1.0491 0.4196 4.4063-8.6028 4.4063-8.6028s0.2098-3.8817-0.9442-4.6161 2.5179-3.2523 2.5179-3.2523 7.0291-5.1407 8.6028-6.3996 5.8751-6.0849 5.8751-6.0849l2.4129-28.641z" fill="#ffc6b5" fill-rule="evenodd" stroke-width=".625"/>
    <path d="m128.83 48.459s1.3639 3.672 4.4063 3.0424c3.0425-0.6295 6.6095-3.4621 6.6095-3.4621s2.8326-0.10491 3.2523 0.31471c0.4196 0.41962 7.6585 7.4486 7.4487 9.6519s-3.3572 1.5736-4.5112 3.0424-3.0425 5.1407-2.5179 7.8684 2.0982 6.2948 1.8884 7.6586-1.3638 1.7834-1.3638 2.5178c0 0.73441 0.9442 1.9934 0.9442 3.3572s-1.259 3.3571-1.0491 4.721c0.2098 1.3639 0.3147 5.3505 0.3147 5.3505l-0.3147 18.465s1.0491 0.6294 1.154 1.6786c0.1049 1.0491 7.134 31.578 7.134 31.578s-0.3147 0.9442-1.0491 0.8393 2.8326 4.721 2.9375 6.0849 3.672 12.065 3.567 13.534c-0.1049 1.4687-0.6294 4.721-0.9442 4.8259-0.3147 0.1049 2.3081 6.7144 1.8884 7.7635-0.4196 1.0491-4.721 0.9442-4.721 0.9442l-1.154-0.2098s0.1049 1.3639-0.7344 1.4688-7.0291-0.3148-7.0291-0.3148-1.7835 2.7277-2.8326 2.6228c-1.0492-0.1049-2.413-1.9933-2.7278-1.6785-0.3147 0.3147 0.9443 2.0981 0.6295 2.6227-0.3147 0.5246-5.6652 1.6787-6.7144-0.8392-1.0491-2.5179 0.6295-1.8885 0.3148-2.413-0.3148-0.5246-2.7277-1.8884-3.4621-1.4688s1.8884 1.0491 1.7835 2.0983c-0.1049 1.0491-2.3081 2.6227-3.1474 2.6227s-2.8326-3.8817-5.7701-3.462c-2.9376 0.4196-4.826 1.154-4.826 1.154s-3.4621 1.4687-4.9309 1.154c-1.4687-0.3147-2.0982-1.4688-2.0982-2.0982 0-0.6295 1.0491-3.3572 0.9442-4.1965s-0.9442-1.6786-0.9442-2.9376c0-1.2589 2.413-5.5603 2.413-5.5603l-0.1049-19.304s-2.2032-1e-4 -2.3081-1.3639 3.3572-30.529 3.8817-32.418c0.5246-1.8884 1.8885-8.6028 1.8885-8.6028s-1.5737 0.7344-1.6786 0 4.721-17.415 4.721-17.415 0.8393-8.2881 0.8393-10.491-0.4196-5.2456-0.4196-5.2456-4.3072-1.8234-4.4064-4.6161c-0.3939-4.4434 4.0916-6.9243 4.6162-8.393 0.5245-1.4687 2.0982-5.875 2.0982-5.875s2.3081-3.9867 6.0849-4.6162z" fill="#fff" fill-rule="evenodd" stroke-width=".625"/>
    <path d="m127.26 181.7s-10.176 5.3506-11.645 5.7702-2.413-1.7835-0.9442-2.2032c1.4688-0.4196 3.7768-0.6295 3.7768-0.6295s-3.4621-2.7277-3.3572-2.8326c0.105-0.1049 4.7211-1.7834 4.826-1.7834s1.4688 2.7276 2.413 2.5178 3.6719-2.308 3.6719-2.308 1.4688 1.6786 1.2589 1.4687z" fill="#f7c600" fill-rule="evenodd" stroke-width=".625"/>
    <path d="m141.6 184.63c0.9622 1.2409 1.3384 3.3932 3.5416 2.1343 2.2031-1.2589-1.1286-3.5956-1.1286-3.5956l-2.413 1.4613z" fill="#ffc6b5" fill-rule="evenodd" stroke-width=".625"/>
    <path d="m145.62 184.42s1.0491 0.8393 1.9933-0.1049-1.8885-2.9375-1.8885-2.9375l-1.3638 1.5737 1.259 1.4687z" fill="#ffc6b5" fill-rule="evenodd" stroke-width=".625"/>
    <path d="m142.47 52.55s-9.3372 5.98-9.1274 8.0782" fill="none" stroke-width=".625"/>
    <path d="m144.57 53.599s-2.0982 2.308-2.2031 2.308" fill="none" stroke-width=".625"/>
    <path d="m147.4 56.117s-4.6162 3.7768-3.8818 6.1898" fill="none" stroke-width=".625"/>
    <path d="m125.58 52.026s-1.3638 2.8326-1.0491 3.7768c0.3148 0.94421 2.6228 4.5113 2.9376 6.7144 0.3147 2.2031 0 3.7769 0 3.7769" fill="none" stroke-width=".625"/>
    <path d="m123.17 57.271s0.4196 3.3572 1.0491 3.9867c0.6295 0.62943 2.3081 3.4621 2.5179 4.6161" fill="none" stroke-width=".625"/>
    <path d="m122.33 71.224s2.7277 1.364 5.2456-3.8817" fill="none" stroke-width=".625"/>
    <path d="m131.66 63.671c-0.1049 0-1.9933 5.1407 1.3639 7.0291s5.8751 1.6785 7.3438 1.154c1.4688-0.52452 3.0425-1.4687 3.0425-1.4687" fill="none" stroke-width=".625"/>
    <path d="m130.2 69.966s0.2098 6.9243 10.386 13.744" fill="none" stroke-width=".625"/>
    <path d="m130.62 76.47s-0.1049 6.0848 3.8818 8.8126" fill="none" stroke-width=".625"/>
    <path d="m128.52 69.336s-3.0425 9.0224-5.4554 9.9666" fill="none" stroke-width=".625"/>
    <path d="m127.57 75.946s-0.1049 6.5046-0.9442 8.8126" fill="none" stroke-width=".625"/>
    <path d="m125.79 86.332s2.0982 2.6228 4.4063 2.413c2.308-0.20981 3.2522-2.9376 4.8259-2.5179s3.0425 1.6787 6.7144 1.3639" fill="none" stroke-width=".625"/>
    <path d="m136.49 90.318s0 5.3505 0.9442 5.8751 0.5246 5.4554 0.5246 5.4554" fill="none" stroke-width=".625"/>
    <path d="m123.69 87.801s-0.1049 5.0359-0.7344 6.8193c-0.6294 1.7834-1.8884 4.826-1.6785 7.4488" fill="none" stroke-width=".625"/>
    <path d="m117.29 105.01c0.5245-0.2098 2.3081-1.7834 2.3081-1.7834" fill="none" stroke-width=".625"/>
    <path d="m120.54 104.38s-4.5113 19.304-3.2523 30.844" fill="none" stroke-width=".625"/>
    <path d="m121.59 105.32s-2.3081 14.478-1.259 17.206" fill="none" stroke-width=".625"/>
    <path d="m120.44 104.9c0.1049 0 8.8126 0.6294 8.8126 0.6294" fill="none" stroke-width=".625"/>
    <path d="m130.51 104.38s2.413 1.259 5.7702 1.0491" fill="none" stroke-width=".625"/>
    <path d="m129.46 111.41s-0.4197 24.759-1.0491 30.215" fill="none" stroke-width=".625"/>
    <path d="m142.37 117.07s2.7277 21.717 4.3014 23.71" fill="none" stroke-width=".625"/>
    <path d="m137.12 119.8s1.6786 19.199 2.6228 20.878" fill="none" stroke-width=".625"/>
    <path d="m113.31 147.39s3.2522-1.0492 6.1897-4.1965c3.3573 4.5112 8.4979 0.2099 8.4979 0.2099s7.9733 5.4554 11.54-0.6295c5.4554 3.567 8.1831-0.5246 8.1831-0.5246s1.9934 3.0424 3.4621 2.7277" fill="none" stroke-width=".625"/>
    <path d="m142.47 147.08s4.0916 19.199 10.176 24.654" fill="none" stroke-width=".625"/>
    <path d="m121.38 145.08s0.5245 16.052 1.4687 27.382" fill="none" stroke-width=".625"/>
    <path d="m120.65 163.23s-0.5246 10.491-1.1541 11.226" fill="none" stroke-width=".625"/>
    <path d="m114.46 175.51s1.154 4.5113 6.9242 0.3148c5.7701-4.1966 5.875 1.5737 6.0849 2.2031 0.2098 0.6294 1.154 5.1407 3.3571 1.3639" fill="none" stroke-width=".625"/>
    <path d="m135.44 173.2s-0.9442 9.337 7.3438 2.5178c8.2881-6.8192 9.6519-0.1048 9.8617 1.9934" fill="none" stroke-width=".625"/>
    <path d="m125.47 28.84s2.3081 0.31464 3.567-0.41969c1.259-0.73433 2.7278-1.049 3.7769 0.41969 1.0491 1.4687 1.7835 1.3638 1.7835 1.3638s-1.5737 3.8817 0 4.3014 2.308 0.41962 2.413 0.94421c0.1049 0.5246-1.3639 1.6786-0.9443 2.2031 0.4197 0.5246 1.1541 1.1541 1.259 1.5737s-0.9442 2.2031-0.6295 2.6228c0.3148 0.41969 1.259 2.0983 1.8884 2.0983 0.6295 0 0.2099 2.6228 2.0983 1.9933s1.7835-2.3081 1.7835-2.3081 1.9933-0.31471 2.5179-2.0982c0.5245-1.7835 1.7835-2.2031 1.7835-2.2031s2.5179-1.3638-0.8393-3.4621c0-14.688-9.6519-13.114-9.6519-13.114s-1.1541-2.6229-3.0425-2.3081-1.9933 2.518-3.3572 2.3081c-1.3638-0.20988-1.6785-1.154-1.7835-1.0491-0.1049 0.1049-1.2589 2.2031-1.2589 2.7277 0 0.52459-3.6719-0.73441-3.3572 1.9933s2.0982 2.6228 1.9933 2.413z" fill="#9c5100" fill-rule="evenodd" stroke-width=".625"/>
    <path d="m135.55 25.273s-0.7344 4.6161 4.1965 4.1965c-0.6295 2.5179 1.2589 3.3572 1.2589 3.3572" fill="none" stroke-width=".625"/>
    <path d="m144.67 35.659c0.105 0 2.2032 1.3638-0.1049 3.0424" fill="none" stroke-width=".625"/>
    <path d="m137.54 39.331s1.049 1.259 2.2031 0.94429c1.154-0.31472 3.0424 1.154 3.0424 1.154s1.5737 0.52452 1.7835 0.20981" fill="none" stroke-width=".625"/>
    <path d="m131.14 43.318s3.567 1.3639 5.8751-4.3014" fill="none" stroke-width=".625"/>
    <path d="m124.53 37.338 2.0983 0.10491" fill="none" stroke-width=".625"/>
    <path d="m124.85 39.436h1.8884l-1.6786 0.7344" fill="none" stroke-linejoin="round" stroke-width=".625"/>
    <path d="m127.47 33.561c0.3147 0 1.4687-0.4197 1.6786-0.10491 0.2098 0.31479-1.259 0.5246-1.6786 0.10491z" fill="none" stroke-linejoin="round" stroke-width="1.125"/>
    <path d="m150.13 58.487c0.1049 0 3.4621 10.386 3.8817 13.009 0.4197 2.6228 1.7835 13.114 1.259 14.583-0.5246 1.4688-5.8751 8.4978-6.5046 10.281s-4.4063 8.6029-4.4063 8.6029-0.9442 6.7144-1.3639 7.0291c-0.4196 0.3148 1.0831 1.9628 0.9443 2.5179-0.2082 0.6245-3.0425 3.567-4.3014 3.2523-1.259-0.3148-3.2523-1.7836-3.3572-3.1474s0.1049-5.8751 1.0491-7.0291 5.8751-12.799 6.1898-13.534c0.3147-0.73441 4.5112-9.8617 4.6161-11.435 0.105-1.5737-1.3054-5.2127-2.7891-6.548-3.302-9.7182-2.0046-15.579 4.7825-17.582z" fill="#ffc6b5" fill-rule="evenodd" stroke-width=".625"/>
    <path d="m101.25 103.5 0.1642 4.5977" fill="none" stroke-width=".625"/>
    <path d="m96.942 103.16s2.9477 4.9298 2.7014 7.557" fill="none" stroke-width=".625"/>
    <path d="m136.45 113.46s2.204-0.2316 2.1346 3.4481c1.4074-4.5711 4.2692-4.6797 4.2692-4.6797" fill="none" stroke-linejoin="round" stroke-width=".625"/>
  </g>
  <path d="m750.25 382.15c55.748-1.5486 91.752-41.811 91.365-42.198-0.38702-0.38715 7.3557-11.227 13.55-9.6785 6.1942 1.5486 15.098 19.744 25.938 23.615 5.4198 8.517-1.5486 16.26-3.8715 17.808-2.3228 1.5486-12.776 5.8071-14.324-0.38715-1.5485-6.1942-4.6456-5.0328-4.6456-5.0328s-49.554 48.392-106.85 46.457c-59.232 0.38715-108.01-46.457-108.01-46.457l-4.2585 4.6456s-4.6457 5.0328-6.9685 4.6457c-2.3228-0.38715-12.388-6.9684-13.163-13.55-0.77428-6.5814 6.1942-10.84 6.1942-10.84s17.034-13.163 18.97-20.131c3.8714-3.8714 11.227 2.7099 11.227 2.7099s44.908 51.489 94.849 48.392z" fill="#f7c600" fill-rule="evenodd" stroke="#000" stroke-width="1.2582pt"/>
  <path d="m624.05 352.2s4.6066-1.2285 6.2957 0.69101c1.6891 1.9194 13.282 13.282 13.282 13.282" fill="none" stroke="#000" stroke-width="1.2582pt"/>
  <path d="m634.56 357.58-4.6066 3.4549s11.593 2.303 8.9828 9.9041" fill="none" stroke="#000" stroke-width="1.2582pt"/>
  <path d="m876.95 351.82s-2.3034-1.2285-5.9118 1.4588c-3.6085 2.6871-12.745 12.898-12.745 12.898" fill="none" stroke="#000" stroke-width="1.2582pt"/>
  <path d="m866.58 357.27 4.9904 3.8388s-10.442 0.691-8.1383 10.595" fill="none" stroke="#000" stroke-width="1.2582pt"/>
  <g transform="matrix(8.3333 0 0 8.3333 0 -.0002257)" stroke-width="1pt">
    <path d="m0 0v3.3541l53.292 26.646h6.7082v-3.3541l-53.292-26.646h-6.7082zm60 0v3.354l-53.292 26.646h-6.7082v-3.3542l53.292-26.646h6.7082z" fill="#fff"/>
    <path d="m25 0v30h10v-30h-10zm-25 10v10h60v-10h-60z" fill="#fff"/>
    <path d="m0 12v6h60v-6h-60zm27-12v30h6v-30h-6z" fill="#cf142b"/>
    <path d="m0 30 20-10h4.4721l-20 10h-4.4721zm0-30 20 10h-4.4721l-15.528-7.7639v-2.2361zm35.528 10 20-10h4.4721l-20 10h-4.4721zm24.472 20-20-10h4.4721l15.528 7.7639v2.2361z" fill="#cf142b"/>
  </g>
  <path transform="translate(0 -.5997)" d="m683.05 365.1-0.33568 0.47069c-0.7002-0.34579-1.4988-0.40997-2.3959-0.19255-0.65863 0.17002-1.8994 0.78852-3.7222 1.8555l-15.34 8.9426-0.41981-0.29938 3.8645-17.932c0.46699-2.1618 0.68034-3.4746 0.64005-3.9384-0.03184-0.45769-0.35554-0.96361-0.97108-1.5178l0.33567-0.47069 8.2689 5.897-0.33568 0.47069-0.27987-0.19959c-0.74634-0.53223-1.3217-0.80183-1.7262-0.80881-0.2858-0.01188-0.51639 0.10515-0.69177 0.35108-0.10889 0.15267-0.205 0.3592-0.28834 0.6196-0.07733 0.25194-0.2445 0.97074-0.50152 2.1564l-2.4473 11.209 8.8618-5.2142c1.0663-0.63411 1.758-1.0748 2.0751-1.3221 0.31705-0.24726 0.55422-0.48114 0.71149-0.70165 0.18142-0.25442 0.27385-0.52755 0.2773-0.81939 0.00338-0.29183-0.09008-0.58238-0.28038-0.87165-0.26189-0.40424-0.69389-0.82108-1.296-1.2505l0.33568-0.47069 5.661 4.0372m5.5085 26.655-0.27739 0.50723-9.7196-5.3155 0.2774-0.50723 0.6169 0.33737c0.53921 0.29489 1.0258 0.43634 1.4598 0.42435 0.30759 2e-3 0.61033-0.11738 0.90822-0.35814 0.22048-0.16436 0.58563-0.71265 1.0954-1.6448l6.6875-12.228c0.51979-0.95047 0.7944-1.572 0.82384-1.8646 0.0294-0.29258-0.06377-0.61067-0.27953-0.95427-0.20165-0.34771-0.56293-0.66401-1.0839-0.94892l-0.6169-0.33738 0.2774-0.50722 9.7196 5.3155-0.27739 0.50723-0.6169-0.33737c-0.53924-0.29488-1.0258-0.43633-1.4598-0.42435-0.30761-0.00198-0.61492 0.1149-0.92192 0.35065-0.22051 0.16437-0.58565 0.71265-1.0954 1.6448l-6.6875 12.228c-0.51981 0.95048-0.79442 1.572-0.82383 1.8646-0.02029 0.2976 0.07039 0.62026 0.27203 0.96799 0.21576 0.34357 0.58411 0.65781 1.1051 0.9427l0.6169 0.33738m35.508-8.3282-2.506 7.0358-0.54461-0.19398c0.02757-2.1575-0.43783-3.9708-1.3962-5.4401-0.95843-1.4692-2.2178-2.4817-3.778-3.0375-1.4916-0.53125-2.8832-0.55144-4.1748-0.06058-1.2882 0.48109-2.4057 1.3989-3.3526 2.7534-0.94691 1.3546-1.7017 2.8218-2.2644 4.4016-0.68157 1.9135-1.0536 3.6719-1.116 5.2751-0.06242 1.6033 0.28625 2.9217 1.046 3.9553 0.76954 1.0371 1.8461 1.802 3.2297 2.2949 0.48081 0.17127 0.98892 0.29696 1.5243 0.37709 0.5487 0.07381 1.123 0.10695 1.7228 0.09944l1.4785-4.1508c0.27959-0.78502 0.40562-1.3096 0.37809-1.5738-0.02407-0.27395-0.17462-0.56531-0.45164-0.87409-0.26724-0.30527-0.64127-0.54355-1.1221-0.71481l-0.51517-0.1835 0.19399-0.54461 9.6999 3.455-0.19398 0.54461c-0.75346-0.21308-1.3053-0.29354-1.6556-0.24139-0.33702 0.04583-0.64694 0.21741-0.92974 0.51475-0.15475 0.15498-0.36144 0.59555-0.62006 1.3217l-1.4785 4.1508c-1.4784 0.11476-2.9601 0.06802-4.445-0.14023-1.4787-0.19495-2.9588-0.55631-4.4406-1.0841-1.8939-0.67457-3.378-1.4907-4.4522-2.4483-1.061-0.96396-1.9238-2.0342-2.5883-3.2109-0.65126-1.1829-1.0597-2.3955-1.2255-3.6377-0.20456-1.5988-8e-3 -3.2372 0.58968-4.9152 1.0695-3.0027 3.0279-5.1636 5.8751-6.4826s5.8703-1.4088 9.0693-0.26939c0.99107 0.35303 1.8561 0.74959 2.595 1.1897 0.40378 0.23231 1.0201 0.70616 1.849 1.4216 0.84211 0.70911 1.3515 1.0951 1.5282 1.158 0.27473 0.09787 0.56481 0.09062 0.87025-0.02176 0.30888-0.12217 0.66107-0.42798 1.0566-0.91741l0.54461 0.19398m14.959 24.011-0.08659 0.5716-10.953-1.6592 0.08659-0.57161 0.69519 0.10531c0.60765 0.09205 1.1132 0.05801 1.5168-0.1021 0.28962-0.10363 0.53304-0.3196 0.73028-0.64794 0.15073-0.23001 0.30566-0.87028 0.4648-1.9208l2.0875-13.78c0.16225-1.0711 0.20701-1.7491 0.13429-2.0341-0.07273-0.28492-0.26936-0.55175-0.58989-0.8005-0.30867-0.25745-0.75653-0.43065-1.3436-0.51959l-0.69519-0.10531 0.08658-0.57161 10.953 1.6592-0.08659 0.5716-0.69519-0.1053c-0.60766-0.09203-1.1133-0.058-1.5168 0.1021-0.28963 0.10364-0.5382 0.31884-0.74572 0.64559-0.15075 0.23004-0.30568 0.8703-0.46481 1.9208l-2.0875 13.78c-0.16227 1.0711-0.20703 1.7491-0.13429 2.0341 0.08301 0.2865 0.27886 0.55849 0.58754 0.81595 0.32052 0.24873 0.77431 0.41756 1.3614 0.50649l0.6952 0.10531m28.432-6.9063-0.41684 7.4684-18.788 0.95863-0.02946-0.57737 0.70221-0.03583c0.61378-0.03132 1.1024-0.16577 1.4657-0.40334 0.26304-0.15945 0.45837-0.41974 0.58597-0.78088 0.10169-0.25551 0.12546-0.91382 0.07133-1.975l-0.71022-13.919c-0.0552-1.0819-0.14692-1.7552-0.27515-2.0198-0.12824-0.26462-0.37425-0.48675-0.73804-0.66638-0.35392-0.19053-0.82737-0.27068-1.4204-0.24044l-0.70221 0.03583-0.02946-0.57738 11.282-0.57565 0.02946 0.57738-0.92068 0.04697c-0.6138 0.03134-1.1024 0.16579-1.4657 0.40334-0.26306 0.15946-0.46358 0.42002-0.60157 0.78167-0.10171 0.25553-0.12548 0.91385-0.07133 1.975l0.68791 13.482c0.0552 1.0819 0.15292 1.7706 0.29316 2.0659 0.13969 0.28492 0.39531 0.49091 0.76686 0.61798 0.26484 0.08036 0.89662 0.09506 1.8953 0.0441l1.7633-0.08997c1.1235-0.05733 2.0497-0.30276 2.7786-0.7363 0.72884-0.43353 1.342-1.0906 1.8394-1.9713 0.50782-0.88118 0.96375-2.1665 1.3678-3.856l0.63979-0.03264m20.552-3.5656-7.1712 2.1423-0.263 2.2311c-0.08268 0.74222-0.05991 1.3279 0.0683 1.7571 0.16995 0.56891 0.52474 0.91953 1.0644 1.0518 0.31719 0.07919 1.0167 6.9e-4 2.0985-0.23552l0.16548 0.55393-6.752 2.0171-0.16548-0.55393c0.6958-0.32745 1.2052-0.80577 1.5282-1.435 0.32002-0.63917 0.59329-1.8351 0.81981-3.5879l2.4219-18.368 0.28445-0.08497 12.294 14.461c1.1697 1.3683 2.0403 2.1899 2.6117 2.465 0.43176 0.20804 0.96451 0.24457 1.5982 0.10961l0.16548 0.55394-9.8211 2.9339-0.16548-0.55393 0.40422-0.12076c0.78847-0.23554 1.3096-0.51081 1.5634-0.82581 0.17185-0.22528 0.21307-0.48764 0.12363-0.78707-0.05368-0.17964-0.13878-0.35534-0.25531-0.5271-0.04681-0.08385-0.30833-0.41341-0.78457-0.98867l-1.8338-2.2081m-0.83998-0.95581-5.1128-6.0881-1.0254 7.9218 6.1382-1.8337m27.076-27.59 2.7155 5.0507-0.49544 0.26637c-0.92005-1.0073-1.6946-1.6671-2.3237-1.9794-0.63405-0.32138-1.3444-0.46575-2.1311-0.43312-0.43743 0.02233-1.0919 0.26778-1.9635 0.73636l-1.39 0.74731 7.7394 14.395c0.51299 0.95418 0.88408 1.5234 1.1133 1.7077 0.23834 0.17935 0.55822 0.27939 0.95965 0.30009 0.40565 0.00662 0.87455-0.13313 1.4067-0.41923l0.6193-0.33296 0.27376 0.50919-9.771 5.2534-0.27377-0.5092 0.61929-0.33296c0.5413-0.29103 0.92531-0.62167 1.152-0.99192 0.16947-0.25669 0.23917-0.578 0.20908-0.96394-0.01747-0.27444-0.27777-0.87958-0.7809-1.8154l-7.7394-14.395-1.3487 0.72511c-1.2569 0.6758-2.0268 1.4327-2.3095 2.2706-0.39864 1.1723-0.33352 2.5033 0.19536 3.9929l-0.52295 0.28117-2.7155-5.0507 16.762-9.0121m12.709-7.535 5.194 6.8857 0.3368-0.25406c1.0728-0.80919 1.5963-1.7325 1.5705-2.77-0.02578-1.0374-0.4677-2.2633-1.3258-3.6776l0.47402-0.35756 6.6807 8.8566-0.47402 0.35756c-0.82746-0.88938-1.6354-1.5194-2.424-1.8902-0.78021-0.377-1.4608-0.5095-2.0417-0.3975-0.58722 0.10372-1.2842 0.45981-2.0908 1.0683l3.5944 4.7651c0.70256 0.93141 1.1697 1.4728 1.4014 1.6243 0.23998 0.14518 0.51826 0.20275 0.83486 0.1727 0.31657-0.03003 0.71603-0.22697 1.1984-0.5908l1.0104-0.76216c1.58-1.1918 2.5681-2.5112 2.9641-3.9582 0.40432-1.4532 0.24982-3.0851-0.46349-4.8956l0.46154-0.34815 3.2945 5.9503-14.62 11.028-0.34815-0.46154 0.56133-0.42342c0.49065-0.3701 0.8198-0.75539 0.98745-1.1558 0.12839-0.27952 0.14416-0.60457 0.04731-0.97514-0.05907-0.26858-0.40853-0.82699-1.0484-1.6752l-8.3932-11.127c-0.5771-0.76507-0.95231-1.2192-1.1256-1.3625-0.30271-0.22832-0.62593-0.3368-0.96965-0.32546-0.49165 0.00554-1.0119 0.21531-1.5608 0.62931l-0.56133 0.42342-0.34815-0.46154 14.158-10.68 3.7732 5.0021-0.47402 0.35756c-1.1633-1.0405-2.166-1.6607-3.0083-1.8605-0.83391-0.20601-1.7441-0.13267-2.7306 0.22003-0.57862 0.20161-1.5083 0.78543-2.7889 1.7514l-1.7464 1.3173"/>
  <path d="m648.84 366.09c69.247 56.167 137.12 57.198 203.53 0" fill="none"/>
</svg>
