<?xml version="1.0" encoding="UTF-8"?>
<svg width="2880" height="1440" version="1.0" xmlns="http://www.w3.org/2000/svg" xmlns:xlink="http://www.w3.org/1999/xlink">
  <rect width="2880" height="1440" fill="#ce1126"/>
  <rect width="1440" height="720" fill="#002b7f"/>
  <polygon transform="translate(720 604.93) scale(105.15)" points="0 -1 0.58778 0.80902 -0.95106 -0.30902 0.95106 -0.30902 -0.58778 0.80902" fill="#fff"/>
  <polygon id="p" transform="translate(500 292.92) scale(84.117 82.918)" points="0 -1 0.58778 0.80902 -0.95106 -0.30902 0.95106 -0.30902 -0.58778 0.80902" fill="#fff"/>
  <polygon transform="translate(945 257.39) scale(78.86 77.39)" points="0 -1 0.58778 0.80902 -0.95106 -0.30902 0.95106 -0.30902 -0.58778 0.80902" fill="#fff"/>
  <use x="220" y="-180" xlink:href="#p"/>
  <polygon transform="translate(830 417.47) scale(52.573)" points="0 -1 0.58778 0.80902 -0.95106 -0.30902 0.95106 -0.30902 -0.58778 0.80902" fill="#fff"/>
</svg>
