<?xml version="1.0" encoding="UTF-8"?>
<svg id="Layer_1" width="1e3px" height="700px" style="enable-background:new 0 0 1000 700" version="1.1" viewBox="0 0 1e3 700" xmlns="http://www.w3.org/2000/svg">
  <path d="M0,0h1000v700H0V0z" style="fill:#D50032"/>
  <path d="M0,0h680v700H0V0z" style="fill:#FEDD00"/>
  <path d="M0,0h320v700H0V0z" style="fill:#10069F"/>
  <path d="m469.37 188.48c12.051 0 16.979 10.338 29.029 10.338 7.44 0 11.777-2.43 18.261-6.087 4.524-2.562 7.41-3.927 12.605-3.927 5.319 0 8.58 1.608 11.301 6.167 1.537 2.58 2.814 7.628 2.138 10.525-0.94379 4.4603-2.373 8.8038-4.262 12.953-1.043 2.438-2.028 3.898-2.028 6.566 0 6.396 8.704 8.594 14.622 8.685 1.29 0.020004 12.139 0.198 18.815-6.56-3.622-0.16-7.675-2.965-7.675-6.588 0-4.099 2.88-6.873 6.785-8.057 0.742-0.21201 2.006 0.44299 2.677 0.089996 0.95398-0.495 0.508-1.568 1.356-2.24 1.944-1.555 3.207-2.525 5.699-2.525 1.3937-0.097778 2.7751 0.31648 3.885 1.165 0.69 0.495 0.94299 1.107 1.79 1.107 1.786 0 2.67-1.13 4.454-1.13 1.2563-0.052231 2.5028 0.24107 3.604 0.84801 1.06 0.548 1.037 2.349 2.238 2.349 0.60101 0 3.779-1.296 5.44-1.296 3.446 0 5.285 1.248 7.512 3.863 0.59998 0.707 0.98499 2.137 1.596 2.137 2.1761 0.17398 4.2305 1.0754 5.832 2.559 0.64868 0.60112 1.2137 1.2866 1.68 2.038 0.40601 0.65401 1.03 2.25 1.748 2.526 0.92743 0.19316 1.8218 0.52025 2.655 0.97099 2.6381 1.6473 4.28 4.5024 4.377 7.611-0.13104 1.127-0.38251 2.2366-0.75 3.31-2.942 10.284-9.94 13.548-17.009 22.382-3.004 3.763-5.375 6.767-5.375 11.59 0 1.167 1.436 3.303 2.073 4.275-0.38898-2.267 0.64697-5.051 3.043-5.18 3.2341-0.1012 5.9828 2.3441 6.259 5.568 0.026856 0.97574-0.14984 1.9464-0.51898 2.85 1.8819-1.1891 4.0062-1.9415 6.217-2.202 0.98816-0.11996 1.9841-0.16342 2.979-0.13 5.245 0.13 11.034 3.08 14.547 6.064 10.749 9.13 12.049 22.492 11.462 26.203-1.305 8.246-0.48401 23.168-21.56 29.117 3.897 1.641 6.55 4.573 6.55 8.178 0.09552 3.9224-3.0047 7.1806-6.927 7.28-2.0162 0.12317-3.9833-0.65314-5.372-2.12-4.382 4.381-5.23 8.852-5.23 15.054-0.032593 3.2265 0.74475 6.4097 2.261 9.258 1.644 3.552 2.827 5.637 5.796 8.2 1.573-2.369 3.234-4.1 6.078-4.1 2.757 0 5.09 0.883 6.22 3.392 0.336 0.76001 0.034973 1.379 0.42401 2.12 0.495 0.95499 1.326 1.167 1.838 2.121 0.79498 1.467 0.018005 2.721 0.70697 4.24 0.44098 0.98999 1.413 1.132 1.837 2.121 0.61719 1.3253 0.90833 2.7792 0.849 4.24 0 4.701-4.277 8.058-8.977 8.058-1.413 0-2.19-0.565-3.604-0.42401 2.686 2.686 4.735 3.852 6.785 7.068 2.968 4.647 3.71 7.951 4.382 13.429 0.10962 0.89096 0.15704 1.7885 0.14203 2.686 0 7.032-1.096 11.238-4.241 17.528-3.004 6.025-5.566 9.365-11.026 13.287-8.517 6.131-14.72 7.899-25.02 9.895-5.6378 1.1766-11.355 1.9326-17.105 2.262-8.588 0.548-13.482 0.565-22.052 1.13-11.238 0.76001-19.03 2.35-27 10.32 3.765 2.756 6.362 5.46 6.362 10.107 0 4.77-2.951 8.18-7.492 9.683-1.06 0.353-1.838 0.035004-2.827 0.565-1.184 0.61801-1.131 1.979-2.262 2.686-1.7585 1.1474-3.8419 1.6931-5.937 1.555-4.205 0-7.068-0.98999-10.037-3.959-3.445 2.863-4.612 5.443-8.481 7.634-1.273 0.707-1.927 1.696-3.393 1.696-2.315 0-3.375-1.466-5.23-2.827-2.578-1.8069-4.907-3.9453-6.927-6.36-3.516 2.102-5.672 3.816-9.754 3.816-2.2025 0.12366-4.3855-0.47192-6.22-1.697-1.113-0.689-1.29-1.714-2.403-2.403-1.166-0.724-2.138-0.45901-3.392-0.98999-4.718-2.031-7.775-5.53-7.775-10.671 0-4.506 2.845-7.369 6.927-9.26-7.828-7.827-15.532-9.187-26.576-9.894-8.535-0.548-13.394-0.565-21.911-1.131-5.7867-0.42899-11.544-1.1842-17.246-2.262-5.072-0.82999-8.075-1.095-12.722-3.251-15.991-7.457-26.187-17.687-28.272-35.198-0.13596-1.2909-0.18341-2.5896-0.142-3.887 0-9.118 3.587-14.683 10.036-21.133-1.66-0.39001-2.774 0.159-4.382-0.42401-4.029-1.467-6.926-4.259-6.926-8.553-0.11731-1.3967 0.17752-2.7971 0.84799-4.028 0.548-0.97198 1.59-1.167 1.837-2.262 0.31799-1.449-0.10599-2.474 0.56601-3.817 0.44199-0.89999 1.272-1.078 1.696-1.979 1.396-2.897 3.146-5.23 6.361-5.23 2.757 0 4.524 1.449 5.937 3.817 2.686-1.237 3.428-3.252 4.948-5.796 2.527-4.223 3.675-7.174 3.675-12.086 0.072235-2.9602-0.40692-5.9081-1.413-8.693-0.77802-2.333-1.096-3.923-2.827-5.654-1.3889 1.4666-3.3559 2.2428-5.372 2.12-4.4879-0.1196-8.0305-3.852-7.916-8.34-0.10629-3.1425 1.7549-6.0191 4.665-7.21-2.421-2.084-4.524-2.261-7.21-3.957-4.081-2.58-5.512-5.301-8.198-9.33-1.75-2.633-2.21-4.47-3.11-7.492-1.098-3.0869-1.6716-6.3358-1.697-9.612-0.014862-0.85065 0.032257-1.7012 0.14099-2.545 1.008-7.668 2.386-12.475 7.21-18.518 2.862-3.587 4.806-5.795 9.047-7.633 3.604-1.555 5.76-2.686 9.683-2.686 1.0154-0.023956 2.0312 0.023468 3.04 0.142 1.5829 0.08609 3.1273 0.52042 4.523 1.272 0.60001 0.336 1.696 1.343 1.696 0.63599 0-0.81299-0.42401-1.237-0.42401-2.05 0-3.25 2.332-6.22 5.584-6.22 2.35 0 3.304 2.068 4.453 4.1 0.73486-1.0319 1.1299-2.2672 1.13-3.534 0-5.372-2.88-8.11-6.22-12.298-7.28-9.1-16.397-13.358-16.397-25.02 0-3.48 1.678-5.849 4.665-7.633 0.86499-0.513 2.03 0 2.877-0.543 0.72501-0.46001 0.642-1.395 1.101-2.137 0.64444-0.96826 1.4465-1.8217 2.373-2.525 1.661-1.449 3.12-1.015 4.957-2.287 0.91901-0.636 1.136-1.463 1.843-2.31 2.05-2.474 3.89-3.669 7.123-3.669 1.3751-0.10115 2.7554 0.10623 4.04 0.60699 0.51199 0.19501 1.47 0.967 1.594 0.81799 0.62061-0.74654 1.3829-1.3627 2.243-1.813 1.0349-0.62152 2.2252-0.93608 3.432-0.907 1.732 0 2.866 0.97099 4.598 0.97099 0.63599 0 0.78299-0.63499 1.295-0.97099 1.537-1.042 2.422-1.632 4.295-1.632 1.5724 0.033707 3.0899 0.58443 4.318 1.567 1.43 0.90199 1.637 2.108 3.103 2.957 0.81299 0.477 1.502 0.265 2.404 0.565 4.028 1.343 7.068 4.029 7.068 8.27 0.16122 2.0716-0.67981 4.095-2.262 5.442-1.361 1.201-2.65 0.99001-4.382 1.555 5.619 4.488 10.508 5.601 17.682 5.601 6.573 0 14.612-2.687 14.612-9.26 0-3.057-1.69-4.7-2.892-7.509-2.156-5-3.325-7.942-3.325-13.384 0-4.311 0.47-6.927 2.979-10.426 2.58-3.604 5.731-4.445 10.167-4.445l0.0020759 0.0010839z" style="fill:#C6AA76"/>
  <path d="m425.59 223.46c0.53207 1.8426 1.9756 3.2812 3.82 3.807 2.2494 0.50812 4.5885-0.34258 5.986-2.177 1.2811-1.8402 1.5916-4.187 0.83301-6.297-0.52301-1.405-1.4648-2.6155-2.698-3.468l-7.938 8.057-0.0020142 0.078995-0.001007-0.001007z" style="fill:none;stroke-linejoin:round;stroke-width:1.041;stroke:#713F2A"/>
  <path d="m626.61 343.94c-1.866-4.51-6.686-2.488-6.983 0-0.68298 5.732 4.34 7.464 7.916 6.53 1.6611-0.4292 3.071-1.5257 3.896-3.03 0.97882-1.7801 1.1987-3.8797 0.60999-5.824-0.56604-1.8259-1.7393-3.4034-3.325-4.471-1.375-0.87799-2.874-0.965-5.224-0.965-8.708 0-16.327 10.289-18.886 20.977-1.4254 6.1776-1.5602 12.583-0.396 18.815 1.2969 6.6212 4.4775 12.727 9.16 17.585 2.6777 2.5588 5.7045 4.7254 8.99 6.435 2.0796 1.0892 4.2538 1.9872 6.496 2.683 2.0084 0.56418 4.1267 0.61301 6.159 0.142 5.16-1.12 7.559-5.92 4.96-10.83-2.129-4.02-8.397-6.219-11.352-1.088-0.40546 0.73941-0.62122 1.5678-0.62799 2.411-0.048218 1.3853 0.52411 2.72 1.561 3.64 2.246 1.428 5.838 1.024 5.672-2.941" style="fill:none;stroke-linecap:round;stroke-width:1.037;stroke:#713F2A"/>
  <path d="m599.69 403.07c2.691-3.0316 6.343-5.0453 10.343-5.703 4.654-0.57199 8.699 0.78299 12.828 3.004 8.06 4.335 12.554 8.995 15.549 17.641 0.94464 2.9113 1.3856 5.9624 1.304 9.022-0.14001 5.604-1.563 11.73-3.092 14.692-1.334 2.583-4.82 13.994-23.946 21.868-11.161 4.594-28.3 5.653-40.118 6.12-16.256 0.642-31.254 1.244-39.962 11.973" style="fill:none;stroke-width:1.276;stroke:#713F2A"/>
  <path d="m603.75 421.45c-0.466-1.71-0.034973-3.35 1.322-5.209 1.814-2.486 5.675-3.343 9.174-1.4 1.549 0.77893 2.9038 1.8949 3.965 3.266 0.50201 0.66501 1.35 1.739 1.788 2.488 0.70862 1.2292 1.2797 2.5327 1.703 3.887 3.846 10.928-2.265 22.771-10.255 27.522-6.206 3.69-13.608 5.336-22.469 6.375-3.982 0.46799-6.256 0.43701-10.263 0.62299-3.223 0.14899-6.008 0.096008-8.63 0.063995-2.157-0.027008-4.205-0.015991-6.297-0.063995-3.7582-0.14029-7.5211-0.088562-11.274 0.155-4.55 0.33099-7.972 0.448-11.818 1.089-2.511 0.418-5.455 0.82199-8.542 1.515-0.92603 0.207-1.865 0.37701-2.809 0.66101-0.63397 0.19199-1.26 0.38599-1.881 0.57501-5.3536 1.4839-10.485 3.677-15.257 6.521-1.3683 0.78879-2.6655 1.6949-3.877 2.708-0.66501 0.62701-1.472 1.256-2.124 1.898-2.99 2.941-6.047 6.126-6.762 10.438-0.11194 0.83069-0.1561 1.6691-0.13199 2.507 0 2.798 2.278 6.608 8.42 7.852m8.6379-265.81c1.285 2.324 1.992 3.738 1.244 6.142-0.84698 2.723-2.778 4.354-5.52 4.354-6.22 0-9.878-7.364-7.075-12.051 4.976-8.319 14.539-3.647 23.402 0.474-0.42798-2.134-1.174-2.828-1.096-5.471 0.19299-6.565 5.061-9.542 7.005-15.605 1.157-3.613 1.618-6.75-1.025-9.316-2.308-2.24-4.982-2.205-7.994-1.025-6.018 2.359-13.246 9.138-25.97 9.326-12.724-0.188-20.012-6.967-26.03-9.326-3.012-1.18-5.686-1.214-7.994 1.025-2.643 2.566-2.183 5.703-1.025 9.316 1.944 6.064 6.812 9.04 7.005 15.605 0.076996 2.643-0.66901 3.337-1.096 5.47 8.863-4.12 18.798-9.211 23.402-0.47301 2.565 4.869-0.85501 12.05-7.075 12.05-2.742 0-4.667-1.747-5.52-4.353-0.62558-2.1271-0.16-4.4259 1.244-6.142" style="fill:none;stroke-width:1.121;stroke:#713F2A"/>
  <path d="m491.5 224.79c2.403 1.838 4.1 4.1 3.817 7.775-0.30701 3.986-1.273 4.947-4.382 7.068m3.745-5.933c0.033234 2.2452-1.3993 4.2505-3.534 4.947" style="fill:none;stroke-linecap:round;stroke-width:1.121;stroke:#713F2A"/>
  <path d="m432.4 214.49 1.088 0.77699 1.166 1.245 0.77802 1.555 0.38901 1.321 0.078003 1.71-0.078003 1.167-0.38901 1.322-0.77802 0.93201-0.93301 1.011-1.321 0.7-1.71 0.38901-1.478 0.233-1.555-0.7-1.399-1.01-0.85501-1.245-0.62201-1.555v-0.621l7.62-7.231-9.765e-4 -3.04e-5z" style="fill:#C6AA76"/>
  <path d="m430.01 220.57c-0.478-2.581-3.496-3.11-4.665-1.586-1.8 2.348-0.48499 6.257 3.176 7.401 2.2498 0.50955 4.59-0.34138 5.987-2.177 2.1718-3.048 1.4614-7.2795-1.5867-9.4513-0.091522-0.065216-0.18463-0.12814-0.2793-0.18872-4.252-3.233-11.118-2.488-13.373 2.954-2.909 7.02 3.42 12.284 9.252 16.25 7.34 4.991 15.705 5.899 22.003 5.83 14.306-0.155 25.19-6.997 32.265-10.884 1.648-0.905 3.345-0.72 4.198 0.311 1.0303 1.3013 0.85925 3.182-0.38901 4.276" style="fill:none;stroke-linecap:round;stroke-width:1.041;stroke:#713F2A"/>
  <path d="m387.6 414.35-3.188 1.166-3.265 2.488-1.4 1.944-1.788 3.11-0.77701 2.332-0.62201 2.877-0.311 2.177m29.701-15.784-0.233 2.8-0.46701 1.943-1.4 3.343-2.176 2.877-2.333 1.865-1.71 0.85599-2.41 0.54401" style="fill:none;stroke-width:1.057;stroke:#713F2A"/>
  <path d="m499.6 489.23c-0.57999 2.588-3.004 5.548-8.279 6.617l-1.025 0.21201" style="fill:none;stroke-width:1.197;stroke:#713F2A"/>
  <path d="m631.59 406.57c3.4817 3.3367 6.0583 7.5034 7.488 12.109 0.94476 2.9109 1.3854 5.9618 1.303 9.021-0.14001 5.604-1.562 11.73-3.091 14.692-1.334 2.584-4.82 13.994-23.946 21.868-11.161 4.595-28.3 5.654-40.118 6.12-16.022 0.633-30.822 1.227-39.582 11.517" style="fill:none;stroke-width:1.356;stroke:#713F2A"/>
  <path d="m605.45 416.95c1.188-1.621 5.517-3.673 9.016-1.73 1.4971 0.74237 2.7766 1.8596 3.714 3.243" style="fill:none;stroke-width:.929;stroke:#713F2A"/>
  <path d="m627.51 402.79c0.78198 0.29999 1.56 0.57199 2.244 0.767 1.9968 0.63544 4.134 0.68472 6.158 0.142 4.423-1.327 7.261-5.459 4.96-10.83-0.61798-1.3174-1.5511-2.4622-2.717-3.333" style="fill:none;stroke-width:1.356;stroke:#713F2A"/>
  <path d="m375.44 287.13c-2.969 1.838-5.182 2.273-7.492 4.947-1.8239 3.3567-3.2021 6.9368-4.1 10.65m72.032-80.767c0 2.686-1.98 4.382-4.665 4.947" style="fill:none;stroke-linecap:round;stroke-width:1.041;stroke:#713F2A"/>
  <path d="m620.49 275.03c7.39-0.14999 28.859 5.64 29.012 30.876 0.15002 24.925-15.383 28.997-21.607 30.656" style="fill:none;stroke-width:.997;stroke:#713F2A"/>
  <path d="m622.43 275.03c12.743-0.55399 25.892 8.826 26.472 32.236 0.45203 18.289-12.517 26.584-18.742 28.243" style="fill:none;stroke-width:1.037;stroke:#713F2A"/>
  <path d="m615.33 363.16 0.19598-2.502 0.83398-3.974 1.178-3.091 1.324-2.551 1.717-2.06m12.161-5.312-0.19501 2.449-0.70001 1.672-1.088 1.594-1.244 0.93301-1.904 0.70001-1.672 0.116-1.244-0.19501m-22.363-82.519 0.54401-2.643 1.166-2.45 1.517-2.449 2.604-3.343 2.06-2.293 3.343-3.382 2.877-2.916 1.827-2.099 2.41-2.915 2.138-3.227 1.283-2.643 0.70001-3.421 0.21198-4.242-0.388-1.23m-19.183 200.27 2.527-0.505 1.905-1.011 1.05-1.05 0.73798-1.205 0.505-1.943 0.039978-1.361m-247.26-18.985 1.866 0.155 2.41-0.194 2.41-0.85501m7.814-57.106-0.31 2.177-0.50601 0.97198-0.73901 0.93301-1.01 0.77701-1.128 0.505-1.477 0.23401-1.011 0.078003m15.471-24.406-0.54401 3.382-0.66101 1.477-1.36 1.866-1.828 1.4-1.866 0.93201-3.615 0.89401m23.904-62.121-0.70001 2.021-0.85501 1.478-1.166 1.632-1.633 1.477-1.943 0.93399-1.633 0.388-1.01-0.078003m0.59-9.682 0.040008 1.555" style="fill:none;stroke-width:.881;stroke:#713F2A"/>
  <path d="m397.32 325.09c-0.95709 0.86768-2.0632 1.5551-3.265 2.029m235.18 70.041c0.13397 0.14499 0.58099 0.21701 0.73901 0.31 2.215 1.323 6.577-0.32501 5.294-3.746" style="fill:none;stroke-linecap:round;stroke-width:.987;stroke:#713F2A"/>
  <path d="m621.54 349.38c1.573 2.055 4.538 2.588 6.883 1.976 1.6606-0.42969 3.0701-1.5261 3.895-3.03 0.97986-1.7802 1.1998-3.8805 0.60999-5.825-0.27295-0.93668-0.72272-1.8124-1.325-2.58-0.59796-0.84344-1.3163-1.5948-2.132-2.23-0.16998-0.11099-0.33899-0.26199-0.51801-0.383m10.037 53.152c0.38757-2.1046-0.33203-4.261-1.9059-5.711-0.40076-0.46552-0.85754-0.87967-1.36-1.233m0.74591 0.73401c-0.072998-2.912-2.456-4.995-5.41-5.513m-6.52 4.433c-0.716-0.51923-1.3981-1.0837-2.042-1.69-4.2764-4.5057-6.6857-10.465-6.742-16.677-0.036987-6.473 2.566-13.062 5.598-15.627m-88.284 132.26 2.799-2.566 1.944-1.477 3.654-2.255 3.42-1.632 2.41-0.62201 4.821-1.089 5.598-0.85501m-46.106 30.256c-2.022 3.11-6.842 7.775-11.896 9.64-5.054-1.865-9.874-6.53-11.895-9.64" style="fill:none;stroke-width:.987;stroke:#713F2A"/>
  <path d="m491.28 494.73c-0.62317 2.3969-1.8125 4.6091-3.468 6.451" style="fill:none;stroke-linecap:round;stroke-width:.987;stroke:#713F2A"/>
  <path d="m491.78 491.47-0.70001 3.42m-3.65 6.53-1.477 1.477-2.644 1.477-3.032 0.93399m-8.817-277.86c0.51535-1.2735 0.75726-2.641 0.70999-4.014-0.19299-6.565-5.06-9.542-7.005-15.606-1.157-3.612-1.618-6.75 1.026-9.316 2.307-2.24 4.981-2.205 7.993-1.025 6.018 2.36 13.308 9.138 26.032 9.326-12.724-0.188-20.015-6.967-26.032-9.326-3.012-1.18-5.935-1.525-8.242 0.714-2.644 2.566-1.934 6.015-0.77701 9.627 1.944 6.064 6.563 9.041 6.756 15.606 0.014008 1.3824-0.27048 2.7516-0.83401 4.014m29.093-21.08c12.517-0.661 23.245-9.071 26.706-9.757 3.086-0.612 4.809-0.336 7.072 1.721-2.264-2.057-4.842-1.993-7.77-0.845-6.018 2.359-13.246 9.138-25.97 9.326m124.37 176.39c-6.0734-4.5529-9.6688-11.684-9.718-19.274-0.036011-6.474 2.565-13.061 5.597-15.627m-109.3 152.46c-2.021 3.11-6.842 7.775-11.895 9.64-5.054-1.865-9.874-6.53-11.895-9.64" style="fill:none;stroke-width:.987;stroke:#713F2A"/>
  <path d="m479.17 230.74c1.302-0.72 2.51-1.406 3.624-2.018 1.649-0.90601 3.63-0.716 4.483 0.31599 1.0813 1.3079 0.98315 3.2254-0.22601 4.416" style="fill:none;stroke-linecap:round;stroke-width:.987;stroke:#713F2A"/>
  <path d="m460.48 239.49c8.588-1.792 15.585-5.638 20.875-8.597m50.425 256.54c0.49854 0.40115 0.89758 0.91214 1.166 1.493 0.21887 0.42285 0.39349 0.86722 0.521 1.326 0.40729 1.8064-0.72693 3.6009-2.5333 4.0081-0.18079 0.040772-0.36462 0.066467-0.54968 0.076843-2.3298 0.28418-4.5662-1.009-5.482-3.17m-64.862-252.11c8.588-1.792 15.585-5.638 20.875-8.597m152.46 167.04c-1.633 0.63-2.526 0.54401-4.557-0.358-0.83398-0.37-1.788-0.94299-2.907-1.578-3.98-2.261-8.708-5.824-13.139-14.143-1.185-2.2073-2.0829-4.557-2.672-6.992-0.43671-1.7063-0.69806-3.4527-0.78003-5.212-0.075867-3.2672 0.24786-6.5314 0.96399-9.72 0.91669-5.1732 3.108-10.036 6.376-14.15 1.795-2.463 3.343-3.966 6.686-4.043m-224.52-61.414c2.6903 2.176 4.2134 5.4811 4.12 8.94 0 4.842-4.05 12.75-14.001 15.55-3.3159 0.93567-6.8681 0.51099-9.87-1.18" style="fill:none;stroke-width:.987;stroke:#713F2A"/>
  <path d="m400.46 296.28c1.7192 1.0855 2.6813 3.046 2.488 5.07 0 1.664-1.076 3.822-2.907 5.866-3.5351 3.8587-8.4847 6.1177-13.716 6.26-3.3497 0.098358-6.6456-0.85837-9.422-2.735-2.9803-1.9468-5.1179-4.9449-5.987-8.397" style="fill:none;stroke-width:.987;stroke:#713F2A"/>
  <path d="m400.3 306.71c2.026 1.862 2.648 4.193 2.648 7.129 0 4.29-1.742 7.6-5.75 11.107-0.93939 0.8204-1.9547 1.5497-3.032 2.178m202.23-34.494v5.519m-0.44-6.879v7.774m0.44-24.604v10.185m-0.44-12.435v13.918m-2.97 128.06c-1.5955 3.3414-3.8115 6.3491-6.53 8.863-2.6189 2.6612-5.7018 4.8216-9.097 6.375-3.2426 1.6185-6.6978 2.7703-10.263 3.421-3.5216 0.80899-7.1173 1.252-10.73 1.322-3.305 0.13699-6.6154 0.051819-9.909-0.255-4.127-0.285-6.417-0.85999-10.538-1.222-2.9023-0.34232-5.8207-0.53125-8.743-0.56601-3.0083-0.087585-6.0178 0.12784-8.983 0.64301-2.7772 0.41901-5.4927 1.1763-8.086 2.255-4.198 1.7-8.941 4.665-9.952 5.987-1.01-1.322-5.754-4.286-9.952-5.987-2.5929-1.0787-5.3081-1.836-8.085-2.255-2.9655-0.51566-5.9753-0.73108-8.984-0.64301-2.9223 0.034241-5.8407 0.22318-8.743 0.56601-4.121 0.362-6.41 0.93701-10.538 1.222-3.2939 0.30582-6.6047 0.39102-9.91 0.255-3.6121-0.067963-7.2074-0.51102-10.728-1.322-3.5644-0.65344-7.0192-1.8047-10.263-3.42-3.3963-1.5519-6.4795-3.713-9.097-6.376-0.31937-0.31427-0.63538-0.63196-0.948-0.953m65.889 83.39 2.799-0.35001m47.301-3.68 2.825-0.26901 2.69-1.076 1.884-1.144 2.556-3.027 0.53802-1.144 0.40399-2.623 0.13397-1.21m73.299-213.59c1.213-4.128-0.26801-8.483-4.266-8.366m-206.17 72.756c-0.90237 3.0447-2.9058 5.6445-5.62 7.293m5.69-72.993c-0.90723 2.8196-2.9967 5.1047-5.724 6.26-2.886 1.304-6.227 0.085998-8.014-1.292" style="fill:none;stroke-width:.987;stroke:#713F2A"/>
  <path d="m380.95 291.2c2.392 1.253 4.82-0.58401 4.322-3.696-0.43152-1.8739-2.0179-3.2587-3.933-3.433" style="fill:none;stroke-linecap:round;stroke-width:.987;stroke:#713F2A"/>
  <path d="m390.87 422.86c0.51599 0.48499 0.62601 1.115 1.322 1.244 1.05 0.194 1.866 0.58301 2.915-0.81601 1.294-1.725 0.599-4.409-0.74701-6.098-2.3802-2.4482-6.0858-3.0423-9.112-1.461-1.549 0.7785-2.9038 1.8942-3.965 3.265-0.50201 0.66501-1.35 1.739-1.788 2.488-0.70877 1.2293-1.2802 2.5328-1.704 3.887-3.2 9.098 0.60001 18.664 6.489 24.493" style="fill:none;stroke-width:.987;stroke:#713F2A"/>
  <path d="m531.59 487.23c0.37225 0.38446 0.71021 0.80072 1.01 1.244 0.19226 0.42477 0.33582 0.86993 0.42798 1.327 0.40692 1.8063-0.72754 3.6004-2.5338 4.0073-0.18066 0.04068-0.36432 0.066345-0.54919 0.076691-2.2733 0.28775-4.4487-1.0157-5.267-3.156" style="fill:none;stroke-linecap:round;stroke-width:.987;stroke:#713F2A"/>
  <path d="m608.5 216.81c5.4727 0.84853 9.5754 5.4579 9.784 10.992 0 6.92-2.331 9.496-5.974 14.446-3.899 5.297-16.638 15.005-16.638 26.045 0 6.686 1.866 10.962 6.686 13.139 3.108 1.404 6.742-0.116 8.397-1.61 4.042-3.655 2.426-10.063-1.788-10.829-5.132-0.93301-6.096 7.145-1.089 6.609m27.852 107.91c-0.46417-3.1251-3.3738-5.2822-6.4988-4.818-2.8603 0.4248-4.9538 2.9173-4.8782 5.808-0.005188 1.5183 0.57294 2.9807 1.615 4.085" style="fill:none;stroke-width:.987;stroke:#713F2A"/>
  <path d="m599.79 279.88c-2.6903 2.176-4.2134 5.4811-4.12 8.94 0 4.842 4.05 12.75 14.001 15.55 3.814 1.072 7.458 0.97101 9.74-0.41699m-243.8-16.153c-3.0351 0.93207-5.6849 2.8256-7.55 5.395-1.856 2.63-2.938 6.286-3.608 9.485-0.50339 3.4594-0.41818 6.979 0.25201 10.41 0.61603 3.1418 1.8396 6.1331 3.602 8.806 0.47284 0.69745 1.0157 1.3448 1.62 1.932 0.5611 0.49545 1.1537 0.95407 1.774 1.373m100.02 143.82c7.576 3.359 13.13 5.875 17.839 13.31 1.2666 2.3374 1.9092 4.9618 1.866 7.62 0.039948 4.5264-1.8558 8.8543-5.21 11.894-2.8345 2.543-6.6448 3.7091-10.417 3.188-3.007-0.29501-5.831-2.488-6.298-4.043m-72.62-175.79c4.276 3.343 6.064 6.586 6.064 11.74 0.19281 4.7272-2.1868 9.1888-6.22 11.662" style="fill:none;stroke-width:.987;stroke:#713F2A"/>
  <path d="m392.99 344.41c6.375 7.93 9.758 12.637 9.952 22.08 0.181 8.863-2.644 14.927-7.93 21.303" style="fill:none;stroke-linecap:round;stroke-width:.987;stroke:#713F2A"/>
  <path d="m515.23 239.57c1.207-0.84131 2.0885-2.0716 2.497-3.485 0.75299-2.325 0.77002-4.308-0.474-6.096 1.534 2.009 1.675 3.705 1.243 6.142-0.27399 1.552-1.264 2.369-2.497 3.485m80.401 134.62v25.241h0.067017c-0.0047607 1.2984-0.0755 2.5958-0.21198 3.887-0.133 0.983-0.27197 1.87-0.42902 2.703" style="fill:none;stroke-width:.987;stroke:#713F2A"/>
  <path d="m595.96 371.81v27.223h0.067017c-0.0042114 1.2984-0.074951 2.5958-0.21198 3.887-0.211 1.563-0.43701 2.887-0.729 4.125m0.87402-67.105v22.702m0.44-20.912v18.463m0-41.943v13.841m-0.44-15.471v17.064m0.44-29.584v5.37m-0.44-6.46v7.776m-2.8801 101.86c-0.16498 0.35001-0.34198 0.70999-0.53003 1.084-1.5955 3.3414-3.8115 6.3491-6.53 8.863-2.6189 2.6614-5.7018 4.8221-9.097 6.376-3.2426 1.6182-6.6979 2.7696-10.263 3.42-3.5214 0.81-7.1172 1.253-10.73 1.322-3.3047 0.1355-6.6147 0.050293-9.908-0.255-4.128-0.285-6.417-0.85999-10.538-1.222-2.9023-0.34229-5.8207-0.53122-8.743-0.56601-3.0087-0.087769-6.0186 0.12799-8.984 0.64401-2.7773 0.41834-5.4928 1.1753-8.086 2.254-4.197 1.7-8.94 4.665-9.951 5.987-1.011-1.322-5.754-4.286-9.952-5.987-2.5931-1.0788-5.3087-1.8358-8.086-2.254-2.965-0.51654-5.9746-0.7323-8.983-0.64401-2.9223 0.03421-5.8407 0.22314-8.743 0.56601-4.122 0.362-6.41 0.93701-10.538 1.222-3.2939 0.30582-6.6047 0.39102-9.91 0.255-3.6124-0.068115-7.208-0.51083-10.729-1.321-3.5642-0.65442-7.019-1.806-10.263-3.421-3.3958-1.5523-6.4786-3.7133-9.096-6.376-1.4075-1.3394-2.6982-2.7963-3.858-4.355m-3.1419-4.982c0.53848 4.3258-0.73669 8.6816-3.523 12.034-1.321 1.4-4.2 4.074-7.775 4.12-5.908 0.078003-7.672-3.986-8.03-4.975" style="fill:none;stroke-width:.987;stroke:#713F2A"/>
  <path d="m399.4 410.7c1.1618 1.1656 2.1376 2.5029 2.893 3.965 1.477 2.799 1.022 7.48-0.14801 9.64-0.14221 0.25952-0.30087 0.5097-0.47501 0.74899m-31.63 28.146c3.514 3.687 8.828 7.692 16.99 11.052 11.161 4.595 28.3 5.654 40.118 6.12 15.715 0.62 30.193 1.266 39.01 10.998m27.132-6.36c2.598 2.556 5.247 5.295 6.366 8.798m-11.476 17.892c-2.9568 3.1366-7.2174 4.6988-11.501 4.217-2.6954-0.34137-5.1222-1.8026-6.685-4.025m-8.364-4.542c0.14502 0.19797 0.29736 0.39032 0.457 0.577 2.0664 2.2574 4.9243 3.6305 7.978 3.833m41.985-0.12c-2.022 3.11-6.842 7.774-11.895 9.64-5.054-1.866-9.874-6.53-11.896-9.64l-0.47198-0.72699m24.343 0.707c0.36176 0.39352 0.7478 0.76392 1.156 1.109 2.8353 2.5422 6.6457 3.7079 10.418 3.187 2.632-0.28937 4.981-1.7827 6.36-4.043 0.30347-0.32919 0.5387-0.7153 0.69202-1.136" style="fill:none;stroke-width:.987;stroke:#713F2A"/>
  <path d="m529.75 500.99-1.16 1.867-1.766 1.463-2.674 1.11-2.421 0.10001" style="fill:none;stroke-width:.987;stroke:#713F2A"/>
  <path d="m536.03 483.22c1.551 1.1957 2.7864 2.7521 3.599 4.534 0.47809 1.1767 0.74451 2.4286 0.78699 3.698 0.125 2.3642-0.67145 4.6848-2.222 6.474-2.1606 2.3905-5.2086 3.7883-8.43 3.866-0.24597 0.01001-0.49103 0.010986-0.73401 0m0.28998-0.44199c-3.0563 0.086578-6.0029-1.1424-8.092-3.375m99.492-106.05c-3.0569-2.9079-5.5956-6.3157-7.507-10.077-1.1851-2.2072-2.0831-4.5569-2.672-6.992-0.43665-1.7059-0.698-3.452-0.78003-5.211-0.075806-3.2679 0.24792-6.5327 0.96399-9.722 0.95636-5.1608 3.1436-10.015 6.376-14.15 0.91602-1.308 2.0099-2.482 3.25-3.488m-2.1509-118.46c3.965 0.31 7.639 4.58 7.59 8.764-0.070007 6.078-2.108 8.59-6.89 14.545-4.12 5.131-16.482 14.15-16.171 22.78 0.1723 1.6046 0.79724 3.1271 1.802 4.39m-4.941 5.411c0.9314 0.90469 2.0176 1.6349 3.207 2.156 2.1735 0.8493 4.6122 0.68692 6.654-0.44299m-33.081-67.533c1.5031 0.99947 2.6882 2.4088 3.415 4.061 2.908 7.02-3.42 12.284-9.252 16.25-3.913 2.6041-8.3323 4.3516-12.968 5.128" style="fill:none;stroke-width:.987;stroke:#713F2A"/>
  <path d="m569.69 227.43c-1.9026-0.025589-3.6995-0.88016-4.92-2.34-0.46051-0.44531-0.83539-0.97136-1.106-1.552m-23.214 7.662c-0.7713-0.37521-1.4698-0.88446-2.063-1.504-1.7311-1.8386-2.2178-4.5238-1.242-6.853 0.987-2.963 5.746-11.274 5.98-17.027 0.35602-8.79-3.025-13.977-8.313-16" style="fill:none;stroke-width:.987;stroke:#713F2A"/>
  <path d="m542.68 203.85-0.20599 3.305-0.89502 3.374-1.722 4.613-1.308 2.96-1.377 2.961-0.68799 2.066-0.276 1.515 0.20697 1.446m59.395 197.31c0.23499 0.48492 0.55042 0.92651 0.93298 1.306 1.01 1.687 4.94 4.655 8.514 4.701 5.91 0.078003 7.312-4.057 7.464-4.975 0.74597-4.509-0.79602-5.743-3.11-7.013-0.93414-0.43408-1.9752-0.58463-2.994-0.43301" style="fill:none;stroke-linecap:round;stroke-width:.987;stroke:#713F2A"/>
  <path d="m370.23 403.67c-1.8802 0.53497-3.8708 0.54639-5.757 0.03299-4.423-1.326-8.007-5.564-6.18-10.829m20.917-49.724c0.39471 0.47012 0.62415 1.0569 0.65302 1.67 0.68301 5.732-4.34 7.402-7.916 6.469-1.9331-0.60892-3.5968-1.8664-4.71-3.56-0.62476-1.0974-0.95642-2.3372-0.96301-3.6m34.466-36.979c0.8428 0.76208 1.5029 1.7045 1.931 2.757m-1.771-13.307c0.75812 0.53033 1.3828 1.2293 1.825 2.042" style="fill:none;stroke-width:.987;stroke:#713F2A"/>
  <path d="m402.91 303.94c-0.59473 1.3674-1.4163 2.6244-2.43 3.718-3.5352 3.8585-8.4848 6.1175-13.716 6.26-3.3498 0.097961-6.6457-0.8591-9.422-2.736-3.1409-2.0051-5.4162-5.1146-6.377-8.715" style="fill:none;stroke-linecap:round;stroke-width:.987;stroke:#713F2A"/>
  <path d="m399.11 280.13c1.6892 1.3977 2.9674 3.2278 3.698 5.295" style="fill:none;stroke-width:.987;stroke:#713F2A"/>
  <path d="m402.86 292.56c-2.0183 6.172-7.1371 10.825-13.473 12.248-3.804 0.96399-8.702-0.241-10.374-1.664" style="fill:none;stroke-linecap:round;stroke-width:.987;stroke:#713F2A"/>
  <path d="m375.06 291.49c0.41699 4.12 3.174 7.209 8.401 7.308 7.35 0.138 11.818-10.574 5.287-18.094" style="fill:none;stroke-width:.987;stroke:#713F2A"/>
  <path d="m358.52 327.39c1.084 1.3315 2.3003 2.5497 3.63 3.636 2.7074 2.3314 5.8626 4.0849 9.272 5.153m8.248 0.771c6.569-0.789 10.272-5.684 9.538-11.41-0.56-4.363-4.563-7.718-7.285-7.912" style="fill:none;stroke-linecap:round;stroke-width:.987;stroke:#713F2A"/>
  <path d="m390.39 268.92c2.4649 0.0080872 4.4566 2.0129 4.4485 4.4778-2.136e-4 0.062408-0.0017395 0.12482-0.0045471 0.18716" style="fill:none;stroke-width:.987;stroke:#713F2A"/>
  <path d="m389.72 229.81c1.496 3.8464 4.2718 7.0598 7.86 9.099m225.28 48.381c2.686 3.679 0.927 10.932-6.379 11.07-2.8409-0.0012512-5.4738-1.4901-6.939-3.924" style="fill:none;stroke-linecap:round;stroke-width:.987;stroke:#713F2A"/>
  <path d="m596.4 239.25v24.686" style="fill:none;stroke-width:.987;stroke:#713F2A"/>
  <path d="m380.87 291.14c2.255 1.632 5.15-1.124 4.03-4.05-0.75699-1.975-3.563-4.106-7.45-1.463-4.294 2.92-3.11 12.13 5.13 12.284 7.35 0.13901 11.819-10.574 5.287-18.093-6.282-7.234-17.727-5.542-25.19 0.396-5.558 4.6924-9.4341 11.07-11.04 18.164-0.61145 2.5988-0.91751 5.2602-0.91199 7.93 0.14618 6.4863 2.0701 12.808 5.562 18.276 0.60074 0.91278 1.2825 1.7696 2.037 2.56 0.92935 1.0631 1.9155 2.0753 2.954 3.032 4.223 3.515 9.665 6.27 16.327 5.987 7.308-0.311 11.507-5.442 10.729-11.507-0.754-5.88-6.69-8.805-10.574-6.064-2.644 1.866-3.584 7.644 1.088 9.018 2.644 0.77802 4.976-2.565 3.11-4.509m202.44-112.42c4.218-2.29 7.47-1.867 9.874 1.47 2.2289 3.3081 3.0925 7.3499 2.41 11.28-0.85498 4.199-2.068 5.942-5.407 8.988" style="fill:none;stroke-linecap:round;stroke-width:.987;stroke:#713F2A"/>
  <path d="m594.58 212.55c4.82-3.187 10.041-1.834 12.906 2.41 2.1 3.11 2.636 5.712 2.488 9.563-0.3175 6.0101-3.692 11.438-8.941 14.383" style="fill:none;stroke-linecap:round;stroke-width:.987;stroke:#713F2A"/>
  <path d="m617.28 223.67c4.1058 0.46089 7.1964 3.9546 7.153 8.086 0 5.986-1.671 8.583-6.454 14.539-4.12 5.131-16.482 14.15-16.17 22.78 0.117 3.263 2.868 6.338 5.241 6.51" style="fill:none;stroke-width:.987;stroke:#713F2A"/>
  <path d="m617.75 291.14c-2.255 1.632-5.131-1.004-3.887-3.803 0.85901-1.932 3.42-4.353 7.308-1.71 4.293 2.92 3.11 12.13-5.131 12.284-7.35 0.13901-12.317-10.297-5.287-18.093 6.416-7.116 18.315-5.723 25.778 0.21399 3.176 2.527 9.566 9.466 10.936 18.573 1.658 11.02 1.445 24.575-9.937 32.922-4.852 3.3062-10.652 4.9347-16.516 4.637-7.308-0.32001-11.506-5.443-10.729-11.507 0.75403-5.88 6.416-8.368 10.574-6.065 4.32 2.393 3.565 8.466-1.088 9.019-2.736 0.32501-4.976-2.566-3.11-4.51" style="fill:none;stroke-linecap:round;stroke-width:.987;stroke:#713F2A"/>
  <path d="m613.86 287.34c1.212-5.454 5.885-5.962 9.658-5.907 10.296 0.151 17.416 12.364 17.535 24.178 0.15002 14.923-6.334 23.711-17.241 24.178-2.823 0.121-7.684-1.221-7.768-4.665" style="fill:none;stroke-width:.987;stroke:#713F2A"/>
  <path d="m620.2 284.9c10.858 2.413 14.67 12.196 14.67 21.532 0 7.616-0.75403 18.022-15.575 21.682" style="fill:none;stroke-linecap:square;stroke-width:.987;stroke:#713F2A"/>
  <path d="m638.11 389.58c0.62079-3.3129-1.5616-6.5018-4.8746-7.1226s-6.5018 1.5616-7.1226 4.8746c-0.41724 2.2267 0.43329 4.5014 2.2092 5.9081" style="fill:none;stroke-width:.987;stroke:#713F2A"/>
  <path d="m616.33 380.33c2.3755 3.8842 5.7357 7.0712 9.74 9.238m-1.96 16.482c-5.12-3.359-14.838-7.761-23.624-3.428-3.259 1.608-5.442 3.597-6.675 6.84-1.7432 5.1281-0.68652 10.794 2.788 14.949 1.321 1.4 4.2 4.074 7.774 4.12 5.91 0.07901 7.314-4.056 7.464-4.975 0.70001-4.276-1.788-5.987-3.11-6.453-1.014-0.358-4.312-0.26599-5.012 2.065-0.30096 1.0531-0.17596 2.1823 0.34802 3.144" style="fill:none;stroke-linecap:round;stroke-width:.987;stroke:#713F2A"/>
  <path d="m531.99 488.16c1.633 3.343-0.224 5.024-2.488 5.287-3.343 0.388-5.131-2.255-5.364-4.665-0.28711-3.7812 2.5453-7.0792 6.3265-7.3663 0.17151-0.013031 0.34344-0.019592 0.51544-0.019714 3.4467 0.11975 6.495 2.2701 7.764 5.477 0.47803 1.1764 0.74481 2.4279 0.78802 3.697 0.12482 2.3644-0.67206 4.6851-2.223 6.474-2.1604 2.3904-5.208 3.7881-8.429 3.866-6.6 0.26501-11.74-5.908-11.74-12.206 0-12.05 17.872-18.623 24.957-20.314 8.708-2.077 14.006-2.855 27.99-3.632 5.597-0.311 9.697-0.15302 15.86-0.79199 4.7385-0.36514 9.4425-1.0879 14.072-2.162 7.2889-1.5461 14.044-4.9777 19.592-9.952 4.55-4.131 7.153-7.075 9.26-12.75 1.817-4.898 2.653-14.596-1.951-21.77-3.5172-5.7841-9.4612-9.6676-16.171-10.565-5.83-0.84299-10.942 1.672-13.995 7.456-1.477 2.8-1.022 7.48 0.14801 9.64 1.5588 2.7015 4.3594 4.4507 7.471 4.666 5.909 0.078003 7.313-4.057 7.464-4.976 0.70001-4.276-1.788-5.987-3.11-6.453-1.014-0.358-4.312-0.26599-5.012 2.065-0.30084 1.053-0.17621 2.182 0.34698 3.144" style="fill:none;stroke-linecap:round;stroke-width:.987;stroke:#713F2A"/>
  <path d="m526.9 469.02c-7.576 3.359-13.13 5.875-17.839 13.31-1.2666 2.3374-1.9092 4.9618-1.866 7.62-0.039948 4.5264 1.8558 8.8543 5.21 11.894 2.8345 2.5429 6.6448 3.709 10.417 3.188 3.007-0.29501 5.832-2.488 6.298-4.043" style="fill:none;stroke-linecap:round;stroke-width:.987;stroke:#713F2A"/>
  <path d="m601.73 325.2c-3.545 1.183-6.064 6.586-6.064 11.74-0.19281 4.7272 2.1868 9.1888 6.22 11.662" style="fill:none;stroke-width:.987;stroke:#713F2A"/>
  <path d="m605.62 344.41c-6.375 7.93-9.758 12.637-9.952 22.08-0.18201 8.863 2.644 14.927 7.93 21.303" style="fill:none;stroke-linecap:round;stroke-width:.987;stroke:#713F2A"/>
  <path d="m571.64 212.58 0.547-0.81c2.644-3.887 7.312-4.911 10.73-2.332 4.12 3.11 5.16 8.402 4.042 13.994-0.8645 3.581-3.1476 6.6568-6.325 8.521" style="fill:none;stroke-width:.987;stroke:#713F2A"/>
  <path d="m414.22 210.68c-4.043-1.866-7.371-1.507-9.874 1.47-2.877 3.421-2.986 8.453-2.41 11.28 0.85501 4.199 2.068 5.942 5.407 8.988" style="fill:none;stroke-linecap:round;stroke-width:.987;stroke:#713F2A"/>
  <path d="m404.03 212.55c-4.82-3.187-10.041-1.834-12.906 2.41-2.1 3.11-2.636 5.712-2.488 9.563 0.3175 6.0101 3.692 11.438 8.941 14.383" style="fill:none;stroke-width:.987;stroke:#713F2A"/>
  <path d="m390.12 216.81c-5.3073 0.62633-9.3284 5.0893-9.4 10.433 0 6.92 1.703 9.718 5.59 15.005 3.897 5.299 16.638 15.005 16.638 26.045 0 6.686-1.866 10.962-6.686 13.139-3.108 1.404-6.742-0.116-8.397-1.61-4.043-3.655-2.426-10.063 1.788-10.829 5.131-0.93301 6.096 7.145 1.089 6.609" style="fill:none;stroke-width:.987;stroke:#713F2A"/>
  <path d="m381.33 223.67c-3.965 0.31-7.867 3.723-7.867 7.908 0 5.986 2.385 8.761 7.167 14.716 4.121 5.131 15.762 13.972 15.451 22.602-0.117 3.263-2.31 7.253-4.488 6.786" style="fill:none;stroke-width:.987;stroke:#713F2A"/>
  <path d="m372 343.94c1.866-4.51 6.686-2.488 6.983 0 0.68301 5.732-4.34 7.464-7.916 6.53-1.6612-0.42892-3.0712-1.5255-3.896-3.03-0.97885-1.7801-1.1987-3.8797-0.60999-5.824 0.27353-0.93695 0.72357-1.813 1.326-2.581 0.54819-0.74426 1.2252-1.3844 1.999-1.89 1.375-0.87799 2.874-0.965 5.224-0.965 8.708 0 16.327 10.289 18.886 20.977 1.4259 6.1775 1.5607 12.583 0.396 18.815-1.2968 6.6212-4.4775 12.727-9.16 17.585-2.6777 2.5588-5.7044 4.7254-8.99 6.435-2.0796 1.0892-4.2539 1.9872-6.496 2.683-1.9968 0.63544-4.134 0.68472-6.158 0.142-4.423-1.327-7.262-5.46-4.96-10.83 1.792-4.18 8.397-6.219 11.351-1.088 0.40543 0.73938 0.62119 1.5678 0.62799 2.411 0.048645 1.3854-0.52377 2.7202-1.561 3.64-2.246 1.428-5.838 1.024-5.671-2.941" style="fill:none;stroke-linecap:round;stroke-width:.987;stroke:#713F2A"/>
  <path d="m365.24 397.49c1.633 0.63 2.526 0.54401 4.557-0.358 0.83401-0.37 1.789-0.94299 2.907-1.578 3.98-2.261 8.708-5.824 13.139-14.143 1.1851-2.2072 2.0831-4.5569 2.672-6.992 0.43674-1.7063 0.69809-3.4526 0.78-5.212 0.076386-3.2672-0.24738-6.5315-0.96399-9.72-0.91623-5.1733-3.1076-10.037-6.376-14.15-1.795-2.463-3.343-3.966-6.686-4.043m-14.759 48.286c-0.62079-3.3129 1.5616-6.5018 4.8745-7.1226 3.313-0.62082 6.5019 1.5616 7.1227 4.8745 0.41727 2.2267-0.43329 4.5014-2.2092 5.9081" style="fill:none;stroke-width:.987;stroke:#713F2A"/>
  <path d="m362.88 383.51c0.46423-3.1251 3.3739-5.2821 6.499-4.8179 2.8601 0.4249 4.9535 2.9173 4.878 5.8079 0.0048523 1.5183-0.57324 2.9805-1.615 4.085" style="fill:none;stroke-width:.987;stroke:#713F2A"/>
  <path d="m374.02 383.2c6.0734-4.5529 9.6687-11.684 9.718-19.274 0.036011-6.474-2.565-13.061-5.597-15.627" style="fill:none;stroke-width:.987;stroke:#713F2A"/>
  <path d="m382.29 380.33c-2.3755 3.8842-5.7357 7.0712-9.74 9.238" style="fill:none;stroke-linecap:round;stroke-width:.987;stroke:#713F2A"/>
  <path d="m397.81 402.63c-1.449-3.409-4.329-4.985-9.019-5.486-4.662-0.49701-8.698 0.784-12.828 3.005-8.06 4.335-12.554 8.995-15.55 17.641-0.94473 2.9109-1.3854 5.9617-1.303 9.021 0.14001 5.604 1.563 11.73 3.091 14.692 1.334 2.584 4.82 13.994 23.946 21.868 11.161 4.595 28.3 5.654 40.118 6.12 16.256 0.642 31.255 1.245 39.962 11.973" style="fill:none;stroke-width:.987;stroke:#713F2A"/>
  <path d="m374.5 406.05c5.12-3.359 14.838-7.761 23.624-3.428 3.259 1.608 5.442 3.597 6.675 6.84 1.7427 5.1281 0.6861 10.794-2.788 14.949-1.321 1.4-4.2 4.074-7.775 4.12-5.908 0.07901-7.313-4.056-7.463-4.975-0.70001-4.276 1.788-5.987 3.11-6.453 1.014-0.358 4.312-0.26599 5.011 2.065 0.30133 1.0529 0.1767 2.1821-0.34698 3.144" style="fill:none;stroke-linecap:round;stroke-width:.987;stroke:#713F2A"/>
  <path d="m394.86 421.45c0.54431-1.8473 0.037842-3.8444-1.321-5.209-2.4492-2.3708-6.1302-2.9325-9.175-1.4-1.549 0.7789-2.9038 1.8949-3.965 3.266-0.50201 0.66501-1.35 1.739-1.788 2.488-0.70877 1.2293-1.2802 2.5328-1.704 3.887-3.845 10.928 2.413 22.532 10.256 27.522 6.842 4.354 13.84 5.598 22.47 6.375 3.993 0.35999 6.256 0.43701 10.263 0.62299 3.223 0.14899 6.008 0.096008 8.63 0.063995 2.157-0.027008 4.204-0.015991 6.296-0.063995 3.7582-0.14029 7.5211-0.088562 11.274 0.155 4.55 0.33099 7.973 0.448 11.818 1.089 2.512 0.418 5.456 0.82199 8.543 1.515 0.92599 0.207 1.865 0.37701 2.808 0.66101 0.63501 0.19199 1.26 0.38599 1.882 0.57501 5.3535 1.484 10.485 3.6772 15.257 6.521 1.3796 0.77075 2.6785 1.6779 3.877 2.708 0.79599 0.79501 1.472 1.256 2.123 1.898 2.99 2.941 6.048 6.126 6.763 10.438 0.11194 0.83069 0.1561 1.6691 0.13199 2.507 0 2.798-2.278 6.608-8.42 7.852" style="fill:none;stroke-width:.987;stroke:#713F2A"/>
  <path d="m466.62 488.16c-1.633 3.343 0.224 5.024 2.488 5.287 3.343 0.388 5.131-2.255 5.364-4.665 0.28708-3.7812-2.5454-7.0792-6.3267-7.3663-0.17148-0.013031-0.34338-0.019592-0.51535-0.019714-3.4467 0.11975-6.495 2.2701-7.764 5.477-0.47803 1.1764-0.74478 2.4279-0.78799 3.697-0.12482 2.3644 0.67206 4.685 2.223 6.474 2.1603 2.3905 5.2079 3.7883 8.429 3.866 6.6 0.26501 11.74-5.908 11.74-12.206 0-12.05-17.873-18.623-24.957-20.314-8.708-2.077-14.006-2.855-27.99-3.632-5.597-0.311-9.697-0.15302-15.86-0.79199-4.7387-0.3652-9.4431-1.0879-14.073-2.162-7.2889-1.5461-14.045-4.9777-19.592-9.952-4.55-4.131-7.153-7.075-9.26-12.75-1.817-4.898-2.652-14.596 1.951-21.77 3.5174-5.7844 9.4619-9.6678 16.172-10.565 5.83-0.84299 10.942 1.672 13.995 7.456 1.478 2.8 1.022 7.48-0.14801 9.64-1.5588 2.7015-4.3594 4.4506-7.471 4.666-5.909 0.078003-7.313-4.057-7.464-4.976-0.70001-4.276 1.788-5.987 3.11-6.453 1.014-0.358 4.312-0.26599 5.012 2.065 0.30081 1.053 0.17621 2.182-0.34698 3.144" style="fill:none;stroke-width:.987;stroke:#713F2A"/>
  <path d="m426.97 212.58c-0.18164-0.27045-0.36395-0.54045-0.547-0.81-2.644-3.887-7.312-4.911-10.73-2.332-4.12 3.11-5.16 8.402-4.042 13.994 0.86447 3.5808 3.1471 6.6564 6.324 8.521" style="fill:none;stroke-linecap:round;stroke-width:.987;stroke:#713F2A"/>
  <path d="m573.04 224.37c-6.298 6.842-12.595 9.026-22.003 9.33-2.938 0.095001-8.552-0.933-11.818-3.258-2.098-1.494-4.432-4.05-2.954-8.482 0.987-2.962 5.746-11.273 5.98-17.027 0.35498-8.79-3.026-13.606-8.313-15.472-9.774-3.45-20.267 6.211-26.589 8.319-2.5655 0.92184-5.2838 1.3438-8.008 1.243-2.7438 0.10155-5.4819-0.3203-8.068-1.243-6.323-2.108-16.816-11.77-26.59-8.32-5.287 1.867-8.668 6.683-8.312 15.473 0.23401 5.753 4.992 14.064 5.98 17.027 1.477 4.431-0.85699 6.988-2.955 8.481-3.265 2.326-8.88 3.353-11.818 3.259-9.407-0.304-15.705-2.488-22.003-9.33" style="fill:none;stroke-width:.987;stroke:#713F2A"/>
  <path d="m464.58 466.27c1.246 0.487 0.30301-0.29501 8.195 3.203 7.576 3.359 12.954 6.3 17.663 13.736 1.2667 2.3374 1.9094 4.9618 1.866 7.62-0.0032349 1.2938-0.15729 2.5829-0.45901 3.841" style="fill:none;stroke-linecap:round;stroke-width:.987;stroke:#713F2A"/>
  <path d="m465.09 500.06c1.5836 0.78375 3.3153 1.2234 5.081 1.29 6.6 0.26401 11.74-5.91 11.74-12.207 0-4.366-2.377-8.044-5.706-11" style="fill:none;stroke-width:.987;stroke:#713F2A"/>
  <path d="m466.52 488.15c-1.594 3.553 0.677 5.475 2.94 5.738 2.6951 0.30469 5.1269-1.6331 5.4316-4.3282 0.012665-0.11194 0.021454-0.22427 0.026398-0.33682 0.20706-2.6048-1.0578-5.1071-3.278-6.485" style="fill:none;stroke-linecap:round;stroke-width:.987;stroke:#713F2A"/>
  <path d="m609.53 216.87c5.018 0 9.394 5.585 9.394 11.317 0 6.605-3.513 10.648-6.087 13.705-2.072 2.46-4.316 4.663-6.982 7.348" style="fill:none;stroke-width:.987;stroke:#713F2A"/>
  <path d="m603.58 211.58c1.7682 0.85522 3.2706 2.1754 4.346 3.819 2.099 3.11 2.633 5.712 2.487 9.563-0.24902 6.6-4.998 11.17-9.246 13.959m-7.457-27.341c0.3606 0.30997 0.69507 0.64911 1 1.014 2.877 3.421 3.1 8.478 2.41 11.281-1.035 4.213-2.427 6.029-5.846 8.549m-7.914-22.574c4.12 3.11 5.346 8.489 3.98 14.026-0.97498 3.957-3.463 6.328-6.565 8.217m17.385 64.187c0.49298 1.447 1.306 1.949 2.332 3.022 2.6609 2.658 5.9828 4.558 9.623 5.504 3.3339 0.97949 6.9278 0.48172 9.87-1.367m-254.69 84.431c1.937-0.035004 3.869 1.273 5.133 3.468 0.40558 0.73895 0.62137 1.5671 0.62799 2.41 0.037964 1.3367-0.55142 2.6143-1.593 3.453-2.245 1.43-6.232 0.815-6.065-3.15" style="fill:none;stroke-linecap:round;stroke-width:.987;stroke:#713F2A"/>
  <path d="m377.33 336.4c7.703 1.438 15.119 10.729 17.546 20.865 1.4264 6.1775 1.5612 12.583 0.396 18.815-1.2968 6.6212-4.4775 12.727-9.16 17.585-1.0247 1.0442-2.1364 1.9993-3.323 2.855l-1.643 1.113m-12.386-18.963c3.164 0 5.934 3.032 5.934 6.273 0.0048523 1.5183-0.57324 2.9805-1.615 4.085" style="fill:none;stroke-width:.987;stroke:#713F2A"/>
  <path d="m366.62 382.35c3.5072 0.20618 6.2879 3.0357 6.433 6.546 0.0017395 1.8658-0.85175 3.6296-2.316 4.786" style="fill:none;stroke-width:.987;stroke:#713F2A"/>
  <path d="m396.84 349.2c3.027 4.063 5.025 7.561 5.954 12.07m-0.104 13.26c-0.48846 2.1934-1.249 4.3172-2.264 6.322-1.4391 2.7066-3.315 5.1572-5.552 7.253" style="fill:none;stroke-linecap:round;stroke-width:.987;stroke:#713F2A"/>
  <path d="m397.32 325.52c2.5979 1.8244 4.5294 4.4468 5.501 7.469" style="fill:none;stroke-width:.987;stroke:#713F2A"/>
  <path d="m402.9 317.92c-0.767 2.66-2.506 4.674-5.266 7.193m-14.304-26.843 3.369-0.88599 1.994-1.508 1.285-1.817 1.108-2.837 0.444-2.305" style="fill:none;stroke-linecap:round;stroke-width:.987;stroke:#713F2A"/>
  <path d="m376.51 286.41c-1.316 0.31537-2.5971 0.76193-3.824 1.333-2.2017 1.0211-4.0994 2.5982-5.506 4.576-1.856 2.63-2.938 6.286-3.608 9.484-0.50394 3.4594-0.41873 6.9791 0.25201 10.41 0.61633 3.1419 1.8395 6.1334 3.601 8.807 0.47482 0.74417 1.0175 1.4428 1.621 2.087 2.022 2.021 3.888 3.265 6.997 2.643" style="fill:none;stroke-width:.987;stroke:#713F2A"/>
  <path d="m395.38 271.58c-0.54599 2.007-1.625 4.493-4.774 4.221" style="fill:none;stroke-linecap:round;stroke-width:.987;stroke:#713F2A"/>
  <path d="m383.87 285.2c-3.024-2.956-9.43-3.726-15.798 0.302-0.85471 0.56699-1.6724 1.1879-2.448 1.859-0.84769 0.73322-1.6032 1.5667-2.25 2.482-0.82529 1.2078-1.5548 2.4784-2.182 3.8-0.64493 1.3211-1.1394 2.7105-1.474 4.142-0.84631 3.1858-1.1905 6.4841-1.02 9.776 0.17599 1.513 0.32001 2.903 0.56699 4.182 0.57779 3.399 1.7544 6.6683 3.475 9.656 1.407 2.333 4.906 7.69 12.058 8.397 2.811 0.27802 7.612-1.01 7.768-4.665" style="fill:none;stroke-width:.987;stroke:#713F2A"/>
  <path d="m568.38 220.42c0.47803-2.581 3.59-3.08 4.758-1.555 1.8 2.348 0.60999 6.382-3.051 7.526-2.2498 0.50853-4.5894-0.34219-5.987-2.177-2.1719-3.0475-1.462-7.2785 1.5854-9.4504 0.09198-0.065521 0.18555-0.12874 0.28064-0.18959 4.251-3.234 11.118-2.488 13.372 2.954 2.909 7.02-3.42 12.284-9.252 16.249-7.34 4.992-15.705 5.9-22.003 5.831-14.306-0.15601-25.19-6.997-32.265-10.884-1.648-0.90601-3.345-0.72-4.198 0.31-1.0303 1.3017-0.85925 3.1826 0.38898 4.277" style="fill:none;stroke-linecap:round;stroke-width:.987;stroke:#713F2A"/>
  <path d="m571.26 218c0.96863-0.050888 1.8864 0.43625 2.387 1.267 1.8 2.348 0.48499 6.383-3.176 7.526m27.869 80.537c-5.45 5.933-0.43701 16.116 3.636 18.418 1.41 1.097 2.013 0.51501 3.14 1.175" style="fill:none;stroke-linecap:round;stroke-width:.987;stroke:#713F2A"/>
  <path d="m598.63 295.99c-1.788 1.244-2.418 2.642-2.488 5.07-0.18469 2.308 0.6156 4.5864 2.203 6.272 2.972 3.092 8.786 5.784 14.42 5.855 3.3497 0.097473 6.6454-0.85956 9.422-2.736 2.9805-1.9466 5.1182-4.9448 5.987-8.397m-32.594 96.546c-0.0042114 1.2984-0.074951 2.5958-0.21198 3.887-0.90649 7.4881-4.3657 14.435-9.795 19.671-2.6194 2.6606-5.7022 4.8209-9.097 6.375-3.2426 1.6182-6.6979 2.7696-10.263 3.42-3.5214 0.80997-7.1172 1.253-10.73 1.322-3.305 0.13531-6.6153 0.050476-9.909-0.254-4.127-0.28601-6.417-0.85999-10.538-1.223-2.9024-0.34183-5.8207-0.53076-8.743-0.56601-3.0084-0.087769-6.0179 0.12799-8.983 0.64401-2.7774 0.41806-5.4931 1.1754-8.086 2.255-4.198 1.7-8.941 4.664-9.952 5.986-1.01-1.322-5.754-4.286-9.952-5.986-2.5928-1.079-5.308-1.8363-8.085-2.255-2.9654-0.51602-5.9753-0.73178-8.984-0.64401-2.9223 0.03421-5.8407 0.22314-8.743 0.56601-4.121 0.362-6.41 0.93701-10.538 1.223-3.294 0.30551-6.6047 0.39035-9.91 0.254-3.6119-0.069733-7.207-0.51242-10.728-1.321-3.5652-0.65073-7.0204-1.8025-10.263-3.421-3.3951-1.5535-6.478-3.7139-9.097-6.375-5.4291-5.2362-8.8885-12.183-9.796-19.671-0.13705-1.2912-0.20779-2.5886-0.21201-3.887v-159.02h192.55v159.02h0.065979-6.09e-5z" style="fill:none;stroke-width:.987;stroke:#713F2A"/>
  <path d="m387.41 421.32c-0.0023804-2.1578 1.7449-3.9089 3.9027-3.9113 2.1578-0.0023499 3.9089 1.7449 3.9113 3.9027v0.008606c-0.0023804 2.1578-1.7535 3.9051-3.9113 3.9027-2.1544-0.0023805-3.9003-1.7483-3.9027-3.9027zm-23.99-27.61c0-1.932 1.236-3.499 2.76-3.499s2.76 1.567 2.76 3.499-1.236 3.499-2.76 3.499-2.76-1.567-2.76-3.499v3.05e-5z" style="fill:#C6AA76;stroke-width:.513;stroke:#C7B37F"/>
  <path d="m377.05 324.36c0.11072-1.4718 1.3936-2.5753 2.8654-2.4645 1.4719 0.11069 2.5753 1.3936 2.4646 2.8654-0.10489 1.3943-1.2668 2.4721-2.665 2.4721-1.5284-0.059387-2.7204-1.3445-2.665-2.873zm47.86-102.55c0.084869-1.371 1.2651-2.4135 2.636-2.3287 1.371 0.084885 2.4135 1.2651 2.3287 2.636-0.075012 1.2115-1.0136 2.1919-2.2207 2.3196-1.4799 0.024017-2.7035-1.1474-2.744-2.627l-3.06e-5 -1.54e-5z" style="fill:#C6AA76"/>
  <path d="m373.92 340.54c-0.9859 0.4108-1.7592 1.2094-2.138 2.208-0.21918 0.5968-0.3476 1.2231-0.38101 1.858m7.369 41.794c0.543-0.65799 0.87-1.012 1.391-1.687 0.38373-0.47043 0.74191-0.96112 1.073-1.47 0.34399-0.539 0.49799-0.867 0.80099-1.43 0.42801-0.79401 0.64001-1.257 1.05-2.06m-1.975 21.777c-0.92499 0.42499-1.472 0.612-2.371 1.088-0.68399 0.36301-1.055 0.59399-1.71 1.003-0.77499 0.48401-1.208 0.767-1.945 1.307-0.767 0.56201-1.161 0.92999-1.904 1.523m23.38-59.201c-0.5-0.51501-0.772-0.81699-1.283-1.321-0.534-0.52802-0.82501-0.83899-1.4-1.322-0.556-0.46899-0.91-0.68301-1.492-1.12" style="fill:none;stroke-linecap:round;stroke-width:.987;stroke:#C7B37F"/>
  <path d="m397.17 326.47c-0.61813 0.31912-1.2542 0.60223-1.905 0.84799-0.75125 0.27771-1.5402 0.44022-2.34 0.48199" style="fill:none;stroke-width:.987;stroke:#C7B37F"/>
  <path d="m371 300.68c0.17279 0.78693 0.39084 1.5632 0.65302 2.325 0.36905 0.94543 0.85483 1.841 1.446 2.666 0.56128 0.89664 1.2295 1.7217 1.99 2.457 0.65527 0.65839 1.3833 1.2401 2.17 1.734 0.75281 0.45486 1.5289 0.87009 2.325 1.244m-1.544-9.156c0.62762 0.38406 1.2767 0.73196 1.944 1.042 0.61368 0.26086 1.2514 0.46115 1.904 0.59799 0.87863 0.21185 1.7792 0.31924 2.683 0.32001 0.97787 0.040314 1.957-0.038269 2.916-0.23401m11.203-63.526c-1.246-0.728-2.008-1.046-3.196-1.866-1.0501-0.69209-2.0292-1.4863-2.923-2.371-0.66516-0.61629-1.2715-1.2932-1.811-2.022-0.56299-0.75999-0.77802-1.257-1.275-2.06m11.715-7.111c0.27832 0.91396 0.61328 1.8097 1.003 2.682 0.56644 1.1746 1.3173 2.2509 2.224 3.188 1.414 1.552 2.613 1.992 4.283 3.265m2.27-9.245c0.28015 0.82365 0.61249 1.6286 0.995 2.41 0.36383 0.6795 0.79932 1.3181 1.299 1.905 0.60834 0.77391 1.3138 1.4663 2.099 2.06 0.93448 0.6561 1.9169 1.2411 2.939 1.75" style="fill:none;stroke-linecap:round;stroke-width:.987;stroke:#C7B37F"/>
  <path d="m520.78 211.91c-0.080017-2.649-2.69-2.924-3.69-2.924-2.885 0-3.666 1.8-7.265 3.732-4.512 2.424-6.455 2.962-10.466 2.998-4.01-0.035996-6.005-0.575-10.517-2.998-3.6-1.932-4.205-3.674-7.091-3.674-2.0086 0.066605-3.5829 1.7489-3.5162 3.7574 8.24e-4 0.024872 0.0018921 0.049744 0.0032349 0.074585-0.015991 0.45102 0.015167 0.90247 0.092987 1.347 0.046997 0.20399 0.29599 0.14 0.37399 0.32001-0.08783-0.9485 0.19934-1.8937 0.79999-2.633 0.61386-0.78813 1.5421-1.2679 2.54-1.313 2.885 0 3.953 1.851 7.553 3.784 4.512 2.423 6.453 2.962 10.464 2.998 4.01-0.035996 6.007-0.575 10.519-2.998 3.6-1.933 4.634-3.938 7.52-3.938 0.98157 0.018265 1.8222 0.70795 2.032 1.667 0.10321 0.42299 0.15033 0.85773 0.14001 1.293 0.026001 0.121 0.17401 0.10899 0.20697 0.24001 0.22473-0.549 0.32715-1.1404 0.29999-1.733l6.1e-5 -1.53e-5z" style="fill:#713F2A;stroke-width:.277;stroke:#713F2A"/>
  <path d="m413.12 434.42c0.81-0.87201 1.423-0.54401 1.573-0.94601 0.10999-0.297-0.13-0.327-0.45999-0.45001-0.44-0.16501-0.90601-0.26001-1.346-0.42401-0.457-0.17001-0.87-0.405-1.327-0.57599-0.189-0.070007-0.625-0.293-0.75 0.040008-0.228 0.60999 1.602 0.55801 0.98801 2.2-0.29712 0.70276-0.73004 1.3399-1.274 1.875l-4.141 4.507c-0.092987 0.104-0.24799 0.32599-0.34201 0.29001-0.095001-0.035004-0.082001-0.30899-0.083008-0.45001l0.059998-6.39c-0.038391-0.88913 0.063873-1.7787 0.30301-2.636 0.27499-0.73401 1.12-0.11899 1.297-0.59 0.11099-0.298 0.026001-0.31-0.47699-0.49799-0.25201-0.093994-0.73401-0.19501-1.74-0.57101-0.53601-0.20001-1.044-0.47-1.563-0.664-0.23599-0.088013-0.672-0.41-0.828 0.01001-0.04599 0.12299 0.11899 0.30399 0.16 0.33899 0.52365 0.29398 0.81641 0.87634 0.73999 1.472l0.11401 11.635c0.0090027 0.84 0.10001 1.073 0.258 1.132 0.173 0.065002 0.29001-0.010986 0.633-0.39999l8.205-8.904-3.07e-5 -9.767e-4z" style="fill:#713F2A"/>
  <path d="m417.95 436.22c0.53299-1.69 1.532-0.67099 1.723-1.276 0.066986-0.21399-0.0010071-0.27499-0.48199-0.42599-0.91299-0.28799-1.512-0.39801-2.088-0.57999-0.56-0.177-1.163-0.44501-1.788-0.642-0.14401-0.04599-0.52701-0.22501-0.62299 0.076996-0.19601 0.62299 1.77 0.69501 1.26 2.314l-2.693 8.542c-0.53299 1.69-1.54 0.86401-1.736 1.486-0.028015 0.089996-0.036011 0.224 0.10901 0.26999 0.41599 0.13101 1.127 0.27701 1.816 0.49399 1.249 0.39401 1.819 0.65201 2.412 0.83899 0.36801 0.116 0.534 0.089996 0.59601-0.10599 0.17999-0.57001-1.872-0.31601-1.182-2.505l2.676-8.487-3.06e-5 3.06e-5zm5.78 1.71c0.31799-1.073 0.81699-0.92599 1.413-0.75 1.626 0.483 2.135 2.073 1.616 3.827-0.31299 1.055-0.70599 2.028-3.153 1.303-0.483-0.14301-1.079-0.32001-0.94601-0.76599l1.07-3.614h3.05e-5zm-4.434 7.696c-0.66699 2.254-1.797 1.278-1.966 1.85-0.10599 0.358 0.24799 0.40399 0.42499 0.457 0.80499 0.23801 1.631 0.405 2.5 0.66299 0.677 0.20001 1.09 0.39999 1.364 0.48099 0.37 0.10999 0.53 0.040008 0.57901-0.12 0.19-0.64401-1.621-0.383-1.054-2.297l0.91699-3.095c0.185-0.62601 0.12601-0.78 0.979-0.52701 0.80499 0.23801 1.047 0.48499 1.184 1.382l0.51501 3.227c0.19199 1.186 0.37399 2.465 1.645 2.842 0.64401 0.19 1.824 0.112 1.988-0.44299 0.046112-0.12845-0.02066-0.26996-0.14911-0.31607-0.0062256-0.0022278-0.012512-0.0041809-0.01889-0.0059204-0.16-0.048004-0.353 0.010986-0.51401-0.036011-0.24127-0.040924-0.43552-0.22064-0.495-0.45801-0.491-2.597-1.092-5.596-1.06-5.704 0.053009-0.17899 0.56799-0.20099 1.156-0.47501 0.79755-0.38232 1.3828-1.1007 1.596-1.959 0.24399-0.823 0.67001-3.44-2.856-4.485-1.08-0.32001-2.195-0.57199-3.274-0.892-1.014-0.29999-1.122-0.41-1.862-0.63-0.19299-0.056-0.38101-0.015015-0.43399 0.164-0.19 0.64401 1.76 0.50201 1.167 2.505l-2.332 7.872-6.11e-5 3.07e-5zm13.164 3.854c-0.51801 2.159-2.154 0.845-2.324 1.552-0.096008 0.39999 0.186 0.448 0.48001 0.51901 0.65302 0.15601 1.21 0.21301 2.303 0.47601 1.094 0.263 1.615 0.465 2.269 0.62201 0.47299 0.11301 0.78699 0.246 0.89099-0.19 0.12201-0.50699-2.094-0.483-1.558-2.715l1.968-8.2c0.20999-0.87 0.39499-0.922 1.064-0.76099l1.388 0.33301c1.895 0.37799 0.88901 2.267 1.542 2.423 0.42499 0.10199 0.41501-0.64801 0.435-0.87399l0.22-1.712c0.028015-0.185 0.088989-0.44-0.15601-0.49799-1.518-0.36499-2.63-0.55499-5.014-1.127-2.384-0.573-3.46-0.90799-4.978-1.272-0.245-0.059998-0.306 0.19501-0.366 0.37201l-0.836 2.332c-0.089996 0.228-0.28299 0.604 0.059998 0.686 0.73401 0.17599 0.815-2.318 2.66-1.875l1.372 0.32999c0.66901 0.16 0.81 0.29001 0.60101 1.161l-2.02 8.418-0.0010074-6.13e-5zm19.84-5.06c0.646-1 1.306-0.78201 1.385-1.204 0.057007-0.31201-0.18399-0.29999-0.53-0.36401-0.46301-0.085998-0.939-0.097992-1.401-0.18399-0.479-0.088989-0.92801-0.24799-1.406-0.33701-0.198-0.036987-0.66699-0.17999-0.73199 0.168-0.11899 0.64301 1.675 0.27301 1.355 1.997-0.16983 0.74387-0.48596 1.4465-0.92999 2.067l-3.295 5.158c-0.072998 0.11899-0.18701 0.36401-0.28601 0.345-0.10001-0.018005-0.134-0.29001-0.16-0.42801l-1.052-6.305c-0.19095-0.86896-0.24426-1.7625-0.15799-2.648 0.14301-0.76999 1.083-0.311 1.175-0.80701 0.057007-0.31201-0.028992-0.30899-0.55701-0.40701-0.26401-0.049011-0.75601-0.063995-1.813-0.26001-0.561-0.104-1.11-0.28101-1.654-0.38199-0.24799-0.04599-0.73199-0.28799-0.814 0.15201-0.023987 0.129 0.17001 0.27899 0.21701 0.306 0.5661 0.19931 0.95511 0.72156 0.98401 1.321l2.132 11.44c0.155 0.82501 0.28601 1.039 0.45099 1.07 0.18201 0.033997 0.285-0.061005 0.55499-0.505l6.534-10.193h3.05e-5zm0.92999 10.51c0.0090027 0.45599-0.032013 0.60001 0.36301 0.78 0.84848 0.49643 1.7563 0.88351 2.702 1.152 2.169 0.362 3.967-1.02 4.37-3.43 0.39099-2.338-0.57001-3.312-2.197-4.473-2.037-1.457-2.908-1.85-2.702-3.082 0.059112-0.97827 0.90009-1.7234 1.8784-1.6643 0.095459 0.0057678 0.19031 0.019257 0.2836 0.040314 2.849 0.47601 2.524 3.94 2.905 4.004 0.36401 0.061005 0.45001-0.151 0.48599-0.56201l0.23001-2.496c0.037994-0.42899 0.134-0.69699-0.11499-0.73801-0.215-0.036011-0.67899 0.19-0.89401 0.15302-0.496-0.083008-1.072-0.91699-2.43-1.144-1.938-0.32501-3.521 1-3.875 3.116-0.32401 1.932 0.53299 2.813 1.84 3.75 2.448 1.753 3.452 2.167 3.19 3.731-0.11838 1.2283-1.2101 2.1281-2.4384 2.0097-0.081116-0.0078125-0.16177-0.020081-0.24158-0.036713-1.838-0.30801-2.585-2.154-2.82-4.01-0.024994-0.25-0.029999-0.42001-0.29599-0.465-0.414-0.069-0.33701 0.492-0.32999 0.758l0.091003 2.607-3.05e-5 3.05e-5zm24.72-6.97c0.53799-1.062 1.217-0.91501 1.251-1.343 0.024994-0.31601-0.21399-0.27899-0.56601-0.306-0.46799-0.036987-0.94299 0-1.412-0.036011-0.48499-0.037994-0.948-0.14999-1.433-0.18799-0.20099-0.015991-0.68201-0.10999-0.70999 0.24301-0.050995 0.651 1.694 0.096008 1.556 1.845-0.091461 0.75708-0.33209 1.4885-0.70801 2.152l-2.739 5.474c-0.059998 0.12601-0.14801 0.38101-0.24799 0.37399-0.10001-0.01001-0.164-0.27499-0.20401-0.41l-1.704-6.16c-0.28162-0.84406-0.42841-1.7272-0.435-2.617 0.062012-0.78 1.044-0.423 1.084-0.92499 0.023987-0.31601-0.059998-0.30399-0.59601-0.34601-0.26801-0.019989-0.76001 0.015991-1.83-0.070007-0.57001-0.044006-1.133-0.16299-1.685-0.207-0.25101-0.019989-0.759-0.20999-0.79401 0.237-0.010986 0.13 0.19901 0.26001 0.24701 0.28201 0.58426 0.13809 1.0264 0.61667 1.118 1.21l3.316 11.154c0.23999 0.80499 0.39301 1.004 0.56 1.017 0.18399 0.014008 0.27701-0.091003 0.49899-0.56l5.433-10.82h-3.06e-5z" style="fill:#713F2A"/>
  <path d="m480.6 457c-0.015991 1.903-1.626 1.553-1.632 2.3-0.0020142 0.31699 0.33401 0.22601 0.51901 0.228 0.453 0 0.90701-0.066986 1.444-0.062012 0.58801 0.01001 1.158 0.084992 1.98 0.09201 0.22 0 0.63901 0.023987 0.64001-0.237 0.0079956-0.87701-2.152 0.37299-2.12-3.21l0.054993-6.342c0-0.168 0.036011-0.29901 0.13699-0.298 0.084015 0 0.18301 0.095001 0.29999 0.245l7.992 9.772c0.084564 0.16177 0.25146 0.2637 0.43399 0.26501 0.202 0 0.203-0.147 0.20599-0.55801l0.09201-10.466c0.015015-1.958 1.44-1.498 1.445-2.058 0-0.056 0.0020142-0.24301-0.31699-0.245-0.14999 0-0.73999 0.067993-1.797 0.05899-1.159-0.010986-1.645-0.089996-1.914-0.091003-0.21799 0-0.26999 0.18399-0.271 0.314-0.0050049 0.616 2.046 0.298 2.03 1.996l-0.053009 6.213c-0.0050049 0.466-0.040008 0.69-0.14001 0.689-0.10101-0.0010071-0.29999-0.22699-0.517-0.48999l-6.678-8.286c-0.29999-0.358-0.096985-0.48599-0.634-0.491-0.89001-0.01001-1.327 0.062988-1.764 0.05899-0.319 0-0.62-0.079987-0.94-0.083008-0.15576-0.004303-0.28552 0.11844-0.28983 0.2742-3.662e-4 0.013641 2.441e-4 0.027252 0.0018311 0.040802-0.0090027 0.89499 1.884-0.30099 1.852 3.281l-0.061005 7.09v-9.462e-4zm16.26-8.4c0.015991-1.772 1.27-1.09 1.274-1.724 0.0020142-0.224-0.079987-0.26199-0.58499-0.267-0.957-0.01001-1.562 0.061005-2.166 0.056-0.58801 0-1.242-0.085998-1.897-0.089996-0.151-0.0020142-0.57001-0.062012-0.573 0.25601-0.0050049 0.65302 1.802 0.147 1.788 1.845l0.015015 8.955c-0.015015 1.772-1.22 1.277-1.225 1.93-0.0010071 0.092987 0.031006 0.224 0.18201 0.22501 0.43701 0.01001 1.16-0.063995 1.882-0.058014 1.31 0.010986 1.93 0.091003 2.55 0.096985 0.38699 0 0.539-0.070007 0.54001-0.27499 0.006012-0.59698-1.882 0.245-1.862-2.05l0.076996-8.9zm7.04 8.67c0.019989 2.22-1.886 1.341-1.88 2.069 0.006012 0.41 0.29001 0.39001 0.59201 0.38599 0.67099-0.01001 1.225-0.084992 2.35-0.095001s1.68 0.059998 2.351 0.053986c0.487 0 0.82401 0.049988 0.82001-0.39899-0.0050049-0.522-2.15 0.036987-2.17-2.257l-0.072998-8.433c-0.0069885-0.89499 0.16-0.98999 0.84799-0.996l1.427-0.010986c1.93-0.091003 1.411 1.984 2.083 1.978 0.436 0 0.245-0.73001 0.20999-0.953l-0.20001-1.715c-0.018005-0.18701-0.019989-0.448-0.27301-0.44601-1.561 0.014008-2.686 0.097992-5.137 0.12-2.452 0.019989-3.577-0.044006-5.139-0.029999-0.25201 0-0.25 0.263-0.26501 0.45001l-0.24701 2.465c-0.031006 0.24301-0.12799 0.65399 0.224 0.651 0.75601-0.01001 0.23099-2.446 2.128-2.462l1.41-0.014008c0.69-0.01001 0.858 0.085998 0.866 0.98001l0.075012 8.658 3.05e-5 3.05e-5zm9.78-3.53c-0.30103 0.023987-0.534 0.061005-0.54901-0.125-0.0013428-0.24042 0.042786-0.47894 0.13-0.703l1.03-3.393c0.067017-0.21201 0.133-0.23599 0.16602-0.23801 0.083984-0.01001 0.033997 0 0.146 0.138l1.638 3.259c0.12067 0.20752 0.20136 0.43579 0.23798 0.673 0.013 0.186-0.22101 0.186-0.52301 0.20999l-2.276 0.17899v3.04e-5zm2.874 0.784c0.43597-0.033997 0.534 0.146 1.2 1.553 0.20764 0.37912 0.34332 0.79346 0.40002 1.222 0.090027 1.135-1.115 1.024-1.073 1.563 0.02002 0.26001 0.23602 0.20599 0.53699 0.18301 0.48499-0.037994 1.099-0.16199 1.835-0.22 1.105-0.087006 1.563-0.048004 2.166-0.096008 0.45203-0.035004 0.60498-0.01001 0.58002-0.32599-0.047974-0.61401-0.89502 0.18301-1.535-1.096l-5.415-11.028c-0.26202-0.54001-0.29797-0.57501-0.44897-0.56299-0.21698 0.018005-0.27301 0.37701-0.367 0.68399l-3.651 11.61c-0.336 1.074-1.199 1.03-1.165 1.458 0.019989 0.242 0.284 0.18301 0.51801 0.16501 0.48499-0.037994 0.965-0.151 1.467-0.19 0.53601-0.042999 1.044-0.01001 1.58-0.049988 0.35101-0.028015 0.88 0.062012 0.84998-0.32901-0.039978-0.50201-1.824-0.062012-1.93-1.401 0.013245-0.50714 0.09259-1.0104 0.23602-1.497 0.28802-1.258 0.63397-1.36 0.91901-1.382l3.298-0.26001-0.0011597 3.05e-5zm12.976-7.734c-0.16803-1.276-0.104-1.304 1.91-1.569 3.213-0.423 2.2 1.912 2.982 1.81 0.383-0.049988 0.21997-0.64999 0.17102-0.88901l-0.30701-1.822c-0.017761-0.18829-0.18481-0.32651-0.37311-0.30875-0.0023193 2.136e-4 -0.0045776 4.578e-4 -0.006897 7.324e-4 -1.465 0.19299-2.604 0.418-3.786 0.57401-2.547 0.33499-3.755 0.41901-4.438 0.509-0.18335 0.0030518-0.32947 0.15414-0.32642 0.33749 1.221e-4 0.0085144 6.104e-4 0.017029 0.0014038 0.025513 0.098022 0.73999 1.901-0.10001 2.12 1.564l1.14 8.658c0.297 2.256-1.1 1.424-0.98798 2.275 0.015991 0.11099 0.12701 0.19 0.34302 0.16199 0.91602-0.12 1.606-0.28699 2.122-0.35501 0.73199-0.096985 1.358-0.103 1.99-0.186 0.41699-0.054993 0.776-0.027008 0.72699-0.397-0.065002-0.5-1.885 0.20999-2.156-1.843l-0.35999-2.738c-0.14203-1.073-0.237-1.286 0.52802-1.387l1.232-0.16199c1.732-0.228 1.524 1.795 2.056 1.724 0.40002-0.053009 0.21198-0.70499 0.164-0.94299l-0.54999-3.277c-0.08197-0.49799-0.26001-0.43701-0.37701-0.42099-0.33301 0.044006-0.159 1.752-1.59 1.94l-1.05 0.13901c-0.71503 0.093994-0.73199-0.035004-0.83698-0.83099l-0.34003-2.59h-0.0010372zm6.14 4.24c0.69 3.724 3.378 5.787 6.697 5.172 5.267-0.97601 5.44-5.657 4.965-8.225-0.72101-3.89-3.62-5.8-6.833-5.166-3.939 0.767-5.574 4.201-4.829 8.219h-6.11e-5zm1.837-1.422c-0.49298-2.66-0.13702-5.345 2.643-5.917 2.123-0.431 4.532 1.323 5.283 5.378 0.565 3.045 0.096008 5.675-2.734 6.256-2.945 0.603-4.696-3.039-5.192-5.717zm13.023-6.498c-0.26099-1.089 0.245-1.21 0.849-1.355 1.65-0.396 2.886 0.72699 3.313 2.505 0.25702 1.07 0.40302 2.11-2.08 2.705-0.48999 0.11801-1.093 0.263-1.202-0.19l-0.88-3.665 6.11e-5 3.04e-5zm0.0089722 8.882c0.54901 2.286-0.91699 2.004-0.77802 2.585 0.086975 0.36301 0.41699 0.22601 0.59601 0.18301 0.81702-0.19601 1.616-0.465 2.498-0.67599 0.685-0.16501 1.143-0.198 1.421-0.26501 0.37598-0.089996 0.47998-0.23001 0.44-0.39301-0.15601-0.65399-1.594 0.478-2.06-1.463l-0.75299-3.138c-0.15302-0.63501-0.28101-0.73901 0.58398-0.94699 0.64276-0.26971 1.3853-0.0080566 1.717 0.60501l2.06 2.537c0.758 0.931 1.555 1.949 2.845 1.64 0.65302-0.15799 1.635-0.81601 1.5-1.378-0.024048-0.13416-0.15234-0.22339-0.28644-0.19934-0.0065918 0.0011902-0.013123 0.0026245-0.019592 0.0043335-0.16302 0.039002-0.29999 0.18701-0.46399 0.22601-0.22919 0.084564-0.48669 0.026184-0.65698-0.14899-1.725-2.004-3.744-4.3-3.77-4.41-0.044006-0.181 0.39001-0.45801 0.76398-0.98999 0.5-0.72946 0.64777-1.6442 0.40302-2.494-0.20001-0.83499-1.141-3.314-4.717-2.456-1.094 0.263-2.187 0.60199-3.281 0.86401-1.028 0.24701-1.177 0.20599-1.928 0.38599-0.19598 0.046997-0.33698 0.177-0.29401 0.35901 0.15698 0.65302 1.776-0.44601 2.264 1.586l1.916 7.983 6.1e-5 -6.1e-5zm13.471-3.012c0.55603 2.15-1.505 1.758-1.323 2.462 0.10199 0.39801 0.37402 0.30801 0.66699 0.23199 0.65002-0.168 1.168-0.379 2.257-0.66 1.09-0.28201 1.645-0.349 2.295-0.517 0.47101-0.12201 0.81-0.15201 0.698-0.58499-0.13-0.50601-2.076 0.556-2.65-1.666l-2.112-8.164c-0.224-0.867-0.085022-1 0.58099-1.172l1.382-0.358c1.851-0.55499 1.85 1.584 2.5 1.416 0.422-0.10999 0.060974-0.767-0.026978-0.97601l-0.60901-1.615c-0.062988-0.177-0.12799-0.42999-0.37201-0.367-1.512 0.392-2.582 0.746-4.956 1.36-2.373 0.61301-3.481 0.82199-4.993 1.214-0.24402 0.062988-0.17902 0.31601-0.14801 0.5l0.35602 2.452c0.028992 0.24301 0.033997 0.66599 0.375 0.577 0.73199-0.189-0.36798-2.429 1.469-2.904l1.365-0.353c0.66699-0.172 0.85303-0.12399 1.077 0.74301l2.168 8.381h-6.09e-5zm8.59-11.46c-0.474-1.708 0.91998-1.397 0.75-2.009-0.059998-0.215-0.15002-0.229-0.63599-0.095001-0.92297 0.25601-1.485 0.48999-2.068 0.651-0.56598 0.15701-1.217 0.26001-1.848 0.435-0.146 0.040008-0.565 0.097992-0.47998 0.405 0.17401 0.629 1.863-0.38199 2.316 1.254l2.394 8.63c0.474 1.708-0.82098 1.564-0.64697 2.193 0.025024 0.089996 0.093018 0.207 0.23798 0.16699 0.41998-0.117 1.097-0.38199 1.793-0.57501 1.262-0.35001 1.88-0.444 2.48-0.60999 0.37097-0.103 0.49701-0.215 0.44202-0.41299-0.15997-0.57599-1.742 0.754-2.356-1.458l-2.3781-8.575h6.12e-5zm3.58 4.17c1.202 3.592 4.15 5.261 7.352 4.19 5.08-1.7 4.6-6.36 3.771-8.836-1.255-3.751-4.391-5.24-7.485-4.166-3.793 1.31-4.934 4.937-3.638 8.812v-3.05e-5zm1.621-1.664c-0.85797-2.565-0.87903-5.273 1.794-6.227 2.043-0.72299 4.672 0.67999 5.98 4.59 0.98297 2.937 0.88501 5.606-1.836 6.576-2.8331 1.006-5.074-2.356-5.938-4.939zm11.919-8.466c-0.40997-1.041 0.073975-1.232 0.65198-1.46 1.578-0.62201 2.96 0.31799 3.63 2.02 0.40302 1.024 0.69202 2.033-1.683 2.968-0.46899 0.185-1.047 0.41199-1.218-0.02301l-1.381-3.506v0.0010377zm1.245 8.794c0.86102 2.187-0.63 2.113-0.41101 2.669 0.13599 0.34698 0.44397 0.16599 0.61603 0.097992 0.78101-0.30801 1.535-0.685 2.378-1.017 0.65698-0.259 1.106-0.35501 1.371-0.45999 0.35999-0.142 0.44397-0.29501 0.38202-0.452-0.24597-0.625-1.512 0.69699-2.244-1.16l-1.183-3.004c-0.23999-0.608-0.38-0.69199 0.44702-1.018 0.59863-0.35721 1.3707-0.20142 1.784 0.35999l2.393 2.225c0.88098 0.81601 1.812 1.713 3.046 1.227 0.625-0.246 1.506-1.034 1.294-1.572-0.041931-0.12939-0.18079-0.20029-0.31018-0.15839-0.0067139 0.0021973-0.013367 0.0046387-0.019836 0.0073853-0.15698 0.062012-0.27197 0.22699-0.42798 0.289-0.21539 0.11563-0.4787 0.093689-0.672-0.056-1.986-1.744-4.306-3.738-4.347-3.843-0.067993-0.173 0.323-0.508 0.62-1.085 0.39172-0.79297 0.41003-1.7192 0.049988-2.527-0.31403-0.79999-1.59-3.123-5.012-1.776-1.047 0.41299-2.082 0.89999-3.129 1.313-0.98401 0.388-1.136 0.367-1.855 0.64999-0.18799 0.075012-0.31 0.22198-0.24103 0.396 0.24597 0.625 1.696-0.68799 2.462 1.256l3.009 7.638h6.11e-5z" style="fill:#713F2A"/>
  <path d="m412.66 249.25h82.179v82.023h-82.179v-82.023z" style="fill:#D52B1E"/>
  <path id="a" d="m451.2 313.83c-0.048462 1.7925-0.33603 3.5706-0.85501 5.287-0.93301 2.721-0.94 2.721-1.796 4.043-0.98462 1.5475-2.2825 2.8716-3.81 3.887-1.7335 1.2237-3.8293 1.8262-5.948 1.71-5.49-0.48599-8.038-6.44-9.283-11.273-1.321-5.13-5.073-7.923-7.463-6.064-1.4 1.089-1.479 2.914-0.311 4.665 1.0773 1.2986 2.4975 2.2687 4.099 2.8l-2.933 3.731c-3.8189-0.62967-6.8328-3.5867-7.535-7.393-0.466-2.488 0.742-7.134 4.891-8.522 5.297-1.774 8.686 2.004 10.318 5.191 2.246 4.384 3.21 12.434 9.43 11.19 3.384-0.677 4.976-5.598 4.976-7.852l2.467-2.644 3.654 1.167 0.098999 0.078003 3.05e-5 -9.458e-4z" style="fill:#FFFFFF"/>
  <path id="a-2" d="m456.32 313.83c0.048462 1.7925 0.33603 3.5706 0.85501 5.287 0.93301 2.721 0.94 2.721 1.796 4.043 0.98462 1.5475 2.2825 2.8716 3.81 3.887 1.7335 1.2237 3.8293 1.8262 5.948 1.71 5.49-0.48599 8.038-6.44 9.283-11.273 1.321-5.13 5.073-7.923 7.463-6.064 1.4 1.089 1.479 2.914 0.311 4.665-1.0773 1.2986-2.4975 2.2687-4.099 2.8l2.933 3.731c3.8189-0.62967 6.8328-3.5867 7.535-7.393 0.466-2.488-0.742-7.134-4.891-8.522-5.297-1.774-8.686 2.004-10.318 5.191-2.246 4.384-3.21 12.434-9.43 11.19-3.384-0.677-4.976-5.598-4.976-7.852l-2.467-2.644-3.654 1.167-0.098999 0.078003-3.05e-5 -9.458e-4z" style="fill:#FFFFFF"/>
  <path d="m461.12 278.95 10.76-11.643c0.98767-0.85938 1.5714-2.0923 1.61-3.401l-2.219 0.345-0.49701-1.142-0.10999-1.147 2.981-0.63c0.048004-0.48401 0.0069885-0.85001 0.09201-1.384 0.079987-0.49399 0.19-0.76001 0.311-1.244l-3.265 0.21799c0.16599-0.57101 0.12799-0.875 0.31-1.406 0.11157-0.39093 0.28149-0.76276 0.504-1.103 0.60599-0.091003 1.158-0.228 1.907-0.30399 0.728-0.072998 1.143-0.040008 1.873-0.084992 1.781-3.321 9.19-6.373 14.454-0.90401 3.81 3.958 2.988 11.219-1.95 13.139-2.3037 1.0338-5.0017 0.59735-6.862-1.11l1.97-3.866c2.722 1.625 4.976-0.396 4.821-2.495-0.034454-2.4165-1.9402-4.3905-4.354-4.51-2.254-0.19699-3.872 1.093-4.898 3.11-0.62601 1.231-0.336 2.134-0.54401 3.5-0.076446 1.282-0.25601 2.5558-0.53699 3.809-0.47894 1.3758-1.2935 2.6104-2.37 3.592l-11.03 11.935-42.941 46.445-3.227-2.983 43.211-46.737v0.0010072z" style="fill:#FEDD00"/>
  <path d="m429.51 283.04s2.7 13.372 11.874 33.431c4.665-1.71 7.42-2.8 12.362-2.8 4.943 0 7.697 0.93399 12.362 2.8 9.174-20.059 11.874-33.431 11.874-33.431l-24.236-31.177-24.236 31.177z" style="fill:#FFFFFF"/>
  <path d="m456.12 262.41 16.82 21.637s-2.243 10.52-9.078 26.354c-2.5367-0.65311-5.1233-1.0946-7.733-1.32l-0.0090027-46.67v-0.0010071zm-4.74 0-16.82 21.637s2.243 10.52 9.078 26.354c2.5367-0.65311 5.1233-1.0946 7.733-1.32l0.0090027-46.67v-0.0010071z" style="fill:#FEDD00"/>
  <path d="m503.6 249.25h82.179v82.023h-82.179v-82.023z" style="fill:#FEDD00"/>
  <path d="m515.11 249.25h12.253v82.023h-12.253v-82.023zm23.48 0h12.253v82.023h-12.253l-6.1e-5 -82.023zm23.48 0h12.253v82.023h-12.253l-6.1e-5 -82.023z" style="fill:#D52B1E"/>
  <path d="m412.97 402.41c0.34427 2.309 1.0755 4.5433 2.163 6.609 1.477 2.332 0.93201 2.269 4.276 6 1.8199 1.824 3.9227 3.3419 6.227 4.495 2.1572 1.1377 4.4589 1.9774 6.842 2.496 5.3996 1.438 10.999 1.9779 16.574 1.598 3.4325-0.1749 6.8535-0.52936 10.249-1.062 3.6863-0.5267 7.3972-0.86383 11.118-1.01 2.133-0.089996 4.149-0.10999 6.142 0 2.457 0.16196 4.8992 0.49948 7.308 1.01 3.7255 0.79916 7.3889 1.8646 10.962 3.188l0.014008-85.655-82.193-0.02301v58.544s0.168 2.86 0.31799 3.81h-3.05e-5z" style="fill:#FEDD00"/>
  <path d="m422.51 417.43 3.852 2.241 5.278 1.9-0.0050049-81.528h-9.126l0.0010072 77.387zm45.66 3.71 0.010986-81.099h-9.143v82.396s6.257-0.802 9.131-0.98801l0.0010071-0.30899zm18.24-81.09h-9.113v81.381c3.082 0.32605 6.1343 0.88873 9.13 1.683l-0.016998-83.064zm-36.49 0v83.331c-3.0553 0.17285-6.1179 0.17184-9.173-0.0029907l0.0020142-83.314 9.171-0.014008z" style="fill:#D52B1E;stroke-width:.513;stroke:#D52B1E"/>
  <path d="m585.48 402.39c-0.34412 2.3087-1.0754 4.5427-2.163 6.608-1.477 2.333-0.93201 2.27-4.275 6.001-1.8207 1.8235-3.9238 3.3414-6.228 4.495-2.1567 1.1378-4.4581 1.9771-6.841 2.495-5.3996 1.4382-10.999 1.9785-16.574 1.599-3.4328-0.17545-6.8541-0.52994-10.25-1.062-3.686-0.52667-7.3965-0.86377-11.117-1.01-2.133-0.089996-4.15-0.10999-6.142 0-2.4573 0.16138-4.9 0.49893-7.309 1.01-3.7473 0.80484-7.4339 1.8701-11.033 3.188l0.057007-85.655 82.193-0.02301v58.543s-0.16803 2.86-0.31799 3.81l6.1e-5 0.0010376z" style="fill:#FEDD00"/>
  <g id="b">
    <path d="m524.62 346.91s-0.36603 0.17499-0.59399 0.28101c-0.24194 0.28809-0.50287 0.55969-0.78101 0.81299-0.39899 0.3064-0.81641 0.58792-1.25 0.84299-0.2204 0.11288-0.42102 0.2608-0.59399 0.43799-0.25201 0.32001-0.07898 0.63-0.25 1-0.1684 0.34497-0.38971 0.66147-0.65601 0.93799-0.33197 0.35635-0.68707 0.6904-1.063 1-0.31207 0.38629-0.68054 0.72342-1.093 1-0.10736 0.07486-0.22278 0.1376-0.34399 0.18701-0.216 0.066986-0.34998-0.010986-0.56299 0.062012-0.388 0.134-0.51001 0.56299-0.78003 0.71899 0.11102 0.21799 0.10602 0.37201 0.21802 0.59399 0.15802 0.323 0.70502 1.215 0.81201 1.437 0.21002 0.30499 0.27002 0.70001 0.53198 0.78101 0.42334 0.13519 0.87079 0.17783 1.312 0.125 0.69061 0.09024 1.3708 0.24731 2.031 0.46899 0.61298 0.254 0.86298 0.57501 1.47 0.84399 0.4057 0.20114 0.83606 0.34808 1.28 0.43701 0.32574 0.086853 0.66376 0.11862 1 0.093994 0.25-0.023987 0.37701-0.12 0.625-0.15601 0.041504-0.0050049 0.083496-0.0050049 0.125 0l-0.030029 0.375c-0.0059814 0 0.0040283 0.028015 0 0.031006v0.062012h0.062012l2.062 0.90601c-0.23981 0.35788-0.32959 0.79559-0.25 1.219 0.63 1.888 1.16 3.069 1.469 3.188 0.61499 0.23599 0.80603 0.86499 1.156 1.5-0.12299 0.13199-0.22699 0.20001-0.34399 0.31201-0.63245 0.5256-1.1897 1.1357-1.656 1.813-0.745 1.188-1.248 1.203-0.31201 2.78 0.54901 0.92599 0.81403 1.1 1.53 2.407 0.34509 0.61957 0.60797 1.2815 0.78198 1.969 0.18988 0.63986 0.2951 1.3018 0.31299 1.969l0.96802 0.375 0.65698-0.65701 0.625-1.187 0.030029-0.90601c-0.22559-0.19171-0.32251-0.495-0.25-0.78201 0.070007-0.36801 0.51501-0.29001 0.71997-0.625 0.28302-0.461-0.33197-0.73401-0.65698-1.093-0.60498-0.67001-1.43-0.83301-1.625-1.844-0.052002-0.27301 0.078003-0.427 0.375-0.71899 0.85602-0.84 1.13-0.97299 1.97-1.812 0.29871 0.15164 0.64056 0.19577 0.96802 0.125 0.28003-0.053009 0.53003 0.125 1.406 0.375 0.39551 0.12408 0.81787 0.13446 1.219 0.029999l0.375-0.092987c0.064453 0.22427 0.10632 0.45441 0.125 0.68701 0.052978 1.06-0.15503 2.995 0.15601 3.5 0.11145 0.17825 0.20551 0.36679 0.28101 0.56299 0.1178 0.20114 0.19269 0.4245 0.21997 0.65601 0.01001 0.69601 0.04602 1.14 0 1.875-0.039368 0.5871-0.11285 1.1714-0.21997 1.75-0.039795 0.38886-0.19159 0.75778-0.43701 1.062-0.28302 0.36401-0.59497 0.418-0.96899 0.68799l-0.093018 1 1.125 0.46899 1.28 0.31201 0.68799-0.28101c-0.007019-0.21878 0.046997-0.43518 0.15601-0.625 0.12799-0.24701 0.23199-0.439 0.46997-0.53101 0.362-0.14301 0.75897 0.129 0.90503-0.093994 0.15997-0.242 0.059998-0.33801 0.031982-0.75-0.04602-0.66199-0.18402-0.98999-0.28198-1.657-0.15918-0.90744-0.21155-1.8304-0.15601-2.75 0.0083618-0.52411 0.060547-1.0466 0.15601-1.562 0.172-0.883 0.48602-1.311 0.68799-2.188 0.17261-0.81473 0.29785-1.6388 0.375-2.468 3.1096 0.4805 6.2829 0.35315 9.344-0.375 0.16901-0.036987 0.75-0.25 0.75-0.25 0.7981 0.70456 1.7196 1.2555 2.718 1.625-0.0059814 0.10101-0.015015 0.845 0 0.96799 0.036987 0.28799-0.039978 0.48199 0.125 0.72 0.080505 0.14151 0.21643 0.24298 0.375 0.28 0.23102 0.072388 0.48315 0.012543 0.65698-0.15601 0.22601-0.20099 0.18402-0.45401 0.25-0.75 0.019531-0.22858 0.019531-0.45844 0-0.68701 0.289 0.048645 0.58203 0.069428 0.875 0.062012 0.29205 0.01236 0.58459 0.0020142 0.875-0.031006 0.0050049 0.079987 0.02002 0.36899 0.030029 0.46799 0.028015 0.245-0.075012 0.435 0.031982 0.65701 0.082336 0.21481 0.27289 0.36951 0.5 0.40601 0.18231 0.045715 0.37549 0.011505 0.53101-0.093994 0.29602-0.185 0.26398-0.49799 0.31299-0.84399 0.015015-0.10999 0.010986-0.69199 0-0.78101 0.21198-0.066986 0.82703-0.29199 1.031-0.375-0.0096436 0.27274-0.041077 0.54428-0.093994 0.81201-0.052795 0.32001-0.13647 0.63416-0.25 0.93799-0.19928 0.48425-0.45074 0.94531-0.75 1.375-0.30109 0.54733-0.64557 1.0697-1.03 1.562-0.21198 0.26599-0.35797 0.38599-0.56299 0.65701-0.25598 0.33701-0.34198 0.56601-0.59399 0.90601-0.25684 0.39966-0.57312 0.75778-0.93799 1.062-0.69299 0.54999-1.15 0.10999-2.093 0.84399l-0.21997 1.031 1.438 0.53201 1.282 0.25 0.43701-0.25c-0.030396-0.26923 0.048523-0.53943 0.21899-0.75 0.19128-0.23978 0.47491-0.3876 0.78101-0.40701 0.36102-0.05899 0.74701 0.033997 1.031-0.21799 0.34998-0.311 0.349-0.914 0.625-1.47 0.73511-1.4853 1.7543-2.812 3-3.905 0.61298-0.59698 1.138-0.758 1.657-1.438 0.24597-0.32199 0.52002-0.46899 0.53003-0.875 0.0089722-0.28299-0.14301-0.41501-0.21802-0.68701-0.079956-0.3298-0.14233-0.6636-0.18701-1 1.521 0.74399 0.96997 0.646 1.25 1.406 0.22498 0.61499-0.03302 1.04 0.062012 1.687 0.11102 0.75601 0.466 1.114 0.53101 1.875 0.018738 0.78262-0.086548 1.5633-0.31201 2.313-0.059082 0.68579-0.21704 1.3594-0.46899 2-0.24487 0.61124-0.64301 1.1492-1.156 1.562-0.211 0.17499-0.36902 0.25-0.59399 0.40701l-0.125 1.03 1.125 0.37601 1.625 0.43701 0.375-0.34299c0.164-0.655-0.054993-1.617 0.40601-1.688 0.40601-0.062012 0.69299 0 0.78198-0.31201 0.044128-0.20618 0.075195-0.41492 0.093018-0.625 0.22101-1.886 0.422-3.646 0.625-4.5 0.22998-0.96799 0.21503-1.178 0.40698-1.907 0.060486-0.57776 0.19696-1.145 0.40601-1.687 0.73401-2.097-0.20801-2.375-1.063-3.656-0.36499-0.42575-0.60309-0.9455-0.68701-1.5-0.096985-0.81699 0.164-1.495 0.125-2.75-0.032532-0.95807-0.032532-1.9164 0-2.875 0.11499-0.053009 0.22198-0.121 0.34399-0.18799 1.1157-0.43457 1.9841-1.3373 2.375-2.469 0.21112-0.4603 0.31763-0.96164 0.31201-1.468-0.0050049-0.332-0.065002-0.65201-0.093994-1.032-0.046814-0.32855-0.15247-0.646-0.31201-0.93701-0.14148-0.30954-0.33154-0.59448-0.56299-0.84399-0.74524-0.74176-1.6892-1.252-2.718-1.469-1.339-0.39322-2.7296-0.5827-4.125-0.56201-1.4234-0.13461-2.8553-0.15536-4.282-0.062012-2.006 0.11401-3.128 0.51901-5.125 0.75-1.6263 0.22815-3.2643 0.36371-4.906 0.40601-2.26 0.041992-4.42-0.45999-5.781-0.34399-2.451 0.20999-2.493 0.76199-6.188 1.063-1.2789 0.099152-2.5599 0.1615-3.843 0.18701l-2.157-0.68701c0.60376-0.14313 1.1298-0.51205 1.47-1.031 0.271-0.366 0.23199-0.67899 0.56201-1.063 0.26599-0.31201 0.44299-0.62201 0.78003-0.96899-0.27319-0.21805-0.59442-0.36786-0.93701-0.43701-0.30957-0.05899-0.62744-0.05899-0.93701 0-0.42535 0.031403-0.83997 0.14841-1.219 0.34399-0.31598 0.14307-0.60229 0.34421-0.84399 0.59299-0.70215-0.45248-1.4326-0.85931-2.187-1.218-0.94055-0.4722-1.9554-0.77902-3-0.90701v0.0019836zm1.969 11.906h0.062012c-0.012024 0.01001-0.018982 0.022003-0.030029 0.031006l-0.031982-0.031006z" style="fill:#D52B1E"/>
    <path d="m568.77 359.52-0.763 0.24399c-0.82568 0.33441-1.7092 0.50296-2.6 0.496-2.644 0.202-4.272-1.057-6.998-0.84698-1.404 0.108-2.025 1.19-3.46 1.548-0.55695 0.14679-1.1265 0.24118-1.701 0.28201l0.51202-1.034c-0.69708 0.14255-1.4042 0.2308-2.115 0.26401-0.51074 0.0083008-1.0211-0.035278-1.523-0.13l1.018-0.95001c-0.4408-0.071716-0.87402-0.18417-1.294-0.336-0.3844-0.15274-0.74213-0.36536-1.06-0.63 0.56812-0.093872 1.1314-0.21155 1.69-0.353 1.556-0.38501 2.04-1.147 3.89-1.325 1.15-0.11099 3.032-0.04599 7.643 0.71701 3.036 0.50201 4.382 0.267 5.536-0.258 0.67639-0.33929 1.1033-1.0313 1.103-1.788 0.027344-0.71106-0.30011-1.3893-0.87402-1.81-0.31805-0.24567-0.71124-0.3739-1.113-0.36301" style="fill:none;stroke-linecap:round;stroke-width:.987;stroke:#FEDF00"/>
    <path d="m524.8 350.61c-0.46747-0.079529-0.94763 0.02475-1.34 0.29099-0.47998 0.29599-0.54102 0.69699-0.888 1.142 0.44501 0.10001 0.69897 0.36099 1.142 0.254 0.30573-0.073547 0.57538-0.2532 0.76099-0.50699 0.29626-0.30963 0.45123-0.72809 0.42798-1.156l-0.10303-0.023987h6.11e-5z" style="fill:#FCD900;stroke-width:.513;stroke:#FEDF00"/>
    <path d="m536.04 363.79s0.26398 0.48001 0.40698 0.79999c0.22412 0.46991 0.39966 0.96146 0.52399 1.467 0.11731 0.69455 0.19745 1.3949 0.23999 2.098 0.02301 0.14301 0.049988 0.263 0.077026 0.37601l-0.049988 1.129m6.802-6.95s-0.21899 0.81201-0.354 1.333c-0.35199 1.353-0.67603 2.087-0.94397 3.46-0.044983 0.23001-0.078003 0.44199-0.10303 0.64401m-10.859-3.977c0.78998 0.17599 0.54401 3.36 1.789 4.09" style="fill:none;stroke-linecap:round;stroke-width:.987;stroke:#FEDF00"/>
    <path d="m560.12 369.78 0.38397-0.24899c1.0057-0.41174 1.9189-1.0203 2.686-1.79" style="fill:none;stroke-width:.987;stroke:#FEDF00"/>
    <path d="m552.38 368.02h0.007019c3.533-0.883 5.885-2.648 7.579-2.869" style="fill:none;stroke-linecap:round;stroke-width:.987;stroke:#FEDF00"/>
    <path d="m555.97 363.61c0.27765-0.0084839 0.55469-0.031189 0.83002-0.067993 1.467-0.20999 1.703 0.68701 2.725 1.258 1.857 1.039 2.098 2.307 4.3 3.356 0.11603 0.054993 0.22302 0.10699 0.32001 0.155l0.84802 0.42899" style="fill:none;stroke-linecap:round;stroke-width:.987;stroke:#FEDF00"/>
    <path d="m517.7 354.53c0.2298 0.0643 0.47003 0.082642 0.70697 0.053986 0.33197-0.031006 0.48401-0.23801 0.81702-0.24899 0.2356-0.044861 0.47949-3.052e-4 0.68402 0.125 0.12256 0.086548 0.21936 0.20477 0.28003 0.34201 0.10083 0.13306 0.14539 0.30042 0.12402 0.466-0.074829 0.27103-0.33429 0.44852-0.61401 0.42001-0.21954 0.027039-0.4339-0.080139-0.54401-0.272-0.069275-0.11774-0.083496-0.25989-0.039002-0.38901-0.52979 0.19943-1.1263-0.010101-1.415-0.49701h-6.1e-5z" style="fill:#FCD900;stroke-width:.513;stroke:#FEDF00"/>
    <path d="m525.13 364.17c-0.67364-0.22958-1.3306-0.50558-1.966-0.82599 0.323-0.25 0.58698-0.26501 0.86298-0.55499 0.39001-0.40799 0.37299-0.78799 0.59302-1.319 0.21503-0.51999 0.18402-0.95401 0.67102-1.343 0.32886-0.22043 0.7395-0.28104 1.118-0.16501 0.38855 0.10568 0.70349 0.39017 0.84802 0.76599 0.13702 0.561-0.15997 0.88599-0.24597 1.454-0.15472 0.47043-0.22083 0.96545-0.19501 1.46 0.093506 0.31134 0.21191 0.61465 0.354 0.90701-0.68781-0.080353-1.3694-0.20734-2.04-0.38l-6.12e-5 9.766e-4zm-0.98999 0.95001c-0.0038452-0.34598 0.2735-0.62955 0.61945-0.63339 0.34601-0.0038757 0.62958 0.27347 0.63342 0.61945s-0.2735 0.62955-0.61945 0.63339c-0.34436 0.0038452-0.6272-0.27094-0.63336-0.61523l-6.11e-5 -0.0042114zm-1.76-16.51s-0.090027-0.059998-0.14398-0.104c-0.383-0.31-0.41998-0.65302-0.60101-1.11-0.16119-0.3671-0.26733-0.75592-0.315-1.154-0.025024-0.34888-0.025024-0.69913 0-1.048 0.02002-0.31436 0.02002-0.62964 0-0.944 0.0021362-0.32648-0.069641-0.64923-0.21002-0.944-0.096985-0.17999-0.39398-0.33701-0.31403-0.42001 0.093994-0.096008 0.25702-0.019989 0.41998 0 0.35138 0.034821 0.68207 0.18213 0.94299 0.42001 0.33826 0.26172 0.57568 0.63229 0.672 1.049 0.16602 0.548 0.24799 0.89801 0.40698 1.468 0.058228 0.25726 0.15393 0.50455 0.284 0.73401 0.15411 0.22595 0.32959 0.43658 0.52399 0.629l-0.010986 0.02301c-0.24115 0.29413-0.50061 0.57269-0.77698 0.83401-0.26093 0.22043-0.54449 0.41248-0.84601 0.573l-0.03302-0.01001 0.0010985 0.0039673zm3.6 10.64 2.23 1.031c1.5205-0.94022 2.7354-2.3016 3.497-3.919 0.68805-1.3531 1.1489-2.8103 1.364-4.313l-1.789-0.58099-0.35699 0.072998c-0.33472 1.4679-0.87964 2.8799-1.618 4.192-0.69977 1.1577-1.5962 2.1844-2.649 3.034l-0.67798 0.483h-6.11e-5zm4.94 18.12c0.2818-0.43939 0.58966-0.86148 0.922-1.264 0.41052-0.41287 0.84888-0.79712 1.312-1.15 0.16321-0.01059 0.32684 0.013611 0.47998 0.071014-0.01416 0.51797-0.074402 1.0337-0.17999 1.541-0.085327 0.41132-0.20093 0.81577-0.34601 1.21-0.07959 0.34424-0.21106 0.67435-0.39001 0.979-0.14374 0.18585-0.30298 0.35913-0.47601 0.51801-0.51001-0.742-1.33-1.297-1.322-1.906l6.1e-5 0.0010071zm33.01 1.85c1.0761 0.27103 2.0788 0.77716 2.936 1.482 0.05481 0.15475 0.076294 0.31937 0.062988 0.483-0.50189 0.12729-1.0138 0.21127-1.53 0.25101-0.41907 0.031525-0.8399 0.031525-1.259 0-0.35266 0.018677-0.70605-0.016754-1.048-0.10501-0.2182-0.08728-0.42896-0.19229-0.63-0.314 0.573-0.69601 0.88-1.637 1.468-1.797v3.06e-5zm-9.76-2.04c1.0759 0.27161 2.0785 0.77768 2.936 1.482 0.054748 0.15442 0.076233 0.3187 0.062988 0.48199-0.50177 0.12811-1.0137 0.21243-1.53 0.25201-0.41907 0.031494-0.8399 0.031494-1.259 0-0.35266 0.018646-0.70605-0.016754-1.048-0.10501-0.2182-0.08728-0.42896-0.19229-0.63-0.314 0.573-0.69601 0.88-1.637 1.468-1.797zm-17.34 2.13c0.5 0.14972 0.99054 0.32938 1.469 0.53799 0.5097 0.28186 1.0001 0.5972 1.468 0.944 0.053894 0.15497 0.075317 0.3194 0.062988 0.483-0.50226 0.1272-1.0145 0.21118-1.531 0.25101-0.41876 0.031525-0.83923 0.031525-1.258 0-0.35297 0.019165-0.70685-0.016266-1.049-0.10501-0.21838-0.086884-0.42914-0.19189-0.63-0.314 0.57306-0.69601 0.88007-1.637 1.4681-1.797l-6.1e-5 3.06e-5zm-8.98-29.8c-0.61298-0.27802-1.05-1.045-0.65997-1.594 0.15503-0.22 0.41199-0.17401 0.565-0.39499 0.14404-0.25446 0.19226-0.55206 0.13599-0.83899-0.040649-0.3205-0.11096-0.63651-0.21002-0.944-0.081726-0.34363-0.12695-0.69489-0.13501-1.048-0.083069-0.54895 0.039795-1.1092 0.34497-1.573 0.21069-0.27884 0.49707-0.49127 0.82501-0.612 0.14697 0.13599-0.057007 0.50201-0.03302 0.82199 0.0354 0.397 0.13257 0.78601 0.28802 1.153 0.20203 0.56299 0.479 0.80899 0.703 1.363 0.22992 0.4216 0.3728 0.8851 0.41998 1.363 0.031433 0.39636-0.040955 0.7941-0.21002 1.154-0.12622 0.32834-0.33661 0.61768-0.60999 0.83899-0.22693 0.20285-0.50031 0.34677-0.79602 0.41901-0.21533 0.023865-0.43298-0.01358-0.62799-0.108l6.12e-5 -3.06e-5z" style="fill:#005EB8"/>
  </g>
  <g id="b-2">
    <path d="m524.62 383.5s-0.36603 0.17499-0.59399 0.28101c-0.24194 0.28809-0.50287 0.55969-0.78101 0.81299-0.39899 0.3064-0.81641 0.58792-1.25 0.84299-0.2204 0.11288-0.42102 0.2608-0.59399 0.43799-0.25201 0.32001-0.07898 0.63-0.25 1-0.1684 0.34497-0.38971 0.66147-0.65601 0.93799-0.33197 0.35635-0.68707 0.6904-1.063 1-0.31207 0.38629-0.68054 0.72342-1.093 1-0.10736 0.07486-0.22278 0.1376-0.34399 0.18701-0.216 0.066986-0.34998-0.010986-0.56299 0.062012-0.388 0.134-0.51001 0.56299-0.78003 0.71899 0.11102 0.21799 0.10602 0.37201 0.21802 0.59399 0.15802 0.323 0.70502 1.215 0.81201 1.437 0.21002 0.30499 0.27002 0.70001 0.53198 0.78101 0.42334 0.13519 0.87079 0.17783 1.312 0.125 0.69061 0.09024 1.3708 0.24731 2.031 0.46899 0.61298 0.254 0.86298 0.57501 1.47 0.84399 0.4057 0.20114 0.83606 0.34805 1.28 0.43701 0.32574 0.086853 0.66376 0.11862 1 0.093994 0.25-0.023987 0.37701-0.12 0.625-0.15601 0.041504-0.0050049 0.083496-0.0050049 0.125 0l-0.030029 0.375c-0.0059814 0 0.0040283 0.028015 0 0.031006v0.062012h0.062012l2.062 0.90601c-0.23981 0.35788-0.32959 0.79559-0.25 1.219 0.63 1.888 1.16 3.069 1.469 3.188 0.61499 0.23599 0.80603 0.86499 1.156 1.5-0.12299 0.13199-0.22699 0.20001-0.34399 0.31201-0.63245 0.5256-1.1897 1.1357-1.656 1.813-0.745 1.188-1.248 1.203-0.31201 2.78 0.54901 0.92599 0.81403 1.1 1.53 2.407 0.34509 0.61957 0.60797 1.2815 0.78198 1.969 0.18988 0.63986 0.2951 1.3018 0.31299 1.969l0.96802 0.375 0.65698-0.65701 0.625-1.187 0.030029-0.90601c-0.22559-0.19171-0.32251-0.495-0.25-0.78201 0.070007-0.36801 0.51501-0.29001 0.71997-0.625 0.28302-0.461-0.33197-0.73401-0.65698-1.093-0.60498-0.67001-1.43-0.83301-1.625-1.844-0.052002-0.27301 0.078003-0.427 0.375-0.71899 0.85602-0.84 1.13-0.97299 1.97-1.812 0.29871 0.15164 0.64056 0.19577 0.96802 0.125 0.28003-0.053009 0.53003 0.125 1.406 0.375 0.39551 0.12408 0.81787 0.13446 1.219 0.029999l0.375-0.092987c0.064453 0.22427 0.10632 0.45441 0.125 0.68701 0.052978 1.06-0.15503 2.995 0.15601 3.5 0.11145 0.17825 0.20551 0.36679 0.28101 0.56299 0.1178 0.20114 0.19269 0.4245 0.21997 0.65601 0.01001 0.69601 0.04602 1.14 0 1.875-0.039368 0.5871-0.11285 1.1714-0.21997 1.75-0.039795 0.38886-0.19159 0.75778-0.43701 1.062-0.28302 0.36401-0.59497 0.418-0.96899 0.68799l-0.093018 1 1.125 0.46899 1.28 0.31201 0.68799-0.28101c-0.007019-0.21878 0.046997-0.43518 0.15601-0.625 0.12799-0.24701 0.23199-0.439 0.46997-0.53101 0.362-0.14301 0.75897 0.129 0.90503-0.093994 0.15997-0.242 0.059998-0.33801 0.031982-0.75-0.04602-0.66199-0.18402-0.98999-0.28198-1.657-0.15918-0.90744-0.21155-1.8304-0.15601-2.75 0.0083618-0.52411 0.060547-1.0466 0.15601-1.562 0.172-0.883 0.48602-1.311 0.68799-2.188 0.17261-0.81473 0.29785-1.6388 0.375-2.468 3.1096 0.4805 6.2829 0.35315 9.344-0.375 0.16901-0.036987 0.75-0.25 0.75-0.25 0.7981 0.70456 1.7196 1.2555 2.718 1.625-0.0059814 0.10101-0.015015 0.845 0 0.96799 0.036987 0.28799-0.039978 0.48199 0.125 0.72 0.080505 0.14151 0.21643 0.24298 0.375 0.28 0.23102 0.072388 0.48315 0.012543 0.65698-0.15601 0.22601-0.20099 0.18402-0.45401 0.25-0.75 0.019531-0.22858 0.019531-0.45844 0-0.68701 0.289 0.048645 0.58203 0.069428 0.875 0.062012 0.29205 0.01236 0.58459 0.0020142 0.875-0.031006 0.0050049 0.079987 0.02002 0.36899 0.030029 0.46799 0.028015 0.245-0.075012 0.435 0.031982 0.65701 0.082336 0.21481 0.27289 0.36951 0.5 0.40601 0.18231 0.045715 0.37549 0.011505 0.53101-0.093994 0.29602-0.185 0.26398-0.49799 0.31299-0.84399 0.015015-0.10999 0.010986-0.69199 0-0.78101 0.21198-0.066986 0.82703-0.29199 1.031-0.375-0.0096436 0.27274-0.041077 0.54428-0.093994 0.81201-0.052795 0.32001-0.13647 0.63416-0.25 0.93799-0.19928 0.48425-0.45074 0.94531-0.75 1.375-0.30109 0.54733-0.64557 1.0697-1.03 1.562-0.21198 0.26599-0.35797 0.38599-0.56299 0.65701-0.25598 0.33701-0.34198 0.56601-0.59399 0.90601-0.25684 0.39966-0.57312 0.75778-0.93799 1.062-0.69299 0.54999-1.15 0.10999-2.093 0.84399l-0.21997 1.031 1.438 0.53201 1.282 0.25 0.43701-0.25c-0.030396-0.26923 0.048523-0.53943 0.21899-0.75 0.19128-0.23978 0.47491-0.3876 0.78101-0.40701 0.36102-0.05899 0.74701 0.033997 1.031-0.21799 0.34998-0.311 0.349-0.914 0.625-1.47 0.73511-1.4853 1.7543-2.812 3-3.905 0.61298-0.59698 1.138-0.758 1.657-1.438 0.24597-0.32199 0.52002-0.46899 0.53003-0.875 0.0089722-0.28299-0.14301-0.41501-0.21802-0.68701-0.079956-0.3298-0.14233-0.6636-0.18701-1 1.521 0.74399 0.96997 0.646 1.25 1.406 0.22498 0.61499-0.03302 1.04 0.062012 1.687 0.11102 0.75601 0.466 1.114 0.53101 1.875 0.018738 0.78262-0.086548 1.5633-0.31201 2.313-0.059082 0.68579-0.21704 1.3594-0.46899 2-0.24487 0.61124-0.64301 1.1492-1.156 1.562-0.211 0.17499-0.36902 0.25-0.59399 0.40701l-0.125 1.03 1.125 0.37601 1.625 0.43701 0.375-0.34299c0.164-0.655-0.054993-1.617 0.40601-1.688 0.40601-0.062012 0.69299 0 0.78198-0.31201 0.044128-0.20618 0.075195-0.41492 0.093018-0.625 0.22101-1.886 0.422-3.646 0.625-4.5 0.22998-0.96799 0.21503-1.178 0.40698-1.907 0.060486-0.57776 0.19696-1.145 0.40601-1.687 0.73401-2.097-0.20801-2.375-1.063-3.656-0.36499-0.42575-0.60309-0.9455-0.68701-1.5-0.096985-0.81699 0.164-1.495 0.125-2.75-0.032532-0.95807-0.032532-1.9164 0-2.875 0.11499-0.053009 0.22198-0.121 0.34399-0.18799 1.1157-0.43457 1.9841-1.3373 2.375-2.469 0.21112-0.4603 0.31763-0.96164 0.31201-1.468-0.0050049-0.332-0.065002-0.65201-0.093994-1.032-0.046814-0.32855-0.15247-0.646-0.31201-0.93701-0.14148-0.30954-0.33154-0.59448-0.56299-0.84399-0.74524-0.74176-1.6892-1.252-2.718-1.469-1.339-0.39322-2.7296-0.5827-4.125-0.56201-1.4234-0.13461-2.8553-0.15536-4.282-0.062012-2.006 0.11401-3.128 0.51901-5.125 0.75-1.6263 0.22815-3.2643 0.36371-4.906 0.40601-2.26 0.041992-4.42-0.45999-5.781-0.34399-2.451 0.20999-2.493 0.76199-6.188 1.063-1.2789 0.099121-2.5599 0.16147-3.843 0.18701l-2.157-0.68701c0.60376-0.14313 1.1298-0.51205 1.47-1.031 0.271-0.366 0.23199-0.67899 0.56201-1.063 0.26599-0.31201 0.44299-0.62201 0.78003-0.96899-0.27319-0.21805-0.59442-0.36786-0.93701-0.43701-0.30957-0.05899-0.62744-0.05899-0.93701 0-0.42535 0.031403-0.83997 0.14841-1.219 0.34399-0.31598 0.14307-0.60229 0.34421-0.84399 0.59299-0.70215-0.45248-1.4326-0.85931-2.187-1.218-0.94055-0.4722-1.9554-0.77902-3-0.90701v0.0019835zm1.969 11.906h0.062012c-0.012024 0.01001-0.018982 0.022003-0.030029 0.031006l-0.031982-0.031006z" style="fill:#D52B1E"/>
    <path d="m568.77 396.11-0.763 0.24399c-0.82568 0.33441-1.7092 0.50296-2.6 0.496-2.644 0.202-4.272-1.057-6.998-0.84698-1.404 0.108-2.025 1.19-3.46 1.548-0.55695 0.14679-1.1265 0.24118-1.701 0.28201l0.51202-1.034c-0.69708 0.14255-1.4042 0.2308-2.115 0.26401-0.51074 0.0083008-1.0211-0.035278-1.523-0.13l1.018-0.95001c-0.4408-0.071716-0.87402-0.18417-1.294-0.336-0.3844-0.15274-0.74213-0.36536-1.06-0.63 0.56812-0.093842 1.1314-0.21152 1.69-0.353 1.556-0.38501 2.04-1.147 3.89-1.325 1.15-0.11099 3.032-0.04599 7.643 0.71701 3.036 0.50201 4.382 0.267 5.536-0.258 0.67639-0.33929 1.1033-1.0313 1.103-1.788 0.027344-0.71106-0.30011-1.3893-0.87402-1.81-0.31805-0.24567-0.71124-0.3739-1.113-0.36301" style="fill:none;stroke-linecap:round;stroke-width:.987;stroke:#FEDF00"/>
    <path d="m524.8 387.2c-0.46747-0.079529-0.94763 0.02475-1.34 0.29099-0.47998 0.29599-0.54102 0.69699-0.888 1.142 0.44501 0.10001 0.69897 0.36099 1.142 0.254 0.30573-0.073547 0.57538-0.2532 0.76099-0.50699 0.29626-0.30963 0.45123-0.72809 0.42798-1.156l-0.10303-0.023987h6.11e-5z" style="fill:#FCD900;stroke-width:.513;stroke:#FEDF00"/>
    <path d="m536.04 400.38s0.26398 0.48001 0.40698 0.79999c0.22412 0.46991 0.39966 0.96146 0.52399 1.467 0.11731 0.69455 0.19745 1.3949 0.23999 2.098 0.02301 0.14301 0.049988 0.263 0.077026 0.37601l-0.049988 1.129m6.802-6.95s-0.21899 0.81201-0.354 1.333c-0.35199 1.353-0.67603 2.087-0.94397 3.46-0.044983 0.23001-0.078003 0.44199-0.10303 0.64401m-10.859-3.977c0.78998 0.17599 0.54401 3.36 1.789 4.09" style="fill:none;stroke-linecap:round;stroke-width:.987;stroke:#FEDF00"/>
    <path d="m560.12 406.37 0.38397-0.24899c1.0057-0.41174 1.9189-1.0203 2.686-1.79" style="fill:none;stroke-width:.987;stroke:#FEDF00"/>
    <path d="m552.38 404.61h0.007019c3.533-0.883 5.885-2.648 7.579-2.869" style="fill:none;stroke-linecap:round;stroke-width:.987;stroke:#FEDF00"/>
    <path d="m555.97 400.2c0.27765-0.0084839 0.55469-0.031189 0.83002-0.067993 1.467-0.20999 1.703 0.68701 2.725 1.258 1.857 1.039 2.098 2.307 4.3 3.356 0.11603 0.054993 0.22302 0.10699 0.32001 0.155l0.84802 0.42899" style="fill:none;stroke-linecap:round;stroke-width:.987;stroke:#FEDF00"/>
    <path d="m517.7 391.12c0.2298 0.0643 0.47003 0.082642 0.70697 0.053986 0.33197-0.031006 0.48401-0.23801 0.81702-0.24899 0.2356-0.044861 0.47949-3.052e-4 0.68402 0.125 0.12256 0.086548 0.21936 0.20477 0.28003 0.34201 0.10083 0.13306 0.14539 0.30042 0.12402 0.466-0.074829 0.27103-0.33429 0.44852-0.61401 0.42001-0.21954 0.027039-0.4339-0.080139-0.54401-0.272-0.069275-0.11774-0.083496-0.25989-0.039002-0.38901-0.52979 0.19943-1.1263-0.010101-1.415-0.49701h-6.1e-5z" style="fill:#FCD900;stroke-width:.513;stroke:#FEDF00"/>
    <path d="m525.13 400.76c-0.67364-0.22958-1.3306-0.50558-1.966-0.82599 0.323-0.25 0.58698-0.26501 0.86298-0.55499 0.39001-0.40799 0.37299-0.78799 0.59302-1.319 0.21503-0.51999 0.18402-0.95401 0.67102-1.343 0.32886-0.22043 0.7395-0.28104 1.118-0.16501 0.38855 0.10568 0.70349 0.39017 0.84802 0.76599 0.13702 0.561-0.15997 0.88599-0.24597 1.454-0.15472 0.47043-0.22083 0.96545-0.19501 1.46 0.093506 0.31134 0.21191 0.61465 0.354 0.90701-0.68781-0.080353-1.3694-0.20734-2.04-0.38l-6.12e-5 9.766e-4zm-0.98999 0.95001c-0.0038452-0.34595 0.2735-0.62955 0.61945-0.63339s0.62952 0.2735 0.63336 0.61945-0.27344 0.62955-0.61945 0.63339c-0.3443 0.0038147-0.62714-0.27097-0.6333-0.61523l-6.1e-5 -0.0042114zm-1.76-16.51s-0.090027-0.059998-0.14398-0.104c-0.383-0.31-0.41998-0.65302-0.60101-1.11-0.16119-0.3671-0.26733-0.75592-0.315-1.154-0.025024-0.34888-0.025024-0.69913 0-1.048 0.02002-0.31436 0.02002-0.62964 0-0.944 0.0021362-0.32648-0.069641-0.64923-0.21002-0.944-0.096985-0.17999-0.39398-0.33701-0.31403-0.42001 0.093994-0.096008 0.25702-0.019989 0.41998 0 0.35138 0.034821 0.68207 0.18213 0.94299 0.42001 0.33826 0.26172 0.57568 0.63229 0.672 1.049 0.16602 0.548 0.24799 0.89801 0.40698 1.468 0.058228 0.25726 0.15393 0.50455 0.284 0.73401 0.15411 0.22595 0.32959 0.43658 0.52399 0.629l-0.010986 0.02301c-0.24115 0.29413-0.50061 0.57269-0.77698 0.83401-0.26093 0.22043-0.54449 0.41248-0.84601 0.573l-0.03302-0.01001 0.0010985 0.0039673zm3.6 10.64 2.23 1.031c1.5205-0.94022 2.7354-2.3016 3.497-3.919 0.68805-1.3531 1.1489-2.8103 1.364-4.313l-1.789-0.58099-0.35699 0.072998c-0.33472 1.4679-0.87964 2.8799-1.618 4.192-0.69977 1.1577-1.5962 2.1844-2.649 3.034l-0.67798 0.483h-6.11e-5zm4.94 18.12c0.2818-0.43939 0.58966-0.86148 0.922-1.264 0.41052-0.41287 0.84888-0.79712 1.312-1.15 0.16321-0.01059 0.32684 0.013611 0.47998 0.071014-0.01416 0.51797-0.074402 1.0337-0.17999 1.541-0.085327 0.41132-0.20093 0.81577-0.34601 1.21-0.07959 0.34424-0.21106 0.67435-0.39001 0.979-0.14374 0.18585-0.30298 0.35913-0.47601 0.51801-0.51001-0.742-1.33-1.297-1.322-1.906l6.1e-5 0.0010071zm33.01 1.85c1.0761 0.27103 2.0788 0.77716 2.936 1.482 0.05481 0.15475 0.076294 0.31937 0.062988 0.483-0.50189 0.12729-1.0138 0.21127-1.53 0.25101-0.41907 0.031525-0.8399 0.031525-1.259 0-0.35266 0.018677-0.70605-0.016754-1.048-0.10501-0.2182-0.08728-0.42896-0.19229-0.63-0.314 0.573-0.69601 0.88-1.637 1.468-1.797zm-9.76-2.04c1.0759 0.27161 2.0785 0.77768 2.936 1.482 0.054748 0.15442 0.076233 0.3187 0.062988 0.48199-0.50177 0.12811-1.0137 0.21243-1.53 0.25201-0.41907 0.031494-0.8399 0.031494-1.259 0-0.35266 0.018677-0.70605-0.016754-1.048-0.10501-0.2182-0.08728-0.42896-0.19229-0.63-0.314 0.573-0.69601 0.88-1.637 1.468-1.797zm-17.34 2.13c0.5 0.14972 0.99054 0.32938 1.469 0.53799 0.5097 0.28186 1.0001 0.5972 1.468 0.944 0.053894 0.15497 0.075317 0.3194 0.062988 0.483-0.50226 0.1272-1.0145 0.21118-1.531 0.25101-0.41876 0.031525-0.83923 0.031525-1.258 0-0.35297 0.019165-0.70685-0.016266-1.049-0.10501-0.21838-0.086884-0.42914-0.19189-0.63-0.314 0.57306-0.69598 0.88007-1.637 1.4681-1.797h-6.1e-5zm-8.98-29.8c-0.61298-0.27802-1.05-1.045-0.65997-1.594 0.15503-0.22 0.41199-0.17401 0.565-0.39499 0.14404-0.25446 0.19226-0.55206 0.13599-0.83899-0.040649-0.3205-0.11096-0.63651-0.21002-0.944-0.081726-0.34363-0.12695-0.69489-0.13501-1.048-0.083069-0.54895 0.039795-1.1092 0.34497-1.573 0.21069-0.27884 0.49707-0.49127 0.82501-0.612 0.14697 0.13599-0.057007 0.50201-0.03302 0.82199 0.0354 0.397 0.13257 0.78601 0.28802 1.153 0.20203 0.56299 0.479 0.80899 0.703 1.363 0.22992 0.4216 0.3728 0.8851 0.41998 1.363 0.031433 0.39636-0.040955 0.7941-0.21002 1.154-0.12622 0.32834-0.33661 0.61768-0.60999 0.83899-0.22693 0.20285-0.50031 0.34677-0.79602 0.41901-0.21533 0.023865-0.43298-0.01358-0.62799-0.108l6.12e-5 -3.06e-5z" style="fill:#005EB8"/>
  </g>
  <path d="m412.66 249.25h82.179v82.023h-82.179v-82.023zm90.94 0h82.179v82.023h-82.179v-82.023zm-90.63 153.16c0.34427 2.309 1.0755 4.5433 2.163 6.609 1.477 2.332 0.93201 2.269 4.276 6 1.8199 1.824 3.9227 3.3419 6.227 4.495 2.1572 1.1377 4.4589 1.9774 6.842 2.496 5.3996 1.438 10.999 1.9779 16.574 1.598 3.4325-0.1749 6.8535-0.52936 10.249-1.062 3.6863-0.5267 7.3972-0.86383 11.118-1.01 2.133-0.089996 4.149-0.10999 6.142 0 2.457 0.16196 4.8992 0.49948 7.308 1.01 3.7255 0.79916 7.3889 1.8646 10.962 3.188l0.014008-85.655-82.193-0.02301v58.544s0.168 2.86 0.31799 3.81h-3.05e-5zm172.51-0.019989c-0.34412 2.3087-1.0754 4.5427-2.163 6.608-1.477 2.333-0.93201 2.27-4.275 6.001-1.8207 1.8235-3.9238 3.3414-6.228 4.495-2.1567 1.1378-4.4581 1.9771-6.841 2.495-5.3996 1.4382-10.999 1.9785-16.574 1.599-3.4328-0.17545-6.8541-0.52994-10.25-1.062-3.686-0.52667-7.3965-0.86377-11.117-1.01-2.133-0.089996-4.15-0.10999-6.142 0-2.4573 0.16138-4.9 0.49893-7.309 1.01-3.7473 0.80484-7.4339 1.8701-11.033 3.188l0.057007-85.655 82.193-0.02301v58.543s-0.16803 2.86-0.31799 3.81l6.1e-5 0.0010376z" style="fill:none;stroke-width:.797;stroke:#713F2A"/>
</svg>
