<?xml version="1.0" encoding="UTF-8"?>
<svg width="700" height="500" fill-rule="evenodd" version="1.1" viewBox="0 0 7.7778 5.5556" xmlns="http://www.w3.org/2000/svg" xmlns:cc="http://creativecommons.org/ns#" xmlns:dc="http://purl.org/dc/elements/1.1/" xmlns:rdf="http://www.w3.org/1999/02/22-rdf-syntax-ns#">
  <metadata>
    <rdf:RDF>
      <cc:Work rdf:about="">
        <dc:format>image/svg+xml</dc:format>
        <dc:type rdf:resource="http://purl.org/dc/dcmitype/StillImage"/>
      </cc:Work>
    </rdf:RDF>
  </metadata>
  <defs>
    <style type="text/css">.fil0 {fill:#ED323D;fill-rule:nonzero}
    .fil1 {fill:black;fill-rule:nonzero}</style>
  </defs>
  <polygon class="fil0" transform="matrix(2.7792 0 0 2.7786 .0057443 -.014035)" points="-0.0020669 0.0050512 -0.0020669 2.0045 2.7965 2.0045 2.7965 0.0050512" fill="#ce1126" fill-rule="nonzero"/>
  <g transform="matrix(2.6399 0 0 2.6359 .23374 .10213)" fill-rule="nonzero">
    <path class="fil1" d="m1.3846 0.56709c-0.019256-0.003217-0.019776-0.009039-0.010055-0.022421 0.00413-0.005677 7.717e-4 -0.009032-0.012642-0.005154-0.00994 0.002866-0.021169-0.010839-0.026158-0.017173-0.00461-0.005839-0.00413-0.006886 0.00137-0.006886 0.00552 0 0.015842-0.004803 0.018587-0.008248 0.00276-0.003445 0.00207-0.007575-0.0055-0.006201-0.00757 0.001386-0.030035-0.009988-0.038551-0.021342-0.00412-0.0055-0.00481-0.00826 0.00207-0.010315 0.00688-0.002075 0.013772-0.006205 0.018583-0.009646 0.00481-0.003441 0.00207-0.007555-0.00689-0.008941-0.00894-0.00137-0.028453-0.011831-0.037161-0.022713-0.00276-0.003445-0.00552-0.007575 0.00274-0.00965 0.00827-0.002055 0.028224-0.015811 0.033732-0.023378 0.0055-0.007575 0.00619-0.015846-0.00964-0.008965-0.015827 0.00689-0.047488 0.008965-0.066075 0.004815-0.039232-0.018587-0.096366-0.042673-0.11839-0.007555-0.037177-0.002067-0.081906-0.004142-0.073654 0.041972 0.0074-6.8504e-4 0.011472-0.004921 0.013768-0.00963 0.00328-0.006724 0.014319-0.007878 0.02478-0.004126 0.00912 0.003264 0.016531 0.008094 0.0098 0.016173-0.00344 0.004122-0.016866 0.006181-0.025118 0.004122-0.00826-0.002055-0.023598-0.004484-0.032524-0.005492-0.00602-6.8898e-4 -0.01789-0.00828-0.023398-0.018933-0.0055-0.010673-0.019614-0.023402-0.028567-0.015827-0.008949 0.007571 0.00172 0.020295 0.010665 0.028213 0.00896 0.007917 0.027197 0.017902 0.036823 0.017902 0.012748 0 0.025134 0.003083 0.031665 0.004472 0.00309 0.024299 0.035102 0.035315 0.061957 0.03463 0.026835-6.8504e-4 0.062283 0.012346 0.094972 0.039354 0.042339 0.03498 0.072276 0.15061 6.889e-4 0.15061-0.044728 0-0.03785-0.044744-0.036476-0.070213 0.00137-0.025465-0.01239-0.053004-0.042673-0.064008-0.030283-0.011012-0.092232-0.032346-0.10944-0.041996-0.00688-0.004807-0.014161 0.012224-0.015138 0.022035-7.008e-4 0.006886-0.00844 0.007484-0.030287 6.8504e-4 -0.061953-0.019276-0.11839-0.052303-0.14523-0.10325-0.026846-0.050929-0.077461-8.6221e-4 -0.052315 0.041988 0.030295 0.051614 0.13146 0.093614 0.19547 0.10187 0.029748 0.003835 0.02948 0.039398 0.001386 0.043362-0.058508 0.008268-0.11575 0.007138-0.15142-0.039232-0.027535-0.035795-0.054622-0.003626-0.042677 0.02478 0.025465 0.060571 0.11188 0.086114 0.19616 0.045429 0.019965-0.009642 0.04137-0.008028 0.024094 0.015823-0.043362 0.059886-0.10109 0.069142-0.17345 0.024784-0.021339-0.013071-0.037862-0.011016-0.042673-0.002748-0.008472 0.014508-0.012287 0.027622 0.01239 0.045425 0.054374 0.039228 0.11736 0.036484 0.16793 0.010323 0.019968-0.010323 0.056445-0.018587 0.024102 0.024091-0.032354 0.042681-0.11495 0.064701-0.14867 0.04061-0.033732-0.024094-0.07572-0.002071-0.048874 0.035102 0.026842 0.037165 0.082594 0.027539 0.10806 0.013772 0.025472-0.013772 0.064701-0.03235 0.081224-0.039921 0.016516-0.007579 0.024228 0.00535 0.00551 0.026835-0.041992 0.048189-0.08526 0.088654-0.14386 0.069516-0.033724-0.011008-0.064701-0.012382-0.055744 0.028917 0.008945 0.041291 0.078453 0.044051 0.11287 0.023394 0.034425-0.020646 0.065386-0.044043 0.086043-0.064008 0.020646-0.019961 0.04152-0.019201 0.018579 0.014457-0.051618 0.075709-0.095696 0.13114-0.16931 0.11701-0.068142-0.013083-0.051197 0.027827-0.036476 0.040606 0.041984 0.036476 0.11563 0.026839 0.20373-0.081209 0.00687-0.008445 0.018445-0.005996 0.01239 0.00963-0.03922 0.10118-0.10461 0.16657-0.16794 0.15073-0.032937-0.00824-0.065063 0.010091-0.031665 0.039236 0.037862 0.033039 0.10669 0.02065 0.15625-0.034413 0.049559-0.055067 0.079842-0.094299 0.090854-0.11495 0.011008-0.020642 0.027535-0.021338 0.025465 0.00551-0.00206 0.026839-0.022024 0.079153-0.057134 0.096366-0.018165 0.00891-0.034405 0.028906 0 0.044047 0.034425 0.015142 0.075032-0.046118 0.10807-0.13559 0.00389-0.010512 0.026646-0.013122 0.026165 0.00688-6.889e-4 0.028224-0.014457 0.051618-0.029598 0.065386-0.015146 0.013768-0.0033 0.036819 0.017205 0.027535 0.028906-0.013079 0.047169-0.032287 0.0585-0.061256 0.0062-0.015827 0.020173-0.021276 0.01239 0.00344-0.023398 0.074331-0.075713 0.11013-0.14454 0.14454 0.010323 0.010323 0.01961 0.021685 0.028906 0.03098-0.042331 0.021681-0.086724 0.036134-0.12183 0.050591-0.027882-0.018587-0.052661-0.028909-0.065043-0.046469-0.004126-0.02374-0.033032-0.034059-0.05163-0.02374-0.031996-0.01239-0.054716-0.00929-0.056776 0.020646 0.018583-0.0031 0.034071-0.0062 0.047492 0.0062 0.006181 0.014457 0.025811 0.021685 0.04439 0.015484 0.020654 0.012386 0.038201 0.024779 0.050587 0.033031-0.039228-0.00102-0.068138-0.00309-0.088795-0.00515-0.019602-0.019614-0.038189-0.019614-0.052646-0.0062-0.023748-0.00516-0.042331 0.00585-0.048528 0.0265 0.017898-0.00206 0.034413-0.00826 0.046122-0.00206 0.009634 0.017894 0.036476 0.018575 0.053689 0.00551 0.026154-7.008e-4 0.077087-0.00139 0.088784-0.00139-0.017201 0.010323-0.037854 0.022717-0.048173 0.028909-0.04061-0.00826-0.062642 0.00757-0.059886 0.037177-0.009634 0.015142-0.008949 0.036476 0.00276 0.046102 0.002736-0.012386 0.009626-0.028216 0.019264-0.037161 0.02478 0.00481 0.042677-0.00344 0.050248-0.030976 0.015823-0.010323 0.036476-0.023402 0.044732-0.028909 0.008268-0.0055 0.01485-0.011831 0.033732-0.00344 0.018587 0.00827 0.035791 0.015154 0.046799 0.021343 0.0062 0.024087 0.029598 0.02548 0.04474 0.014457 0.00964 0.0055 0.017898 0.015142 0.023409 0.025465 0.00894-0.015835 0.00413-0.037173-0.013087-0.042673-0.00619-0.018591-0.02822-0.02478-0.044043-0.015835-0.013079-0.0055-0.031665-0.014453-0.039921-0.01789 0.026842-0.00963 0.094976-0.03511 0.11907-0.045433 0.022713 0.017213 0.048181 0.033728 0.066768 0.028913 0.00275-0.01652 0.011252-0.030118 0.022709-0.053685 0.01824-0.037516 0.040961-0.072614 0.059535-0.094303 0.018591-0.021685 0.037421-0.00926 0.036134 0.020654-0.00309 0.072268-0.056429 0.18033-0.1349 0.18445-0.026827 0.00143-0.037488 0.00691-0.022713 0.026854 0.013764 0.018583 0.056441 0.020992 0.080185 0.00344 0.023744-0.017559 0.032004-0.016532 0.027185 0.00688-0.00482 0.023402-0.031697 0.032307-0.051618 0.033724-0.028909 0.00207-0.061949 0.012398-0.035102 0.037177 0.02685 0.024768 0.070894 0.011 0.10325-0.026161 0.011221-0.012902 0.020067-0.016551 0.019264 0.00413-0.00137 0.035787-0.022709 0.058512-0.044732 0.063327-0.022028 0.00481-0.044035 0.010622-0.037862 0.023398 0.010331 0.021335 0.044744 0.024779 0.064008 0.014461 0.019287-0.010327 0.039929-0.029602 0.044067-0.041299 0.00413-0.011701 0.012563-0.00504 0.010307 0.011012-0.00481 0.034417-0.028909 0.033716-0.028909 0.061941 0 0.02822 0.023413 0.055756 0.050929 0.086736 0.027551-0.03098 0.050949-0.058516 0.050949-0.086736 0-0.028224-0.024083-0.027524-0.028898-0.061941-0.00225-0.016047 0.00619-0.022713 0.010315-0.011012 0.00412 0.011697 0.024768 0.030972 0.044059 0.041299 0.019252 0.010319 0.053681 0.00687 0.064016-0.014461 0.00616-0.012776-0.015847-0.018587-0.037862-0.023398-0.022031-0.00482-0.043374-0.027539-0.044744-0.063327-8.071e-4 -0.020677 0.00804-0.017028 0.019276-0.00413 0.032339 0.037161 0.076398 0.050929 0.10324 0.026161 0.026846-0.024779-0.0062-0.035102-0.035095-0.037177-0.019925-0.00142-0.046807-0.010323-0.051634-0.033724-0.00482-0.023409 0.00344-0.024437 0.027185-0.00688 0.023744 0.017547 0.066433 0.015138 0.080185-0.00344 0.014783-0.019949 0.00411-0.025429-0.022717-0.026854-0.078472-0.00412-0.13182-0.11218-0.1349-0.18445-0.00128-0.029917 0.017543-0.042339 0.036146-0.020654 0.018567 0.021689 0.041284 0.056787 0.059528 0.094303 0.011449 0.023567 0.019957 0.037165 0.022717 0.053685 0.018583 0.00482 0.044039-0.011701 0.066752-0.028913 0.024106 0.010323 0.092232 0.035803 0.11908 0.045433-0.00825 0.00344-0.026842 0.01239-0.039909 0.01789-0.015831-0.00894-0.037858-0.00276-0.044063 0.015835-0.017201 0.0055-0.022008 0.026839-0.013071 0.042673 0.00552-0.010323 0.013756-0.019961 0.023402-0.025465 0.015146 0.011024 0.038547 0.00963 0.044744-0.014457 0.010996-0.00619 0.028213-0.013075 0.046799-0.021343 0.018878-0.00839 0.025461-0.00206 0.033732 0.00344 0.00826 0.00551 0.028902 0.018587 0.044748 0.028909 0.00755 0.027535 0.025453 0.035787 0.050221 0.030976 0.00965 0.00894 0.016531 0.024776 0.019272 0.037161 0.011721-0.00963 0.012409-0.030961 0.00276-0.046102 0.00276-0.029602-0.019272-0.045437-0.05987-0.037177-0.010331-0.00619-0.030969-0.018587-0.048185-0.028909 0.011697 0 0.062646 6.851e-4 0.088784 0.00139 0.017216 0.013067 0.044063 0.012386 0.053689-0.00551 0.011697-0.0062 0.028228 0 0.046114 0.00206-0.00618-0.02065-0.024768-0.031661-0.048512-0.0265-0.014461-0.013417-0.033047-0.013417-0.052661 0.0062-0.020638 0.00206-0.049559 0.00413-0.088783 0.00515 0.012382-0.00825 0.029925-0.020646 0.050587-0.033031 0.018587 0.0062 0.038197-0.00103 0.044382-0.015484 0.013429-0.012398 0.028913-0.0093 0.047504-0.0062-0.00206-0.029937-0.024787-0.033035-0.056787-0.020646-0.018587-0.010319-0.047484 0-0.05163 0.02374-0.012374 0.017559-0.037158 0.027882-0.065028 0.046469-0.035118-0.014457-0.079508-0.028909-0.12184-0.050591 0.00928-0.0093 0.018587-0.020657 0.028898-0.03098-0.068807-0.034405-0.12113-0.070205-0.14453-0.14454-0.00779-0.024721 0.00619-0.019272 0.012386-0.00344 0.011342 0.028968 0.029598 0.048177 0.0585 0.061256 0.020516 0.00928 0.032362-0.013768 0.017216-0.027535-0.015142-0.013768-0.028913-0.037161-0.029598-0.065386-4.921e-4 -0.02 0.02228-0.01739 0.026153-0.00688 0.033047 0.089476 0.073642 0.15074 0.10806 0.13559 0.034413-0.015142 0.018173-0.035142 0-0.044047-0.035102-0.017213-0.055055-0.069528-0.05713-0.096366-0.00206-0.02685 0.014461-0.026153 0.025472-0.00551 0.01102 0.020654 0.041287 0.059886 0.090847 0.11495 0.049555 0.055063 0.11839 0.067453 0.15624 0.034413 0.033405-0.029146 0.00128-0.047476-0.031658-0.039236-0.063331 0.015831-0.12872-0.049555-0.16795-0.15073-0.00606-0.015626 0.00552-0.018075 0.01239-0.00963 0.088098 0.10805 0.16176 0.11768 0.20373 0.081209 0.014728-0.012779 0.031681-0.053689-0.036465-0.040606-0.07363 0.01413-0.1177-0.041299-0.16932-0.11701-0.022949-0.033658-0.00207-0.034417 0.018587-0.014457 0.020638 0.019965 0.051614 0.043362 0.086024 0.064008 0.034417 0.020658 0.10393 0.017898 0.11289-0.023394 0.00894-0.041299-0.022031-0.039925-0.05576-0.028917-0.058591 0.019138-0.10186-0.021327-0.14384-0.069516-0.018736-0.021484-0.01102-0.034413 0.0055-0.026835 0.016512 0.007571 0.05576 0.02615 0.081213 0.039921 0.025476 0.013768 0.081221 0.023394 0.10806-0.013772 0.026843-0.037173-0.015142-0.059197-0.048854-0.035102-0.033732 0.024091-0.11634 0.002071-0.14868-0.04061-0.032358-0.042677 0.00413-0.034413 0.024083-0.024091 0.050587 0.026161 0.11358 0.028906 0.16795-0.010323 0.024677-0.017803 0.020862-0.030917 0.01239-0.045425-0.00482-0.008268-0.021346-0.010323-0.042677 0.002748-0.072362 0.044358-0.13009 0.035102-0.17344-0.024784-0.017295-0.02385 0.00412-0.025465 0.024083-0.015823 0.08428 0.040685 0.17069 0.015142 0.19616-0.045429 0.011953-0.028406-0.015142-0.060575-0.042669-0.02478-0.035677 0.04637-0.092937 0.0475-0.15143 0.039232-0.028087-0.003965-0.028358-0.039528 0.00139-0.043362 0.064-0.008256 0.16519-0.050256 0.19548-0.10187 0.02515-0.04285-0.025453-0.092917-0.052315-0.041988-0.026842 0.050945-0.083272 0.083972-0.14523 0.10325-0.02185 0.006799-0.029583 0.006201-0.030268-6.8504e-4 -9.921e-4 -0.009811-0.00828-0.026842-0.015161-0.022035-0.017201 0.00965-0.079142 0.030984-0.10943 0.041996-0.030287 0.011004-0.044039 0.038543-0.042669 0.064008 0.00137 0.025468 0.00826 0.070213-0.036488 0.070213-0.071575 0-0.041646-0.11563 7.008e-4 -0.15061 0.032685-0.027008 0.06813-0.040039 0.094976-0.039354 0.026839 6.8504e-4 0.058858-0.010331 0.061961-0.03463 0.00652-0.00139 0.018906-0.004472 0.031654-0.004472 0.00963 0 0.02787-0.009984 0.036835-0.017902 0.00894-0.007917 0.019591-0.020642 0.01065-0.028213-0.00896-0.007575-0.023059 0.005154-0.028559 0.015827-0.00551 0.010654-0.017374 0.018244-0.023398 0.018933-0.00892 0.001008-0.024264 0.003437-0.032524 0.005492-0.00827 0.002059-0.021685 0-0.025126-0.004122-0.00672-0.008079 6.85e-4 -0.012909 0.00981-0.016173 0.010457-0.003752 0.021504-0.002598 0.024784 0.004126 0.00229 0.004709 0.00637 0.008945 0.01376 0.00963 0.00826-0.046114-0.036472-0.044039-0.073646-0.041972-0.022031-0.035118-0.079157-0.011032-0.11839 0.007555-0.018587 0.00415-0.050244 0.002075-0.066071-0.004815-0.015827-0.006882-0.015142 0.00139-0.00964 0.008965 0.00551 0.007567 0.025468 0.021323 0.033728 0.023378 0.00826 0.002075 0.0055 0.006205 0.00276 0.00965-0.00871 0.010882-0.028236 0.021342-0.037177 0.022713-0.00894 0.001386-0.011697 0.0055-0.00689 0.008941 0.00481 0.003441 0.011697 0.007571 0.018587 0.009646 0.00689 0.002055 0.0062 0.004815 0.00207 0.010315-0.00853 0.011354-0.030992 0.022728-0.038547 0.021342-0.00757-0.001374-0.00825 0.002756-0.00551 0.006201 0.00276 0.003445 0.013067 0.008248 0.018587 0.008248 0.0055 0 0.00598 0.001047 0.00137 0.006886-0.00499 0.006335-0.016205 0.020039-0.026138 0.017173-0.013429-0.003878-0.016787-5.2362e-4 -0.012657 0.005154 0.00972 0.013382 0.00921 0.019205-0.010079 0.022421z"/>
    <path class="fil0" d="m1.2022 0.4129c-0.011319-0.005657-0.024094-0.007567-0.033732-0.003437-0.00963 0.004122-0.011697 0.013772-6.929e-4 0.017216 0.011016 0.003437 0.025472 0.003437 0.033043 0.00137 0.00757-0.002075 0.011004-0.010315 0.00138-0.01515z" fill="#ce1126"/>
    <path class="fil0" d="m1.567 0.4129c0.011327-0.005657 0.024087-0.007567 0.033732-0.003437 0.00963 0.004122 0.011701 0.013772 6.85e-4 0.017216-0.011016 0.003437-0.025453 0.003437-0.033028 0.00137-0.00757-0.002075-0.011016-0.010315-0.00139-0.01515z" fill="#ce1126"/>
  </g>
</svg>
