<?xml version="1.0" encoding="UTF-8"?>
<svg width="450" height="300" xmlns="http://www.w3.org/2000/svg" xmlns:xlink="http://www.w3.org/1999/xlink">
  <rect width="450" height="300" fill="#ce1126"/>
  <rect y="150" width="450" height="150"/>
  <path d="m199.32 114.66h19.616l6.0594-18.656 6.0594 18.656h19.616l-15.867 11.528 6.0594 18.656-15.867-11.528-15.867 11.528 6.0594-18.656-15.867-11.528z" fill="#f9d616"/>
  <path d="m302.62 142.35c0.50081 5.0846 0.50081 10.206 0 15.291l-14.928-1.4703c0.40447-4.1068 0.40447-8.2434 0-12.35l14.928-1.4702m-2.983 30.288c-1.4831 4.8892-3.443 9.6208-5.8515 14.127l-13.229-7.071c1.9453-3.6394 3.5283-7.4611 4.7262-11.41l14.354 4.3543m-14.347 26.84c-3.2412 3.9494-6.8627 7.5709-10.812 10.812l-9.5159-11.595c3.19-2.6179 6.115-5.543 8.7329-8.7329l11.595 9.5159m-23.526 19.307c-4.5059 2.4085-9.2375 4.3684-14.127 5.8515l-4.3543-14.354c3.949-1.1979 7.7707-2.7809 11.41-4.7262l7.071 13.229m-29.124 8.8346c-5.0846 0.50078-10.206 0.50078-15.291 0l1.4703-14.928c4.1068 0.40449 8.2434 0.40449 12.35 0l1.4703 14.928m-30.288-2.9831c-4.8892-1.4831-9.6208-3.443-14.127-5.8515l7.071-13.229c3.6394 1.9453 7.4611 3.5283 11.41 4.7262l-4.3543 14.354m45.284-149.28c4.8892 1.4831 9.6208 3.443 14.127 5.8515l-7.071 13.229c-3.6394-1.9453-7.4611-3.5283-11.41-4.7262l4.3543-14.354m26.84 14.347c3.9495 3.2412 7.5709 6.8627 10.812 10.812l-11.595 9.5159c-2.6179-3.19-5.5429-6.115-8.7329-8.7329l9.5159-11.595m19.307 23.526c2.4085 4.5059 4.3684 9.2376 5.8515 14.127l-14.354 4.3543c-1.1979-3.949-2.7809-7.7707-4.7262-11.41l13.229-7.071z" fill="#f9d616"/>
  <path d="m280.59 224.87 7.292-8.5516c3.8382 3.7143 9.0066 7.3758 12.755 10.703 3.7485 3.3268 6.6205 6.0924 8.9453 9.8717 3.4072 5.5389-0.41885 11.812-5.7242 8.1299-2.869-1.9912-4.6718-7.3666-9.067-11.815-3.2554-2.7713-5.8202-5.6765-14.002-7.0782-0.39283-0.06729-0.50774-0.89728-0.19886-1.2595z" fill="#f9d616"/>
  <path id="path13009" d="m291.41 222.3c5.4e-4 0.36009-0.19126 0.69308-0.50303 0.87329-0.31176 0.18021-0.69604 0.18021-1.0078 0s-0.50356-0.5132-0.50302-0.87329c-5.4e-4 -0.3601 0.19126-0.69309 0.50302-0.8733 0.31177-0.1802 0.69605-0.1802 1.0078 0 0.31177 0.18021 0.50357 0.5132 0.50303 0.8733z"/>
  <path d="m232.5 78.781-1.425 13.35c29.398 3.0832 52.425 27.69 52.425 57.9 2e-5 32.292-26.208 58.5-58.5 58.5-14.079-2e-5 -26.802-5.2037-36.9-13.5l-8.55 10.425c12.426 10.202 28.129 16.575 45.45 16.575 39.744 0 72-32.256 72-72 0-37.171-28.333-67.441-64.5-71.25z" fill="#f9d616"/>
  <path d="m231.36 197.85 20.247 11.972 4.4016 17.078 23.24-1.7606 10.212-11.972-37.854-26.234-20.247 10.916z"/>
  <path d="m279.66 223.69c-26.035-17.314-42.591-26.663-67.542-40.85-9.8016-5.573-25.023-19.582-13.016-43.02 0.75586 15.387 61.569 57.623 87.265 75.988l-6.7071 7.8826z" fill="#f9d616"/>
  <path d="m216.09 167.52c20.046 18.891 45.29 34.302 67.812 51.335" fill="none" stroke="#000" stroke-linecap="round" stroke-width="1.5"/>
  <use transform="translate(7.4196 6.4656)" xlink:href="#path13009"/>
  <use transform="translate(13.938 13.09)" xlink:href="#path13009"/>
</svg>
