<?xml version="1.0" encoding="UTF-8"?>
<!DOCTYPE svg  PUBLIC '-//W3C//DTD SVG 1.1//EN'  'http://www.w3.org/Graphics/SVG/1.1/DTD/svg11.dtd'>
<svg width="1500" height="1e3" version="1.1" viewBox="0 0 24000 16000" xmlns="http://www.w3.org/2000/svg" xmlns:xlink="http://www.w3.org/1999/xlink">
  <title>Flag of Barbados</title>
  <rect width="24000" height="16000" fill="#00267f"/>
  <rect x="8e3" width="8e3" height="16000" fill="#ffc726"/>
  <path id="h" d="m12000 4124c-260 709-525 1447-1092 2012 176-58 484-110 682-105v2982l-842 125c-30-3-40-50-40-114-81-926-300-1704-552-2509-18-110-337-530-91-456 30 4 359 138 307 74-448-464-1103-798-1739-897-56-14-89 14-39 79 844 1299 1550 2832 1544 4651 328 0 1123-194 1452-194v2104h415l95-5876z" fill="#000"/>
  <use transform="translate(24000) scale(-1 1)" xlink:href="#h"/>
</svg>
