<?xml version="1.0" encoding="UTF-8"?>
<!-- Generator: Adobe Illustrator 15.1.0, SVG Export Plug-In . SVG Version: 6.00 Build 0)  -->
<!DOCTYPE svg  PUBLIC '-//W3C//DTD SVG 1.1//EN'  'http://www.w3.org/Graphics/SVG/1.1/DTD/svg11.dtd'>
<svg width="1e3px" height="500px" enable-background="new 0 0 1000 500" version="1.1" viewBox="0 0 1e3 500" xmlns="http://www.w3.org/2000/svg">
  <rect width="1e3" height="500" fill="#c00"/>
  <rect width="500" height="250" fill="#006"/>
  <g transform="scale(8.3333)">
    <path d="M0,0v3.354L53.292,30H60v-3.354L6.708,0H0z M60,0v3.354L6.708,30H0v-3.354L53.292,0H60z" fill="#fff"/>
    <path d="M25,0v30h10V0H25z M0,10v10h60V10H0z" fill="#fff"/>
    <path d="M0,12v6h60v-6H0z M27,0v30h6V0H27z" fill="#c00"/>
    <path d="M0,30l20-10h4.472l-20,10H0z M0,0l20,10h-4.472L0,2.236V0z M35.528,10l20-10H60L40,10H35.528z M60,30L40,20h4.472L60,27.764V30z" fill="#c00"/>
  </g>
  <path d="m639.43 120.96v211.37c2.502 30.263 65.572 49.315 109.54 81.457 57.677-38.685 113.62-46.51 115.87-89.882l0.702-202.94h-226.11z" fill="#fff"/>
  <path d="m639.41 329.3 2.362 12.071 7.872 9.448 56.95 36.738 41.727 25.983 81.355-44.352 28.081-21.521 5.512-28.08-3.413-6.56 0.788 6.823-2.101 5.511-2.36-1.576-1.574-10.234-0.264 7.609-3.936 4.464-0.787-5.514 1.05-3.935-1.575-4.461-0.525 8.922-2.099 3.938-1.838-2.626 0.788-3.938-0.262-3.672-1.313-1.839-0.264 3.938-0.786 1.311 0.263 2.361-1.575 1.576-1.05-3.148 0.526-2.889-0.526-2.622-1.05-2.889 0.264 4.725-2.625 5.773-2.1 1.312-1.312-1.575 0.264-5.511-1.838-3.148 0.524 6.823-2.623 6.037-1.574-1.839-0.79-1.836v-2.889l2.889-7.347-2.889 2.625-2.36 6.297-1.05 1.836-1.312-3.148 1.838-7.086-1.051-1.31-2.361 8.659-2.101 1.312-1.574-0.526-1.049 0.526-127.02 7.086-3.412-4.987-0.786 4.987-2.101 1.836-2.098-9.186-1.575 9.712-2.101-4.724 1.051-10.762-1.051-0.786-1.573 5.773v8.136l-0.788 5.511-1.575-1.05-2.099-4.986-0.262-8.137 0.786-5.773-2.099 6.823v8.399l-0.262 4.197-2.626-5.773-1.312-4.725-2.624-5.51 1.575 7.086v3.675l-4.462-3.938-2.361-11.021-0.525 8.136 1.05 3.935-1.312 1.576-2.624-4.725-1.574-6.297-1.837-6.037v9.709l1.312 5.25-1.05 1.313-2.099-1.05-0.788-5.776-0.526-8.396-2.098 5.773-0.526 6.034-0.787 4.725-1.312 3.151-3.674 0.269z" fill="#2F8F22" stroke="#000" stroke-width=".3804"/>
  <path d="m754.47 125.54-5.256 4.191-5.521-0.067-0.931 1.862-0.066 2.595-0.665 0.799-0.133 1.396h-3.061l-2.062-1.264-0.598 0.797-2.062 5.787-1.196 0.799h-1.397l-1.862 1.663h-1.862v1.663l1.795 2.262 1.397 1.064 0.532 2.395 1.331 2.062-1.863 1.797-1.463 1.528-0.732 1.132h-0.599l-0.398-1.331-0.666-1.531-1.662 0.932-1.529 1.064 0.065 1.663 2.461 3.126 2.328 0.133-2.062 3.925h-0.331l-0.134-2.329-1.063-0.864-0.665 0.134-1.53 0.997-1.063 1.596-0.268 0.998-0.532 0.932-0.665 1.529 0.2 1.397 1.13 1.53 1.198 0.998 2.461 0.798 0.864 0.2h4.324l-1.265 2.794-1.129 3.059-1.397 2.594-0.865 0.333-0.399-0.532v-1.397l1.663-3.792-0.134-1.264-0.997 0.399h-1.265l-0.599-0.399-2.594 2.128-1.73 2.528-0.398 1.862 0.533 2.594 1.529 2.728 1.265 0.931 0.931 0.399 0.333 0.465-0.466 0.931 0.998 1.065 1.795 0.797-0.532 0.798-1.396 1.397-0.865 1.265-0.665 1.795 0.731 2.395-0.731 1.263-1.664 0.6-2.527 0.531-1.662 0.799-0.4 1.729-0.932 1.597-3.325 1.198-2.661 0.333-2.859 0.332h-1.596l-0.865-1.331v-2.128l-1.464-2.46-1.529-1.796-2.594-0.997-1.797-0.2-1.729 0.533-1.396 1.663h-1.198l-1.796-2.196-1.463-1.064-0.864-0.132-1.597 0.465-3.061 3.192-1.596-0.133-1.93-1.263-1.929 1.131-0.931 0.332-1.663 1.597-0.067 2.195 0.999 2.594 0.931 0.997 1.063 0.266 0.399 2.195 0.598 0.999 2.463 2.395-1.796 2.461-0.333 1.596-0.066 2.795 0.399 1.396 3.458 4.59-0.198 0.997-3.26 2.396-2.993 2.86-0.931 2.328 0.064 1.662 0.133 0.398-2.992 2.195-0.267 2.528 0.601 4.259 1.329 1.861 2.062 1.331 1.796 0.599 2.328-0.199 1.861-1.132 1.198-1.063 0.332-3.06 2.195 1.529 2.595 3.26 1.928 2.993 0.067 0.798-2.928-0.066-1.13-0.332-2.993 0.133-1.729 0.666-1.53-0.068-0.798-0.332-1.996 0.999-3.791 1.862-2.994 1.729-1.196 0.133-1.729 1.397-1.33 0.266-2.129 2.595-0.531 1.729 0.199 3.192 0.997 2.129 0.199 3.659 0.466 0.729-0.267 2.396-1.196 1.662-0.199 1.197-0.666 1.598-0.997 1.396-0.134 3.592-0.598 3.459 0.199 4.657 0.199 4.59-1.397 2.859-1.13 1.464-0.268 1.73-0.398 1.196h1.729l0.866-0.731-0.267 1.463 3.392-3.459 0.267 1.531 1.53-1.198 0.133-2.661-0.068-1.331 0.866 2.129 0.532 0.532 1.131-1.063 0.266-1.198 0.599 2.195 0.665 0.732 1.597-1.796 0.201-4.258-0.999-2.794 0.267-0.266 1.595 3.792 0.665 1.33 1.464 2.195 0.666 2.527 2.261-0.399 1.064-6.585 1.73 5.587 2.195 8.447 1.397 4.857 1.729 2.925 1.063 3.259 1.531 2.462 2.394 3.193 2.527 1.93 3.261 0.998 4.389 0.065 0.068 1.663-1.664 1.53-0.666 1.397-1.795 2.993-1.198 1.132-4.456-0.068-2.595-1.196-1.397-0.334-2.926 0.534-2.261 1.729-1.065-0.067-2.262 1.063-1.13 1.466-0.531 1.929-1.464 2.328-0.667 1.397 0.6 1.927-0.799 1.465-0.199 5.454 1.265 3.191 2.062 2.13 1.396 0.931 0.799-0.398-0.2-3.525 0.732-1.864 1.464 0.866 2.195-1.063 1.795 1.397-0.665 2.461 0.267 2.993 1.33 3.259 2.327 2.993 1.796 1.396 0.134-0.797-0.134-6.852 1.531-1.333 1.862-0.064 2.194-1.664 1.131-0.266 1.063-0.798 0.135-1.196 0.931 0.331 0.599 2.195-0.133 2.461-0.399 0.334 0.466 0.729 0.199 0.668h1.729l4.191-3.859 0.997-2.328 0.332-3.66 0.866-0.665 0.064-0.931-0.798-1.462 1.065-0.267 0.133 0.464h1.397l2.194-1.395 1.196-1.465 0.932-0.266 4.856-4.923 3.458 1.265 5.322 2.062 3.725 0.931 0.865 0.467 1.664 0.064 1.595 0.866 1.863 2.393 0.531 0.934-0.598 0.331-1.996-0.995-0.798 0.33-2.262 1.93-0.066 3.726 2.129 2.659 4.723 0.334 2.062-0.999 1.795 0.999 2.395-0.999 2.195-0.732 3.061 1.132 1.596 0.398 1.529-0.266 1.397-1.063 2.195 0.334 2.062-0.068 1.33-0.999 1.133-1.796 0.597-1.395-0.266-1.864-1.13-1.33-1.396-0.531h-1.464l0.198-0.798 1.997-1.196 7.05-3.661 1.331-0.198 1.929-1.396 1.861-0.134 2.994-2.328 1.131 0.598 1.197 0.998 2.328 2.195 1.598 2.263 1.13 0.863 1.329 2.396 1.73 1.861 1.265 0.797 1.462 0.201-0.931 1.463-0.398 1.53 0.465 2.263-0.798 2.728v3.19l1.064 2.795 1.331-0.931 4.721-4.458 1.664-0.198 1.663-1.199 0.864-2.526 0.533-1.596 0.731 1.064 1.063 2.658 2.129 2.131 1.464 0.597 0.133 3.193 0.066 3.393 0.731 0.266 2.461-1.729 2.062-2.526 1.331-3.129 0.398-3.058-0.6-2.662-0.199-1.796 0.664-1.861 2.131 2.26 1.729 0.866 0.732 5.188 1.662-0.865 1.995-2.261 1.797-2.727 0.465-3.061-0.332-4.523-0.665-4.391-2.594-3.59-1.065-0.266-1.196-1.466-0.199-0.931-3.394-2.662-2.66-0.531-2.328 0.865-1.197 1.994h-0.799l-2.728-2.26-0.133-1.664-1.329-1.329-0.068-0.532 1.53-1.199 1.73-0.198 2.859-1.462 2.396-1.797 2.062-2.662 1.797-2.727 0.598-3.191 1.264-3.592 1.929-6.188 1.331-5.454 1.662-0.798 2.062-0.866 1.729-1.662 0.997-0.2 0.798-1.463 0.999-0.066 0.266-1.996 0.599-0.931 1.198-0.465s0.332 3.06 0 3.392c-0.333 0.332-2.396 4.391-2.396 4.391l-0.666 2.66-0.131 0.798 1.862 0.334 2.127-0.865h1.065l2.328-2.661 2.062-3.925 0.731-3.99 0.864 1.263 0.199 2.129-0.731 3.259-0.599 2.795-0.664 0.931 0.598 1.198 1.73-1.132 1.729-0.398 4.855-5.388 1.996-6.984v-6.785l-0.665-0.731 1.063-1.197-0.133-2.396-0.731-2.127-1.196-1.265-2.129 1.596-1.331-0.199-1.463-2.728-0.2-4.058-0.532-0.665 0.199-1.529 1.198-2.328 0.065-3.459-1.328-3.325-1.997-2.463-1.529-0.53-1.93-0.2-1.597-1.131-0.931-0.333-1.464 0.134-1.396-1.73-2.128 0.066-1.198-0.798-1.13 0.533s-2.195-0.6-2.595-0.666c-0.398-0.066-1.597-0.066-1.597-0.066l-1.93-1.663-0.598 0.398-2.328-0.133-3.526-1.13 0.334-0.999 2.727-2.395 1.797-0.731 2.594 2.261 2.061 1.531 2.729 0.73 3.259-0.997 2.062-2.195-0.532-2.063-0.6-4.921-2.395-3.125-1.13-5.655-2.527-3.591-0.798-1.53-0.268-1.796 0.467-2.062 3.791-1.995 1.397-2.261-0.599-3.261-0.865-2.86-2.528-3.858 1.93-2.26 1.13-2.861 0.267-1.529-0.267-1.863-0.864-1.197 0.532-0.533-0.532-1.131-2.993-0.931-2.261-0.864-1.065 0.533-2.927-0.333-1.464 0.732-2.794 1.196-2.991 1.464-2.329 0.266-4.256 2.728-2.862 1.263-5.188-0.199-2.195-0.399-4.125-4.058-0.864-0.267-0.332-1.596-1.132-0.466-1.861 0.931 0.399-2.062-0.533-2.527-1.994-3.26-1.664-0.931-2.859-0.865-0.798 2.129 0.265 3.059-1.197 0.732-0.531-0.067 0.066-2.129 0.133-3.658-0.866-2.395-1.795-3.593 0.399-0.333 1.663 3.393 1.663 0.533 2.128 0.864 2.396 0.532 2.793-0.732 1.197-1.263 1.664-2.395 0.133-2.461-1.863-2.395v-1.131l0.8-1.264-1.132-1.263-2.594 0.133-1.598 1.664-0.664 1.995v0.865l-1.065-0.333-0.731-1.796-0.864-3.858-0.865-1.131-0.798-1.996-1.663-2.661 2.527 3.393 1.265 1.463 2.727 1.33 1.597 0.533 2.262-0.533 2.128-0.599 0.865-1.93 0.931-2.128v-1.463l0.399-0.399-0.931-1.131-0.864-4.922s-1.531 0.332-1.93 0.665c-0.398 0.333-1.397 1.995-1.397 1.995l-0.599 1.265-1.397-0.599-1.329-1.928-1.132-1.131-0.531-0.134-0.267-0.532h0.798s0.467 0.266 1.663-0.665c1.197-0.931 2.195-1.33 2.195-1.33s0.599-0.4 0.933-0.666c0.331-0.266 1.462-3.858 1.462-3.858l-0.133-1.664-1.663 0.932-2.127 1.53-2.131-0.2-2.859-2.661 0.267-0.797 1.995-1.332 1.198-2.792 1.33-4.657s-0.333-0.266-1.064-0.398c-0.731-0.134-1.396-1.464-1.396-1.464l-1.397-0.864-1.796-1.597v-6.718l-2.195-0.466-4.855 0.533-1.198-2.727-0.665-1.131-0.398-1.863-2.195 0.666-2.993 1.064-1.065-0.067-1.396-1.13-1.198-0.399-1.662-1.198-1.997-1.397z" stroke="#000" stroke-width=".3804"/>
  <path d="m639.43 120.96v211.37c2.502 30.263 65.572 49.315 109.54 81.457 57.677-38.685 113.62-46.51 115.87-89.882l0.702-202.94h-226.11z" fill="none" stroke="#000" stroke-width="6.8466"/>
  <path d="m753.42 162.12c-0.259 5.733-5.183 4.529-6.59 2.961-1.353-5.242 6.501-6.679 6.59-2.961z" fill="#D40000" stroke="#000" stroke-width=".3804"/>
  <path d="m756.09 161.79c0.513 4.528 5.706 5.157 6.689 3.26 1.716-4.324-4.731-7.071-6.689-3.26z" fill="#D40000" stroke="#000" stroke-width=".3804"/>
  <path d="m752.9 157.42v0.992l-0.546 0.1-0.198-0.248-0.148-1.539-0.298-0.148v-0.695l0.694-0.049v-0.646h-0.843l-0.299 0.646-0.15 0.893 0.35 0.745-0.35 0.596-0.644 0.347-0.894 0.845-0.597 0.297-1.39 0.149-1.141-0.547-1.144-1.092s-0.496-0.794-0.546-0.993c-0.049-0.198-0.348-0.893-0.348-0.893l-0.299-0.745-0.546-0.596-0.844-0.1-0.248 1.043-0.297 0.397-0.696 0.099-0.743-0.645-0.497-0.844-0.547-1.093-0.447-0.745-0.645-0.942-0.299-0.546-0.297-1.292-0.746-0.943-0.496-0.794-0.793-0.645-0.845-0.646h-0.993l-0.646-0.496-0.941-0.894-0.696-0.943-0.445-0.546 0.099-0.497 0.347-0.448 0.745-0.446 0.744-0.05 0.845-0.198 0.844-0.447 0.149-0.596 0.149-0.993 0.893-1.589 0.397-1.142 0.05-0.893 1.291-0.199 1.242 0.149 0.893 0.249 0.943 0.297 1.092-0.546 0.894-1.143 0.297-1.985 0.397-1.837 0.448-1.042h2.285l0.792 0.546 0.646-0.297 0.595-0.298 1.441 0.148h0.744s0.596-0.943 0.845-1.092c0.247-0.149 1.439-1.738 1.439-1.738l1.539-0.397 0.794 0.1 1.093 1.242 0.893 0.546 0.795 0.05 1.887 1.241s0.596 0.496 0.795 0.396c0.198-0.099 1.888-0.844 1.888-0.844l1.487-0.099 1.59-0.546 0.546 1.24s0.795 1.887 1.043 2.086c0.249 0.198 1.241 2.084 1.241 2.084s0.497-0.248 0.746-0.298c0.247-0.049 1.389 0.249 1.389 0.249l3.277 0.149 0.447-0.497 0.346 0.596-0.445 2.284 0.198 1.738 0.596 2.334 0.744 1.092 0.994 0.049 1.291 1.093 0.05 1.092-0.993 0.348-0.894-0.298-1.144 0.645-1.786 1.042-1.491 1.49-1.289 1.836-0.845 1.837-0.843 0.596-0.746-0.298-0.745 0.049-0.347 0.894-0.745 0.893-0.646 2.284-1.39 1.539-1.44 0.695-1.042 0.795h-0.694l-1.192-1.143-0.546-0.496-0.148-1.787-1.144-0.895h-0.845l1.242 0.994 0.05 1.34-0.694 0.595-0.349-0.099-0.346-0.695h-0.399l-0.05 1.34-1.489 1.738-1.489-1.241-0.05-1.589-0.743-0.146z" fill="#D40000" stroke="#000" stroke-linejoin="round" stroke-width=".3804"/>
  <path d="m744.06 144.41v1.737l-0.646 1.042h-1.142l-0.694 0.745-0.199 0.596 1.291 1.191 1.191 0.844 0.496 0.597 0.299 0.148 4.965-0.05 0.595 0.596 1.093-0.794 1.342-2.036 4.22 0.05 2.233 1.638 0.149 1.341 0.497 0.199 1.19-1.042 0.993-0.049 0.496 0.645h0.895l2.929-2.632 0.497-0.695 1.092-0.05-0.148-0.844-1.191-0.298-1.042-1.042-0.299-1.738-0.943-0.148-1.638 0.844-2.83 1.39-0.944 0.695-0.844 0.049s-0.347-0.297-0.546-0.297h-1.092l-0.895 0.745h-0.695l-0.248-0.249-3.823-0.298-3.177-0.794-1.64-1.092-1.042-0.844-0.299-0.297-0.446 0.197z" stroke="#000" stroke-width=".3804"/>
  <path d="m746.45 148.98h2.184l0.546 0.447v0.595l-1.042 0.447-1.838 0.099-1.291-0.198-0.895-0.795-0.197-1.588 1.19-1.341h1.143l0.1 0.447 0.1 1.887z" fill="#FFFCFC" stroke="#000" stroke-width=".3804"/>
  <path d="m761.04 148.88-0.347 0.297v0.596l0.445 0.298 2.186 0.1 2.383-1.886 0.05-0.746-1.438-1.241h-1.242l-0.199 0.347 0.299 0.646 0.396 0.596-0.396 0.794-2.137 0.199z" fill="#FFFCFC" stroke="#000" stroke-width=".3804"/>
  <path d="m728.59 144.88 2.218 0.071 1.146 1.719 1.002 1.073 1.001 0.788 0.86 0.142 1.646 2.434v0.287l1.287 1.145 0.359 1.502 0.143 0.501-0.072 0.644-0.716 0.43-0.859-0.144-0.501-0.358-1.573 1.36-1.003 1.36-0.644 0.144-1.719 1.86-0.858 0.287-1.36 1.002-2.147-0.072-1.359-1.646-0.285-0.645-0.072-1.288 1.217-0.859 0.572 0.644-0.285 0.644 0.07 0.788 0.717 0.286 0.715-0.072 2.577-2.219 0.644-0.358 1.503-1.502 0.931-0.501-0.071-0.93-1.074-1.646-0.357-1.145-0.286-1.074-0.285-0.788-1.003-1.144-0.573-0.645-0.215-0.644-1.001-0.788-0.286-0.144v-0.499h-4e-3z" fill="#D40000" stroke="#000" stroke-width=".3804"/>
  <path d="m771.67 153.26h1.146l1.217-0.573 0.931-0.787h0.858l0.573 0.572 0.931-0.071 0.572-0.716 0.215-0.859 0.787-1.073 0.215-1.074 0.716-1.503 0.215-1.074-1.789-0.071-2.076 1.79-1.575 0.071-1.288 1.36-1.001 0.142-1.074 1.575-0.357 0.931 0.143 0.931 0.641 0.429z" fill="#a00" stroke="#000" stroke-width=".3804"/>
  <path d="m749.56 167.64-1.361 1.36-0.357 1.216 0.572 1.216 1.289 0.215 0.931-0.5 0.858 1.001 0.143 1.718 1.718 1.86 0.787 0.215 0.645-0.716 0.715-0.716 0.072-0.715 1.146-0.501 0.286-2.147 0.645 0.786 1.072-0.644 1.361-0.142v-1.79l-0.501-1.216-1.075-0.788-1.645-0.716-1.789-0.644-0.859 0.072-1.577 0.932-1.717 0.571-1.359 0.073z" fill="#D40000" stroke="#000" stroke-linejoin="round" stroke-width=".3804"/>
  <path d="m760.33 167.2 2.584-0.118c1.773-1.15 2.54-5.833 3.76-8.928 1.893-2.454 4.217-3.188 7.05-1.88l1.645 0.47 2.114 1.644h1.526l1.059 0.235 1.645 0.118 2.938-2.35-0.117 2.467-1.998 1.762-4.112 1.528-3.173-1.879-0.117 0.47 6.815 7.518h0.587l1.175 1.175 0.587-0.47 0.118-1.997 2.351-2.114 0.234 3.054 0.822 1.527v2.937l-2.232 2.82-3.524 0.47-4.112-2.584-0.117-1.175-3.761-4.347v1.88l2.233 4.582 0.352 1.762 0.823 0.823 0.588 1.411v1.762l1.056 2.467 1.88 0.234 0.472-1.174v-1.645l1.997-1.998 1.293-0.117 0.47 0.705-0.588 0.587-0.235 1.293v0.822l1.645 2.232 0.471 1.41-2.468 3.759-1.646 0.471-2.936-0.471-1.763-1.174h-0.94l-2.703-4.113-0.351-1.997-3.643-5.757-0.119 1.175 1.412 1.763 0.704 2.702 0.704 4.817 2.115 4.112 0.117 7.637 0.706 0.822h0.938l1.176-0.939 0.939-1.292-0.235-4.465h1.293l2.232 1.293 1.645 2.702 0.587 1.175v2.467l-0.821 0.117-1.646 1.763-2.703 1.174h-4.698l-1.057-0.939h-0.94l-0.704-0.705h-1.293l-3.644-5.169-0.116-8.577 0.47-1.879v-2.585h-0.587v2.585l-0.589 1.646-0.117 2.349 0.117 6.462 3.877 6.227 2.82 1.41 0.823 0.94h-1.293l0.118 0.94-1.059-0.235-0.234 0.47-0.587-0.235-1.059-0.706-1.41 0.236-0.938 0.47h-2.467l-1.059-2.115-0.821-1.645-2.82-2.585h-2.115l-0.47-1.527 0.353-2.702 0.589-2.467v-6.58l-0.472 7.52-1.291 4.229-0.471 0.353-0.118 4.816 0.823 2.233 3.289 3.642-2.232 0.235-1.645-0.704-1.763 0.351-2.701-0.587-3.056-1.057-1.997-1.997-0.94-2.233-0.353-2.231-0.47-2.35 0.47-1.879 0.235-1.88-0.939 2.114v5.052l-1.293-0.352v-1.41l-1.057-1.41-0.234-1.88-0.353-2.819-0.119-4.582 0.119-2.82 0.587-3.172-0.47-0.118-0.354 3.996-0.234 7.871-0.822 0.236-1.879 2.584h-4.231l-1.645-1.409 3.173-3.408-0.352-2.702-0.354-3.171-0.352-5.405-3.643 3.877-4.111 2.938h-3.525l-1.997-2.468-0.354-2.819 0.236-1.998 2.114-2.82 1.526-0.234 0.589-0.588 0.352 0.47-0.821 2.35-0.823 1.762 0.704 1.645 1.999 0.235 2.584-3.994 1.997-4.7 1.527-2.35v-1.292l-1.408 1.057-1.646 0.353-4.816 0.118-2.819-1.763-0.471-1.41 0.117-1.292 0.119-1.762 3.054-1.998 0.117 4.229 1.999-1.645v-0.822l2.584-3.408 6.227-5.521h3.76l2.231 1.645 0.939 0.235 2.703 2.585 0.117 3.289 3.173 2.585-1.88 2.232 0.115 1.176 1.765 1.292 1.644-0.47 0.705 4.347 1.997 1.175 1.057 0.117 3.996-4.7 1.763-0.234 1.057-2.35-0.472-1.88-0.468-1.064z" fill="#D40000" stroke="#000" stroke-linejoin="round" stroke-width=".3804"/>
  <path d="m715.17 208.04v0.689l1.381 1.873-0.099 1.972-7 3.549-3.054 0.198-1.579 1.478-4.042 1.282-1.773-0.395 0.295-0.985 0.197-1.676-0.197-0.986-1.281-0.69v-1.579l1.577-0.492-0.494-0.689-0.887-0.1 0.198-2.069 0.394-0.788 0.099-0.494-0.099-0.986-0.394-0.887-1.085-0.297-3.154 1.283-0.493-0.494-1.479 1.577-0.789 0.099-0.098-1.282-1.577-2.071v-0.395l-2.957-0.492-2.071 2.662h-1.479l-1.083-0.788h-0.889l-0.984 0.59-0.593-0.196-0.887 1.578h-0.492l-0.593-1.283-0.788-1.281-0.295-0.79 0.395-1.576 1.281-0.789 1.575-0.79 1.186-0.196 1.379 0.789 0.592 1.28 1.775-1.675 1.773-1.972 1.478-0.591 1.874 0.295 2.071 2.761 1.97 0.196 2.367-1.676 0.887-0.493 2.17 0.296 2.169 1.183 2.267 3.351 0.395 3.253 0.492 0.888 3.943-0.297 4.14-0.788 2.365-0.094z" fill="#D40000" stroke="#000" stroke-width=".3804"/>
  <path d="m682.84 207.94 1.282 2.266-0.098 4.042-0.494 0.494-1.872-1.578-0.987-1.379-0.986-1.676v-1.478l0.986-0.789 1.281-0.295 0.888 0.393z" fill="#5656A6" stroke="#000" stroke-width=".3804"/>
  <path d="m686.78 214.44 2.858-5.914v-1.577l-1.085-1.579h-1.479l-1.576 1.479v5.225l1.282 2.366z" fill="#5656A6" stroke="#000" stroke-width=".3804"/>
  <path d="m691.71 214.44 1.578-0.689 3.845-3.648 0.591-1.084-0.297-0.887-1.083-0.789-0.689-0.197-1.578 0.69-0.887 0.887-1.775 3.154 0.295 2.563z" fill="#5656A6" stroke="#000" stroke-width=".3804"/>
  <path d="m698.52 217-1.381 0.987-1.578-0.099-2.857-1.972 0.098-0.395 1.774-0.296 1.577-0.69 1.577 0.098 0.889 0.789 0.294 0.888-0.393 0.69z" fill="#5656A6" stroke="#000" stroke-width=".3804"/>
  <path d="m687.97 217.7 2.661 2.464 1.973 1.281 1.577 0.591 1.972 1.085h4.141l3.745-0.395 1.873-0.69 3.647-0.099 2.958-1.38 2.168-1.478 2.168-0.098 1.186-1.184h1.576l3.153-2.366 4.438-1.97 4.633-1.676 5.029-0.986 2.069 0.098 0.788 0.591 0.987 1.676 0.393 0.789-0.492 1.676-1.872 1.085-0.395-1.184 1.182-0.986-0.295-0.591-1.874-0.296h-1.282l-1.181 1.183-0.198 2.662 1.577 1.379 1.676 1.085 1.479 0.099 1.775-1.083 2.366-2.071 1.379-2.366-0.395-3.45-0.788-2.17-2.366-1.774-2.957-1.184-5.126 0.1-3.056 0.788-1.184 0.395-3.252 2.168-1.479 0.099-3.253 2.168-1.283 0.492-1.479 0.591-2.267 0.987-4.339 1.97-2.956 1.775-1.479 0.198-3.449 2.168-4.93 0.395-0.887-0.494-2.268-0.295-1.479-0.593-1.478-0.788-2.069-2.464-0.593-0.395h-1.873l-0.591 0.79 0.296 1.678z" fill="#DFDA4D" stroke="#000" stroke-width=".3804"/>
  <path d="m717.54 203.6-1.085 4.831 1.281 1.38-0.099 1.577 0.689 0.69 1.282-0.69 1.281-0.887 1.281-0.494 1.479-0.788 0.196-0.888 1.577-0.788 1.677-0.494 2.168-0.591 2.17-0.296-1.577-1.085-4.535-2.956-1.874-0.198-0.69 0.591-2.66 0.099-1.478 0.394-1.083 0.593z" fill="#D40000"/>
  <path d="m739.33 198.77-3.154-0.099h-2.072l-1.675-0.689-1.38-1.38-0.197-1.282-0.985-1.577-0.986-0.986h-1.479l-2.069 1.38-0.888 1.774-0.196 2.859 1.182 2.464 3.943 2.958 2.268 0.492 1.579-0.688 3.547-1.578 2.268-1.478 0.791-1.282-0.497-0.888z" fill="#D40000" stroke="#000" stroke-width=".3804"/>
  <path d="m731.74 194.23 1.773-1.872 0.099-4.24-0.493-0.394 0.493-1.676 0.197-1.38h-0.69l-3.845 3.647-2.662 0.394-1.378 0.79-0.1 0.985 1.085 0.69 1.972-0.197 1.083 0.099 2.466 3.154z" fill="#D40000" stroke="#000" stroke-width=".3804"/>
  <path d="m733.31 205.37 3.449-0.296 2.761 0.198 1.38 0.395 2.761 1.478 1.578 0.79 3.056-0.198-1.183-1.478-1.184-1.479-0.79-1.479-0.196-1.478-0.688 0.197-0.79-0.197-0.985-1.281-0.591-1.874-0.396-2.464-0.787-0.1-0.593 1.183 0.593 0.591 0.59 1.183-0.986 1.281-0.098 0.987-1.281 0.986-1.775 0.789-1.676 0.689-1.873 0.69-0.296 0.887z" fill="#D40000" stroke="#000" stroke-width=".3804"/>
  <path d="m745.34 209.42 0.592 4.929-1.084 3.055 2.268 0.099h2.66l2.366-0.494 2.268-0.197 2.071 0.099 1.676 0.197 2.069-0.788 0.099-1.577-0.493-1.38 0.985-3.057-0.395-0.69-15.082-0.196z" fill="#D9D24D" stroke="#000" stroke-width=".3804"/>
  <path d="m758.55 200.84 0.099 4.239 1.479 1.282h1.379l1.085-0.591 0.296-0.887-0.986-0.591-0.395-1.183-2.07-2.268h-0.887v-1e-3z" fill="#D40000" stroke="#000" stroke-width=".3804"/>
  <path d="m774.62 204.19 4.238 2.859 1.282 0.395 1.183-0.395 1.971-1.577 0.985-2.169 0.1-1.576-0.985-0.099-1.577 1.085-2.268 0.197-1.774 0.295h-1.381l-1.381 0.296-0.393 0.689z" fill="#D40000" stroke="#000" stroke-width=".3804"/>
  <path d="m786.84 200.94-0.787 1.282-0.789 1.971-1.775 1.874 0.099 1.379h-0.79l0.101 1.085 1.378 1.083 3.846 0.591 3.057-3.942v-1.085l-1.677-1.972-1.184-0.295-1.479-1.971z" fill="#D40000" stroke="#000" stroke-width=".3804"/>
  <path d="m804.78 211.98 1.973 0.986v0.69l-0.789 1.085-0.492 2.069-0.198 1.282-2.366 0.099-2.464-0.887-1.381-0.887h-1.281l-0.69-0.591-1.182-0.789-1.48-0.987-1.576-2.069-1.084-1.38v-0.986l1.479-1.873 1.479-0.492h6.605l3.055-1.085 2.464-2.07 2.958-0.591 0.69-0.789 1.972-0.395 4.929-2.563 2.76 0.492 2.761-0.098 2.365 0.689 0.888 0.789-0.493 0.296-1.281-0.099-1.479 0.789-0.198 2.662 1.183 2.168-0.295 0.592-1.479-0.099-0.985-0.494-0.494-0.887v-0.887l-0.984-1.38-0.789-0.295h-1.773l-0.592 3.745h-0.889l-1.674-1.478-2.466-0.297-1.676 1.479 0.591 1.972 2.466 2.366h1.281l1.183 1.379-0.1 1.084-1.773-0.395-1.775-0.393-1.478-0.692-1.184 0.198-1.38-0.79-1.38-0.59-0.887-0.395-0.595 0.792z" fill="#D40000" stroke="#000" stroke-width=".3804"/>
  <path d="m768.7 214.84-0.591 0.395-0.887-0.395-0.494-1.379 0.986-0.888 2.168 0.099 1.972 1.774v2.563l-2.662 1.283-2.759 0.69-3.057-0.888-1.873-2.563-0.493-1.774 0.395-3.057 0.493-1.972 2.662-1.972 2.858-0.887 3.351-0.494 3.847 0.986 7.786 2.958 5.225 2.366 5.816 3.057 3.451 1.577 4.535 2.168 2.761 0.986 3.154-0.395 1.38 0.099 2.76-0.887 1.873-0.198 4.14-4.831 1.676-0.986-0.196 2.168-2.761 3.057-2.365 2.662-0.985 0.099-1.282 1.083-2.464-0.099-5.718 0.297-2.76-0.887-4.338-0.888-5.126-2.267-4.043-2.071-1.972-0.294-3.057-1.578-1.872-0.197-1.084-0.789-3.353-0.985-2.761-0.987-2.66-0.296-2.071-0.295-0.985 0.591-0.986 1.38-0.492 1.873 0.69 2.268 1.183 0.198 1.085-0.492 0.393-0.789-0.493-0.197z" fill="#D9D34A" stroke="#000" stroke-width=".3804"/>
  <path d="m808.33 214.15h2.268l1.281 0.69h2.563v0.987l-1.479 1.083-2.859 0.789-1.282 0.591-0.985-0.099-0.69-0.887v-1.38l0.591-1.183 0.592-0.591z" fill="#48489C" stroke="#000" stroke-width=".3804"/>
  <path d="m824.01 211.09s1.578-0.889 1.872-1.577c0.297-0.69 0.986-2.17 0.986-2.17l0.593-2.563-0.788-2.168-1.479-0.394-1.281 0.098-0.69 0.689-0.196 1.874 0.689 1.577 0.592 0.887-0.099 1.676-0.199 2.071z" fill="#48489C" stroke="#000" stroke-width=".3804"/>
  <path d="m818.09 211.88 1.578-0.788 0.984-1.873 0.101-2.071-0.789-1.578-1.085-1.181h-1.479l-0.395 2.759 1.084 1.085v3.647h1e-3z" fill="#48489C" stroke="#000" stroke-width=".3804"/>
  <path d="m816.22 213.65 0.591-0.69 0.298-1.479-0.592-2.168-0.889-0.986-1.083-0.986-1.184-0.788h-1.677l-1.083 0.887 0.294 1.775 1.974 1.478 1.577 0.296 1.774 2.661z" fill="#48489C" stroke="#000" stroke-width=".3804"/>
  <path d="m724.07 229.04-2.871 0.347-2.03 0.248-1.337 0.793-1.089-0.645-0.644 0.396-2.426-1.287-2.823 1.536-1.337 1.187h-0.84l-0.645-0.841-1.287 0.893-0.743-0.744-0.792-0.445-5.347 3.862-1.931-0.644-0.842 0.743-0.348 0.297-0.196 0.841-0.794-2.081-0.692 0.495-1.188-0.396-0.842 1.189-0.198 3.119 0.495 3.911 1.289 4.308 1.187 1.782 0.99 0.198 0.298-1.238 0.545 2.327 0.792 0.791 0.248 4.209 3.218 7.229 0.297 3.713 0.148 6.436-1.188 1.438-1.534 2.327 0.049 0.691-1.584 3.021 0.098 4.605 0.348 0.396 0.1 4.406 1.237 0.099 0.99 1.089 2.179-0.197v-1.337l0.297 1.534 1.732 2.279 1.486 1.187 1.038 0.05 0.545-0.792-0.05-4.951 0.347 5.446 1.089-0.05 1.388-1.237 1.832-0.248 0.594 0.05s0.495 0.297 0.743 0.742c0.247 0.445 1.139 0.843 1.139 0.843l0.644 1.337 0.792 0.297 0.396-0.843-0.544-10.546-0.545-8.614-0.594-10.941-0.595-13.964-0.099-4.455-0.693-0.594 0.05-1.436 1.684-0.495 0.989-0.297-0.446-1.336-0.494-4.456v-1.683l0.595-0.495 1.188-0.049 0.842 0.99 1.634 6.782 0.842 0.297 2.97-0.05 6.734 10.646 2.376 3.565 3.268 6.089 4.259 6.09 1.337 1.782 0.891 0.101 0.297-6.487 1.883-1.634-1.585-11.189-1.287-0.247-1.782-1.634-0.99 0.148-0.99 1.634-1.237-1.386-0.15-1.585-1.139-0.741h-0.84l-1.091-1.485-0.593-0.15-0.693 0.644-0.149-5.049-1.089-2.376-0.198-1.436-2.03-2.872-2.128-0.495s-0.94-2.13-0.94-2.427-0.398-1.337-0.398-1.337l-1.492-1.538z" fill="#E4CB5E" stroke="#000" stroke-width=".1902"/>
  <path d="m725.86 296.77-1.435-1.831-0.495-1.931-0.198-4.159-0.445-3.962-0.793-6.139-1.287-7.575-1.039-6.139-0.397-3.614-0.841-4.259-0.347-2.921-0.347-2.426-0.297-3.465 0.99 3.119 1.635 7.278 1.83 5.05 0.743 3.416v1.931l1.288 2.771 0.842 3.517 1.732 7.426 1.832 6.091 0.94 4.405 0.148 1.684-1.931 0.645-0.94 0.444-1.188 0.644z" fill="#DCC56A" stroke="#000" stroke-width=".3804"/>
  <path d="m735.51 295.29 1.041-5.001 1.238-3.812 0.544-2.575 0.396-2.079-0.1-3.119-0.841-1.832-3.861-7.773-2.328-4.703-0.941-2.427-1.732-3.021-2.327-4.852-2.08-3.613-1.732-2.971-1.634-2.18-0.494 0.447 1.484 5.545 1.237 4.752 1.189 5.248 1.98 6.882 1.139 4.754 1.139 2.921 1.089 4.109 3.02 9.804 0.595 2.574 1.486 2.972 0.493-0.05z" fill="#E2CC75" stroke="#000" stroke-width=".3804"/>
  <path d="m710.47 323.49-1.259 1.256-1.978-1.256 0.898-2.337 3.236-0.54 1.798 2.696-0.72 2.695-2.517 2.515-3.056 0.9-3.055 0.358-3.594-0.178-4.854-1.081-3.773-4.492-2.876-5.751-2.155-4.852-2.517-9.885-1.259-4.134-0.539-3.774-2.695-5.212 1.077-0.898 9.346-8.267h0.54l1.978-1.798 3.413-6.47 0.36-0.359 1.078-3.953-0.18-6.829-0.898-3.235-2.156-3.595s-0.719-1.258 0-1.078c0.718 0.18-1.977-3.056-1.977-3.056l-3.236-3.416v-0.717l-2.335-2.337-1.618-0.898h-1.258l-0.54-0.72-2.337-0.718-1.077 1.078-0.719 2.337v0.899l1.616 0.718 0.539-0.359-0.539-0.9 0.18-1.078 1.26-0.898 1.437 1.076-0.18 2.696-1.078 1.259-2.695 0.181-2.157-1.079-0.898-1.798-0.718-2.694 0.718-1.618 1.079-0.898 1.797 0.359 2.875-0.72 0.898-0.359 2.337 0.359 1.618 1.618 1.796 1.078 4.494 5.033 1.257 1.257 2.337 3.416 2.876 6.47 0.718 4.492-0.358 4.494-2.337 6.47-2.696 4.133-3.773 4.673-6.47 5.393-0.898 0.179-1.438 1.798 2.517 5.391 3.953 16.535 3.235 6.829 4.673 4.852 3.594 1.978 4.674 0.54 4.133-1.08 1.798-1.615-0.72-1.079z" fill="#DDD457" stroke="#000" stroke-width=".3804"/>
  <path d="m718.02 327.27-0.539 0.897 0.719 1.439 1.798 0.359 1.257-1.618v-1.799l-1.079-1.975-1.437-0.362-1.617 0.181-2.337 1.618-1.259 1.438-0.719 3.414 1.798 5.573 2.876 3.773 7.188 4.673 7.729 2.875 4.851 0.718 3.596 3.596 1.797 4.312-1.617 2.698-2.157 0.179v-1.078l0.898-0.181 1.079-1.078-0.539-1.078-2.156-1.259-1.797 1.438-0.181 3.236 1.616 1.618 2.337 0.537 1.798-0.719 1.796-1.978 0.182-2.336-0.719-3.415-3.057-4.311-3.233-1.618-8.088-2.877-5.212-1.975-3.775-2.699-3.414-3.593-1.977-5.21 0.898-3.415 1.978-1.439 1.078 0.359-0.36 1.082z" fill="#DBD45D" stroke="#000" stroke-width=".3804"/>
  <path d="m783.26 327.44 1.438 0.899 0.181 1.437-1.618 0.719-2.156-0.359v-2.155l1.257-2.696 3.596-0.181 1.617 1.978 1.079 3.773-1.079 3.955-4.134 3.414-5.751 3.955-6.29 2.695-9.345 4.492-2.696 1.975-2.337 4.314 1.439 2.518 1.797 0.359v-0.899l-0.54-0.719 0.359-1.978 1.079-1.077 2.155 1.259 0.541 2.695-1.978 1.978-2.157 0.359-3.414-1.618-1.079-1.796-0.179-2.519 1.438-2.336 2.875-2.874 4.494-2.519 6.47-2.695 9.524-4.671 6.649-7.19v-2.874l-1.438-1.797-1.797 0.179z" fill="#E5DC5E" stroke="#000" stroke-width=".3804"/>
  <path d="m791.52 322.23v1.615h1.258l1.259-0.179 0.539-2.155-1.078-1.437-1.438-0.182-1.798 0.359-1.976 1.438-0.18 2.877 0.897 1.975 1.798 2.695 3.235 1.618 3.234 0.899 4.854-0.359 5.571-2.695 5.212-3.774 2.156-5.213 2.695-9.525 3.414-12.04 2.157-4.492 1.797-1.619-0.539-0.718h-1.617l-4.134-3.055-4.312-2.696-5.572-6.649-2.875-5.572-0.899-7.907 1.618-7.729 3.414-5.751 5.571-4.673 5.033-3.594 5.032-0.178 0.717 1.976-0.717 1.618-1.079-0.899-1.617-0.18-0.718 2.696 1.795 0.898 3.235-0.359 0.9-2.156-0.359-3.055-2.337-2.157-4.135 0.359-3.055 0.359-3.775 2.157-3.952 4.133-2.695 3.954-3.416 5.571-1.078 5.032 0.18 8.807 4.494 9.524 3.953 5.033 7.727 5.211 1.259 0.899-2.336 5.212-3.415 10.963-2.156 8.806-1.797 3.774-5.751 5.032-6.471 2.515-5.57-0.178-2.696-1.978-0.72-1.797-0.18-2.695 1.439-0.359z" fill="#D7D643" stroke="#000" stroke-width=".3804"/>
  <path d="m764.11 258.24-0.383-0.763 1.272-1.397 2.411-0.506 1.905-1.525 2.413-1.524 2.54-0.635 3.303 2.793-1.143 0.892-1.145-0.128-2.158 1.396-1.65 1.017-1.397-0.254-1.271-0.381-0.761 0.635h-1.145l-0.89 0.508-1.901-0.128z" fill="#ccc" stroke="#000" stroke-width=".3804"/>
  <path d="m823.42 208.96v1.778l-1.777 0.255-0.127-2.413 1.904 0.38z" fill="#48489C" stroke="#000" stroke-width=".3804"/>
  <path d="m779.61 254.69 1.269-0.506h1.905l1.017 2.793v0.89l1.65-0.508h3.049l2.158 1.016 1.905 1.905 2.032 1.144h1.65v-0.89h1.651l0.382 0.509 1.777 0.253 1.271-0.38 0.381 1.143-0.254 1.523-0.382 1.145 0.508 4.824 2.287 8.256 4.318 6.986-1.65-0.763-3.684-0.508-1.144 0.508-1.523-0.127-1.778 1.651-0.89 0.126-0.761 0.636-1.397-1.905-5.334-7.112-1.397-1.524-3.048-6.603-4.191-9.019-0.255-3.684-1.015-1.016-0.508-0.127v-0.636h1e-3z" fill="#ccc" stroke="#000" stroke-width=".3804"/>
  <path d="m778.08 303.84 2.16 1.016-0.127-1.016 1.524 1.016s1.396 0.255 2.158 0.127c0.761-0.127 2.413-1.777 2.413-1.777l0.508-3.429 3.303-5.716 2.411-1.397 0.765-0.127 2.284-2.541 4.318-2.285 2.032-0.763 3.303 0.635 2.413 1.144 0.508 2.032 0.382 5.461 1.523 1.145 1.271-0.637 1.143-1.396 2.793-1.018 2.033 0.253-0.128 2.542-0.888 4.699-1.397 4.953-2.286 7.873-2.158 5.59-5.335 4.065-4.191 2.665h-6.732l-2.031-1.904 2.54-0.637 0.889-1.521 0.254-2.668-2.285-1.651-2.286 0.127-3.048 1.779-1.145 1.521-0.635 1.78h-1.142l-2.542-0.128-1.905 1.271-1.396 1.776-0.382 2.668 0.637 1.906 1.396 0.889 2.54-0.128 0.636-0.506h0.508l-2.287 2.537-2.92 3.05-3.811 2.54-2.54 0.761-4.191 1.525-3.048 1.397-3.43 0.127-3.556 3.174-2.413 1.907-1.651 2.285-0.762 3.938v2.919l1.903 2.54-0.253 0.764-1.143-0.13-0.636-0.506h-2.793l-0.763-1.144-1.397 0.255-2.031 0.634-0.89 0.891-1.524-0.764 0.89-2.285 0.127-2.158-0.635-2.923-1.905-3.811-1.65-1.776-2.923-1.779-5.588-1.652-6.095-2.282-4.445-2.162-1.651-2.54-0.636-3.174 1.017 1.016-0.89-3.556 1.27 1.649 0.891 0.127 2.54 3.177 2.032 0.382 0.508 0.252h0.634l0.127-0.252 1.905 1.016 2.16 0.634h3.047l-2.666-0.634-3.303-1.524-3.429-1.907-1.905-2.537-0.255-1.144-1.016-0.127 0.128-0.764 0.762-0.889 1.016 0.128 0.255 0.761 1.016-0.382 1.65 1.272 2.795 0.252 2.031 0.255-1.776-1.016-2.795-1.524-2.794-2.541-0.89-0.127-2.795-4.316-1.523-4.192-1.27-4.444v-5.209l1.65-4.189 2.413-3.811 1.397-1.271 1.143 0.381 2.921-2.158 2.032-0.635 2.668 0.125 2.032 0.636 2.921 0.89 1.396 1.777 1.397 0.128 0.38 1.016-0.761 0.254 1.016 1.397-0.381 0.889 0.89 1.143-0.127 1.65-1.65 1.906 1.142 1.904-0.128 0.637 1.397 1.524 1.271 1.903 2.159 0.382 5.08 0.128 3.682-0.382 2.16-0.128-0.89-1.016 1.524-0.382 1.905-0.382 3.429-2.664s2.668-4.574 3.176-5.209c0.508-0.634 1.523-2.794 1.523-2.794l4.318-4.445 1.65-0.635 3.811-1.904h3.938l1.018 1.144 1.65 0.254 1.524 1.904 0.761 5.208-2.413 1.65h-2.03l-1.397-0.889-0.382 0.762-1.651-0.38z" fill="#ccc" stroke="#000" stroke-width=".3804"/>
  <path d="m716.45 322.56s0.299-0.597 0.599-0.597c0.299 0 0.971-0.073 0.971-0.073l0.074-3.885s-0.522-0.297-0.598-0.597c-0.074-0.297-0.074-1.717-0.074-1.717l-0.522-0.523-0.075-15.682-1.494-4.032-1.269-2.165-1.045-0.822-1.644-0.148-1.867 1.195-1.12 0.597-2.39-0.521-0.895-0.599-1.421-0.073-1.269-2.315-2.613-0.822-1.194-0.373-3.584-0.299-1.045-0.075-1.346 0.897-1.568 1.867-1.119 2.164-0.149 3.511 0.821 1.12v1.642l0.374 0.672v1.419l-1.195-1.419-1.195-2.912-0.597-1.792-0.523 0.747 0.149 2.39 0.074 1.94 0.673 1.794 0.672 2.537 1.12 3.211 0.896 3.437 0.822 3.284 1.568 2.987 1.344 1.867 3.062 3.061 1.941 1.344 2.987 1.047 3.36-0.073 1.044-0.75-1.344-1.268s-0.223-0.82-0.223-1.12 0.447-1.793 0.447-1.793l1.419-1.494 4.107-0.746 1.419 1.046 1.867 2.091 1.568 0.818z" fill="#ccc" stroke="#000" stroke-width=".3804"/>
  <path d="m811.36 288.06v2.242l0.523 0.299 0.15 0.746 2.313 0.374-0.225-0.747-1.494-1.419-0.373-1.046-0.894-0.449z" fill="#FFFCFC" stroke="#000" stroke-width=".3804"/>
  <path d="m811.44 256.02-1.568 1.421-1.046 2.016-0.373 2.09-0.672 2.614-0.299 2.016 0.299 4.406 0.15 2.389 1.418 2.242 0.746 0.223 0.896 1.791 1.269-3.509 0.599 0.448 0.373 2.613 2.091 1.792s-1.942-0.97-2.39-0.97-0.522 0.521-0.522 0.521l0.522 1.12 1.194 1.195 2.092 0.82 3.883 0.075-0.896 0.896h-2.688l-0.674 0.522 0.972 1.419 1.194 1.866 2.167 1.046 2.238-0.597h0.747l-0.373 0.896 1.12 0.82 0.97 0.896 0.897 0.971 0.746 0.149v1.12l-1.344 3.361-0.3 1.567-0.745 1.27-0.448 1.94-1.344 2.315-0.149 0.822h0.672l0.97-1.271 1.42-0.597 1.718-2.24s0.97 0.3 1.195-0.15c0.223-0.448 1.269-3.584 1.269-3.584l1.045-0.224 0.523-3.285 0.896 3.062 0.748 3.883-0.3 3.286-1.942 3.583-0.521 0.6 0.298 1.193h1.419l1.643-1.719 2.837-3.808 1.122-3.808 0.597-7.393 1.269 3.436 1.195 3.359 0.599 2.613-0.897 3.435-1.12 4.034 1.494-1.047 3.137-3.51 2.463-3.657 0.673-2.688 0.598-5.153-0.374-4.032 0.148-1.494 0.523-0.821-0.075-2.688-0.522-1.12-1.791 2.389-0.747 0.15-2.092-1.419-0.521-0.15-1.195-1.718-0.82-2.763 0.073-3.136h-0.447s0.224-2.614 0.447-3.286c0.225-0.672 0.523-1.94 0.523-1.94l-0.374-2.764-1.418-2.614-1.718-1.492-2.762-0.821-3.213-0.897-1.866-1.492-3.51-0.373-1.792 0.224-3.36-1.568-2.166-0.822-2.762-0.073-2.614-0.3-1.347 0.078z" fill="#D40000" stroke="#000" stroke-width=".3804"/>
  <path d="m691.29 256.19-6.887-0.137-1.102-0.551-1.652 1.376h-3.168l-3.444 1.929-2.341 1.79-1.239-0.137-4.822 4.408 0.689 3.58 0.55 0.965 0.276 3.444 0.137 4.957-1.101 0.828-1.653 4.133-0.965 3.58-0.826 7.025 0.689 5.233-0.965 2.755-1.928 3.031-0.413 1.515 1.652-1.103-0.274-0.551 0.826 1.239 2.064-3.719 0.828 1.378 0.825 0.137v-4.683l-0.963-7.3 2.341 7.577 0.552 2.754 0.413-0.139 0.275-6.198 1.514 3.444 0.139 3.029 0.688 0.552 0.415-0.827v-4.545l-2.481-7.3-1.239-6.751 3.306 8.816 1.929 1.79 1.79 4.822 1.517 2.754 0.274 1.79 1.102-0.688 0.415-0.688-0.965-0.689 0.688-0.55-0.139-2.479-0.825-5.783h-0.826l-2.893-6.061 2.617 3.72h1.102l0.138-0.966-1.239-2.479-0.275-2.893 2.479 3.582 0.825-0.413-1.377-3.996-0.274-4.545 0.826 1.928-0.138 2.204 1.791 2.205 1.79 0.963 1.377-1.651-0.965-0.69-0.412-1.927-1.379-1.653v-2.205l1.931 3.444 1.789 1.24 1.791 0.413 1.791-1.239 3.029-3.444-0.411-0.414-3.17 0.139-2.479-1.653-2.203-2.065v-1.791l0.413 0.274 0.963 1.93 1.791 1.791 2.066 0.274 2.618 0.139 2.891-2.617 1.517-4.959 0.413-2.755-0.551-3.443-1.792-3.995-1.102-1.791-0.964-0.414z" fill="#D40000" stroke="#000" stroke-width=".3804"/>
  <path d="m792.67 332.5-7.302 7.573-0.964-0.274-2.617 2.204-0.137 2.342 2.479 1.93 0.965 1.79 0.689-0.139 2.478 3.03 2.343 3.307 0.965 0.552 0.687 1.514-1.238 1.79 0.413 1.104 1.928-0.277 2.205 0.139 1.376 0.826 0.552 2.48v0.962l1.515-0.825 1.24-1.791 0.138-4.407-0.274-1.239 0.411-3.307 0.413 4.407 0.965 1.378 0.688-0.552 0.826 2.894 1.791 1.791 0.965 1.651 0.139-1.1-0.139-2.204 0.965-2.48 1.102-2.892 1.102-0.69 0.963 0.416 1.38 1.375-0.139 0.552 1.24-0.139-0.277-3.305-1.789-2.48-2.756-1.788-1.377-1.377-1.239-2.204 1.928 1.101 2.066 1.929 1.928 0.965 1.378 0.274 2.343 4.546 1.515 2.204 0.275-3.03 1.102-3.445 1.103-1.514 1.377-0.139 1.791 0.552-0.414-2.067-1.377-2.617-2.755-2.478-2.893-2.204-2.478-1.104-2.206 1.93-0.688 0.274-1.24 1.104-0.963-0.413-3.169-3.033-0.826-0.549-1.377-3.307-2.067-0.965-3.168 0.277-3.86-0.828z" fill="#D40000" stroke="#000" stroke-width=".3804"/>
  <path d="m809.75 357.01-1.515 2.067v3.443l0.688 1.654-0.688 6.473 3.444-4.82 1.238-2.481-0.137-3.304-0.965-1.517-1.102-0.964-0.963-0.551z" fill="#4F4D9F" stroke="#000" stroke-width=".3804"/>
  <path d="m821.18 349.85-1.102 0.274-1.24 2.616-0.274 3.443 0.688 1.79v2.481l0.276 1.514 1.238-1.788 1.791-3.032 0.274-2.204v-3.029l-0.826-1.378-0.825-0.687z" fill="#4F4D9F" stroke="#000" stroke-width=".3804"/>
  <path d="m791.15 367.76 1.791-1.239 1.378-0.965 1.792-2.34-0.277-1.79-1.103-0.826-1.377-0.552-1.239 0.139-1.378 1.927 0.139 3.858 0.274 1.788z" fill="#4F4D9F" stroke="#000" stroke-width=".3804"/>
  <path d="m707.27 355.64 1.377 0.549v3.72l-2.341 2.617-2.616 1.929 0.136-2.48-0.688-0.823v-2.62l0.552-0.688v-1.238l2.341-1.242 1.239 0.276z" fill="#4748A5" stroke="#000" stroke-width=".3804"/>
  <path d="m689.36 357.84 1.928-0.138 2.066 1.238 0.826 2.343-1.239 1.103-0.688 1.101-0.413 1.791 0.275 2.894 0.138 2.617-2.341-2.895-1.928-3.029-0.139-3.029 0.688-2.617 0.827-1.379z" fill="#4748A5" stroke="#000" stroke-width=".3804"/>
  <path d="m682.75 354.4-0.551 1.927-0.688 0.413-0.826 1.103v4.131l-1.378-0.823-1.515-1.93-0.826-2.067 0.276-5.233 0.688-2.204 1.653-0.552 1.653 0.552 1.376 3.168 0.138 1.515z" fill="#4748A5" stroke="#000" stroke-width=".3804"/>
  <path d="m682.89 341.04-0.827 2.064-2.204 1.652c-0.337-2.2 0.796-3.355 3.031-3.716z" fill="#4748A5" stroke="#000" stroke-width=".3804"/>
  <path d="m709.89 330.71 0.965 1.651 0.827 2.617 1.376 1.517-0.137 0.825 1.928 1.652 1.928 3.03 3.169 2.616-2.342 2.068-5.51 4.133-1.791 0.552-2.341-1.381 0.275 3.307 0.964 1.517-2.479-0.552-2.894 0.274-1.79 1.517-0.414 1.514-0.688-1.101-0.965-1.517-0.275-0.274-0.55 0.413 0.413 0.274 0.137 2.755-0.688 0.552-0.139 0.826-3.167 2.065-0.826-2.065-1.104-2.342-1.928-0.965-2.065 0.277-2.342 1.377 0.688-1.929 1.378-2.204 2.616-2.203 2.617-1.652 2.066-0.826 0.552-0.277-0.69-0.688-3.855 1.101-2.756 1.791-2.893 2.067-2.203 3.166-1.102 0.826v-2.34l-1.241-3.168-0.413-2.068-1.24-1.514h-1.514l-2.066 0.413 1.516-2.616 3.029-1.652 1.378-2.342 2.479-2.068 2.066-0.413 3.031 0.413 1.513 0.829 2.895 0.136 1.789-0.136 2.205-1.104 1.791-3.307 2.478-3.579 2.895-1.516 3.444-0.272z" fill="#D40000" stroke="#000" stroke-width=".3804"/>
  <path d="m776.83 292.96-3.993 1.104-2.755 2.204-3.582 3.718-2.893 5.235-3.305 3.995-6.062 2.478-5.51 0.139-4.27-1.238-1.515-2.344-0.413-3.029-0.551-3.72-1.24-2.341-1.928-2.343-2.204-1.515 2.343-9.918 0.688-2.204v-2.893l0.413-3.855 2.066-3.444 2.066-1.928 3.581-1.653 6.335-1.652 6.337-2.066 6.612-1.515 7.438-1.791 3.168-0.275-0.275 4.132 0.827 1.516-0.139 10.743-0.688 9.505-0.551 4.955z" fill="#784421" stroke="#000" stroke-width=".3804"/>
  <path d="m778.34 292.83 3.856 0.827 3.03 1.791 1.239 1.79 1.653-1.377 0.688-2.343 2.893-1.651 4.409-3.857-3.721-5.648-1.929-2.755-2.617-3.029-3.168-5.785-3.581-7.852h-1.929l-0.275 15.564 0.139 5.647-0.687 8.678z" fill="#784421" stroke="#000" stroke-width=".3804"/>
  <path d="m741.7 222.16-1.24 3.719 4.271-0.689-3.031-3.03z" fill="#76401B"/>
  <path d="m739.09 232.77 0.139 2.893 11.846-3.719v-1.102l-11.985 1.928z" fill="#A05A2C" stroke="#000" stroke-width=".3804"/>
  <path d="m742.39 237.18-0.275 2.754 0.826 6.061 3.03 16.666h1.516l0.137-2.616-5.234-22.865z" fill="#44B3CC" stroke="#000" stroke-width=".3804"/>
  <path d="m750.11 261.42-5.509-24.105 4.131 24.518 1.378-0.413z" fill="#50AECE" stroke="#000" stroke-width=".3804"/>
  <path d="m751.07 261.15 1.928-0.688-7.163-23.141 5.235 23.829z" fill="#50AFCE" stroke="#000" stroke-width=".3804"/>
  <path d="m747.9 235.94 8.402 24.105-1.653 0.55-6.749-24.655z" fill="#50ABCE" stroke="#000" stroke-width=".3804"/>
  <path d="m757.54 259.49-8.127-24.379 10.331 24.105-2.204 0.274z" fill="#50B0CE" stroke="#000" stroke-width=".3804"/>
  <path d="m760.58 258.25-9.642-23.279 11.983 23.555-2.341-0.276z" fill="#50B3CE" stroke="#000" stroke-width=".3804"/>
  <path d="m685.08 215.64-1.3 0.199-1.598 1.3-0.7 1.699 0.101 3.098 1.099 1.898 1.899 2 0.899 1.499-0.5 2.697-2.697 1.699-2.898 2.099-1.1 1.699-0.4 1.898 0.101 1.999 0.399 0.499 2.199-0.101 1.299-0.398 1.998-0.2 1.898 0.3 2.898 1.999 4.098 3.698 1.797 2.099-1.298-3.099-0.699-3.698-0.5-3.697 0.601-2.198 0.999-1.4 1.099 0.601 0.899-0.5 1.2 0.6 1-0.6 1.598 0.5 1.997-1 2.999-2.298h2.098l0.601 0.499 1.198-0.499 0.7 1 2.499-1.9 1.998-0.999 1.998 0.799 2.599 0.6 1-0.899 2.098-0.101 2.897-0.399 1.4 0.999 1.397 3.397 1 1.101 1.5 0.298 0.799 0.4 1.398 3.498 1 2.798 0.5 3.397-0.201 0.899 0.899-0.099 1.4 1.397 1.199 0.601 0.999 1.099 0.298 1.798 0.801-0.099 0.7-0.899 1.399 0.3 1.199 1.298 1.198 0.101-2.1-13.891-1.998-1.099-0.1-3.197 4.697-1.7 0.1-1.198-0.699-2-0.899-1.798-1.799 0.199 1.398-4.496 3.498 3.597-1.599 0.201 1.397 5.495 5.998-0.999 1.099 1.5-0.4 1.298 0.501 0.899 0.298 1.6 1.8 2.297 4.697 10.192 4.496 9.194 1.999-2.098 2.099-0.499 2.299-1.6 1.398-0.5 0.999-1.298 2.599-0.101 3.896 3.498 0.601-0.899 3.696-0.201 1.199 2.398 0.201 1 1.499-0.6 4.097 0.898 2.498 2 1.897 0.798 0.501 1.001 1.099-1.3 0.8 0.101 1.3 0.3 4.096-0.3 2.1-4.198s1.897-3.896 2.799-4.896c0.898-0.999 4.596-4.996 4.596-4.996l4.496-2.999 3.397-1.898 3.198-0.4 2.999-0.1-0.1-2.698-1.199-2.598-2.999-3.896-0.6-3.098v-1.9l2.599-1.699 3.098-2.498 0.101-2.599-0.899-3.198-1.8-2.697-0.6-0.5-1-0.199-1.398 0.898-2.798 3.897-3.098 3.099-3.797 2.299-4.397 0.499-6.994-1.099-4.896-1.5-6.097-2.298-6.396-2.998-3.497-0.701-5.297-2.597-1.998-0.101-0.101 0.9 1.598 1.598-0.398 2.799-1.399 1.498-2.598 0.101s0.3 0.201-1.199 0.6c-1.5 0.4-2.798 0-2.798 0l-2.498-1.499-2.399-0.4h-4.796l-5.296 0.501-5.997 0.499-2.997 2.599-2.599 0.4-2.798-0.7-2.897-3.397 0.1-1.898 2.098-2.599-1.099-0.1-6.596 2.399-4.098 2.297-2.197 1.4-1.599-0.101-2.1 1.899-2.598 0.2-1.5 1.598-0.499-0.199-4.196 1.099-3.798 0.699s-4.797 0.7-5.296 0.7c-0.501 0-5.096-0.6-5.096-0.6l-3.399-1.699-1.598-1.798-1.5-1-1.998-2.097 0.101-1.6-0.599-0.398z" fill="#64B4D1" stroke="#000" stroke-width=".3804"/>
  <path d="m705.44 299.46 0.533 2.675 1.784 3.21 3.386 2.94-2.852-2.05 2.139 2.853-3.653-2.317 3.564 2.317-3.744-5.349-1.157-4.279z" fill="none" stroke="#000" stroke-width=".3804"/>
  <path d="m701.07 311.31-1.337 1.426-2.318-0.356 0.089 2.942 3.208 4.725-3.208-4.456 0.09-3.029 2.229 0.175 1.247-1.427z" fill="#FFFCFC" stroke="#000" stroke-width=".3804"/>
  <path d="m697.24 319.52-0.713-2.051v-2.316l0.713 4.367z" fill="#FFFCFC" stroke="#000" stroke-width=".3804"/>
  <path d="m742.25 312.3 0.445 2.585 1.782 3.117 1.158 1.517-3.385-7.219z" fill="#666" stroke="#000" stroke-width=".3804"/>
  <path d="m748.4 319.6-1.695-0.532-1.515-1.429-2.139-3.83 2.228 2.852 3.121 2.939z" fill="#808080" stroke="#000" stroke-width=".3804"/>
  <path d="m739.4 308.11-1.069 1.068-1.782 0.447s-1.782-0.178-2.139-0.447c-0.356-0.266-2.318-1.425-2.318-1.425l2.318 1.247h4.099l0.891-0.89z" fill="#666" stroke="#000" stroke-width=".3804"/>
  <path d="m733.51 309.18 0.268 7.576 0.713 2.942 1.067 2.139 1.428 2.229 0.356-0.891 1.515 1.069 0.447-0.447-1.517-1.514-1.515-2.051-0.893-2.139-0.979-3.654-0.356-3.921h1.246l-0.356-0.713-1.424-0.625z" fill="#666" stroke="#000" stroke-width=".1141"/>
  <path d="m767.2 321.12 2.852-0.267 2.675-2.229 0.445-1.517 1.247-0.892-0.178 2.586 0.623 1.338 1.693 0.535 1.069 0.979 1.873 0.179 2.673-1.692 1.961-2.051 1.694-1.516 1.247-0.535 0.446-2.495h0.802l0.178-1.16-0.356-2.226-0.802-2.14-1.069-1.426-1.783-1.604-0.801 0.357 1.96 1.871 1.604 2.05 0.089 3.208-0.445 1.248-2.407 2.764-3.119 3.386-1.515 0.713-3.208-0.444-1.16-1.516-0.267-1.069-0.357-1.069v-1.248l0.446-0.891-3.297 3.742-1.337 0.088-3.476 2.943z" fill="#808080" stroke="#000" stroke-width=".1141"/>
  <path d="m810.07 297.77 0.713-0.624 0.802 1.16 0.18 3.207 0.088 0.09v2.139l-1.246 2.318-2.675 2.852-3.119 1.335-2.853 0.356-1.961-0.443-0.713-1.16-0.445-1.158v-2.673l0.535-1.07 0.178 0.534-0.089 2.942 0.979 1.159 2.05 0.622 1.871-0.622 2.229-0.625 1.871-1.069 0.09-0.624-0.713-0.089 0.178-0.267h1.069l1.337-2.675 0.445-2.229v-1.782l-0.533-0.534-0.269-0.445v-0.625h1e-3z" fill="#808080" stroke="#000" stroke-width=".1902"/>
  <path d="m739.48 339.04-4.457 2.139-4.099 1.247-2.229-0.356 4.366 1.604 1.695-1.336 2.673-1.338 2.051-1.96z" fill="#666" stroke="#000" stroke-width=".3804"/>
  <path d="m742.96 348.04 2.406 0.713 1.158 0.447 2.496 0.356-1.872 1.157 2.405 0.534s-2.315 0.269-2.672 0.269-1.605 0.801-1.605 0.801-0.267 1.429 0.535 1.338c0.804-0.09 1.96-0.269 2.406-0.269s1.872 0.269 1.872 0.269l0.892 0.713-0.535 0.804-3.744 0.088 0.536 0.447h3.03l-2.94 1.96 3.563-0.091 2.852 1.16v0.713l-2.762 0.625-0.624-1.072-3.565 0.981-0.713 0.892-1.337-0.892 1.069-2.316-0.089-2.407-0.535-1.873-1.247-2.761-0.98-2.586z" fill="#999" stroke="#000" stroke-width=".1521"/>
  <path d="m696.32 235.58-0.567 4.255 1.135 2.976 0.143 4.113-0.143-4.537-1.135-2.269 0.567-4.538z" fill="#FFFCFC" stroke="#000" stroke-width=".3804"/>
  <path d="m700.43 238.13v5.388l0.992 1.276-0.282 5.672 0.85 1.701v9.358" fill="none" stroke="#000" stroke-width=".3804"/>
  <path d="m706.24 231.75-1.134 2.126 0.426 3.829 0.283 2.694-0.425 4.252" fill="none" stroke="#000" stroke-width=".3804"/>
  <path d="m709.65 236.15-0.144 6.663 0.426 2.127v3.688l0.142 5.672v3.828l-3.262-3.972 3.403 4.255 0.567 4.111 0.852 1.561-0.567 2.127 0.142 3.544v10.067l-3.262-7.94 0.284 16.448 0.284-9.499 1.135-1.703 1.843 4.681 0.283 2.127-0.426-7.942" stroke="#000" stroke-width=".3804"/>
  <path d="m732.05 242.1-0.144 6.523 0.709 3.544 0.568 3.828" fill="none" stroke="#000" stroke-width=".3804"/>
  <path d="m738.15 251.6 1.276 14.18" fill="#E2D67E" stroke="#000" stroke-width=".3804"/>
  <path d="m701.71 272.73 0.284 8.224 0.567 3.546 0.142 3.827" fill="#DDD690" stroke="#000" stroke-width=".3804"/>
  <path d="m744.39 287.9v-1.419l6.239-1.419-0.993 0.71 0.142 4.254" fill="#D38D5F" stroke="#000" stroke-width=".3804"/>
  <path d="m761.4 284.36v-1.844l6.239-1.134-1.419 0.284 0.284 4.395" fill="#D38D5F" stroke="#000" stroke-width=".3804"/>
  <path d="m747.93 298.11v-1.419l5.247-0.991-0.143 5.246" fill="#D38D5F" stroke="#000" stroke-width=".3804"/>
  <path d="m760.41 296.12v-2.27l5.671-0.992 0.284 4.961" fill="#D38D5F" stroke="#000" stroke-width=".3804"/>
  <path d="m742.97 307.32 21.976-4.962" fill="#FFFCFC" stroke="#000" stroke-width=".7607"/>
  <path d="m737.58 293.57 2.271 0.284 37.432-8.508" fill="#C87137" stroke="#000" stroke-width=".7607"/>
  <path d="m739.71 283.93 5.813-0.853 32.329-8.507" fill="#C87137" stroke="#000" stroke-width=".7227"/>
  <path d="m741.98 277.55v3.545l-1.276 0.284v-1.702l1.276-2.127z" fill="#D38D5F" stroke="#000" stroke-width=".3804"/>
  <path d="m744.96 276.98 0.141 3.546h-0.993l-0.283-3.12 1.135-0.426z" fill="#D38D5F" stroke="#000" stroke-width=".3804"/>
  <path d="m747.22 276.27-0.991 0.566v2.836l1.419-0.284-0.428-3.118z" fill="#D38D5F" stroke="#000" stroke-width=".3804"/>
  <path d="m749.92 275.28-0.993 0.851v2.552l1.559-0.142-0.566-3.261z" fill="#D38D5F" stroke="#000" stroke-width=".3804"/>
  <path d="m753.04 274.57-1.419 0.567v2.836l1.562-0.283-0.143-3.12z" fill="#D38D5F" stroke="#000" stroke-width=".3804"/>
  <path d="m756.01 273.72-1.276 0.143v3.545l1.561-0.284-0.285-3.404z" fill="#D38D5F" stroke="#000" stroke-width=".3804"/>
  <path d="m759.84 273.01-1.417 0.566 0.142 2.41 1.417-0.424-0.142-2.552z" fill="#D38D5F" stroke="#000" stroke-width=".3804"/>
  <path d="m763.39 272.02-1.417 0.709v2.41h1.275l0.142-3.119z" fill="#D38D5F" stroke="#000" stroke-width=".3804"/>
  <path d="m766.22 271.17-1.135 0.567v2.694h1.419l-0.284-3.261z" fill="#D38D5F" stroke="#000" stroke-width=".3804"/>
  <path d="m769.34 270.89-1.135 0.708v2.126h1.562l-0.427-2.834z" fill="#D38D5F" stroke="#000" stroke-width=".3804"/>
  <path d="m772.75 269.75-1.277 0.568 0.143 2.126 1.276-0.283-0.142-2.411z" fill="#D38D5F" stroke="#000" stroke-width=".3804"/>
  <path d="m776.43 268.9-1.418 0.709v2.269l1.703-0.142-0.285-2.836z" fill="#D38D5F" stroke="#000" stroke-width=".3804"/>
  <path d="m744.81 265.5-0.142 3.119 2.269-0.565-0.284-2.978-1.843 0.424z" fill="#5DB7D2" stroke="#000" stroke-width=".3804"/>
  <path d="m747.79 264.65v2.552h0.993v-2.694l-0.993 0.142z" fill="#5DB7D2" stroke="#000" stroke-width=".3804"/>
  <path d="m750.06 264.08v2.836l1.417-0.426-0.142-2.552-1.275 0.142z" fill="#5DB7D2" stroke="#000" stroke-width=".3804"/>
  <path d="m753.04 263.51 0.143 2.127h1.274l0.143-2.552-1.56 0.425z" fill="#5DB7D2" stroke="#000" stroke-width=".3804"/>
  <path d="m755.87 262.94v2.27h1.984l-0.283-2.554-1.701 0.284z" fill="#5DB7D2" stroke="#000" stroke-width=".3804"/>
  <path d="m758.99 262.24v2.127l1.702-0.426-0.425-2.269-1.277 0.568z" fill="#5DB7D2" stroke="#000" stroke-width=".3804"/>
  <path d="m761.4 261.53v2.127l1.275-0.284-0.282-1.843h-0.993z" fill="#ccc" stroke="#000" stroke-width=".3804"/>
  <path d="m763.53 260.96v1.701h0.852v-1.843l-0.852 0.142z" fill="#ccc" stroke="#000" stroke-width=".3804"/>
  <path d="m765.37 260.82 0.141 1.559 1.418-0.282-0.142-1.844-1.417 0.567z" fill="#ccc" stroke="#000" stroke-width=".3804"/>
  <path d="m768.21 259.68v2.128h0.852l0.283-2.128h-1.135z" fill="#ccc" stroke="#000" stroke-width=".3804"/>
  <path d="m770.62 259.26v1.844l1.134 0.142-0.284-1.985h-0.85v-1e-3z" fill="#ccc" stroke="#000" stroke-width=".3804"/>
  <path d="m772.89 258.69v2.126l1.134 0.142v-1.843l-1.134-0.425z" fill="#ccc" stroke="#000" stroke-width=".3804"/>
  <path d="m775.16 257.98-0.426 2.41h1.277l-0.143-1.843-0.708-0.567z" fill="#ccc" stroke="#000" stroke-width=".3804"/>
  <path d="m776.86 257.98v1.986l1.844-0.852-0.285-2.128-1.559 0.994z" fill="#ccc" stroke="#000" stroke-width=".3804"/>
  <path d="m779.27 273.3 5.529-0.993" fill="none" stroke="#000" stroke-width=".989"/>
  <path d="m779.27 284.92 12.194-3.26" fill="#FFFCFC" stroke="#000" stroke-width="1.1031"/>
  <path d="m720 297.97-1.561 1.559 0.142 0.568h1.843l0.569-1.277-0.993-0.85z" fill="#DDD690" stroke="#000" stroke-width=".3804"/>
  <path d="m718.15 295.84 0.284 1.702 1.276-0.142 0.708-1.275-0.141-0.993-1.276 0.284-0.851 0.424z" fill="#DDD690" stroke="#000" stroke-width=".3804"/>
  <path d="m721.27 295.13 0.426 1.134h2.411v-0.85l-0.992-0.426-1.845 0.142z" fill="#DDD690" stroke="#000" stroke-width=".3804"/>
  <path d="m720.99 293.01 0.14 1.275h1.703l0.85-1.136-0.992-0.85-1.701 0.711z" fill="#DDD690" stroke="#000" stroke-width=".3804"/>
  <path d="m717.59 293.43-0.284 0.852 0.852 0.425 1.845-0.425v-0.71l-2.413-0.142z" fill="#DDD690" stroke="#000" stroke-width=".3804"/>
  <path d="m717.59 291.3v0.993l1.844 0.142 0.568-0.851-0.71-0.567-1.702 0.283z" fill="#DDD690" stroke="#000" stroke-width=".3804"/>
  <path d="m721.27 290.45-0.281 0.85 1.7 0.426 0.85-0.709-1.274-0.852-0.995 0.285z" fill="#DDD690" stroke="#000" stroke-width=".3804"/>
  <path d="m717.73 288.18-0.284 1.276 1.134 0.142 0.993-0.709 0.142-0.991-1.135-0.144-0.85 0.426z" fill="#DDD690" stroke="#000" stroke-width=".3804"/>
  <path d="m720.85 287.62v1.275l1.844 0.424v-1.843l-0.851-0.282-0.993 0.426z" fill="#DDD690" stroke="#000" stroke-width=".3804"/>
  <path d="m719.15 285.49h-1.701l-0.144 1.984 1.986-0.85-0.141-1.134z" fill="#DDD690" stroke="#000" stroke-width=".3804"/>
  <path d="m720.56 284.92-0.708 1.418h1.985l0.851-1.842-1.135-0.284-0.993 0.708z" fill="#DDD690" stroke="#000" stroke-width=".3804"/>
  <path d="m720.14 282.51 0.144 1.135 1.844-0.284-0.711-1.417-1.277 0.566z" fill="#DDD690" stroke="#000" stroke-width=".3804"/>
  <path d="m718.3 282.94-1.275-0.284 0.143 1.561 1.843-0.283-0.711-0.994z" fill="#DDD690" stroke="#000" stroke-width=".3804"/>
  <path d="m717.02 280.38-0.142 1.419h2.269l-0.426-1.419h-1.701z" fill="#DDD690" stroke="#000" stroke-width=".3804"/>
  <path d="m719.72 279.68v1.702h2.127l-0.427-1.702h-1.7z" fill="#DDD690" stroke="#000" stroke-width=".3804"/>
  <path d="m718.58 278.4-1.417 1.7-0.568-1.417 0.992-1.702 0.993 1.419z" fill="#DDD690" stroke="#000" stroke-width=".3804"/>
  <path d="m719.86 277.12-0.283 1.419h1.842v-1.419l-0.707-0.425-0.852 0.425z" fill="#DDD690" stroke="#000" stroke-width=".3804"/>
  <path d="m717.59 275.42h-0.992l-0.142 1.135h1.701l-0.567-1.135z" fill="#DDD690" stroke="#000" stroke-width=".3804"/>
  <path d="m719.57 275-0.284 1.276h1.419v-1.276h-1.135z" fill="#E2D67E" stroke="#000" stroke-width=".3804"/>
  <path d="m719.15 272.44-0.283 1.275h1.984l0.144-1.133-1.845-0.142z" fill="#E2D67E" stroke="#000" stroke-width=".3804"/>
  <path d="m716.88 273.01-0.284 1.843 1.701-0.707v-0.993l-1.417-0.143z" fill="#E2D67E" stroke="#000" stroke-width=".3804"/>
  <path d="m716.74 270.46-0.567 1.134 0.851 0.426 0.71-0.993-0.284-0.85-0.71 0.283z" fill="#E2D67E" stroke="#000" stroke-width=".3804"/>
  <path d="m719.08 269.5-0.448 0.94 0.735 1.267 1.022-0.246 0.043-1.431-1.147-0.573-0.205 0.043z" fill="#E2D67E" stroke="#000" stroke-width=".3804"/>
  <path d="m716.67 268.07-0.37 1.023 0.737 0.654s0.612-0.244 0.612-0.451c0-0.203 0.205-0.858 0.205-0.858l-0.817-0.491-0.367 0.123z" fill="#E2D67E" stroke="#000" stroke-width=".3804"/>
  <path d="m718.63 267.54-0.246 1.146 0.573 0.368 1.022 0.082s0.041-0.778 0.041-1.064c0-0.285-0.737-0.613-0.737-0.613l-0.653 0.081z" fill="#E2D67E" stroke="#000" stroke-width=".3804"/>
  <path d="m716.46 265.98-0.083 1.145 0.86 0.205s0.45-0.448 0.45-0.612c0-0.163-0.41-0.9-0.41-0.9l-0.817 0.162z" fill="#E2D67E" stroke="#000" stroke-width=".3804"/>
  <path d="m718.38 265.66-0.164 0.941s0.328 0.449 0.737 0.449c0.408 0 0.572-0.408 0.572-0.571 0-0.165-0.164-0.86-0.164-0.86l-0.981 0.041z" fill="#E2D67E" stroke="#000" stroke-width=".3804"/>
  <path d="m716.38 264.39-0.285 0.942 0.817 0.367 0.614-0.818-0.655-0.448-0.491-0.043z" fill="#E2D67E" stroke="#000" stroke-width=".3804"/>
  <path d="m718.3 263.82-0.122 0.858s0.571 0.409 0.777 0.286c0.205-0.122 0.449-0.653 0.449-0.653l-0.737-0.491h-0.367z" fill="#E2D67E" stroke="#000" stroke-width=".3804"/>
  <path d="m715.81 261.98-0.204 1.063s0.612 0.573 0.776 0.492c0.165-0.083 1.023-0.328 1.023-0.328l-0.45-1.063s-0.531-0.123-0.694-0.123c-0.164 0-0.492 0-0.451-0.041z" fill="#E2D67E" stroke="#000" stroke-width=".3804"/>
  <path d="m717.93 261.44-0.244 1.022 1.389 0.246s0.205-1.146-0.08-1.146c-0.289 1e-3 -0.984-0.081-1.065-0.122z" fill="#E2D67E" stroke="#000" stroke-width=".3804"/>
  <path d="m715.93 260.05-0.245 0.614 0.694 0.531 0.573-0.326-0.369-0.778-0.653-0.041z" fill="#E2D67E" stroke="#000" stroke-width=".3804"/>
  <path d="m718.02 259.64-0.53 0.819 0.858 0.366 0.735-0.571-1.063-0.614z" fill="#E2D67E" stroke="#000" stroke-width=".3804"/>
  <path d="m715.97 257.85-0.368 0.614 0.409 0.653 0.655-0.532-0.696-0.735z" fill="#E2D67E" stroke="#000" stroke-width=".3804"/>
  <path d="m717.44 257.44-0.327 0.45 0.491 0.653 0.817-0.449 0.082-0.368-0.368-0.45-0.695 0.164z" fill="#E2D67E" stroke="#000" stroke-width=".3804"/>
  <path d="m715.77 256.17-0.368 0.858 0.817 0.45 0.452-0.571-0.288-0.655-0.613-0.082z" fill="#E2D67E" stroke="#000" stroke-width=".3804"/>
  <path d="m717.32 255.35-0.45 0.574 0.614 0.613 0.776-0.451-0.53-0.654-0.41-0.082z" fill="#E2D67E" stroke="#000" stroke-width=".3804"/>
  <path d="m715.77 254.74h-0.327v0.695l0.94-0.082-0.164-0.695-0.449 0.082z" fill="#E2D67E" stroke="#000" stroke-width=".3804"/>
  <path d="m717.03 253.92-0.041 0.777 0.858-0.123-0.041-0.694-0.776 0.04z" fill="#E2D67E" stroke="#000" stroke-width=".3804"/>
  <path d="m715.56 253.31-0.285 0.408 0.489 0.655 0.492-0.451s0.163-0.612 0-0.612h-0.696z" fill="#E2D67E" stroke="#000" stroke-width=".3804"/>
  <path d="m715.64 251.96-0.366 0.327 0.448 0.449 0.572-0.285-0.654-0.491z" fill="#E2D67E" stroke="#000" stroke-width=".3804"/>
  <path d="m715.77 250.93-0.45 0.653h0.778l-0.328-0.653z" fill="#E2D67E" stroke="#000" stroke-width=".3804"/>
  <path d="m716.79 251.3 0.082 0.655h0.655l-0.737-0.655z" fill="#E2D67E" stroke="#000" stroke-width=".3804"/>
  <path d="m716.83 252.36s-0.162 0.858 0 0.858c0.164 0 0.614-0.123 0.614-0.123l-0.614-0.735z" fill="#E2D67E" stroke="#000" stroke-width=".3804"/>
  <path d="m738.59 272.12-0.898 1.227 0.081 1.269 1.187 1.104 1.104-1.555-1.474-2.045z" fill="#D3C55F" stroke="#000" stroke-width=".3804"/>
  <path d="m740.18 270.36-1.104 1.597 1.063 1.677 1.104-0.694s0.164-1.393-0.041-1.639c-0.205-0.244-1.063-0.982-1.022-0.941z" fill="#D3C75F" stroke="#000" stroke-width=".3804"/>
  <path d="m738.14 268.11s-0.49 0.736-0.49 0.901c0 0.163 0.287 1.348 0.287 1.348l0.695 0.901s0.775-0.246 0.857-0.492c0.082-0.243 0.369-1.186 0.369-1.186l-0.94-1.228-0.778-0.244z" fill="#E2D67E" stroke="#000" stroke-width=".3804"/>
  <path d="m736.42 269.87-0.205 0.408s-0.121 0.983 0.123 1.146c0.245 0.164 0.981 0.942 0.981 0.942s0.653-0.409 0.653-0.614-0.49-1.474-0.49-1.474l-0.571-0.571-0.491 0.163z" fill="#D3C95F" stroke="#000" stroke-width=".3804"/>
  <path d="m734.74 267.05-0.326 0.776 0.408 1.064 0.778 0.777s0.858-0.162 0.858-0.328v-1.145l-0.533-0.899-0.899-0.408-0.286 0.163z" fill="#E2D67E" stroke="#000" stroke-width=".3804"/>
  <path d="m736.58 266.31-0.204 0.613s0.082 0.86 0.245 0.94c0.164 0.082 0.818 0.41 0.818 0.41l0.571-0.941-0.571-1.186-0.859 0.164z" fill="#E2D67E" stroke="#000" stroke-width=".3804"/>
  <path d="m735.69 264.35-0.41 0.899 0.246 0.653 0.573 0.287s0.653-0.327 0.653-0.491 0-0.858 0-0.858l-0.735-0.451-0.327-0.039z" fill="#E2D67E" stroke="#000" stroke-width=".3804"/>
  <path d="m733.8 265-0.531 0.695 0.205 0.86 0.899 0.286 0.613-0.737-0.492-0.981-0.694-0.123z" fill="#E2D67E" stroke="#000" stroke-width=".3804"/>
  <path d="m733.11 263.16-0.448 0.409v0.532l0.695 0.533 0.653-0.328-0.163-0.737-0.326-0.491-0.411 0.082z" fill="#E2D67E" stroke="#000" stroke-width=".3804"/>
  <path d="m734.91 262.63-0.287 0.654 0.409 0.859 0.656-0.368-0.125-0.737-0.653-0.408z" fill="#E2D67E" stroke="#000" stroke-width=".3804"/>
  <path d="m733.68 260.87-0.162 1.472 1.021-0.164 0.246-0.776-0.367-0.574-0.738 0.042z" fill="#E2D67E" stroke="#000" stroke-width=".3804"/>
  <path d="m732.62 261.2c-0.163 0.04-0.735 0.082-0.735 0.082l0.164 1.471 0.653-0.08 0.246-0.532-0.082-0.654-0.246-0.287z" fill="#E2D67E" stroke="#000" stroke-width=".3804"/>
  <path d="m731.39 259.73-0.49 0.614 0.49 0.817 0.45-0.082 0.285-0.612-0.735-0.737z" fill="#E2D67E" stroke="#000" stroke-width=".3804"/>
  <path d="m732.98 259.32-0.408 0.451 0.328 0.491 0.409 0.041 0.408-0.492-0.367-0.448-0.37-0.043z" fill="#E2D67E" stroke="#000" stroke-width=".3804"/>
  <path d="m730.37 258.26-0.287 0.776 0.778 0.205 0.203-0.491-0.244-0.451-0.45-0.039z" fill="#E2D67E" stroke="#000" stroke-width=".3804"/>
  <path d="m731.72 257.85-0.081 0.899 0.858-0.082-0.082-0.735-0.695-0.082z" fill="#E2D67E" stroke="#000" stroke-width=".3804"/>
  <path d="m729.39 256.82 0.041 0.776h0.858s0.287-0.899-0.082-0.858c-0.368 0.041-0.735 0.121-0.817 0.082z" fill="#E2D67E" stroke="#000" stroke-width=".3804"/>
  <path d="m731.02 256.45v0.777l0.899-0.123-0.204-0.694-0.695 0.04z" fill="#E2D67E" stroke="#000" stroke-width=".3804"/>
  <path d="m729.84 255.64h-0.899l0.123 0.777 0.817-0.082-0.041-0.695z" fill="#E2D67E" stroke="#000" stroke-width=".3804"/>
  <path d="m730.41 255.1-0.123 0.737 0.942-0.041v-0.696h-0.819z" fill="#E2D67E" stroke="#000" stroke-width=".3804"/>
  <path d="m729.51 253.92-0.041 0.859s1.022 0.163 1.022 0c0-0.164-0.205-0.736-0.205-0.736l-0.776-0.123z" fill="#E2D67E" stroke="#000" stroke-width=".3804"/>
  <path d="m728.94 254h-0.818l0.083 0.94h0.981l0.122-0.653-0.368-0.287z" fill="#E2D67E" stroke="#000" stroke-width=".3804"/>
  <path d="m727.02 251.22-0.41 0.409 1.269 2.004h0.776l-0.735-1.022s0.122-0.49-0.082-0.571c-0.203-0.082-0.367-0.082-0.367-0.082l-0.451-0.738z" fill="#E2D67E" stroke="#000" stroke-width=".3804"/>
  <path d="m727.18 250.44-0.285 0.368 1.514 1.022v0.858l0.695 0.655 0.571 0.162-0.203-0.694-0.286-0.776-0.574-0.451-0.407-0.735s-0.205-0.041-0.369-0.082c-0.162-0.041-0.326-0.287-0.326-0.287l-0.33-0.04z" fill="#E2D67E" stroke="#000" stroke-width=".3804"/>
  <path d="m730.02 393.42c-0.682-12.404 10.536-24.81-19.661-37.217" fill="none" stroke="#4DCF4A" stroke-width=".7607"/>
  <path d="m758.81 386.4c0-16.385-9.363-23.406-28.089-21.066" fill="none" stroke="#38BB26" stroke-width=".9509"/>
  <path d="m768.64 393.42c-9.896-11.915-23.114-10.535-38.622 0" fill="none" stroke="#51C757" stroke-width=".7607"/>
  <path d="m793.22 377.97c-3.759-7.005-17.478-2.391-32.301 3.514" fill="none" stroke="#51C757" stroke-width=".7607"/>
  <path d="m843.07 355.5c-3.745-10.767-10.298-16.854-19.662-18.258" fill="none" stroke="#7ACB73" stroke-width=".6847"/>
  <path d="m855.72 338.65c-2.484-5.562-5.084-10.896-11.235-9.129" fill="none" stroke="#4CB135" stroke-width=".9509"/>
  <path d="m704.74 382.89c3.271-11.23-0.277-15.641-6.319-17.556" fill="none" stroke="#60C85A" stroke-width="1.065"/>
  <path d="m651.37 341.46c6.25-2.713 11.241-7.943 20.363-4.913" fill="none" stroke="#71CE5B" stroke-width=".989"/>
  <path d="m643.65 334.44c5.104 0.107 8.668 2.099 9.83 7.021" fill="none" stroke="#71CE5B" stroke-width=".989"/>
</svg>
