<?xml version="1.0" encoding="UTF-8"?>
<svg id="Flag of Costa Rica" width="500" height="300" version="1.0" xmlns="http://www.w3.org/2000/svg">
  <rect id="blue fields" width="500" height="300" fill="#002b7f"/>
  <rect id="white fields" y="50" width="500" height="200" fill="#fff"/>
  <rect id="red field" y="100" width="500" height="100" fill="#ce1126"/>
  <path d="m187.5 150c0 24.162-16.789 43.75-37.5 43.75s-37.5-19.588-37.5-43.75 16.789-43.75 37.5-43.75 37.5 19.588 37.5 43.75z" fill="#fff"/>
  <g transform="matrix(.76005 0 0 .76005 60.915 -41.119)">
    <path d="m117.22 215.45c2.129 2.675 6.3475 8.495 13.262 7.245 2.344 0.505 4.043 1.13 5.547 1.97 1.0545-0.155 2.1095 0.315 2.4805 1.33 0.293 0.82-0.625 1.64-1.543 1.445 0.8205 2.21 8.2815 1.23 11.27 5.585-0.8985-0.29-1.7775-0.625-2.656-0.585l0.5665 1.72c1.445 0.41 2.441 0.645 3.066 2.245 0.6055 1.585 1.504 4.005 2.129 5.195 0.41 0.53 0.508 1.115 0.508 1.425 0 0.685-0.469 1.64-1.621 1.64-1.133 0-1.719-0.72-1.719-1.445l-0.703-1.13c-0.8985 0.095-1.953 0.43-2.8125 1.055-1.6405 1.19-2.051 3.535-1.094 5.485 0.918 1.895 3.301 2.99 6.875 1.585 2.891-1.135 5.801 0.35 6.758 2.93 4.3555 11.755-3.242 21.305-11.875 26.895-8.9845 5.8-10.566 7.38-12.988 10.215-2.402 2.83-4.7655 6.07-8.281 6.07-0.5275 0-1.0745-0.135-1.543-0.41-2.2655 0-2.344 0.88-5.625 0.88-3.262 0-3.34-0.88-5.625-0.88-0.469 0.255-0.996 0.41-1.543 0.41-3.5155 0-5.8595-3.24-8.281-6.07-2.4025-2.835-4.004-4.415-12.988-10.215-8.633-5.57-16.25-15.12-11.894-26.895 0.957-2.58 3.867-4.065 6.758-2.93 3.5545 1.385 5.937 0.29 6.875-1.585 0.957-1.93 0.5465-4.275-1.094-5.485-0.84-0.625-1.8945-0.96-2.8125-1.055l-0.703 1.13c0 0.725-0.5665 1.445-1.719 1.445-1.1325 0-1.621-0.955-1.621-1.64 0-0.29 0.0975-0.875 0.508-1.425 0.625-1.19 1.5235-3.61 2.1485-5.195 0.605-1.58 1.621-1.815 3.066-2.245l0.5665-1.72c-0.8595-0.02-1.7575 0.275-2.656 0.585 2.9685-4.335 10.43-3.375 11.27-5.585-0.918 0.195-1.836-0.625-1.543-1.445 0.3515-1.015 1.4255-1.505 2.4805-1.33 1.504-0.82 3.203-1.465 5.5465-1.97 6.9145 1.23 11.133-4.55 13.262-7.245" fill="#ffea4f"/>
    <path d="m117.22 215.45c2.129 2.675 6.3475 8.495 13.262 7.245 2.344 0.505 4.043 1.13 5.547 1.97 1.0545-0.155 2.1095 0.315 2.4805 1.33 0.293 0.82-0.625 1.64-1.543 1.445 0.8205 2.21 8.2815 1.23 11.27 5.585-0.8985-0.29-1.7775-0.625-2.656-0.585l0.5665 1.72c1.445 0.41 2.441 0.645 3.066 2.245 0.6055 1.585 1.504 4.005 2.129 5.195 0.41 0.53 0.508 1.115 0.508 1.425 0 0.685-0.469 1.64-1.621 1.64-1.133 0-1.719-0.72-1.719-1.445l-0.703-1.13c-0.8985 0.095-1.953 0.43-2.8125 1.055-1.6405 1.19-2.051 3.535-1.094 5.485 0.918 1.895 3.301 2.99 6.875 1.585 2.891-1.135 5.801 0.35 6.758 2.93 4.3555 11.755-3.242 21.305-11.875 26.895-8.9845 5.8-10.566 7.38-12.988 10.215-2.402 2.83-4.7655 6.07-8.281 6.07-0.5275 0-1.0745-0.135-1.543-0.41-2.2655 0-2.344 0.88-5.625 0.88-3.262 0-3.34-0.88-5.625-0.88-0.469 0.255-0.996 0.41-1.543 0.41-3.5155 0-5.8595-3.24-8.281-6.07-2.4025-2.835-4.004-4.415-12.988-10.215-8.633-5.57-16.25-15.12-11.894-26.895 0.957-2.58 3.867-4.065 6.758-2.93 3.5545 1.385 5.937 0.29 6.875-1.585 0.957-1.93 0.5465-4.275-1.094-5.485-0.84-0.625-1.8945-0.96-2.8125-1.055l-0.703 1.13c0 0.725-0.5665 1.445-1.719 1.445-1.1325 0-1.621-0.955-1.621-1.64 0-0.29 0.0975-0.875 0.508-1.425 0.625-1.19 1.5235-3.61 2.1485-5.195 0.605-1.58 1.621-1.815 3.066-2.245l0.5665-1.72c-0.8595-0.02-1.7575 0.275-2.656 0.585 2.9685-4.335 10.43-3.375 11.27-5.585-0.918 0.195-1.836-0.625-1.543-1.445 0.3515-1.015 1.4255-1.505 2.4805-1.33 1.504-0.82 3.203-1.465 5.5465-1.97 6.9145 1.23 11.133-4.55 13.262-7.245z" fill="none" stroke="#000" stroke-width=".625"/>
    <path d="m115.54 288.73c-2.383-3.4-7.344-1.72-16.426-7.03-9.2775-5.45-12.304-17.89-8.1445-26.27 2.8515-5.765 4.551-9.475 1.3475-18.36-0.371-1.23-3.789-1.405-1.543 1.62 3.2425 4.335 4.1015 11.585-0.5465 14.435-1.797 1.095-3.7305 1.64-5.723 1.525-2.129-0.14-3.9255 0.33-4.277 3.105-1.504 12.305 8.691 23.845 18.516 25.855 3.203 0.63 11.718 2.715 13.984 5.57 0.703-0.195 2.168-0.43 2.8515-0.47"/>
    <path d="m115.54 288.73c-2.383-3.4-7.344-1.72-16.426-7.03-9.2775-5.45-12.304-17.89-8.1445-26.27 2.8515-5.765 4.551-9.475 1.3475-18.36-0.371-1.23-3.789-1.405-1.543 1.62 3.2425 4.335 4.1015 11.585-0.5465 14.435-1.797 1.095-3.7305 1.64-5.723 1.525-2.129-0.14-3.9255 0.33-4.277 3.105-1.504 12.305 8.691 23.845 18.516 25.855 3.203 0.63 11.718 2.715 13.984 5.57 0.703-0.195 2.168-0.43 2.8515-0.47l-0.039 0.02z" fill="none" stroke="#000" stroke-width=".625"/>
    <path d="m118.9 288.73c2.383-3.4 7.344-1.72 16.426-7.03 9.2775-5.45 12.304-17.89 8.1445-26.27-2.8515-5.765-4.551-9.475-1.3475-18.36 0.371-1.23 3.789-1.405 1.543 1.62-3.2425 4.335-4.0825 11.585 0.5465 14.435 1.7775 1.095 3.7305 1.64 5.723 1.525 2.1285-0.14 3.945 0.33 4.277 3.105 1.504 12.305-8.691 23.845-18.516 25.855-3.1835 0.63-11.718 2.715-13.965 5.57-0.703-0.195-2.168-0.43-2.8515-0.47"/>
    <path d="m118.9 288.73c2.383-3.4 7.344-1.72 16.426-7.03 9.2775-5.45 12.304-17.89 8.1445-26.27-2.8515-5.765-4.551-9.475-1.3475-18.36 0.371-1.23 3.789-1.405 1.543 1.62-3.2425 4.335-4.0825 11.585 0.5465 14.435 1.7775 1.095 3.7305 1.64 5.723 1.525 2.1285-0.14 3.945 0.33 4.277 3.105 1.504 12.305-8.691 23.845-18.516 25.855-3.1835 0.63-11.718 2.715-13.965 5.57-0.703-0.195-2.168-0.43-2.8515-0.47l0.0195 0.02z" fill="none" stroke="#000" stroke-width=".625"/>
    <path d="m98.371 224.69c1.191 0.175 2.1875 1.64 1.1715 3.38-1.8555 3.145-8.086 1.055-11.054 2.93" fill="none" stroke="#000" stroke-width=".625"/>
    <path d="m97.453 227.46c0.7225-0.175 1.484-1.405 0.586-1.955" fill="none" stroke="#000" stroke-width=".625"/>
    <path d="m97.375 283.28c6.211 4.415 7.1095 10.155 13.536 10.43" fill="none" stroke="#000" stroke-width=".625"/>
    <path d="m110.99 294.61c-3.789 0.82-6.2695-1.25-9.258-5.745-1.5235-2.265-5.527-5.45-12.363-9.745-10.742-6.74-13.926-18.495-10.43-24.94 0.8595-1.585 3.0665-2.21 4.336-1.855 3.301 0.895 8.848 0 8.8675-5.375 0.0195-3.025-2.4415-6.56-5.625-6.56-1.934 0-2.969 0.645-3.4765 1.33" fill="none" stroke="#000" stroke-width=".625"/>
    <path d="m84.035 242.36c0.6445-0.62 1.8165 0.06 1.8165 0.92" fill="none" stroke="#000" stroke-width=".625"/>
    <path d="m85.129 242.25c0.3515-0.095 0.8595-0.115 1.426-0.06" fill="none" stroke="#000" stroke-width=".625"/>
    <path d="m110.52 292.33c0-0.295 0.2535-0.605 0.625-0.605 0.371 0 0.703 0.33 0.703 0.74 0 0.9-0.508 1.385-1.582 1.17-0.879-0.175-1.2695-1.13-0.8985-2.09 0.371-0.975 1.621-1.58 2.9685-0.975 1.348 0.625 1.1915 2.695 0.723 3.87-0.2735 0.68-0.8205 1.25-1.4845 1.62" fill="none" stroke="#000" stroke-width=".625"/>
    <path d="m136.07 224.69c-1.211 0.175-2.1875 1.64-1.1715 3.38 1.855 3.145 8.0855 1.055 11.054 2.93" fill="none" stroke="#000" stroke-width=".625"/>
    <path d="m136.98 227.46c-0.7225-0.175-1.4845-1.405-0.586-1.955" fill="none" stroke="#000" stroke-width=".625"/>
    <path d="m137.06 283.28c-6.2105 4.415-7.109 10.155-13.554 10.43" fill="none" stroke="#000" stroke-width=".625"/>
    <path d="m123.45 294.61c3.789 0.82 6.2695-1.25 9.2575-5.745 1.504-2.265 5.5275-5.45 12.364-9.745 10.742-6.74 13.926-18.495 10.43-24.94-0.859-1.585-3.066-2.21-4.3355-1.855-3.301 0.895-8.848 0-8.8675-5.375-0.0195-3.025 2.4415-6.56 5.625-6.56 1.9335 0 2.969 0.645 3.4765 1.33" fill="none" stroke="#000" stroke-width=".625"/>
    <path d="m150.4 242.36c-0.6445-0.62-1.8165 0.06-1.8165 0.92" fill="none" stroke="#000" stroke-width=".625"/>
    <path d="m125.21 292.19c0-2.675-4.5115-3.515-7.9685-3.515-3.4375 0-7.9685 0.84-7.9685 3.515" fill="none" stroke="#000" stroke-width=".625"/>
    <path d="m149.31 242.25c-0.352-0.095-0.879-0.115-1.426-0.06" fill="none" stroke="#000" stroke-width=".625"/>
    <path d="m123.92 292.33c0-0.295-0.2535-0.605-0.625-0.605-0.371 0-0.703 0.33-0.703 0.74 0 0.9 0.508 1.385 1.582 1.17 0.879-0.175 1.2695-1.13 0.8985-2.09-0.371-0.975-1.621-1.58-2.9685-0.975-1.348 0.625-1.1915 2.695-0.723 3.87 0.2735 0.68 0.8205 1.25 1.4845 1.62" fill="none" stroke="#000" stroke-width=".625"/>
    <path d="m121.61 294.88c-1.8165 0-1.758 2.055-4.3945 2.055-2.617 0-2.5585-2.055-4.375-2.055" fill="none" stroke="#000" stroke-width=".625"/>
    <path d="m117.22 291.97c-1.289 0-1.289 1.915 0 1.915s1.3085-1.915 0-1.915" fill="#ffea4f"/>
    <path d="m117.22 291.97c-1.289 0-1.289 1.915 0 1.915s1.3085-1.915 0-1.915z" fill="none" stroke="#000" stroke-width=".3125"/>
    <path d="m119.54 292.33c-0.8005 0-0.8005 1.19 0 1.19 0.801 0 0.8205-1.19 0-1.19" fill="#ffea4f"/>
    <path d="m119.54 292.33c-0.8005 0-0.8005 1.19 0 1.19 0.801 0 0.8205-1.19 0-1.19z" fill="none" stroke="#000" stroke-width=".3125"/>
    <path d="m117.82 295.28c0-0.805-1.1915-0.805-1.1915 0 0 0.8 1.1915 0.8 1.1915 0" fill="#ffea4f"/>
    <path d="m117.82 295.28c0-0.805-1.1915-0.805-1.1915 0 0 0.8 1.1915 0.8 1.1915 0z" fill="none" stroke="#000" stroke-width=".3125"/>
    <path d="m114.89 293.56c0.8005 0 0.8005-1.195 0-1.195-0.801 0-0.8205 1.195 0 1.195" fill="#ffea4f"/>
    <path d="m114.89 293.56c0.8005 0 0.8005-1.195 0-1.195-0.801 0-0.8205 1.195 0 1.195z" fill="none" stroke="#000" stroke-width=".3125"/>
    <path d="m116.61 290.61c0 0.8 1.1915 0.8 1.1915 0s-1.1915-0.8-1.1915 0" fill="#ffea4f"/>
    <path d="m116.61 290.61c0 0.8 1.1915 0.8 1.1915 0s-1.1915-0.8-1.1915 0z" fill="none" stroke="#000" stroke-width=".3125"/>
    <path d="m114.35 227.68c1.6405-1.055 3.672-2.83 4.414-4.005 1.0155-1.64 1.1525-0.84 1.9335-0.975-1.836 2.01-4.121 4.16-5.742 5.295l-0.6055-0.315" fill="#66ff35"/>
    <path d="m114.35 227.68c1.6405-1.055 3.672-2.83 4.414-4.005 1.0155-1.64 1.1525-0.84 1.9335-0.975-1.836 2.01-4.121 4.16-5.742 5.295l-0.6055-0.315" fill="none" stroke="#000" stroke-width=".25"/>
    <path d="m100.62 231.62c-4.1015-2.325-5.664 0.1-6.621 0.215 1.1325 0.275 2.0895 2.09 6.621-0.215" fill="#66ff35"/>
    <path d="m100.62 231.62c-4.1015-2.325-5.664 0.1-6.621 0.215 1.1325 0.275 2.0895 2.09 6.621-0.215z" fill="none" stroke="#000" stroke-width=".25"/>
    <path d="m102.45 230.28c-3.9065-2.64-5.6445-0.335-6.6215-0.275 1.1135 0.35 1.934 2.245 6.6215 0.275" fill="#66ff35"/>
    <path d="m102.45 230.28c-3.9065-2.64-5.6445-0.335-6.6215-0.275 1.1135 0.35 1.934 2.245 6.6215 0.275z" fill="none" stroke="#000" stroke-width=".25"/>
    <path d="m105.25 228.71c-3.848-2.715-5.6445-0.45-6.6215-0.41 1.1135 0.39 1.875 2.265 6.6215 0.41" fill="#66ff35"/>
    <path d="m105.25 228.71c-3.848-2.715-5.6445-0.45-6.6215-0.41 1.1135 0.39 1.875 2.265 6.6215 0.41z" fill="none" stroke="#000" stroke-width=".25"/>
    <path d="m107.55 227.33c-3.535-3.125-5.5665-1.055-6.5235-1.135 1.0545 0.51 1.621 2.46 6.5235 1.135" fill="#66ff35"/>
    <path d="m107.55 227.33c-3.535-3.125-5.5665-1.055-6.5235-1.135 1.0545 0.51 1.621 2.46 6.5235 1.135z" fill="none" stroke="#000" stroke-width=".25"/>
    <path d="m110.5 226.31c-3.3785-3.305-5.5075-1.33-6.4645-1.465 1.035 0.545 1.504 2.555 6.4645 1.465" fill="#66ff35"/>
    <path d="m110.5 226.31c-3.3785-3.305-5.5075-1.33-6.4645-1.465 1.035 0.545 1.504 2.555 6.4645 1.465z" fill="none" stroke="#000" stroke-width=".25"/>
    <path d="m113.59 225.98c-2.793-3.79-5.2145-2.205-6.152-2.48 0.918 0.725 1.0545 2.755 6.152 2.48" fill="#66ff35"/>
    <path d="m113.59 225.98c-2.793-3.79-5.2145-2.205-6.152-2.48 0.918 0.725 1.0545 2.755 6.152 2.48z" fill="none" stroke="#000" stroke-width=".25"/>
    <path d="m114.09 226.13c-0.137-0.855-1.7385-1.95-1.875-2.36 0.41-0.04 0.4685-0.53 0.293-0.705-0.137-0.135-0.469-0.06-0.6445 0.12-0.176 0.215-0.3515 0.72 0.2145 1.15 0.586 0.43 1.3285 1.21 1.563 1.795" fill="#66ff35"/>
    <path d="m114.09 226.13c-0.137-0.855-1.7385-1.95-1.875-2.36 0.41-0.04 0.4685-0.53 0.293-0.705-0.137-0.135-0.469-0.06-0.6445 0.12-0.176 0.215-0.3515 0.72 0.2145 1.15 0.586 0.43 1.3285 1.21 1.563 1.795" fill="none" stroke="#000" stroke-width=".25"/>
    <path d="m120.09 227.68c-1.6405-1.055-3.672-2.83-4.414-4.005-1.035-1.64-1.1525-0.84-1.953-0.975 1.836 2.01 4.121 4.16 5.742 5.295l0.625-0.315" fill="#66ff35"/>
    <path d="m120.09 227.68c-1.6405-1.055-3.672-2.83-4.414-4.005-1.035-1.64-1.1525-0.84-1.953-0.975 1.836 2.01 4.121 4.16 5.742 5.295l0.625-0.315" fill="none" stroke="#000" stroke-width=".25"/>
    <path d="m133.82 231.62c4.1015-2.325 5.664 0.1 6.621 0.215-1.1325 0.275-2.0895 2.09-6.621-0.215" fill="#66ff35"/>
    <path d="m133.82 231.62c4.1015-2.325 5.664 0.1 6.621 0.215-1.1325 0.275-2.0895 2.09-6.621-0.215z" fill="none" stroke="#000" stroke-width=".25"/>
    <path d="m131.98 230.28c3.9065-2.64 5.6445-0.335 6.621-0.275-1.113 0.35-1.9335 2.245-6.621 0.275" fill="#66ff35"/>
    <path d="m131.98 230.28c3.9065-2.64 5.6445-0.335 6.621-0.275-1.113 0.35-1.9335 2.245-6.621 0.275z" fill="none" stroke="#000" stroke-width=".25"/>
    <path d="m129.19 228.71c3.848-2.715 5.6445-0.45 6.6015-0.41-1.113 0.39-1.875 2.265-6.6015 0.41" fill="#66ff35"/>
    <path d="m129.19 228.71c3.848-2.715 5.6445-0.45 6.6015-0.41-1.113 0.39-1.875 2.265-6.6015 0.41z" fill="none" stroke="#000" stroke-width=".25"/>
    <path d="m126.89 227.33c3.535-3.125 5.5665-1.055 6.5235-1.135-1.055 0.51-1.621 2.46-6.5235 1.135" fill="#66ff35"/>
    <path d="m126.89 227.33c3.535-3.125 5.5665-1.055 6.5235-1.135-1.055 0.51-1.621 2.46-6.5235 1.135z" fill="none" stroke="#000" stroke-width=".25"/>
    <path d="m123.96 226.31c3.3595-3.305 5.508-1.33 6.465-1.465-1.0155 0.545-1.4845 2.555-6.465 1.465" fill="#66ff35"/>
    <path d="m123.96 226.31c3.3595-3.305 5.508-1.33 6.465-1.465-1.0155 0.545-1.4845 2.555-6.465 1.465z" fill="none" stroke="#000" stroke-width=".25"/>
    <path d="m120.85 225.98c2.793-3.79 5.2145-2.205 6.152-2.48-0.918 0.725-1.0545 2.755-6.152 2.48" fill="#66ff35"/>
    <path d="m120.85 225.98c2.793-3.79 5.2145-2.205 6.152-2.48-0.918 0.725-1.0545 2.755-6.152 2.48z" fill="none" stroke="#000" stroke-width=".25"/>
    <path d="m120.34 226.13c0.1365-0.855 1.738-1.95 1.875-2.36-0.4295-0.04-0.469-0.53-0.293-0.705 0.1365-0.135 0.469-0.06 0.6445 0.12 0.1955 0.215 0.3515 0.72-0.215 1.15-0.566 0.43-1.328 1.21-1.5625 1.795" fill="#66ff35"/>
    <path d="m120.34 226.13c0.1365-0.855 1.738-1.95 1.875-2.36-0.4295-0.04-0.469-0.53-0.293-0.705 0.1365-0.135 0.469-0.06 0.6445 0.12 0.1955 0.215 0.3515 0.72-0.215 1.15-0.566 0.43-1.328 1.21-1.5625 1.795" fill="none" stroke="#000" stroke-width=".25"/>
    <path d="m96.887 231.9c1.113-0.335 2.5195-0.175 3.496-0.275" fill="none" stroke="#000" stroke-width=".25"/>
    <path d="m98.703 230.26c1.152-0.255 2.5195 0 3.5155 0" fill="none" stroke="#000" stroke-width=".25"/>
    <path d="m101.5 228.61c1.152-0.21 2.5195 0.06 3.5155 0.06" fill="none" stroke="#000" stroke-width=".25"/>
    <path d="m103.84 226.82c1.172-0.095 2.5 0.335 3.4765 0.45" fill="none" stroke="#000" stroke-width=".25"/>
    <path d="m106.81 225.61c1.1715-0.04 2.4805 0.45 3.457 0.625" fill="none" stroke="#000" stroke-width=".25"/>
    <path d="m110.07 224.71c1.172 0.12 2.383 0.86 3.301 1.155" fill="none" stroke="#000" stroke-width=".25"/>
    <path d="m137.55 231.9c-1.133-0.335-2.5195-0.175-3.496-0.275" fill="none" stroke="#000" stroke-width=".25"/>
    <path d="m135.73 230.26c-1.1525-0.255-2.5195 0-3.5155 0" fill="none" stroke="#000" stroke-width=".25"/>
    <path d="m132.94 228.61c-1.152-0.21-2.5195 0.06-3.5155 0.06" fill="none" stroke="#000" stroke-width=".25"/>
    <path d="m130.6 226.82c-1.172-0.095-2.5 0.335-3.4765 0.45" fill="none" stroke="#000" stroke-width=".25"/>
    <path d="m127.63 225.61c-1.172-0.04-2.4805 0.45-3.457 0.625" fill="none" stroke="#000" stroke-width=".25"/>
    <path d="m124.37 224.71c-1.172 0.12-2.383 0.86-3.301 1.155" fill="none" stroke="#000" stroke-width=".25"/>
    <path d="m93.605 252.23c1.133-3.77 1.6995-8.615 0.098-14.92 7.0505-4.55 12.012-8.71 23.496-8.71 11.465 0 16.875 3.16 23.496 8.71-1.582 6.305-1.0155 11.13 0.0975 14.92h-47.226" fill="#58ffd0"/>
    <path d="m94.914 252.23c1.035-4.45 6.9335-4.335 7.91 0h-7.91" fill="#ffea4f"/>
    <path d="m94.914 252.23c1.035-4.45 6.9335-4.335 7.91 0h-7.91" fill="none" stroke="#ffea4f" stroke-width=".625"/>
    <path d="m98.879 248.28v-6.895" fill="#ffea4f"/>
    <path d="m98.879 248.28v-6.895" fill="none" stroke="#ffea4f" stroke-width=".625"/>
    <path d="m100.09 248.44 2.051-7.675" fill="#ffea4f"/>
    <path d="m100.09 248.44 2.051-7.675" fill="none" stroke="#ffea4f" stroke-width=".625"/>
    <path d="m101.22 248.91 3.9645-6.875" fill="#ffea4f"/>
    <path d="m101.22 248.91 3.9645-6.875" fill="none" stroke="#ffea4f" stroke-width=".625"/>
    <path d="m102.2 249.65 4.336-4.36" fill="#ffea4f"/>
    <path d="m102.2 249.65 4.336-4.36" fill="none" stroke="#ffea4f" stroke-width=".625"/>
    <path d="m102.94 250.63 2.2655-1.31" fill="#ffea4f"/>
    <path d="m102.94 250.63 2.2655-1.31" fill="none" stroke="#ffea4f" stroke-width=".625"/>
    <path d="m97.707 248.44-2.0505-7.675" fill="#ffea4f"/>
    <path d="m97.707 248.44-2.0505-7.675" fill="none" stroke="#ffea4f" stroke-width=".625"/>
    <path d="m96.574 248.91-1.875-3.26" fill="#ffea4f"/>
    <path d="m96.574 248.91-1.875-3.26" fill="none" stroke="#ffea4f" stroke-width=".625"/>
    <path d="m95.598 249.65-1.133-1.135" fill="#ffea4f"/>
    <path d="m95.598 249.65-1.133-1.135" fill="none" stroke="#ffea4f" stroke-width=".625"/>
    <path d="m94.855 250.63-0.6835-0.39" fill="#ffea4f"/>
    <path d="m94.855 250.63-0.6835-0.39" fill="none" stroke="#ffea4f" stroke-width=".625"/>
    <path d="m93.605 252.23c-0.625 2.09-1.406 3.87-2.0895 5.39-1.7775 4.005-2.1485 13.32 4.414 19.905 9.746 9.745 17.168 5.82 20.898 11.13h0.7615c3.7305-5.31 11.152-1.385 20.898-11.13 6.5625-6.585 6.211-15.9 4.414-19.905-0.664-1.505-1.465-3.3-2.09-5.39h-47.226" fill="#00a0a0"/>
    <path d="m114.97 252.66 0.078-6.015c0-0.295 0.0585-0.33 0.0585 0l0.0195 6.095" fill="#865800"/>
    <path d="m114.97 252.66 0.078-6.015c0-0.295 0.0585-0.33 0.0585 0l0.0195 6.095" fill="none" stroke="#000" stroke-width=".125"/>
    <path d="m115.13 246.62c0.1955-0.175 0.6445 0.215 0.9375 0.04-0.1755 0.585-0.8595 0.115-0.9375 0.33v-0.39" fill="#fff"/>
    <path d="m115.13 246.62c0.1955-0.175 0.6445 0.215 0.9375 0.04-0.1755 0.585-0.8595 0.115-0.9375 0.33v-0.39 0.02z" fill="none" stroke="#000" stroke-width=".125"/>
    <path d="m116.93 252.68 0.078-6.015c0-0.275 0.039-0.335 0.0585 0l0.0195 6.095" fill="#865800"/>
    <path d="m116.93 252.68 0.078-6.015c0-0.275 0.039-0.335 0.0585 0l0.0195 6.095" fill="none" stroke="#000" stroke-width=".125"/>
    <path d="m117.08 246.62c0.176-0.175 0.645 0.215 0.938 0.04-0.176 0.585-0.8595 0.115-0.938 0.33v-0.39" fill="#fff"/>
    <path d="m117.08 246.62c0.176-0.175 0.645 0.215 0.938 0.04-0.176 0.585-0.8595 0.115-0.938 0.33v-0.39 0.02z" fill="none" stroke="#000" stroke-width=".125"/>
    <path d="m118.78 253.01 0.078-6.015c0-0.29 0.0585-0.33 0.0585 0l0.0195 6.095" fill="#865800"/>
    <path d="m118.78 253.01 0.078-6.015c0-0.29 0.0585-0.33 0.0585 0l0.0195 6.095" fill="none" stroke="#000" stroke-width=".125"/>
    <path d="m118.94 246.97c0.1955-0.175 0.6445 0.215 0.9375 0.04-0.1755 0.585-0.859 0.12-0.9375 0.335v-0.395" fill="#fff"/>
    <path d="m118.94 246.97c0.1955-0.175 0.6445 0.215 0.9375 0.04-0.1755 0.585-0.859 0.12-0.9375 0.335v-0.395 0.02z" fill="none" stroke="#000" stroke-width=".125"/>
    <path d="m119.45 253.69c-0.1955 0-0.449-0.08-0.508-0.255-0.1365 0.14-0.7615 0.215-0.996 0.02-0.156 0.14-0.664 0.235-0.918 0.08-0.2145 0.175-0.82 0.155-1.1325-0.02-0.1175 0.115-0.4885 0.255-0.7035 0.255-0.273-0.43-1.0545-1.095-1.5425-1.35-0.547-0.27-1.6215-0.8-2.2075-1.075-0.332-0.155-0.6445-0.41-0.0195-0.115 0.684 0.31 1.7775 0.76 2.5195 1.095 1.0745 0.485 5.3125 0.41 6.016 0.35 0.3515-0.02 0.8395-0.315 1.1915-0.525 0.2535-0.16 0.273-0.06 0.0195 0.075-0.2735 0.155-0.5665 0.255-0.801 0.585-0.293 0.43-0.703 0.605-0.8595 0.88" fill="#865800"/>
    <path d="m119.45 253.69c-0.1955 0-0.449-0.08-0.508-0.255-0.1365 0.14-0.7615 0.215-0.996 0.02-0.156 0.14-0.664 0.235-0.918 0.08-0.2145 0.175-0.82 0.155-1.1325-0.02-0.1175 0.115-0.4885 0.255-0.7035 0.255-0.273-0.43-1.0545-1.095-1.5425-1.35-0.547-0.27-1.6215-0.8-2.2075-1.075-0.332-0.155-0.6445-0.41-0.0195-0.115 0.684 0.31 1.7775 0.76 2.5195 1.095 1.0745 0.485 5.3125 0.41 6.016 0.35 0.3515-0.02 0.8395-0.315 1.1915-0.525 0.2535-0.16 0.273-0.06 0.0195 0.075-0.2735 0.155-0.5665 0.255-0.801 0.585-0.293 0.43-0.703 0.605-0.8595 0.88h-0.0585z" fill="none" stroke="#000" stroke-width=".125"/>
    <path d="m119.84 247.99-1.367-0.16c-0.2345 0.43-0.2735 0.96-0.137 1.31 0.43-0.43 1.2305-0.195 1.6215 0.02-0.1175-0.37-0.332-0.88-0.098-1.17" fill="#fff"/>
    <path d="m119.84 247.99-1.367-0.16c-0.2345 0.43-0.2735 0.96-0.137 1.31 0.43-0.43 1.2305-0.195 1.6215 0.02-0.1175-0.37-0.332-0.88-0.098-1.17h-0.0195z" fill="none" stroke="#000" stroke-width=".125"/>
    <path d="m119.95 249.18c-0.4105 0-1.3675-0.02-1.68-0.02-0.332 0.45-0.1365 1.115-0.078 1.365 0.3515-0.585 1.504-0.27 1.953 0.16-0.2145-0.45-0.3905-0.825-0.1755-1.505" fill="#fff"/>
    <path d="m119.95 249.18c-0.4105 0-1.3675-0.02-1.68-0.02-0.332 0.45-0.1365 1.115-0.078 1.365 0.3515-0.585 1.504-0.27 1.953 0.16-0.2145-0.45-0.3905-0.825-0.1755-1.505h-0.0195z" fill="none" stroke="#000" stroke-width=".125"/>
    <path d="m120.15 250.69c-0.3905-0.08-1.6795-0.16-1.9335-0.235-0.215 0.45-0.371 1.035-0.4685 1.58 0.625-0.705 2.0505-0.175 2.363 0.51-0.293-0.605-0.6055-1.485 0.039-1.855" fill="#fff"/>
    <path d="m120.15 250.69c-0.3905-0.08-1.6795-0.16-1.9335-0.235-0.215 0.45-0.371 1.035-0.4685 1.58 0.625-0.705 2.0505-0.175 2.363 0.51-0.293-0.605-0.6055-1.485 0.039-1.855z" fill="none" stroke="#000" stroke-width=".125"/>
    <path d="m118.43 247.56-1.8165-0.255c-0.254 0.31-0.449 0.86-0.4295 1.52 0.371-0.37 1.777-0.215 2.1285 0.315-0.117-0.565-0.273-1.31 0.1175-1.58" fill="#fff"/>
    <path d="m118.43 247.56-1.8165-0.255c-0.254 0.31-0.449 0.86-0.4295 1.52 0.371-0.37 1.777-0.215 2.1285 0.315-0.117-0.565-0.273-1.31 0.1175-1.58z" fill="none" stroke="#000" stroke-width=".125"/>
    <path d="m118.29 249.2-2.0115-0.275c-0.3125 0.43-0.293 1.015-0.215 1.66 0.4495-0.39 1.9535-0.175 2.305 0.35-0.1955-0.78-0.391-1.25-0.0395-1.735" fill="#fff"/>
    <path d="m118.29 249.2-2.0115-0.275c-0.3125 0.43-0.293 1.015-0.215 1.66 0.4495-0.39 1.9535-0.175 2.305 0.35-0.1955-0.78-0.391-1.25-0.0395-1.735h-0.039z" fill="none" stroke="#000" stroke-width=".125"/>
    <path d="m118.35 250.96-2.0315-0.215c-0.3125 0.41-0.5275 0.84-0.4685 1.465 0.3125-0.545 1.6795-0.155 2.246 0.45-0.332-0.47-0.371-1.15 0.254-1.7" fill="#fff"/>
    <path d="m118.35 250.96-2.0315-0.215c-0.3125 0.41-0.5275 0.84-0.4685 1.465 0.3125-0.545 1.6795-0.155 2.246 0.45-0.332-0.47-0.371-1.15 0.254-1.7z" fill="none" stroke="#000" stroke-width=".125"/>
    <path d="m115.01 247.56c-0.215 0.175-0.5665 0.8-0.625 0.955 0.371-0.155 1.172-0.195 1.6795 0.175-0.1365-0.29-0.1755-0.82-0.0585-1.035-0.1955-0.095-0.7225-0.135-0.9765-0.095" fill="#fff"/>
    <path d="m115.01 247.56c-0.215 0.175-0.5665 0.8-0.625 0.955 0.371-0.155 1.172-0.195 1.6795 0.175-0.1365-0.29-0.1755-0.82-0.0585-1.035-0.1955-0.095-0.7225-0.135-0.9765-0.095h-0.0195z" fill="none" stroke="#000" stroke-width=".125"/>
    <path d="m114.17 248.83c0.508 0 1.6015 0.12 2.0705 0.255-0.2735 0.43-0.2345 1.175-0.1175 1.62-0.703-0.74-1.8945-0.7-2.5975-0.505 0.1175-0.315 0.4495-1.015 0.6445-1.385" fill="#fff"/>
    <path d="m114.17 248.83c0.508 0 1.6015 0.12 2.0705 0.255-0.2735 0.43-0.2345 1.175-0.1175 1.62-0.703-0.74-1.8945-0.7-2.5975-0.505 0.1175-0.315 0.4495-1.015 0.6445-1.385v0.015z" fill="none" stroke="#000" stroke-width=".125"/>
    <path d="m116.26 250.88c-0.508 0-1.8165-0.215-2.422-0.51-0.195 0.585-0.293 1.545-0.3125 1.895 0.5665-0.8 1.9925-0.35 2.4415 0.47-0.039-0.45-0.1955-1.525 0.293-1.855" fill="#fff"/>
    <path d="m116.26 250.88c-0.508 0-1.8165-0.215-2.422-0.51-0.195 0.585-0.293 1.545-0.3125 1.895 0.5665-0.8 1.9925-0.35 2.4415 0.47-0.039-0.45-0.1955-1.525 0.293-1.855z" fill="none" stroke="#000" stroke-width=".125"/>
    <path d="m115.01 247.56c-1.426 0.895-2.5195 2.715-2.93 3.98 0.391-0.015 0.8985 0.12 1.094 0.51 0.41-1.815 1.0155-3.475 1.836-4.49" fill="#fff"/>
    <path d="m115.01 247.56c-1.426 0.895-2.5195 2.715-2.93 3.98 0.391-0.015 0.8985 0.12 1.094 0.51 0.41-1.815 1.0155-3.475 1.836-4.49z" fill="none" stroke="#000" stroke-width=".125"/>
    <path d="m115.07 246.68c-1.172 1.23-2.832 3.435-3.457 4.63" fill="none" stroke="#000" stroke-width=".125"/>
    <path d="m119.84 247.99c0.3125 1.62 0.391 3.805 0.2735 4.605" fill="none" stroke="#000" stroke-width=".125"/>
    <path d="m131.36 256.19c0.293-1.525 1.543-2.93 1.68-4.12 0.117-1.075 0.332-1.525 0.957-2.655 0.625-1.135 0.8785-1.66 1.0155-2.445 0.195-1.015 0.957-1.23 1.3085-0.195 0.332 1.035 0.996 3.635 1.3475 4.24 0.332 0.605 0.684 1.445 0.625 1.855-0.0585 0.41 0.4495 0.565 0.7425 0.86 0.293 0.275 0.332 1.23 1.1915 2.05 0.859 0.82 1.816 1.405 2.617 1.815 0.7225 1.625 1.211 4.085 1.0935 6.895h-53.652c-0.0195-0.74 0-1.465 0.039-2.165 4.7655-1.23 6.543-4.375 8.5545-4.16 1.094-1.525 2.422-3.165 3.34-4.005 1.0935-0.995 3.242-4.96 3.789-7.385 0.547-2.4 1.3475-3.69 1.953-3.555 0.6055 0.14 0.8595 0.255 1.582 2.425 0.9965 2.985 1.68 3.34 2.4415 5.485 0.664 1.86 2.051 5.195 4.18 6.935 1.328-0.995 2.8515-2.11 3.3395-2.89 0.4105-0.685 1.0355-1.74 1.7775-2.245 0.332-0.995 0.7615-2.775 1.1135-3.205 0.332-0.39 0.4685-0.78 0.5075-1.465 0.0195-0.685 0.547-2.13 1.2695-3.34 0.723-1.19 1.68-1.58 2.1095 0 0.41 1.585 1.367 4.905 2.2655 6.975 0.371 0.86 1.055 2.555 2.5585 4.335" fill="#eac800"/>
    <path d="m125.48 261.88c-0.996-0.96-2.578-0.745-3.3785-1.505-0.7815-0.74-2.0315-0.235-4.727-1.6-0.332-0.175-0.664-0.39-0.996-0.645-2.129-1.74-3.5155-5.08-4.1795-6.935-0.7425-2.13-1.4455-2.48-2.4415-5.49-0.5275-1.6-0.8205-2.09-1.172-2.265 0.918 1 0.43 2.56 1.172 4.24 0.293 0.665-0.1955 0.665-0.3515 0.45-0.1365-0.215-0.586-0.315-0.801-0.295 0.391 0.335 0.4495 1.175 0.84 2.05 0.371 0.88-0.293 0.785 0.508 2.035 0.2145 0.35 0.293 0.875-0.0195 1.09-0.332 0.195-0.5665-0.605-1.055-0.33 0.137 0.315 0.703 0.88 1.0745 1.21 0.371 0.335 0.0195 0.51-0.2735 0.355-0.3125-0.16-0.723-0.315-0.9375-0.49 0 0.255 0.3125 0.545 0.742 0.935 0.4495 0.375 0.1565 0.645-0.879 0.645 0.1565 0.235 0.098 0.82-0.371 0.9 0.6445 0.04 1.133 1.23 1.9335 1.31 0.7815 0.055 0.8595 0.605 0.098 0.74-0.762 0.135-2.305-1.095-3.0665-1.895-0.1955 0.275-0.6055 0.39-0.8985 0.235-0.0195 0.37 0.0975 1.27 0.449 1.855-0.371-0.155-0.859-0.645-1.3475-1.25-0.4685-0.565-0.781 0.275-0.371 0.78 0.41 0.51 0.6835 0.92 0.0195 1.31-0.6445 0.37-1.0545 0.235-1.543-0.45-0.6835 0.57-0.957 0.605-1.4845 0.51 0 0.33-0.5665 1.115-0.82 1.7-0.5665 1.13 25.117 3.475 24.394 0.74" fill="#865800"/>
    <path d="m143.98 261.92c-6.758-0.59-10.488-3.205-12.598-5.705-1.504-1.76-2.1875-3.475-2.5585-4.335-0.8985-2.07-1.8555-5.39-2.2655-6.975-0.137-0.525-0.332-0.84-0.5665-0.955-0.3515-0.175-0.176 0.43 0.078 0.74 0.2735 0.295 0.254 0.57-0.0975 0.355-0.3515-0.195-0.5275 0.195-0.1955 0.68 0.3125 0.47 0.801 1.02 0.8985 1.545 0.098 0.51 0.137 0.955 0.3905 1.21 0.2345 0.255-0.6445 0.315-1.0155-0.29-0.0195 0.39 0.098 0.955 0.3515 0.895 0.2345-0.04 0.3125 0.175-0.0195 0.765-0.332 0.565-0.293 0.76-0.1755 1.015 0.1755 0.39 0.625-1.155 0.8985-0.275 0.1365 0.41 0.371 0.92 0.5855 1.25 0.215 0.315 0.1955 0.51-0.117 0.51s-0.586-0.785-0.625-0.12c-0.0195 0.645 0.4885 0.86 1.0155 0.82 0.508-0.02 0.586 0.175 0.508 0.45-0.0585 0.275 0.156 0.545 0.449 0.49 0.2735-0.08 0.7035 0.175 0.9375 0.84 0.2345 0.665-0.156 0.955-0.7225 0.485-0.5665-0.485-1.3865-0.915-1.465-1.27-0.0585-0.31-0.293 0.14-0.039 0.57 0.2345 0.43 0.371 0.625 0.6835 0.8 0.3125 0.155-0.0195 0.8-0.5465 0.39-0.508-0.39-0.7425-0.295-0.8985 0.155-0.254 0.725-1.0155 0.55-0.7815 0.94 0.2345 0.39 0.137 1.015-0.2145 1.17-0.3715 0.155-0.801-0.075-0.762-0.76-0.0975 0.135-0.4685 0.195-0.7615 0.115-0.039 0.96-0.3125 1.29-0.8985 1.035-0.0195 0.215-0.039 0.585-0.332 0.86 0.6445-0.095 0.781 0.35 0.8395 0.625 0.0395 0.275 0.137 0.235 0.508 0.275 0.3515 0.02 0.801 0.485 0.137 0.37-0.6645-0.095-1.6995 0.135-2.305-0.31 0.625 0.565 2.4025 0.585 3.1445 1.305 5.4105 2.23 14.942 3.01 18.711 1.975 0.0195-0.45-0.039-1.485-0.078-1.815" fill="#865800"/>
    <path d="m135.93 246.1c0.156 0.075 0.3125 0.29 0.449 0.625 0.332 1.035 0.996 3.63 1.348 4.235 0.332 0.605 0.6835 1.445 0.625 1.855-0.059 0.41 0.449 0.57 0.742 0.86 0.293 0.275 0.332 1.23 1.1915 2.05s1.8165 1.41 2.617 1.82c0.4885 1.09 0.8595 2.555 1.0155 4.275-2.3045-0.175-5.195-0.86-6.6405-1.505 0.0585-0.215 0.0585-0.485-0.0195-0.895-0.0975-0.41-0.0195-0.725 0.41-1.115 0.43-0.39 0.293-1.055 0.059-1.425-0.2345-0.35-0.215-0.565-0.02-0.78 0.176-0.195 0.176-0.55-0.234-0.94-0.43-0.39-0.137-0.8 0.0975-1.15 0.2345-0.355 0.586-0.96 0.332-1.74-0.254-0.76-0.6445 0.175-0.957-0.115-0.1955-0.2-0.3125-0.57-0.0975-0.88 0.2145-0.295 0.078-0.86-0.176-1.29 0.5665-0.155-0.3905-1.815-0.547-2.52-0.156-0.705 0.176-1.055-0.195-1.33" fill="#865800"/>
    <path d="m111.26 252.5c0 0.37-0.0975 0.9-0.1955 1.075 0.2345 0.37 0.547 1.13 0.508 1.365 0.3125-0.29 0.918-0.06 1.0545 0.745 0.137 0.82 0.2735 1.58 0.1955 2.03 0.2735 0.235 0.8595 0.645 0.957 1.095 0.0975 0.43 0.3905 0.37 0.6835 0.33 0.918-0.135 0.84 0.975 1.797 0.82 1.3475-0.195 0.508 0.88 1.8555 0.84 0.781-0.04 1.8555 0.115 2.4025 0.88 0.605-0.82 1.1325-0.51 1.6795-0.295 0.547 0.195 1.2305 0.14 0.625-0.29-0.625-0.45-1.8555-0.51-2.4025-0.375-0.547 0.14-1.367 0.04-1.9335-0.465-0.547-0.51-1.504-0.94-2.09-0.96s-0.7225-0.055-1.1715-0.72c-0.43-0.645-1.133-0.57-1.4845-0.605-0.332-0.02-0.586-0.45-0.1955-0.86 0.5665-0.605-0.2345-0.685 0.0585-1.055s0.137-0.86-0.6445-0.92c-0.781-0.06-0.488-0.31-0.371-0.86 0.2735-1.305-1.4845-1.09-1.3475-1.715" fill="#eac800"/>
    <path d="m141.93 259.53c0.078-0.8-0.5275-1.13-0.664-1.74-0.117-0.605-1.0745-0.625-1.328-0.445 0.0975 0.175 0 0.485-0.1175 0.66-0.117 0.16-0.117 0.255 0.1175 0.335 0.2535 0.06 0.4685 0.115 0.488 0.33 0.0195 0.195 0.137 0.02 0.2345-0.235 0.078-0.25 0.7615 0.315 0.84 0.82 0.0585 0.51 0.332 0.86 0.41 0.255" fill="#eac800"/>
    <path d="m138.76 258.67c0.117 0.295 0.547 0.705 0.781 0.705 0.2345 0 0.586 0.175 0.6445 0.45 0.0395 0.235 0.2345 0.565 0.4885 0.605s0.117 0.235-0.1955 0.215c-0.332-0.02-0.8395-0.215-0.8785-0.45 0.117 0.49-0.0395 0.705-0.352 0.35-0.293-0.33-0.449-0.8-0.8395-0.86 0.293-0.055 0.332-0.135 0.195-0.43-0.117-0.29-0.0195-1.07 0.1565-0.585" fill="#eac800"/>
    <path d="m90.383 263.58c0.6445-0.315 1.387-0.195 1.758 0.135 0.195-0.37 0.5075-0.645 1.0935-0.545 0.469-0.51 0.8595-0.765 1.133-0.51 0.2735-0.505 1.1915-0.625 1.504-0.31 0.332-0.51 0.996-0.745 1.445-0.47 0.586-0.765 1.621-1.035 2.246-0.645 0.547-0.41 1.172-0.33 1.4455-0.06 0.2735 0.255 0.8595-0.27 1.094 0.215 0.41-0.095 1.191-0.115 1.3475 0.315 0.0975-0.235 0.449-0.375 0.6445-0.195 0-0.9 0.6445-1.585 1.543-1.37 0.4295-0.645 1.172-0.915 1.5235-0.685 0.371-0.37 1.1325-0.115 1.4645 0.335 0.723-0.02 1.0745 0.31 1.4455 0.955s1.4455 1.035 2.129 0.745c0.6835-0.255 1.3085-0.335 1.543-0.02 0.41-0.37 0.8595-0.275 1.1325-0.02 0.469 0.41 0.918-0.315 1.1915-0.04 0.43 0.45 0.8205-0.41 1.582 0.04 0.7425 0.45 2.207 1.13 3.34 1.13s2.0315-1.385 2.754-0.41c0.7225-0.485 1.8165-0.72 2.578-0.31 0.4495-0.41 1.4845-0.545 1.8945-0.155 0.41-0.625 1.1915-1 1.8555-0.785 0.371-0.64 1.8555-0.74 2.3045 0.16 0.3715 0 0.957 0.33 0.957 0.74 0.3715 0 0.9575 0.235 0.9575 0.665 0.41-0.1 0.9175 0.155 0.996 0.645 0.82-0.06 1.4845 0.275 1.8555 0.955 0.2735-0.235 0.117-0.84 0.742-0.955 0.625-0.1 0.8205 0.095 0.996 0.31 0.6835-0.505 1.641-0.445 2.4415 0.275 0.586-0.235 1.133-0.135 1.3085 0.155 0.254-0.235 0.664-0.29 1.0745-0.29 0.0195 1.325-0.098 2.77-0.391 4.255h-52.89c-0.2735-1.445-0.3905-2.89-0.371-4.22" fill="#92d900"/>
    <path d="m118.35 215.67c0.1365 0.66 0.3125 2.44-0.625 2.695 1.7185 2.205 4.199 2.52 8.5545 2.52 2.7345 0 4.9415-0.02 6.5625 0 0 0.565-0.176 1.17-0.176 1.875 0 0.68 0.684 0.995 1.68 0.76s3.125-0.9 4.277 0.155c1.934 1.8 5.4885 2.11 6.4455 3.245-0.293-1.37-1.543-2.755-2.9295-3.91 1.3085-0.195 3.0075-0.055 3.5935 0.41-1.4845-1.675-4.1795-1.715-5.547-2.535-1.367-0.82-2.6755-1.545-3.691-1.82 0-0.465-0.059-0.84-0.4495-1.11-0.8595-0.625-2.539-0.84-3.906-0.92 0.195-0.215 0.234-0.47 0.234-0.86v-2.205c0-0.765 0.0785-0.96-0.7615-1.505-3.242-2.07-7.1875-3.555-14.375-3.555-7.168 0-11.114 1.465-14.375 3.555-0.8595 0.545-0.7615 0.74-0.7615 1.505v2.205c0 0.39 0.0195 0.645 0.234 0.86-1.367 0.06-3.027 0.275-3.906 0.92-0.371 0.27-0.4495 0.625-0.4495 1.11-0.996 0.255-2.3045 0.98-3.691 1.82-1.3675 0.82-4.0625 0.86-5.547 2.535 0.5665-0.465 2.2655-0.625 3.574-0.41-1.367 1.135-2.617 2.52-2.9295 3.91 0.957-1.135 4.5115-1.445 6.465-3.245 1.1325-1.055 3.2615-0.41 4.277-0.155 0.996 0.235 1.68-0.06 1.68-0.76 0-0.705-0.176-1.31-0.176-1.875 1.6015-0.04 3.8085 0 6.5625 0 4.336 0 6.8165-0.315 8.5545-2.52-0.957-0.255-0.781-2.015-0.625-2.695-2.031-0.47-3.0465-1.27-4.6875-1.27-1.621 0-1.914 0.895-1.914 1.23v0.275c-1.289 0-3.1055-0.335-3.5545-1.215 2.5-1.055 6.211-2.01 11.308-2.01s8.8085 0.955 11.308 2.01c-0.449 0.88-2.2655 1.215-3.5545 1.215v-0.275c0-0.315-0.2735-1.23-1.914-1.23s-2.6565 0.78-4.6875 1.27" fill="#fff"/>
    <path d="m118.35 215.67c0.1365 0.66 0.3125 2.44-0.625 2.695 1.7185 2.205 4.199 2.52 8.5545 2.52 2.7345 0 4.9415-0.02 6.5625 0 0 0.565-0.176 1.17-0.176 1.875 0 0.68 0.684 0.995 1.68 0.76s3.125-0.9 4.277 0.155c1.934 1.8 5.4885 2.11 6.4455 3.245-0.293-1.37-1.543-2.755-2.9295-3.91 1.3085-0.195 3.0075-0.055 3.5935 0.41-1.4845-1.675-4.1795-1.715-5.547-2.535-1.367-0.82-2.6755-1.545-3.691-1.82 0-0.465-0.059-0.84-0.4495-1.11-0.8595-0.625-2.539-0.84-3.906-0.92 0.195-0.215 0.234-0.47 0.234-0.86v-2.205c0-0.765 0.0785-0.96-0.7615-1.505-3.242-2.07-7.1875-3.555-14.375-3.555-7.168 0-11.114 1.465-14.375 3.555-0.8595 0.545-0.7615 0.74-0.7615 1.505v2.205c0 0.39 0.0195 0.645 0.234 0.86-1.367 0.06-3.027 0.275-3.906 0.92-0.371 0.27-0.4495 0.625-0.4495 1.11-0.996 0.255-2.3045 0.98-3.691 1.82-1.3675 0.82-4.0625 0.86-5.547 2.535 0.5665-0.465 2.2655-0.625 3.574-0.41-1.367 1.135-2.617 2.52-2.9295 3.91 0.957-1.135 4.5115-1.445 6.465-3.245 1.1325-1.055 3.2615-0.41 4.277-0.155 0.996 0.235 1.68-0.06 1.68-0.76 0-0.705-0.176-1.31-0.176-1.875 1.6015-0.04 3.8085 0 6.5625 0 4.336 0 6.8165-0.315 8.5545-2.52-0.957-0.255-0.781-2.015-0.625-2.695-2.031-0.47-3.0465-1.27-4.6875-1.27-1.621 0-1.914 0.895-1.914 1.23v0.275c-1.289 0-3.1055-0.335-3.5545-1.215 2.5-1.055 6.211-2.01 11.308-2.01s8.8085 0.955 11.308 2.01c-0.449 0.88-2.2655 1.215-3.5545 1.215v-0.275c0-0.315-0.2735-1.23-1.914-1.23s-2.6565 0.78-4.6875 1.27h-0.078z" fill="#8cd2ff" stroke="#000" stroke-width=".5"/>
    <path d="m117.22 218.46c1.1915 0 1.2305-0.935 1.2305-1.795 0-0.84-0.039-1.78-1.2305-1.78s-1.2305 0.94-1.2305 1.78 0.039 1.795 1.2305 1.795" fill="#fff"/>
    <path d="m117.22 218.46c1.1915 0 1.2305-0.935 1.2305-1.795 0-0.84-0.039-1.78-1.2305-1.78s-1.2305 0.94-1.2305 1.78 0.039 1.795 1.2305 1.795z" fill="none" stroke="#000" stroke-width=".5"/>
    <path d="m105.89 214.69c-0.508 0.215-0.9765 0.43-1.387 0.645-2.4415 1.27-2.617 1.565-1.7575 2.05" fill="none" stroke="#000" stroke-width=".5"/>
    <path d="m101.59 220.92c-1.2695 0.02-2.168 0.1-2.6565 0.255-0.781 0.255-0.859 0.685-0.3515 0.92" fill="none" stroke="#000" stroke-width=".5"/>
    <path d="m109.46 215.92v1.02c0 0.66 0.6835 1.52 1.7385 1.52 2.5975 0 3.1055-0.465 5.039-0.41" fill="none" stroke="#000" stroke-width=".5"/>
    <path d="m116.22 217.99c-1.797-0.315-3.223-1.31-4.805-1.31-1.5625 0-1.8945 0.74-1.621 1.095" fill="none" stroke="#000" stroke-width=".5"/>
    <path d="m97.922 219.12v2.01c0 0.55 0.371 1.31 1.7775 1.02 1.2305-0.235 2.031 0.055 2.031 0.605" fill="none" stroke="#000" stroke-width=".5"/>
    <path d="m102.3 217.07c0.293 0.31 0.9375 0.585 2.3635 1.115 2.617 0.995 8.6325 1.675 12.539-0.1" fill="none" stroke="#000" stroke-width=".5"/>
    <path d="m128.55 214.69c0.508 0.215 0.9765 0.43 1.387 0.645 2.441 1.27 2.617 1.565 1.7575 2.05" fill="none" stroke="#000" stroke-width=".5"/>
    <path d="m132.86 220.92c1.2695 0.02 2.168 0.1 2.6565 0.255 0.781 0.255 0.859 0.685 0.3515 0.92" fill="none" stroke="#000" stroke-width=".5"/>
    <path d="m124.97 215.92v1.02c0 0.66-0.6835 1.52-1.7385 1.52-2.5975 0-3.1055-0.465-5.039-0.41" fill="none" stroke="#000" stroke-width=".5"/>
    <path d="m118.21 217.99c1.797-0.315 3.2225-1.31 4.805-1.31 1.562 0 1.8945 0.74 1.6015 1.095" fill="none" stroke="#000" stroke-width=".5"/>
    <path d="m136.52 219.12v2.01c0 0.55-0.371 1.31-1.7775 1.02-1.2305-0.235-2.0315 0.055-2.0315 0.605" fill="none" stroke="#000" stroke-width=".5"/>
    <path d="m132.14 217.07c-0.293 0.31-0.9375 0.585-2.3635 1.115-2.617 0.995-8.6325 1.675-12.539-0.1" fill="none" stroke="#000" stroke-width=".5"/>
    <path d="m117.22 233.71-0.5275 1.7h-1.7965l1.4645 1.055-0.547 1.7 1.426-1.055 1.4455 1.055-0.547-1.7 1.445-1.015h-1.777l-0.547-1.7" fill="#fff"/>
    <path d="m110.4 234.28-0.254 1.76-1.7575 0.275 1.6015 0.8-0.2735 1.755 1.25-1.27 1.582 0.805-0.8205-1.585 1.2695-1.25-1.7575 0.275-0.8205-1.585" fill="#fff"/>
    <path d="m103.76 235.94 0.0195 1.78-1.6995 0.565 1.719 0.53v1.775l1.0155-1.465 1.6995 0.53-1.0745-1.43 1.0355-1.445-1.6995 0.57-1.074-1.43" fill="#fff"/>
    <path d="m97.492 238.65 0.3125 1.76-1.582 0.84 1.777 0.235 0.293 1.755 0.762-1.6 1.7575 0.235-1.289-1.25 0.7815-1.585-1.582 0.84-1.289-1.23" fill="#fff"/>
    <path d="m124.04 234.28 0.254 1.76 1.7575 0.275-1.6015 0.8 0.2735 1.755-1.25-1.27-1.582 0.805 0.82-1.585-1.25-1.25 1.758 0.275 0.8205-1.585" fill="#fff"/>
    <path d="m130.68 235.94-0.0195 1.78 1.699 0.565-1.7185 0.53v1.775l-1.0155-1.465-1.6995 0.53 1.0745-1.43-1.0355-1.445 1.68 0.57 1.074-1.43" fill="#fff"/>
    <path d="m136.95 238.65-0.3125 1.76 1.582 0.84-1.7775 0.235-0.2925 1.755-0.762-1.6-1.758 0.235 1.2895-1.25-0.7815-1.585 1.582 0.84 1.289-1.23" fill="#fff"/>
    <path d="m140.73 237.31c-2.4805 9.805 0.293 16.015 2.207 20.31 1.797 4.005 2.1485 13.32-4.414 19.905-9.746 9.745-17.168 5.82-20.898 11.13" fill="none" stroke="#000" stroke-width=".625"/>
    <path d="m116.83 288.67c-3.7305-5.31-11.152-1.385-20.898-11.13-6.5625-6.585-6.211-15.9-4.414-19.905 1.914-4.275 4.6875-10.485 2.207-20.31" fill="none" stroke="#000" stroke-width=".625"/>
    <path d="m113.98 276.37 0.195-13.065c0-0.625 0.1175-0.725 0.137-0.04l0.039 13.245" fill="#865800"/>
    <path d="m113.98 276.37 0.195-13.065c0-0.625 0.1175-0.725 0.137-0.04l0.039 13.245" fill="none" stroke="#000" stroke-width=".125"/>
    <path d="m114.33 263.28c0.449-0.39 1.484 0.49 2.1285 0.12-0.3905 1.265-1.953 0.27-2.1285 0.74v-0.86" fill="#fff"/>
    <path d="m114.33 263.28c0.449-0.39 1.484 0.49 2.1285 0.12-0.3905 1.265-1.953 0.27-2.1285 0.74v-0.86" fill="none" stroke="#000" stroke-width=".125"/>
    <path d="m118.39 276.39 0.195-13.045c0-0.625 0.1175-0.745 0.137-0.02l0.039 13.22" fill="#865800"/>
    <path d="m118.39 276.39 0.195-13.045c0-0.625 0.1175-0.745 0.137-0.02l0.039 13.22" fill="none" stroke="#000" stroke-width=".125"/>
    <path d="m118.76 263.32c0.449-0.39 1.4845 0.49 2.129 0.115-0.4105 1.27-1.9535 0.275-2.129 0.745v-0.86" fill="#fff"/>
    <path d="m118.76 263.32c0.449-0.39 1.4845 0.49 2.129 0.115-0.4105 1.27-1.9535 0.275-2.129 0.745v-0.86" fill="none" stroke="#000" stroke-width=".125"/>
    <path d="m122.57 277.11 0.1955-13.07c0-0.625 0.117-0.72 0.1365-0.015l0.039 13.22" fill="#865800"/>
    <path d="m122.57 277.11 0.1955-13.07c0-0.625 0.117-0.72 0.1365-0.015l0.039 13.22" fill="none" stroke="#000" stroke-width=".125"/>
    <path d="m122.92 264.04c0.4495-0.39 1.4845 0.49 2.129 0.1-0.41 1.27-1.953 0.275-2.129 0.74v-0.855" fill="#fff"/>
    <path d="m122.92 264.04c0.4495-0.39 1.4845 0.49 2.129 0.1-0.41 1.27-1.953 0.275-2.129 0.74v-0.855 0.015z" fill="none" stroke="#000" stroke-width=".125"/>
    <path d="m124.07 278.61c-0.4495 0-1.0155-0.21-1.172-0.565-0.332 0.315-1.7185 0.49-2.2655 0.02-0.371 0.315-1.5235 0.53-2.1095 0.155-0.4685 0.41-1.8555 0.375-2.578-0.055-0.293 0.31-1.133 0.545-1.582 0.585-0.6445-0.92-2.383-2.385-3.4765-2.93-1.2305-0.605-3.6915-1.78-5-2.345-0.762-0.33-1.465-0.9-0.0195-0.275 1.543 0.665 4.0235 1.66 5.703 2.405 2.4025 1.055 11.992 0.9 13.574 0.76 0.8205-0.055 1.914-0.68 2.676-1.15 0.586-0.355 0.6055-0.14 0.039 0.155-0.625 0.33-1.3085 0.585-1.797 1.27-0.664 0.92-1.582 1.33-1.9335 1.935" fill="#865800"/>
    <path d="m124.07 278.61c-0.4495 0-1.0155-0.21-1.172-0.565-0.332 0.315-1.7185 0.49-2.2655 0.02-0.371 0.315-1.5235 0.53-2.1095 0.155-0.4685 0.41-1.8555 0.375-2.578-0.055-0.293 0.31-1.133 0.545-1.582 0.585-0.6445-0.92-2.383-2.385-3.4765-2.93-1.2305-0.605-3.6915-1.78-5-2.345-0.762-0.33-1.465-0.9-0.0195-0.275 1.543 0.665 4.0235 1.66 5.703 2.405 2.4025 1.055 11.992 0.9 13.574 0.76 0.8205-0.055 1.914-0.68 2.676-1.15 0.586-0.355 0.6055-0.14 0.039 0.155-0.625 0.33-1.3085 0.585-1.797 1.27-0.664 0.92-1.582 1.33-1.9335 1.935l-0.0585 0.035z" fill="none" stroke="#000" stroke-width=".125"/>
    <path d="m124.97 266.27-3.1055-0.335c-0.547 0.92-0.625 2.07-0.332 2.875 0.996-0.94 2.793-0.45 3.6915 0.035-0.293-0.82-0.7425-1.93-0.2345-2.555" fill="#fff"/>
    <path d="m124.97 266.27-3.1055-0.335c-0.547 0.92-0.625 2.07-0.332 2.875 0.996-0.94 2.793-0.45 3.6915 0.035-0.293-0.82-0.7425-1.93-0.2345-2.555l-0.0195-0.02z" fill="none" stroke="#000" stroke-width=".125"/>
    <path d="m125.21 268.83c-0.9175 0.02-3.105-0.035-3.789-0.035-0.742 0.955-0.332 2.4-0.156 2.95 0.82-1.31 3.418-0.61 4.414 0.33-0.508-0.96-0.8985-1.78-0.449-3.26" fill="#fff"/>
    <path d="m125.21 268.83c-0.9175 0.02-3.105-0.035-3.789-0.035-0.742 0.955-0.332 2.4-0.156 2.95 0.82-1.31 3.418-0.61 4.414 0.33-0.508-0.96-0.8985-1.78-0.449-3.26l-0.02 0.015z" fill="none" stroke="#000" stroke-width=".125"/>
    <path d="m125.66 272.11c-0.8985-0.16-3.789-0.355-4.375-0.51-0.469 0.975-0.8595 2.245-1.0545 3.46 1.406-1.545 4.668-0.41 5.3515 1.09-0.6835-1.29-1.3675-3.24 0.0975-4.04" fill="#fff"/>
    <path d="m125.66 272.11c-0.8985-0.16-3.789-0.355-4.375-0.51-0.469 0.975-0.8595 2.245-1.0545 3.46 1.406-1.545 4.668-0.41 5.3515 1.09-0.6835-1.29-1.3675-3.24 0.0975-4.04h-0.0195z" fill="none" stroke="#000" stroke-width=".125"/>
    <path d="m121.79 265.33-4.102-0.545c-0.5855 0.685-1.0155 1.895-0.957 3.3 0.8595-0.82 4.004-0.49 4.805 0.685-0.2735-1.27-0.625-2.87 0.2735-3.46" fill="#fff"/>
    <path d="m121.79 265.33-4.102-0.545c-0.5855 0.685-1.0155 1.895-0.957 3.3 0.8595-0.82 4.004-0.49 4.805 0.685-0.2735-1.27-0.625-2.87 0.2735-3.46l-0.0195 0.02z" fill="none" stroke="#000" stroke-width=".125"/>
    <path d="m121.48 268.89-4.551-0.605c-0.7225 0.92-0.6835 2.225-0.508 3.615 1.0355-0.86 4.414-0.39 5.215 0.76-0.488-1.68-0.8985-2.675-0.1365-3.77" fill="#fff"/>
    <path d="m121.48 268.89-4.551-0.605c-0.7225 0.92-0.6835 2.225-0.508 3.615 1.0355-0.86 4.414-0.39 5.215 0.76-0.488-1.68-0.8985-2.675-0.1365-3.77h-0.0195z" fill="none" stroke="#000" stroke-width=".125"/>
    <path d="m121.61 272.66-4.629-0.47c-0.7225 0.9-1.211 1.82-1.0545 3.165 0.7225-1.19 3.789-0.33 5.0975 0.995-0.781-1.035-0.8595-2.52 0.586-3.69" fill="#fff"/>
    <path d="m121.61 272.66-4.629-0.47c-0.7225 0.9-1.211 1.82-1.0545 3.165 0.7225-1.19 3.789-0.33 5.0975 0.995-0.781-1.035-0.8595-2.52 0.586-3.69z" fill="none" stroke="#000" stroke-width=".125"/>
    <path d="m114.07 265.33c-0.508 0.39-1.289 1.74-1.4065 2.11 0.8595-0.35 2.676-0.45 3.809 0.39-0.332-0.645-0.4495-1.775-0.1565-2.245-0.449-0.195-1.6405-0.295-2.2265-0.235" fill="#fff"/>
    <path d="m114.07 265.33c-0.508 0.39-1.289 1.74-1.4065 2.11 0.8595-0.35 2.676-0.45 3.809 0.39-0.332-0.645-0.4495-1.775-0.1565-2.245-0.449-0.195-1.6405-0.295-2.2265-0.235l-0.0195-0.02z" fill="none" stroke="#000" stroke-width=".125"/>
    <path d="m112.18 268.07c1.1915-0.02 3.6325 0.275 4.6875 0.565-0.625 0.94-0.547 2.54-0.293 3.535-1.621-1.6-4.297-1.56-5.879-1.09 0.293-0.725 1.0155-2.23 1.465-3.03" fill="#fff"/>
    <path d="m112.18 268.07c1.1915-0.02 3.6325 0.275 4.6875 0.565-0.625 0.94-0.547 2.54-0.293 3.535-1.621-1.6-4.297-1.56-5.879-1.09 0.293-0.725 1.0155-2.23 1.465-3.03l0.0195 0.02z" fill="none" stroke="#000" stroke-width=".125"/>
    <path d="m116.91 272.52c-1.1525 0.04-4.1015-0.47-5.4495-1.135-0.4685 1.27-0.6835 3.38-0.7225 4.14 1.3085-1.755 4.512-0.78 5.5275 1.015-0.0975-0.955-0.4495-3.3 0.6445-4.04" fill="#fff"/>
    <path d="m116.91 272.52c-1.1525 0.04-4.1015-0.47-5.4495-1.135-0.4685 1.27-0.6835 3.38-0.7225 4.14 1.3085-1.755 4.512-0.78 5.5275 1.015-0.0975-0.955-0.4495-3.3 0.6445-4.04v0.02z" fill="none" stroke="#000" stroke-width=".125"/>
    <path d="m114.07 265.33c-3.2425 1.955-5.703 5.9-6.621 8.635 0.918-0.02 2.07 0.275 2.4805 1.095 0.957-3.93 2.3045-7.56 4.1405-9.75" fill="#fff"/>
    <path d="m114.07 265.33c-3.2425 1.955-5.703 5.9-6.621 8.635 0.918-0.02 2.07 0.275 2.4805 1.095 0.957-3.93 2.3045-7.56 4.1405-9.75v0.02z" fill="none" stroke="#000" stroke-width=".125"/>
    <path d="m114.17 263.44c-2.656 2.675-6.4255 7.445-7.793 10.04" fill="none" stroke="#000" stroke-width=".125"/>
    <path d="m124.97 266.27c0.7225 3.515 0.8985 8.24 0.6055 9.98" fill="none" stroke="#000" stroke-width=".125"/>
    <path d="m128.51 273.67c-0.742 0.37-2.1485-0.665-2.8125-0.195v-0.41c0.6445-0.45 2.051 0.585 2.8125 0.195v0.43" fill="#00009e"/>
    <path d="m128.51 273.67c-0.742 0.37-2.1485-0.665-2.8125-0.195v-0.41c0.6445-0.45 2.051 0.585 2.8125 0.195v0.43-0.02z" fill="none" stroke="#000" stroke-width=".125"/>
    <path d="m128.51 274.1c-0.742 0.37-2.1485-0.665-2.8125-0.215v-0.43c0.6445-0.45 2.051 0.585 2.8125 0.195v0.43" fill="#fff"/>
    <path d="m128.51 274.1c-0.742 0.37-2.1485-0.665-2.8125-0.215v-0.43c0.6445-0.45 2.051 0.585 2.8125 0.195v0.45z" fill="none" stroke="#000" stroke-width=".125"/>
    <path d="m128.51 274.53c-0.742 0.39-2.1485-0.645-2.8125-0.195v-0.43c0.6445-0.45 2.051 0.585 2.8125 0.215v0.41" fill="#ff0016"/>
    <path d="m128.51 274.53c-0.742 0.39-2.1485-0.645-2.8125-0.195v-0.43c0.6445-0.45 2.051 0.585 2.8125 0.215v0.41" fill="none" stroke="#000" stroke-width=".125"/>
    <path d="m128.51 274.96c-0.742 0.39-2.1485-0.645-2.8125-0.195v-0.43c0.6445-0.43 2.051 0.585 2.8125 0.195v0.43" fill="#fff"/>
    <path d="m128.51 274.96c-0.742 0.39-2.1485-0.645-2.8125-0.195v-0.43c0.6445-0.43 2.051 0.585 2.8125 0.195v0.43" fill="none" stroke="#000" stroke-width=".125"/>
    <path d="m128.51 275.37c-0.742 0.39-2.1485-0.645-2.8125-0.195v-0.43c0.6445-0.45 2.051 0.585 2.8125 0.195v0.41" fill="#00009e"/>
    <path d="m128.51 275.37c-0.742 0.39-2.1485-0.645-2.8125-0.195v-0.43c0.6445-0.45 2.051 0.585 2.8125 0.195v0.43z" fill="none" stroke="#000" stroke-width=".125"/>
    <path d="m82.863 255.22c-1.543 0-1.543 2.305 0 2.305s1.5625-2.305 0-2.305" fill="#ffea4f"/>
    <path d="m85.734 255.22c-1.543 0-1.543 2.305 0 2.305s1.5625-2.305 0-2.305" fill="#ffea4f"/>
    <path d="m88.605 255.22c-1.543 0-1.543 2.305 0 2.305s1.5625-2.305 0-2.305" fill="#ffea4f"/>
    <path d="m81.789 257.78c-1.543 0-1.543 2.3 0 2.3 1.5425 0 1.5625-2.3 0-2.3" fill="#ffea4f"/>
    <path d="m84.66 257.78c-1.543 0-1.543 2.3 0 2.3s1.5625-2.3 0-2.3" fill="#ffea4f"/>
    <path d="m87.512 257.78c-1.543 0-1.543 2.3 0 2.3s1.5625-2.3 0-2.3" fill="#ffea4f"/>
    <path d="m81.516 260.35c-1.543 0-1.543 2.305 0 2.305s1.5625-2.305 0-2.305" fill="#ffea4f"/>
    <path d="m84.367 260.35c-1.543 0-1.543 2.305 0 2.305s1.5625-2.305 0-2.305" fill="#ffea4f"/>
    <path d="m87.238 260.35c-1.543 0-1.543 2.305 0 2.305s1.5625-2.305 0-2.305" fill="#ffea4f"/>
    <path d="m82.082 263.19c-1.4645 0-1.4645 2.165 0 2.165 1.465 0 1.4845-2.165 0-2.165" fill="#ffea4f"/>
    <path d="m84.777 263.19c-1.4455 0-1.4455 2.165 0 2.165 1.465 0 1.4845-2.165 0-2.165" fill="#ffea4f"/>
    <path d="m87.492 263.19c-1.465 0-1.465 2.165 0 2.165 1.445 0 1.4845-2.165 0-2.165" fill="#ffea4f"/>
    <path d="m82.531 265.86c-1.3865 0.055-1.289 2.13 0.0975 2.07 1.387-0.06 1.3085-2.15-0.0975-2.07" fill="#ffea4f"/>
    <path d="m85.109 265.72c-1.3865 0.06-1.289 2.13 0.0975 2.07 1.387-0.055 1.309-2.125-0.0975-2.07" fill="#ffea4f"/>
    <path d="m87.707 265.61c-1.3865 0.06-1.289 2.13 0.098 2.07 1.3865-0.06 1.3085-2.15-0.098-2.07" fill="#ffea4f"/>
    <path d="m83.645 268.44c-1.3285 0.1-1.1915 2.07 0.117 1.975 1.328-0.08 1.211-2.07-0.117-1.975" fill="#ffea4f"/>
    <path d="m85.891 268.13c-1.2695 0.075-1.133 1.97 0.117 1.895 1.2695-0.08 1.1525-1.975-0.117-1.895" fill="#ffea4f"/>
    <path d="m88.273 268.01c-1.0155 0.06-0.918 1.605 0.098 1.525 1.0155-0.06 0.9375-1.58-0.098-1.525" fill="#ffea4f"/>
    <path d="m84.66 270.63c-1.2695 0.075-1.133 1.97 0.117 1.895 1.2695-0.08 1.1525-1.975-0.117-1.895" fill="#ffea4f"/>
    <path d="m86.828 270.12c-1.055 0.08-0.9375 1.66 0.0975 1.585 1.0545-0.08 0.957-1.66-0.0975-1.585" fill="#ffea4f"/>
    <path d="m88.84 269.85c-0.879 0.035-0.781 1.365 0.078 1.305 0.879-0.04 0.801-1.365-0.078-1.305" fill="#ffea4f"/>
    <path d="m85.559 272.6c-1.1525 0.255-0.762 1.995 0.3905 1.72 1.1525-0.255 0.781-1.97-0.3905-1.72" fill="#ffea4f"/>
    <path d="m87.492 271.84c-0.957 0.215-0.6445 1.66 0.3125 1.425 0.957-0.215 0.6445-1.66-0.3125-1.425" fill="#ffea4f"/>
    <path d="m89.289 271.29c-0.801 0.175-0.5275 1.385 0.273 1.19 0.801-0.175 0.5275-1.385-0.273-1.19" fill="#ffea4f"/>
    <path d="m86.828 274.38c-1.016 0.35-0.469 1.895 0.5465 1.525 1.016-0.355 0.4885-1.895-0.5465-1.525" fill="#ffea4f"/>
    <path d="m88.488 273.46c-0.8595 0.295-0.3905 1.585 0.449 1.27 0.8595-0.29 0.391-1.58-0.449-1.27" fill="#ffea4f"/>
    <path d="m90.09 272.78c-0.703 0.23-0.332 1.305 0.371 1.05 0.7035-0.25 0.332-1.325-0.371-1.05" fill="#ffea4f"/>
    <path d="m87.902 275.88c-0.8985 0.41-0.2735 1.755 0.625 1.325 0.8985-0.39 0.2735-1.735-0.625-1.325" fill="#ffea4f"/>
    <path d="m89.328 274.9c-0.7425 0.335-0.2345 1.465 0.5075 1.115 0.7425-0.33 0.2345-1.465-0.5075-1.115" fill="#ffea4f"/>
    <path d="m90.715 274.14c-0.625 0.295-0.1755 1.21 0.43 0.935 0.625-0.29 0.195-1.23-0.43-0.935" fill="#ffea4f"/>
    <path d="m89.23 277.13c-0.742 0.37-0.156 1.5 0.5665 1.11 0.7425-0.37 0.1565-1.5-0.5665-1.11" fill="#ffea4f"/>
    <path d="m90.422 276.25c-0.625 0.31-0.1365 1.25 0.469 0.915 0.625-0.31 0.1365-1.25-0.469-0.915" fill="#ffea4f"/>
    <path d="m91.574 275.55c-0.508 0.275-0.0975 1.035 0.3905 0.765 0.508-0.255 0.117-1.055-0.3905-0.765" fill="#ffea4f"/>
    <path d="m90.363 278.22c-0.6445 0.41 0 1.39 0.625 0.96 0.6445-0.41 0.0195-1.39-0.625-0.96" fill="#ffea4f"/>
    <path d="m91.359 277.33c-0.5275 0.35 0 1.15 0.5275 0.8s0.0195-1.175-0.5275-0.8" fill="#ffea4f"/>
    <path d="m92.355 276.56c-0.449 0.295 0 0.96 0.43 0.665 0.449-0.29 0-0.955-0.43-0.665" fill="#ffea4f"/>
    <path d="m91.32 279.14c-0.6445 0.43 0 1.385 0.625 0.955 0.6445-0.41 0.0195-1.385-0.625-0.955" fill="#ffea4f"/>
    <path d="m92.316 278.24c-0.527 0.355 0 1.155 0.5275 0.8 0.5275-0.35 0.0195-1.15-0.5275-0.8" fill="#ffea4f"/>
    <path d="m93.293 277.48c-0.449 0.295 0 0.955 0.43 0.665 0.449-0.295 0-0.98-0.43-0.665" fill="#ffea4f"/>
    <path d="m94.172 278.42c-0.41 0.255 0 0.88 0.41 0.625 0.391-0.27 0-0.895-0.41-0.625" fill="#ffea4f"/>
    <path d="m93.449 279.22c-0.4495 0.29 0 0.955 0.4295 0.66 0.4495-0.29 0-0.955-0.4295-0.66" fill="#ffea4f"/>
    <path d="m92.668 280.04c-0.4685 0.33 0 1.055 0.469 0.72 0.488-0.31 0-1.055-0.469-0.72" fill="#ffea4f"/>
    <path d="m95.09 279.38c-0.371 0.255 0 0.8 0.3515 0.565 0.371-0.255 0-0.82-0.3515-0.565" fill="#ffea4f"/>
    <path d="m94.426 280.1c-0.3905 0.275 0 0.88 0.3905 0.605 0.3905-0.27 0-0.875-0.3905-0.605" fill="#ffea4f"/>
    <path d="m93.723 280.88c-0.43 0.27 0 0.935 0.4295 0.645 0.4295-0.295 0-0.94-0.4295-0.645" fill="#ffea4f"/>
    <path d="m95.93 280.08c-0.332 0.215 0 0.745 0.332 0.51 0.332-0.215 0-0.74-0.332-0.51" fill="#ffea4f"/>
    <path d="m95.324 280.74c-0.371 0.255 0 0.82 0.371 0.57 0.371-0.255 0-0.82-0.371-0.57" fill="#ffea4f"/>
    <path d="m94.68 281.47c-0.3905 0.255 0 0.88 0.3905 0.585 0.3905-0.255 0-0.88-0.3905-0.585" fill="#ffea4f"/>
    <path d="m96.711 280.59c-0.3125 0.235 0.039 0.705 0.3515 0.47s-0.0195-0.705-0.3515-0.47" fill="#ffea4f"/>
    <path d="m96.184 281.27c-0.332 0.255 0.039 0.76 0.371 0.505 0.332-0.25-0.039-0.76-0.371-0.505" fill="#ffea4f"/>
    <path d="m95.598 281.95c-0.3515 0.275 0.039 0.84 0.41 0.55 0.3515-0.275-0.039-0.84-0.41-0.55" fill="#ffea4f"/>
    <path d="m97.355 281.11c-0.234 0.215 0.098 0.61 0.332 0.375 0.2345-0.235-0.078-0.605-0.332-0.375" fill="#ffea4f"/>
    <path d="m96.945 281.74c-0.2735 0.23 0.0975 0.66 0.371 0.39 0.2735-0.235-0.0975-0.665-0.371-0.39" fill="#ffea4f"/>
    <path d="m96.516 282.38c-0.293 0.275 0.0975 0.705 0.3905 0.43 0.293-0.25-0.0975-0.7-0.3905-0.43" fill="#ffea4f"/>
    <path d="m98.137 281.47c-0.2345 0.215 0.0975 0.565 0.332 0.35 0.2345-0.235-0.0975-0.585-0.332-0.35" fill="#ffea4f"/>
    <path d="m97.766 282.07c-0.254 0.255 0.0975 0.625 0.3515 0.37 0.254-0.235-0.0975-0.625-0.3515-0.37" fill="#ffea4f"/>
    <path d="m97.375 282.72c-0.273 0.275 0.1175 0.685 0.391 0.41 0.2735-0.255-0.1175-0.685-0.391-0.41" fill="#ffea4f"/>
    <path d="m98.879 281.97c-0.1755 0.195 0.1175 0.47 0.293 0.275 0.176-0.195-0.117-0.49-0.293-0.275" fill="#ffea4f"/>
    <path d="m98.605 282.5c-0.195 0.215 0.1175 0.505 0.332 0.29 0.1955-0.215-0.117-0.505-0.332-0.29" fill="#ffea4f"/>
    <path d="m98.293 283.07c-0.2145 0.235 0.137 0.545 0.352 0.315 0.2145-0.235-0.1175-0.57-0.352-0.315" fill="#ffea4f"/>
    <path d="m90.363 253.48c-1.0155 0-1.0155 1.525 0 1.525s1.035-1.525 0-1.525" fill="#ffea4f"/>
    <path d="m151.59 255.22c1.543 0 1.543 2.305 0 2.305s-1.5625-2.305 0-2.305" fill="#ffea4f"/>
    <path d="m148.7 255.22c1.543 0 1.543 2.305 0 2.305s-1.5625-2.305 0-2.305" fill="#ffea4f"/>
    <path d="m145.85 255.22c1.543 0 1.543 2.305 0 2.305s-1.5625-2.305 0-2.305" fill="#ffea4f"/>
    <path d="m152.65 257.78c1.543 0 1.543 2.3 0 2.3s-1.5625-2.3 0-2.3" fill="#ffea4f"/>
    <path d="m149.8 257.78c1.543 0 1.543 2.3 0 2.3s-1.5625-2.3 0-2.3" fill="#ffea4f"/>
    <path d="m146.93 257.78c1.543 0 1.543 2.3 0 2.3s-1.5625-2.3 0-2.3" fill="#ffea4f"/>
    <path d="m152.94 260.35c1.543 0 1.543 2.305 0 2.305s-1.5625-2.305 0-2.305" fill="#ffea4f"/>
    <path d="m150.07 260.35c1.543 0 1.543 2.305 0 2.305s-1.5625-2.305 0-2.305" fill="#ffea4f"/>
    <path d="m147.2 260.35c1.543 0 1.543 2.305 0 2.305s-1.5625-2.305 0-2.305" fill="#ffea4f"/>
    <path d="m152.36 263.19c1.4455 0 1.4455 2.165 0 2.165-1.4645 0-1.484-2.165 0-2.165" fill="#ffea4f"/>
    <path d="m149.66 263.19c1.445 0 1.445 2.165 0 2.165-1.465 0-1.465-2.165 0-2.165" fill="#ffea4f"/>
    <path d="m146.95 263.19c1.4455 0 1.4455 2.165 0 2.165-1.465 0-1.4845-2.165 0-2.165" fill="#ffea4f"/>
    <path d="m151.91 265.86c1.3865 0.055 1.289 2.13-0.0975 2.07-1.387-0.06-1.309-2.15 0.0975-2.07" fill="#ffea4f"/>
    <path d="m149.33 265.72c1.3865 0.06 1.289 2.13-0.098 2.07-1.3865-0.055-1.3085-2.125 0.098-2.07" fill="#ffea4f"/>
    <path d="m146.73 265.61c1.387 0.06 1.2895 2.13-0.0975 2.07-1.3865-0.06-1.3085-2.15 0.0975-2.07" fill="#ffea4f"/>
    <path d="m150.79 268.44c1.3285 0.1 1.1915 2.07-0.1365 1.975-1.328-0.08-1.211-2.07 0.1365-1.975" fill="#ffea4f"/>
    <path d="m148.55 268.13c1.2695 0.075 1.133 1.97-0.117 1.895-1.2695-0.08-1.1525-1.975 0.117-1.895" fill="#ffea4f"/>
    <path d="m146.16 268.01c1.0155 0.06 0.9175 1.605-0.098 1.525-1.0155-0.06-0.9375-1.58 0.098-1.525" fill="#ffea4f"/>
    <path d="m149.78 270.63c1.2695 0.075 1.133 1.97-0.117 1.895-1.2695-0.08-1.1525-1.975 0.117-1.895" fill="#ffea4f"/>
    <path d="m147.61 270.12c1.055 0.08 0.9375 1.66-0.0975 1.585-1.055-0.08-0.957-1.66 0.0975-1.585" fill="#ffea4f"/>
    <path d="m145.6 269.85c0.879 0.035 0.781 1.365-0.078 1.305-0.879-0.04-0.801-1.365 0.078-1.305" fill="#ffea4f"/>
    <path d="m148.88 272.6c1.1525 0.255 0.762 1.995-0.3905 1.72-1.1525-0.255-0.7615-1.97 0.3905-1.72" fill="#ffea4f"/>
    <path d="m146.96 271.84c0.957 0.215 0.625 1.66-0.3125 1.425-0.957-0.215-0.6445-1.66 0.3125-1.425" fill="#ffea4f"/>
    <path d="m145.15 271.29c0.801 0.175 0.5275 1.385-0.2735 1.19-0.8005-0.175-0.527-1.385 0.2735-1.19" fill="#ffea4f"/>
    <path d="m147.63 274.38c1.016 0.35 0.469 1.895-0.547 1.525-1.0155-0.355-0.488-1.895 0.547-1.525" fill="#ffea4f"/>
    <path d="m145.95 273.46c0.8595 0.295 0.3905 1.585-0.4495 1.27-0.859-0.29-0.41-1.58 0.4495-1.27" fill="#ffea4f"/>
    <path d="m144.35 272.78c0.703 0.23 0.332 1.305-0.371 1.05-0.7035-0.25-0.332-1.325 0.371-1.05" fill="#ffea4f"/>
    <path d="m146.55 275.88c0.8985 0.41 0.2735 1.755-0.625 1.325-0.8985-0.39-0.2735-1.735 0.625-1.325" fill="#ffea4f"/>
    <path d="m145.11 274.9c0.7425 0.335 0.215 1.465-0.5075 1.115-0.7425-0.33-0.2345-1.465 0.5075-1.115" fill="#ffea4f"/>
    <path d="m143.72 274.14c0.625 0.295 0.1755 1.21-0.43 0.935-0.625-0.29-0.195-1.23 0.43-0.935" fill="#ffea4f"/>
    <path d="m145.21 277.13c0.7425 0.37 0.1565 1.5-0.566 1.11-0.7425-0.37-0.176-1.5 0.566-1.11" fill="#ffea4f"/>
    <path d="m144.02 276.25c0.625 0.31 0.1365 1.25-0.469 0.915-0.625-0.31-0.1365-1.25 0.469-0.915" fill="#ffea4f"/>
    <path d="m142.86 275.55c0.508 0.275 0.0975 1.035-0.3905 0.765-0.508-0.255-0.1175-1.055 0.3905-0.765" fill="#ffea4f"/>
    <path d="m144.07 278.22c0.6445 0.41 0 1.39-0.625 0.96-0.6445-0.41-0.0195-1.39 0.625-0.96" fill="#ffea4f"/>
    <path d="m143.08 277.33c0.527 0.35 0 1.15-0.5275 0.8s0-1.175 0.5275-0.8" fill="#ffea4f"/>
    <path d="m142.08 276.56c0.4495 0.295 0 0.96-0.4295 0.665-0.449-0.29 0-0.955 0.4295-0.665" fill="#ffea4f"/>
    <path d="m143.12 279.14c0.6445 0.43 0 1.385-0.625 0.955-0.6445-0.41-0.0195-1.385 0.625-0.955" fill="#ffea4f"/>
    <path d="m142.12 278.24c0.527 0.355 0 1.155-0.5275 0.8-0.5275-0.35 0-1.15 0.5275-0.8" fill="#ffea4f"/>
    <path d="m141.14 277.48c0.449 0.295 0 0.955-0.43 0.665-0.449-0.295 0-0.98 0.43-0.665" fill="#ffea4f"/>
    <path d="m140.27 278.42c0.41 0.255 0 0.88-0.391 0.625-0.41-0.27 0-0.895 0.391-0.625" fill="#ffea4f"/>
    <path d="m140.99 279.22c0.449 0.29 0 0.955-0.4295 0.66-0.4495-0.29 0-0.955 0.4295-0.66" fill="#ffea4f"/>
    <path d="m141.77 280.04c0.488 0.33 0 1.055-0.469 0.72-0.4885-0.31 0-1.055 0.469-0.72" fill="#ffea4f"/>
    <path d="m139.35 279.38c0.371 0.255 0 0.8-0.371 0.565-0.3715-0.255 0-0.82 0.371-0.565" fill="#ffea4f"/>
    <path d="m140.01 280.1c0.41 0.275 0 0.88-0.3905 0.605-0.4105-0.27 0-0.875 0.3905-0.605" fill="#ffea4f"/>
    <path d="m140.71 280.88c0.43 0.27 0 0.935-0.4295 0.645-0.43-0.295 0-0.94 0.4295-0.645" fill="#ffea4f"/>
    <path d="m138.51 280.08c0.332 0.215 0 0.745-0.332 0.51-0.332-0.215 0-0.74 0.332-0.51" fill="#ffea4f"/>
    <path d="m139.11 280.74c0.371 0.255 0 0.82-0.371 0.57-0.371-0.255 0-0.82 0.371-0.57" fill="#ffea4f"/>
    <path d="m139.78 281.47c0.3905 0.255 0 0.88-0.3905 0.585-0.3905-0.255 0-0.88 0.3905-0.585" fill="#ffea4f"/>
    <path d="m137.73 280.59c0.3125 0.235-0.0395 0.705-0.352 0.47-0.293-0.235 0.0395-0.705 0.352-0.47" fill="#ffea4f"/>
    <path d="m138.25 281.27c0.332 0.255-0.039 0.76-0.371 0.505-0.332-0.25 0.039-0.76 0.371-0.505" fill="#ffea4f"/>
    <path d="m138.82 281.95c0.3515 0.275-0.039 0.84-0.41 0.55-0.3515-0.275 0.039-0.84 0.41-0.55" fill="#ffea4f"/>
    <path d="m137.08 281.11c0.254 0.215-0.078 0.61-0.332 0.375-0.2535-0.235 0.0785-0.605 0.332-0.375" fill="#ffea4f"/>
    <path d="m137.49 281.74c0.254 0.23-0.0975 0.66-0.371 0.39-0.2735-0.235 0.0975-0.665 0.371-0.39" fill="#ffea4f"/>
    <path d="m137.94 282.38c0.293 0.275-0.0975 0.705-0.3905 0.43-0.293-0.25 0.0975-0.7 0.3905-0.43" fill="#ffea4f"/>
    <path d="m136.3 281.47c0.2345 0.215-0.0975 0.565-0.332 0.35-0.2345-0.235 0.0975-0.585 0.332-0.35" fill="#ffea4f"/>
    <path d="m136.67 282.07c0.254 0.255-0.0975 0.625-0.3515 0.37-0.254-0.235 0.0975-0.625 0.3515-0.37" fill="#ffea4f"/>
    <path d="m137.06 282.72c0.2735 0.275-0.117 0.685-0.3905 0.41-0.2735-0.255 0.098-0.685 0.3905-0.41" fill="#ffea4f"/>
    <path d="m135.56 281.97c0.1755 0.195-0.1175 0.47-0.293 0.275-0.176-0.195 0.0975-0.49 0.293-0.275" fill="#ffea4f"/>
    <path d="m135.83 282.5c0.1955 0.215-0.117 0.505-0.332 0.29-0.1755-0.215 0.1175-0.505 0.332-0.29" fill="#ffea4f"/>
    <path d="m136.14 283.07c0.2145 0.235-0.137 0.545-0.352 0.315-0.2145-0.235 0.137-0.57 0.352-0.315" fill="#ffea4f"/>
    <path d="m144.07 253.48c1.0155 0 1.0155 1.525 0 1.525s-1.035-1.525 0-1.525" fill="#ffea4f"/>
    <path d="m117.22 227.62c0.918 0 1.699 0 2.2655-0.075v-1.31c0-0.43 1.5235-0.94 3.828-0.49 9.0235 1.76 10.254 5.84 17.11 8.185 0.078 0.02 0.332 0.1 0.625 0.155 0.176-0.41 0.371-0.82 0.586-1.325 0.117-0.375 1.1135-0.355 1.992 0.055 1.016 0.49 1.465 1.055 1.2895 1.35-0.176 0.43-0.352 0.78-0.508 1.13 1.6015 0.57 4.5115 1.43 3.5545 5.275-0.742-0.72-2.539-1.505-3.652-1.505-1.2695 0-2.637-0.485-2.207-1.875-0.2345-0.115-0.645-0.33-0.8595-0.37-0.039 0.12-0.0975 0.235-0.1565 0.35-0.293 0.725-1.5625 0.98-2.832 0.55-7.1485-2.44-9.3555-7.835-17.793-7.91v0.235c0 0.68-0.879 1.305-3.242 1.305-2.344 0-3.242-0.625-3.242-1.305v-0.235c-8.418 0.055-10.645 5.45-17.793 7.91-1.25 0.43-2.5195 0.155-2.832-0.55-0.0395-0.115-0.098-0.23-0.1565-0.35-0.215 0.04-0.625 0.255-0.8595 0.37 0.4105 1.37-0.918 1.875-2.207 1.875-1.113 0-2.8905 0.785-3.652 1.505-0.957-3.825 1.914-4.685 3.5545-5.275-0.1565-0.35-0.3125-0.7-0.508-1.13-0.156-0.295 0.2735-0.86 1.289-1.35 0.879-0.43 1.8555-0.45 1.9925-0.055 0.215 0.485 0.3905 0.895 0.586 1.325 0.293-0.055 0.527-0.135 0.625-0.155 6.836-2.345 8.086-6.425 17.109-8.185 2.2855-0.45 3.8285 0.06 3.8285 0.49v1.31c0.5665 0.055 1.3475 0.075 2.2655 0.075" fill="#fff"/>
    <path d="m117.22 227.62c0.918 0 1.699 0 2.2655-0.075v-1.31c0-0.43 1.5235-0.94 3.828-0.49 9.0235 1.76 10.254 5.84 17.11 8.185 0.078 0.02 0.332 0.1 0.625 0.155 0.176-0.41 0.371-0.82 0.586-1.325 0.117-0.375 1.1135-0.355 1.992 0.055 1.016 0.49 1.465 1.055 1.2895 1.35-0.176 0.43-0.352 0.78-0.508 1.13 1.6015 0.57 4.5115 1.43 3.5545 5.275-0.742-0.72-2.539-1.505-3.652-1.505-1.2695 0-2.637-0.485-2.207-1.875-0.2345-0.115-0.645-0.33-0.8595-0.37-0.039 0.12-0.0975 0.235-0.1565 0.35-0.293 0.725-1.5625 0.98-2.832 0.55-7.1485-2.44-9.3555-7.835-17.793-7.91v0.235c0 0.68-0.879 1.305-3.242 1.305-2.344 0-3.242-0.625-3.242-1.305v-0.235c-8.418 0.055-10.645 5.45-17.793 7.91-1.25 0.43-2.5195 0.155-2.832-0.55-0.0395-0.115-0.098-0.23-0.1565-0.35-0.215 0.04-0.625 0.255-0.8595 0.37 0.4105 1.37-0.918 1.875-2.207 1.875-1.113 0-2.8905 0.785-3.652 1.505-0.957-3.825 1.914-4.685 3.5545-5.275-0.1565-0.35-0.3125-0.7-0.508-1.13-0.156-0.295 0.2735-0.86 1.289-1.35 0.879-0.43 1.8555-0.45 1.9925-0.055 0.215 0.485 0.3905 0.895 0.586 1.325 0.293-0.055 0.527-0.135 0.625-0.155 6.836-2.345 8.086-6.425 17.109-8.185 2.2855-0.45 3.8285 0.06 3.8285 0.49v1.31c0.5665 0.055 1.3475 0.075 2.2655 0.075z" fill="none" stroke="#000" stroke-width=".5"/>
    <path d="m114.93 227.54c-0.6055-0.06-0.957-0.195-0.957-0.43 0-0.585 0.957-0.39 0.957-0.88" fill="none" stroke="#000" stroke-width=".5"/>
    <path d="m91.945 233.97c0.3515 0.84 0.801 1.915 1.211 2.83" fill="none" stroke="#000" stroke-width=".5"/>
    <path d="m91.086 234.4c0.3515 0.82 1.016 2.225 1.211 2.81" fill="none" stroke="#000" stroke-width=".5"/>
    <path d="m89.465 234.18c0.2345 0.41 1.465-0.195 1.621 0.195 0.137 0.41-0.234 0.625-1.0935 0.935" fill="none" stroke="#000" stroke-width=".5"/>
    <path d="m92.766 232.76c0.1755 0.525-1.055 0.74-0.801 1.21 0.1565 0.31 0.84 0.215 1.387 0.095" fill="none" stroke="#000" stroke-width=".5"/>
    <path d="m113.96 227.09v2.715" fill="none" stroke="#000" stroke-width=".5"/>
    <path d="m119.5 227.54c0.586-0.06 0.957-0.195 0.957-0.43 0-0.585-0.957-0.39-0.957-0.88" fill="none" stroke="#000" stroke-width=".5"/>
    <path d="m142.49 233.97c-0.3515 0.84-0.801 1.915-1.211 2.83" fill="none" stroke="#000" stroke-width=".5"/>
    <path d="m143.35 234.4c-0.352 0.82-1.016 2.225-1.211 2.81" fill="none" stroke="#000" stroke-width=".5"/>
    <path d="m144.97 234.18c-0.2345 0.41-1.465-0.195-1.621 0.195-0.137 0.41 0.234 0.625 1.0935 0.935" fill="none" stroke="#000" stroke-width=".5"/>
    <path d="m141.67 232.76c-0.1755 0.525 1.055 0.74 0.801 1.21-0.1565 0.31-0.84 0.215-1.387 0.095" fill="none" stroke="#000" stroke-width=".5"/>
    <path d="m120.48 227.09v2.715" fill="none" stroke="#000" stroke-width=".5"/>
    <path d="m104.07 213.95-0.4295 0.215-0.176-0.9 0.625 0.665 0.254 0.275 0.3125 0.33 0.3125-0.155-1.582-1.66-0.371 0.195 0.449 2.245 0.3125-0.155-0.078-0.45 0.625-0.31-0.254-0.275"/>
    <path d="m106.09 213.89-0.957-1.425 0.625 1.565-0.332 0.115-0.82-2.03 0.527-0.215 0.9375 1.425-0.293-1.7 0.5275-0.215 0.8205 2.05-0.332 0.14-0.625-1.565 0.2925 1.7-0.3515 0.135"/>
    <path d="m108.61 211.1-0.9375 0.27 0.137 0.47 0.84-0.235 0.0975 0.37-0.84 0.235 0.1565 0.55 0.9375-0.275 0.0975 0.33-1.328 0.375-0.625-2.11 1.328-0.39 0.0975 0.35"/>
    <path d="m109.76 211.41-0.117-0.565s0.3515-0.06 0.488-0.1c0.137-0.02 0.2735 0.04 0.3125 0.215 0.0195 0.175-0.039 0.315-0.156 0.335-0.1175 0.02-0.5275 0.095-0.5275 0.095l0.078 0.37s0.176-0.035 0.371-0.075c0.176-0.04 0.313 0 0.3715 0.255 0.039 0.25 0.0975 0.505 0.0975 0.505l0.371-0.08s-0.0975-0.465-0.117-0.585c-0.039-0.25-0.215-0.39-0.3515-0.35 0.0975-0.02 0.2735-0.255 0.2145-0.565-0.0585-0.295-0.273-0.57-0.5465-0.53s-1.0745 0.215-1.0745 0.215l0.4495 2.15 0.371-0.08-0.1565-0.84-0.078-0.37"/>
    <path d="m111.61 212.35-0.3125-2.19 0.3905-0.06 0.3125 2.17-0.3905 0.06"/>
    <path d="m113.68 210.63c0-0.12-0.1175-0.35-0.43-0.335-0.293 0.02-0.41 0.315-0.371 0.765 0.039 0.41 0.254 0.7 0.508 0.665 0.254-0.02 0.371-0.255 0.3515-0.43l0.332-0.02c0.039 0.45-0.2345 0.8-0.703 0.84-0.4495 0.04-0.8205-0.355-0.879-1.015-0.0585-0.665 0.195-1.115 0.6835-1.175 0.4885-0.04 0.781 0.335 0.8205 0.685l-0.332 0.02"/>
    <path d="m119.07 210.49c0-0.12-0.078-0.375-0.3905-0.375-0.293 0-0.469 0.275-0.469 0.705s0.1565 0.72 0.43 0.74c0.2535 0 0.41-0.215 0.41-0.39h0.332c0 0.45-0.332 0.765-0.801 0.745-0.449-0.02-0.7615-0.47-0.742-1.135s0.3515-1.095 0.84-1.075c0.488 0 0.742 0.43 0.7225 0.765h-0.332"/>
    <path d="m121.38 210.28-0.9765-0.08-0.039 0.49 0.879 0.055-0.0195 0.39-0.879-0.055-0.039 0.565 0.9765 0.08-0.0195 0.35-1.387-0.12 0.176-2.185 1.3865 0.095-0.0195 0.355"/>
    <path d="m122.51 210.02 0.508 1.425 0.195-1.31 0.3905 0.04-0.332 2.185-0.371-0.055-0.547-1.505-0.2145 1.385-0.391-0.055 0.3125-2.17 0.43 0.06"/>
    <path d="m124.41 212.6 0.41-1.775-0.5665-0.12 0.0785-0.35 1.484 0.335-0.078 0.35-0.5665-0.12-0.41 1.78-0.3515-0.08"/>
    <path d="m131.12 212.7-0.8395 1.58 0.781 0.41-0.1755 0.355-1.133-0.59 1.035-1.95 0.352 0.175"/>
    <path d="m115.71 211.13s-0.508 0-0.508 0.02l0.215-0.895 0.2735 0.875 0.117 0.355 0.137 0.43 0.371-0.02-0.7225-2.17-0.43 0.02-0.5465 2.225h0.371l0.0975-0.445 0.703-0.02-0.117-0.355"/>
    <path d="m129.07 213.26-0.4495-0.195 0.586-0.705-0.117 0.92-0.039 0.37-0.0585 0.45 0.332 0.14 0.2735-2.27-0.391-0.155-1.445 1.78 0.332 0.135 0.293-0.35 0.6445 0.27 0.039-0.37"/>
    <path d="m126.59 211.88 0.176-0.55s0.332 0.1 0.4685 0.14 0.215 0.175 0.1565 0.35c-0.0395 0.155-0.176 0.255-0.293 0.215-0.1175-0.04-0.508-0.155-0.508-0.155l-0.117 0.37s0.1755 0.06 0.371 0.115c0.1755 0.06 0.254 0.16 0.1755 0.415-0.078 0.25-0.156 0.485-0.156 0.485l0.371 0.1s0.1365-0.45 0.176-0.585c0.078-0.255 0-0.45-0.1175-0.49 0.098 0.02 0.371-0.1 0.469-0.39 0.078-0.295 0.0195-0.645-0.215-0.725-0.254-0.075-1.035-0.33-1.035-0.33l-0.664 2.09 0.371 0.115 0.254-0.8 0.117-0.37"/>
    <path d="m94.992 235.65-0.137-0.645s0.391-0.08 0.5665-0.12c0.1565-0.02 0.3125 0.04 0.3515 0.255 0.039 0.195-0.039 0.355-0.1755 0.39-0.137 0.02-0.586 0.12-0.586 0.12l0.0975 0.43s0.215-0.04 0.43-0.1c0.2145-0.04 0.3515 0 0.4295 0.295 0.0585 0.29 0.117 0.565 0.117 0.565l0.43-0.08s-0.098-0.525-0.137-0.68c-0.0585-0.295-0.254-0.45-0.4295-0.41 0.117-0.02 0.3125-0.315 0.2345-0.665-0.059-0.35-0.332-0.665-0.6445-0.585-0.293 0.055-1.2305 0.27-1.2305 0.27l0.527 2.465 0.4495-0.1-0.215-0.955-0.0975-0.43"/>
    <path d="m97.902 233.87-1.0155 0.49 0.2345 0.505 0.918-0.425 0.195 0.41-0.918 0.43 0.2735 0.585 1.0155-0.49 0.1565 0.37-1.4455 0.685-1.074-2.305 1.445-0.685 0.176 0.375"/>
    <path d="m99.113 234.12-0.3905-0.685s0.2145-0.115 0.371-0.215c0.156-0.075 0.3515-0.055 0.488 0.12 0.1175 0.195 0.098 0.45-0.078 0.545-0.1755 0.1-0.371 0.215-0.371 0.215l0.1955 0.335s0.2535-0.14 0.449-0.275c0.3515-0.195 0.3515-0.705 0.137-1.055-0.215-0.37-0.6445-0.53-0.977-0.33-0.4685 0.27-0.82 0.485-0.82 0.485l1.289 2.17 0.3515-0.215-0.449-0.78-0.1955-0.335"/>
    <path d="m101.79 233.52c0.2535-0.155 0.195-0.41 0.078-0.585-0.1175-0.155-0.9375-1.37-0.9375-1.37l0.3515-0.25s0.742 1.09 0.9375 1.365c0.215 0.33 0.3125 0.82-0.1955 1.19-0.527 0.355-0.957 0.08-1.1715-0.235-0.176-0.27-0.9375-1.365-0.9375-1.365l0.3515-0.235s0.82 1.19 0.9375 1.37c0.117 0.175 0.3125 0.31 0.5665 0.135"/>
    <path d="m103.8 231.6c-0.117-0.155-0.254-0.215-0.3905-0.115-0.1175 0.075-0.4885 0.35-0.4885 0.35s0.371 0.525 0.371 0.525 0.352-0.25 0.4885-0.35c0.117-0.075 0.117-0.235 0-0.41l0.3515-0.215c0.176 0.235 0.3125 0.685-0.1365 1.015-0.3125 0.215-0.8205 0.59-0.8205 0.59l-1.4845-2.055s0.1955-0.135 0.7035-0.505c0.3515-0.255 0.781-0.295 1.035 0.04l-0.293 0.29c-0.0585-0.075-0.2345-0.175-0.371-0.075-0.1175 0.095-0.4495 0.31-0.4495 0.31l0.3125 0.45s0.2735-0.195 0.4495-0.315c0.156-0.115 0.078-0.31 0.039-0.37l0.293-0.29c0.0975 0.135 0.156 0.37 0.117 0.565 0.1955 0.02 0.371 0.075 0.547 0.33l-0.3515 0.215"/>
    <path d="m104.17 229.26 1.055 1.78 0.8785-0.51 0.2345 0.39-1.2695 0.745-1.289-2.19 0.3905-0.23"/>
    <path d="m106.73 230.72-1.113-2.265 0.41-0.195 1.1135 2.265-0.4105 0.195"/>
    <path d="m108.37 228.2c-0.0395-0.135-0.254-0.35-0.586-0.23-0.332 0.115-0.371 0.485-0.1955 0.955 0.1565 0.45 0.4885 0.705 0.7815 0.585 0.2735-0.095 0.332-0.41 0.2735-0.585l0.371-0.135c0.1755 0.485-0.0195 0.955-0.5275 1.15-0.4885 0.175-1.0155-0.155-1.289-0.86-0.254-0.7-0.0975-1.305 0.4295-1.505 0.5275-0.195 0.9765 0.14 1.1135 0.51l-0.371 0.115"/>
    <path d="m110.17 228.42 0.059-1.055 0.488 0.94s-0.5665 0.1-0.5665 0.115l-0.0195 0.43 0.801-0.155 0.2345 0.47 0.41-0.08-1.2305-2.325-0.4885 0.1-0.1755 2.635 0.41-0.075 0.0195-0.53 0.0195-0.43"/>
    <path d="m122.9 227.4c0.0195-0.135-0.0585-0.43-0.41-0.465-0.3515-0.02-0.547 0.25-0.6055 0.76-0.039 0.49 0.117 0.86 0.4295 0.88 0.293 0.02 0.4885-0.215 0.508-0.39l0.3905 0.035c-0.0585 0.51-0.4685 0.84-0.996 0.785-0.5275-0.06-0.84-0.59-0.742-1.35 0.078-0.76 0.5075-1.21 1.0545-1.15 0.547 0.055 0.8005 0.565 0.7615 0.955l-0.3905-0.04"/>
    <path d="m124.56 229.01c0.3125 0.075 0.6445-0.16 0.762-0.665 0.117-0.49 0-0.88-0.332-0.98-0.332-0.075-0.6445 0.18-0.762 0.665-0.117 0.51 0.0195 0.88 0.3125 0.96l-0.0975 0.39c-0.586-0.155-0.8205-0.745-0.625-1.485 0.1955-0.725 0.703-1.115 1.289-0.955 0.586 0.155 0.8205 0.74 0.625 1.48-0.195 0.725-0.703 1.115-1.289 0.96l0.0975-0.39"/>
    <path d="m127.73 228.71c0.078-0.215 0-0.39-0.2735-0.51-0.2735-0.115-0.3715 0.02-0.43 0.14-0.039 0.095-0.0195 0.255 0.332 0.485 0.3515 0.235 0.586 0.49 0.391 0.94-0.176 0.43-0.547 0.625-1.1135 0.37-0.5275-0.235-0.5275-0.76-0.41-1.055l0.371 0.16c-0.0975 0.23 0.0195 0.425 0.2735 0.545 0.2345 0.095 0.41 0.02 0.488-0.135 0.059-0.16-0.0195-0.335-0.2535-0.51-0.6055-0.39-0.5665-0.705-0.4495-0.955 0.0975-0.255 0.4295-0.61 0.996-0.375 0.547 0.235 0.6055 0.665 0.43 1.035l-0.3515-0.155"/>
    <path d="m128.45 231.06 1.074-1.815-0.5665-0.335 0.215-0.35 1.504 0.88-0.215 0.35-0.566-0.335-1.0745 1.82-0.3515-0.195"/>
    <path d="m134.72 235.2 1.211-2.205 0.3905 0.21-1.211 2.23-0.3905-0.215"/>
    <path d="m137.73 234.86c0.0585-0.135 0.0585-0.425-0.2345-0.565-0.3125-0.135-0.6055 0.08-0.801 0.53-0.195 0.45-0.1365 0.84 0.1175 0.975 0.273 0.115 0.527-0.04 0.6055-0.215l0.3515 0.155c-0.215 0.47-0.7035 0.665-1.172 0.43-0.469-0.215-0.6055-0.82-0.293-1.52 0.3125-0.685 0.84-1 1.367-0.765 0.508 0.235 0.586 0.78 0.43 1.155l-0.3515-0.16"/>
    <path d="m115.64 229.34c-0.039 0.41-0.0975 0.82-0.0975 0.84 0 0 0.2145 0.02 0.3515 0.04 0.1365 0.02 0.5465 0 0.6445-0.78 0.078-0.725-0.2735-0.84-0.43-0.86-0.0585 0-0.371-0.04-0.371-0.04s-0.039 0.41-0.0975 0.82l-0.41-0.06c0.078-0.605 0.1365-1.21 0.1365-1.21 0.215 0.02 0.5665 0.06 0.84 0.1 0.2735 0.015 0.8785 0.175 0.742 1.285-0.078 0.685-0.449 1.29-0.9765 1.23-0.508-0.055-0.9375-0.095-0.9375-0.095l0.156-1.29 0.4105 0.06"/>
    <path d="m119.15 228.4-1.113 0.23 0.0975 0.55 0.996-0.195 0.0975 0.45-0.996 0.215 0.1175 0.64 1.113-0.215 0.078 0.395-1.5625 0.31-0.5075-2.48 1.5625-0.31 0.078 0.41"/>
    <path d="m133.86 232.99 0.3515-0.57s0.3515 0.215 0.4885 0.295c0.1365 0.075 0.1755 0.255 0.0585 0.43-0.0975 0.175-0.2735 0.215-0.3905 0.135-0.1175-0.08-0.5275-0.33-0.5275-0.33l-0.2345 0.37s0.176 0.115 0.3715 0.235c0.1755 0.115 0.2535 0.255 0.0975 0.505-0.1565 0.255-0.3125 0.49-0.3125 0.49l0.371 0.235s0.293-0.47 0.371-0.585c0.1565-0.255 0.1175-0.51 0-0.59 0.098 0.06 0.4495 0 0.6445-0.31 0.176-0.295 0.215-0.705-0.039-0.88-0.254-0.155-1.0545-0.665-1.0545-0.665l-1.348 2.15 0.3715 0.235 0.527-0.82 0.2345-0.37"/>
    <path d="m130.91 231.51 0.8395-0.645-0.371 0.995-0.4685-0.33-0.332 0.27 0.664 0.47-0.176 0.49 0.332 0.25 0.8985-2.48-0.3905-0.29-2.09 1.62 0.3515 0.255 0.4105-0.315 0.332-0.27"/>
    <path d="m139.15 236.1 0.332-1 0.2345 1.035-0.5665-0.02-0.1365 0.415s0.8005 0.035 0.82 0.035l0.098 0.51 0.4295 0.02-0.586-2.56-0.5075-0.02-0.8595 2.5 0.4295 0.02 0.1565-0.505 0.1365-0.415"/>
  </g>
</svg>
