<?xml version="1.0" encoding="UTF-8"?>
<svg width="1020" height="600" xmlns="http://www.w3.org/2000/svg" xmlns:xlink="http://www.w3.org/1999/xlink">
  <path d="M0 0h1020v600H0z" fill="#003893"/>
  <path d="M0 300h1020v150H0z" fill="#fff"/>
  <path d="M0 350h1020v50H0z" fill="#cf2027"/>
  <g transform="matrix(2 0 0 2 382.5 375)" fill="#f7d116">
    <g id="d">
      <g id="c" transform="translate(0 -75)">
        <g id="b">
          <path id="a" transform="rotate(18 0 -15)" d="M0-15V0h7.5"/>
          <use transform="scale(-1 1)" width="100%" height="100%" xlink:href="#a"/>
        </g>
        <use transform="rotate(72)" width="100%" height="100%" xlink:href="#b"/>
        <use transform="rotate(144)" width="100%" height="100%" xlink:href="#b"/>
        <use transform="rotate(216)" width="100%" height="100%" xlink:href="#b"/>
        <use transform="rotate(-72)" width="100%" height="100%" xlink:href="#b"/>
      </g>
      <use y="150" width="100%" height="100%" xlink:href="#c"/>
    </g>
    <use transform="rotate(72)" width="100%" height="100%" xlink:href="#d"/>
    <use transform="rotate(144)" width="100%" height="100%" xlink:href="#d"/>
    <use transform="rotate(216)" width="100%" height="100%" xlink:href="#d"/>
    <use transform="rotate(-72)" width="100%" height="100%" xlink:href="#d"/>
  </g>
</svg>
