<?xml version="1.0" encoding="UTF-8" standalone="yes"?>
<!DOCTYPE svg  PUBLIC '-//W3C//DTD SVG 1.1//EN'  'http://www.w3.org/Graphics/SVG/1.1/DTD/svg11.dtd'>
<svg width="1030" height="618" viewBox="0 0 1e3 600" xmlns="http://www.w3.org/2000/svg">
  <rect width="1e3" height="600" fill="#fff"/>
  <path id="Cyprus" d="m427.66 185.59c0 7.68 0.96 8.64 1.44 10.08s1.08 27.839-2.88 35.04-11.76 11.28-14.88 12-12.96-6.24-22.081-9.12c-9.12-2.88-8.64-2.4-12.479-2.4s-12.48 3.239-14.88 5.28c-1.56-0.24-1.92-0.96-2.88 0-0.959 0.96-4.8 4.8-5.76 7.2s-3.359 11.521-6.24 12.48c-2.88 0.96-10.68 8.759-15.84 9.121-5.159 0.36-3.72-0.24-7.2-0.48-3.479-0.24-3.84-3.84-7.2-5.76-3.359-1.92-4.32-3.36-4.32-3.36s-0.96-3.84-2.4-3.84c-1.439 0-2.879 6.721-2.879 8.641s3.839 9.12 5.76 10.559c1.92 1.44 1.92 10.081 0.96 12.48-0.96 2.4 1.92 4.801 2.399 7.2 0.48 2.4-2.879 4.319-1.439 4.8 1.439 0.479 3.36 3.359 3.36 6.24 0 2.88 7.2 3.84 8.64 6.72s1.92 7.68 2.4 10.561c0.48 2.88 2.16 1.56 2.399 8.64 2.28 1.08 5.76 3.359 8.64 4.8 2.88 1.44 2.401 4.8 6.24 6.24 3.84 1.439 3.84 0 5.76 0.479 1.92 0.48-0.96 0.961 2.4 1.92 3.361 0.96 4.8-0.479 7.681 0.96 2.88 1.44 4.32 4.801 6.24 5.761s10.08 3.359 10.56 3.84c0.48 0.479 5.76 2.4 6.72 2.4s3.84-1.921 3.84-1.921 3.36 0.96 6.24 0c2.88-0.959 4.8-3.84 6.72-3.84s2.4 0.96 4.32 0.96 4.799-0.96 4.799-0.96 4.32-0.96 7.68 0.96c3.36 1.921 11.04 11.041 11.04 14.881 0 3.839-0.479 5.76-0.479 5.76s3.839-0.481 5.279 0.479c1.44 0.961 1.32-0.839 12 0.961-0.72-2.641-11.04-10.08-1.44-20.641s10.2-6.24 12.48-8.159c2.28-1.921 11.04-7.562 25.92-2.401 14.4-2.399 3.84-4.319 12-4.799 1.44-0.601 4.201 0.119 7.201 0.96 0.96-1.801 3-3.48 6.24-2.881 0.6-1.68 4.559-3.96 8.639-4.319 0.601-3.241 10.921-7.319 16.801-7.681 2.399-2.16 5.16-11.76 18.24-7.2 0.479-3.119 2.64-8.16 6.24-9.12 0.72-6.479-1.682-19.561 4.8-24 6.479-5.88 12.6-4.561 23.52-4.319 7.44 1.56 11.04 7.199 13.439 7.68 2.4 0.48 3.36 0.48 6.24-1.439 2.88-1.921-0.479-5.761 1.92-5.761 2.4 0 1.439 0.48 5.28 0 3.84-0.479 3.36-1.8 5.76-2.399 3.841 1.921 8.16 0.479 10.08 1.92 1.921 1.439 2.16 1.319 6.24 1.92 1.439 2.399 5.279 2.399 5.279 2.399s-2.879-0.96-1.919-2.399c0.96-1.44 0-5.761-1.921-7.681-1.919-1.92-2.879-2.4-4.319-4.319-1.439-1.92 0.479-1.921-1.921-4.32-2.399-2.4-7.679-4.8-9.119-7.68-1.439-2.88-0.96-4.8-3.36-7.2-2.399-2.4-12-10.56-12.479-19.2s0.479-16.919 6.239-19.68c-0.24-5.04 0.961-5.76 6.24-8.64s5.762-0.96 9.12-0.96c3.359 0 5.281 0.48 8.64-1.919 3.36-2.4 0.48-7.68 9.12-15.36 8.641-7.68 12-11.52 14.881-12 2.88-0.48 13.319-7.8 17.76-7.2 3.12-3.719 6.24-8.16 10.08-11.04s8.161-2.88 10.08-5.28c1.92-2.4 1.439-6.721 7.2-10.561 5.76-3.839 10.561-6.239 12.96-8.16 2.399-1.92 7.68-0.48 9.6-2.4s1.92-9.12 3.839-10.56c1.921-1.44-6.239 3.36-10.559 5.28s-10.56 5.28-15.84 4.8-2.401 2.879-5.28 3.84c-2.88 0.96-7.68 0.48-9.601 2.4-1.92 1.92-5.279 6.72-8.159 8.64-2.881 1.919-4.32 1.44-7.2 2.88-2.881 1.44-5.28 2.88-7.68 3.84s-9.601 0.48-9.601 0.48-6.24 8.16-9.12 11.04-6.24 2.4-9.12 3.84c-2.88 1.439-27.36 17.28-44.159 19.68-16.801 2.399-9.121-1.44-14.4 0s-12.961 11.519-19.2 12c-6.24 0.48-8.16 0-9.6 0s-9.12 4.8-13.92 3.84c-7.08 2.16-12.359 1.68-14.4 1.439-2.04-0.239-5.76 2.4-11.04 0-4.08-1.319-4.08 1.56-11.999-0.959-7.921-2.52-13.441 0.96-17.281-0.96s-3.36-3.36-6.24-3.36-2.88 1.92-6.24 1.92-3.84-1.92-6.72-1.92-6.24 1.92-10.56 1.44-5.76-2.4-8.64-2.4c-2.881-3e-3 -18.721-6.723-18.721-6.723z" fill="#ed8000"/>
  <g fill="#006651">
    <path d="m476.76 478.8c8.334-6 15.666-8 27-10s23.334-5.332 29.666-7-21.332 8-28.332 10-28.334 7-28.334 7z"/>
    <path d="m522.43 461.13c-2.332-14.332 3.332-29.332 16.332-35.332 3 10.332-6.332 28-16.332 35.332z"/>
    <path d="m544.38 453.67c-6.951-11.873 4.814-27.188 13.432-34.697 3.951 7.156-3.049 28.49-13.432 34.697z"/>
    <path d="m564.77 444.47c-7.432-10.182 1.332-28 10.666-35 3.666 10 0 28-10.666 35z"/>
    <path d="m585.15 431.73c-6.723-9.602-2.055-24.602 7.611-34.268 7.001 8.001 1.001 25.335-7.611 34.268z"/>
    <path d="m601.43 418.8c-5.666-9 1.334-30.668 10.334-36.668 4 8 1 30.668-10.334 36.668z"/>
    <path d="m614.43 415.47c-1.666-13 21.002-27.334 30.334-27-1 10.666-10.668 22.334-30.334 27z"/>
    <path d="m601.77 430.13c10.666-11 31.332-11 38.666-8.666-2 6.334-26.332 20.332-38.666 8.666z"/>
    <path d="m587.1 441.13c15-4 24.668-7.334 33.668 2-6.334 8-30.668 5.666-33.668-2z"/>
    <path d="m565.77 450.8c14.332-7.668 31.666 3.666 34.332 10.332-16 6.668-34.664-8.664-34.332-10.332z"/>
    <path d="m546.1 461.8c13-5 28 1.668 34 9-7 3.332-25.334 7-34-9z"/>
    <path d="m528.1 467.47c15-1.666 29.393 9.686 32.529 16.176-19.197 1.824-26.529-3.842-32.529-16.176z"/>
    <path d="m523.27 478.8c-8.334-6-15.666-8-27-10s-23.334-5.332-29.667-7 21.333 8 28.333 10 28.334 7 28.334 7z"/>
    <path d="m477.6 461.13c2.333-14.332-3.332-29.332-16.333-35.332-3 10.332 6.333 28 16.333 35.332z"/>
    <path d="m455.65 453.67c6.951-11.873-4.814-27.188-13.432-34.697-3.951 7.156 3.049 28.49 13.432 34.697z"/>
    <path d="m435.27 444.47c7.432-10.182-1.332-28-10.666-35-3.666 10 0 28 10.666 35z"/>
    <path d="m414.88 431.73c6.723-9.602 2.055-24.602-7.611-34.268-7 8.001-1 25.335 7.611 34.268z"/>
    <path d="m398.6 418.8c5.666-9-1.334-30.668-10.334-36.668-4 8-1 30.668 10.334 36.668z"/>
    <path d="m385.6 415.47c1.666-13-21.002-27.334-30.334-27 1 10.666 10.668 22.334 30.334 27z"/>
    <path d="m398.27 430.13c-10.666-11-31.332-11-38.666-8.666 2 6.334 26.332 20.332 38.666 8.666z"/>
    <path d="m412.93 441.13c-15-4-24.668-7.334-33.668 2 6.334 8 30.668 5.666 33.668-2z"/>
    <path d="m434.27 450.8c-14.332-7.668-31.666 3.666-34.332 10.332 16 6.668 34.664-8.664 34.332-10.332z"/>
    <path d="m453.93 461.8c-13-5-28 1.668-34 9 7 3.332 25.334 7 34-9z"/>
    <path d="m471.93 467.47c-15-1.666-29.394 9.686-32.53 16.176 19.197 1.824 26.53-3.842 32.53-16.176z"/>
  </g>
</svg>
