<?xml version="1.0" encoding="UTF-8"?>
<svg id="svg" width="1200" height="600" version="1.1" viewBox="0 0 1200 600" xmlns="http://www.w3.org/2000/svg">
  <g id="layer1">
    <g id="g2206">
      <g id="svgg" transform="matrix(3 0 0 2.9993 0 2)">
        <path id="path3" d="m0 199.38h400v-100.02z" fill="#3c8bdc" fill-rule="evenodd"/>
      </g>
      <path id="path7373" d="m0 0h1200v300l-667.46-152.9z" style="fill:#0bac24"/>
      <path id="path3971" d="m0 0v600l1200-300z" style="fill:#eb0433"/>
      <path id="path2" d="m200.79 138.06c-10.545 2.555-21.208 11.687-27.504 23.548-2.5129 4.7352-6.5552 5.7678-6.5552 1.677 0-4.7845 3.5786-9.5559 11.183-14.916 8.499-5.9848 9.022-7.0666 3.7562-7.7243-9.4003-1.1772-19.176 3.2949-29.507 13.489-10.111 9.9801-12.403 15.192-12.403 28.201 0 7.3231-0.0592 7.6355-1.7663 9.4178-6.075 6.3399-6.6604-7.744-0.91107-21.831 2.5688-6.2906 2.6116-6.1393-1.3255-4.6431-8.8017 3.3443-17.067 10.171-19.84 16.382-3.993 8.9574-6.9137 26.142-5.7888 34.09 0.51638 3.6402 1.0986 5.1791 4.2824 11.253 2.2136 4.2255-0.3881 7.2212-3.3976 3.9164-1.2301-1.3482-2.3221-4.9358-4.2495-13.975-0.67756-3.1765-0.35852-13.551 0.54599-17.731l0.42429-1.9434-2.73 2.1604c-6.9367 5.4915-14.847 17.882-16.847 26.392-3.5786 15.232 2.7069 38.184 13.249 48.385 4.8613 4.7023 6.2066 7.5171 3.5884 7.5171-4.4633 0-11.541-9.3323-17.932-23.643-3.7594-8.4149-3.9765-8.5102-5.7362-2.5189-5.1146 17.415-5.0586 30.151 0.19734 43.087 4.8054 11.835 20.09 30.249 30.158 36.336 3.4864 2.1078 5.2922 4.5971 4.1607 5.7283-0.63151 0.63137-8.1109-2.1538-12.166-4.528-5.3316-3.1239-15.518-13.614-19.83-20.424-4.2199-6.6622-4.6048-6.866-4.6048-2.4662 0 19.378 7.4202 37.247 21.001 50.568 16.824 16.501 26.652 21.769 46.419 24.883 5.5849 0.87797 4.8087 2.5386-1.4406 3.0713-11.236 0.9602-31.197-3.0779-41.439-8.3786-2.7957-1.4469-3.1082-0.62479-1.3682 3.604 15.462 37.523 60.628 55.33 122.13 48.148 4.7791-0.559 4.6903-0.44392-7.486 9.6348-5.7888 4.7944-10.584 9.0495-10.66 9.454-0.11512 0.64123 8.2425 8.3524 9.5318 8.793 0.25653 0.0887 5.5027-4.5675 11.653-10.348 13.061-12.275 12.275-11.91 11.703-5.4323-0.79925 9.0265-1.2268 8.1386 4.9337 10.276 6.473 2.2459 5.9862 2.5518 6.4927-4.0447 0.61176-7.9019 0.36507-7.9315 10.048 1.2266 10.101 9.5559 8.6701 9.1317 14.475 4.2946 5.95-4.9555 6.3743-3.9723-6.1638-14.245-5.9434-4.87-10.828-9.089-10.854-9.3816-0.0263-0.28937 3.2858-0.28937 7.3544 0 62.046 4.4327 98.522-9.2764 115.85-43.534 1.6446-3.2555 3.1904-6.751 3.4306-7.7703l0.44073-1.8513-2.5491 1.1049c-17.14 7.4349-46.623 11.779-46.623 6.8726 0-0.69383 1.0788-1.1444 3.618-1.5192 17.472-2.578 27.01-7.3067 41.68-20.651 17.403-15.833 23.918-29.329 25.172-52.137l0.37825-6.9154-4.1048 6.1163c-7.7787 11.582-16.916 19.924-26.135 23.857-9.3641 3.9953-9.5779 0.52285-0.31904-5.2613 7.111-4.4425 22.034-22.163 27.079-32.16 6.2921-12.46 6.6341-31.219 0.87819-48.026-1.3748-4.015-1.684-3.8704-4.0686 1.8743-6.2723 15.116-14.446 26.307-19.215 26.307-2.5918 0-1.2499-2.7655 3.6279-7.4809 5.7329-5.5441 8.7753-11.253 11.765-22.088 5.6902-20.628 1.7005-35.932-13.202-50.64-4.4732-4.413-5.2856-4.459-4.1114-0.2302 2.7201 9.7861-1.8386 31.114-6.6473 31.114-1.9011 0-1.6117-4.6661 0.4835-7.8361 4.5949-6.9417 4.6113-17.02 0.0558-34.439-3.3713-12.894-10.551-20.588-23.471-25.146-3.2299-1.1378-3.2661-1.8579 0.3947 7.573 4.835 12.446 3.4996 25.504-1.9472 19.036-1.5689-1.8678-1.6643-2.3479-1.3255-6.7411 1.2301-15.863-9.2424-32.525-25.448-40.499-7.1637-3.5251-20.33-5.4323-20.33-2.9431 0 1.2298 1.8912 3.1042 6.052 5.9946 8.8312 6.1393 12.367 10.585 12.367 15.551 0 3.798-4.1476 3.6961-5.8941-0.14468-6.7953-14.926-22.185-25.794-36.476-25.758-7.2525 0.0197-7.3183 2.4301-0.16116 5.8138 4.3186 2.0388 7.3742 4.9522 8.0616 7.6816 0.77294 3.0779-0.15788 3.0088-3.5884-0.26306-7.5682-7.2146-19.435-10.756-26.737-7.9808l-1.7301 0.65765 1.4932 2.657c3.0753 5.4652 9.3082 8.4379 21.287 10.141 9.3509 1.3318 11.571 2.4399 6.1934 3.0845-7.44 0.89442-10.647 0.6445-13.896-1.0852-6.8545-3.6468-6.8677-1.0852-0.0263 5.5967 8.0484 7.8624 14.946 10.467 25.135 9.4868 11.446-1.1016 21.754-0.73658 24.813 0.87471 3.7891 1.996 4.0916 2.7852 1.0722 2.7852-1.3781 0-5.0225 0.44393-8.0978 0.98652-3.0753 0.54257-7.2755 0.9865-9.3345 0.9865-4.9666 0-5.0389 0.37158-1.1972 6.113 5.8776 8.7831 14.916 16.248 19.675 16.248 0.91768 0 1.7531 1.0227 2.9174 3.5646 7.2952 15.932 19.827 25.379 35.088 26.451 7.0288 0.49326 7.1374 0.58534 9.5088 8.0137l1.1183 3.4988-2.5655-0.43075c-1.4143-0.24007-4.9041-0.52614-7.7623-0.64124-6.7657-0.26635-17.143-6.5898-17.199-10.483-7e-3 -0.38803-0.26969-0.29924-0.58545 0.1973-0.61837 0.97992-0.36509 4.5872 0.65453 9.2896 2.9175 13.446 14.166 27.546 30.694 38.474l4.7692 3.1535v3.1469c0 1.733-0.28615 3.9032-0.63809 4.824l-0.6348 1.6738-4.812-3.4396c-2.6444-1.8908-6.2789-4.1795-8.078-5.0805-4.8942-2.4597-9.8838-7.7013-11.035-11.588l-0.95055-3.2127-0.74992 2.7457c-5.1705 18.859-0.25656 42.975 12.157 59.693 3.1904 4.2946 3.3812 5.1791 1.8814 8.7667-1.9866 4.7549-4.9008 6.7871-4.9008 3.4166 0-2.6076-1.3156-4.6497-6.3348-9.842-5.4303-5.6165-6.3973-7.892-8.6701-20.388l-0.53942-2.9595-1.7564 3.41c-8.5944 16.695-13.084 40.775-11.588 62.159 0.79596 11.417 0.88477 11.184-6.1737 16.701-4.7232 3.6961-5.7329 4.0578-4.4107 1.585 2.1313-3.9789 2.6214-7.7703 2.4635-19.132-0.16774-12.131 0.72031-16.889 4.2232-22.63 2.1807-3.5777 1.0722-3.9032-4.2397-1.2463-12.173 6.0867-23.576 19.266-33.483 38.694-9.4134 18.457-17.399 27.596-29.579 33.837-6.5684 3.3672-6.5684 3.3672-6.0783-4.4096 0.49664-7.915-0.70718-28.71-2.1248-36.625-0.58216-3.2554-1.0986-6.3333-1.1479-6.843-0.0494-0.50971 2.5754-2.7227 5.8316-4.9226s7.9465-6.0275 10.426-8.5102l4.5028-4.5083 3.7627 1.6869c18.133 8.1353 32.595 1.6541 41.065-18.408 2.0425-4.8372 1.8287-5.0476-1.7597-1.7428-3.5193 3.2423-4.5949 3.8178-8.1668 4.3636-3.5424 0.53929-3.5522 0.56558 1.1413-3.9065 5.4204-5.1726 7.6801-8.9114 8.5155-14.097 0.37824-2.3512 0.98672-5.3074 1.3551-6.5734 0.36511-1.2627 0.6644-2.3676 0.6644-2.4531s-1.9504 0.91744-4.3383 2.2262c-4.0324 2.2196-4.8712 2.4169-12.045 2.8773-8.0912 0.51628-13.226 2.0454-15.577 4.6398-6.2328 6.8858-2.582-6.9515 3.8844-14.719l3.299-3.9624-3.5654 0.42421c-4.1805 0.49654-10.052 2.5353-12.032 4.1762-8.9266 7.3954-11.453 14.321-10.696 29.339 0.57228 11.338-0.46706 12.943-13.745 21.216-5.6145 3.4988-6.394 3.3673-7.565-1.2594-0.37824-1.4962-1.8518-6.7148-3.2759-11.598-3.7463-12.851-5.4336-28.898-4.3054-40.946l0.47692-5.0903 2.7398-7e-3c3.5391-7e-3 7.9695-2.1407 14.847-7.1488 6.8117-4.9588 7.93-5.0476 16.12-1.2562 12.097 5.5967 20.804 3.2719 27.98-7.4777 3.2168-4.8141 3.5325-6.5175 0.85846-4.6168-5.0258 3.5678-11.407 4.4096-15.932 2.1012-4.4896-2.2887-4.2002-2.6899 2.6116-3.6205 7.6801-1.0457 16.567-7.3856 19.685-14.038 1.934-4.1301 1.707-4.4425-1.9899-2.7655-3.7266 1.6902-7.2064 1.6869-10.542-0.0132-3.7002-1.8908-10.301-1.8776-13.528 0.0263-1.2893 0.7596-2.4997 1.2265-2.6905 1.0358-0.79595-0.79906 3.7068-6.6589 6.5585-8.5299 3.8088-2.5024 3.6871-3.114-0.83543-4.1729-8.8312-2.0651-15.35 1.6409-19.616 11.144-1.6215 3.6172-2.3418 6.09-3.7364 12.88-0.56245 2.726-15.206 18.566-17.166 18.566-2.6806 0-0.71704-5.6987 8.0353-23.347 4.1673-8.405 7.4005-15.87 8.2622-19.072 2.1642-8.0729 2.1478-8.0466 5.7198-9.1054 4.3646-1.2956 8.3247-3.3508 12.568-6.5208 3.1806-2.3742 3.697-2.5616 4.9337-1.7888 12.206 7.6256 22.494 5.5375 28.263-5.7349 2.0623-4.0348 1.0821-4.4656-3.9239-1.7198-6.0224 3.3015-13.42 2.3282-13.42-1.7658 0-2.5287 0.96371-3.0549 6.3644-3.4856 6.986-0.55571 10.917-3.0812 13.439-8.6286 2.0754-4.5708 1.6676-5.7447-1.3847-3.9986-1.0262 0.58534-3.572 0.94704-6.7624 0.96347-6.144 0.0263-8.9003 1.0589-11.318 4.2288-3.5457 4.6464-7.5715 2.7227-5.0685-2.4202 0.74334-1.5258 1.8419-4.1828 2.4405-5.9026 0.5986-1.7231 1.6643-3.4396 2.3649-3.8145 2.1906-1.1739 0.68414-2.098-2.6116-1.6047-8.6142 1.2923-12.002 6.7246-12.472 19.996-0.38811 11.052-2.8681 14.709-11.64 17.165-3.8351 1.072-4.3548 0.52942-3.4832-3.6205 2.434-11.572 0.38154-34.001-4.0884-44.633l-1.9208-4.5774 2.3452-2.5945c7.2591-8.0334 5.0948-22.246-4.3712-28.704-4.2725-2.9135-4.2627-2.9266-4.2627 5.8072 0 4.311-0.23023 8.0663-0.50981 8.3458-1.2663 1.266-10.315-9.3948-11.926-14.054-1.0492-3.0286-1.5755-3.0614-3.4897-0.22031-2.1675 3.2127-2.0064 8.1123 0.49993 15.192 1.0887 3.0746 2.1609 6.1328 2.3813 6.8003 0.53941 1.6277-5.5092-1.3712-8.4694-4.1992-2.7004-2.5781-2.7464-2.5419-2.2859 1.8645 1.0887 10.427 6.4763 14.567 18.988 14.594 6.1112 0.0103 7.0716 0.16441 7.3742 1.1641 2.7727 9.1317 4.2627 37.254 2.4668 46.53-2.3418 12.098-8.5319 22.949-11.765 20.624-8.7753-6.3037-14.66-12.134-14.169-14.038 2.7694-10.73-2.2662-23.002-13.005-31.693-5.2659-4.2617-5.5586-4.0512-3.1115 2.2492 1.092 2.805 2.1412 6.8628 2.3386 9.0133l0.35521 3.9131-3.2299-2.3051c-4.6245-3.3015-6.3348-3.877-11.505-3.877-5.6737 0-9.0845-1.5587-11.541-5.2745-2.5589-3.8605-3.1312-3.3738-2.6543 2.2558 0.7828 9.26 3.9009 14.656 10.213 17.672 3.7463 1.7921 4.2989 3.4133 1.3551 4.0019-3.2463 0.6511-9.1042 0.49324-10.555-0.28608-2.3517-1.2561 0.18092 2.6142 4.1838 6.3991 8.7359 8.2603 15.034 9.3849 31.779 5.6822 1.0953-0.24334 13.058 8.3524 18.883 13.564 0.2697 0.24333-0.87162 2.6471-2.5359 5.3435-11.63 18.822-16.242 42.17-12.558 63.596 1.092 6.3629 0.59534 6.8101-3.9272 3.5382-7.1209-5.1594-9.0319-9.5329-8.8411-20.25 0.28287-15.988-4.0686-23.969-16.113-29.569-7.6044-3.535-12.022-4.1301-8.7392-1.1739 2.8549 2.5682 5.1738 7.6223 5.1803 11.282 7e-3 4.1828-0.14801 4.2091-3.3286 0.59519-3.2069-3.6402-7.3512-5.3271-11.657-4.7418-10.841 1.4764-15.301 0.18085-16.919-4.9161-1.0262-3.2357-1.8156-1.1312-1.4044 3.7421 0.98674 11.67 8.328 19.651 20.221 21.992 4.4403 0.87141 4.7988 1.677 1.8616 4.1499-3.6871 3.1009-9.3148 1.8875-17.814-3.8342-4.4896-3.022-4.6179-2.3643-0.99989 5.0739 7.2591 14.922 20.169 19.963 35.966 14.051 2.7135-1.0161 5.4139-1.9993 6.0026-2.1834 2.1577-0.67413 22.073 19.868 25.218 26.007 4.5686 8.9246 9.1404 38.562 8.8049 57.076-0.25655 14.294-0.10199 13.841-4.3186 12.703-16.021-4.3308-27.829-15.481-38.759-36.596-11.111-21.46-21.165-33.324-33.595-39.638-5.9632-3.0318-6.3874-2.8181-4.1805 2.0914 3.3384 7.4185 4.0061 11.588 3.8252 23.88-0.1546 10.375-0.0625 11.364 1.3222 14.367 1.7893 3.8737 1.5788 4.2584-1.3453 2.4531-5.2955-3.2719-9.1766-8.4083-8.6569-11.453 3.151-18.477-1.4932-47.507-10.992-68.69-2.0294-4.5247-2.1609-4.4327-3.0457 2.1802-1.0032 7.4908-3.1806 12.048-8.2918 17.346-4.7199 4.8898-6.3217 7.5829-6.3217 10.628v2.121l-1.6084-1.5093c-4.7001-4.4162-5.0257-8.6319-1.0788-14.038 11.324-15.518 16.521-38.658 12.624-56.224-0.86504-3.8967-2.0425-6.0768-2.0425-3.775 0 3.7914-4.9567 9.112-12.578 13.505-2.6708 1.539-6.4302 3.969-8.3576 5.3994-4.1443 3.0779-3.9864 3.1568-4.4929-2.2689l-0.40126-4.2814 3.0852-2.2262c20.869-15.041 29.217-25.452 32.954-41.091 2.0886-8.7437 1.4735-9.4934-3.5391-4.3406-4.8514 4.9884-7.3939 6.1196-14.4 6.4123-3.0918 0.12823-6.5026 0.42748-7.5814 0.66422l-1.9669 0.43077 0.47035-2.5353c0.25983-1.3975 1.2104-3.9 2.1149-5.5672l1.6413-3.0286 6.0322-0.3979c11.956-0.7925 20.044-5.235 28.217-15.498 3.4832-4.3702 7.9596-11.907 8.0419-13.535 0.0197-0.34527 0.92095-0.81551 2.0064-1.0424 6.4335-1.3515 13.663-7.3527 19.363-16.083 4.1574-6.3662 4.1706-6.2478-0.77953-6.2478-2.2596 0-6.6275-0.44393-9.7028-0.9865-3.0753-0.54258-6.7756-0.99638-8.2228-1.0062l-2.6313-0.023 1.559-1.2989c3.9634-3.3015 8.6372-3.6698 28.102-2.213 9.8607 0.73656 17.212-2.3117 24.987-10.358 5.9401-6.1492 5.6112-8.2241-0.76965-4.8306-3.2661 1.7362-6.5651 1.9862-14.081 1.0753-5.2823-0.64124-2.8648-1.7067 7.4531-3.2851 10.798-1.6507 16.179-4.1334 19.396-8.9476 5.9401-8.8851-15.932-6.1459-25.711 3.2193-3.3055 3.17-4.4271 3.6698-4.4271 1.9763 0-3.0713 3.2562-6.5241 8.328-8.8292 9.8542-4.482 3.9272-7.9084-8.476-4.9029m-53.172 58.474c1.8616 1.2528 5.0751 2.7688 7.1374 3.3738 7.3084 2.1374 7.3018 2.1308 2.9174 2.1867-3.2365 0.0426-5.3941-0.44392-10.019-2.2492-3.2398-1.266-6.3414-2.3018-6.894-2.3018-1.5196 0-1.194-1.6771 0.48019-2.486 2.2564-1.0884 2.7333-0.97665 6.3776 1.4765m197.42-1.2759c2.2399 1.1575 2.5425 2.2854 0.61177 2.2854-0.73347 0-3.9831 1.0358-7.2229 2.3018-4.6574 1.8185-6.7558 2.2887-10.019 2.2361-3.8581-0.0658-3.9765-0.10854-1.8222-0.707 6.3315-1.7527 7.7754-2.3314 11.469-4.6036 4.6409-2.8543 4.4633-2.8148 6.9828-1.5126" fill="#fbc724" fill-rule="evenodd" style="stroke-width:3.2887"/>
    </g>
  </g>
</svg>
