<?xml version="1.0" encoding="UTF-8"?>
<svg width="1e3" height="600" version="1.0" viewBox="0 0 500 300" xmlns="http://www.w3.org/2000/svg" xmlns:xlink="http://www.w3.org/1999/xlink">
  <defs>
    <g id="b">
      <path id="a" transform="rotate(18,0,-1)" d="m0-1v1h0.5" fill="#fcd116"/>
      <use transform="scale(-1,1)" width="100%" height="100%" xlink:href="#a"/>
    </g>
  </defs>
  <path d="M0 0H500V300H0z" fill="#ce1126"/>
  <path d="M42 42H458V258H42z" fill="#007a5e"/>
  <path d="m42 42h416l-416 216h416z" fill="#fcd116"/>
  <circle cx="250" cy="150" r="36" fill="#ce1126"/>
  <path d="m67.749 150.41c4.504 8.39 13.265 17.52 20.916 20.73 0.123-8.52-2.9-19.44-7.034-28.14z" fill="#ce1126"/>
  <path d="m60.112 121.63c6.529 13.61-16.933 46.08 22.156 53.69-4.822-6.58-7.931-17.44-6.755-26.16 8.201 3.12 16.83 12.25 20.317 19.23 10.23-37.15-26.24-34.89-35.718-46.76z" fill="#fcd116"/>
  <g fill="#fcd116">
    <path d="m150 259.5-11.462 35.276 30.007-21.802h-37.091l30.007 21.802z"/>
    <path d="m250 259.5-11.462 35.276 30.007-21.802h-37.091l30.007 21.802z"/>
    <path d="m350 259.5-11.462 35.276 30.007-21.802h-37.091l30.007 21.802z"/>
    <path d="m350 1.5001-11.462 35.276 30.007-21.802h-37.091l30.007 21.802z"/>
    <path d="m250 1.5-11.462 35.276 30.007-21.802h-37.091l30.007 21.802z"/>
    <path d="m150 1.5001-11.462 35.276 30.007-21.802h-37.091l30.007 21.802z"/>
    <path d="m250 117-19.397 59.697 50.782-36.895h-62.77l50.782 36.895z"/>
  </g>
</svg>
