<?xml version="1.0" encoding="UTF-8"?>
<svg width="1280" height="640" viewBox="0 0 10080 5040" xmlns="http://www.w3.org/2000/svg" xmlns:xlink="http://www.w3.org/1999/xlink">
  <defs>
    <clipPath id="c1">
      <path d="M0,0H6V3H0z"/>
    </clipPath>
    <clipPath id="c2">
      <path d="m0 0v1.5h6v1.5zm6 0h-3v3h-3z"/>
    </clipPath>
    <path id="Star7" d="m0-360 69.421 215.84 212.04-80.301-125.47 188.85 194.99 115.71-225.88 19.651 31.105 224.59-156.2-164.35-156.2 164.35 31.105-224.59-225.88-19.651 194.99-115.71-125.47-188.85 212.04 80.301z"/>
    <path id="Star5" d="m0-210 54.86 134.49 144.86 10.615-110.96 93.735 34.67 141.05-123.43-76.56-123.43 76.56 34.67-141.05-110.96-93.735 144.86-10.615z"/>
    <use id="Cstar" transform="scale(2.1)" xlink:href="#Star7"/>
  </defs>
  <g transform="scale(840)">
    <rect width="12" height="6" fill="#00008b"/>
    <path d="m0 0 6 3m0-3-6 3" clip-path="url(#c1)" stroke="#fff" stroke-width=".6"/>
    <path d="m0 0 6 3m0-3-6 3" clip-path="url(#c2)" stroke="#f00" stroke-width=".4"/>
    <path d="M3,0V3M0,1.5H6" stroke="#fff"/>
    <path d="M3,0V3M0,1.5H6" stroke="#f00" stroke-width=".6"/>
  </g>
  <g fill="#fff">
    <use id="Comwlth" x="2520" y="3780" xlink:href="#Cstar"/>
    <use id="αCrucis" x="7560" y="4200" xlink:href="#Star7"/>
    <use id="βCrucis" x="6300" y="2205" xlink:href="#Star7"/>
    <use id="γCrucis" x="7560" y="840" xlink:href="#Star7"/>
    <use id="δCrucis" x="8680" y="1869" xlink:href="#Star7"/>
    <use id="εCrucis" x="8064" y="2730" xlink:href="#Star5"/>
  </g>
</svg>
