<?xml version="1.0" encoding="UTF-8"?>
<svg width="500" height="300" viewBox="0 0 500 300" xmlns="http://www.w3.org/2000/svg" xmlns:xlink="http://www.w3.org/1999/xlink">
  <title>Flag of Haiti</title>
  <rect y="-3.8147e-6" width="500" height="300" fill="#00209f" fill-rule="evenodd"/>
  <rect y="150" width="500" height="150" fill="#d21034" fill-rule="evenodd"/>
  <g transform="matrix(.18594 0 0 .17938 202.68 112.28)">
    <rect id="Background" width="509" height="420" fill="#fff" fill-rule="evenodd"/>
    <path id="Island" d="m356.94 303.72-103.88 3.125-103.41 1.2188s-53.126 20.367-74.844 24.938c-21.654 4.557-18.838 11.931-35.594 15.812-13.421 3.1089-14.969 4.0892-22.844 4.625-4.7653 0.32425-10.635 4.1245-16.375 8.3125v58.25h509v-55.406c-5.5173-3.1163-10.775-5.2602-16.156-7.1562-7.4773-2.6347-12.516-5.5161-25.938-8.625-16.756-3.8814-13.94-11.255-35.594-15.812-21.717-4.5705-74.375-29.281-74.375-29.281z" fill="#016a16" fill-rule="evenodd" stroke="#016a16" stroke-width="1px"/>
    <path id="Palm-center" d="m247.81 74.25-2.5 50.562h15.594l-2.2812-50.125 16.255-2.3663-1.8004-19.97-40.393 1.6163 0.2259 18.135 14.901 2.1475z" fill="#016a16" fill-rule="evenodd" stroke="#016a16" stroke-width="1px"/>
    <g id="Reflected-elements">
      <g id="g3357">
        <g id="Pikes" transform="translate(-520)">
          <path d="m730.97 213.3-13.56-30.236 5.8639-1.2827 24.738 50.209-17.042-18.691z" fill="#f1b517" fill-rule="evenodd" stroke="#000" stroke-width="1px"/>
          <path d="m699.63 147.7 15.026 42.513h7.6963l-22.723-42.513z" fill="#fff" fill-rule="evenodd" stroke="#000" stroke-width="1px"/>
          <path d="m745.08 174.08 7.5131-0.18325 13.743 59.921-2.9319 18.874-18.325-78.613z" fill="#f1b517" fill-rule="evenodd" stroke="#000" stroke-width="1px"/>
          <path d="m751.49 235.84-23.089-64.319 8.6126-0.54973 26.937 78.613-12.461-13.743z" fill="#f1b517" fill-rule="evenodd" stroke="#000" stroke-width="1px"/>
          <path d="m717.59 134.87 9.5288 44.712h7.6963l-17.225-44.712z" fill="#fff" fill-rule="evenodd" stroke="#000" stroke-width="1px"/>
          <path d="m737.2 134.14 5.1309 46.178 5.4974-0.36649-10.628-45.812z" fill="#fff" fill-rule="evenodd" stroke="#000" stroke-width="1px"/>
        </g>
        <g id="Flags" transform="translate(-520)">
          <path d="m732.81 217.86-61.503-69.594c-19.209 15.766-15.64 44.715-15.64 44.715l69.685 56.672 7.4576-31.793z" fill="#0a328c" fill-rule="evenodd" stroke="#000" stroke-width="1px"/>
          <path d="m768.37 256.16-45.625-47.906c-19.289 0.69386-3.9834 30.544-3.012 34.29l48.637 43.116v-29.5z" fill="#d20014" fill-rule="evenodd" stroke="#000" stroke-width="1px"/>
          <path d="m764.49 247.92-94.33-104.7-3.6814 2.6956 99.826 114.96-1.814-12.959z" fill="#f1b517" fill-rule="evenodd" stroke="#000" stroke-width="1px"/>
          <path d="m664.71 136.52-2.0708-2.4849 0.20708-4.9698-19.465-12.839 8.6971 20.293 6.6264 1.2424 2.0707 2.4849 3.9344-3.7273z" fill="#f1b517" fill-rule="evenodd" stroke="#000" stroke-width="1px"/>
          <path d="m654.77 143.97c3.3132-4.1415 7.2476-8.283 14.288-12.217l5.3839 8.0759-11.596 10.147-8.0759-6.0052z" fill="#f1b517" fill-rule="evenodd" stroke="#000" stroke-width="1px"/>
          <path d="m705.94 236.3-77.268-63.614c-13.229 13.954-2.2301 57.038-2.2301 57.038l75.522 42.407 3.9769-35.831z" fill="#0a328c" fill-rule="evenodd" stroke="#000" stroke-width="1px"/>
          <path d="m770.01 287.84-63.561-52.775c-21.707 3.1574-4.6425 36.27-3.3483 39.917l67.125 37.732-0.21608-24.874z" fill="#d20014" fill-rule="evenodd" stroke="#000" stroke-width="1px"/>
          <g transform="matrix(.98481 -.17365 .17365 .98481 -54.791 145.56)">
            <path d="m786.94 272.4-116.78-129.17-3.6814 2.6956 121.86 140.1-1.3985-13.629z" fill="#f1b517" fill-rule="evenodd" stroke="#000" stroke-width="1px"/>
            <path d="m664.71 136.52-2.0708-2.4849 0.20708-4.9698-19.465-12.839 8.6971 20.293 6.6264 1.2424 2.0707 2.4849 3.9344-3.7273z" fill="#f1b517" fill-rule="evenodd" stroke="#000" stroke-width="1px"/>
            <path d="m654.77 143.97c3.3132-4.1415 7.2476-8.283 14.288-12.217l5.3839 8.0759-11.596 10.147-8.0759-6.0052z" fill="#f1b517" fill-rule="evenodd" stroke="#000" stroke-width="1px"/>
          </g>
          <path d="m700.41 275.2c-1.0251-0.25627-99.589-58.212-99.589-58.212-7.1758 12.558-0.68613 30.776 2.4596 33.609 0.18228 8.3614-3.2405 12.858 3.8002 30.321 2.0765 11.354 7.1446 21.814 14.522 28.027 8.9877 35.771 44.221 38.174 57.793 9.0534l21.015-42.799z" fill="#0a328c" fill-rule="evenodd" stroke="#000" stroke-width="1px"/>
          <path d="m765.64 313.45-67.486-41c-21.707 3.1574 0.46006 44.905 1.7543 48.553l65.163 23.994 0.56894-31.547z" fill="#d20014" fill-rule="evenodd" stroke="#000" stroke-width="1px"/>
          <g transform="matrix(.94552 -.32557 .32557 .94552 -78.456 297.23)">
            <path d="m786.94 272.4-116.78-129.17-3.6814 2.6956 121.86 140.1-1.3985-13.629z" fill="#f1b517" fill-rule="evenodd" stroke="#000" stroke-width="1px"/>
            <path d="m664.71 136.52-2.0708-2.4849 0.20708-4.9698-19.465-12.839 8.6971 20.293 6.6264 1.2424 2.0707 2.4849 3.9344-3.7273z" fill="#f1b517" fill-rule="evenodd" stroke="#000" stroke-width="1px"/>
            <path d="m654.77 143.97c3.3132-4.1415 7.2476-8.283 14.288-12.217l5.3839 8.0759-11.596 10.147-8.0759-6.0052z" fill="#f1b517" fill-rule="evenodd" stroke="#000" stroke-width="1px"/>
          </g>
          <path d="m644.41 161.63 3.1618 5.7214c1.9573-0.75281 21.681-19.272 21.681-19.272l14.153-0.45168 4.0652-4.6674c-10.389-11.593-20.175 1.6562-20.175 1.6562l-22.885 17.014z" fill="#0a328c" fill-rule="evenodd" stroke="#0a328c" stroke-width="1px"/>
          <path d="m655.7 171.27c0.75281-5.1191 10.088-17.917 11.443-18.369 7.0087 2.1806 13.528 6.3616 20.627-10.238-6.1731 8.1304-18.67-0.15055-18.67-0.15055l-5.4202 4.6674 0.15057 2.2584-16.411 15.809 8.2809 6.0225z" fill="#d20014" fill-rule="evenodd" stroke="#d20014" stroke-width="1px"/>
          <g transform="matrix(.98769 -.15643 .15643 .98769 -56.796 135.1)">
            <path d="m647.16 159.63-0.07884 5.9703c1.9573-0.75281 22.165-17.518 22.165-17.518l14.153-0.45168 3.5248-4.1433c-7.7033-13.15-20.331 0.71682-20.331 0.71682l-19.433 15.426z" fill="#0a328c" fill-rule="evenodd" stroke="#0a328c" stroke-width="1px"/>
            <path d="m656.37 171.83c0.20509-5.5108 9.8462-20.242 11.201-20.693 7.8141 3.8326 14.364 8.7806 20.196-8.4773-6.1731 8.1304-18.701-0.91765-18.701-0.91765l-5.4202 4.6674 0.18151 3.0255-16.803 16.357 9.3454 6.0387z" fill="#d20014" fill-rule="evenodd" stroke="#d20014" stroke-width="1px"/>
          </g>
          <g transform="matrix(.9563 -.29237 .29237 .9563 -82.536 274.18)">
            <path d="m645.19 160.61 1.1497 7.153c1.9573-0.75281 22.909-19.684 22.909-19.684l14.153-0.45168 4.0652-4.6674c-7.2808-13.005-20.175 1.6562-20.175 1.6562l-22.101 15.994z" fill="#0a328c" fill-rule="evenodd" stroke="#0a328c" stroke-width="1px"/>
            <path d="m656.24 173.64c0.5969-5.6391 9.3283-21.613 10.683-22.065 7.2682 4.9365 13.752 7.6895 20.851-8.9103-7.1608 6.7263-18.67-0.15055-18.67-0.15055l-5.4202 4.6674 0.15057 2.2584-17.028 17.825 9.4328 6.3747z" fill="#d20014" fill-rule="evenodd" stroke="#d20014" stroke-width="1px"/>
          </g>
        </g>
        <path id="Cannon-base" d="m233.18 337.28-37.971-12.205-16.544-29.292-58.583-2.9834 2.0346 21.968 49.904 9.9016 4.7459 8.815 57.363 16.545-0.94968-12.75z" fill="#f1b517" fill-rule="evenodd" stroke="#000" stroke-width="1px"/>
        <g id="Cannon-Loader" transform="translate(-520)">
          <path d="m713.52 345.46-59.959-91.414-2.9427 2.2943 59.485 91.796 3.4165-2.6766z" fill="#503200" fill-rule="evenodd" stroke="#000" stroke-width="1px"/>
          <path d="m659.14 257.64-6.4012-11.104c-1.1983-2.0521-3.0181-2.7334-5.6921-1.2728-2.6036 1.4222-2.3505 4.2327-1.29 6.26l5.9183 10.325 7.4651-4.2083z" fill="#fff" fill-rule="evenodd" stroke="#000" stroke-width="1px"/>
        </g>
        <g id="Cannn-main" transform="translate(-520)">
          <path d="m720.64 289.01-120.99-12.746-2.9414 18.237 120.4 12.55 3.5297-18.041z" fill="#f1b517" fill-rule="evenodd" stroke="#000" stroke-width="1px"/>
          <path d="m597.5 271.56-3.1375 25.296h5.0984l3.5297-23.139-5.4906-2.157z" fill="#f1b517" fill-rule="evenodd" stroke="#000" stroke-width="1px"/>
          <path d="m617.69 275.68-1.3726 22.747 3.1375 0.39219 2.5492-20.198-4.314-2.9414z" fill="#f1b517" fill-rule="evenodd" stroke="#000" stroke-width="1px"/>
          <path d="m699.66 285.48-2.9414 21.374 5.8828-0.1961 2.3531-21.178h-5.2945z" fill="#f1b517" fill-rule="evenodd" stroke="#000" stroke-width="1px"/>
          <path d="m717.69 286.06-4.1875 24.719 6.6562 1 1.9062-13c0.53495 2.6121 2.8555 4.5938 5.625 4.5938 3.1651 0 5.75-2.5849 5.75-5.75s-2.5849-5.7188-5.75-5.7188c-2.2007 0-4.1973 1.3376-5.0625 3.8296l1.25-9.2671-6.1875-0.40625z" fill="#f1b517" fill-rule="evenodd" stroke="#000" stroke-width="1px"/>
          <path d="m674.02 290.08-16.639 19.412 1.9412 2.3572 21.353-15.114-6.6556-6.6556z" fill="#f1b517" fill-rule="evenodd" stroke="#000" stroke-width="1px"/>
          <path d="m635.34 338.47 16.639-19.412-1.9412-2.3572-21.353 15.114 6.6556 6.6556z" fill="#f1b517" fill-rule="evenodd" stroke="#000" stroke-width="1px"/>
          <path d="m678.87 333.62-20.244-16.223-2.0799 1.5252 15.946 20.937 6.3783-6.2396z" fill="#f1b517" fill-rule="evenodd" stroke="#000" stroke-width="1px"/>
          <path d="m628.96 296.18 20.522 15.668 2.4959-1.9412-16.084-20.937-6.933 7.2103z" fill="#f1b517" fill-rule="evenodd" stroke="#000" stroke-width="1px"/>
          <path d="m651.29 283.25 1.9609 25.492 2.7621-0.12184 6.492-24.816-11.215-0.55464z" fill="#f1b517" fill-rule="evenodd" stroke="#000" stroke-width="1px"/>
          <path d="m658.01 345.1-1.9609-25.492-3.0394-0.29414-3.7188 25.786h8.7192z" fill="#f1b517" fill-rule="evenodd" stroke="#000" stroke-width="1px"/>
          <path d="m685.23 310.74-25.786 2.8434-0.39219 2.5492 26.08 3.5297 0.09805-8.9222z" fill="#f1b517" fill-rule="evenodd" stroke="#000" stroke-width="1px"/>
          <path d="m623.87 319.57 25.174-4.1249 0.53084-2.0282-26.04-3.0157 0.33476 9.1688z" fill="#f1b517" fill-rule="evenodd" stroke="#000" stroke-width="1px"/>
          <path transform="matrix(1.6202 0 0 1.6202 -406.1 -196.06)" d="m658.86 314.61c0 2.3283-1.8875 4.2158-4.2158 4.2158s-4.2158-1.8875-4.2158-4.2158 1.8875-4.2158 4.2158-4.2158 4.2158 1.8875 4.2158 4.2158z" fill="#f1b517" fill-rule="evenodd" stroke="#000" stroke-linecap="round" stroke-width=".61722"/>
          <path d="m690.81 313.66c0 20.024-16.252 36.276-36.276 36.276s-36.276-16.251-36.276-36.276c0-20.024 16.252-36.276 36.276-36.276s36.276 16.252 36.276 36.276zm-7.2467 4e-5c0 16.024-13.005 29.029-29.029 29.029s-29.029-13.005-29.029-29.029 13.005-29.029 29.029-29.029 29.029 13.005 29.029 29.029z" fill="#f1b517" fill-rule="evenodd" stroke="#000" stroke-linecap="round"/>
          <path d="m631.87 295.35-5.685-4.4371" fill="none" stroke="#000" stroke-width="1px"/>
          <path d="m672.5 291.05 4.8531-5.1304" fill="none" stroke="#000" stroke-width="1px"/>
          <path d="m682.9 336.8-5.9623-4.8531" fill="none" stroke="#000" stroke-width="1px"/>
          <path d="m631.87 342.35 5.1304-5.685" fill="none" stroke="#000" stroke-width="1px"/>
        </g>
        <g id="Axe" transform="translate(-520)">
          <path d="m754.04 277.83 6.2116 32.814-5.0667 2.7662-5.4507-35.111 4.3058-0.46929z" fill="#f1b517" fill-rule="evenodd" stroke="#000" stroke-width="1px"/>
          <path d="m750.79 273.6c-2.8799-1.248-6.6238 0.86397-12.768-7.1998-10.102 9.5997-0.57599 11.04 0.95996 20.543 2.8566 1.2168 4.6164-7.3743 12.384-8.2557 0.95997-0.096 12.358-1.1323 12.358-1.1323s-2.8613-4.0424-2.8613-4.0424-7.9274 0.2155-10.073 0.0868z" fill="#fff" fill-rule="evenodd" stroke="#000" stroke-width="1px"/>
          <path d="m754.92 280.04-1.152-9.7917c-1.248-3.4559-5.3758-0.47998-5.3758 1.536l1.056 9.0237 5.4718-0.76797z" fill="#fff" fill-rule="evenodd" stroke="#000" stroke-width="1px"/>
        </g>
        <g id="Cannon-balls" transform="translate(-520)">
          <path transform="matrix(.91593 0 0 .91593 56.845 30.233)" d="m685.32 361.22c0.00208 1.5535-0.82548 2.9898-2.1705 3.7671-1.345 0.77733-3.0027 0.77733-4.3477 0s-2.1726-2.2137-2.1705-3.7671c-0.00208-1.5535 0.82548-2.9898 2.1705-3.7671 1.345-0.77733 3.0027-0.77733 4.3477 0s2.1726 2.2137 2.1705 3.7671z" fill="#f1b517" fill-rule="evenodd" stroke="#000" stroke-linecap="round" stroke-width="1.0918"/>
          <path transform="matrix(.91593 0 0 .91593 46.663 22.766)" d="m685.32 361.22c0.00208 1.5535-0.82548 2.9898-2.1705 3.7671-1.345 0.77733-3.0027 0.77733-4.3477 0s-2.1726-2.2137-2.1705-3.7671c-0.00208-1.5535 0.82548-2.9898 2.1705-3.7671 1.345-0.77733 3.0027-0.77733 4.3477 0s2.1726 2.2137 2.1705 3.7671z" fill="#f1b517" fill-rule="evenodd" stroke="#000" stroke-linecap="round" stroke-width="1.0918"/>
          <path transform="matrix(.91593 0 0 .91593 32.951 27.654)" d="m685.32 361.22c0.00208 1.5535-0.82548 2.9898-2.1705 3.7671-1.345 0.77733-3.0027 0.77733-4.3477 0s-2.1726-2.2137-2.1705-3.7671c-0.00208-1.5535 0.82548-2.9898 2.1705-3.7671 1.345-0.77733 3.0027-0.77733 4.3477 0s2.1726 2.2137 2.1705 3.7671z" fill="#f1b517" fill-rule="evenodd" stroke="#000" stroke-linecap="round" stroke-width="1.0918"/>
          <path transform="matrix(.91593 0 0 .91593 11.772 32.405)" d="m685.32 361.22c0.00208 1.5535-0.82548 2.9898-2.1705 3.7671-1.345 0.77733-3.0027 0.77733-4.3477 0s-2.1726-2.2137-2.1705-3.7671c-0.00208-1.5535 0.82548-2.9898 2.1705-3.7671 1.345-0.77733 3.0027-0.77733 4.3477 0s2.1726 2.2137 2.1705 3.7671z" fill="#f1b517" fill-rule="evenodd" stroke="#000" stroke-linecap="round" stroke-width="1.0918"/>
          <path transform="matrix(.91593 0 0 .91593 2.8121 33.491)" d="m685.32 361.22c0.00208 1.5535-0.82548 2.9898-2.1705 3.7671-1.345 0.77733-3.0027 0.77733-4.3477 0s-2.1726-2.2137-2.1705-3.7671c-0.00208-1.5535 0.82548-2.9898 2.1705-3.7671 1.345-0.77733 3.0027-0.77733 4.3477 0s2.1726 2.2137 2.1705 3.7671z" fill="#f1b517" fill-rule="evenodd" stroke="#000" stroke-linecap="round" stroke-width="1.0918"/>
          <path transform="matrix(.91593 0 0 .91593 -6.0123 33.491)" d="m685.32 361.22c0.00208 1.5535-0.82548 2.9898-2.1705 3.7671-1.345 0.77733-3.0027 0.77733-4.3477 0s-2.1726-2.2137-2.1705-3.7671c-0.00208-1.5535 0.82548-2.9898 2.1705-3.7671 1.345-0.77733 3.0027-0.77733 4.3477 0s2.1726 2.2137 2.1705 3.7671z" fill="#f1b517" fill-rule="evenodd" stroke="#000" stroke-linecap="round" stroke-width="1.0918"/>
          <path transform="matrix(.91593 0 0 .91593 -14.972 33.22)" d="m685.32 361.22c0.00208 1.5535-0.82548 2.9898-2.1705 3.7671-1.345 0.77733-3.0027 0.77733-4.3477 0s-2.1726-2.2137-2.1705-3.7671c-0.00208-1.5535 0.82548-2.9898 2.1705-3.7671 1.345-0.77733 3.0027-0.77733 4.3477 0s2.1726 2.2137 2.1705 3.7671z" fill="#f1b517" fill-rule="evenodd" stroke="#000" stroke-linecap="round" stroke-width="1.0918"/>
          <path transform="matrix(.91593 0 0 .91593 -10.628 26.16)" d="m685.32 361.22c0.00208 1.5535-0.82548 2.9898-2.1705 3.7671-1.345 0.77733-3.0027 0.77733-4.3477 0s-2.1726-2.2137-2.1705-3.7671c-0.00208-1.5535 0.82548-2.9898 2.1705-3.7671 1.345-0.77733 3.0027-0.77733 4.3477 0s2.1726 2.2137 2.1705 3.7671z" fill="#f1b517" fill-rule="evenodd" stroke="#000" stroke-linecap="round" stroke-width="1.0918"/>
          <path transform="matrix(.91593 0 0 .91593 -1.9395 26.567)" d="m685.32 361.22c0.00208 1.5535-0.82548 2.9898-2.1705 3.7671-1.345 0.77733-3.0027 0.77733-4.3477 0s-2.1726-2.2137-2.1705-3.7671c-0.00208-1.5535 0.82548-2.9898 2.1705-3.7671 1.345-0.77733 3.0027-0.77733 4.3477 0s2.1726 2.2137 2.1705 3.7671z" fill="#f1b517" fill-rule="evenodd" stroke="#000" stroke-linecap="round" stroke-width="1.0918"/>
          <path transform="matrix(.91593 0 0 .91593 6.3419 25.481)" d="m685.32 361.22c0.00208 1.5535-0.82548 2.9898-2.1705 3.7671-1.345 0.77733-3.0027 0.77733-4.3477 0s-2.1726-2.2137-2.1705-3.7671c-0.00208-1.5535 0.82548-2.9898 2.1705-3.7671 1.345-0.77733 3.0027-0.77733 4.3477 0s2.1726 2.2137 2.1705 3.7671z" fill="#f1b517" fill-rule="evenodd" stroke="#000" stroke-linecap="round" stroke-width="1.0918"/>
          <path transform="matrix(.91593 0 0 .91593 2.1333 18.558)" d="m685.32 361.22c0.00208 1.5535-0.82548 2.9898-2.1705 3.7671-1.345 0.77733-3.0027 0.77733-4.3477 0s-2.1726-2.2137-2.1705-3.7671c-0.00208-1.5535 0.82548-2.9898 2.1705-3.7671 1.345-0.77733 3.0027-0.77733 4.3477 0s2.1726 2.2137 2.1705 3.7671z" fill="#f1b517" fill-rule="evenodd" stroke="#000" stroke-linecap="round" stroke-width="1.0918"/>
          <path transform="matrix(.91593 0 0 .91593 -6.0123 18.422)" d="m685.32 361.22c0.00208 1.5535-0.82548 2.9898-2.1705 3.7671-1.345 0.77733-3.0027 0.77733-4.3477 0s-2.1726-2.2137-2.1705-3.7671c-0.00208-1.5535 0.82548-2.9898 2.1705-3.7671 1.345-0.77733 3.0027-0.77733 4.3477 0s2.1726 2.2137 2.1705 3.7671z" fill="#f1b517" fill-rule="evenodd" stroke="#000" stroke-linecap="round" stroke-width="1.0918"/>
        </g>
        <g id="Gunpowder" transform="translate(-520)">
          <path d="m689.93 334.73c-3.4229-1.4339-3.3898 6.5327-3.3898 6.5327l5.3932 0.05827c2.359 1.1101 4.2566 4.6974 2.7524 6.4582-1.2437 1.4558-11.71-2.4587-12.412-0.20724 1.8502 10.824 15.687 14.988 20.694 10.253 4.8969-4.6309 6.1369-16.99-9.7747-20.228l-3.2624-2.8672z" fill="#fff" fill-rule="evenodd" stroke="#000" stroke-width="1px"/>
          <path d="m693.13 337.67-1.5727 3.5616" fill="none" stroke="#000" stroke-width="1px"/>
        </g>
        <g id="Small-flag" transform="translate(-520)">
          <path d="m585.96 338.78-5.1805-22.572" fill="none" stroke="#000" stroke-width="1px"/>
          <path d="m592.25 337.48-7.9558-17.577" fill="none" stroke="#000" stroke-width="1px"/>
          <path d="m605.94 332.86-17.947-9.991" fill="none" stroke="#000" stroke-width="1px"/>
          <path d="m613.71 330.82-33.303-14.987" fill="none" stroke="#000" stroke-width="1px"/>
          <path d="m560.53 299.52s-12.121-0.19813-14.283 0.68014c-0.87225 0.35438 3.0488 4.5966 2.2347 6.2184-3.0283 6.0332-23.633 5.2065-25.262 3.8865-2.7868-2.2583 19.191-4.1958 19.335-5.7326 0.16557-1.7641-3.2502-6.3925-2.7206-9.2304 0.68716-3.6821 9.6191-5.0525 9.6191-5.0525l11.077 9.2304z" fill="#d20014" fill-rule="evenodd" stroke="#d20014" stroke-width="1px"/>
          <path d="m576.76 310.88-27.441-23.537s-1.2089-1.3279-2.2202-0.18502c-0.9903 1.1191 0.37004 2.4052 0.37004 2.4052l28.308 24.238 0.98299-2.921z" fill="#503200" fill-rule="evenodd" stroke="#000" stroke-width="1px"/>
          <path d="m603.19 334.11c-0.48581-0.48581-22.347-20.113-22.347-20.113l-1.4574-5.7326s-3.3764 2.3708-4.6152 3.595-3.1578 4.5666-3.1578 4.5666l6.1212 0.29149 19.335 18.364 6.1212-0.97163z" fill="#f1b517" fill-rule="evenodd" stroke="#000" stroke-width="1px"/>
        </g>
        <path id="Trumpet" d="m204.83 307.1 0.10138 9.1248c-2.8812 1.0224-2.4417 3.2611-2.3488 6.5141l0.10138 26.597c-1.0224 1.7659-4.1825 1.8482-5.6696 3.2316s-1.3012 4.0681 5.4837 5.834l5.2468 0.19432c7.9931-1.8124 9.6429-4.5562 5.6347-6.1034-2.1321-0.82301-4.9376-1.8048-6.0065-3.106l0.17745-6.3367 5.1876 0.19433c1.3942 0 4.0471-3.6329 4.14-6.6071l0.02532-13.772c-0.18589-7.8072-5.8381-8.6854-7.4181-8.5925l0.10982-7.19-4.7652 0.01688zm8.7696 15.219c0.09294-2.2306-2.9881-4.2196-4.2289-4.2754-1.2408-0.05576-3.9501 2.6024-4.043 4.8331v5.5766c0.18589 2.0448 1.7616 8.9709 4.926 9.4802 1.499 0.24127 3.4389-2.2306 3.4389-4.2754l-0.09294-11.339z" fill="#f1b517" fill-rule="evenodd" stroke="#000" stroke-width="1px"/>
        <g id="Palm-leaves" transform="translate(-520)">
          <path d="m773.52 53.597c-41.755-43.321-74.638-22.183-82.467-16.18 5.1753 1.0476 9.8205-2.2937 12.224-2.6784-1.5066 1.9711-4.6563 6.8539-4.6563 6.8539s12.911-6.3183 14.353-5.7414c-1.861 1.5386-3.9146 5.2194-3.9146 5.2194 0.9616 0.38464 8.2224-5.8932 9.6559-6.0023-2.2117 2.5963-2.8982 8.5159-2.8982 8.5159l6.2908-3.0355c1.6347 1.202-0.45441 3.5132 0.96697 3.3923 10.456-0.88963 25.158 9.9076 27.177 13.225" fill="#016a16" fill-rule="evenodd" stroke="#000" stroke-width="1px"/>
          <path d="m763.18 61.529c-4.3517-10.335-83.834-27.902-99.817 1.3599 6.2556 1.6319 12.239-5.4396 12.239-5.4396l-0.54397 6.5276 10.607-8.4314-3.8077 8.7034 8.4314-7.0715-0.27198 7.0715 10.335-11.695-1.3599 6.7995 9.2474-4.0797-1.0879 5.7116" fill="#016a16" fill-rule="evenodd" stroke="#000" stroke-width="1px"/>
          <path d="m759.64 63.161c-20.399-14.143-51.948-4.6237-51.948-4.6237-20.127 11.695-30.855 9.5853-33.454 31.278 1.9039-0.81594 7.3435-7.6155 7.3435-7.6155l4.0797 8.4314 1.3599-11.967 3.2638 9.2474 4.8957-15.231 1.0879 10.335 7.6155-10.335 3.5358 2.9918 3.2638-7.8875 2.9918 5.1676s5.1676-3.2638 8.1594-1.3599l5.7116-6.7995 1.3599 4.8957 4.8957-5.9836 1.9039 4.3517 4.8957-4.6237-0.27198 3.2638 16.863 0.27198" fill="#016a16" fill-rule="evenodd" stroke="#000" stroke-width="1px"/>
          <path d="m755.03 65.612c-14.216-0.27515-55 15.673-65.547 32.366 4.2-2.4315 6.79-3.5389 6.79-3.5389l2.081 6.7078 2.5427-6.7078 0.54396 5.1676c1.5592-4.0355 3.3206-4.4909 6.2556-0.27198l1.0879-6.2556 1.6319 5.9836 2.7198-6.5276s1.7109 7.0747 2.7198 6.7995c0 0 4.5098-12.233 6.5276-12.783l0.54396 7.6155 2.7198-7.6155 2.4478 5.7116 0.54397-8.1594 2.7198 6.2556s1.4263-6.1512 3.5358-7.3435l4.0797 3.8077 18.164-13.528" fill="#016a16" fill-rule="evenodd" stroke="#000" stroke-width="1px"/>
          <path d="m757.76 69.093c-18.937 7.523-35.874 34.444-34.577 45.858 8.4148-10.824 6.6025-9.3335 10.364 3.1184 0 0 1.423-10.895 2.8497-12.192l2.4698 8.0645 0.91716-10.547 2.5263 0.12097-0.64854-6.615 3.7615 2.9833c-0.87853-3.7824-1.8159-5.0586 2.0753-8.3012 0 0-4.9288 0.64853-1.0376-8.5606l3.6318 3.6318s-0.64854-4.0209 0.64853-5.5774l13.36-4.7991" fill="#016a16" fill-rule="evenodd" stroke="#000" stroke-width="1px"/>
          <path d="m759.6 71.111-7.1539 14.124 3.6687 1.1006-8.2545 6.4201 6.9704-0.73373s-10.639 4.0355-11.923 14.858l10.823-4.9527s-9.1716 9.7219-10.456 15.592l6.2367-5.6864s-6.0533 6.787-5.1361 17.059l4.5858-5.3196c-1.1006 12.473-0.73373 13.574 4.7692 23.113 0 0-1.4675-14.675 0.18344-16.509l12.107 13.024-6.787-18.527s7.5207 11.74 12.107 10.639l-9.5385-15.041 9.3551 7.8876-10.639-16.509 9.9054 3.1184s-7.1539-9.3551-6.6036-15.225l6.787 7.7042s-2.5681-8.8048-1.8343-11.373l3.4852 0.73373-6.787-8.071 4.5858-0.91716-0.55029-5.3196 3.3018-1.1006-0.18344-5.8698" fill="#016a16" fill-rule="evenodd" stroke="#000" stroke-width="1px"/>
          <path d="m766.75 75.33c-11.74 16.509-5.6864 42.006-12.657 55.03" fill="none" stroke="#000" stroke-width="1px"/>
        </g>
        <g id="Chain">
          <path d="m181.73 366.29c0-1.7643-4.1336-1.0055-4.1336-3.0701 0-2.2941 6.3041-0.60776 7.1751 1.4106 3.5477-3.3229 5.0771-0.89401 7.2504 0.10986 3.095-4.7685 6.9217-4.5903 10.656-1.0986 2.1591-2.4688 7.5814-1.6527 9.4475 1.0986 3.5747-3.6742 6.7492-2.769 9.2278-0.10986 0.99703-1.9317 2.4603-1.5091 3.5154-0.10985 1.9046-3.5024 6.6802-2.451 8.6902-0.13905 1.7872-2.0362 3.6179-0.44597 5.99 1.0582 1.6018-1.5537 4.1856-1.2608 4.1856 0.28395 0 1.6105-3.3763 1.0435-3.3763 2.6418 0 1.4259 2.463 0.70497 2.463 2.5086 0 1.4198-3.6557 1.9521-4.2207-0.31149-1.2381 2.4512-5.7109 1.51-6.1519-0.76898-1.4881 1.8621-4.8244 2.4287-6.7012-0.32957-1.5412 1.2997-3.3856 1.4858-4.2323 0.17354-2.781 3.0992-7.4687 2.4623-9.0835-0.95421l-1.5783 0.06953c-2.7318 3.8449-7.0013 2.0686-8.1754-0.05785-4.586 3.4295-7.3257 2.3494-9.887 0.10986-2.9426 3.7163-7.4262 3.457-8.4588 0-1.9802 1.4956-6.1116 1.8477-6.1116 0.09817 0-1.6762 3.5095-1.0668 3.5095-2.6132zm8.8986 0.83487c0 0.7983-1.0483 1.4462-2.34 1.4462s-2.34-0.64789-2.34-1.4462c0-0.79829 1.0483-1.4462 2.34-1.4462s2.34 0.64789 2.34 1.4462zm9.7901-1.2148c0 0.96091-1.2618 1.7408-2.8166 1.7408s-2.8166-0.77986-2.8166-1.7408c0-0.96089 1.2618-1.7408 2.8166-1.7408s2.8166 0.77986 2.8166 1.7408zm19.227 1.0991c0 0.97274-1.1419 1.7622-2.5488 1.7622s-2.5488-0.78947-2.5488-1.7622 1.1419-1.7622 2.5488-1.7622c1.407 0 2.5488 0.78946 2.5488 1.7622zm-10.237-0.46277c0 1.2293-1.1168 2.227-2.4929 2.227s-2.4929-0.99767-2.4929-2.227c0-1.2293 1.1168-2.2269 2.4929-2.2269s2.4929 0.99767 2.4929 2.2269zm21.833 0.05784c0 1.0989-0.99837 1.9908-2.2285 1.9908-1.2302 0-2.2285-0.89185-2.2285-1.9908 0-1.0989 0.99837-1.9907 2.2285-1.9907 1.2301 0 2.2285 0.89185 2.2285 1.9907zm-6.6888 0.46277c0 0.71016-0.6452 1.2865-1.4402 1.2865-0.79498 0-1.4402-0.57635-1.4402-1.2865s0.64519-1.2865 1.4402-1.2865c0.79497 0 1.4402 0.57636 1.4402 1.2865zm13.025 0.52065c0 1.0202-0.72719 1.8482-1.6232 1.8482s-1.6232-0.82799-1.6232-1.8482 0.72718-1.8482 1.6232-1.8482 1.6232 0.82799 1.6232 1.8482z" fill="#f1b517" fill-rule="evenodd" stroke="#000" stroke-width="1px"/>
        </g>
      </g>
      <use transform="matrix(-1 0 0 1 508.24 0)" width="509" height="420" xlink:href="#g3357"/>
    </g>
    <g id="Palm-trunk" stroke="#000" stroke-width="1px">
      <path d="m259.58 302.43s6.3928-55.438 6.3774-79.301c-0.01215-18.779-4.3774-60.4-4.3774-60.4h-18.377s-2.7967 41.414-2.3774 60.144c0.53437 23.869 6.3774 79.557 6.3774 79.557h12.377z" fill="#f1b517" fill-rule="evenodd"/>
      <path d="m241.99 165.4h21.296l-2.5001-14.861h-15.436l-3.3594 14.861z" fill="#f1b517" fill-rule="evenodd"/>
      <path d="m243.35 153.48h19.031l-3.5872-14.861h-11.722l-3.7218 14.861z" fill="#f1b517" fill-rule="evenodd"/>
      <path d="m244.58 141.43h15.86l-2.6813-14.861h-10.091l-3.0876 14.861z" fill="#f1b517" fill-rule="evenodd"/>
      <path d="m258.31 124.81h-11.094l-1.125 5.375h13.125l-0.90625-5.375z" fill="#f1b517" fill-rule="evenodd"/>
      <path d="m260.59 290.35h-14.093" fill="none"/>
      <path d="m261.36 279.49h-15.814" fill="none"/>
      <path d="m263.45 268.48h-20.044" fill="none"/>
      <path d="m264.48 256.48h-20.978" fill="none"/>
      <path d="m264.63 244.47h-22.06" fill="none"/>
      <path d="m265.49 233.51h-23.929" fill="none"/>
      <path d="m265.54 223.52h-25.011" fill="none"/>
      <path d="m265.39 211.47h-25.011" fill="none"/>
      <path d="m264.56 199.57h-24.175" fill="none"/>
      <path d="m263.45 187.47h-21.863" fill="none"/>
      <path d="m262.39 176.56h-19.748" fill="none"/>
    </g>
    <g id="Drum" transform="translate(-520)">
      <path d="m773.62 297.88c-13.508 0-24.469 5.2625-24.469 11.719 0 1.1072 0.3039 2.1722 0.90625 3.1875 2.9212 3.5069 12.406 6.0625 23.656 6.0625 10.524 1e-5 19.492-2.2452 23-5.4062 0.88413-1.2083 1.375-2.4918 1.375-3.8438 0-6.4563-10.961-11.719-24.469-11.719z" fill="#0a328c" fill-rule="evenodd" stroke="#0a328c" stroke-linecap="round" stroke-width="1.2646"/>
      <path d="m798.31 310.49v39.346c0 4.6134-11.017 8.3576-24.591 8.3576s-24.591-3.7442-24.591-8.3576v-39.346c0 4.6134 11.017 8.3576 24.591 8.3576s24.591-3.7442 24.591-8.3576z" fill="#f1b517" fill-rule="evenodd" stroke="#000" stroke-linecap="round" stroke-width="1.0233"/>
      <path d="m749.12 310.5v6.0312l11.938 38.156 9.5312-29.344 10.469 30.469 7.6601-28.759 9.5899 19.333v-10.7l-8.9062-18.75c-0.99905 0.28203-2.0644 0.52383-3.1875 0.75l-5.5312 21.25-7.7812-20.094c-1.3031-0.0146-2.5994-0.04399-3.8438-0.125l-7.8125 20.219-8.9375-24.344c-2.0199-1.2133-3.1875-2.6012-3.1875-4.0938z" fill="#d20014" fill-rule="evenodd" stroke="#d20014" stroke-width="1px"/>
      <g fill-rule="evenodd" stroke-linecap="round" stroke-width="1.0233">
        <path d="m798.31 342.49v7.3464c0 4.6134-11.017 8.3576-24.591 8.3576s-24.591-3.7442-24.591-8.3576v-7.3464c0 4.6134 11.017 8.3576 24.591 8.3576s24.591-3.7442 24.591-8.3576z" fill="#0a328c" stroke="#0a328c"/>
        <path transform="translate(520)" d="m263.84 350.09c-1.9994 0.30827-4.1336 0.53925-6.375 0.65625l0.0625 7.3438c2.242-0.11901 4.3764-0.34583 6.375-0.65625l-0.0625-7.3438z" fill="#f1b517" stroke="#000"/>
        <path transform="translate(520)" d="m237.66 348.81-0.0625 7.3125c1.8978 0.56268 4.0323 1.03 6.375 1.375v-7.3438c-2.3151-0.34092-4.4311-0.78996-6.3125-1.3438z" fill="#f1b517" stroke="#000"/>
        <path transform="translate(520)" d="m229.12 342.5v7.3438c0 1.37 0.99709 2.6398 2.7188 3.7812l0.125-7.25c-1.8068-1.1631-2.8438-2.4691-2.8438-3.875z" fill="#f1b517" stroke="#000"/>
        <path transform="translate(520)" d="m278.31 343.28-0.125 0.03125c-0.43072 1.4911-2.0369 2.874-4.4688 4.0312l0.03125 7.3125c2.8523-1.3647 4.5625-3.0123 4.5625-4.8125v-6.5625z" fill="#f1b517" stroke="#000"/>
      </g>
      <path d="m798.31 310.75v39.089c0 4.6134-11.017 8.3576-24.591 8.3576s-24.591-3.7442-24.591-8.3576v-39.089" fill="none" stroke="#000" stroke-linecap="round" stroke-width="1.0233"/>
      <path transform="matrix(.84322 0 0 .53028 124.86 144.83)" d="m792.06 307.56c0 5.268-10.101 9.5385-22.562 9.5385s-22.562-4.2705-22.562-9.5385 10.101-9.5385 22.562-9.5385 22.562 4.2705 22.562 9.5385z" fill="#fff" fill-rule="evenodd" stroke="#fff" stroke-linecap="round" stroke-width="1.5692"/>
      <path transform="translate(520)" d="m247.5 311.66 0.84375 6.9688c1.6512 0.1246 3.367 0.21279 5.125 0.21875l1.25-7.1875h-7.2188z" fill="#f1b517" fill-rule="evenodd" stroke="#000" stroke-linecap="round" stroke-width="1.2646"/>
      <path transform="translate(520)" d="m269.56 309.97-4.9062 1.375 0.3125 6.5625c1.6684-0.29291 3.2381-0.65265 4.6562-1.0625l-0.0625-6.875z" fill="#f1b517" fill-rule="evenodd" stroke="#000" stroke-linecap="round" stroke-width="1.2646"/>
      <path transform="translate(520)" d="m240.5 299.33c-1.3918 0.42568-2.6935 0.92121-3.875 1.4688l0.6875 5.2634 3.125-1.0312 0.0625-5.7009z" fill="#f1b517" fill-rule="evenodd" stroke="#000" stroke-linecap="round" stroke-width="1.2646"/>
      <path transform="translate(520)" d="m253.62 297.25c-0.6544 0-1.296 0.03826-1.9375 0.0625l1.0625 6.592 3.25-0.0625 1.2812-6.4357c-1.195-0.0862-2.4114-0.15625-3.6562-0.15625z" fill="#f1b517" fill-rule="evenodd" stroke="#000" stroke-linecap="round" stroke-width="1.2646"/>
      <path transform="translate(520)" d="m268 299.58-0.65625 5.7625 3.7188 1.3625 0.40625-5.6562c-1.0561-0.5399-2.2178-1.032-3.4688-1.4688z" fill="#f1b517" fill-rule="evenodd" stroke="#000" stroke-linecap="round" stroke-width="1.2646"/>
      <path transform="translate(520)" d="m232.95 315.06 0.99074-7.1781-5.0284-2.8226 0.14954 8.1688 3.8881 1.8319z" fill="#f1b517" fill-rule="evenodd" stroke="#000" stroke-width="1px"/>
      <path transform="translate(520)" d="m278.14 313.51 0.22432-7.1778-4.7105 1.458 4.4862 5.7198z" fill="#f1b517" fill-rule="evenodd" stroke="#000" stroke-width="1px"/>
    </g>
    <g id="Mortar">
      <use transform="matrix(1 0 0 -1 -.012162 534.06)" width="509" height="420" fill="#016a16" xlink:href="#use3602"/>
      <path transform="matrix(1.0746 0 0 2.8825 -10.215 -500.3)" d="m188.08 269.24c0 2.5117-4.077 4.5502-9.1004 4.5502s-9.1004-2.0385-9.1004-4.5502v-2.4687h18.201v2.4687z" fill="#016a16" fill-rule="evenodd" stroke="#fff" stroke-linecap="round" stroke-width=".56354"/>
      <path transform="matrix(1.5829 0 0 1.3195 -105.76 -86.313)" d="m187.99 267.26c0.00312 2.0955-2.7447 3.7953-6.1353 3.7953s-6.1385-1.6998-6.1353-3.7953c-0.00312-2.0955 2.7447-3.7953 6.1353-3.7953s6.1385 1.6998 6.1353 3.7953z" fill="#fff" fill-rule="evenodd"/>
      <path d="m179.89 271.99-1.6684-18.381h7.432l-1.2134 18.381h-4.5502z" fill="#016a16" fill-rule="evenodd" stroke="#f1b517" stroke-width="1px"/>
      <path id="use3602" d="m192.86 266.66c-1.4251 2.7493-5.7042 4.75-10.75 4.75-5.0458-1e-5 -9.2936-2.0007-10.719-4.75-0.32888 0.63446-0.53125 1.3008-0.53125 2 0 3.729 5.0398 6.75 11.25 6.75s11.25-3.021 11.25-6.75c0-0.69918-0.17112-1.3655-0.5-2z" fill="#016a16" fill-rule="evenodd" stroke="#fff" stroke-linecap="round" stroke-width="1.2995"/>
      <g transform="translate(-520)" fill="#f1b517" fill-rule="evenodd" stroke="#000" stroke-width="1px">
        <path d="m694.53 304.69 19.656 2.0625 3.0625-18.094-23.062-2.4375"/>
        <path d="m699.66 285.48-2.9414 21.374 5.8828-0.1961 2.3531-21.178h-5.2945z"/>
      </g>
    </g>
    <g id="Helmet" stroke-width="1px">
      <path d="m328.11 266.16c4.4684-0.63834 11.092 5.711 11.49 13.565 0.31573 6.232-9.0964 5.9047-9.0964 5.9047-0.47875 2.5534-5.6691 4.916-9.8943 5.1067-4.099 0.185 1.1171-7.9793 1.1171-7.9793-2.5534-7.0218 0.79793-15.32 0.79793-15.32l5.5855-1.2767z" fill="#f1b517" fill-rule="evenodd" stroke="#000"/>
      <path d="m321.72 282.44 4.3088-0.15958s0.32982 2.3031 1.1171 2.3938c0.8468 0.09753 1.7554-2.2342 1.7554-2.2342l6.543-0.15958" fill="none" stroke="#000"/>
      <path d="m330.5 270.79c3.6558-2.7396 0.4515-8.252-2.0746-8.2984l-5.9046 0.15958c-2.7828 0.05955-7.4873 3.1924-6.8622 5.9047 0.54507 2.3651 2.0765 3.4436 4.4684 3.0321 1.0862-0.18686 3.3674-3.1405 4.4684-3.1917 1.4771-0.0687 4.7213 3.2806 5.9046 2.3938z" fill="#d20014" fill-rule="evenodd" stroke="#f1b517"/>
    </g>
    <g id="Hat-on-pole" fill-rule="evenodd" stroke-width="1px">
      <path d="m254.01 37.685c-3.7016-1.8057-12.076-7.3172-9.5917-10.607 0 0 3.8367-6.7706 3.8367-6.7706 5.4353-12.691-0.09883-7.7743-0.67706-11.736-0.55526-3.804 20.784-0.8334 21.102 7.7862 0.08753 2.3744-1.5828 0.98091-1.3541 14.557l-4.0624 8.1248c-3.0384 0.2935-6.6364-0.077633-9.2532-1.3541z" fill="#0a328c" stroke="#0a328c"/>
      <path d="m256.61 70.523-5.3036-4.6266 1.467-39.608 5.1908 1.5798-1.3541 42.655z" fill="#f1b517" stroke="#000"/>
      <path d="m263.49 38.814c3.3299-2.02 5.5096-8.0442 3.4982-11.623-5.4646-7.177-9.0015-4.2155-18.168-7.4477-1.828 2.0182-5.6773 5.9017-4.8523 8.8018 12.059 5.8847 7.3768 0.8726 11.367 1.6057 2.1509 0.39519 3.5408 3.0386 8.1552 8.6631z" fill="#d20014" stroke="#d20014"/>
    </g>
    <path id="Anchor-left" d="m62.188 348.81c-3.3168 0.43507-3.9313 4.3954-2.6875 8.0312-14.448 4.2099-27.355 9.6968-40.094 13.406-0.51273-2.6396 6.3125-10.281 6.3125-10.281 1.8055 0.90275 3.1562 5.1875 3.1562 5.1875 0.45138-8.8018 8.8125-14.656 8.8125-14.656-4.9651-0.67706-20.069 5.3924-21.875 7.875 0 0 5.8472-0.67705 6.75 0 0 0-11.514 12.887-12.031 16.719 1.7911 4.1873 21.656 7.3125 21.656 7.3125-0.31351 1.084-5.8438 5.1875-5.8438 5.1875 7.9011 1.7988 19.817-4.0024 23.375-7.5312 0 0-9.2939-0.79426-16.531-6.875 0 0 1.4924 3.7862 0.59375 5.5938 0 0-11.291-3.3742-12.469-5.3125 0.029967-0.16782 26.708-7.329 39.625-11.156 0.4784 2.392 3.0431 6.9113 6.125 5.8438 2.0103-0.69636 1.3734-4.826 0.625-7.75 0.72695 0.64699 1.6698 1.0312 2.7188 1.0312 2.2711 0 4.125-1.8227 4.125-4.0938s-1.8539-4.125-4.125-4.125c-1.8162 0-3.3299 1.1788-3.875 2.8125-0.5143-2.5239-1.8561-7.545-4.3438-7.2188zm10.158 8.5169c0 1.0624-0.8622 1.9246-1.9246 1.9246s-1.9246-0.86221-1.9246-1.9246 0.8622-1.9246 1.9246-1.9246 1.9246 0.8622 1.9246 1.9246z" fill="#f1b517" fill-rule="evenodd" stroke="#000" stroke-width="1px"/>
    <g id="Anchor-right" fill="#f1b517" fill-rule="evenodd" stroke="#000" stroke-width="1px">
      <path d="m486.13 365.7c0.98397-2.0436-0.87029-12.33-0.87029-12.33-2.0054 0.23078-4.7445 3.7971-4.7445 3.7971 2.5862-8.4254-4.6526-22.508-4.6526-22.508 4.8973 1.0619 21.219 17.439 22.067 20.389 0 0-7.1477-2.6432-8.2276-2.3157 1.1658 8.3938 6.7659 12.294 8.8695 16.658 0 0-9.2811 2.1126-8.3485 10.157l-6.0622 0.11658c-2.0984-2.6813 0.81606-7.1114 0.81606-7.1114l-41.619-18.07c-2.6813-1.1658-8.7148-4.0034-7.8109-7.3446 0.91137-3.3688 10.842 1.399 13.29 2.215l37.293 16.346z"/>
      <path d="m446.15 358.21 4.8964-9.3264c1.7487-2.4482-1.8653-5.1295-4.43-1.9819l-5.4793 8.5104c-2.4482 4.6632 2.6814 5.9456 5.013 2.7979z"/>
    </g>
    <g id="Banner">
      <g fill="#fff" fill-rule="evenodd" stroke="#000" stroke-width="1px">
        <path d="m154.29 379.53-0.33909-10.173-11.868 0.67819-0.67819 11.077 12.886-1.5824z"/>
        <path d="m67.54 393.8-15.87-9.2267c65.445 6.2167 78.81-17.444 94.625-18.709 9.7213-0.78701 11.239 11.16-7.598 5.4766l4.8715 12.495s-46.459 27.09-92.124 15.9l16.096-5.9351z"/>
        <g transform="matrix(-1 0 0 1 508.23 0)">
          <path d="m155.59 379.53-0.33909-10.173-14.517 0.34712-0.67819 11.077 15.534-1.2514z"/>
          <path d="m65.823 391.3-14.934-8.4464c74.965 2.3151 57.897-12.762 95.405-16.993 9.6922-1.0887 16.978 11.822-7.598 5.4766l4.8715 12.495-11.79 0.01213c-25.536 17.43-59.999 18.986-82.831 13.391l16.876-5.9351z"/>
        </g>
        <path d="m138.43 371.41 1e-5 17.584s41.563 15.985 115.73 15.985c74.488 0 115.73-15.985 115.73-15.985v-17.584s-31.457 15.026-115.73 15.026c-83.955 0-115.73-15.026-115.73-15.026z"/>
      </g>
      <path d="m144.64 389.09 3.6676-12.874 1.7036 0.48533-3.2348 11.354 6.3402 1.8063-0.4328 1.5192-8.0438-2.2916zm12.028-5.661 0.20468-2.5286 0.54717-2.1691 1.815 0.45784-0.54717 2.1691-1.0369 2.3187-0.98274-0.2479zm17.884-0.86913 1.7358 0.35336-1.5428 7.5784c-0.26837 1.3182-0.6306 2.3347-1.0867 3.0494-0.45611 0.71472-1.1228 1.2359-2.0002 1.5636-0.87739 0.32767-1.9484 0.3628-3.2129 0.10537-1.2288-0.25015-2.1908-0.66651-2.8859-1.2491-0.69519-0.58258-1.1281-1.309-1.2988-2.1793-0.17072-0.87028-0.11461-2.0003 0.16832-3.3902l1.5428-7.5784 1.7358 0.35335-1.5409 7.5695c-0.23193 1.1393-0.29697 2.0004-0.1951 2.5833 0.10185 0.58293 0.38102 1.073 0.83748 1.4704 0.45646 0.39732 1.0575 0.67187 1.8031 0.82366 1.2765 0.25986 2.245 0.15574 2.9056-0.31236 0.66058-0.46809 1.1584-1.5253 1.4936-3.1716l1.5409-7.5694zm1.9537 13.993 2.1608-13.21 1.7932 0.29332 5.242 11.507 1.6965-10.372 1.6761 0.27416-2.1608 13.21-1.7932-0.29332-5.2405-11.516-1.698 10.381-1.6761-0.27416zm13.667 2.1388 1.8379-13.259 1.7546 0.24321-1.8379 13.259-1.7546-0.24321zm5.0415-5.8481c0.25223-2.2075 1.0424-3.8679 2.3705-4.9814 1.3281-1.1134 2.9295-1.563 4.8044-1.3488 1.2277 0.1403 2.301 0.56008 3.2198 1.2594 0.91876 0.6993 1.5767 1.6031 1.974 2.7115 0.39718 1.1084 0.51976 2.3279 0.36775 3.6584-0.15412 1.3487-0.56414 2.5241-1.2301 3.5264-0.66594 1.0022-1.5291 1.72-2.5896 2.1533-1.0604 0.43331-2.1682 0.58397-3.3234 0.45198-1.2519-0.14304-2.3362-0.57328-3.2529-1.2907s-1.5693-1.6283-1.9578-2.7326-0.51602-2.2401-0.38265-3.4074zm1.8113 0.23453c-0.18313 1.6027 0.10352 2.9144 0.85997 3.9352 0.75643 1.0208 1.7848 1.6054 3.0851 1.754 1.3245 0.15134 2.4678-0.18978 3.43-1.0234 0.96218-0.83359 1.5411-2.1062 1.7366-3.8177 0.12368-1.0826 0.04871-2.0484-0.22492-2.8977-0.27365-0.8492-0.73737-1.5363-1.3911-2.0613-0.6538-0.52502-1.4192-0.83763-2.2961-0.93785-1.2459-0.14234-2.3668 0.16306-3.3626 0.91621-0.9959 0.75316-1.6082 2.1307-1.8369 4.1325zm12.415 7.8947 1.0907-13.341 1.811 0.14805 6.151 11.048 0.85635-10.475 1.6927 0.13838-1.0907 13.341-1.811-0.14806-6.1503-11.057-0.85709 10.484-1.6927-0.13838zm18.766 1.3526 0.58449-13.373 9.0218 0.39432-0.06897 1.5781-7.2521-0.31697-0.18101 4.1415 6.276 0.27431-0.06898 1.5781-6.276-0.27431-0.26553 6.0754-1.7697-0.07735zm9.8611 0.43667 5.3988-13.284 1.908 0.03693 5.2184 13.489-2.0175-0.03905-1.4826-4.0836-5.5962-0.10833-1.5483 4.0249-1.8806-0.0364zm3.968-5.421 4.5372 0.08783-1.325-3.7335c-0.40424-1.1342-0.70281-2.0654-0.89572-2.7936-0.18702 0.85485-0.44392 1.7022-0.77068 2.5422l-1.5458 3.8971zm10.292 5.6343 0.02576-13.386 1.7714 0.00341-0.02576 13.386-1.7714-0.0034zm8.2933-0.03694-0.16834-11.805-4.4098 0.06288-0.02252-1.5795 10.609-0.15128 0.02252 1.5795-4.428 0.06314 0.16833 11.805-1.7712 0.02525zm13.135-0.32152-0.62598-13.371 1.7694-0.08284 0.55211 11.793 6.5853-0.3083 0.07387 1.5779-8.3547 0.39113zm9.007-0.40678 4.1764-13.717 1.9035-0.13561 6.4159 12.963-2.0128 0.1434-1.8455-3.9329-5.5831 0.39775-1.1783 4.1483-1.8762 0.13366zm3.462-5.7574 4.5266-0.32248-1.6569-3.5985c-0.50506-1.093-0.88654-1.9934-1.1445-2.7013-0.10902 0.86825-0.2883 1.7354-0.53783 2.6014l-1.1874 4.0208zm15.714 4.2262-1.468-13.305 8.976-0.99036 0.17324 1.5701-7.2152 0.79609 0.45462 4.1204 6.2441-0.68895 0.17324 1.5701-6.2441 0.68895 0.66692 6.0445-1.7607 0.19427zm9.8156-7.6386c-0.31392-2.1995 0.03089-4.0058 1.0344-5.4188 1.0035-1.413 2.4394-2.2528 4.3075-2.5194 1.2233-0.17457 2.3678-0.03969 3.4335 0.40465 1.0657 0.44436 1.9308 1.1525 2.5952 2.1245 0.66444 0.97201 1.0913 2.1209 1.2805 3.4466 0.19178 1.3438 0.09218 2.5848-0.2988 3.7228-0.391 1.138-1.0447 2.0507-1.9612 2.7379-0.9165 0.68728-1.9502 1.113-3.1012 1.2773-1.2474 0.17803-2.4053 0.03583-3.4735-0.4266s-1.9299-1.1788-2.5849-2.1491c-0.65499-0.97028-1.0655-2.037-1.2315-3.2zm1.8117-0.23089c0.22792 1.5969 0.83681 2.7936 1.8267 3.59 0.98989 0.79644 2.1326 1.1022 3.4283 0.91729 1.3197-0.18835 2.3397-0.80738 3.06-1.8571 0.72025-1.0497 0.95868-2.4273 0.7153-4.1327-0.15396-1.0787-0.47064-1.9942-0.95003-2.7467-0.4794-0.75245-1.1017-1.3-1.867-1.6428-0.76527-0.34271-1.5848-0.45172-2.4586-0.32703-1.2414 0.17718-2.2487 0.75598-3.0219 1.7364-0.77319 0.98043-1.0174 2.468-0.73278 4.4626zm14.057 4.4932-2.3906-13.171 5.8396-1.06c1.1739-0.21307 2.0878-0.25676 2.7417-0.13108 0.65385 0.1257 1.2178 0.45486 1.6919 0.98747 0.47405 0.53263 0.77686 1.1613 0.90841 1.886 0.16959 0.93435 0.01008 1.7769-0.47851 2.5275-0.48861 0.75067-1.349 1.3275-2.5812 1.7306 0.5014 0.1379 0.89146 0.29291 1.1702 0.46504 0.59388 0.37477 1.182 0.87122 1.7644 1.4894l2.9416 3.1688-2.1921 0.39789-2.2403-2.4238c-0.6526-0.69819-1.1817-1.227-1.5872-1.5865-0.40552-0.35946-0.75377-0.5994-1.0447-0.71982-0.29098-0.1204-0.57721-0.18909-0.85869-0.20606-0.20526-0.00604-0.53249 0.0317-0.98169 0.11323l-2.0214 0.36691 1.0616 5.8486-1.7429 0.31636zm0.40736-7.6743 3.7464-0.68001c0.79658-0.14458 1.4045-0.33999 1.8238-0.58625 0.4193-0.24623 0.71286-0.57173 0.88068-0.9765 0.16781-0.40474 0.21312-0.81974 0.13594-1.245-0.11307-0.62288-0.43212-1.0939-0.95715-1.4132-0.52504-0.3192-1.2757-0.3902-2.252-0.21301l-4.1686 0.75665 0.7909 4.3573zm21.142-1.4588 1.8264 0.04746c-0.04275 1.5009-0.45086 2.7299-1.2243 3.6871-0.7735 0.9572-1.8402 1.5889-3.2002 1.895-1.4075 0.31685-2.6166 0.28799-3.6275-0.08656-1.0109-0.37454-1.8688-1.0534-2.5737-2.0366-0.7049-0.98315-1.1977-2.0983-1.4785-3.3454-0.30615-1.3599-0.31338-2.6047-0.02169-3.7342s0.85792-2.065 1.6987-2.8065c0.84077-0.74146 1.8372-1.2419 2.9893-1.5012 1.3065-0.2941 2.48-0.20886 3.5205 0.25572 1.0405 0.4646 1.8717 1.2602 2.4934 2.3869l-1.6112 0.78388c-0.51678-0.88199-1.112-1.4749-1.7856-1.7788-0.67365-0.30383-1.447-0.35749-2.3199-0.16098-1.0036 0.22595-1.7883 0.6553-2.3541 1.288-0.56574 0.63278-0.89396 1.3852-0.98465 2.2573-0.09069 0.87212-0.03911 1.7387 0.15474 2.5998 0.24999 1.1105 0.63007 2.0436 1.1402 2.7992 0.51015 0.75558 1.1528 1.2614 1.928 1.5174 0.77518 0.25603 1.5607 0.29447 2.3564 0.11532 0.96799-0.21791 1.7247-0.68151 2.2701-1.3908 0.54539-0.70929 0.81319-1.64 0.80342-2.7921zm4.9204 3.6396-3.5995-12.893 9.3222-2.6026 0.42477 1.5214-7.6161 2.1263 1.1024 3.9488 7.1324-1.9913 0.42232 1.5127-7.1324 1.9913 1.2252 4.3885 7.9151-2.2098 0.42477 1.5214-9.6212 2.6861z"/>
      <path d="m138.43 386.99s41.563 15.985 115.73 15.985c74.488 0 115.73-15.985 115.73-15.985" fill="none"/>
    </g>
  </g>
</svg>
