<?xml version="1.0" encoding="UTF-8"?>
<svg width="600" height="300" version="1.0" xmlns="http://www.w3.org/2000/svg" xmlns:xlink="http://www.w3.org/1999/xlink">
  <rect x="2.2709e-5" y="-.00012091" width="600" height="300" fill="#fff" fill-rule="evenodd"/>
  <path id="path570" d="m600 260.88c-6.7231 4.0445-12.499 13.497-30.36 13.497-35.711 0-44.642-19.901-71.428-19.901-17.856 0-26.784 19.901-44.641 19.901-35.714 0-44.643-19.901-71.428-19.901-17.857 0-26.786 19.901-44.643 19.901-35.714 0-44.643-19.901-71.428-19.901-17.857 0-26.786 19.901-44.643 19.901-35.714 0-44.643-19.901-71.428-19.901-17.858 0-26.786 19.901-44.643 19.901-35.714 0-44.644-19.901-71.429-19.901-17.857 0-23.214 14.181-33.929 14.181v25.621c10.714 0 16.071-14.181 33.929-14.181 26.785 0 35.715 19.901 71.429 19.901 17.857 0 26.785-19.901 44.643-19.901 26.785 0 35.714 19.901 71.428 19.901 17.857 0 26.786-19.901 44.643-19.901 26.786 0 35.714 19.901 71.428 19.901 17.857 0 26.786-19.901 44.643-19.901 26.786 0 35.714 19.901 71.428 19.901 17.857 0 26.786-19.901 44.641-19.901 26.786 0 35.717 19.901 71.428 19.901 17.86 0 23.637-5.6396 30.36-9.6842v-29.434z" fill="#002b7f" fill-rule="evenodd"/>
  <use transform="translate(0 49.753)" width="600" height="300" xlink:href="#use3396"/>
  <use id="use3396" transform="translate(0 -99.507)" width="600" height="300" xlink:href="#path570"/>
  <path id="path573" d="m266.07 130.84c26.786 0 35.714 19.901 71.428 19.901 17.857 0 26.786-19.901 44.643-19.901 26.786 0 35.714 19.901 71.428 19.901 17.857 0 26.786-19.901 44.641-19.901 26.786 0 35.717 19.901 71.428 19.901 17.86 0 23.637-5.6396 30.36-9.6842v-29.434c-6.7231 4.0445-12.499 13.497-30.36 13.497-35.711 0-44.642-19.901-71.428-19.901-17.856 0-26.784 19.901-44.641 19.901-35.714 0-44.643-19.901-71.428-19.901-17.857 0-26.786 19.901-44.643 19.901-35.714 0-44.643-19.901-71.428-19.901" fill="#002b7f" fill-rule="evenodd"/>
  <use transform="translate(0 -49.754)" width="600" height="300" xlink:href="#path573"/>
  <use transform="translate(0 -99.507)" width="600" height="300" xlink:href="#path573"/>
  <g transform="matrix(.5 0 0 .5 0 154.72)">
    <rect id="rect3179" y="-309.44" width="600" height="300" fill="#fff" fill-rule="evenodd"/>
    <path id="path4054" transform="matrix(2.8494 0 0 2.4497 679.59 -1202.7)" d="m-238.29 473.04-0.21429-94.299 81.772 46.964-81.558 47.335z" fill="#002b7f" fill-rule="evenodd"/>
    <use transform="matrix(-1 0 0 1 600 -2.0062e-6)" width="600" height="600" xlink:href="#path4054"/>
    <use id="use6677" transform="matrix(0 -.50215 2.0173 0 621.65 -9.4444)" width="600" height="600" xlink:href="#path4054"/>
    <use transform="matrix(1 0 0 -1 -4.7152e-8 -318.89)" width="600" height="600" xlink:href="#use6677"/>
  </g>
  <path d="m177.64 50h22.36l100-50h-22.36l-100 50z" fill="#ce1126" fill-rule="evenodd"/>
  <path d="m0 0v11.18l77.64 38.82h22.36l-100-50z" fill="#ce1126" fill-rule="evenodd"/>
  <path d="m300 150v-11.18l-77.64-38.82h-22.36l100 50z" fill="#ce1126" fill-rule="evenodd"/>
  <path d="m0 150h22.36l100-50h-22.36l-100 50z" fill="#ce1126" fill-rule="evenodd"/>
  <g transform="matrix(.5 0 0 .5 0 5e-6)">
    <use id="use6763" transform="matrix(1 0 0 .33333 0 203.15)" width="600" height="300" xlink:href="#rect3179"/>
    <use transform="matrix(0 .5 -1 0 450 0)" width="600" height="300" xlink:href="#use6763"/>
  </g>
  <rect id="use3168" y="60" width="300" height="30" rx="5.5511e-15" ry="7.5503e-16" fill="#ce1124" fill-rule="evenodd"/>
  <use transform="matrix(0 .5 -1 0 225 5e-6)" width="600" height="300" xlink:href="#use3168"/>
  <g id="Palm" transform="matrix(.60476 0 0 .60476 0 -.00011607)">
    <path transform="matrix(.2 0 0 .475 575.17 274.56)" d="m814.96-301.18-17.717 708.66c0 37.298 80.097 37.298 88.583 0l-17.717-708.66h-53.149z" fill="#a24300" fill-rule="evenodd" stroke="#fff" stroke-width="6.9349"/>
    <g transform="matrix(.7252 0 0 .6231 202.06 41.434)">
      <g transform="matrix(-.31451 .10485 -.13829 -.30324 1046.5 373.32)">
        <path transform="translate(177.17 -224.05)" d="m496.06 549.21 17.717 70.866 35.433-53.15-17.717 88.583 35.433-35.433-35.433 88.582 35.433-35.433-35.433 88.583 35.433-35.433-35.433 106.3 35.433-35.433-35.433 106.3 35.433-35.433-35.433 106.3-17.716 53.151-17.717 17.72-17.717-17.72-17.716-53.151-35.433-106.3 35.433 35.433-35.433-106.3 35.433 35.433-35.433-106.3 35.433 35.433-35.433-88.583 35.433 35.433-35.433-88.582 35.433 35.433-17.717-88.583 35.433 53.15 17.717-70.866z" fill="#006d00" fill-rule="evenodd" stroke="#fff" stroke-width="8.25"/>
        <path transform="translate(177.17 -224.05)" d="m496.06 549.21v496.07" fill="none" stroke="#000" stroke-width="1pt"/>
        <path transform="translate(177.17 -224.05)" d="m425.2 868.11 70.866 106.3 70.866-106.3" fill="none" stroke="#000" stroke-width="1pt"/>
        <path transform="translate(177.17 -224.05)" d="m425.2 797.24 70.866 106.3 70.866-106.3" fill="none" stroke="#000" stroke-width="1pt"/>
        <path transform="translate(177.17 -224.05)" d="m425.2 726.38 70.866 106.3 70.866-106.3" fill="none" stroke="#000" stroke-width="1pt"/>
        <path transform="translate(177.17 -224.05)" d="m425.2 673.23 70.866 88.583 70.866-88.583" fill="none" stroke="#000" stroke-width="1pt"/>
        <path transform="translate(177.17 -224.05)" d="m425.2 620.08 70.866 88.582 70.866-88.582" fill="none" stroke="#000" stroke-width="1pt"/>
        <path transform="translate(177.17 -224.05)" d="m442.91 566.93 53.15 106.3 53.15-106.3" fill="none" stroke="#000" stroke-width="1pt"/>
      </g>
      <g transform="matrix(.23652 -.28186 .29496 .22762 354.57 204.65)">
        <path transform="translate(177.17 -224.05)" d="m496.06 549.21 17.717 70.866 35.433-53.15-17.717 88.583 35.433-35.433-35.433 88.582 35.433-35.433-35.433 88.583 35.433-35.433-35.433 106.3 35.433-35.433-35.433 106.3 35.433-35.433-35.433 106.3-17.716 53.151-17.717 17.72-17.717-17.72-17.716-53.151-35.433-106.3 35.433 35.433-35.433-106.3 35.433 35.433-35.433-106.3 35.433 35.433-35.433-88.583 35.433 35.433-35.433-88.582 35.433 35.433-17.717-88.583 35.433 53.15 17.717-70.866z" fill="#006d00" fill-rule="evenodd" stroke="#fff" stroke-width="8.25"/>
        <path transform="translate(177.17 -224.05)" d="m496.06 549.21v496.07" fill="none" stroke="#000" stroke-width="1pt"/>
        <path transform="translate(177.17 -224.05)" d="m425.2 868.11 70.866 106.3 70.866-106.3" fill="none" stroke="#000" stroke-width="1pt"/>
        <path transform="translate(177.17 -224.05)" d="m425.2 797.24 70.866 106.3 70.866-106.3" fill="none" stroke="#000" stroke-width="1pt"/>
        <path transform="translate(177.17 -224.05)" d="m425.2 726.38 70.866 106.3 70.866-106.3" fill="none" stroke="#000" stroke-width="1pt"/>
        <path transform="translate(177.17 -224.05)" d="m425.2 673.23 70.866 88.583 70.866-88.583" fill="none" stroke="#000" stroke-width="1pt"/>
        <path transform="translate(177.17 -224.05)" d="m425.2 620.08 70.866 88.582 70.866-88.582" fill="none" stroke="#000" stroke-width="1pt"/>
        <path transform="translate(177.17 -224.05)" d="m442.91 566.93 53.15 106.3 53.15-106.3" fill="none" stroke="#000" stroke-width="1pt"/>
      </g>
      <g transform="matrix(.15164 .33524 -.3329 .16731 907.54 -153.47)">
        <path transform="translate(177.17 -224.05)" d="m496.06 549.21 17.717 70.866 35.433-53.15-17.717 88.583 35.433-35.433-35.433 88.582 35.433-35.433-35.433 88.583 35.433-35.433-35.433 106.3 35.433-35.433-35.433 106.3 35.433-35.433-35.433 106.3-17.716 53.151-17.717 17.72-17.717-17.72-17.716-53.151-35.433-106.3 35.433 35.433-35.433-106.3 35.433 35.433-35.433-106.3 35.433 35.433-35.433-88.583 35.433 35.433-35.433-88.582 35.433 35.433-17.717-88.583 35.433 53.15 17.717-70.866z" fill="#006d00" fill-rule="evenodd" stroke="#fff" stroke-width="8.25"/>
        <path transform="translate(177.17 -224.05)" d="m496.06 549.21v496.07" fill="none" stroke="#000" stroke-width="1pt"/>
        <path transform="translate(177.17 -224.05)" d="m425.2 868.11 70.866 106.3 70.866-106.3" fill="none" stroke="#000" stroke-width="1pt"/>
        <path transform="translate(177.17 -224.05)" d="m425.2 797.24 70.866 106.3 70.866-106.3" fill="none" stroke="#000" stroke-width="1pt"/>
        <path transform="translate(177.17 -224.05)" d="m425.2 726.38 70.866 106.3 70.866-106.3" fill="none" stroke="#000" stroke-width="1pt"/>
        <path transform="translate(177.17 -224.05)" d="m425.2 673.23 70.866 88.583 70.866-88.583" fill="none" stroke="#000" stroke-width="1pt"/>
        <path transform="translate(177.17 -224.05)" d="m425.2 620.08 70.866 88.582 70.866-88.582" fill="none" stroke="#000" stroke-width="1pt"/>
        <path transform="translate(177.17 -224.05)" d="m442.91 566.93 53.15 106.3 53.15-106.3" fill="none" stroke="#000" stroke-width="1pt"/>
      </g>
      <g transform="matrix(-.20952 .30246 -.3147 -.19945 1141.4 167.58)">
        <path transform="translate(177.17 -224.05)" d="m496.06 549.21 17.717 70.866 35.433-53.15-17.717 88.583 35.433-35.433-35.433 88.582 35.433-35.433-35.433 88.583 35.433-35.433-35.433 106.3 35.433-35.433-35.433 106.3 35.433-35.433-35.433 106.3-17.716 53.151-17.717 17.72-17.717-17.72-17.716-53.151-35.433-106.3 35.433 35.433-35.433-106.3 35.433 35.433-35.433-106.3 35.433 35.433-35.433-88.583 35.433 35.433-35.433-88.582 35.433 35.433-17.717-88.583 35.433 53.15 17.717-70.866z" fill="#006d00" fill-rule="evenodd" stroke="#fff" stroke-width="8.25"/>
        <path transform="translate(177.17 -224.05)" d="m496.06 549.21v496.07" fill="none" stroke="#000" stroke-width="1pt"/>
        <path transform="translate(177.17 -224.05)" d="m425.2 868.11 70.866 106.3 70.866-106.3" fill="none" stroke="#000" stroke-width="1pt"/>
        <path transform="translate(177.17 -224.05)" d="m425.2 797.24 70.866 106.3 70.866-106.3" fill="none" stroke="#000" stroke-width="1pt"/>
        <path transform="translate(177.17 -224.05)" d="m425.2 726.38 70.866 106.3 70.866-106.3" fill="none" stroke="#000" stroke-width="1pt"/>
        <path transform="translate(177.17 -224.05)" d="m425.2 673.23 70.866 88.583 70.866-88.583" fill="none" stroke="#000" stroke-width="1pt"/>
        <path transform="translate(177.17 -224.05)" d="m425.2 620.08 70.866 88.582 70.866-88.582" fill="none" stroke="#000" stroke-width="1pt"/>
        <path transform="translate(177.17 -224.05)" d="m442.91 566.93 53.15 106.3 53.15-106.3" fill="none" stroke="#000" stroke-width="1pt"/>
      </g>
      <g transform="matrix(-.20772 -.25838 .23618 -.23515 689.99 567.28)">
        <path transform="translate(177.17 -224.05)" d="m496.06 549.21 17.717 70.866 35.433-53.15-17.717 88.583 35.433-35.433-35.433 88.582 35.433-35.433-35.433 88.583 35.433-35.433-35.433 106.3 35.433-35.433-35.433 106.3 35.433-35.433-35.433 106.3-17.716 53.151-17.717 17.72-17.717-17.72-17.716-53.151-35.433-106.3 35.433 35.433-35.433-106.3 35.433 35.433-35.433-106.3 35.433 35.433-35.433-88.583 35.433 35.433-35.433-88.582 35.433 35.433-17.717-88.583 35.433 53.15 17.717-70.866z" fill="#006d00" fill-rule="evenodd" stroke="#fff" stroke-width="8.25"/>
        <path transform="translate(177.17 -224.05)" d="m496.06 549.21v496.07" fill="none" stroke="#000" stroke-width="1pt"/>
        <path transform="translate(177.17 -224.05)" d="m425.2 868.11 70.866 106.3 70.866-106.3" fill="none" stroke="#000" stroke-width="1pt"/>
        <path transform="translate(177.17 -224.05)" d="m425.2 797.24 70.866 106.3 70.866-106.3" fill="none" stroke="#000" stroke-width="1pt"/>
        <path transform="translate(177.17 -224.05)" d="m425.2 726.38 70.866 106.3 70.866-106.3" fill="none" stroke="#000" stroke-width="1pt"/>
        <path transform="translate(177.17 -224.05)" d="m425.2 673.23 70.866 88.583 70.866-88.583" fill="none" stroke="#000" stroke-width="1pt"/>
        <path transform="translate(177.17 -224.05)" d="m425.2 620.08 70.866 88.582 70.866-88.582" fill="none" stroke="#000" stroke-width="1pt"/>
        <path transform="translate(177.17 -224.05)" d="m442.91 566.93 53.15 106.3 53.15-106.3" fill="none" stroke="#000" stroke-width="1pt"/>
      </g>
      <g transform="matrix(-.36218 -.099472 -.20981 .31773 1222.4 -24.229)">
        <path transform="translate(283.46 -124.02)" d="m460.63 549.21 28.643 70.866 42.223-53.15-10.184 88.583 27.9-35.433-17.716 88.582 25.249-35.433-25.249 88.583 35.433-35.433-35.433 106.3 35.433-35.433-35.433 106.3 35.433-35.433-35.433 106.3-17.716 53.151-17.717 17.72-17.717-17.72-17.716-53.151-35.433-106.3 35.433 35.433-35.433-106.3 35.433 35.433-35.433-106.3 35.433 35.433-45.617-88.583 45.617 35.433-53.15-88.582 42.966 35.433-25.25-88.583 35.433 53.15 1e-3 -70.866z" fill="#006d00" fill-rule="evenodd" stroke="#fff" stroke-width="8.25"/>
        <path transform="translate(283.46 -124.02)" d="m467.21 584.65 28.855 124.02v336.62" fill="none" stroke="#000" stroke-width="1pt"/>
        <path transform="translate(283.46 -124.02)" d="m436.23 885.83 59.833 88.582 60.682-88.582" fill="none" stroke="#000" stroke-width="1pt"/>
        <path transform="translate(283.46 -124.02)" d="m434.53 814.96 61.53 88.582 60.682-88.582" fill="none" stroke="#000" stroke-width="1pt"/>
        <path transform="translate(283.46 -124.02)" d="m435.38 744.1 60.682 88.582 59.833-88.582" fill="none" stroke="#000" stroke-width="1pt"/>
        <path transform="translate(283.46 -124.02)" d="m432.84 690.94 63.228 70.866 53.149-70.866" fill="none" stroke="#000" stroke-width="1pt"/>
        <path transform="translate(283.46 -124.02)" d="m425.2 637.8 70.866 70.865 45.406-70.865" fill="none" stroke="#000" stroke-width="1pt"/>
        <path transform="translate(283.46 -124.02)" d="m436.12 593.24 53.15 86.886 35.327-95.478" fill="none" stroke="#000" stroke-width="1pt"/>
      </g>
      <g transform="matrix(.36088 .10411 .013211 .38052 452.76 -239.27)">
        <path transform="translate(283.46 -124.02)" d="m460.63 549.21 28.643 70.866 42.223-53.15-10.184 88.583 27.9-35.433-17.716 88.582 25.249-35.433-25.249 88.583 35.433-35.433-35.433 106.3 35.433-35.433-35.433 106.3 35.433-35.433-35.433 106.3-17.716 53.151-17.717 17.72-17.717-17.72-17.716-53.151-35.433-106.3 35.433 35.433-35.433-106.3 35.433 35.433-35.433-106.3 35.433 35.433-45.617-88.583 45.617 35.433-53.15-88.582 42.966 35.433-25.25-88.583 35.433 53.15 1e-3 -70.866z" fill="#006d00" fill-rule="evenodd" stroke="#fff" stroke-width="8.25"/>
        <path transform="translate(283.46 -124.02)" d="m467.21 584.65 28.855 124.02v336.62" fill="none" stroke="#000" stroke-width="1pt"/>
        <path transform="translate(283.46 -124.02)" d="m436.23 885.83 59.833 88.582 60.682-88.582" fill="none" stroke="#000" stroke-width="1pt"/>
        <path transform="translate(283.46 -124.02)" d="m434.53 814.96 61.53 88.582 60.682-88.582" fill="none" stroke="#000" stroke-width="1pt"/>
        <path transform="translate(283.46 -124.02)" d="m435.38 744.1 60.682 88.582 59.833-88.582" fill="none" stroke="#000" stroke-width="1pt"/>
        <path transform="translate(283.46 -124.02)" d="m432.84 690.94 63.228 70.866 53.149-70.866" fill="none" stroke="#000" stroke-width="1pt"/>
        <path transform="translate(283.46 -124.02)" d="m425.2 637.8 70.866 70.865 45.406-70.865" fill="none" stroke="#000" stroke-width="1pt"/>
        <path transform="translate(283.46 -124.02)" d="m436.12 593.24 53.15 86.886 35.327-95.478" fill="none" stroke="#000" stroke-width="1pt"/>
      </g>
      <g transform="matrix(.046132 -.36474 .32602 .064796 379.58 479.54)">
        <path transform="translate(442.91 -42.966)" d="m354.33 531.5 88.583 88.583 17.716-53.149v88.582l35.433-35.433-17.716 88.583 35.432-35.434-17.716 88.584 35.433-35.433-17.716 106.3 35.433-35.433-35.433 106.3 35.433-35.433-17.717 106.3-17.716 53.151-17.717 17.72-17.717-17.72-17.716-53.151-53.15-82.294 35.434 11.429-35.433-106.3 35.433 35.433-53.15-106.3 35.433 35.433-53.15-88.584 53.15 35.434-70.866-88.583 53.149 35.433-70.866-70.866 70.866 35.433-53.149-88.583z" fill="#006d00" fill-rule="evenodd" stroke="#fff" stroke-width="8.25"/>
        <path transform="translate(442.91 -42.966)" d="m378.96 560.02 63.952 95.497 17.716 53.15 8.859 45.205 8.858 78.811 9.315 70.866 8.401 141.74" fill="none" stroke="#000" stroke-width="1pt"/>
        <path transform="translate(442.91 -42.966)" d="m425.2 903.54 63.665 70.866 50.749-88.583" fill="none" stroke="#000" stroke-width="1pt"/>
        <path transform="translate(442.91 -42.966)" d="m417.08 814.96 70.579 88.583 50.75-88.583" fill="none" stroke="#000" stroke-width="1pt"/>
        <path transform="translate(442.91 -42.966)" d="m407.48 752.44 70.867 80.235 45.948-88.583" fill="none" stroke="#000" stroke-width="1pt"/>
        <path transform="translate(442.91 -42.966)" d="m372.05 637.8 88.583 70.866 25.831-70.866" fill="none" stroke="#000" stroke-width="1pt"/>
        <path transform="translate(442.91 -42.966)" d="m360.62 602.36 82.296 53.149 10.515-53.149" fill="none" stroke="#000" stroke-width="1pt"/>
        <path transform="translate(442.91 -42.966)" d="m389.76 690.94 81.095 70.866 33.946-70.866" fill="none" stroke="#000" stroke-width="1pt"/>
      </g>
    </g>
  </g>
  <g transform="matrix(.25333 0 0 .25333 412 157.18)" stroke="#000">
    <path d="m52.504 257.67 98.536-17.68 102.64 17.68-47.626 19.802-87.862 1.4144-65.691-21.216z" fill="#9d9d9d" fill-rule="evenodd" stroke-width="1.0076px"/>
    <path d="m151.79 98.445c-17.224 5.9867-36.302-8.4255-67.359 15.093 0 0-54.144-23.163-58.256 30.371-0.16528 2.1676 8.5702 15.223 9.7859 14.29 6.8043-5.2237-3.2297 5.0727-3.2297 6.5601 0 1.5001 0.99794 2.3328 1.3348 2.9939 0.33053 0.66741 1.1632 1.6654 1.3285 4.494 0.16527 2.8286-6.1368 10.544-3.4735 13.373 2.657 2.8286 2.8223 10.984 2.8223 13.31 0 2.3265 1.6654 8.8164 2.8286 10.151 1.1632 1.3285 3.1592 4.6529 3.1592 7.4815s1.1632 10.647 0.66106 12.637c-0.4958 1.9959 2.9939 4.494 6.1594 5.4919 3.1591 0.99798 43.935 1.7059 101.16 0.70799 57.233-0.99795 76.328 8.0575 99.974-0.54272 3.655-1.3285 4.3224-4.3224 3.9918-5.9877-0.33689-1.659 0-6.9793 0.99796-8.3142 0.99795-1.3285 7.6531-11.976 6.3183-13.971 1.2564-1.1343 10.589 5.3897 4.645-0.43547-1.5244-1.4939 0.85327-17.216 1.6732-20.528 0.82637-3.318 2.0957-9.5498 3.6212-10.707 1.5319-1.1569-2.5983-5.4878-2.3059-6.2696 0.29876-0.7882 1.4111-3.2291 2.9621-4.3414 0 0 2.8858-13.526 1.106-20.175-1.7671-6.6552-8.2692-36.583-48.861-30.589 0 0-54.341-20.9-71.045-15.093z" fill="#c00" stroke-width="1.6287"/>
    <g transform="translate(0 -.00026004)" fill-rule="evenodd">
      <g transform="matrix(1.0858 0 0 1.0858 6.9147 26.112)">
        <g fill="#f7d917">
          <g stroke-width="1.2411">
            <g transform="matrix(.49697 -.044597 .089467 .72678 44.7 100.54)">
              <path d="m49.75 0.125c-5.0928 0.89009-15.156 29.245-12.609 38.75 1.7631 6.5798 4.4981 11.12 6.0468 13.906-3.4041-4.6856-11.382-13.75-22.25-13.75-13.663-1e-6 -15.43 29.948-15.094 31.875 0.0014186 0.006833-0.0014843 0.025332 0 0.03125 0.0015486 0.004997 0.029638 0.027183 0.03125 0.03125 0.0016791-9.45e-4 0.029413 0.001339 0.03125 0 0.61296-0.71443 6.1414-13.094 19.656-13.094 8.8965 1e-6 15.829 7.0355 18.375 10.031-7.26e-4 0.94434 0.022799 1.8582 0.03125 2.7812-2.0039 2.8285-3.2814 9.5312-9.4689 17.969-7.4766 10.195-30.371 11.241-34.219 11.344h49.531c0.047419 0 0.10947 0.00293 0.15625 0 0.021875 0.00202 0.040484-0.001379 0.0625 0 0.046783 0.00293 0.10883 0 0.15625 0h49.531c-3.8472-0.10321-27.18-1.1484-34.656-11.344-6.1875-8.4375-7.0275-15.14-9.0314-17.969 0.008451-0.9231 0.031976-1.8369 0.03125-2.7812 2.5458-2.9958 9.4785-10.031 18.375-10.031 13.515 0 19.043 12.379 19.656 13.094 0.001837 0.001339 0.029571-9.45e-4 0.03125 0 0.001612-0.004067 0.029701-0.026253 0.03125-0.03125 0.001484-0.005918-0.001419-0.024417 0-0.03125 0.33658-1.9271-1.4307-31.875-15.094-31.875-10.868 0-18.846 9.0644-22.25 13.75 1.5487-2.7865 4.2902-8.5753 5.7186-13.906 2.5872-9.6556-7.44-38.743-12.531-38.75-0.079549 1.1261e-4 -0.16916-0.014128-0.25 0zm-6.4375 52.844c0.35231 0.49039 0.66221 0.91241 0.90625 1.2812 0.005157 0.007795 0.54174 2.9765 0.54685 2.9842-0.002381 0.063703 2.6272 10.186 2.6249 10.25-0.26439-0.39168-3.737-13.915-4.078-14.515zm13.375 0c-0.34094 0.59987-4.0323 14.123-4.2967 14.515-0.002353-0.063684 3.3928-13.139 3.3905-13.203-3.97e-4 -0.010617-0.43708 2.9636-0.43748 2.953 0.24404-0.36884 0.99142-3.7751 1.3437-4.2655z"/>
              <path d="m42 67.578s4-1.8593 8-1.8593 8 1.8593 8 1.8593v4.953s-4-1.8593-8-1.8593-8 1.8593-8 1.8593v-4.953z"/>
            </g>
            <g transform="matrix(.49538 .059703 -.063593 .7295 168.92 96.59)">
              <path d="m49.75 0.125c-5.0928 0.89009-15.156 29.245-12.609 38.75 1.7631 6.5798 4.4981 11.12 6.0468 13.906-3.4041-4.6856-11.382-13.75-22.25-13.75-13.663-1e-6 -15.43 29.948-15.094 31.875 0.0014186 0.006833-0.0014843 0.025332 0 0.03125 0.0015486 0.004997 0.029638 0.027183 0.03125 0.03125 0.0016791-9.45e-4 0.029413 0.001339 0.03125 0 0.61296-0.71443 6.1414-13.094 19.656-13.094 8.8965 1e-6 15.829 7.0355 18.375 10.031-7.26e-4 0.94434 0.022799 1.8582 0.03125 2.7812-2.0039 2.8285-3.2814 9.5312-9.4689 17.969-7.4766 10.195-30.371 11.241-34.219 11.344h49.531c0.047419 0 0.10947 0.00293 0.15625 0 0.021875 0.00202 0.040484-0.001379 0.0625 0 0.046783 0.00293 0.10883 0 0.15625 0h49.531c-3.8472-0.10321-27.18-1.1484-34.656-11.344-6.1875-8.4375-7.0275-15.14-9.0314-17.969 0.008451-0.9231 0.031976-1.8369 0.03125-2.7812 2.5458-2.9958 9.4785-10.031 18.375-10.031 13.515 0 19.043 12.379 19.656 13.094 0.001837 0.001339 0.029571-9.45e-4 0.03125 0 0.001612-0.004067 0.029701-0.026253 0.03125-0.03125 0.001484-0.005918-0.001419-0.024417 0-0.03125 0.33658-1.9271-1.4307-31.875-15.094-31.875-10.868 0-18.846 9.0644-22.25 13.75 1.5487-2.7865 4.2902-8.5753 5.7186-13.906 2.5872-9.6556-7.44-38.743-12.531-38.75-0.079549 1.1261e-4 -0.16916-0.014128-0.25 0zm-6.4375 52.844c0.35231 0.49039 0.66221 0.91241 0.90625 1.2812 0.005157 0.007795 0.54174 2.9765 0.54685 2.9842-0.002381 0.063703 2.6272 10.186 2.6249 10.25-0.26439-0.39168-3.737-13.915-4.078-14.515zm13.375 0c-0.34094 0.59987-4.0323 14.123-4.2967 14.515-0.002353-0.063684 3.3928-13.139 3.3905-13.203-3.97e-4 -0.010617-0.43708 2.9636-0.43748 2.953 0.24404-0.36884 0.99142-3.7751 1.3437-4.2655z"/>
              <path d="m42 67.578s4-1.8593 8-1.8593 8 1.8593 8 1.8593v4.953s-4-1.8593-8-1.8593-8 1.8593-8 1.8593v-4.953z"/>
            </g>
          </g>
          <path d="m24.308 134.56 9.6899-11.814s0.90367 1.1682 0 0c-19.866-25.681-20.87-40.415-18.634-47.876s6.7084-15.544 18.634-25.493c11.926-9.9483 20.156-4.4191 31.337-4.4191s14.162 2.4871 23.852 3.7306c9.6899 1.2435 35.778 2.4871 35.778 2.4871v-6.8395s1.0287 0.19178 0 0c-11.519-2.1474-26.088 0-35.778-2.4871-9.6899-2.4871-17.889-3.1088-28.324-3.1088s-17.92-3.0422-24.628 1.3102-14.907 11.814-20.87 18.031c-5.963 6.2177-8.9445 18.653-8.1991 26.736 0.74537 8.083 3.7269 14.922 8.1991 21.14 4.4722 6.2177 3.7269 11.192 5.2176 15.544 1.4907 4.3524 3.7269 13.679 3.7269 13.057z" stroke-width=".71481"/>
          <path d="m239.25 134.56-9.6899-11.814s-0.90367 1.1682 0 0c19.866-25.681 20.87-40.415 18.634-47.876s-6.7084-15.544-18.634-25.493c-11.926-9.9483-20.156-4.4191-31.337-4.4191s-14.162 2.4871-23.852 3.7306-35.778 2.4871-35.778 2.4871v-6.8395s-1.0287 0.19178 0 0c11.519-2.1474 26.088 0 35.778-2.4871 9.6899-2.4871 17.889-3.1088 28.324-3.1088s17.92-3.0422 24.628 1.3102 14.907 11.814 20.87 18.031c5.963 6.2177 8.9445 18.653 8.1991 26.736-0.74537 8.083-3.7269 14.922-8.1991 21.14-4.4722 6.2177-3.7269 11.192-5.2176 15.544-1.4908 4.3524-3.7269 13.679-3.7269 13.057z" stroke-width=".71481"/>
          <rect x="115.55" y="38.701" width="34.563" height="70.894" stroke-width=".83496"/>
          <g transform="translate(0,-8)">
            <path d="m119.68-15.799s3.7204 3.0282 6.5756 6.9217c2.8552 3.8934 4.8452 8.6521 4.8452 8.6521s-4.7587-1.99-8.6521-4.8452-6.9217-6.5756-6.9217-6.5756v26.302s3.0282-3.7204 6.9217-6.5756c3.8934-2.8552 8.6521-4.8452 8.6521-4.8452s-1.5333 3.9266-2.5237 8.6521c-0.8909 4.2506-8.1827 14.065-8.1827 14.065l21.302 1.4286s-3.5418-11.243-4.9685-15.493c-1.5362-4.5772-2.1666-8.6521-2.1666-8.6521s4.7587 1.99 8.6521 4.8452 6.9217 6.5756 6.9217 6.5756v-26.302s-3.0282 3.7204-6.9217 6.5756c-3.8934 2.8552-8.6521 4.8452-8.6521 4.8452s1.99-4.7587 4.8452-8.6521 6.5756-6.9217 6.5756-6.9217h-26.302z" stroke-width=".5"/>
            <path transform="translate(-.022093 8)" d="m150 23.076a17.143 17.143 0 1 1-34.286 0 17.143 17.143 0 1 1 34.286 0z" stroke-width=".75"/>
            <path d="m116.07 33.535h34.102s0.49381-6.5959-1.9743-9.064h-10.594l-0.17857-9.888h-10.042l-0.17857 9.888s-7.1272 0.35714-10.411 0.35714c-1.4889 4.0416-1.2591 4.3809-1.2591 4.3809l0.53571 4.326z" stroke-width=".5"/>
          </g>
          <g stroke-width=".75">
            <path d="m110.88 107.22s6.2118 5.0562 10.979 11.557 8.0899 14.446 8.0899 14.446-7.9454-3.3226-14.446-8.0899c-6.5008-4.7672-11.557-10.979-11.557-10.979v43.916s5.0562-6.2118 11.557-10.979 14.446-8.0899 14.446-8.0899-3.3226 7.9454-8.0899 14.446c-4.7672 6.5008-10.979 11.557-10.979 11.557h43.916s-6.2118-5.0562-10.979-11.557-8.0899-14.446-8.0899-14.446 7.9454 3.3226 14.446 8.0899c6.5008 4.7672 11.557 10.979 11.557 10.979v-43.916s-5.0562 6.2118-11.557 10.979-14.446 8.0899-14.446 8.0899 3.3226-7.9454 8.0899-14.446c4.7672-6.5008 10.979-11.557 10.979-11.557h-43.916z"/>
            <path d="m27.24 181.78 21.625-3.813s-6.9955-3.9007-12.819-9.4749c-5.8237-5.5742-10.476-12.822-10.476-12.822s8.4016 1.8924 15.631 5.4584c7.2298 3.566 13.288 8.8054 13.288 8.8054l-7.626-43.249s-3.9007 6.9955-9.4749 12.819c-5.5742 5.8237-12.822 10.476-12.822 10.476s1.8924-8.4016 5.4584-15.631c3.566-7.2298 8.8054-13.288 8.8054-13.288l-21.625 3.813 10.034 56.907z"/>
            <path d="m226.84 121.06s5.2395 6.058 8.8054 13.288c3.566 7.2298 5.4584 15.631 5.4584 15.631s-7.2477-4.6518-12.822-10.476c-5.5742-5.8237-9.4748-12.819-9.4748-12.819l-7.626 43.249s6.058-5.2395 13.288-8.8054c7.2298-3.566 15.631-5.4584 15.631-5.4584s-4.6518 7.2477-10.476 12.822c-5.8237 5.5742-12.819 9.4749-12.819 9.4749l21.625 3.813 10.034-56.907-21.625-3.813z"/>
          </g>
          <path d="m27.464 179.53 0.14989 31.507s52.648-17.928 105.3-17.928c52.648 0 105.3 17.928 105.3 17.928v-31.507s-52.686-17.928-105.37-17.928c-52.686 0-105.37 17.928-105.37 17.928z" stroke-width=".75"/>
        </g>
        <g fill="#fff" stroke-width="1.5">
          <path transform="matrix(.66123 0 0 .66123 21.246 -360.32)" d="m2.0203 723.05a12.122 12.122 0 1 1-24.244 0 12.122 12.122 0 1 1 24.244 0z"/>
          <path transform="matrix(.66123 0 0 .66123 10.965 -378.6)" d="m2.0203 723.05a12.122 12.122 0 1 1-24.244 0 12.122 12.122 0 1 1 24.244 0z"/>
          <path transform="matrix(.66123 0 0 .66123 8.8223 -400.03)" d="m2.0203 723.05a12.122 12.122 0 1 1-24.244 0 12.122 12.122 0 1 1 24.244 0z"/>
          <path transform="matrix(.66123 0 0 .66123 15.251 -420.03)" d="m2.0203 723.05a12.122 12.122 0 1 1-24.244 0 12.122 12.122 0 1 1 24.244 0z"/>
          <path transform="matrix(.66123 0 0 .66123 28.822 -436.46)" d="m2.0203 723.05a12.122 12.122 0 1 1-24.244 0 12.122 12.122 0 1 1 24.244 0z"/>
          <path transform="matrix(.66123 0 0 .66123 47.394 -447.89)" d="m2.0203 723.05a12.122 12.122 0 1 1-24.244 0 12.122 12.122 0 1 1 24.244 0z"/>
          <path transform="matrix(.66123 0 0 .66123 68.108 -446.46)" d="m2.0203 723.05a12.122 12.122 0 1 1-24.244 0 12.122 12.122 0 1 1 24.244 0z"/>
          <path transform="matrix(.66123 0 0 .66123 88.822 -443.03)" d="m2.0203 723.05a12.122 12.122 0 1 1-24.244 0 12.122 12.122 0 1 1 24.244 0z"/>
          <path transform="matrix(.66123 0 0 .66123 109.54 -440.89)" d="m2.0203 723.05a12.122 12.122 0 1 1-24.244 0 12.122 12.122 0 1 1 24.244 0z"/>
          <path transform="matrix(-.66123 0 0 .66123 242.32 -360.32)" d="m2.0203 723.05a12.122 12.122 0 1 1-24.244 0 12.122 12.122 0 1 1 24.244 0z"/>
          <path transform="matrix(-.66123 0 0 .66123 252.6 -378.6)" d="m2.0203 723.05a12.122 12.122 0 1 1-24.244 0 12.122 12.122 0 1 1 24.244 0z"/>
          <path transform="matrix(-.66123 0 0 .66123 254.74 -400.03)" d="m2.0203 723.05a12.122 12.122 0 1 1-24.244 0 12.122 12.122 0 1 1 24.244 0z"/>
          <path transform="matrix(-.66123 0 0 .66123 248.31 -420.03)" d="m2.0203 723.05a12.122 12.122 0 1 1-24.244 0 12.122 12.122 0 1 1 24.244 0z"/>
          <path transform="matrix(-.66123 0 0 .66123 234.74 -436.46)" d="m2.0203 723.05a12.122 12.122 0 1 1-24.244 0 12.122 12.122 0 1 1 24.244 0z"/>
          <path transform="matrix(-.66123 0 0 .66123 216.17 -447.89)" d="m2.0203 723.05a12.122 12.122 0 1 1-24.244 0 12.122 12.122 0 1 1 24.244 0z"/>
          <path transform="matrix(-.66123 0 0 .66123 195.45 -446.46)" d="m2.0203 723.05a12.122 12.122 0 1 1-24.244 0 12.122 12.122 0 1 1 24.244 0z"/>
          <path transform="matrix(-.66123 0 0 .66123 174.74 -443.03)" d="m2.0203 723.05a12.122 12.122 0 1 1-24.244 0 12.122 12.122 0 1 1 24.244 0z"/>
          <path transform="matrix(-.66123 0 0 .66123 154.03 -440.89)" d="m2.0203 723.05a12.122 12.122 0 1 1-24.244 0 12.122 12.122 0 1 1 24.244 0z"/>
          <g transform="translate(1.0403)">
            <path transform="matrix(.66123 0 0 .66123 138.47 -378.32)" d="m2.0203 723.05a12.122 12.122 0 1 1-24.244 0 12.122 12.122 0 1 1 24.244 0z"/>
            <path transform="matrix(.66123 0 0 .66123 138.47 -392.6)" d="m2.0203 723.05a12.122 12.122 0 1 1-24.244 0 12.122 12.122 0 1 1 24.244 0z"/>
            <path transform="matrix(.66123 0 0 .66123 138.47 -404.03)" d="m2.0203 723.05a12.122 12.122 0 1 1-24.244 0 12.122 12.122 0 1 1 24.244 0z"/>
            <path transform="matrix(.66123 0 0 .66123 138.47 -414.46)" d="m2.0203 723.05a12.122 12.122 0 1 1-24.244 0 12.122 12.122 0 1 1 24.244 0z"/>
            <path transform="matrix(.66123 0 0 .66123 138.47 -447.89)" d="m2.0203 723.05a12.122 12.122 0 1 1-24.244 0 12.122 12.122 0 1 1 24.244 0z"/>
            <path transform="matrix(.66123 0 0 .66123 138.47 -446.46)" d="m2.0203 723.05a12.122 12.122 0 1 1-24.244 0 12.122 12.122 0 1 1 24.244 0z"/>
            <path transform="matrix(.66123 0 0 .66123 138.47 -439.03)" d="m2.0203 723.05a12.122 12.122 0 1 1-24.244 0 12.122 12.122 0 1 1 24.244 0z"/>
            <path transform="matrix(.66123 0 0 .66123 138.47 -428.89)" d="m2.0203 723.05a12.122 12.122 0 1 1-24.244 0 12.122 12.122 0 1 1 24.244 0z"/>
          </g>
        </g>
        <g fill="#fff">
          <path transform="translate(-.45714 -2)" d="m143.57 136.29a10.357 10.357 0 1 1-20.714 0 10.357 10.357 0 1 1 20.714 0z"/>
          <path transform="translate(-108.71 16.786)" d="m143.57 136.29a10.357 10.357 0 1 1-20.714 0 10.357 10.357 0 1 1 20.714 0z"/>
          <path transform="translate(107.29 16.786)" d="m143.57 136.29a10.357 10.357 0 1 1-20.714 0 10.357 10.357 0 1 1 20.714 0z"/>
        </g>
      </g>
      <rect x="134.79" y="210.1" width="34.762" height="15.153" fill="#002b7f" stroke-width=".84141"/>
      <path transform="matrix(-.67815 -.068828 .023825 .9577 195.48 -.8303)" d="m16.043 233.11a22.995 8.5561 0 1 1-45.989 0 22.995 8.5561 0 1 1 45.989 0z" fill="#3e8225" stroke-width="1.5"/>
      <path d="m36.937 229.28-8.7095 8.7095 10.101 5.832 23.493-6.2949-4.187-13.303-20.698 5.0569z" fill="#c00" stroke-width="1.0858px"/>
      <path d="m267.41 229.28 8.7095 8.7095-10.101 5.832-23.493-6.2949 4.187-13.303 20.698 5.0569z" fill="#c00" stroke-width="1.0858px"/>
      <path transform="matrix(.67815 -.068828 -.023825 .9577 108.87 -.8303)" d="m16.043 233.11a22.995 8.5561 0 1 1-45.989 0 22.995 8.5561 0 1 1 45.989 0z" fill="#3e8225" stroke-width="1.5"/>
      <path transform="translate(1.0695 -3.4759)" d="m126.2 214.7a4.2781 4.2781 0 1 1-8.5562 0 4.2781 4.2781 0 1 1 8.5562 0z" fill="#fff" stroke-width=".7"/>
      <path transform="translate(2.4064 10.16)" d="m126.2 214.7a4.2781 4.2781 0 1 1-8.5562 0 4.2781 4.2781 0 1 1 8.5562 0z" fill="#fff" stroke-width=".7"/>
      <path transform="translate(-52.406 6.1497)" d="m126.2 214.7a4.2781 4.2781 0 1 1-8.5562 0 4.2781 4.2781 0 1 1 8.5562 0z" fill="#fff" stroke-width=".7"/>
      <path transform="translate(-47.059 18.984)" d="m126.2 214.7a4.2781 4.2781 0 1 1-8.5562 0 4.2781 4.2781 0 1 1 8.5562 0z" fill="#fff" stroke-width=".7"/>
      <path transform="matrix(-1 0 0 1 303.07 -3.4759)" d="m126.2 214.7a4.2781 4.2781 0 1 1-8.5562 0 4.2781 4.2781 0 1 1 8.5562 0z" fill="#fff" stroke-width=".7"/>
      <path transform="matrix(-1 0 0 1 301.74 10.16)" d="m126.2 214.7a4.2781 4.2781 0 1 1-8.5562 0 4.2781 4.2781 0 1 1 8.5562 0z" fill="#fff" stroke-width=".7"/>
      <path transform="matrix(-1 0 0 1 356.55 6.1497)" d="m126.2 214.7a4.2781 4.2781 0 1 1-8.5562 0 4.2781 4.2781 0 1 1 8.5562 0z" fill="#fff" stroke-width=".7"/>
      <path transform="matrix(-1 0 0 1 351.2 18.984)" d="m126.2 214.7a4.2781 4.2781 0 1 1-8.5562 0 4.2781 4.2781 0 1 1 8.5562 0z" fill="#fff" stroke-width=".7"/>
    </g>
    <g transform="translate(0 -.00026004)">
      <path d="m238.54 280.6c3.2674-0.56746 22.978-5.2528 27.127-7.7602-2.6774-4.8285-7.4836-8.6056-3.7433-7.0179 2.014 0.85492 3.6064-5.7989-2.2394-10.885-16.973 5.5666-57.68 15.739-108.83 15.739-52.344 0-93.562-10.707-110.53-16.273-5.8458 5.0859-4.0252 10.865-4.3785 13.024-0.003084 0.01663 0.003637 2.7242 1.0695 4.8789 5.7535 6.2506 24.394 9.3317 27.662 9.8992 15.352 2.6662 30.705 6.6978 86.148 6.6978 51.289 0 72.366-5.6359 87.719-8.3021z" fill="#fff" stroke-width="1.7137"/>
      <g transform="matrix(1.0858 0 0 1.0858 -81.341 -69.111)">
        <path d="m132.91 289.66c-3.0093 0.52263-22.147 7.3004-25.969 9.6096 0.00335 0.01441-0.00284 0.0455 0 0.06082 0.32537 1.9887-3.3215 11.251 2.0625 15.935 15.632-5.1268 59.525-20.405 106.63-20.405 48.209 0 88.14 15.278 103.77 20.405 5.384-4.6841 1.7371-13.946 2.0625-15.935 0.00284-0.01532-0.00335-0.04641 0-0.06082-3.8215-2.3092-22.959-9.087-25.969-9.6096-14.14-2.4556-28.772-11.586-79.835-11.586-47.237 0-68.619 9.1307-82.759 11.586z" fill="#fff" stroke-width="1.5784"/>
        <g transform="matrix(1.3844 -.14324 .15642 1.2678 -86.626 -64.755)" fill-rule="evenodd">
          <path transform="matrix(.4996 0 0 .4996 56.864 150.9)" d="m115.51 301.56a1.8717 1.8717 0 1 1-3.7433 0 1.8717 1.8717 0 1 1 3.7433 0z" stroke-width="1.6"/>
          <path transform="matrix(.4996 0 0 .4996 55.527 153.31)" d="m115.51 301.56a1.8717 1.8717 0 1 1-3.7433 0 1.8717 1.8717 0 1 1 3.7433 0z" stroke-width="1.6"/>
          <path transform="matrix(.4996 0 0 .4996 57.398 154.91)" d="m115.51 301.56a1.8717 1.8717 0 1 1-3.7433 0 1.8717 1.8717 0 1 1 3.7433 0z" stroke-width="1.6"/>
          <path d="m113.52 303.67 8.526-3.1661-4.1846 2.3925 2.6858-0.08339-2.4924 1.1687 4.0012 0.27504-8.536-0.58675z" stroke-width="1px"/>
        </g>
        <g transform="matrix(1.3844 -.14324 .15642 1.2678 -45.032 -76.658)" fill-rule="evenodd">
          <path transform="matrix(.4996 0 0 .4996 56.864 150.9)" d="m115.51 301.56a1.8717 1.8717 0 1 1-3.7433 0 1.8717 1.8717 0 1 1 3.7433 0z" stroke-width="1.6"/>
          <path transform="matrix(.4996 0 0 .4996 55.527 153.31)" d="m115.51 301.56a1.8717 1.8717 0 1 1-3.7433 0 1.8717 1.8717 0 1 1 3.7433 0z" stroke-width="1.6"/>
          <path transform="matrix(.4996 0 0 .4996 57.398 154.91)" d="m115.51 301.56a1.8717 1.8717 0 1 1-3.7433 0 1.8717 1.8717 0 1 1 3.7433 0z" stroke-width="1.6"/>
          <path d="m113.52 303.67 8.526-3.1661-4.1846 2.3925 2.6858-0.08339-2.4924 1.1687 4.0012 0.27504-8.536-0.58675z" stroke-width="1px"/>
        </g>
        <g transform="matrix(1.3784 .19234 -.15163 1.2683 100.17 -120.86)" fill-rule="evenodd">
          <path transform="matrix(.4996 0 0 .4996 56.864 150.9)" d="m115.51 301.56a1.8717 1.8717 0 1 1-3.7433 0 1.8717 1.8717 0 1 1 3.7433 0z" stroke-width="1.6"/>
          <path transform="matrix(.4996 0 0 .4996 55.527 153.31)" d="m115.51 301.56a1.8717 1.8717 0 1 1-3.7433 0 1.8717 1.8717 0 1 1 3.7433 0z" stroke-width="1.6"/>
          <path transform="matrix(.4996 0 0 .4996 57.398 154.91)" d="m115.51 301.56a1.8717 1.8717 0 1 1-3.7433 0 1.8717 1.8717 0 1 1 3.7433 0z" stroke-width="1.6"/>
          <path d="m113.52 303.67 8.526-3.1661-4.1846 2.3925 2.6858-0.08339-2.4924 1.1687 4.0012 0.27504-8.536-0.58675z" stroke-width="1px"/>
        </g>
        <g transform="matrix(1.3844 .14324 .15642 -1.2678 54.434 659.46)" fill-rule="evenodd">
          <path transform="matrix(.4996 0 0 .4996 56.864 150.9)" d="m115.51 301.56a1.8717 1.8717 0 1 1-3.7433 0 1.8717 1.8717 0 1 1 3.7433 0z" stroke-width="1.6"/>
          <path transform="matrix(.4996 0 0 .4996 55.527 153.31)" d="m115.51 301.56a1.8717 1.8717 0 1 1-3.7433 0 1.8717 1.8717 0 1 1 3.7433 0z" stroke-width="1.6"/>
          <path transform="matrix(.4996 0 0 .4996 57.398 154.91)" d="m115.51 301.56a1.8717 1.8717 0 1 1-3.7433 0 1.8717 1.8717 0 1 1 3.7433 0z" stroke-width="1.6"/>
          <path d="m113.52 303.67 8.526-3.1661-4.1846 2.3925 2.6858-0.08339-2.4924 1.1687 4.0012 0.27504-8.536-0.58675z" stroke-width="1px"/>
        </g>
        <g transform="matrix(1.3844 .14324 .15642 -1.2678 96.412 670.42)" fill-rule="evenodd">
          <path transform="matrix(.4996 0 0 .4996 56.864 150.9)" d="m115.51 301.56a1.8717 1.8717 0 1 1-3.7433 0 1.8717 1.8717 0 1 1 3.7433 0z" stroke-width="1.6"/>
          <path transform="matrix(.4996 0 0 .4996 55.527 153.31)" d="m115.51 301.56a1.8717 1.8717 0 1 1-3.7433 0 1.8717 1.8717 0 1 1 3.7433 0z" stroke-width="1.6"/>
          <path transform="matrix(.4996 0 0 .4996 57.398 154.91)" d="m115.51 301.56a1.8717 1.8717 0 1 1-3.7433 0 1.8717 1.8717 0 1 1 3.7433 0z" stroke-width="1.6"/>
          <path d="m113.52 303.67 8.526-3.1661-4.1846 2.3925 2.6858-0.08339-2.4924 1.1687 4.0012 0.27504-8.536-0.58675z" stroke-width="1px"/>
        </g>
      </g>
    </g>
  </g>
</svg>
