<?xml version="1.0" encoding="UTF-8"?>
<svg width="900" height="600" xmlns="http://www.w3.org/2000/svg">
  <g transform="matrix(2.1739 0 0 2.1819 0 441.82)">
    <path d="m0-202.5h414v274.99h-414z" fill="#ce1126"/>
    <path d="m0-110.83h414v183.33h-414z" fill="#fff"/>
    <path d="m0-19.169h414v91.664h-414z"/>
    <g transform="matrix(1.0073 0 0 1.0036 -.46415 -202.76)" fill="#007a3d">
      <path d="m246.03 120.18c-0.558-0.295-1.186-0.768-1.395-1.054-0.314-0.438-0.132-0.456 1.163-0.104 2.318 0.629 3.814 0.383 5.298-0.873l1.308-1.103 1.54 0.784c0.848 0.428 1.748 0.725 2.008 0.656 0.667-0.176 2.05-1.95 2.005-2.564-0.054-0.759 0.587-0.568 0.896 0.264 0.615 1.631-0.281 3.502-1.865 3.918-0.773 0.201-1.488 0.127-2.659-0.281-1.438-0.502-1.684-0.494-2.405 0.058-1.618 1.239-3.869 1.355-5.894 0.299z"/>
      <path d="m251.76 114.94c-0.563-0.717-1.239-3.424-1.021-4.088 0.192-0.576 0.391-0.691 0.914-0.527 0.918 0.287 1.13 0.92 0.993 3.064-0.107 1.747-0.366 2.206-0.886 1.551z"/>
      <path d="m184.24 112.99c-0.185 1.311 2.325 4.568 3.458 5.158-0.77 0.345-1.728 0.188-2.434 0.576-3.948 3.948-18.367 18.006-21 21.366 7.799 0.154 16.448-0.106 23.761-0.44-7e-3 -5.299 5.018-5.572 8.381-7.502 1.73 2.725 6.075 2.516 6.618 6.617 0 4.91 9e-3 12.307 9e-3 17.646h-66.625c-1.172 5.176-5.844 9.125-12.354 7.5 2.014-2.104 5.405-2.827 6.619-5.734 1.024-6.365-2.046-10.296-4.031-13.906 3.284-1.195 3.782-1.494 7.121-3.737-2.344 7.12 6.091 6.338 12.353 6.175 0.211-2.417 0.089-5.271-1.766-5.624 2.396-0.87 2.794-1.168 6.619-4.412v9.593c14.886 0 30.942-0.111 46.139-0.111 0-3.002 0.795-7.824-1.581-7.824-2.269 0-0.107 6.173-1.87 6.173h-35.63c0-1.328-0.034-4.104-0.034-6.104 1.51-1.51 1.331-1.379 11.648-11.697 1.028-1.031 8.266-7.568 14.599-13.713z"/>
      <path d="m273.3 112.74c2.487 1.339 4.457 3.191 7.502 3.972-0.354 1.261-1.476 1.759-1.77 3.087v26.91c3.402 0.75 4.118-1.178 5.737-2.205 0.442 4.307 3.186 8.529 3.088 11.91h-14.559c2e-3 -14.555 2e-3 -29.114 2e-3 -43.674z"/>
      <path d="m253.89 127.15s5.296-4.471 5.296-4.643v23.484l3.814-6e-3c0-8.947-0.118-18.022-0.118-26.338 1.548-1.549 4.58-3.791 5.338-5.358v42.06c-10.746 0-30.793 0.012-33.443 0.012-0.493-8.729-0.577-17.771 9.6-15.826v-3.563c-0.311-0.609-0.868 0.147-0.998-0.645 1.615-1.617 2.163-2.029 6.538-5.852 0 4.612 0.08 15.5 0.08 15.5 1.07 0 3.153 4e-3 3.857 4e-3 1e-3 2e-3 0.036-18.227 0.036-18.829zm-12.553 18.603c0.716 1.075 3.154 1.056 3.04-0.755-0.411-1.493-3.616-0.924-3.04 0.755z"/>
      <circle cx="144.53" cy="161.37" r="2.042"/>
      <path d="m207.55 112.78c2.488 1.339 4.457 3.191 7.502 3.971-0.353 1.26-1.476 1.76-1.768 3.087v26.911c3.401 0.749 4.117-1.18 5.736-2.206 0.441 4.308 3.185 8.528 3.088 11.91h-14.56c2e-3 -14.556 2e-3 -29.114 2e-3 -43.673z"/>
    </g>
  </g>
</svg>
