<?xml version="1.0" encoding="UTF-8"?>
<svg width="900" height="600" xmlns="http://www.w3.org/2000/svg" xmlns:xlink="http://www.w3.org/1999/xlink">
  <defs>
    <path id="spearshape" transform="rotate(30)" d="m-1 55.426h2v-93.426c2-2 2-5 2-8 0-2 0-10-3-18.663-3 8.6632-3 16.663-3 18.663 0 3 0 6 2 8z" stroke-miterlimit="10"/>
  </defs>
  <rect width="900" height="600" fill="#fff"/>
  <rect width="900" height="180" fill="#000"/>
  <rect y="210" width="900" height="180" fill="#b00"/>
  <rect y="420" width="900" height="180" fill="#060"/>
  <g transform="translate(450,300) scale(3.75)">
    <g id="spear">
      <use fill="#000" xlink:href="#spearshape"/>
      <use fill="#fff" xlink:href="#spearshape"/>
    </g>
    <use transform="scale(-1,1)" xlink:href="#spear"/>
    <path d="m-19 24c3 8 13 24 19 24s16-16 19-24v-48c-3-8-13-24-19-24s-16 16-19 24z" fill="#b00"/>
    <path id="deco_r" d="m19 24c3-8 5-16 5-24s-2-16-5-24c-3 8-5 16-5 24s2 16 5 24z" fill="#000"/>
    <use transform="scale(-1,1)" xlink:href="#deco_r"/>
    <g fill="#fff">
      <ellipse rx="4" ry="6"/>
      <path id="deco_br" d="m1 5.85s4 8 4 21-4 21-4 21z"/>
      <use transform="scale(-1)" xlink:href="#deco_br"/>
      <use transform="scale(-1,1)" xlink:href="#deco_br"/>
      <use transform="scale(1,-1)" xlink:href="#deco_br"/>
    </g>
  </g>
</svg>
