<?xml version="1.0" encoding="UTF-8"?>
<svg width="1e3" height="600" xmlns="http://www.w3.org/2000/svg">
  <path d="m0 0h1e3v600h-1e3z" fill="#f00"/>
  <path d="m454.87 259.27c-11.177-6.9433-23.031-12.701-35.224-17.443-10.5 15.58-16.596 34.208-16.596 54.361 0 9.9915 1.5241 19.644 4.403 28.789 5.0804-11.685 11.516-23.031 19.306-33.87 8.2981-11.854 17.782-22.523 28.112-31.837zm-29.805-24.555c13.209 4.5724 25.91 10.5 38.103 17.443 2.7096-2.3709 5.5885-4.403 8.298-6.4352-12.87-7.1126-26.588-12.87-40.644-17.273-2.0322 2.0322-4.0644 4.0644-5.7578 6.2659zm11.854-12.024c15.241 4.0644 29.805 9.6528 43.522 16.935 3.2176-2.0322 6.4352-3.895 9.4835-5.7578-14.564-7.4513-29.975-12.87-45.893-16.765-2.5402 1.6935-4.9111 3.5563-7.1126 5.5885zm14.395-10.161c16.765 3.387 33.023 8.8061 48.264 16.257 15.411-7.4513 31.668-12.87 48.264-16.257-14.056-8.298-30.652-13.04-48.264-13.04s-34.039 4.7417-48.264 13.04zm103.81 4.7418c-15.919 3.7256-31.329 9.3141-45.893 16.596 3.2176 1.8628 6.2659 3.7257 9.4835 5.7578 13.887-7.282 28.45-12.87 43.522-16.935-2.2015-2.0322-4.5724-3.895-7.1126-5.4191zm13.209 11.346c-14.056 4.2337-27.604 9.9915-40.644 17.104 2.8789 2.0322 5.7578 4.2337 8.4674 6.4352 12.024-6.9433 24.725-12.87 37.934-17.443-1.6935-2.2015-3.5563-4.2337-5.7578-6.0965zm11.177 13.378c-12.193 4.5724-23.878 10.33-35.055 17.274 10.33 9.3141 19.644 19.983 28.112 31.837 7.6207 10.838 14.056 22.185 19.306 33.87 2.7096-9.3141 4.2337-18.798 4.2337-28.789 0-20.152-6.0965-38.781-16.596-54.191zm-8.298 66.384c-10.161-16.427-22.354-30.991-35.902-43.353-3.0483 2.2015-6.2659 4.403-9.1448 6.6046 22.862 21.338 41.321 48.095 53.006 79.255 2.7096-4.0644 5.2498-8.298 7.282-12.532-4.2337-10.161-9.3141-20.152-15.241-29.975zm-53.683-44.03c3.0483-2.2015 6.0965-4.403 9.3141-6.4352-2.7096-2.3709-5.5885-4.5724-8.4674-6.7739-3.2176 2.0322-6.4352 4.0644-9.6528 6.2659h0.16935c2.8789 2.2015 5.7578 4.5724 8.6368 6.9433zm-17.951-13.548c3.2176-2.0322 6.6046-4.0644 9.6528-5.9272-3.2176-2.0322-6.4352-4.0644-9.6528-5.9272-3.2176 1.8628-6.2659 3.895-9.4835 5.9272 3.2176 1.8628 6.2659 3.895 9.4835 5.9272zm-9.1448 6.6046c-3.2176-2.2015-6.2659-4.2337-9.4835-6.2659-2.8789 2.2015-5.7578 4.403-8.6368 6.6046 3.2176 2.2015 6.2659 4.2337 9.3141 6.4352 2.8789-2.3709 5.7578-4.5724 8.8061-6.7739zm9.1448 6.7739c-2.8789 2.2015-5.7578 4.5724-8.8061 7.1126 3.0482 2.3709 5.9272 4.9111 8.8061 7.4513 2.8789-2.5402 5.7578-5.0804 8.8061-7.4513-2.8789-2.3709-5.7578-4.9111-8.8061-7.1126zm0 31.668c-12.87 13.887-24.217 29.805-33.362 47.587-6.2659 11.854-11.177 24.217-14.903 36.579 14.225 7.9594 30.652 12.701 48.264 12.701s34.039-4.7418 48.264-12.701c-3.7256-12.362-8.6368-24.725-14.903-36.579-9.1448-17.782-20.322-33.7-33.362-47.587zm-55.885 64.183c11.008-28.112 27.265-52.667 47.248-72.989-2.8789-2.7096-5.7578-5.2498-8.8061-7.9594-23.201 22.523-41.829 50.466-53.175 82.811 3.2176 3.5563 6.6046 6.7739 10.33 9.8222 1.3548-3.895 2.8789-7.79 4.403-11.685zm64.522-72.989c19.983 20.322 36.24 44.877 47.417 72.989 1.5241 3.895 2.8789 7.79 4.2337 11.685 3.7257-3.0483 7.282-6.2659 10.5-9.8222-11.516-32.345-30.144-60.288-53.345-82.811-3.0483 2.7096-5.9272 5.2498-8.8061 7.9594zm-88.23 63.844c11.685-31.16 30.144-57.748 53.175-79.086-3.0483-2.3709-6.0965-4.5724-9.3142-6.7739-13.548 12.532-25.741 27.096-35.902 43.522-5.9272 9.6528-11.008 19.644-15.241 29.805 2.0322 4.403 4.5724 8.4674 7.282 12.532zm80.102-159.19c59.611 0 108.21 48.603 108.21 108.21 0 59.611-48.603 108.21-108.21 108.21-59.61 0-108.21-48.603-108.21-108.21 0-59.61 48.603-108.21 108.21-108.21zm47.756-23.709c-3.0483 3.5563-6.4352 8.1287-9.8222 15.411-0.84675-1.8628-0.84675-4.0644-0.3387-6.4352 0.84675-7.79 3.0483-12.532 7.1126-19.136 1.3548-2.3709 2.7096-4.403 3.387-6.9433 2.5402-7.6207 2.0322-17.782-3.5563-25.741 0.84674 8.9754-1.8628 16.427-4.9111 20.999-0.50805 0.84674-1.0161 1.3548-1.6935 2.0322-3.2176 3.2176-6.7739 6.4352-11.346 13.887-2.5402 4.0644-5.0804 8.9754-7.4513 16.765-1.0161-1.6935-1.3548-3.7256-1.1854-6.0965-0.33869-7.9594 1.0161-12.87 3.895-20.152 1.0161-2.5402 2.0322-4.7417 2.3709-7.4513 1.1854-7.79-0.84674-17.782-7.6207-24.725 2.2015 8.6368 0.84674 16.427-1.5241 21.507-0.50805 0.84674-0.84674 1.5241-1.3548 2.2015-2.7096 3.7257-5.5885 7.4513-9.1448 15.411-1.6935 4.5724-3.5563 9.8222-4.5724 17.782-1.3548-1.5241-2.0322-3.5563-2.2015-5.9272-1.5241-7.79-1.0161-12.87 0.67739-20.491 0.67739-2.5402 1.3548-4.9111 1.1854-7.6207 0-7.9594-3.5563-17.443-11.346-23.37 3.5563 8.2981 3.387 16.257 1.8628 21.677-0.3387 0.67739-0.67739 1.5241-1.0161 2.2015-2.0322 4.2337-4.403 8.298-6.6046 16.765-1.0161 4.7417-2.0322 10.33-1.8628 18.29-1.3548-1.3548-2.3709-3.2176-3.0483-5.4191-2.7096-7.6207-3.0483-12.532-2.3709-20.491 0.16934-2.7096 0.33869-5.0804 0-7.6207-1.3548-7.9594-6.4352-16.765-14.903-21.338 4.7418 7.6207 5.7578 15.58 5.0804 20.999-0.16935 0.84674-0.33869 1.6935-0.50805 2.5402-1.3548 4.403-3.0483 8.8061-3.895 17.612-0.33869 4.7417-0.50804 10.33 1.0161 18.29-1.6935-1.1854-2.8789-2.8789-3.895-4.9111-3.895-7.1126-4.9111-12.024-5.5885-19.814-0.16935-2.7096-0.3387-5.0804-1.3548-7.6207-2.3709-7.6206-8.8061-15.58-17.951-18.628 5.9272 6.6046 8.298 14.225 8.298 19.814 0 0.84675 0 1.6935-0.16935 2.5402-0.67739 4.5724-1.5241 9.3141-1.0161 17.951 0.50805 4.7417 1.1854 10.33 3.895 17.951-1.8628-0.84674-3.387-2.3709-4.7417-4.2337-4.9111-6.2659-6.6046-11.008-8.4674-18.628-0.67739-2.7096-1.1854-4.9111-2.5402-7.4513-3.5563-6.9433-11.177-13.887-20.66-15.58 6.7739 5.7578 10.33 13.04 11.346 18.459 0.16935 0.84674 0.16935 1.6935 0.16935 2.5402 0.16935 4.5724 0 9.3141 1.8628 17.951 1.1854 4.5724 2.7096 9.9915 6.6046 16.935-1.8628-0.50804-3.5563-1.6935-5.2498-3.387-5.9272-5.4191-8.4674-9.8222-11.346-17.104-1.0161-2.5402-2.0322-4.7418-3.5563-6.9433-4.7418-6.2659-13.209-11.854-23.031-12.024 7.79 4.5724 12.362 11.008 14.225 16.257 0.16935 0.84674 0.33869 1.6935 0.50805 2.5402 0.84673 4.5724 1.3548 9.3142 4.5724 17.443 1.8628 4.403 4.403 9.4835 9.3141 15.749-2.0322-0.16935-3.895-1.1854-5.7578-2.5402-6.6046-4.403-9.8222-8.4674-14.056-15.072-1.3548-2.3709-2.5402-4.403-4.5724-6.2659-5.5885-5.5885-14.903-9.8222-24.555-8.4674 8.2981 3.387 13.887 9.1448 16.596 14.056 0.33869 0.67739 0.6774 1.5241 1.0161 2.3709 1.5241 4.2337 2.7096 8.8061 7.1126 16.427 2.5402 4.0644 5.7578 8.6368 11.685 14.225-2.0322 0-4.0644-0.6774-6.0965-1.6935-7.282-3.387-11.008-6.7739-16.088-12.701-1.8628-2.0322-3.387-3.895-5.5885-5.5885-6.4352-4.5724-16.257-7.282-25.572-4.403 8.8061 2.0322 15.241 6.7739 18.459 11.177 0.6774 0.67739 1.0161 1.3548 1.3548 2.2015 2.2015 4.0644 4.2337 8.4674 9.8222 15.072 3.0483 3.7257 6.9433 7.79 13.548 12.362-1.8628 0.3387-3.895 0-6.2659-0.84674-7.6207-2.0322-11.854-4.9111-17.782-9.9915-2.0322-1.6935-3.895-3.2176-6.2659-4.5724-7.1126-3.5563-17.273-4.5724-26.08-0.33869 8.9754 0.50805 16.088 4.403 20.152 8.1287 0.50805 0.6774 1.0161 1.1854 1.5241 2.0322 2.8789 3.5563 5.4191 7.6207 12.024 13.378 3.5563 3.0483 8.1287 6.4352 15.411 9.9915-1.8628 0.67739-4.0644 0.67739-6.2659 0.16934-7.9594-0.84673-12.532-3.0482-19.306-7.1126-2.3709-1.3548-4.403-2.7096-6.9433-3.387-7.6207-2.5402-17.612-2.0322-25.572 3.5563 8.8061-0.84675 16.427 1.8628 20.999 4.9111 0.67739 0.50803 1.3548 1.0161 1.8628 1.6935 3.387 3.2176 6.6046 6.7739 13.887 11.346 4.0644 2.5402 9.1448 5.2498 16.765 7.4513-1.6935 1.0161-3.7257 1.3548-6.0965 1.3548-7.9594 0.16935-12.87-1.1854-20.152-4.0643-2.5402-1.0161-4.7417-2.0322-7.4513-2.3709-7.79-1.1854-17.782 0.84674-24.725 7.6207 8.6368-2.2015 16.596-0.84673 21.507 1.5241 0.84674 0.50804 1.5241 0.84673 2.2015 1.3548 3.7256 2.7096 7.4513 5.5885 15.58 9.1448 4.403 1.6935 9.6528 3.5563 17.612 4.5724-1.5241 1.3548-3.5563 2.0322-5.7578 2.2015-7.9594 1.6935-12.87 1.0161-20.66-0.67739-2.5402-0.67739-4.9111-1.1854-7.6207-1.1854-7.9594 0-17.443 3.5563-23.201 11.346 8.1287-3.5563 16.088-3.387 21.507-1.8628 0.84673 0.33869 1.5241 0.6774 2.3709 1.0161 4.0644 2.0322 8.298 4.403 16.765 6.6046 4.5724 1.0161 10.161 2.0322 18.12 1.8628-1.3548 1.3548-3.2176 2.3709-5.4191 3.0483-7.4513 2.7096-12.532 3.0483-20.322 2.3709-2.7096-0.16935-5.0804-0.33869-7.79 0-7.79 1.3548-16.596 6.4352-21.168 15.072 7.4513-4.9111 15.411-5.9272 20.999-5.2498 0.84673 0.16934 1.5241 0.3387 2.3709 0.50805 4.403 1.5241 8.8061 3.0482 17.612 3.895 4.7417 0.3387 10.33 0.50805 18.29-1.0161-1.1854 1.6935-2.8789 2.8789-4.9111 3.895-6.9433 3.895-12.024 4.9111-19.814 5.5885-2.7096 0.33869-5.0804 0.50804-7.6207 1.3548-7.6207 2.3709-15.411 8.8061-18.628 17.951 6.7739-5.9272 14.395-8.1287 19.983-8.298 0.84675 0 1.6935 0 2.5402 0.16935 4.403 0.67739 9.1448 1.5241 17.951 1.0161 4.7417-0.3387 10.33-1.1854 17.782-3.895-0.6774 1.8628-2.2015 3.387-4.2337 4.7418-6.2659 4.9111-11.008 6.6046-18.628 8.4674-2.5402 0.67739-4.9111 1.1854-7.282 2.5402-7.1126 3.5563-13.887 11.177-15.58 20.66 5.5885-6.7739 12.87-10.33 18.29-11.346 0.84674-0.16935 1.6935-0.16935 2.5402-0.16935 4.5724-0.16934 9.4835 0 17.951-1.8628 4.5724-1.1854 9.9915-2.7096 17.104-6.6046-0.50805 1.8628-1.8628 3.7256-3.5563 5.2498-5.4191 5.9272-9.8222 8.4674-17.104 11.346-2.3709 1.1854-4.5724 2.0322-6.7739 3.5563-6.4352 4.7417-12.024 13.209-12.193 23.031 4.5724-7.79 11.177-12.362 16.427-14.225 0.84674-0.16935 1.5241-0.33869 2.3709-0.50804 4.5724-0.84674 9.3141-1.3548 17.443-4.5724 4.403-1.8628 9.4835-4.403 15.919-9.1448-0.33869 1.8628-1.1854 3.7257-2.7096 5.5885-4.403 6.6046-8.2981 9.8222-15.072 14.056-2.2015 1.3548-4.2337 2.5402-6.2659 4.5724-5.5885 5.5885-9.6528 14.903-8.298 24.555 3.2176-8.298 8.9754-13.887 13.887-16.596 0.84675-0.3387 1.5241-0.67739 2.3709-1.0161 4.403-1.3548 8.9754-2.7096 16.427-7.1126 4.0644-2.5402 8.6368-5.7578 14.225-11.685 0.16935 2.0322-0.50804 4.0644-1.6935 6.0965-3.387 7.282-6.7739 11.008-12.701 16.088-2.0322 1.8628-3.895 3.387-5.4191 5.5885-4.5724 6.4352-7.282 16.257-4.403 25.572 1.8628-8.8061 6.6046-15.241 11.177-18.459 0.67739-0.50805 1.3548-1.0161 2.0322-1.3548 4.0644-2.2015 8.4674-4.2337 15.241-9.8222 3.5563-3.0483 7.6207-6.9433 12.193-13.548 0.33869 1.8628 0 4.0643-0.6774 6.2659-2.2015 7.6207-4.9111 11.854-10.161 17.782-1.6935 2.0322-3.2176 3.895-4.403 6.4352-3.5563 7.1126-4.7417 17.104-0.50804 25.91 0.67739-8.9754 4.403-16.088 8.298-19.983 0.50805-0.67738 1.1854-1.1854 1.8628-1.6935 3.7257-2.8789 7.6207-5.4191 13.378-12.024 3.0483-3.5563 6.4352-8.1287 9.9915-15.411 0.6774 1.8628 0.6774 4.0644 0.33869 6.2659-1.0161 7.9594-3.0483 12.532-7.1126 19.306-1.5241 2.3709-2.7096 4.403-3.5563 6.9433-2.3709 7.6207-1.8628 17.782 3.7257 25.741-0.84675-8.9754 1.6935-16.596 4.9111-21.168 0.50805-0.67739 1.0161-1.3548 1.5241-1.8628 3.2176-3.387 6.7739-6.6046 11.516-13.887 2.3709-4.0643 5.0804-9.1448 7.282-16.765 1.0161 1.6935 1.3548 3.7257 1.3548 6.0965 0.33869 7.9594-1.0161 12.87-4.0644 20.152-1.0161 2.5402-1.8628 4.7417-2.3709 7.4513-1.1854 7.79 0.84674 17.782 7.6207 24.725-2.2015-8.6368-0.84674-16.596 1.6935-21.507 0.3387-0.84674 0.67739-1.5241 1.1854-2.2015 2.7096-3.7256 5.7578-7.4513 9.1448-15.58 1.8628-4.403 3.7256-9.6528 4.7417-17.612 1.1854 1.5241 1.8628 3.5563 2.2015 5.7578 1.5241 7.9594 1.0161 12.87-0.84674 20.66-0.67739 2.5402-1.1854 4.9111-1.1854 7.6207 0 7.9594 3.7257 17.443 11.516 23.201-3.5563-8.1287-3.5563-16.088-1.8628-21.507 0.16935-0.84674 0.50804-1.5241 0.84674-2.3709 2.0322-4.0644 4.403-8.2981 6.6046-16.765 1.0161-4.5724 2.0322-10.161 1.8628-18.12 1.5241 1.3548 2.3709 3.2176 3.0483 5.4191 2.8789 7.4513 3.0483 12.532 2.5402 20.491-0.33869 2.5402-0.50804 4.9111 0 7.6207 1.1854 7.9594 6.2659 16.765 14.903 21.338-4.7418-7.6207-5.9272-15.58-5.0804-20.999 0-0.84674 0.16934-1.6935 0.50805-2.5402 1.3548-4.403 3.0482-8.8061 3.895-17.612 0.16934-4.7418 0.33869-10.33-1.0161-18.29 1.5241 1.1854 2.8789 2.8789 3.895 4.9111 3.895 6.9433 4.9111 12.024 5.5885 19.814 0.16935 2.7096 0.33869 5.0804 1.1854 7.6207 2.5402 7.6207 8.8061 15.411 18.12 18.628-5.9272-6.7739-8.298-14.395-8.4674-19.983 0-0.84674 0-1.6935 0.16935-2.5402 0.67739-4.403 1.6935-9.1448 1.0161-17.951-0.33869-4.7418-1.1854-10.33-3.7256-17.782 1.6935 0.84673 3.2176 2.2015 4.5724 4.2337 4.9111 6.2659 6.7739 11.008 8.6368 18.628 0.50804 2.5402 1.1854 4.9111 2.3709 7.282 3.7256 7.1126 11.177 13.887 20.83 15.58-6.9433-5.5885-10.5-12.87-11.516-18.29-0.16934-0.84674-0.16934-1.6935-0.16934-2.5402 0-4.5724 0.16934-9.3141-1.6935-17.951-1.1854-4.5724-2.8789-9.9915-6.7739-17.104 2.0322 0.50805 3.7256 1.8628 5.2498 3.5563 5.9272 5.4191 8.4674 9.8222 11.516 17.104 1.0161 2.3709 1.8628 4.5724 3.5563 6.7739 4.7417 6.4352 13.209 12.024 22.862 12.193-7.6207-4.5724-12.193-11.177-14.056-16.427-0.3387-0.84674-0.50805-1.5241-0.6774-2.3709-0.67738-4.5724-1.3548-9.3141-4.5724-17.443-1.8628-4.403-4.2337-9.4835-9.1448-15.749 2.0322 0.16935 3.895 1.0161 5.7578 2.5402 6.6046 4.403 9.8222 8.298 13.887 15.072 1.3548 2.2015 2.7096 4.403 4.5724 6.2659 5.5885 5.5885 14.903 9.6528 24.555 8.298-8.2981-3.2176-13.887-8.9754-16.427-13.887-0.50804-0.84674-0.84675-1.5241-1.0161-2.3709-1.5241-4.403-2.8789-8.9754-7.282-16.427-2.5402-4.0644-5.7578-8.6368-11.516-14.225 1.8628 0 3.895 0.50805 6.0965 1.6935 7.1126 3.387 11.008 6.7739 16.088 12.701 1.6935 2.0322 3.2176 3.895 5.4191 5.4191 6.4352 4.7417 16.257 7.282 25.572 4.5724-8.6368-2.0322-15.072-6.7739-18.459-11.346-0.50804-0.6774-1.0161-1.3548-1.3548-2.0322-2.2015-4.0644-4.0644-8.4674-9.6528-15.241-3.2176-3.5563-7.1126-7.6207-13.717-12.193 2.0322-0.33869 4.0644 0 6.2659 0.67739 7.6207 2.2015 11.854 5.0804 17.951 10.161 2.0322 1.6935 3.895 3.2176 6.2659 4.403 7.1126 3.5563 17.104 4.7417 25.91 0.50804-8.9754-0.67738-15.919-4.403-19.983-8.298-0.67739-0.50803-1.1854-1.1854-1.6935-1.8628-2.7096-3.7256-5.4191-7.6207-11.854-13.378-3.7257-3.0483-8.2981-6.4352-15.411-9.9915 1.8628-0.67739 3.895-0.67739 6.2659-0.3387 7.79 1.0161 12.532 3.0483 19.136 7.282 2.3709 1.3548 4.403 2.5402 6.9433 3.387 7.6207 2.3709 17.782 1.8628 25.741-3.7257-8.9754 0.84674-16.427-1.6935-20.999-4.9111-0.67739-0.50805-1.3548-1.0161-2.0322-1.5241-3.2176-3.2176-6.4352-6.7739-13.887-11.516-4.0644-2.3709-8.9754-5.0804-16.765-7.282 1.6935-1.0161 3.895-1.3548 6.0965-1.3548 8.1287-0.33869 13.04 1.0161 20.152 4.0644 2.5402 1.0161 4.7418 1.8628 7.4513 2.3709 7.79 1.1854 17.782-0.84674 24.725-7.6207-8.6367 2.2015-16.427 0.84674-21.507-1.6935-0.6774-0.3387-1.5241-0.67739-2.2015-1.1854-3.7256-2.7096-7.4513-5.5885-15.411-9.1448-4.403-1.6935-9.8222-3.5563-17.782-4.7418 1.5241-1.1854 3.5563-1.8628 5.9272-2.2015 7.79-1.5241 12.87-1.0161 20.491 0.84674 2.5402 0.6774 4.9111 1.1854 7.6207 1.1854 7.9594 0 17.443-3.7257 23.37-11.346-8.2981 3.387-16.257 3.387-21.507 1.6935-0.84673-0.16935-1.6935-0.50804-2.3709-0.84674-4.2337-2.0322-8.298-4.403-16.765-6.6046-4.7417-1.0161-10.161-2.0322-18.29-1.8628 1.3548-1.5241 3.2176-2.3709 5.4191-3.0483 7.6207-2.8789 12.701-3.0482 20.491-2.5402 2.7096 0.33869 5.0804 0.50804 7.79 0 7.79-1.1854 16.596-6.2659 21.168-14.903-7.6207 4.7417-15.411 5.9272-20.999 5.2498-0.84673-0.16935-1.6935-0.3387-2.5402-0.67739-4.403-1.3548-8.8061-3.0483-17.443-3.895-4.7418-0.16935-10.5-0.33869-18.29 1.1854 1.0161-1.6935 2.7096-3.0483 4.9111-4.0644 6.9433-3.895 11.854-4.9111 19.644-5.5885 2.7096-0.16936 5.0804-0.33871 7.6207-1.1854 7.6207-2.5402 15.58-8.8061 18.628-18.12-6.6046 5.9272-14.225 8.298-19.814 8.4674-0.84674 0-1.6935 0-2.5402-0.16935-4.5724-0.67739-9.3141-1.6935-17.951-1.0161-4.7417 0.33869-10.33 1.1854-17.951 3.895 0.84674-1.8628 2.3709-3.387 4.2337-4.7418 6.2659-4.9111 11.008-6.7739 18.628-8.6368 2.7096-0.50804 4.9111-1.1854 7.4513-2.3709 6.9433-3.7256 13.887-11.177 15.58-20.83-5.7578 6.9433-12.87 10.5-18.459 11.516-0.84674 0.16935-1.6935 0.16935-2.5402 0.16935-4.5724 0-9.3141-0.16935-17.782 1.6935-4.7418 1.1854-10.161 2.8789-17.104 6.7739 0.50805-2.0322 1.6935-3.7257 3.387-5.2498 5.4191-5.9272 9.8222-8.4674 17.104-11.516 2.5402-1.0161 4.7417-1.8628 6.9433-3.5563 6.2659-4.7417 11.854-13.209 12.024-22.862-4.5724 7.6207-11.008 12.193-16.257 14.056-0.84675 0.3387-1.6935 0.50805-2.5402 0.6774-4.5724 0.84674-9.3142 1.3548-17.443 4.5724-4.2337 1.8628-9.3141 4.2337-15.749 9.1448 0.16934-1.8628 1.1854-3.895 2.5402-5.7578 4.403-6.6046 8.4674-9.8222 15.072-13.887 2.3709-1.3548 4.403-2.7096 6.2659-4.5724 5.5885-5.5885 9.8222-14.903 8.4674-24.555-3.387 8.2981-9.1448 13.887-14.056 16.596-0.67739 0.3387-1.5241 0.67739-2.2015 0.84674-4.403 1.5241-8.9754 2.8789-16.596 7.282-4.0644 2.5402-8.6367 5.7578-14.225 11.516 0-1.8628 0.67739-3.895 1.6935-5.9272 3.387-7.282 6.7739-11.008 12.701-16.257 2.0322-1.6935 3.895-3.2176 5.5885-5.4191 4.5724-6.4352 7.282-16.257 4.403-25.572-2.0322 8.6368-6.7739 15.072-11.177 18.459-0.6774 0.50804-1.3548 1.0161-2.2015 1.3548-4.0644 2.2015-8.4674 4.0644-15.072 9.6528-3.7257 3.2176-7.79 7.1126-12.193 13.717-0.50804-1.8628-0.16935-4.0644 0.67739-6.2659 2.2015-7.6206 4.9111-11.854 9.9915-17.951 1.6935-2.0322 3.387-3.7256 4.5724-6.2659 3.5563-7.1126 4.5724-17.104 0.3387-25.91-0.50804 8.9754-4.2337 15.919-8.1287 19.983-0.67739 0.6774-1.1854 1.1854-1.8628 1.6935-3.7256 2.7096-7.79 5.4191-13.548 12.024z" fill="#ff0"/>
</svg>
