<?xml version="1.0" encoding="UTF-8"?>
<svg width="1800" height="1200" version="1.0" xmlns="http://www.w3.org/2000/svg">
  <rect width="1800" height="1200" fill="#009"/>
  <rect y="300" width="1800" height="600" fill="#c00"/>
  <g fill="#fff" fill-rule="evenodd" stroke="#c00" stroke-width="3">
    <rect x="550.11" y="631.42" width="699.77" height="113.15"/>
    <path d="m549.62 744.57-11.303 26.624h723.36l-11.302-26.624z"/>
    <path d="m1108.3 744.55-13.364 26.66h160.37l-13.364-26.66z"/>
    <path d="m1142.1 744.57-6.906 26.624h82.873l-6.9061-26.624z"/>
    <path d="m1154.3 744.57-4.4634 26.624h53.561l-4.4634-26.624z"/>
    <path d="m815.93 744.57-14.415 26.624h194.98l-14.415-26.624z"/>
    <rect x="546.18" y="629.7" width="707.64" height="26.624"/>
    <g transform="matrix(2.1443 0 0 2.219 115.73 98.074)" stroke-width="1.3753">
      <rect x="462.79" y="240.46" width="62.5" height="50.792"/>
      <rect x="507.5" y="264.26" width="6.25" height="26.986"/>
      <rect x="480" y="264.26" width="6.2501" height="26.986"/>
    </g>
    <path d="m858.81 744.66-8.1432 26.447h97.719l-8.1432-26.447z"/>
    <path d="m872.13 744.43-4.6098 20.184h63.317l-4.6098-20.184z"/>
    <rect x="816.58" y="629.02" width="165.42" height="115.41"/>
    <rect x="949.12" y="684.47" width="13.483" height="59.883"/>
    <rect x="838.28" y="684.46" width="13.493" height="59.883"/>
    <rect x="859.98" y="604.11" width="80.002" height="140.36"/>
    <rect x="919.01" y="684.46" width="13.483" height="59.883"/>
    <rect x="866.4" y="684.46" width="13.493" height="59.883"/>
    <path d="m860.6 627 38.256 56.824 40.508-56.824z"/>
    <rect x="1156.4" y="631.42" width="39.313" height="139.78"/>
    <rect x="1162.9" y="631.42" width="26.183" height="139.78"/>
    <g transform="matrix(2.219 0 0 2.219 74.425 98.074)">
      <path transform="matrix(1.236 0 0 .79988 -84.448 67.379)" d="m245 280-5 15h60l-5-15h-50z" stroke-width="1.3597"/>
      <path transform="matrix(.5811 0 0 .79988 90.856 67.379)" d="m245 280-5 15h60l-5-15z" stroke-width="1.983"/>
      <path transform="matrix(.37077 0 0 .79988 147.56 67.379)" d="m245 280-5 15h60l-5-15z" stroke-width="2.4826"/>
      <rect x="217.91" y="240.35" width="62.008" height="50.992" stroke-width="1.352"/>
      <rect x="230" y="264.26" width="6.2499" height="26.986" stroke-width="1.352"/>
      <rect x="258.75" y="264.27" width="6.25" height="26.986" stroke-width="1.352"/>
      <rect x="239.17" y="240.35" width="17.717" height="62.99" stroke-width="1.352"/>
      <rect x="242.11" y="240.35" width="11.799" height="62.99" stroke-width="1.352"/>
    </g>
    <rect x="538.32" y="604.78" width="723.36" height="26.624"/>
    <path d="m1270.9 618.89 1.1823-82.388s-3.5483 23.154-14.196 23.154h-715.12c-10.648 0-14.197-23.154-14.197-23.154l1.1824 82.388z"/>
    <path d="m1263.3 602.9 1.1582-64.418s-3.476 23.164-13.907 23.164h-700.55c-10.431 0-13.908-23.164-13.908-23.164l1.1583 64.418z"/>
    <rect x="518.24" y="764.53" width="760.62" height="34.231"/>
    <rect x="506.63" y="771.86" width="783.84" height="34.231"/>
    <rect x="486.31" y="791.42" width="827.39" height="34.231"/>
    <rect x="457.27" y="815.88" width="885.45" height="34.231"/>
    <rect x="428.43" y="850.3" width="943.13" height="33.85"/>
    <rect x="605.15" y="764.53" width="39.313" height="119.81"/>
    <rect x="611.7" y="764.53" width="26.209" height="119.81"/>
    <rect x="1155.5" y="764.53" width="39.313" height="119.81"/>
    <rect x="1162.1" y="764.53" width="26.209" height="119.81"/>
    <rect x="805.65" y="600.18" width="188.7" height="28.62" ry="14.31"/>
    <path d="m997.07 617.01 1.2127-94.351s-3.6392 23.143-14.56 23.143h-167.44c-10.921 0-14.561-23.143-14.561-23.143l1.2127 94.351z"/>
    <path d="m981.92 592.55 1.0146-75.607s-3.0448 18.545-12.182 18.545h-140.1c-9.1372 0-12.183-18.545-12.183-18.545l1.0146 75.607z"/>
    <path d="m853.94 591.97 44.746 38.598 47.38-38.598z"/>
    <path d="m927.18 390.14 0.16821-20.358c-21.033 0-15.812-22.15-15.812-30.542 6.1994-8.4449 7.9326-20.226-9.3692-28.797-16.935 9.5655-15.599 20.191-9.3688 28.087 0.09297 9.3256 6.9158 31.252-16.137 31.252l0.16782 20.358z"/>
    <path d="m942.8 416.2 0.24715-26.85s6.1253-4.93 4.1494-11.966c-1.9764-7.0356-10.989 8.8712-10.989 8.8712h-68.5s-10.365-15.907-12.341-8.8712c-1.9758 7.0357 5.5015 11.966 5.5015 11.966l0.24652 26.85z"/>
    <rect x="871.25" y="354.22" width="61.505" height="14.885"/>
    <rect x="866.64" y="370.62" width="69.234" height="14.745"/>
    <path d="m874.99 386.15-0.26949-15.32c4.3675-3.9718 6.0609 7.8706 6.0609 7.8706s1.8005-16.583 20.517-23.96c18.716 7.3767 20.517 24.966 20.517 24.966s1.6941-12.849 6.0616-8.8771l-0.27022 15.32z"/>
    <rect x="879.36" y="339.63" width="45.297" height="14.204"/>
    <path d="m870.8 418.25-0.30951-17.595c5.0159-4.5614 6.9607 9.039 6.9607 9.039s2.0678-19.045 23.563-27.517c21.495 8.4718 23.562 28.673 23.562 28.673s1.9456-14.756 6.9615-10.195l-0.31033 17.595z"/>
    <path d="m952.63 453.04 0.30656-33.303s7.5976-6.115 5.1468-14.842c-2.4514-8.7267-13.63 11.004-13.63 11.004h-84.965s-12.856-19.73-15.307-11.004c-2.4507 8.7268 6.8239 14.842 6.8239 14.842l0.30578 33.303z"/>
    <path d="m867.02 453.29-0.35451-20.154c5.7454-5.2248 7.973 10.354 7.973 10.354s2.3685-21.815 26.99-31.519c24.621 9.7038 26.989 32.843 26.989 32.843s2.2285-16.902 7.9739-11.678l-0.35547 20.154z"/>
    <path d="m960.77 496.58 0.35464-39.346s8.7894-7.2244 5.9542-17.535c-2.836-10.31-15.768 13-15.768 13h-98.293s-14.873-23.31-17.708-13c-2.8352 10.31 7.8944 17.535 7.8944 17.535l0.35377 39.346z"/>
    <path d="m861.55 496.22-0.41014-23.315c6.6467-6.0445 9.2237 11.978 9.2237 11.978s2.74-25.237 31.224-36.463c28.483 11.226 31.223 37.995 31.223 37.995s2.5781-19.554 9.2248-13.51l-0.41123 23.315z"/>
    <path d="m965.7 542.77 0.39076-43.217s9.6838-7.9352 6.56-19.26c-3.1246-11.324-17.373 14.279-17.373 14.279h-108.3s-16.387-25.603-19.51-14.279c-3.1237 11.325 8.6977 19.26 8.6977 19.26l0.38976 43.217z"/>
    <path d="m970.06 560.01 0.41873-34.355s10.377-6.3081 7.0297-15.31c-3.3483-9.0023-18.617 11.351-18.617 11.351h-116.05s-17.56-20.353-20.907-11.351c-3.3473 9.0024 9.3204 15.31 9.3204 15.31l0.41768 34.355z"/>
    <path d="m854.04 540.25-0.47687-27.109c7.7282-7.028 10.725 13.927 10.725 13.927s3.1859-29.344 36.305-42.396c33.118 13.053 36.304 44.177 36.304 44.177s2.9976-22.736 10.726-15.708l-0.47816 27.109z"/>
    <path d="m851.87 592.19-0.02735-28.567c8.0235-5.1802 12.618 22.59 12.618 22.59s1.1535-41.83 35.538-51.451c34.383 9.6208 35.536 51.451 35.536 51.451s4.5955-27.77 12.619-22.59l-0.02868 28.567z"/>
    <path d="m857.65 630.96-0.43385-31.443c7.0312-8.1516 9.7574 16.153 9.7574 16.153s2.8986-34.034 33.031-49.174c30.131 15.139 33.03 51.24 33.03 51.24s2.7273-26.37 9.7586-18.219l-0.43502 31.443z"/>
    <rect x="988.52" y="684.47" width="13.868" height="59.883"/>
    <rect x="1082.8" y="684.46" width="13.868" height="59.883"/>
    <rect x="1035.7" y="684.46" width="13.868" height="59.883"/>
    <rect x="1013.5" y="684.46" width="13.868" height="59.883"/>
    <rect x="1057.9" y="684.46" width="13.868" height="59.883"/>
    <rect x="703.6" y="684.47" width="13.868" height="59.883"/>
    <rect x="748.76" y="684.47" width="13.868" height="59.883"/>
    <rect x="726.57" y="684.46" width="13.868" height="59.883"/>
    <rect x="793.91" y="684.47" width="13.868" height="59.883"/>
    <rect x="770.95" y="684.46" width="13.868" height="59.883"/>
    <rect x="548.16" y="603.31" width="157.93" height="28.864" ry="14.432"/>
    <path d="m705.71 620.26 1.2127-94.351s-3.6392 23.143-14.56 23.143h-133.44c-10.921 0-14.561-23.143-14.561-23.143l1.2127 94.351z"/>
    <path d="m693.07 599.11 1.0146-75.607s-9.0448 18.545-18.182 18.545h-100.1c-9.1372 0-18.183-18.545-18.183-18.545l1.0146 75.607z"/>
    <path d="m591.79 583.49 33.766 29.127 35.754-29.127z"/>
    <path d="m647.07 447.18 0.12694-15.363c-15.872 0-11.932-16.715-11.932-23.048 4.6782-6.3728 5.9862-15.263-7.0702-21.731-12.779 7.2184-11.771 15.237-7.0699 21.195 0.07016 7.0374 5.2188 23.584-12.177 23.584l0.12664 15.363z"/>
    <path d="m658.86 466.85 0.18651-20.261s4.6223-3.7203 3.1313-9.0296c-1.4914-5.3092-8.2924 6.6944-8.2924 6.6944h-51.692s-7.8218-12.004-9.3128-6.6944c-1.491 5.3093 4.1516 9.0296 4.1516 9.0296l0.18603 20.261z"/>
    <rect x="604.86" y="420.07" width="46.414" height="11.233"/>
    <rect x="601.38" y="432.45" width="52.246" height="11.127"/>
    <path d="m607.68 444.17-0.20336-11.561c3.2958-2.9972 4.5737 5.9393 4.5737 5.9393s1.3587-12.514 15.483-18.081c14.124 5.5666 15.482 18.84 15.482 18.84s1.2784-9.6961 4.5742-6.6989l-0.20392 11.561z"/>
    <rect x="610.98" y="409.07" width="34.182" height="10.719"/>
    <path d="m604.52 466.4-0.23356-13.277c3.7852-3.4422 5.2527 6.8211 5.2527 6.8211s1.5604-14.372 17.781-20.765c16.22 6.393 17.781 21.637 17.781 21.637s1.4682-11.136 5.2534-7.6934l-0.23418 13.277z"/>
    <path d="m666.27 492.65 0.23134-25.132s5.7333-4.6145 3.8839-11.2c-1.8499-6.5854-10.286 8.3035-10.286 8.3035h-64.117s-9.7018-14.889-11.551-8.3035c-1.8494 6.5855 5.1495 11.2 5.1495 11.2l0.23075 25.132z"/>
    <path d="m601.66 492.84-0.26753-15.208c4.3356-3.9428 6.0166 7.8131 6.0166 7.8131s1.7874-16.462 20.367-23.785c18.579 7.3228 20.367 24.784 20.367 24.784s1.6817-12.755 6.0173-8.8123l-0.26824 15.208z"/>
    <path d="m672.41 523.5 0.26762-29.691s6.6327-5.4518 4.4932-13.232c-2.1401-7.7803-11.899 9.8101-11.899 9.8101h-74.175s-11.224-17.59-13.363-9.8101c-2.1395 7.7804 5.9573 13.232 5.9573 13.232l0.26697 29.691z"/>
    <path d="m597.54 517.23-0.30951-17.594c5.0158-4.5613 6.9605 9.0387 6.9605 9.0387s2.0677-19.044 23.563-27.516c21.494 8.4715 23.562 28.672 23.562 28.672s1.9455-14.756 6.9613-10.195l-0.31032 17.594z"/>
    <path d="m676.13 554.36 0.29487-32.613s7.3076-5.9881 4.9504-14.534c-2.3579-8.5457-13.11 10.775-13.11 10.775h-81.723s-12.366-19.321-14.723-10.775c-2.3572 8.5458 6.5635 14.534 6.5635 14.534l0.29412 32.613z"/>
    <path d="m679.42 565.37 0.31598-25.925s7.8308-4.7602 5.3048-11.554c-2.5267-6.7934-14.049 8.5658-14.049 8.5658h-87.573s-13.251-15.359-15.777-8.5658c-2.526 6.7935 7.0334 11.554 7.0334 11.554l0.31519 25.925z"/>
    <path d="m591.87 550.46-0.35986-20.457c5.8319-5.3036 8.0931 10.51 8.0931 10.51s2.4042-22.143 27.397-31.993c24.992 9.8501 27.396 33.338 27.396 33.338s2.2621-17.157 8.0941-11.854l-0.36083 20.457z"/>
    <path d="m590.24 583.66-0.02064-21.557c6.0547-3.9091 9.5216 17.047 9.5216 17.047s0.87044-31.566 26.818-38.826c25.946 7.2601 26.817 38.826 26.817 38.826s3.4679-20.956 9.5226-17.047l-0.02164 21.557z"/>
    <path d="m588.63 631.85-0.3853-27.924c6.2445-7.2394 8.6656 14.346 8.6656 14.346s2.5743-30.226 29.335-43.671c26.759 13.445 29.334 45.506 29.334 45.506s2.4221-23.42 8.6666-16.18l-0.38634 27.924z"/>
    <rect x="1097" y="603.59" width="157.93" height="28.864" ry="14.432"/>
    <path d="m1254.6 620.54 1.2127-94.351s-3.6392 23.143-14.56 23.143h-133.44c-10.921 0-14.561-23.143-14.561-23.143l1.2127 94.351z"/>
    <path d="m1241.9 599.39 1.0146-75.607s-9.0449 18.545-18.182 18.545h-100.1c-9.1372 0-18.183-18.545-18.183-18.545l1.0146 75.607z"/>
    <path d="m1140.7 583.77 33.766 29.127 35.754-29.127z"/>
    <path d="m1195.9 447.46 0.127-15.363c-15.872 0-11.932-16.715-11.932-23.048 4.6782-6.3728 5.9862-15.263-7.0703-21.731-12.779 7.2184-11.771 15.237-7.0699 21.195 0.0702 7.0374 5.2188 23.584-12.177 23.584l0.1266 15.363z"/>
    <path d="m1207.7 467.13 0.1865-20.261s4.6223-3.7203 3.1313-9.0296c-1.4915-5.3092-8.2924 6.6944-8.2924 6.6944h-51.692s-7.8217-12.004-9.3127-6.6944c-1.491 5.3093 4.1516 9.0296 4.1516 9.0296l0.186 20.261z"/>
    <rect x="1153.7" y="420.35" width="46.414" height="11.233"/>
    <rect x="1150.3" y="432.73" width="52.246" height="11.127"/>
    <path d="m1156.6 444.45-0.2034-11.561c3.2959-2.9972 4.5737 5.9393 4.5737 5.9393s1.3587-12.514 15.483-18.081c14.124 5.5666 15.482 18.84 15.482 18.84s1.2784-9.6961 4.5743-6.6989l-0.2039 11.561z"/>
    <rect x="1159.8" y="409.34" width="34.182" height="10.719"/>
    <path d="m1153.4 466.67-0.2336-13.277c3.7852-3.4422 5.2528 6.8211 5.2528 6.8211s1.5604-14.372 17.781-20.765c16.22 6.393 17.781 21.637 17.781 21.637s1.4682-11.136 5.2534-7.6934l-0.2342 13.277z"/>
    <path d="m1215.1 492.93 0.2314-25.132s5.7333-4.6145 3.8839-11.2c-1.8499-6.5854-10.286 8.3035-10.286 8.3035h-64.117s-9.7019-14.889-11.551-8.3035c-1.8494 6.5855 5.1495 11.2 5.1495 11.2l0.2307 25.132z"/>
    <path d="m1150.5 493.11-0.2675-15.208c4.3356-3.9428 6.0166 7.8131 6.0166 7.8131s1.7874-16.462 20.368-23.785c18.579 7.3228 20.367 24.784 20.367 24.784s1.6817-12.755 6.0173-8.8123l-0.2682 15.208z"/>
    <path d="m1221.3 523.78 0.2676-29.691s6.6327-5.4518 4.4932-13.232c-2.1401-7.7803-11.899 9.8101-11.899 9.8101h-74.175s-11.224-17.59-13.363-9.8101c-2.1395 7.7804 5.9573 13.232 5.9573 13.232l0.267 29.691z"/>
    <path d="m1146.4 517.51-0.3095-17.594c5.0158-4.5613 6.9605 9.0387 6.9605 9.0387s2.0677-19.044 23.562-27.516c21.494 8.4715 23.562 28.672 23.562 28.672s1.9455-14.756 6.9613-10.195l-0.3104 17.594z"/>
    <path d="m1225 554.64 0.2949-32.613s7.3076-5.9881 4.9504-14.534c-2.3579-8.5457-13.11 10.775-13.11 10.775h-81.723s-12.366-19.321-14.723-10.775c-2.3572 8.5458 6.5635 14.534 6.5635 14.534l0.2941 32.613z"/>
    <path d="m1228.3 565.65 0.316-25.925s7.8308-4.7602 5.3048-11.554c-2.5267-6.7934-14.049 8.5658-14.049 8.5658h-87.573s-13.251-15.359-15.777-8.5658c-2.526 6.7935 7.0334 11.554 7.0334 11.554l0.3152 25.925z"/>
    <path d="m1140.7 550.74-0.3598-20.457c5.8319-5.3036 8.093 10.51 8.093 10.51s2.4042-22.143 27.397-31.993c24.992 9.8501 27.396 33.338 27.396 33.338s2.2621-17.157 8.094-11.854l-0.3608 20.457z"/>
    <path d="m1139.1 583.94-0.0207-21.557c6.0548-3.9091 9.5216 17.047 9.5216 17.047s0.8705-31.566 26.818-38.826c25.946 7.2601 26.817 38.826 26.817 38.826s3.4678-20.956 9.5226-17.047l-0.0216 21.557z"/>
    <path d="m1137.5 632.13-0.3853-27.924c6.2445-7.2394 8.6656 14.346 8.6656 14.346s2.5742-30.226 29.335-43.671c26.76 13.445 29.334 45.506 29.334 45.506s2.4221-23.42 8.6666-16.18l-0.3863 27.924z"/>
    <rect x="879.87" y="631.21" width="39.313" height="139.78"/>
    <rect x="886.4" y="631.21" width="26.183" height="139.78"/>
    <rect x="879.32" y="764.33" width="39.313" height="119.81"/>
    <rect x="885.56" y="764.33" width="26.209" height="119.81"/>
  </g>
</svg>
