<?xml version="1.0" encoding="UTF-8"?>
<svg width="600" height="300" version="1.0" xmlns="http://www.w3.org/2000/svg" xmlns:xlink="http://www.w3.org/1999/xlink">
  <rect width="600" height="300" fill="#ce1126"/>
  <path d="m349.39 141.29c8.7581 2.3467 22.013 1.7631 27.963 8.7088-8.7581-2.3467-19.551 11.81-27.963 8.7088 7.4273 5.2007-108.04 0-98.781 0-8.7581-2.3467-22.013-1.7631-27.963-8.7088 8.7581 2.3467 19.551-11.81 27.963-8.7088-7.4273-5.2007-20.313-9.2274-23.298-17.748 7.4273 5.2006 22.536-4.4479 29.255 1.3803-5.2006-7.4273-16.07-15.579-15.823-24.646 5.2006 7.4273 22.705 3.4507 27.019 11.303-2.3467-8.7581-9.4146-20.051-6.4395-28.571 2.3467 8.7581 19.976 10.933 21.524 19.862 0.79029-9.0325-2.3978-22.105 3.7208-29.051-0.79019 9.0326 15.132 17.097 13.432 26.026 3.8319-8.2176 5.9503-21.493 13.432-26.026-3.8319 8.2176 8.6687 21.198 3.7208 29.051 6.4114-6.4113 12.598-18.288 21.524-19.862-6.4114 6.4114 0.42501 22.743-6.4395 28.571 8.2176-3.832 17.915-12.878 27.019-11.303-8.2175 3.832-7.4039 21.545-15.823 24.646 9.0326-0.79028 21.17-5.9139 29.255-1.3803-9.0325 0.7902-14.036 17.748-23.298 17.748z" fill="#fcd116" fill-rule="evenodd" stroke="#bd9c08" stroke-width="1.875"/>
  <path d="m258.36 150-31.587-12.912 34.098-1.3297-25.266-22.936 32.496 10.413-15.897-30.194 26.975 20.899-4.6115-33.811 18.2 28.865 7.2305-33.349 7.2305 33.349 18.2-28.865-4.6115 33.811 26.975-20.899-15.897 30.194 32.496-10.413-25.266 22.936 34.098 1.3297-31.587 12.912 31.587 12.912h-146.45l31.587-12.912z" fill="#fcd116" fill-rule="evenodd" stroke="#bd9c08" stroke-width="1.875"/>
  <path d="m341.36 150c0 22.841-18.516 41.358-41.358 41.358-22.841 0-41.358-18.516-41.358-41.358 0-22.841 18.516-41.358 41.358-41.358 22.841 0 41.358 18.516 41.358 41.358z" fill="#fcd116" stroke="#bd9c08" stroke-linecap="round" stroke-width="1.8738"/>
  <rect y="165" width="600" height="135" fill="#003f87"/>
  <path id="path6138" d="m-1.2212e-15 257.14c20 0 40 12.857 60 12.857s40-12.857 60-12.857 40 12.857 60 12.857 40-12.857 60-12.857 40 12.857 60 12.857 40-12.857 60-12.857 40 12.857 60 12.857 40-12.857 60-12.857 40 12.857 60 12.857 40-12.857 60-12.857v-21.429c-20 0-40 12.857-60 12.857s-40-12.857-60-12.857-40 12.857-60 12.857-40-12.857-60-12.857-40 12.857-60 12.857-40-12.857-60-12.857-40 12.857-60 12.857-40-12.857-60-12.857-40 12.857-60 12.857-40-12.857-60-12.857v21.429z" fill="#fff" fill-rule="evenodd"/>
  <path d="m313.6 49.862 22.178 0.14668c0.14168-0.93763-1.903-2.8048-3.6441-3.0783-5.6155-0.88188-9.8256 0.936-16.64 1.0059l-1.8935 1.9256z" fill="#fcd116" fill-rule="evenodd" stroke="#bd9c08" stroke-width="1.875"/>
  <path d="m269.43 44.643c5.208 6.5802 15.305 11.153 24.952 11.212 13 0.080544 27.413-10.44 44.851-13.662l-56.918-1.1717c-7.3643-5.0453-12.952-4.4051-16.763-1.2775l-10.882 0.32891c-1.5406 0.83892 1.2718 4.3429 3.5512 4.4712l11.209 0.098386z" fill="#fcd116" fill-rule="evenodd" stroke="#bd9c08" stroke-width="1.875"/>
  <path d="m295.16 40.868c-2.0703-9.5175-9.7064-13.62-18.891-14.837-10.606-1.4055-35.022-2.8466-51.239-7.5047 7.0159 6.9009 21.71 10.346 31.917 11.904 10.81 1.6499 21.335 4.0543 29.674 10.351l8.5399 0.086256z" fill="#fcd116" fill-rule="evenodd" stroke="#bd9c08" stroke-width="1.875"/>
  <path d="m288.27 47.221c3.3941 4.3536 8.6564 4.1073 14.313 0.30892 5.6391-3.7865 11.765-14.448 14.725-14.622 20.693-1.2025 45.724-9.9357 57.665-16.682-15.137 2.1433-30.143 4.573-45.411 4.6338-26.05 0.10367-29.133 11.967-39.748 20.286" fill="#fcd116" fill-rule="evenodd" stroke="#bd9c08" stroke-linecap="round" stroke-width="1.875"/>
  <path d="m292.31 42.103c5.5531-3.5366 10.065-8.151 15.263-12.006 8.607-6.3827 18.55-6.5693 29.223-6.7009 9.4602-0.11661 26.046-4.0694 35.042-6.1789" fill="none" stroke="#bd9c08" stroke-linecap="round" stroke-width="1.875"/>
  <path d="m286.53 40.436c-1.639-8.5111-9.6043-11.065-19.668-12.594-10.95-1.6634-22.117-2.5888-33.038-5.607-2.7084-0.74852-5.2332-2.0703-7.8498-3.1054" fill="none" stroke="#bd9c08" stroke-width="1.875"/>
  <path d="m290.02 52.983c10.273 0.75349 17.908-2.3358 26.674-6.706" fill="none" stroke="#bd9c08" stroke-linecap="round" stroke-width="1.875"/>
  <path d="m254.63 41.831h12.96" fill="none" stroke="#bd9c08" stroke-linecap="round" stroke-width="1.875"/>
  <path d="m273.37 40.437c5.1e-4 0.89506-0.72493 1.6209-1.62 1.6209s-1.6205-0.72587-1.62-1.6209c-5.1e-4 -0.89507 0.72493-1.6209 1.62-1.6209s1.6205 0.72587 1.62 1.6209z" fill="#bd9c08" stroke="#bd9c08" stroke-linecap="round" stroke-linejoin="round" stroke-width=".81439"/>
  <use id="use2426" transform="translate(0 -85.714)" width="600" height="300" xlink:href="#path6138"/>
  <use transform="translate(0 42.857)" width="600" height="300" xlink:href="#use2426"/>
</svg>
