<?xml version="1.0" encoding="UTF-8"?>
<svg width="600" height="300" xmlns="http://www.w3.org/2000/svg" xmlns:xlink="http://www.w3.org/1999/xlink">
  <title>Flag of Kiribati</title>
  <defs>
    <style type="text/css"><![CDATA[
    .str0 {stroke:black;stroke-width:0.15;stroke-miterlimit:22.9256}
    .str1 {stroke:black;stroke-width:0.46;stroke-miterlimit:22.9256}
    .fil1 {fill:#f8d000}
    .fil3 {fill:none}
    .fil4 {fill:black}
    .fil5 {fill:none;fill-rule:nonzero}
   ]]></style>
  </defs>
  <rect width="600" height="162" fill="#c81010"/>
  <g id="bird">
    <path id="bird_outline" class="fil1 str1" d="m305.75 27.34c-19.08-7.89-30.76-9.34-43.81-9.47-18.9 0.13-27.92 8.25-45.94 9 7.14 7.69 33.02 9.57 43.93-0.53 16.22 1.69 19.9 6.07 24.25 11.52-6.77-1.07-14.57-3.02-21.04 4.14-5.46 1.1-7.99 0-17.33 0-4.36 0-5.87 2.14-5.81 6 2.82-3.9 22.31-1.6 27.09 0 3.67 1.23 7.57 6.32 12.22 7.15 12.19 2.17 29.68-4.2 45.81-8.54l34.88-4.61h-23.93l29.93-6h-32.54c-0.69-0.79-2.34-1.81-3.66-2.68 8.37-5.39 15.77-15.19 17.66-19.92 15.09-0.15 24.83-1.55 36.54-4.29-77.18-8.54-59.61 0.67-78.25 18.23z"/>
    <path id="eye" class="fil4" d="m270.06 39.89c0.83 0 1.5 0.67 1.5 1.5s-0.67 1.5-1.5 1.5c-0.82 0-1.5-0.67-1.5-1.5s0.68-1.5 1.5-1.5z"/>
    <path id="eye_outline" class="fil5 str0" d="m270.06 39.89c0.83 0 1.5 0.67 1.5 1.5s-0.67 1.5-1.5 1.5c-0.82 0-1.5-0.67-1.5-1.5s0.68-1.5 1.5-1.5z"/>
    <path class="fil3 str1" d="m290.13 38.29s-6.27 3.71-10.43 3.71"/>
    <path class="fil3 str1" d="m325.12 46.61s5.73-4.61 10.95-4.61"/>
    <path class="fil3 str1" d="m233.82 24.6s4.66-2.44 6.86-3.09"/>
    <path class="fil3 str1" d="m253.13 21.12s7.39-3.19 15.62-3.03"/>
    <path class="fil3 str1" d="m273.11 21.9s9.69-1.63 18.64 0.36"/>
    <path class="fil3 str1" d="m284.25 24.24s8.04-1.35 15.75 0.83"/>
    <path class="fil3 str1" d="m292.52 26.69s8.19 0.11 12.26 1.69"/>
    <path class="fil3 str1" d="m216 26.87s11.49 3.14 20.83-1.35"/>
    <path class="fil3 str1" d="m217.46 28.23s14.92 3.68 21.74-3.15"/>
    <path class="fil3 str1" d="m222.46 30.81s11.24 3.62 20.08-5.72"/>
    <path class="fil3 str1" d="m232.9 33.08s9.08-2.6 12.52-7.95"/>
    <path class="fil3 str1" d="m240 33.23s6.09-4.22 8.28-7.98"/>
    <path class="fil3 str1" d="m318.46 28.47s2.38 2.99 11.34 4.85"/>
    <path class="fil3 str1" d="m320.04 27.06s3.85 3.85 11.87 4.79"/>
    <path class="fil3 str1" d="m321.98 25.25s3.91 3.36 12.42 4.61"/>
    <path class="fil3 str1" d="m323.91 23.32s5.98 3.99 12.79 4.45"/>
    <path class="fil3 str1" d="m326.27 20.8s4.19 3.91 12.5 4.88"/>
    <path class="fil3 str1" d="m328.03 18.79s4.91 4.22 12.63 4.8"/>
    <path class="fil3 str1" d="m329.76 16.69s3.01 3.48 12.94 4.39"/>
    <path class="fil3 str1" d="m331.52 14.42s3.35 3.68 12.78 4.48"/>
    <path class="fil3 str1" d="m332.89 12.55s5.9 4.45 12.73 4.36"/>
    <path class="fil3 str1" d="m334.06 10.85s7.8 4.68 12.45 4.53"/>
    <path class="fil3 str1" d="m335.48 8.69s6.2 3.86 11.98 4.71"/>
    <path class="fil3 str1" d="m308.84 30.38s2.5 1.89 4.84 1.81"/>
    <path class="fil3 str1" d="m310.28 28.98s2.17 1.85 5.15 1.84"/>
    <path class="fil3 str1" d="m312.03 27.26s2.46 2.3 5.41 1.88"/>
    <path class="fil3 str1" d="m313.69 25.6s2.94 2 5.57 1.94"/>
    <path class="fil3 str1" d="m315.53 23.71s2.18 1.89 5.63 2.07"/>
    <path class="fil3 str1" d="m317.17 21.63s2.56 2.27 5.82 2.35"/>
    <path class="fil3 str1" d="m318.9 20.13s2.48 1.59 5.99 1.89"/>
    <path class="fil3 str1" d="m320.47 18.38s3.35 1.18 6.42 1.47"/>
    <path class="fil3 str1" d="m322.28 16.24s2.31 1.62 6.41 1.52"/>
    <path class="fil3 str1" d="m323.91 14.1s2.74 1.82 6.26 1.86"/>
    <path class="fil3 str1" d="m325.11 12.07s3.68 2.06 6.85 1.6"/>
    <path class="fil3 str1" d="m326.45 9.64s2.33 2.55 6.67 2.46"/>
    <path class="fil3 str1" d="m327.39 8.54s4.18 2.35 7.01 1.75"/>
    <path class="fil3 str1" d="m329.16 7.21s3.17 1.93 6.07 1.85"/>
    <path class="fil3 str1" d="m332.38 6.24s5.65 2.88 13.29-0.24"/>
    <path class="fil3 str1" d="m337.19 8.29s11.42 2.62 16.37-1.96"/>
    <path class="fil3 str1" d="m346.15 8.97s7.85 0.82 16.63-1.96"/>
    <path class="fil3 str1" d="m351.37 9.02s11.92 2.4 32.63 0.09"/>
    <path class="fil3 str1" d="m243.24 32.96s5.33-3.51 7.54-7.55"/>
    <path class="fil3 str1" d="m247.23 32.31s4.29-4.16 5.54-6.74"/>
    <path class="fil3 str1" d="m251.19 31.24s3.53-3.17 4.31-5.39"/>
    <path class="fil3 str1" d="m233.95 25.66s7.66-1.67 25.98 0.68"/>
    <path class="fil3 str1" d="m241.03 22.6s6.42-3.11 12.14-4.06"/>
    <path class="fil3 str1" d="m247.41 21.31s4.69-2.21 11.61-3.31"/>
    <path class="fil3 str1" d="m258.07 20.89s6.49-2.77 14.43-2.51"/>
    <path class="fil3 str1" d="m266.28 20.94s8.9-1.99 17.1-0.87"/>
    <path class="fil3 str1" d="m290.11 25.29s6.79-0.31 14.6 1.63"/>
    <path class="fil3 str1" d="m278.5 22.56s9.73-0.52 16.4 0.71"/>
    <path class="fil3 str1" d="m338.67 8.57s3.36 2.91 12.72 4.76"/>
    <path class="fil3 str1" d="m343.95 9.04s5.26 2.99 13.56 4.03"/>
    <path class="fil3 str1" d="m349.47 9.08s7.38 3.21 15.18 3.41"/>
    <path class="fil3 str1" d="m357.64 9.78s7.52 1.81 16.84 1.32"/>
    <path class="fil3 str1" d="m262.41 20.78s5.1-2.1 14.14-1.93"/>
    <path class="fil3 str1" d="m296.04 28.42s3.06-0.37 6.86 1.44"/>
    <path class="fil3 str1" d="m284.18 37.86c2.11 0.33 4.12 0.58 5.95 0.43 7.16-3.91 12.05-7.58 15.62-10.95"/>
  </g>
  <g fill="#f8d000" stroke="black" stroke-miterlimit="22.926" stroke-width=".46">
    <g id="rays_6">
      <g id="rays_2" transform="rotate(-84.706,300,156)">
        <path id="wavy" transform="rotate(13.4,300,156)" d="m290.63 105.87a50 50 0 0 1 9.37-39.87 50 50 0 0 0 9.37 39.87"/>
        <path id="straight" d="M290.63,105.87 300,63 309.37,105.87"/>
      </g>
      <use transform="rotate(21.18,300,156)" xlink:href="#rays_2"/>
      <use transform="rotate(42.35,300,156)" xlink:href="#rays_2"/>
    </g>
    <use transform="rotate(63.53,300,156)" xlink:href="#rays_6"/>
    <use transform="rotate(127.06,300,156)" xlink:href="#rays_6"/>
    <circle cx="300" cy="156" r="51"/>
  </g>
  <rect y="162" width="600" height="138" fill="#183070"/>
  <g id="wave">
    <path d="m-36 168q30-12 60 0t60 0 60 0 60 0 63 0 66 0 63 0 60 0 60 0 60 0 60 0" fill="none" stroke="#fff" stroke-width="24"/>
  </g>
  <use y="48" xlink:href="#wave"/>
  <use y="96" xlink:href="#wave"/>
</svg>
