<?xml version="1.0" encoding="UTF-8"?>
<svg width="750" height="500" xmlns="http://www.w3.org/2000/svg">
  <rect width="750" height="500" fill="#ed1c24"/>
  <rect y="125" width="750" height="250" fill="#fff"/>
  <path d="m371.59 125-4.1002 6.8297c-2.255 3.757-7.7183 9.3961-12.124 12.521-4.4053 3.125-9.7152 7.7782-11.829 10.342l-3.8642 4.6507 4.1002-1.0733c2.2462-0.59348 5.1724-1.5443 6.519-2.114 1.3466-0.56969 2.4483-0.2528 2.4483 0.71553 0 0.02592 0.00202 0.07058 0 0.09755-0.00538 0.05457-0.01625 0.13673-0.02949 0.19514-0.59386 2.4091-7.6312 7.93-13.215 10.245-5.3445 2.2153-13.268 7.9993-14.306 10.31-0.02462 0.05728-0.04324 0.14241-0.05901 0.19514-0.00711 0.026-0.02463 0.07276-0.02948 0.09758-0.00407 0.02439 0.00175 0.0744 0 0.09755-3.2e-4 0.00761 5e-5 0.02509 0 0.03253-4e-5 0.00639-2.3e-4 0.02624 0 0.03253 4.5e-4 0.00624-7e-4 0.02637 0 0.03254 9.5e-4 0.00606-0.00121 0.02651 0 0.03251 0.00575 0.0237 0.01993 0.07505 0.02948 0.09754 0.0079 0.0167 0.01952 0.0491 0.02951 0.06506 0.00356 0.00526 0.02572 0.02737 0.0295 0.03252 0.00803 0.01021 0.02057 0.02264 0.0295 0.03252 0.00469 0.00488 0.02459 0.02774 0.0295 0.03254 0.02049 0.01886 0.06454 0.04744 0.08847 0.06505 0.62584 0.43701 2.3482 0.50343 4.3362 0.06505 3.4871-0.76897 4.9246-0.29167 6.0765 2.0814 1.762 3.63 0.75204 5.2686-3.3037 5.2686-4.9051 0-11.887 4.926-12.831 9.0738-0.63309 2.781-3.3092 5.0492-9.0558 7.6753-9.3822 4.2874-21.49 12.473-22.33 14.993-0.02121 0.07011-0.0268 0.16692-0.02949 0.22767 0 3.5714 7.9022 3.3224 19.35-0.61795 2.5668-0.88345 3.6983 0.01619 5.634 4.4231 2.3963 5.4552 2.3584 5.5888-3.2152 12.781-3.8923 5.0228-7.3145 7.613-11.032 8.3908-7.4068 1.5495-9.7089 3.0538-19.321 12.651-4.6 4.5929-9.2174 8.3937-10.265 8.4233-0.4108 0.01161-0.68369 0.07385-0.82592 0.19511-0.00463 0.00432-0.02519 0.02811-0.0295 0.03254-0.00404 0.0045-0.02576 0.0279-0.02951 0.0325-0.00318 0.00484-0.02659 0.02761-0.02948 0.03254-0.00263 0.00504 0.00232 0.02738 0 0.03254-0.00209 0.00523-0.02773 0.02714-0.02951 0.03252-0.00153 0.00545 0.00126 0.02693 0 0.03251-9.7e-4 0.00567 7e-4 0.02676 0 0.03253-4.5e-4 0.00584 1.8e-4 0.02656 0 0.03253 1.6e-4 0.01205-0.00118 0.05258 0 0.06502 8.4e-4 0.0063-0.00111 0.02613 0 0.03254 0.00541 0.02592 0.02013 0.07026 0.02951 0.09755 0.00518 0.01384 0.02335 0.05093 0.02948 0.06505 0.0066 0.01429 0.02195 0.05045 0.02951 0.06505 0.77317 1.4224 5.8471 4.2279 8.7018 4.2279 2.0892 0 7.1804-2.3882 11.298-5.3012 7.2254-5.112 7.5827-5.1885 10.501-2.2766 1.663 1.6593 3.0383 4.8761 3.0383 7.1224 0 3.424-1.84 4.989-11.327 9.8218-7.0194 3.5757-15.263 9.7217-21.71 16.164-8.6654 8.6582-11.124 10.255-14.808 9.6592-2.326-0.37639-3.6266-0.53343-4.0412-0.2927-0.01326 0.00881-0.04781 0.02268-0.05901 0.03252-0.00506 0.00519-0.0249 0.02707-0.02949 0.0325-0.00406 0.00572-0.02594 0.02658-0.02947 0.03255-0.01526 0.03122-0.0268 0.09193-0.02952 0.13009-0.00258 0.44323 0.77986 1.3477 2.1828 2.8945 1.3284 1.4647 4.4114 2.6669 6.8435 2.6669 6.6349 0 27.608-7.8171 34.07-12.684 5.999-4.5182 11.831-5.3896 16.666-2.5367 7.4799 4.4136-5.0278 13.301-28.583 20.327-8.6654 2.5844-16.174 5.0995-17.138 5.7239-0.01393 0.00964-0.0485 0.02387-0.05897 0.03251-0.00435 0.00408-0.02606 0.02873-0.02951 0.03253-0.00322 0.00406-0.0264 0.0283-0.02949 0.03253-0.00298 0.00433 0.00288 0.02808 0 0.0325-0.33723 0.5584 0.16072 2.0284 1.1799 3.3823 2.4595 3.2674 14.836 3.4251 25.397 0.29273 4.2268-1.2536 14.753-5.5124 23.392-9.4315 15.669-7.1086 15.727-7.0962 21.209-4.2279 12.738 6.6645 11.561 18.326-3.7462 37.498-6.6662 8.3493-12.581 12.073-23.333 14.7-3.9778 0.97184-12.153 8.6747-12.153 11.448 0 0.27372 0.05336 0.48977 0.118 0.68294h2.7433c0.60251-0.44014 1.2177-1.0744 1.8288-1.8863 3.3892-4.5026 10.225-7.5063 17.138-7.5452 7.5122-0.04231 16.715-4.1674 23.628-10.602 6.0731-5.6534 12.174-7.3386 16.784-4.6182 2.5542 1.5071 4.878 1.6575 7.9644 0.48782 5.4884-2.0799 8.2003-1.0746 8.2004 3.0246 0 1.8434 1.9316 4.316 4.5722 5.8215 2.5247 1.4394 7.0295 4.9626 9.9997 7.8379 2.2621 2.1899 3.9104 3.19 4.7786 3.1872 0.03312-8.8e-4 0.08717 0.00396 0.11797 0 0.02268-0.00352 0.06716 0.00527 0.0885 0 0.01395-0.0039 0.04564-0.02787 0.05899-0.03249 0.01305-0.00504 0.04657-0.02677 0.059-0.03255 0.03647-0.0185 0.08693-0.03981 0.11798-0.06506 0.00505-0.00438 0.02462-0.02793 0.02952-0.0325 0.00471-0.00477 0.02492-0.02756 0.0295-0.03253 0.0044-0.00513 0.02521-0.02721 0.02949-0.03253 0.00411-0.0055 0.02552-0.02683 0.02951-0.03252 0.01141-0.01764 0.01944-0.04572 0.02949-0.06505 0.0064-0.01324 0.02373-0.05105 0.02949-0.06504 0.00546-0.01434 0.02466-0.04995 0.0295-0.06505 0.00681-0.02313 0.0241-0.07275 0.02949-0.09756 0.00658-0.03379-0.00406-0.09342 0-0.13008 0.08818-0.96285-0.65777-2.9008-2.3893-5.6264-1.0177-1.602-1.536-3.1986-1.3864-4.0002 0.00798-0.03855 0.01816-0.09551 0.02948-0.13009 0.00479-0.01352 0.02418-0.05219 0.02951-0.06504 0.0028-0.00627-0.00295-0.02646 0-0.03254 0.00306-0.00591 0.02628-0.02676 0.0295-0.03252 0.01673-0.02789 0.03877-0.07411 0.05898-0.09757 0.00419-0.00451 0.02518-0.0282 0.02949-0.03251 0.01339-0.01243 0.04437-0.02179 0.059-0.03254 0.00503-0.00338 0.02392-0.02919 0.0295-0.03252 0.01229-0.00649 0.04451-0.02634 0.05899-0.03253 0.95833-0.37064 6.0366-0.18166 11.593 0.45533 9.7732 1.1204 10.958 1.7079 16.725 8.3908 2.8482 3.3002 5.1853 5.3735 7.0794 6.2443h3.9232c0.83638-0.37662 1.4264-0.92221 1.5634-1.4635 0.00339-0.01462 0.0268-0.05041 0.02949-0.06505 0.00355-0.02195-0.00197-0.0756 0-0.09756 9.7e-4 -0.01462-2.7e-4 -0.05044 0-0.06502-9e-5 -0.0146 8e-4 -0.05048 0-0.06506-2.8e-4 -0.00365 4.8e-4 -0.02875 0-0.03254-0.00125-0.00784 0.00202-0.02409 0-0.03251-0.3359-1.1224-6.123-6.628-13.067-12.424-15.783-13.172-18.203-17.985-18.259-36.23-0.03348-10.911 0.48441-13.706 3.0383-16.521 3.9784-4.3863 6.1636-4.2803 15.929 0.81305 7.3744 3.8464 9.6654 4.1676 26.43 3.8052 18.004-0.38929 18.531-0.27686 27.58 5.041 5.0722 2.9806 11.269 6.9721 13.805 8.8786 5.5986 4.2087 11.284 4.5048 12.625 0.65045 1.5843-4.5519-9.0588-13.381-29.055-24.034-19.885-10.594-21.968-13.556-12.802-18.375 5.2132-2.7409 5.5743-2.6889 13.834 1.9188 6.6214 3.6936 9.6497 4.4877 13.893 3.61l5.4276-1.1383-11.947-9.7893c-6.5687-5.3828-12.923-11.093-14.129-12.716-3.4885-4.6936-10.236-7.8054-16.873-7.8054-3.11 0-6.0152-0.59615-6.814-1.3334-0.02585-0.02509-0.0676-0.07214-0.0885-0.09757-0.00491-0.00636-0.02489-0.02611-0.02949-0.0325-0.00853-0.01286-0.02225-0.05215-0.02949-0.06505-1.8666-3.33 3.7547-4.9113 19.439-5.5288 21.13-0.83193 24.037-3.294 9.4687-8.0005-5.8172-1.8793-14.534-4.2577-19.38-5.3012-5.9088-1.2724-9.1844-2.6595-9.9997-4.2604-0.08942-0.18247-0.15044-0.39636-0.17696-0.58541-0.01714-0.13955-0.01674-0.31194 0-0.4553 0.07232-0.54376 0.39532-1.1189 0.94391-1.7237 0.9923-1.0941 5.7333-0.97204 13.805 0.39026 9.0479 1.5271 14.001 1.8692 14.896 0.81308 0.93195-1.2145-3.2379-4.2382-12.448-9.334-8.3913-4.6427-18.981-12.156-23.805-16.912-4.7796-4.7126-11.879-10.073-15.752-11.903-5.1111-2.4155-6.7662-4.0546-6.106-5.9516 1.1518-3.3092 9.1942-3.3428 14.395-0.06504 2.1134 1.332 7.651 2.4068 12.301 2.3741l8.4658-0.06506-5.6046-2.2765c-5.5979-2.2704-20.825-13.101-22.005-15.546-0.02165-0.0483-0.04921-0.12144-0.05898-0.16261-0.00296-0.0159 9.8e-4 -0.05035 0-0.06504 0-0.00446-4.7e-4 -0.02814 0-0.03253 9.2e-4 -0.00437-0.00138-0.0282 0-0.03251 0.00227-0.00426 0.02676-0.02833 0.02949-0.03255 0.00637-0.00832 0.02137-0.02436 0.02949-0.03253 0.00452-0.00403 0.02457-0.02848 0.02952-0.0325 0.62283-0.46001 4.1342-0.65659 8.3478-0.42278l8.4658 0.48781-12.183-9.399c-8.9379-6.887-14.446-9.8516-20.737-11.188-4.7144-1.0013-10.119-2.1915-12.006-2.6343-5.0524-1.1859-13.537-10.029-16.991-17.725l-3.0088-6.7322zm-27.757 47.418c0.18428-0.00671 0.3862 0 0.58995 0 1.5707 0 2.7121 0.38293 3.1857 0.97569 0.01067 0.01388 0.04909 0.05089 0.05899 0.06504 0.00958 0.01427 0.0207 0.05053 0.02951 0.06504 0.05069 0.08771 0.09474 0.19701 0.11799 0.29269 0.00523 0.0241 0.02603 0.07304 0.02951 0.09758 0.00383 0.03293-6.2e-4 0.09633 0 0.1301-1.6e-4 0.02545 0.00197 0.07168 0 0.09755-0.00434 0.04336-0.02 0.11811-0.02951 0.16259-0.00634 0.02684-0.02128 0.07039-0.02949 0.0976-0.32813 1.0853-2.097 3.0645-3.9527 4.4231-1.4187 1.0385-2.2654 1.6037-2.7433 1.5285-0.03269-0.00682-0.08859-0.01942-0.11799-0.0325-0.01433-0.00738-0.04547-0.0236-0.059-0.03253-0.02631-0.01947-0.06515-0.07161-0.08849-0.09759-0.32275-0.39309-0.38348-1.449-0.38348-3.3173 0-3.42 0.62806-4.3548 3.3922-4.4556zm41.09 4.2279c0.03708-5.3e-4 0.05104 0 0.0885 0 2.3975 0 4.0094 1.1213 4.3362 2.992 0.40472 2.3171-0.55738 2.9596-4.3362 2.9596-2.1256 0-3.3564-0.22113-3.9527-0.81305-0.44211-0.46041-0.52785-1.1509-0.35396-2.1465 0.32166-1.8416 1.883-2.9585 4.2182-2.992zm-12.035 1.0082c2.0834-0.16217 2.9203 1.0704 2.9203 3.7075 0 3.1743-1.214 4.1638-6.932 5.6264-3.6069 0.92265-6.9142 1.3467-7.6104 1.0082-0.01619-0.00873-0.04605-0.02289-0.05899-0.03254-0.00395-0.00333-0.02592-0.02908-0.0295-0.03255-1.9795-2.1824-0.24445-4.9833 4.6901-7.5777 3.1743-1.6689 5.4508-2.5772 7.0205-2.6994zm27.698 0.03253c3.0525-0.10089 3.4382 1.3415 1.9468 5.6264-0.51311 1.4743-2.6378 2.6668-4.7196 2.6668-3.046 0-3.699-0.73665-3.3038-3.8051 0.35168-2.7301 1.6932-3.9741 4.7196-4.358 0.50153-0.06363 0.95169-0.1167 1.3569-0.13008zm-46.724 8.2932c0.10503-0.00904 0.22489 0 0.32448 0 3.7024 0 1.3934 6.9823-3.3627 10.18-4.2353 2.8471-8.7366 4.0692-9.9997 2.9596-0.00571-0.00526-0.02394-0.0272-0.0295-0.03254-0.08143-0.08157-0.15786-0.1883-0.20648-0.2927-0.00619-0.01413-0.02393-0.05052-0.02951-0.06506-0.00788-0.02209-0.023-0.07453-0.02947-0.09756-0.00404-0.01558-0.02612-0.04905-0.02952-0.06503-0.00459-0.0243 0.00317-0.07237 0-0.09758-0.0045-0.04257-0.02908-0.11742-0.02949-0.16262 9e-5 -0.00916-2.4e-4 -0.02326 0-0.03252 0.10254-3.8138 9.0169-11.917 13.392-12.293zm34.778 16.164c1.7638-0.21295 2.882 1.7212 2.2713 5.2686-0.34005 1.9752-2.1033 3.3383-4.7491 3.675-2.0221 0.25733-3.2686 0.16706-3.7462-0.39028-0.00446-0.00543-0.0252-0.02696-0.0295-0.03251-0.02086-0.02814-0.04165-0.0672-0.05902-0.09758-0.00664-0.01232-0.0234-0.05234-0.0295-0.06502-0.00288-0.00644-0.02672-0.02601-0.02949-0.03253-0.01312-0.03308-0.01986-0.09472-0.02949-0.13008-0.23586-0.94673 0.73532-2.7071 2.8908-5.5614 1.2473-1.6517 2.4868-2.5108 3.5102-2.6343zm-13.834 0.78051c0.08571-0.00662 0.1633 0 0.236 0 3.5426 0 4.1157 3.1195 0.91443 5.0085-1.4774 0.87177-2.9126 1.523-3.3922 1.5936-0.01568 0.00174-0.0457 0.0323-0.059 0.03252-0.01209-5.4e-4 -0.04938-0.03041-0.059-0.03252-0.26691-0.09291-2.2228-0.72266-4.3362-1.431l-3.8347-1.3009 4.3361-1.9514c2.231-0.99638 4.909-1.8194 6.1945-1.9188zm29.822 3.9027c1.6743-0.0888 3.4864 0.23615 5.2506 0.97566 3.2017 1.3421 3.824 2.5056 3.2153 6.0167-0.82665 4.7678-3.43 5.3034-12.33 2.4717-4.3721-1.3911-4.8218-2.0591-3.4217-4.9434 1.3357-2.7517 4.0896-4.3511 7.2859-4.5206zm-66.016 1.1708c0.10037-0.00103 0.19194 0 0.29499 0 6.4765 0 7.3699 1.1259 4.2182 5.2687-1.0567 1.3889-3.0632 3.5037-4.4837 4.6832-2.1707 1.8025-2.8362 1.6112-4.2182-1.2359-1.645-3.3889-2.1582-5.6183-1.3569-6.9598 0.74017-1.1976 2.5596-1.7252 5.5455-1.7562zm-17.05 2.862c2.7623-0.07488 4.4644 1.2296 6.6665 5.0085l3.0973 5.3336-4.6311 1.7887c-4.2268 1.6246-4.9382 1.3182-8.4364-3.61-2.2049-3.1062-3.0482-5.1664-2.4483-6.472 0.05522-0.11511 0.12808-0.25383 0.20648-0.35777 0.02008-0.02574 0.06695-0.07247 0.08848-0.09756 0.02203-0.02485 0.065-0.07337 0.08849-0.09758 0.79099-0.79093 2.3828-1.2206 4.8081-1.431 0.19429-0.01689 0.3763-0.06007 0.56045-0.06506zm102 15.969c3.0687-0.24811 6.2015 1.9135 5.752 5.3987-0.57096 4.4269-5.4064 5.708-9.3803 2.5042-2.3732-1.9133-2.4607-2.6224-0.61943-5.3987 1.0547-1.5903 2.6403-2.3743 4.2477-2.5042zm-57.904 8.2932c0.11291-0.00722 0.23564 0 0.35399 0 0.25933 0 0.50032 0.05489 0.70793 0.13007 0.13059 0.05 0.27417 0.11536 0.38347 0.19513 0.03078 0.02341 0.08894 0.07178 0.11799 0.09759 0.01432 0.01319 0.04513 0.05123 0.05899 0.06504 0.01364 0.01409 0.04579 0.05033 0.05899 0.06505 0.01299 0.01497 0.04645 0.04945 0.05899 0.06505 0.46814 0.60339 0.63201 1.6369 0.44247 3.0571-0.60894 4.5628-3.6305 5.9016-4.9261 2.179-1.1568-3.3237-0.03387-5.6765 2.7433-5.854zm-19.35 3.5124c1.3002-0.17645 3.4358 0.68789 5.575 2.4717 1.4538 1.2122 2.0562 2.3886 2.0354 3.2522-0.00326 0.0797-0.01583 0.18567-0.02952 0.26017-0.00933 0.04614-0.01621 0.11864-0.02949 0.1626-0.01122 0.03482-0.04532 0.09672-0.059 0.13009-0.02142 0.0495-0.06173 0.11655-0.08847 0.16263-0.00923 0.01515-0.01972 0.05025-0.0295 0.06505-0.01009 0.01456-0.04836 0.05085-0.059 0.06504-0.04918 0.06283-0.11673 0.14084-0.177 0.19511-0.01366 0.01185-0.0448 0.05365-0.059 0.06504-0.88876 0.68789-2.7718 0.52532-4.9261-1.1383-1.7801-1.3747-3.2582-3.1718-3.3922-4.0978-0.00187-0.01492 0.00109-0.05055 0-0.06503-7.5e-4 -0.01424 0-0.0513 0-0.06506 0-0.88178 0.45878-1.3576 1.2389-1.4635zm30.766 0.65045c0.60039-0.05193 1.2235 0.53593 2.2713 1.6912 1.315 1.4498 2.8597 4.2268 3.4218 6.1792 1.3504 4.6913-0.78325 6.651-4.9556 4.5206-4.4797-2.2874-5.5691-5.9077-2.9793-9.9844 0.98863-1.5562 1.6027-2.3514 2.2418-2.4067zm10.737 6.3744c1.1388-0.15553 2.6842 1.5488 3.0678 4.423 0.2237 1.6762-9e-3 3.105-0.53096 3.5449-0.00498 0.00397-0.02448 0.02874-0.02949 0.03251-0.01524 0.01089-0.04334 0.02329-0.05901 0.03255-0.02108 0.01157-0.06665 0.02392-0.08849 0.03251-0.00552 0.00196-0.02393 0.03078-0.0295 0.03254-0.00559 0.00156-0.02385-0.00139-0.02949 0-0.01139 0.00237-0.04743-0.0016-0.05901 0-0.00584 5.7e-4 -0.02361-4.1e-4 -0.02947 0-0.00593 1.8e-4 -0.02355 0-0.02952 0-2.1949 0-3.4512-1.9792-3.4512-5.4963 0-1.6824 0.56203-2.5053 1.2684-2.6018zm-67.432 6.7647c2.2587-0.00237 4.2406 0.12036 5.5456 0.39028 2.154 0.44551 3.5867 1.0608 4.2772 1.7887 0.14591 0.15854 0.27678 0.34918 0.35395 0.52034 0.03669 0.08593 0.06899 0.20368 0.08849 0.2927 0.0352 0.17873 0.03354 0.39451 0 0.58541-0.25724 1.3197-2.1514 2.9296-5.6635 4.7808-2.9127 1.5353-7.8409 3.3065-10.973 3.9027-5.2009 0.99002-5.914 0.62284-8.0824-4.0003-1.2854-2.7407-2.3271-5.3487-2.3598-5.854 0-0.00624-5.4e-4 -0.0263 0-0.03253 0.00204-0.01246-0.00411-0.05259 0-0.06505 0.00254-0.0062 0.02644-0.0263 0.02949-0.03252 0.00708-0.01241 0.02044-0.05265 0.0295-0.06503 5e-3 -0.0062 0.024-0.02633 0.0295-0.03251 1.087-1.1249 10.095-2.1721 16.725-2.179zm104.6 15.22c6.0567-0.26769 9.3246 3.8287 2.7433 8.9111-4.234 3.2697-10.451 3.4009-14.306 0.29271-2.774-2.2364-2.6326-2.5564 2.4188-5.9516 3.194-2.1468 6.441-3.1328 9.1443-3.2522zm22.064 4.7808c0.1073-0.01315 0.22732 3.8e-4 0.3245 0 0.8951-0.00349 2.9607 1.0512 4.6016 2.3742 2.9228 2.3564 2.9129 2.513-0.73741 6.7972-1.8893 2.2173-3.8153 3.9561-4.4837 4.0978-0.00546 9.6e-4 -0.02417-7.3e-4 -0.02947 0-0.00514 5.1e-4 -0.02458-2.5e-4 -0.02951 0-0.00473 6e-5 -0.02493 2.1e-4 -0.0295 0-0.00438-4.4e-4 -0.02532 6.8e-4 -0.02949 0-0.48668-0.14915-3.1521-0.56725-5.8995-0.94315-3.0564-0.41818-4.9851-1.6498-4.9851-3.1547 0-0.06685 0.01705-0.15462 0.0295-0.22765 0.48581-2.533 8.0495-8.5491 11.268-8.9437zm-110.94 6.7647c0.2809-0.01574 0.61613 0 0.97341 0 4.1645 0 6.46 3.4278 6.46 9.6592 0 8.3729-5.105 7.7011-7.4629-0.97567-2.0528-7.5544-2.2579-8.5553 0.02952-8.6835zm31.71 2.3742c2.5107-0.07969 8.5873 1.3215 9.3803 2.2766 0.00367 0.00473 0.02608 0.02782 0.02949 0.03254 0.00289 0.00464 0.02691 0.02787 0.0295 0.03249 0.00233 0.00464-0.00207 0.02794 0 0.03253 0.0018 0.00457 0.02801 0.02796 0.02951 0.03253 9.2e-4 0.0045-6.6e-4 0.02807 0 0.03252 3.5e-4 0.00444-8e-5 0.02812 0 0.03252-2.4e-4 0.00463 4.2e-4 0.02764 0 0.03253-0.07938 0.64748-1.7047 3.2862-3.6577 5.9191l-3.5987 4.8458-1.8878-6.2443c-0.93214-3.114-1.5059-5.9192-1.3864-6.6346 0.00114-0.00588-0.00123-0.02699 0-0.03254 0.0027-0.01045 0.0264-0.02335 0.02948-0.03254 0.00169-0.00425-0.00174-0.02855 0-0.0325 0.00377-0.00723 0.02534-0.0266 0.02952-0.03255 0.00737-0.00728 0.02109-0.02554 0.02949-0.0325 0.00446-0.00338 0.02479-0.02922 0.02951-0.03252 0.00498-0.00321 0.02426 0.00313 0.0295 0 0.00547-0.00304 0.02379-0.02957 0.02949-0.03252 0.01194-0.00572 0.04608-0.02715 0.05899-0.03252 0.18737-0.07272 0.47618-0.11899 0.82593-0.13008zm-15.427 2.7644c0.45483-0.04501 1.1672 0.07291 2.1533 0.22766 1.9768 0.31025 3.7967 1.9531 4.1002 3.7076 0.36836 2.1297 0.16383 3.6164-0.35399 4.3906-0.04083 0.05896-0.10281 0.14468-0.14747 0.19511-0.05165 0.05625-0.12069 0.11758-0.17699 0.1626-0.02131 0.01634-0.06656 0.05029-0.08848 0.06507-0.10332 0.06639-0.23845 0.13107-0.35398 0.16259-0.04986 0.01244-0.12514 0.02656-0.17699 0.03255-0.08697 0.00814-0.20305 0.00991-0.29499 0-1.0256-0.13039-2.3529-1.4027-3.5102-3.8702-1.3339-2.844-1.9464-4.1922-1.7109-4.7483 0.01917-0.03919 0.05995-0.09906 0.08848-0.13007 0.10341-0.10015 0.25718-0.17389 0.47197-0.19516z" fill="#00a651"/>
</svg>
