<?xml version="1.0" encoding="UTF-8"?>
<svg width="900" height="600" viewBox="0 0 450 300" xmlns="http://www.w3.org/2000/svg">
  <path d="m0 0h450v300h-450z" fill="#009543"/>
  <path d="m0 0h450v210h-450z" fill="#fff"/>
  <path d="m0 0h450v90h-450z" fill="#00209f"/>
  <path transform="scale(.5)" d="m450.45 190.12-0.95312 0.01953c-2.0718 0.04464-3.9003 1.1441-5.2461 2.1641s-2.2422 2.0391-2.2422 2.0391l-0.20703 0.23633c-7.0526 1.24-13.487 4.2858-18.613 9.2637-6.787 6.5902-11.112 16.299-12.473 28.664-1.3951 12.678 2.0791 26.813 5.7109 38.051s7.6055 19.609 7.6055 19.609l0.70507 1.4863-45.752 61.607-9.1992-3.1797-16.566 35.336 0.75 0.47266s39.348 24.638 96.391 23.965c62.543-0.74372 96.699-25.129 96.699-25.129l0.69141-0.49219-17.133-34.906-8.1523 3.5469-47.482-62.805 0.36914 0.14453s4.1683-8.5619 7.8945-20.023 7.2266-25.867 5.3945-38.762c-1.7314-12.186-5.565-21.748-12.375-28.246-4.9807-4.7528-11.374-7.5581-18.824-8.6777v-0.19726l-0.28125-0.28907s-0.94211-0.98047-2.332-1.9414c-1.1595-0.80164-2.6966-1.5075-4.3633-1.7383zm6.9707 14.479c5.0317 0.94359 8.8733 2.8888 11.943 5.8184 4.6035 4.3928 7.8304 11.546 9.375 22.418 1.4141 9.9532-1.5014 23.492-5.0039 34.266-2.15 6.6131-4.0401 11.202-5.3672 14.219l-7.1914-9.5117-0.08203-22.559h11.863l-15.602-14.652zm-15.588 0.14844 0.21875 30.322-14.109 14.781h11.676l-0.08203 21.875-7.8848 10.617c-1.0198-2.2112-3.0639-6.6749-5.709-14.859-3.4235-10.593-6.3829-23.943-5.2891-33.883 1.1736-10.665 4.6975-17.919 9.5-22.582 3.2328-3.1391 7.1256-5.2189 11.68-6.2715zm81.283 156.94 2.5371 3.6894-7.1465 10.604-7.377-9.4512zm-147.54 3.4609 2.9961 9.2207-8.7598 1.8438s5.0721-10.142 5.7637-11.064zm9.2207 0.21876 12.908 3.9199 2.998 6.4551-11.297 3.2266zm118.03 4.1504 3.6875 3.9199-10.834 8.5293-6.6856-8.2988zm25.129 1.3906 4.3789 8.7598-8.7598 2.9961-0.69141-4.1484zm-119.42 1.3789 12.91 2.7676 3.6894 5.5312-11.297 4.3809zm70.086 2.3164 3.457 5.0723-12.91 6.2226-5.5313-9.4512zm-45.885 1.3848 20.979 0.92187 1.8438 4.3789-16.367 5.9941zm76.08 2.0586 6.6856 8.9922-14.293 3.6875-2.7676-4.8398zm-128.18 0.24024 1.8438 7.377-11.064-4.3789zm21.904 2.082 5.9922 12.68-14.984-3.6875-1.6133-5.5332zm82.295 3.2188 7.8379 9.2207-17.289 2.7676-3.459-5.5332zm-26.504 1.8457 7.6074 11.297-20.285 0.6914-3.459-5.9941zm-30.428 0.00391 7.377 11.527-17.521-2.5352-1.8438-4.8418z"/>
</svg>
