<?xml version="1.0" encoding="UTF-8"?>
<svg width="900" height="600" xmlns="http://www.w3.org/2000/svg">
  <rect width="900" height="600" fill="#c1272d"/>
  <path id="star" d="m449.97 200-22.438 69.281-72.781 0.0625 58.844 42.812-22.438 69.344c15.165-11.122 42.625-31.055 58.844-42.812l58.906 42.781-22.5-69.281 58.844-42.875h-72.719l-22.562-69.312zm0 47.438 7.1562 21.844-14.25 0.03125 7.0938-21.875zm-27.219 36.5-4.375 13.594-18.594-13.531 22.969-0.0625zm15.375 0h23.75l7.3438 22.625-19.219 14-19.219-14 7.3438-22.625zm39.125 0h22.938l-18.531 13.594-4.4062-13.594zm-51.219 37.312 11.562 8.3438-18.594 13.531 7.0312-21.875zm48 0 7.0312 21.875-18.562-13.5v-0.03125l11.531-8.3438z" fill="#006233"/>
</svg>
