<?xml version="1.0" encoding="UTF-8"?>
<svg id="Layer_1" width="1800px" height="900px" style="enable-background:new 0 0 1800 900" version="1.1" viewBox="0 0 1800 900" xmlns="http://www.w3.org/2000/svg">
  <rect width="1800" height="900" style="fill:#CC092F"/>
  <rect width="1200" height="900" style="fill:#FFD200"/>
  <rect width="600" height="900" style="fill:#0046AE"/>
  <path d="m851.49 183.24c-2.7169-0.12285-5.4036 0.6118-7.68 2.1 2.6946 0.7955 4.5342 3.2825 4.506 6.092v7.423h-7.422c-2.7934 0.028885-5.2728-1.7836-6.093-4.454-2.7986 4.7368-2.7986 10.621 0 15.358 0.79565-2.695 3.2832-4.5346 6.093-4.506h7.422v35.681c0.021606 2.6875-1.6643 5.0927-4.198 5.989 3.541 0.48199 6.588 5.234 7.423 7.833 0.83698-2.593 3.884-7.351 7.424-7.833-2.5584-0.87317-4.2709-3.2858-4.251-5.989v-35.683h7.424c2.7941-0.029144 5.274 1.7845 6.093 4.456 2.7974-4.7375 2.7974-10.621 0-15.359-0.79645 2.6941-3.2838 4.5328-6.093 4.504h-7.424v-7.422c-0.029541-2.7939 1.7837-5.2739 4.455-6.093-2.2766-1.4867-4.9628-2.2206-7.679-2.098v0.0010222z"/>
  <path d="m851.49 184.78c-1.4958 0.0062866-2.9813 0.24791-4.402 0.716 1.743 1.4822 2.7528 3.651 2.765 5.939v7.423c-0.0066528 0.10419-0.024109 0.2074-0.052002 0.308v1.177h-1.178c-0.10034 0.027435-0.20319 0.044861-0.30701 0.052002h-7.424c-2.261-0.014847-4.406-1.0035-5.886-2.713-0.49487 1.4158-0.75433 2.9032-0.76801 4.403 0.0062866 1.4958 0.24792 2.9813 0.716 4.402 1.482-1.7425 3.6506-2.7515 5.938-2.763h8.959c-0.01001 0.15401-0.052002 0.30299-0.052002 0.459v0.76801c0.027527 0.10034 0.044922 0.2032 0.052002 0.30701v35.681c-0.073975 2.1717-1.0818 4.2057-2.765 5.58 1.1055 0.68929 2.0911 1.5543 2.918 2.561 0.60272 0.83144 1.1175 1.7232 1.536 2.661 0.41937-0.93735 0.93408-1.829 1.536-2.661 0.81641-0.98323 1.7842-1.8302 2.867-2.509-1.6924-1.389-2.7008-3.4425-2.765-5.631v-37.168h1.229c0.1004-0.026856 0.20325-0.04361 0.30701-0.050003h7.423c2.2607 0.01535 4.4054 1.0035 5.886 2.712 0.49493-1.4155 0.7547-2.9025 0.76898-4.402-0.0066528-1.4958-0.24866-2.9813-0.71698-4.402-1.482 1.7425-3.6506 2.7515-5.938 2.763h-7.423c-0.10388-0.0066681-0.20673-0.024094-0.30701-0.052002h-1.178v-1.177c-0.027649-0.10065-0.045105-0.20384-0.052002-0.308v-7.422c0.015686-2.2612 1.0042-4.4061 2.713-5.887-1.4157-0.49394-2.9026-0.75336-4.402-0.76801" style="fill:#F5D402"/>
  <path d="m944.41 313.99c-4.3369-2.9418-8.0438-6.7188-10.904-11.11-6.372-10.223-9.061-22.773-9.061-35.527 0-5.391 6.04-11.46 6.04-15.82 0.0401-3.5247-0.16504-7.0478-0.61401-10.544 2.143 0.29201 5.887 4.095 5.887 4.095s-0.12903-10.938-3.585-12.849c0 0 1.398-1.438 6.451-1.587-1.42-3.596-8.446-7.986-8.446-7.986 0.45239-0.70441 1.0895-1.271 1.842-1.638 1.9427-0.95259 4.0106-1.625 6.142-1.997-2.3359-0.50603-4.6427-1.1386-6.91-1.895-6.5401-2.1859-12.935-4.7844-19.146-7.78-7.9417-3.9832-16.712-6.0354-25.596-5.9895-3.575 5.035e-4 -8.84 0.098496-11.927 2.1515-2.825 1.875-2.595 4.314-3.584 5.17-2.33 2.016-6.321 1.945-8.243 1.945-12.44 0-12.901 13.311-12.901 13.311s3.181-4.813 8.805-4.813c9.351 0 16.433 5.094 16.433 7.013 0 0.77699-0.96399 0.92101-1.023 0.92101-6.108 0-15.326-3.516-20.223-3.686v2.406c10.931 3.803 22.013 9.187 22.013 32.917 0 14.943-1.789 30.19-9.265 42.183-2.8818 4.3907-6.6052 8.1667-10.955 11.11l44.385 7.9995 44.385-8.0005z"/>
  <g id="eagle_half">
    <path d="m900.02 303.99-44.383 10c-2.019-0.60999-11.513-3.56-18.174-7.269-11.726-6.532-17.806-13.031-31.74-13.669v-10.598c0-5.662 2.049-10.763 2.049-16.177-5.874-1.575-22.178-21.51-37.218-30.358-22.13 14.334-39.265 37.865-39.265 48.686 0 0 0.66498 232.51 0 313.51 0 4.668-2.815 11.263-2.815 11.263 8.079-3.418 22.888-23.68 26.006-31.382v3.687c12.201-5.564 21.135-20.184 25.136-27.747 0.070984 1.093 0.25702 3.838 0.25702 3.838 10.9-9.555 24.776-66.038 24.776-66.038l23.124 22.725s-8.363 16.976-11.621 20.016c1.5462 0.1781 3.1016 0.26361 4.658 0.25598-1.522 2.188-13.147 18.925-16.791 25.238-3.41 5.906-5.816 3.277-11.058 3.277-4.347 0-14.2 6.925-15.818 9.727-1.7504 2.8661-2.7696 6.1185-2.968 9.471 0 3.24 3.43 7.679 3.43 7.679 0.12628-0.78534 0.48224-1.5157 1.023-2.099 0 0 9.013 11.228 10.341 12.695 1.034 1.143 5.645 1.886 7.27 0.41101 4.066-3.697 8.002-6.282 11.621-11.621 1.863-2.751 2.005-5.904 4.146-8.858 7.162-9.88 21.415-28.799 24.675-33.121 0.21802 1.203 0.40503 2.205 0.612 3.43 3.694-7.457 21.451-21.706 21.451-21.706l18.578 8.55s-34.687 79.735-65.476 91.995c0 0 13.395 5.691 29.845 14.232 2.4 1.246 4.871 2.584 7.372 3.943 2.071-2.494 4.251-5.265 6.399-8.141 9.836-13.16 19.455-28.412 19.455-28.412 0.66998 3.961-4.524 16.194-13.31 31.281-1.728 2.964-3.53 6.064-5.529 9.213 2.229 1.273 4.441 2.559 6.655 3.892 16.295 9.805 31.598 21.077 37.267 31.432l4-10.009-4-10.009v-349.96l2-5-1.9801-8.2767z"/>
    <path d="m900 667.22c-5.749-6.236-17.769-13.855-31.278-20.886 16.334-29.316 24.428-75.655 20.63-84.88 0 0-6.705 24.033-14.898 37.729-7.586 12.684-16.925 26.95-25.954 37.526-6.7853-2.9316-13.724-5.4954-20.785-7.68 27.058-20.843 54.726-89.742 54.726-89.742l-28.612-13.26s-10.704 12.479-14.18 14.796c0 0-1.485-6.206-2.355-8.396 0 0-4.101 3.102-6.346 3.176 0 0-0.67102-4.212-1.178-6.964-2.825 1.883-7.525 1.485-7.525 1.485 4.127-1.954 9.01-13.925 9.01-13.925l-27.322-36.343s-9.597 46.116-20.528 55.596v-198.58l8.652 8.036 13.105-12.235v-9.317l-11.621 10.852v-28.105c1.751-2.649 2.912-4.626 3.788-6.194 1.881 3.279 7.96 13.329 15.101 19.505 1.175-4.778 8.908-9.318 8.908-9.318s2.771 7.508 7.012 9.368c1.492-2.628 10.394-8.446 10.394-8.446s-7.616 1.157-10.7 4.045c-2.649-0.59299-3.328-11.058-3.328-11.058s-11.207 5.459-13.156 9.368c-2.137-0.578-5.464-8.988-6.759-12.44 2.7709-0.30884 5.5569-0.4624 8.345-0.45999 3.196 0 7.285 1.514 11.569 3.532 4.707 2.216 9.631 5.022 14.028 7.014 5.632 2.55 14.153 3.068 16.637 3.174-2.9821 2.0709-6.1129 3.9189-9.367 5.529 0 0 13.411-0.12399 22.832-4.813 3.4247-2.0663 6.7083-4.358 9.829-6.86-1.4345 4.1833-3.6211 8.0694-6.452 11.467 13.836-1.171 20.726-9.072 22.679-11.723 1.2443 3.3854 2.9682 6.5746 5.119 9.47h5v340l-5.02 9.9568z" style="fill:#B07F55"/>
    <path d="m798.05 267.3 0.255 6.348v18.687c-5.019-1.727-11.326-9.973-14.384-14.334v-2.56c0.067444-1.9748 0.95844-3.8311 2.457-5.119l-3.02-1.074c-1.4845 1.5675-2.3408 3.6261-2.406 5.784v1.485l-9.009 9.676-8.856-13.413v-3.276c0-2.208 1.698-4.67 3.123-6.348l-2.97-1.075c-1.499 1.942-3.072 4.559-3.072 7.013v2.661c-2.083 2.156-10.187 10.496-10.187 10.496s-4.066-8.737-5.17-11.109c6.205-8.595 16.266-18.219 25.749-25.124 0 0 20.564 18.881 27.49 21.282h6.12e-5z" style="fill:#B07F55"/>
    <path d="m745.93 285.42v15.411l-7.167 6.654v-22.883c0.20459-2.7333 1.0458-5.3809 2.4565-7.731l4.7105 8.549z" style="fill:#B07F55"/>
    <path d="m768.25 291.36v9.522l-8.241 7.731v-29.794l8.241 12.541z" style="fill:#B07F55"/>
    <path d="m757.09 308.56-8.243-7.679v-11.159l8.243-8.652v27.49z" style="fill:#B07F55"/>
    <path d="m794.71 296.99c-1.914 2.705-6.927 9.321-12.337 12.236v-26.16c1.241 2.0645 6.934 11.275 12.337 13.924z" style="fill:#B07F55"/>
    <path d="m779.46 284.4v24.163l-8.243-7.679v-8.549l8.243-7.935z" style="fill:#B07F55"/>
    <path d="m745.93 310.15v24.113l-7.167-6.707v-10.7l7.167-6.706z" style="fill:#B07F55"/>
    <path d="m757.08 317.88v8.651l-8.244 7.678v-24.009l8.244 7.6795z" style="fill:#B07F55"/>
    <path d="m768.24 310.2v24.01l-8.241-7.731v-8.549l8.241-7.73z" style="fill:#B07F55"/>
    <path d="m779.45 317.93v8.549l-8.243 7.73v-24.009l8.243 7.7305z" style="fill:#B07F55"/>
    <path d="m790.61 334.26-8.244-7.731v-8.036c2.843-1.735 5.702-4.924 8.2435-8.2935l5.494e-4 24.06z" style="fill:#B07F55"/>
    <path d="m769.72 344.91 8.703-8.089v198.63s0.60699 9.856 1.024 16.279c-3.87 3.912-18.429 18.634-18.429 18.634v-233.6l8.702 8.1421z" style="fill:#B07F55"/>
    <path d="m756.05 562.94c0 6.385-11.659 21.273-17.303 24.675v-250.74l8.6 8.036 8.703-8.0895v226.12z" style="fill:#B07F55"/>
    <path d="m828.34 541.39 6.348-4.352s0.42297 2.1 0.97198 4.967c-2.718 3.716-18.331 25.024-26.057 35.425-1.921 2.584-3.534 9.163-3.534 9.163s-2.814-1.331-2.814-3.736c0-2.362 0.30798-5.171 0.30798-5.171-1.5112 1.5392-3.5779 2.4062-5.735 2.406 0-2.903 5.614-6.052 5.836-10.186-4.281 3.174-7.999 1.545-12.951 3.072-5.393 1.661-6.895 3.927-8.549 3.84-0.974-0.052978-1.856-1.733-1.484-2.765 0.64398-1.787 7.314-6.733 11.977-7.627 1.117-0.21399 9.903 1.912 11.673-0.81897 7.292-11.252 19.13-29.518 20.272-31.278 0.69928-0.13159 1.373-0.37433 1.9955-0.71899 0 0-0.067505 5.751 1.7425 7.78l1.222e-4 -6.13e-5z" style="fill:#D10429"/>
    <path d="m787.52 576.45c0.35077 0.38257 0.32709 0.97656-0.052978 1.33l-2.866 2.508c-0.41095 0.32056-1.0032 0.25201-1.33-0.15399-0.35199-0.38232-0.32874-0.97729 0.052002-1.331l2.866-2.508c0.18262-0.15973 0.42474-0.23395 0.66553-0.20398 0.2583 0.03418 0.49512 0.16193 0.66553 0.35901l-6.1e-5 -6.1e-5z" style="fill:#D10429"/>
    <path d="m791.87 579.47c0.84863 0.89471 0.81128 2.308-0.083435 3.1566l-0.019592 0.018372-6.962 6.091c-1.0568 0.78479-2.5497 0.56427-3.3345-0.49255-0.69922-0.94153-0.6095-2.2519 0.21149-3.0894l6.962-6.041c0.34711-0.29334 0.77631-0.47235 1.229-0.51251 0.76575-0.04242 1.5064 0.28003 1.997 0.86951z" style="fill:#D10429"/>
    <path d="m795.86 584.18c0.84839 0.89337 0.81195 2.3054-0.081421 3.1538l-0.021606 0.020203-7.012 6.092c-0.97113 0.77838-2.3894 0.62213-3.1678-0.349l-0.0071411-0.0089722c-0.85687-0.92078-0.81042-2.3604 0.104-3.224l6.961-6.041c0.32837-0.2915 0.74091-0.47095 1.178-0.51251 0.7804-0.044128 1.5369 0.27722 2.047 0.86951h6.1e-5z" style="fill:#D10429"/>
    <path d="m798.26 587.92c0.75854-0.063538 1.5015 0.24115 1.997 0.81897 0.85638 0.92096 0.81091 2.36-0.10199 3.225l-6.963 6.042c-1.0594 0.76788-2.5407 0.53156-3.3086-0.52783-0.66504-0.91748-0.58722-2.1774 0.18561-3.0062l7.014-6.091c0.3313-0.27838 0.74475-0.44037 1.177-0.461v6.1e-5z" style="fill:#D10429"/>
  </g>
  <g id="eagle_half-2">
    <path d="m899.98 303.99 44.383 10c2.019-0.60999 11.513-3.56 18.174-7.269 11.726-6.532 17.806-13.031 31.74-13.669v-10.598c0-5.662-2.049-10.763-2.049-16.177 5.874-1.575 22.178-21.51 37.218-30.358 22.13 14.334 39.265 37.865 39.265 48.686 0 0-0.66504 232.51 0 313.51 0 4.668 2.8149 11.263 2.8149 11.263-8.079-3.418-22.888-23.68-26.006-31.382v3.687c-12.201-5.564-21.135-20.184-25.136-27.747-0.070984 1.093-0.25702 3.838-0.25702 3.838-10.9-9.555-24.776-66.038-24.776-66.038l-23.124 22.725s8.363 16.976 11.621 20.016c-1.5462 0.1781-3.1016 0.26361-4.658 0.25598 1.522 2.188 13.147 18.925 16.791 25.238 3.41 5.906 5.816 3.277 11.058 3.277 4.347 0 14.2 6.925 15.818 9.727 1.7503 2.8661 2.7696 6.1185 2.968 9.471 0 3.24-3.43 7.679-3.43 7.679-0.12628-0.78534-0.48224-1.5157-1.023-2.099 0 0-9.013 11.228-10.341 12.695-1.034 1.143-5.645 1.886-7.27 0.41101-4.066-3.697-8.002-6.282-11.621-11.621-1.863-2.751-2.005-5.904-4.146-8.858-7.162-9.88-21.415-28.799-24.675-33.121-0.21802 1.203-0.40503 2.205-0.612 3.43-3.694-7.457-21.451-21.706-21.451-21.706l-18.578 8.55s34.687 79.735 65.476 91.995c0 0-13.395 5.691-29.845 14.232-2.4 1.246-4.871 2.584-7.372 3.943-2.071-2.494-4.251-5.265-6.399-8.141-9.836-13.16-19.455-28.412-19.455-28.412-0.66998 3.961 4.524 16.194 13.31 31.281 1.728 2.964 3.53 6.064 5.529 9.213-2.229 1.273-4.441 2.559-6.655 3.892-16.295 9.805-31.598 21.077-37.267 31.432l-4-10.009 4-10.009v-349.96l-2-5 1.9801-8.2767z"/>
    <path d="m900 667.22c5.749-6.236 17.769-13.855 31.278-20.886-16.334-29.316-24.428-75.655-20.63-84.88 0 0 6.705 24.033 14.898 37.729 7.586 12.684 16.925 26.95 25.954 37.526 6.7853-2.9316 13.724-5.4954 20.785-7.68-27.058-20.843-54.726-89.742-54.726-89.742l28.612-13.26s10.704 12.479 14.18 14.796c0 0 1.485-6.206 2.355-8.396 0 0 4.101 3.102 6.346 3.176 0 0 0.67102-4.212 1.178-6.964 2.825 1.883 7.525 1.485 7.525 1.485-4.127-1.954-9.01-13.925-9.01-13.925l27.322-36.343s9.597 46.116 20.528 55.596v-198.58l-8.652 8.036-13.105-12.235v-9.317l11.621 10.852v-28.105c-1.751-2.649-2.912-4.626-3.788-6.194-1.881 3.279-7.96 13.329-15.101 19.505-1.175-4.778-8.908-9.318-8.908-9.318s-2.771 7.508-7.012 9.368c-1.492-2.628-10.394-8.446-10.394-8.446s7.616 1.157 10.7 4.045c2.649-0.59299 3.328-11.058 3.328-11.058s11.207 5.459 13.156 9.368c2.137-0.578 5.464-8.988 6.759-12.44-2.7709-0.30884-5.5569-0.4624-8.345-0.45999-3.196 0-7.285 1.514-11.569 3.532-4.707 2.216-9.631 5.022-14.028 7.014-5.632 2.55-14.153 3.068-16.637 3.174 2.9821 2.0709 6.1129 3.9189 9.367 5.529 0 0-13.411-0.12399-22.832-4.813-3.4247-2.0663-6.7083-4.358-9.829-6.86 1.4345 4.1833 3.6211 8.0694 6.452 11.467-13.836-1.171-20.726-9.072-22.679-11.723-1.2443 3.3854-2.9682 6.5746-5.119 9.47h-5v340l5.02 9.9568z" style="fill:#B07F55"/>
    <path d="m1002 267.3-0.255 6.348v18.687c5.019-1.727 11.326-9.973 14.384-14.334v-2.56c-0.067444-1.9748-0.95844-3.8311-2.457-5.119l3.02-1.074c1.4845 1.5675 2.3408 3.6261 2.406 5.784v1.485l9.009 9.676 8.856-13.413v-3.276c0-2.208-1.698-4.67-3.123-6.348l2.97-1.075c1.499 1.942 3.072 4.559 3.072 7.013v2.661c2.083 2.156 10.187 10.496 10.187 10.496s4.066-8.737 5.17-11.109c-6.205-8.595-16.266-18.219-25.749-25.124 0 0-20.564 18.881-27.49 21.282h-6.1e-5z" style="fill:#B07F55"/>
    <path d="m1054.1 285.42v15.411l7.167 6.654v-22.883c-0.20459-2.7333-1.0458-5.3809-2.4564-7.731l-4.7106 8.549z" style="fill:#B07F55"/>
    <path d="m1031.8 291.36v9.522l8.241 7.731v-29.794l-8.241 12.541z" style="fill:#B07F55"/>
    <path d="m1042.9 308.56 8.243-7.679v-11.159l-8.243-8.652v27.49z" style="fill:#B07F55"/>
    <path d="m1005.3 296.99c1.914 2.705 6.927 9.321 12.337 12.236v-26.16c-1.241 2.0645-6.934 11.275-12.337 13.924z" style="fill:#B07F55"/>
    <path d="m1020.5 284.4v24.163l8.243-7.679v-8.549l-8.243-7.935z" style="fill:#B07F55"/>
    <path d="m1054.1 310.15v24.113l7.167-6.707v-10.7l-7.167-6.706z" style="fill:#B07F55"/>
    <path d="m1042.9 317.88v8.651l8.244 7.678v-24.009l-8.244 7.6795z" style="fill:#B07F55"/>
    <path d="m1031.8 310.2v24.01l8.241-7.731v-8.549l-8.241-7.73z" style="fill:#B07F55"/>
    <path d="m1020.5 317.93v8.549l8.243 7.73v-24.009l-8.243 7.7305z" style="fill:#B07F55"/>
    <path d="m1009.4 334.26 8.244-7.731v-8.036c-2.843-1.735-5.702-4.924-8.2435-8.2935l-5.494e-4 24.06z" style="fill:#B07F55"/>
    <path d="m1030.3 344.91-8.703-8.089v198.63s-0.60699 9.856-1.024 16.279c3.8701 3.912 18.429 18.634 18.429 18.634v-233.6l-8.702 8.1421z" style="fill:#B07F55"/>
    <path d="m1043.9 562.94c0 6.385 11.659 21.273 17.303 24.675v-250.74l-8.6 8.036-8.703-8.0895v226.12z" style="fill:#B07F55"/>
    <path d="m971.66 541.39-6.348-4.352s-0.42297 2.1-0.97198 4.967c2.718 3.716 18.331 25.024 26.057 35.425 1.921 2.584 3.534 9.163 3.534 9.163s2.814-1.331 2.814-3.736c0-2.362-0.30798-5.171-0.30798-5.171 1.5112 1.5392 3.5779 2.4062 5.735 2.406 0-2.903-5.614-6.052-5.836-10.186 4.281 3.174 7.999 1.545 12.951 3.072 5.393 1.661 6.895 3.927 8.549 3.84 0.974-0.052978 1.856-1.733 1.484-2.765-0.64398-1.787-7.314-6.733-11.977-7.627-1.117-0.21399-9.903 1.912-11.673-0.81897-7.292-11.252-19.13-29.518-20.272-31.278-0.69928-0.13159-1.373-0.37433-1.9955-0.71899 0 0 0.067505 5.751-1.7425 7.78l-1.222e-4 -6.13e-5z" style="fill:#D10429"/>
    <path d="m1012.5 576.45c-0.35077 0.38257-0.32709 0.97656 0.052978 1.33l2.866 2.508c0.41095 0.32056 1.0032 0.25201 1.33-0.15399 0.35199-0.38232 0.32874-0.97729-0.052002-1.331l-2.866-2.508c-0.18262-0.15973-0.42474-0.23395-0.66553-0.20398-0.2583 0.03418-0.49512 0.16193-0.66553 0.35901l6.1e-5 -6.1e-5z" style="fill:#D10429"/>
    <path d="m1008.1 579.47c-0.84863 0.89471-0.81128 2.308 0.083435 3.1566l0.019592 0.018372 6.962 6.091c1.0568 0.78479 2.5497 0.56427 3.3345-0.49255 0.69922-0.94153 0.6095-2.2519-0.21149-3.0894l-6.962-6.041c-0.34711-0.29334-0.77631-0.47235-1.229-0.51251-0.76575-0.04242-1.5064 0.28003-1.997 0.86951z" style="fill:#D10429"/>
    <path d="m1004.1 584.18c-0.84839 0.89337-0.81195 2.3054 0.081421 3.1538l0.021606 0.020203 7.012 6.092c0.97113 0.77838 2.3894 0.62213 3.1678-0.349l0.0071411-0.0089722c0.85687-0.92078 0.81042-2.3604-0.104-3.224l-6.961-6.041c-0.32837-0.2915-0.74091-0.47095-1.178-0.51251-0.7804-0.044128-1.5369 0.27722-2.047 0.86951h-6.1e-5z" style="fill:#D10429"/>
    <path d="m1001.7 587.92c-0.75854-0.063538-1.5015 0.24115-1.997 0.81897-0.85638 0.92096-0.81091 2.36 0.10199 3.225l6.963 6.042c1.0594 0.76788 2.5407 0.53156 3.3086-0.52783 0.66504-0.91748 0.58722-2.1774-0.18561-3.0062l-7.014-6.091c-0.3313-0.27838-0.74475-0.44037-1.177-0.461v6.1e-5z" style="fill:#D10429"/>
  </g>
  <path d="m889.73 206.64c11.458 0 19.517 5.224 30.359 10.033 2.841 1.26 5.45 2.281 7.779 3.071-1.264 0.96738-2.2669 2.2346-2.918 3.687 0 0 4.859 0.89999 7.064 4.967 0 0-4.62 0.524-5.375 3.224 2.588 0.19501 5.159 3.457 5.171 6.605l-6.553-2.049c1.0085 5.0584 1.5398 10.2 1.587 15.358 0 4.086-5.886 8.894-5.886 15.819 0 21.734 5.475 30.088 9.369 36.807 1.523 2.629 2.761 5.654 5.324 7.935-11.218-5.973-19.556-13.439-19.556-20.374v-26.262h-2.918v26.262c0 5.029 1.228 7.372 1.228 7.372 1.761 5.564 5.321 14.152 7.526 17.61-10.321-5.578-15.564-12.563-15.564-15.153v-36.092h-2.918v36.603l0.56299 2.508c-1.251 1.88-2.877 4.106-3.993 4.863-1.113-0.75601-2.69-2.986-3.943-4.863l0.56403-2.508v-36.603h-2.918v36.092c0 2.589-5.243 9.575-15.563 15.153 2.205-3.459 5.764-12.046 7.524-17.61 0 0 1.229-2.342 1.229-7.372v-26.262h-2.918v26.262c0 6.927-8.307 14.405-19.505 20.374 2.537-2.283 3.757-5.321 5.272-7.935 4.258-7.348 9.522-16.683 9.522-43.258 0-9.974-1.475-16.755-4.044-21.501-0.78101-1.566-1.833-5.734 4.146-5.734 3.097 0 10.188 5.478 10.188 5.478-0.28333-2.7293-1.6938-5.2162-3.891-6.86-0.90662-0.71431-1.48-1.7697-1.586-2.919 0.4115-1.5389 1.4013-2.8594 2.763-3.686 0.83301-0.37801-12.183-2.646-12.183-8.549 0-1.229 0.77301-2.048 3.479-2.048 3.545 0 9.312 4.249 14.438 4.249 3.789 0 5.283-0.922 9.163-0.922 4.742 0 14.635 8.979 18.019 8.651-3.783-2.375-9.894-11.365-19.145-11.365-3.211 0-6.117 0.717-9.114 0.717-3.841 0-7.623-3.533-11.774-3.533-2.782 0-5.889 0.155-6.349-0.564-0.80499-1.255-0.080017-1.983 0.66602-3.02 1.409-1.957 5.366-2.525 9.267-2.661 1.17-0.041 2.338-0.061005 3.4325-0.050507 1.0905 0.011505 2.0995 0.053497 2.9715 0.053497l1.22e-4 3.09e-5z" style="fill:#B07F55"/>
  <path d="m852.53 220.69c1.8221-2.9418 5.0753-4.688 8.534-4.581 2.556 0 10.992-0.177 10.992-0.177 1.124 2.921 6.249 7.802 6.249 12.878 0 0-5.202-9.377-19.723-9.377-2.0859-0.032257-4.1531 0.39662-6.054 1.256l0.0020142 9.919e-4z" style="fill:#CC092F"/>
  <path d="m876.14 230.6s-3.093 3.258-3.765 4.997c-3.061-1.16-8.399-6.661-8.399-6.661s4.525 2.642 12.163 1.664h9.765e-4z" style="fill:#D10429"/>
  <path d="m871.24 221.97s-3.568-1.144-3.568-2.342c0-1.526 1.733-1.526 2.769-0.33701 0.49304 0.8094 0.76794 1.7327 0.79797 2.68l0.0010377-9.919e-4z"/>
  <ellipse cx="887.88" cy="223.93" rx="7.3726" ry="5.5963"/>
  <circle cx="887.87" cy="223.93" r="5.1206" style="fill:#F5D402"/>
  <circle cx="887.88" cy="223.93" r="2.3463"/>
  <polygon points="805.15 591.95 821.35 600.79 817.42 618.82 801.22 609.98"/>
  <path d="m729.68 418.73-5.836 2.663 65.936 144.42h7.014l-67.114-147.08zm77.762 170.32-4.76 4.915 2.969 6.553 5.784-2.662-3.993-8.806z"/>
  <path d="m750.17 532.6s5.554 11.472 9.775 13.045c-2.183-0.59497-9.271 2.006-9.271 2.006s12.499 11.165 23.1 11.898c8.99 0.61902 13.355-3.868 13.355-3.868l-1.801-9.524c-3.8994-4.3593-8.811-7.6927-14.302-9.707-8.894-3.098-20.857-3.848-20.857-3.848l0.0010376-0.0020141z"/>
  <path d="m792.04 512.05s-7.669 6.565-9.768 14.169c-2.1 7.605 1.368 16.247 1.368 16.247l6.444 12.021s8.931-4.753 12.73-11.86c3.799-7.108 2.406-16.698 2.406-16.698s-7.075 2.634-7.975 3.8c1.493-7.884-5.206-17.679-5.206-17.679h0.0010376z"/>
  <path d="m767.39 508.98s-8.722 2.948-17.192 2.438c-8.068-0.487-14.777-7.262-14.777-7.262s6.688-4.526 9.989-3.923c-3.631-1.327-8.896-10.423-8.896-10.423s7.482-2.261 14.116 0.23999c6.634 2.503 12.419 9.77 12.419 9.77l4.342 9.16-0.0010376 3.06e-5z"/>
  <path d="m770.39 466.38s4.362 9.032 3.328 12.171c1.353-2.09 6.474-5.345 6.474-5.345s3.096 14.624 0.13501 23.656c-2.96 9.031-11.974 12.47-11.974 12.47l-9.943-19.337s-1.48-7.164 1.62-12.837c3.101-5.673 10.36-10.779 10.36-10.779v0.001007z"/>
  <path d="m713.64 442.47s9.427-0.98999 18.051 2.583c7.21 2.993 9.42 8.433 9.42 8.433l3.551 9.52s-10.261 3.848-18.368 0.90601c-8.108-2.945-14.065-12.68-14.065-12.68s5.666-2.149 7.823-1.343c-3.142-1.39-6.41-7.419-6.41-7.419v0.0010071l-0.0020752-0.0010376z"/>
  <path d="m743.29 424.8s4.137 5.313 4.261 11.424c1.103-3.249 6.268-6.84 6.268-6.84s5.312 12.855 4.146 21.982c-1.166 9.128-8.809 14.527-8.809 14.527l-9.531-18.092s-3.106-7.415-2.191-13.167c0.91602-5.75 5.856-9.836 5.856-9.836v0.0019836z"/>
  <path d="m710.64 390.2s-1.709 9.854 1.199 15.53c2.598 5.065 4.252 6.176 4.252 6.176-4.954-3.269-12.444-3.551-12.444-3.551s2.666 10.721 9.037 15.612 16.195 3.748 16.195 3.748 6.46-8.6 6.01-17.865c-0.44897-9.265-7.808-19.197-7.808-19.197s-2.902 6.02-3.158 10.514c-1.878-4.633-13.285-10.966-13.285-10.966l0.001953-0.0010071z"/>
  <path d="m787.64 555.27 0.26501 3.537c5.875 0.054993 6.75-0.53003 8.256 1.322 1.453 1.6317 3.8004 2.1245 5.787 1.215 2.4067-1.1139 3.4681-3.9576 2.38-6.376-1.095-2.399-3.326-2.92-5.475-2.496-1.319 0.26001-2.187 1.313-3.306 1.891-2.128 1.102-7.909 0.90802-7.909 0.90802l0.0020143-0.0010986z"/>
  <path d="m787.13 552.57 2.859 2.095c-3.067 5.014-4.024 5.446-3.251 7.705 0.6142 2.097-0.21118 4.3494-2.035 5.553-2.2196 1.4509-5.1935 0.84534-6.669-1.358-1.454-2.2-0.71503-4.366 0.78302-5.965 0.91998-0.98199 2.27-1.16 3.353-1.803 2.062-1.223 4.959-6.228 4.959-6.228l9.155e-4 0.0010376z"/>
  <path d="m767.23 510.57 0.26398 3.537c5.876 0.054016 6.75-0.53003 8.256 1.321 1.4532 1.6313 3.8004 2.1241 5.787 1.215 2.4075-1.1126 3.4691-3.9572 2.379-6.375-1.095-2.4-3.325-2.92-5.474-2.496-1.32 0.26099-2.187 1.313-3.305 1.891-2.129 1.101-7.909 0.90799-7.909 0.90799l0.0020142-9.766e-4z"/>
  <path d="m768.42 511.82 2.5 2.517c-3.809 4.474-4.824 4.753-4.411 7.104 0.2818 2.1676-0.88428 4.2652-2.874 5.17-2.4182 1.0881-5.2617 0.027161-6.376-2.379-1.095-2.399-0.028015-4.425 1.701-5.771 1.061-0.82501 2.425-0.79303 3.593-1.258 2.227-0.88702 5.867-5.382 5.867-5.382v-0.0010071z"/>
  <path d="m747.45 468.72 0.26501 3.537c5.876 0.053986 6.75-0.53 8.257 1.323 1.4545 1.6299 3.8015 2.1218 5.788 1.213 2.4062-1.1149 3.4671-3.9586 2.379-6.377-1.097-2.399-3.326-2.919-5.476-2.495-1.32 0.26099-2.187 1.313-3.306 1.891-2.128 1.102-7.908 0.90701-7.908 0.90701l9.767e-4 0.0010072z"/>
  <path d="m749.08 467.98 2.499 2.516c-3.809 4.475-4.822 4.754-4.411 7.105 0.28149 2.167-0.88403 4.264-2.873 5.169-2.4182 1.0873-5.261 0.026581-6.376-2.379-1.094-2.4-0.026978-4.426 1.701-5.771 1.061-0.827 2.424-0.793 3.594-1.26 2.227-0.88699 5.866-5.38 5.866-5.38h-6.1e-5z"/>
  <path d="m726.38 424.54 0.26398 3.536c5.876 0.054993 6.751-0.53 8.256 1.321 1.4536 1.6313 3.8006 2.1248 5.788 1.217 2.4066-1.1145 3.468-3.9583 2.38-6.377-1.095-2.4-3.326-2.921-5.476-2.496-1.318 0.26099-2.186 1.314-3.305 1.891-2.128 1.101-7.909 0.90799-7.909 0.90799h0.0020142z"/>
  <path d="m728.01 423.8 2.498 2.517c-3.808 4.475-4.823 4.753-4.41 7.105 0.28101 2.1669-0.88434 4.2636-2.873 5.169-2.4178 1.0887-5.2615 0.027557-6.375-2.379-1.096-2.399-0.028015-4.427 1.699-5.771 1.062-0.82501 2.425-0.793 3.594-1.26 2.226-0.88599 5.866-5.38 5.866-5.38l9.766e-4 -0.001007z"/>
  <polygon points="807.49 597.06 817.53 602.54 815.1 613.73 805.05 608.24" style="fill:#F5D402"/>
  <path d="m763.5 500.09c-2.106 0.87399-5.23-8.295-7.524-13.318-2.353-5.155-7.131-13.1-5.774-13.72 1.489-0.67999 3.451 3.492 5.859 8.767 2.408 5.273 9.412 17.449 7.439 18.269l-6.11e-5 0.0019836z" style="fill:#F5D402"/>
  <path d="m741.87 451.8c-2.105 0.87701-4.41-5.127-6.703-10.151-2.353-5.154-4.645-8.795-3.288-9.415 1.49-0.67999 3.69 3.837 5.616 8.055 1.866 4.088 6.348 10.69 4.374 11.512l9.766e-4 -9.766e-4z" style="fill:#F5D402"/>
  <path d="m791.91 561.29c-1.653 0.44202-8.869-14.662-14.703-27.442-5.833-12.779-10.177-23.119-8.82-23.736 1.49-0.681 6.213 11.391 12.049 24.172 5.835 12.781 12.713 26.673 11.475 27.006h-9.766e-4z" style="fill:#F5D402"/>
  <circle cx="799.97" cy="556.98" r="2.6058" style="fill:#F5D402"/>
  <circle cx="782.05" cy="563.93" r="2.6057" style="fill:#F5D402"/>
  <circle cx="779.55" cy="512.25" r="2.6061" style="fill:#F5D402"/>
  <circle cx="761.62" cy="522.24" r="2.6057" style="fill:#F5D402"/>
  <circle cx="759.78" cy="470.41" r="2.6059" style="fill:#F5D402"/>
  <circle cx="742.28" cy="478.4" r="2.6059" style="fill:#F5D402"/>
  <circle cx="738.71" cy="426.24" r="2.6064" style="fill:#F5D402"/>
  <circle cx="721.21" cy="434.22" r="2.6064" style="fill:#F5D402"/>
  <path d="m713.54 396.19s-0.255 7.201 2.127 11.285c2.383 4.086 7.704 5.715 7.704 5.715s0.25403-7.199-2.128-11.283c-2.383-4.086-7.703-5.717-7.703-5.717z" style="fill:#097754"/>
  <path d="m708.56 412.48s6.255 0.36801 9.868 3.136c3.61 2.768 5.009 8.535 5.009 8.535-2.7799 0.14594-5.5234-0.68423-7.756-2.347-3.611-2.769-7.121-9.324-7.121-9.324z" style="fill:#097754"/>
  <path d="m728.19 397.94c-1.2767 3.1458-1.9026 6.5176-1.84 9.912 0.23901 5.143 3.24 10.937 3.24 10.937s2.713-6.174 2.474-11.318c-0.23798-5.143-3.147-8.075-3.874-9.531h6.11e-5z" style="fill:#097754"/>
  <path d="m717.66 444.3c2.0876 2.7488 4.749 5.0099 7.799 6.626 4.728 2.337 11.773 2.424 11.773 2.424-2.2648-2.8228-5.0673-5.1681-8.245-6.9-4.728-2.337-11.327-2.152-11.327-2.152v0.0019837z" style="fill:#097754"/>
  <path d="m719.18 454.26s2.257 4.421 6.384 6.316c4.129 1.896 12.574 1.74 12.574 1.74-2.0184-2.4913-4.526-4.5425-7.368-6.027-4.128-1.897-11.591-2.029-11.591-2.029h0.0010376z" style="fill:#097754"/>
  <path d="m742.95 430.68c-1.5037 2.6387-2.2805 5.6291-2.251 8.666 0.245 4.545 3.227 9.511 3.227 9.511s2.097-5.693 1.852-10.237c-0.20917-2.8535-1.1867-5.5971-2.829-7.94h9.767e-4z" style="fill:#097754"/>
  <path d="m752.14 436.51s-4.269 5.73-4.882 11.621c-0.61298 5.89 2.428 11.942 2.428 11.942s5.157-5.178 5.77-11.068c0.61298-5.892-3.316-12.493-3.316-12.493v-0.0019836z" style="fill:#097754"/>
  <path d="m740.37 490.91c0.47028 1.5929 1.2509 3.077 2.297 4.367 1.4572 1.6979 3.0769 3.2493 4.836 4.632 2.1609-0.57935 4.4293-0.63248 6.615-0.155 3.665 0.79501 8.54 4.06 8.54 4.06s-5.247-7.831-10.695-10.876c-3.5682-1.8369-7.611-2.5445-11.591-2.029l-0.0019531 0.0010071z" style="fill:#097754"/>
  <path d="m739.83 504.37s6.793-2.902 12.387-2.153c5.595 0.74899 10.639 5.171 10.639 5.171s-7.561 2.616-13.155 1.868c-3.6863-0.66281-7.1093-2.3569-9.872-4.886h0.0010376z" style="fill:#097754"/>
  <path d="m768.54 472.79s-6.007 6.364-6.511 11.887c-0.50299 5.522 4.871 10.669 4.871 10.669-0.14246-1.982 0.081604-3.9732 0.66101-5.874 0.76562-1.7185 1.7371-3.3377 2.893-4.822 0.47583-1.6633 0.6499-3.3983 0.51398-5.123-0.45953-2.3568-1.2784-4.6289-2.428-6.737v-3.05e-5z" style="fill:#097754"/>
  <path d="m777.16 480.16s-5.662 5.729-7.158 11.864c-1.497 6.135 1.17 12.676 1.17 12.676s5.149-4.062 6.646-10.196c1.497-6.135-0.659-14.344-0.659-14.344h0.0010376z" style="fill:#097754"/>
  <path d="m791.34 517.14c1.478 3.1306 2.558 6.434 3.215 9.833 0.65198 4.477 0.047974 6.027 0.047974 6.027s-2.652 2.607-3.841 4.14c-1.528 1.97-1.752 5.576-1.752 5.576s-5.325-7.916-4.504-13.703c0.82001-5.786 6.834-11.874 6.834-11.874l6.1e-5 0.0010375z" style="fill:#097754"/>
  <path d="m802.56 529.53s-6.818 4.503-9.523 9.123c-1.6096 2.8365-2.0759 6.1803-1.304 9.349 3.1562-0.44879 5.9388-2.3046 7.566-5.046 2.706-4.618 3.26-13.427 3.26-13.427l0.0010376 0.0010377z" style="fill:#097754"/>
  <path d="m757.76 548.55s9.826-0.26801 15.832 1.209c6.006 1.475 8.192 4.695 8.192 4.695s-6.753 3.162-12.759 1.686c-6.006-1.475-11.266-7.591-11.266-7.591l9.766e-4 0.0010376z" style="fill:#097754"/>
  <path d="m756.1 536.89s4.433 6.873 10.164 9.367c7.898 3.435 17.043 1.77 17.043 1.77s-4.968-6.089-11.804-8.777c-6.838-2.687-15.403-2.359-15.403-2.359l6.09e-5 -0.0010376z" style="fill:#097754"/>
  <path d="m1092.5 401.94 1.281 2.712c-1.2731 0.47766-2.3411 1.382-3.022 2.559-0.93994 1.847 0.61499 4.455 0.61499 4.455s-10.804-0.94299-12.491 0.15399c-1.528 0.98999 0.64697 8.474-0.35901 14.795-1.402 8.81-4.875 8.07-5.017 9.777-0.13794 1.659 1.3311 4.249 1.3311 4.249s-2.026 0.638-2.458 1.485c-0.69495 1.362 0.48401 3.875-0.35803 5.528-4.7 9.223-11.64 22.836-16.228 31.843-0.64099 1.257-2.363 1.737-3.226 3.43-0.45422 1.2316-0.50781 2.5752-0.15295 3.839 0 0-3.041 0.18201-4.0959 2.253-0.66418 1.6392-0.82471 3.4391-0.46106 5.17-1.229 0.21887-2.2877 0.99374-2.868 2.099-1.009 1.981 0.69995 3.02 0.25903 3.891-6.1689 12.102-13.434 26.368-17.867 35.068-1.631 3.199-7.338 3.84-10.65 10.341-1.8952 3.5778-1.3424 7.96 1.382 10.955 0 0-4.772 0.43201-6.04 2.919-1.292 2.535-0.27002 6.384 3.174 8.139 3.444 1.754 7.207 0.33398 8.5-2.201 1.267-2.487-1.281-6.604-1.281-6.604 4.0319 0.40741 7.8915-1.7372 9.6751-5.376 3.313-6.501 0.52002-11.441 2.15-14.641 4.434-8.7 11.7-22.965 17.867-35.068 0.44495-0.871 2.267-0.117 3.276-2.098 0.55383-1.1122 0.55383-2.4198 0-3.532 1.6248-0.72842 2.9971-1.9225 3.943-3.431 1.056-2.071-0.56299-4.658-0.56299-4.658 1.2327-0.44122 2.2913-1.2663 3.02-2.354 0.86206-1.693 0.22803-3.35 0.86902-4.609 4.59-9.006 11.531-22.62 16.229-31.841 0.84302-1.655 3.5551-2.221 4.249-3.585 0.43201-0.84601-0.255-2.866-0.255-2.866s2.988-0.29599 4.248-1.383c1.298-1.118-1.337-3.516 4.967-9.829 4.522-4.528 11.817-7.192 11.722-9.01-0.10498-2.01-7.218-10.187-7.218-10.187s3.001-0.25299 3.942-2.098c0.55347-1.2577 0.66199-2.6663 0.30798-3.994l2.968-0.51199 4.883e-4 -14.078-11.365 8.294zm-98.136 196.07c-0.48975 0.98267-0.48975 2.1383 0 3.121 0 0-3.583-1.12-4.812-0.51202-1.158 0.573 0 17.458 0 17.458s14.295-9.018 14.077-10.29c-0.22998-1.352-3.225-3.635-3.225-3.635 1.0731-0.1651 2.0042-0.82971 2.509-1.791 0.46997-0.92499 0.53302-3.568-2.714-5.223-0.96771-0.53784-2.0696-0.78638-3.1745-0.716-1.0909 0.069885-2.0812 0.66101-2.6605 1.588v6.1e-5z"/>
  <path d="m1095.1 402.51 6.757 3.431-0.10095-8.1405-6.656 4.7095z" style="fill:#F5D402"/>
  <path d="m1092.5 407.42c-1.1912 1.7986-0.69885 4.2222 1.0997 5.4134 1.7985 1.1912 4.2222 0.69885 5.4133-1.0997 1.1913-1.7986 0.69885-4.2222-1.0996-5.4134-0.12756-0.084473-0.25989-0.16138-0.39648-0.23032-0.67822-0.35117-1.4393-0.51071-2.2015-0.46149-1.1902 0.054535-2.262 0.73654-2.8156 1.7915l1.222e-4 -3.05e-5z" style="fill:#F5D402"/>
  <path d="m1080.9 413.62c-0.71106 0.45999 0.25598 6.545 0.051025 11.722-0.19397 4.882-1.756 6.257-2.611 7.935-0.78894 1.549-3.634 3.379-3.634 3.379l2.354 2.355s1.532-2.386 3.942-7.118c2.843-5.579 2.751-15.688 3.585-16.227 2.1819-0.76752 4.4034-1.4171 6.655-1.946-9.766e-4 0-5.442-0.29401-8.447-0.25449-0.63586-0.039246-1.2739 0.012787-1.895 0.15451z" style="fill:#F5D402"/>
  <path d="m1081.5 441.73c1.0411-2.5871 2.2205-5.1164 3.533-7.577 3.311-6.499 10.379-11.213 10.544-12.389 0.172-1.212-2.4565-6.9105-2.4565-6.9105s-6.2355 1.1955-7.1176 2.0485c-0.85205 0.823-0.47595 9.267-3.788 15.767-1.2303 2.5296-2.597 4.9905-4.094 7.372l3.3792 1.689z" style="fill:#F5D402"/>
  <path d="m1097.4 422.22c0.052002 0.98901-8.163 6.861-11.007 12.439-2.41 4.731-3.4301 7.373-3.4301 7.373l3.277 0.51199s-0.22595-3.367 0.56299-4.915c0.854-1.677 1.079-3.731 4.915-6.757 4.068-3.209 9.567-6.014 9.522-6.861-0.041016-0.78201-6.1436-8.344-6.1436-8.344 0.88196 2.1425 1.6509 4.3299 2.3035 6.553h1.22e-4z" style="fill:#F5D402"/>
  <path d="m1073.4 458.72c4.936-9.688 6.444-10.348 7.0649-11.569 0.66895-1.312 0.50903-3.078-1.689-4.199-0.65491-0.36325-1.4033-0.52307-2.1495-0.45901-0.95813 0.11389-1.79 0.71323-2.2015 1.586-0.62195 1.222-0.28503 2.855-5.223 12.544l-11.212 21.961c-0.64465 1.1146-0.26355 2.5408 0.85107 3.1854v3.05e-5c0.056396 0.032593 0.11401 0.062775 0.17297 0.090576 1.0786 0.60394 2.4427 0.21912 3.0466-0.85953 0.04834-0.086243 0.09082-0.1756 0.12732-0.26749l11.212-22.013z" style="fill:#F5D402"/>
  <path d="m1053.6 483.91c-0.61096 1.201 0.43604 2.964 2.355 3.943 1.9189 0.97601 3.996 0.79099 4.6071-0.41 0.61096-1.2-0.48596-2.964-2.406-3.943-0.84705-0.45612-1.8041-0.66834-2.7645-0.61301-0.73486 0.0047608-1.4139 0.39255-1.7915 1.023z" style="fill:#F5D402"/>
  <path d="m1049.4 490.15c-0.79199 1.553 0.44299 3.783 2.765 4.968 2.322 1.183 4.84 0.88599 5.631-0.66699 0.79199-1.554-0.44397-3.782-2.765-4.967-0.79272-0.41742-1.6652-0.66147-2.5594-0.716-1.2058-0.17804-2.405 0.36154-3.0715 1.382v3.05e-5z" style="fill:#F5D402"/>
  <path d="m1046.8 497.12c-0.61096 1.199 0.43701 2.963 2.355 3.941 1.9189 0.978 3.995 0.79099 4.608-0.409 0.61096-1.2-0.43701-2.964-2.355-3.942-0.86511-0.45728-1.8386-0.66992-2.8156-0.61499-0.73535 0.0056152-1.4147 0.39404-1.7925 1.025v-3.05e-5z" style="fill:#F5D402"/>
  <path d="m1045.1 503.77s-12.448 24.5-16.84 33.121c-1.4041 2.754-7.312 4.47-9.625 9.011-2.33 4.568-0.68597 8.844 2.354 10.392 3.0389 1.549 7.502 0.42297 9.83-4.146 2.313-4.54 0.23499-10.353 1.637-13.106 4.3929-8.624 16.843-33.122 16.843-33.122 0.66284-1.0828 0.32239-2.498-0.7605-3.1608-0.068726-0.042084-0.13965-0.080566-0.21252-0.1152-0.43909-0.23325-0.94031-0.3226-1.433-0.25549-0.77869 0.15939-1.4403 0.66916-1.793 1.3815z" style="fill:#F5D402"/>
  <path d="m1013.6 560.65c-0.93298 1.83 0.13397 4.269 2.405 5.426 2.272 1.158 4.904 0.60101 5.837-1.228 0.93298-1.83-0.18597-4.27-2.457-5.427-0.78802-0.41681-1.6686-0.62787-2.56-0.61353-1.3318-0.025024-2.5701 0.6825-3.225 1.8425h-6.1e-5z" style="fill:#F5D402"/>
  <path d="m997.03 598.07c-0.60333-0.054199-1.1893 0.21954-1.535 0.71698-0.47699 0.935 0.508 2.413 2.201 3.276 1.693 0.862 3.464 0.78198 3.942-0.15399 0.47699-0.93701-0.51001-2.414-2.201-3.276-0.74225-0.38715-1.57-0.58118-2.407-0.56403l-6.11e-5 0.0010376z" style="fill:#F5D402"/>
  <path d="m991.2 602.67v12.082l9.83-7.065c-2.1365-3.318-5.8896-5.2338-9.83-5.018v0.0010376z" style="fill:#F5D402"/>
  <path d="m997.42 333.6c0-6.626 8.703-13.157 8.703-13.157h-212.25s8.703 6.53 8.703 13.157v157.99c-0.075989 3.4713 1.106 6.8529 3.328 9.521 2.041 2.853 6.39 6.795 10.903 9.727 13.94 9.053 37.246 18.599 54.88 26.621 14.694 6.684 20.671 9.381 28.309 18.839 7.639-9.458 13.667-12.154 28.361-18.839 17.631-8.021 40.938-17.568 54.879-26.621 4.515-2.932 8.864-6.873 10.904-9.727 2.2055-2.6742 3.3691-6.0559 3.276-9.521l-1.22e-4 -157.99z" style="fill:#F5D402"/>
  <path d="m807.6 422.98v-89.385c0.04779-2.9183-0.85046-5.7737-2.5605-8.139h189.93c-1.7095 2.3655-2.6076 5.2208-2.56 8.139l0.054016 89.385-92.43 28-92.431-28z" style="fill:#D10429"/>
  <path d="m992.46 422.98-57.234-1.075h-70.393l-57.234 1.075v68.601c0 3.448 3.578 11.525 24.215 21.807 34.111 16.998 60.33 24.934 68.189 34.607 7.858-9.673 34.077-17.61 68.189-34.607 20.636-10.282 24.214-18.359 24.214-21.807l0.053955-68.601z" style="fill:#0B45BB"/>
  <path d="m933.84 419.4s33.019-8.326 33.019-43.617c0-27.563-33.103-41.237-34.044-47.814-3.235 11.381 11.058 27.1 11.058 45.715 0 24.086-17.764 25.239-17.764 25.239-4.157 0-5.841 2.968-7.475 2.968-3.497-0.36499-5.143-4.813-8.601-4.813-3.247 0-5.74 5.017-10.033 5.017-4.292 0-6.735-5.017-9.983-5.017-3.456 0-5.103 4.448-8.6 4.813-1.634 0-3.319-2.968-7.476-2.968 0 0-17.763-1.153-17.763-25.239 0-18.615 14.295-34.336 11.058-45.715-0.93799 6.577-34.041 20.25-34.041 47.814 0 35.291 33.019 43.617 33.019 43.617l-9.42 17.149s13.645 0.68301 20.887 6.861c8.733 7.448 7.883 23.229 7.883 34.709 0 9.045-1.143 18.59-5.784 22.524-6.232 5.284-10.445 5.675-10.445 11.878 0 5.174 3.977 6.211 10.445 9.625 8.287 4.373 7.901 10.238 20.22 10.238 12.321 0 11.985-5.864 20.273-10.238 6.468-3.414 10.444-4.451 10.444-9.625 0-6.203-4.214-6.594-10.444-11.878-4.641-3.936-5.784-13.48-5.784-22.524 0-11.48-0.849-27.261 7.883-34.709 7.243-6.177 20.886-6.861 20.887-6.861l-9.4191-17.149z"/>
  <path d="m900 330.42-5.735 16.281-15.614-7.424 7.423 15.615-16.279 5.784 16.279 5.785-7.423 15.563 15.614-7.423 5.735 16.279 5.785-16.279 15.614 7.423-7.422-15.563 16.279-5.785-16.279-5.784 7.422-15.615-15.614 7.424-5.785-16.281z"/>
  <path d="m864.83 421.91s-20.387-4.984-28.002-15.051c-8.4764 7.4072-18.445 12.907-29.232 16.126 0 0 16.607 7.498 29.232 17.048 5.817-8.336 28.002-18.123 28.002-18.123v-3.06e-5z"/>
  <path d="m935.22 421.91s22.186 9.786 28.004 18.123c12.623-9.55 29.229-17.048 29.229-17.048-10.785-3.22-20.753-8.7194-29.229-16.126-7.615 10.066-28.004 15.051-28.004 15.051v3.06e-5z"/>
  <path d="m873.18 443.61-7.935 7.934 7.935 7.935 7.935-7.935-7.935-7.934z"/>
  <path d="m926.88 443.61-7.934 7.934 7.934 7.935 7.935-7.935-7.935-7.934z"/>
  <path d="m871.18 489.94c0.09314 5.1203-0.23193 10.24-0.97198 15.307 0 0 11.186-3.293 13.414-14.641 1.044-5.32 2.207-24.918-3.175-28.259l-14.589-2.867c3.5289 9.7674 5.33 20.075 5.3225 30.46h-6.11e-5z"/>
  <path d="m919.61 462.35c-5.381 3.34-4.218 22.938-3.174 28.259 2.227 11.348 13.413 14.641 13.413 14.641-0.74005-5.0674-1.0651-10.187-0.97198-15.307-0.0082397-10.386 1.7935-20.693 5.3245-30.461l-14.592 2.8675z"/>
  <path d="m836.78 462.92c-4.989 1.1996-8.0609 6.2163-6.8613 11.205 0.19843 0.82541 0.50909 1.6197 0.92328 2.3607-0.7453-0.25095-1.5195-0.40585-2.304-0.461-0.32379-0.01651-0.64819-0.01651-0.97198 0-5.1793 0.21713-9.202 4.5918-8.9848 9.7711 0.21716 5.1793 4.5919 9.2019 9.7711 8.9848 0.38837-0.016296 0.77533-0.056671 1.1587-0.12094-0.45654 0.61597-0.83447 1.2865-1.125 1.996-1.9616 4.8105 0.34796 10.3 5.1584 12.262s10.3-0.34793 12.262-5.1584l0.035584-0.088501c0.27966-0.70743 0.46912-1.4472 0.56403-2.202 0.45599 0.62708 0.98883 1.1945 1.586 1.689 3.9301 3.3863 9.8613 2.9454 13.248-0.98477s2.9454-9.8613-0.98474-13.248c-0.64331-0.55426-1.3588-1.0187-2.1268-1.3807 0.737-0.23563 1.4418-0.56213 2.098-0.97198 4.3975-2.7805 5.7241-8.5905 2.969-13.004-1.8279-2.9174-5.1146-4.5902-8.549-4.351-1.5638 0.10605-3.0767 0.59882-4.403 1.434-0.65369 0.40216-1.2552 0.88348-1.791 1.433-0.023743-5.229-4.282-9.4488-9.511-9.425-0.72791 0.0032959-1.453 0.090546-2.1609 0.25998h-6.11e-5z"/>
  <path d="m936.6 490.25c1.017 9.587 8.808 17.619 18.429 19.914-1.6695-2.687-2.719-5.7123-3.072-8.856-1.205-11.37 7.588-20.581 19.607-20.581 1.8626 0.0025024 3.7183 0.22641 5.528 0.66699-4.4796-7.25-12.365-11.695-20.887-11.775-12.018 4.882e-4 -20.813 9.2625-19.605 20.63z"/>
  <path d="m851.37 373.68c0 18.128 9.667 28.821 22.576 28.821 2.462 0 5.155 3.328 7.475 3.328 3.782 0 6.298-4.198 8.601-4.198 2.927 0 4.9 4.607 9.982 4.607 5.083 0 7.107-4.607 10.034-4.607 2.302 0 4.818 4.198 8.6 4.198 2.321 0 5.012-3.328 7.475-3.328 12.909 0 22.577-10.693 22.577-28.821 0-14.784-12.416-32.81-11.058-35.734 0 0 24.214 17.369 24.214 37.832 0 32.963-33.429 41.109-33.429 41.109l7.525 16.944s-10.362 1.554-16.689 6.656c-8.439 6.805-8.55 25.191-8.55 37.626 0 14.648 0.54498 20.855 5.837 24.829 5.58 4.193 9.777 5.096 9.777 9.369 0 3.723-4.345 5.246-9.983 7.73-6.413 2.827-7.052 7.731-16.33 7.731-9.279 0-9.867-4.904-16.28-7.731-5.637-2.484-9.983-4.006-9.983-7.73 0-4.273 4.197-5.176 9.777-9.369 5.292-3.974 5.836-10.181 5.836-24.829 0-12.435-0.10999-30.821-8.549-37.626-6.328-5.104-16.689-6.656-16.689-6.656l7.524-16.944s-33.428-8.145-33.428-41.109c0-20.463 24.215-37.832 24.215-37.832 1.358 2.924-11.057 20.95-11.057 35.734l1.22e-4 -6.11e-5zm35.988 136.13c-6.567 0-10.75 1.386-10.75 3.379 0 1.994 4.184 3.328 10.75 3.328 1.75 0 3.737-1.019 3.737-3.328-0.044678-1.916-1.6342-3.4331-3.5502-3.3884-0.062317 0.0014648-0.12457 0.0045776-0.18683 0.0093994v-3.05e-5zm25.34 0c-1.9109-0.1478-3.5798 1.2815-3.7276 3.1924v6.1e-5c-0.0048218 0.062073-0.0079346 0.12427-0.0093994 0.18658-9.766e-4 2.309 1.987 3.328 3.737 3.328 6.568 0 10.75-1.333 10.75-3.328 0-1.994-4.183-3.379-10.75-3.379v-3.05e-5z" style="fill:#FFD200"/>
  <path d="m900.06 341.38 3.686 10.394 9.931-4.761-4.71 9.982 10.342 3.687-10.342 3.686 4.71 9.931-9.931-4.71-3.737 10.341-3.686-10.341-9.931 4.71 4.71-9.931-10.341-3.686 10.341-3.687-4.71-9.982 9.931 4.761 3.737-10.394h6.11e-5z" style="fill:#FFD200"/>
  <path d="m817.31 423.28s12.609 6.28 18.943 11.877l0.35699 0.30701 0.20398-0.255c5.986-6.871 17.098-12.696 17.098-12.696s-10.676-2.945-17.404-10.648c-7.1115 7.248-19.198 11.415-19.198 11.415z" style="fill:#FFD200"/>
  <path d="m982.72 423.3s-12.609 6.28-18.943 11.877l-0.35699 0.30701-0.20398-0.255c-5.986-6.871-17.098-12.696-17.098-12.696s10.676-2.945 17.404-10.648c7.1115 7.248 19.198 11.415 19.198 11.415z" style="fill:#FFD200"/>
  <path d="m873.18 447.4 4.147 4.145-4.147 4.199-4.198-4.199 4.198-4.145z" style="fill:#FFD200"/>
  <path d="m926.88 447.4 4.199 4.145-4.199 4.199-4.146-4.199 4.146-4.145z" style="fill:#FFD200"/>
  <path d="m878.81 465.52c2.897 3.998 2.405 10.462 2.405 19.455 0.17596 5.1064-2.43 9.9068-6.808 12.541 0-21.794-2.247-27.034-3.43-33.634l7.8329 1.6385z" style="fill:#FFD200"/>
  <path d="m929.08 463.88c-1.185 6.602-3.429 11.841-3.429 33.634-4.3784-2.6339-6.9848-7.4344-6.809-12.541 0-8.993-0.492-15.455 2.406-19.454l7.832-1.639h6.1e-5z" style="fill:#FFD200"/>
  <path id="leaf" d="m846.61 472.13c0.18774 0.78775 0.2395 1.6018 0.15302 2.407-0.067383 0.63232-0.22223 1.2522-0.46002 1.842-4.1018-1.4541-8.6757-0.27997-11.57 2.97-0.5127-0.44757-0.96039-0.96457-1.33-1.536-0.44092-0.65796-0.76971-1.3845-0.97302-2.15-0.97223-3.9165 1.4146-7.8797 5.3312-8.8519 3.9117-0.97101 7.871 1.4088 8.8488 5.3189l6.11e-5 -3.05e-5z" style="fill:#FFD200"/>
  <path id="leaf-2" d="m857.52 485.79c-0.69122 0.422-1.4494 0.72278-2.2419 0.88934-0.62219 0.13129-1.2596 0.17563-1.894 0.13171 0.11536-4.3504-2.4147-8.3376-6.4-10.086 0.26727-0.62592 0.62061-1.2114 1.0499-1.7396 0.4895-0.62268 1.0789-1.1599 1.7441-1.5898 3.4225-2.1379 7.9302-1.0964 10.068 2.3261 2.1379 3.4226 1.0964 7.9302-2.3262 10.068l6.11e-5 3.04e-5z" style="fill:#FFD200"/>
  <path id="leaf-3" d="m847.91 500.39c-0.61493-0.52695-1.1353-1.1551-1.5386-1.8574-0.31714-0.55118-0.55621-1.1437-0.71051-1.7606 4.1732-1.2346 7.1833-4.873 7.6146-9.2035 0.67786 0.06073 1.3439 0.21585 1.9788 0.46088 0.74347 0.27313 1.4365 0.66763 2.0509 1.1674 3.0841 2.6024 3.4746 7.2123 0.87219 10.296-2.5929 3.0728-7.1812 3.4735-10.267 0.89658l-6.1e-5 1.22e-4z" style="fill:#FFD200"/>
  <path id="leaf-4" d="m831.05 495.75c0.31116-0.74765 0.7478-1.4367 1.291-2.0373 0.42621-0.47192 0.91583-0.88245 1.4549-1.2198 2.4638 3.5874 6.8542 5.3259 11.106 4.3979 0.15167 0.66345 0.20996 1.3448 0.17316 2.0244-0.030029 0.79147-0.1911 1.5725-0.47656 2.3113-1.5146 3.7404-5.7747 5.5446-9.5151 4.03-3.737-1.5133-5.5421-5.7676-4.0334-9.5065h-6.09e-5z" style="fill:#FFD200"/>
  <path id="leaf-5" d="m830.25 478.29c0.80719 0.06488 1.5974 0.26721 2.3365 0.59827 0.58051 0.25952 1.1223 0.59833 1.6097 1.0067-2.6505 3.4517-2.9472 8.1646-0.75067 11.922-0.58411 0.3493-1.2141 0.61533-1.8718 0.79028-0.76202 0.216-1.5546 0.3042-2.3455 0.26099-4.0253-0.28555-7.0569-3.7802-6.7714-7.8055 0.28522-4.0205 3.7722-7.0507 7.7932-6.7722v-3.05e-5z" style="fill:#FFD200"/>
  <circle cx="842.67" cy="486.47" r="7.065" style="fill:#FFD200"/>
  <path d="m966.7 476.94c-11.729 2.268-20.17 12.628-18.942 24.727-3.738-3.096-6.473-7.266-6.962-11.877-0.95099-8.979 5.571-15.922 15.409-15.922 3.715 0.033417 7.3479 1.0969 10.495 3.072v3.06e-5z" style="fill:#FFD200"/>
  <path id="_136445216" d="m1002 322.02h-203.95c2.7046 2.7235 6.1381 7.067 6.1381 11.569v137.2h-0.0062866v20.786h0.0062866c-0.03064 1.6277 0.23126 3.2476 0.77313 4.7827 0.52496 1.3611 1.2563 2.6333 2.1682 3.772l0.036926 0.0495c1.9884 2.5338 4.2981 4.798 6.8708 6.7358 0.58142 0.45551 1.1763 0.90277 1.7758 1.333 0.58228 0.41766 1.1916 0.83432 1.8181 1.2411l0.014404 0.0098877c10.853 7.0463 27.574 14.455 42.766 21.184 4.2355 1.8765 8.3666 3.7062 11.896 5.3119l0.0062866 0.0063477v-8.545e-4l0.33752 0.15302h0.0053711c13.905 6.3254 20.106 9.1478 27.367 17.651 7.2811-8.5349 13.462-11.347 27.495-17.73l-8.545e-4 -0.0018311 0.16022-0.072876c3.5371-1.6092 7.6601-3.4354 11.896-5.311 15.192-6.7295 31.915-14.138 42.771-21.186l0.0089722-0.0063171c3.0452-1.9811 5.8647-4.2893 8.408-6.8834 0.41412-0.43112 0.80292-0.85953 1.1557-1.2753 0.33124-0.38971 0.63721-0.77939 0.90814-1.1583l0.024292-0.024292 0.0053711-0.0072021 0.012634-0.01889c0.9184-1.1444 1.6599-2.4202 2.1996-3.7846 0.55426-1.528 0.823-3.1449 0.79291-4.7701h0.0062866v-20.786h-0.0062866v-137.2c0-4.5019 3.4335-8.8454 6.1381-11.569l1.219e-4 -9.15e-5zm-2.9631 11.569v137.2h-0.0062866v20.786h0.0062866c0.02948 2.007-0.31067 4.0023-1.0035 5.8861-0.64416 1.6444-1.5309 3.1831-2.6307 4.5649l0.0036011 0.0026855c-0.29974 0.41855-0.65979 0.87488-1.0684 1.3564-0.38708 0.45538-0.82184 0.93423-1.2925 1.4247-2.712 2.7671-5.7186 5.2292-8.9661 7.3424l-0.0089722 0.0063477c-11.093 7.201-27.925 14.659-43.217 21.432-4.0024 1.7722-7.8986 3.4984-11.86 5.3002l-0.16022 0.072876h-0.0053711c-14.335 6.5206-20.198 9.1874-27.568 18.314l-1.2339 1.5273-1.2339-1.5273c-7.3379-9.0848-13.235-11.768-27.448-18.234l8.545e-4 -0.0018311-0.33301-0.15125-0.011658-0.0062866-0.0045166-0.0018311-8.545e-4 0.0026855c-3.97-1.8064-7.8581-3.5281-11.86-5.3011-15.292-6.7736-32.125-14.231-43.215-21.432l-0.036926-0.025208-0.011658-0.0080566 8.545e-4 -8.545e-4c-0.62469-0.40588-1.2646-0.84241-1.9063-1.3032-0.63812-0.4581-1.2663-0.92975-1.8748-1.4067-2.8127-2.1264-5.335-4.6118-7.5026-7.3928h8.545e-4c-1.0966-1.3799-1.9747-2.9201-2.6037-4.5667-0.6734-1.8837-1.0024-3.8733-0.97113-5.8735h0.0062866v-20.786h-0.0062866v-137.2c0-5.8412-8.0416-11.874-8.0641-11.891v-2.8531h214.15v2.8531c-0.0224 0.01712-8.0641 6.05-8.0641 11.891l-6.13e-5 -9.15e-5zm-4.8032-9.7211 0.0053711-0.0062866h0.75421l3.2867-0.0014648-2.0536 2.5756c-1.4916 2.0822-2.2658 4.5928-2.206 7.1534v137.2h-0.0062256v20.786h0.0062866c0 2.8108-1.9675 8.2388-11.232 15.004l0.00177 0.0026855c-1.7316 1.2654-3.7324 2.5894-6.0338 3.9628-2.3167 1.3824-4.9087 2.8017-7.7987 4.2427l-0.0027466-0.0053711-0.029663 0.01532v0.0063477c-12.378 6.1678-23.809 11.182-33.679 15.51-16.95 7.4333-29.228 12.818-33.987 18.669l-0.024292 0.031494-0.0053711 0.0063477-1.2358 1.44-1.1953-1.4716c-4.7565-5.8546-17.038-11.242-33.997-18.678-9.8625-4.3246-21.284-9.335-33.651-15.496v-0.0063477l-0.02063-0.010803-0.0027466 0.0053711c-8.7753-4.3714-14.547-8.381-18.297-11.825-0.74017-0.68341-1.4058-1.3428-1.9971-1.9782-3.809-4.0933-4.7936-7.4-4.7953-9.4205h-0.0062866v-0.005371h0.0062866v-20.786h-0.0062866v-137.2c0.059753-2.5606-0.71448-5.0712-2.206-7.1534l-2.0538-2.5678h6.8204v-0.0062256h182.87v0.0062866h2.773l1.832e-4 -1.222e-4zm-2.7735 3.1627v0.0062866h-182.87v-0.0062866h-0.79028c0.92877 2.0616 1.4078 4.2973 1.405 6.5585v137.2h-0.0062866v20.786h0.0062866v0.0054016h-0.0062866c8.545e-4 1.4274 0.81268 3.888 3.9529 7.2622 0.53998 0.57959 1.1467 1.1835 1.8226 1.8054 3.5479 3.2599 9.075 7.0859 17.566 11.315v0.0063171l0.02063 0.010834 0.0027466-0.0053711c12.44 6.1975 23.742 11.155 33.502 15.434 16.135 7.0751 28.134 12.338 33.958 18.221 5.825-5.8826 17.825-11.144 33.955-18.218 9.7671-4.2831 21.079-9.245 33.529-15.449l0.0027466 0.0053711 0.029663-0.01532v-0.0063171c2.8801-1.4355 5.3965-2.8108 7.5881-4.1185 2.2068-1.3167 4.1266-2.5876 5.7872-3.8008h0.0053711c8.1839-5.9743 9.9219-10.302 9.9219-12.453h0.0062866v-20.786h-0.0062866v-137.2c-0.0027466-2.2611 0.47626-4.4969 1.405-6.5585h-0.78931l-3.055e-4 -3.05e-5z"/>
</svg>
