<?xml version="1.0" encoding="UTF-8"?>
<svg width="2400" height="1200" xmlns="http://www.w3.org/2000/svg">
  <rect width="2400" height="1200" fill="#c4272f"/>
  <rect x="800" width="800" height="1200" fill="#015197"/>
  <g fill="#f9cf02">
    <circle cx="400" cy="410" r="110"/>
    <circle cx="400" cy="360" r="120" fill="#c4272f"/>
    <circle cx="400" cy="380" r="80"/>
    <path d="m350 230c0 27.608 22.391 50 50 50s50-22.39 50-50c0-20-12.5-22.5-12.5-30s7.5-17.5-7.5-30c7.5 12.5-5 15-5 27.5s5 12.5 5 22.5c0 5.5222-4.4776 10-10 10-5.5228 0-10-4.48-10-10 0-10 10-20 10-35s-2.5-20-10-32.5-20-22.5-10-32.5c-15 5-7.5 25-7.5 37.5s-10 20-10 35 7.5 17.5 7.5 27.5c0 5.5222-4.4776 10-10 10-5.5228 0-10-4.48-10-10 0-10 5-10 5-22.5s-12.5-15-5-27.5c-15 12.5-7.5 22.5-7.5 30s-12.5 10-12.5 30z"/>
    <rect x="180" y="540" width="100" height="480"/>
    <rect x="520" y="540" width="100" height="480"/>
    <rect x="300" y="620" width="200" height="40"/>
    <rect x="300" y="900" width="200" height="40"/>
    <polygon points="300 540 400 600 500 540"/>
    <polygon points="300 960 400 1020 500 960"/>
    <g stroke="#c4272f" stroke-width="12">
      <circle cx="400" cy="780" r="106"/>
      <path d="m400 674a53 53 0 0 1 0 106 53 53 0 0 0 0 106" fill="none"/>
    </g>
    <circle cx="400" cy="727" r="20" fill="#c4272f"/>
    <circle cx="400" cy="833" r="20" fill="#c4272f"/>
  </g>
</svg>
