<?xml version="1.0" encoding="UTF-8"?>
<svg width="660" height="440" viewBox="0 0 2880 1920" xmlns="http://www.w3.org/2000/svg">
  <title>Flag of Macau</title>
  <rect width="2880" height="1920" fill="#00785e"/>
  <path d="m1440 362-23.656 72.906h-76.688l62.031 45.062-23.688 72.875 62-45 62 45-23.688-72.875 62.031-45.062h-76.688l-23.656-72.906zm-302.56 127.91 15.531 50.719-43.469 30.406 53.031 0.9375 15.5 50.719 17.281-50.156 53.031 0.90625-42.344-31.906 17.25-50.156-43.469 30.438-42.344-31.906zm605.12 0-42.344 31.906-43.469-30.438 17.25 50.156-42.344 31.906 53.031-0.90625 17.281 50.156 15.5-50.719 53.031-0.9375-43.469-30.406 15.531-50.719zm-705.59 167.56-22.406 48.062-52.625-6.4688 38.781 36.156-22.406 48.094 46.375-25.719 38.781 36.156-10.094-52.062 46.344-25.719-52.625-6.4375-10.125-52.062zm806.06 0-10.125 52.062-52.625 6.4375 46.344 25.719-10.094 52.062 38.781-36.156 46.375 25.719-22.406-48.094 38.781-36.156-52.625 6.4688-22.406-48.062z" fill="#fbd116" fill-rule="evenodd"/>
  <path d="m1440 614.41c-68.874 59.519-112.5 147.49-112.5 245.59 0 66.726 20.174 128.75 54.75 180.34-42.462-54.852-67.75-123.66-67.75-198.34 0-49.609 11.163-96.627 31.094-138.69-13.765-14.547-24.221-32.258-30.125-51.938-26.712 47.145-41.969 101.6-41.969 159.62 0 72.17 23.602 138.85 63.5 192.75-69.483-72.84-167.46-118.25-276-118.25-5.8322 0-11.638 0.14686-17.406 0.40625 10.921 10.179 20.088 22.208 27 35.594 107.96 0.16462 205.43 45.281 274.75 117.59-66.203-55.295-151.41-88.594-244.34-88.594-51.936 0-101.45 10.396-146.59 29.219 46.38 122.55 164.86 209.78 303.59 209.78 8.9834 0 17.889-0.4043 26.688-1.125-18.721 3.364-38.003 5.125-57.688 5.125-87.532 0-166.99-34.72-225.38-91.125-12.154 4.6765-25.189 7.5966-38.781 8.4062 59.47 67.266 146.38 109.72 243.16 109.72 91.924 0 174.94-38.292 234-99.781 59.056 61.489 142.08 99.781 234 99.781 96.777 0 183.69-42.452 243.16-109.72-13.592-0.8096-26.627-3.7297-38.781-8.4062-58.388 56.405-137.84 91.125-225.38 91.125-19.684 0-38.966-1.761-57.688-5.125 8.7985 0.7207 17.704 1.125 26.688 1.125 138.74 0 257.21-87.227 303.59-209.78-45.142-18.823-94.657-29.219-146.59-29.219-92.934-1e-5 -178.14 33.299-244.34 88.594 69.32-72.312 166.79-117.43 274.75-117.59 6.9117-13.386 16.079-25.415 27-35.594-5.7681-0.25939-11.574-0.40625-17.406-0.40625-108.54-1e-5 -206.52 45.41-276 118.25 39.898-53.904 63.5-120.58 63.5-192.75 0-58.02-15.257-112.48-41.969-159.62-5.9036 19.679-16.36 37.391-30.125 51.938 19.931 42.061 31.094 89.078 31.094 138.69 0 74.686-25.288 143.49-67.75 198.34 34.576-51.59 54.75-113.62 54.75-180.34 0-98.102-43.626-186.07-112.5-245.59zm0 541.31c-58.257 55.62-137.16 89.781-224 89.781h-252.53c7.4446 10.94 15.246 21.616 23.406 32h244.12c79.603 0 152.52-28.72 209-76.344 56.476 47.624 129.4 76.344 209 76.344h244.12c8.1606-10.384 15.962-21.06 23.406-32h-252.53c-86.842 0-165.74-34.161-224-89.781zm-425.12 154.78c4.9651 5.4271 10.051 10.764 15.219 16h819.81c5.1679-5.2363 10.254-10.573 15.219-16h-850.25zm50.594 49c10.132 8.6837 20.558 17.026 31.281 25h686.5c10.724-7.9741 21.149-16.316 31.281-25h-749.06zm67.75 50c18.576 11.72 37.855 22.425 57.781 32h498c19.926-9.5748 39.205-20.28 57.781-32h-613.56zm94.344 48c65.747 26.129 137.42 40.5 212.44 40.5s146.69-14.371 212.44-40.5h-424.88z" fill="#fff" fill-rule="evenodd"/>
</svg>
