<?xml version="1.0" encoding="UTF-8"?>
<!-- Created with Sodipodi ("http://www.sodipodi.com/") -->
<svg width="1e3" height="500" sodipodi:docbase="C:\Documents and Settings\David Nelson\Archives\Svg" sodipodi:docname="montserrat.svg" sodipodi:version="0.32" version="1.0" xmlns="http://www.w3.org/2000/svg" xmlns:cc="http://web.resource.org/cc/" xmlns:dc="http://purl.org/dc/elements/1.1/" xmlns:rdf="http://www.w3.org/1999/02/22-rdf-syntax-ns#" xmlns:sodipodi="http://inkscape.sourceforge.net/DTD/sodipodi-0.dtd">
  <sodipodi:namedview id="base"/>
  <metadata>
    <rdf:RDF>
      <cc:Work rdf:about="">
        <dc:title>United Kingdom - Montserrat</dc:title>
        <dc:description/>
        <dc:subject>
          <rdf:Bag>
            <rdf:li>united_kingdom</rdf:li>
            <rdf:li>flags</rdf:li>
            <rdf:li>caribbean</rdf:li>
            <rdf:li>sign</rdf:li>
            <rdf:li>signs_and_symbols</rdf:li>
            <rdf:li/>
            <rdf:li>america</rdf:li>
          </rdf:Bag>
        </dc:subject>
        <dc:publisher>
          <cc:Agent rdf:about="http://www.openclipart.org">
            <dc:title>Tobias Jakobs</dc:title>
          </cc:Agent>
        </dc:publisher>
        <dc:creator>
          <cc:Agent rdf:about="">
            <dc:title>Tobias Jakobs</dc:title>
          </cc:Agent>
        </dc:creator>
        <dc:rights>
          <cc:Agent rdf:about="">
            <dc:title>Tobias Jakobs</dc:title>
          </cc:Agent>
        </dc:rights>
        <dc:date/>
        <dc:format>image/svg+xml</dc:format>
        <dc:type rdf:resource="http://purl.org/dc/dcmitype/StillImage"/>
        <cc:license rdf:resource="http://web.resource.org/cc/PublicDomain">
          <dc:date/>
        </cc:license>
        <dc:language>en</dc:language>
      </cc:Work>
      <cc:License rdf:about="http://web.resource.org/cc/PublicDomain">
        <cc:permits rdf:resource="http://web.resource.org/cc/Reproduction"/>
        <cc:permits rdf:resource="http://web.resource.org/cc/Distribution"/>
        <cc:permits rdf:resource="http://web.resource.org/cc/DerivativeWorks"/>
      </cc:License>
    </rdf:RDF>
  </metadata>
  <g transform="matrix(1.0079 0 0 1.0079 0 -8.7861e-6)">
    <rect y="3.9e-5" width="992.13" height="496.06" fill="#006" stroke-width="1pt"/>
    <g transform="matrix(1.1988 0 0 1.1988 588.04 99.297)" fill-rule="evenodd">
      <path d="m40.148 18.913h177.16l-0.211 126.06c1.474 50.675-30.111 82.12-88.227 96.298-41.27-10.248-88.858-31.445-88.928-94.86l0.2106-127.5z" fill="#fff" sodipodi:nodetypes="cccccc"/>
      <path d="m44.069 22.713h169.3l-0.201 120.79c1.408 48.558-28.777 78.69-84.317 92.276-39.441-9.819-84.92-30.132-84.986-90.899l0.2013-122.17z" fill="#00a2bd" stroke="#000" stroke-width="1pt" sodipodi:nodetypes="cccccc"/>
      <path d="m212.06 157.82c-6.159 46.351-41.856 66.603-83.209 77.352-36.604-9.819-75.984-25.495-83.617-77.119l166.83-0.233z" fill="#a53d08" sodipodi:nodetypes="cccc"/>
    </g>
    <path d="m694.86 153.36 39.614 0.14146-0.28292-18.251 14.432 0.14146 0.14147 18.11h39.473l0.14146 14.148-39.614 0.14147-0.3165 166.85-14.077 0.08871-0.17982-167.08-39.34 0.14159 0.0084-14.431z" fill-rule="evenodd" sodipodi:nodetypes="ccccccccccccc"/>
    <path d="m702.52 295.38 36.132 37.484c12.494-13.733 3.8279-65.063-12.606-74.517-1.9697 6.0781-5.3192 13.366-8.8798 15.716-7.8332 5.3384-27.029 11.58-20.613 15.576 1.4633-2.026 5.2905-3.9394 7.0915 0.56345 2.1387 7.0911-7.992 7.5419-7.992 7.5419s-6.416-0.78883-7.5418-7.3177c-1.1256-6.5277 9.5568-12.488 10.468-12.944 0.90045-0.33807 14.858-4.0521 17.222-16.435 2.9264-12.157 5.9654-10.356 6.5289-10.581 18.234 1.8007 30.166 34.445 30.842 57.407 0.67494 22.963-9.3425 38.159-11.144 39.172-1.8006 1.013-43.449-49.415-43.449-49.415l3.9397-2.2514z" fill="#ff9a08" fill-rule="evenodd" stroke="#000" stroke-width=".8" sodipodi:nodetypes="cccsccccscccccc"/>
    <path d="m728.86 260.48 0.22419 67.65" fill="none" stroke="#000" stroke-width=".8"/>
    <path d="m724.81 261.72c0 0.11269 0.22418 61.461 0.22418 61.461" fill="none" stroke="#000" stroke-width=".8" sodipodi:nodetypes="cc"/>
    <path d="m720.42 270.61 0.22418 48.853" fill="none" stroke="#000" stroke-width=".8" sodipodi:nodetypes="cc"/>
    <path d="m716.82 274.1 0.22538 40.412" fill="none" stroke="#000" stroke-width=".8" sodipodi:nodetypes="cc"/>
    <path d="m712.99 275.9v34.107" fill="none" stroke="#000" stroke-width=".8"/>
    <path d="m708.82 278.61v27.015" fill="none" stroke="#000" stroke-width=".8"/>
    <path d="m705.22 280.75v20.711" fill="none" stroke="#000" stroke-width=".8"/>
    <path d="m701.96 299.66 37.259 42.662" fill="none" stroke="#ffdf00" stroke-linecap="round" stroke-width=".8"/>
    <path d="m741.02 272.75s16.886 36.922 1.2384 67.313" fill="none" stroke="#ffdf00" stroke-linecap="round" stroke-width="1.4985" sodipodi:nodetypes="cc"/>
    <path d="m697.57 291.89s1.2383-3.2644 2.8142-1.9133" fill="none" stroke="#ffdf00" stroke-linecap="round" stroke-width="1.4985"/>
    <path d="m694.64 282.43s-6.7539 5.9654-3.0392 9.7933" fill="none" stroke="#ffdf00" stroke-linecap="round" stroke-width="1.4985" sodipodi:nodetypes="cc"/>
    <g transform="matrix(8.2677 0 0 8.2677 0 2.2888e-5)" stroke-width="1pt">
      <path d="m0 0v3.3541l53.292 26.646h6.7082v-3.3541l-53.292-26.646h-6.7082zm60 0v3.354l-53.292 26.646h-6.7082v-3.3542l53.292-26.646h6.7082z" fill="#fff"/>
      <path d="m25 0v30h10v-30h-10zm-25 10v10h60v-10h-60z" fill="#fff"/>
      <path d="m0 12v6h60v-6h-60zm27-12v30h6v-30h-6z" fill="#c00"/>
      <path d="m0 30 20-10h4.4721l-20 10h-4.4721zm0-30 20 10h-4.4721l-15.528-7.7639v-2.2361zm35.528 10 20-10h4.4721l-20 10h-4.4721zm24.472 20-20-10h4.4721l15.528 7.7639v2.2361z" fill="#c00"/>
    </g>
    <g transform="matrix(5.2328 0 0 5.2328 -396.01 -149.73)">
      <path d="m218.79 64.643c0.478-0.41 0.726-0.6606 1.022-0.615 0.296 0.0455 0.699 0.0227 0.995-0.0684 0.297-0.0912 1.766-0.2734 2.37-0.0684 0.205 0.0228 0.478 0.1368 0.899 0.4899 0.422 0.353 1.037 0.9682 0.832 2.6767s-0.138 2.4393-0.228 3.3943c-0.159 1.6858-0.533 3.0739-1.207 2.9615 0.911 1.5947 1.002 2.9615 1.594 4.055 0.593 1.0935 0.957 3.326 0.729 5.7408-0.227 2.4148-0.865 7.8365 1.048 11.482-0.319 0.2278-1.093 0-1.777-0.729-0.683-0.729-0.983-0.7051-1.549-0.2734-1.731 1.3213-3.352 2.9138-5.74 1.3213-0.547-0.3645-0.72-0.8017-0.319-1.9136 1.002-2.7792 1.489-6.5924 1.331-8.3833v-20.07z" fill="#008021" stroke="#000" stroke-width=".063"/>
      <path d="m220.43 62.935c0.125 0.3873 0.193 0.8884-0.012 1.344s-0.25 1.0024 0.091 1.663c0.547-0.7745 1.322-0.615 1.777-1.0706 0.456-0.4557 0.547-0.8885 0.889-0.9797-0.342-0.2961-0.866-0.615-0.752-1.4807s1.321-1.5718 0.228-2.8932c-0.706-0.8529-1.732-0.615-2.176-0.2847-0.209 0.1552-0.387 0.3758-0.455 0.5239-0.069 0.1481 0.017 0.4851-0.149 0.6835-0.113 0.1366-0.251 0.2725-0.41 0.3872-0.102 0.0741-0.166 0.182-0.057 0.3076 0.044 0.0502 0.124 0.0609 0.212 0.0914-0.051 0.1025-0.109 0.2047-0.166 0.2788-0.054 0.0695-0.031 0.1358 0.034 0.1924-0.086 0.2733 0.08 0.303-0.034 0.5081-0.099 0.1773-0.233 0.3871 0.137 0.5923 0.102 0.0569 0.587 0.1694 0.843 0.1367z" fill="#ffe1cf" stroke="#000" stroke-width=".063"/>
      <path d="m216 67.468c-0.638 0.1595-1.663-0.1138-2.438-0.0228-0.342 0.0404-0.615-0.1366-0.569-0.4783 0.045-0.3418 0.091-0.8657 0.022-1.3441-0.106-0.7455 0.251-1.7769 0.752-2.916 0.501-1.139 0.752-1.7768 0.752-2.3122 0-0.3531 0.034-0.7518 0.353-0.9568 0.236-0.1515 0.281-0.2986 0.365-0.4214 0.193-0.2848 0.375-0.3531 0.398-0.1822 0.014 0.1016-0.023 0.1936-0.114 0.3303 0.205-0.1709 0.553-0.3703 0.632-0.4272 0.08-0.0569 0.485-0.3417 0.507-0.074 0.16-0.0797 0.268-0.0741 0.308 0.0113 0.043 0.0924 0.017 0.1311-0.063 0.1994 0.114-0.0228 0.245 0.1766 0.017 0.3531 0.12-0.0399 0.239 0.1595 0.029 0.3417-0.218 0.1881-0.467 0.319-0.547 0.467-0.08 0.1481-0.621 0.5639-0.837 0.655-0.217 0.0911-0.228 0.2161-0.228 0.5353 0 3.5082-0.421 3.2232-0.421 4.0664 0 0.2278-0.046 0.4328 0.182 0.3644 0.228-0.0683 0.558-0.1708 0.9-0.1708v1.9819z" fill="#ffe1cf" stroke="#000" stroke-width=".063"/>
      <path d="m216.14 75.031c1.03-0.5148 2.21-0.7062 2.825-0.8656 0.615-0.1595 1.595-0.6378 2.073-0.8884 0.479-0.2507 0.866-0.5924 1.139-0.6835 0.274-0.0911 0.58-0.2796 0.752-0.615 0.888-1.7314 1.367-3.1208 1.367-4.3284 0-0.7973-0.205-1.6858-0.98-1.0479-0.728 0.5996-1.521 1.7554-1.731 2.597-0.319 1.2757-0.592 1.5491-0.661 1.7996-0.068 0.2507-0.326 0.2504-0.638 0.319-1.344 0.2962-1.663 0.5011-2.665 1.2529s-2.096 1.4125-2.825 1.8225c-0.729 0.4101-0.865 0.4556-1.025 0.7859-0.159 0.3303-0.307 0.5809-0.444 0.7291-0.137 0.148-0.176 0.3211-0.148 0.5011 0.023 0.1481-0.046 0.8315-0.057 1.0593-0.012 0.2278 0.045 0.2848 0.137 0.2961 0.091 0.0115 0.216-0.0341 0.262-0.3075-0.046 0.2734 0.33 0.1822 0.353-0.0227-0.012 0.2961 0.387 0.1253 0.41-0.1481 0 0.1936 0.302 0.0597 0.33-0.0342 0.068-0.2278 0.125-0.4784 0.216-0.6606 0.133-0.2645 0.275-0.6071 0.536-0.7974 0.296-0.2164 0.159-0.4556 0.774-0.7632z" fill="#ffe1cf" stroke="#000" stroke-width=".063"/>
      <path d="m223.52 93.689c0.069 0.2506 0.194 0.5354 0.239 0.7063 0.046 0.1708-0.034 0.2241-0.079 0.3189-0.239 0.5012-0.496 1.3001-0.536 1.7313-0.022 0.2506-0.193 0.4898-0.273 0.6379-0.088 0.1633-0.054 0.2893 0.148 0.4442 0.097 0.074 0.41-0.0228 0.444-0.1822 0.114 0.1138 0.319 0.0683 0.41-0.1026 0.103 0.1026 0.274 0.0342 0.388-0.1366 0.102 0.0683 0.25-0.0684 0.307-0.1596 0.16 0.0798 0.331-0.017 0.336-0.3302 1e-3 -0.0629 0.04-0.1709 0.086-0.2449 0.045-0.0741 0.062-0.2164 0.057-0.3418-6e-3 -0.1253 0.074-0.3758 0.182-0.5524s0.296-0.4898 0.216-0.7859c-0.074-0.2759-0.193-0.2506-0.296-0.6492-0.25-0.2621-0.592-0.6266-0.945-0.6494-0.353-0.0227-0.558 0.2165-0.684 0.2962z" fill="#ffe1cf" stroke="#000" stroke-width=".063"/>
      <path d="m217.04 95.648c0.319 0.3189 1.037 0.3303 1.538-0.2051-0.182-0.0797-0.581-0.262-0.763-0.41-0.251 0.2506-0.536 0.5353-0.775 0.6151z" fill="#ffe1cf" stroke="#000" stroke-width=".063"/>
      <path d="m220.26 59.426c0.125-0.8087 0.698-0.7896 1.059-0.7062 0.148 0.0342 0.513 0.0683 0.854-0.0228 0.676-0.1801 1.185 0.057 1.117 0.7063 0.182 0.1366 0.375 0.4555 0.341 0.729-0.034 0.2733 0.023 0.3872 0.274 0.4213 0.25 0.0343 0.786 0.3418 0.432 0.7746 0.342 0.2051 0.604 0.729 0.422 1.0821s-0.729 0.4101-0.957 0.0911c-0.25 0.1139-0.661 0.1367-0.911-0.1252-0.171 0.2049-0.604 0.1822-0.684 0-0.079-0.1823-0.214-0.2798-0.375-0.3304-0.183-0.0569-0.194-0.5581 0.079-0.6151-0.034-0.1481-0.022-0.3189 0.046-0.3986s0.011-0.2278-0.148-0.3532c-0.16-0.1253-0.296-0.6037-0.137-0.8656-0.273 0.0911-0.877-0.1709-1.002-0.3531-0.126-0.1823-0.296-0.1936-0.41-0.0342z" fill="#870f00" stroke="#000" stroke-width=".063"/>
      <path d="m220.43 62.935c0.444-0.057 0.592-0.3303 0.922-0.3076" fill="none" stroke="#000" stroke-width=".063"/>
      <path d="m219.48 61.698c0.029 0.0256 0.066 0.0465 0.108 0.0696 0.09 0.0486 0.188 0.0542 0.279 0.0655" fill="none" stroke="#000" stroke-width=".063"/>
      <path d="m219.62 61.226c0.062 0.0214 0.128 0.0526 0.187 0.1136" fill="none" stroke="#000" stroke-width=".063"/>
      <path d="m220.65 59.426c-0.262-0.2506 0.444-0.7631 1.185-0.0342 0.138 0.1361 0.489 0.1368 0.592 0.1025" fill="none" stroke="#000" stroke-width=".063"/>
      <path d="m221.67 59.814c0.342-0.0798 0.854-0.0798 1.002 0.3075 0.149 0.3873 0.445 0.1367 0.684 0.5924 0.239 0.4556 0.615 0.9681 0.979 0.615" fill="none" stroke="#000" stroke-width=".063"/>
      <path d="m222.89 62.377c-0.103-0.1367-0.148-0.4329-0.08-0.638-0.137-0.1594-0.08-0.4897 0-0.6492" fill="none" stroke="#000" stroke-width=".063"/>
      <path d="m221.91 61.431c0.012 0.1367 0.194 0.3873 0.479 0.4328" fill="none" stroke="#000" stroke-width=".063"/>
      <path d="m223.8 62.502c-0.159-0.205-0.137-0.3872-0.102-0.6379" fill="none" stroke="#000" stroke-width=".063"/>
      <path d="m222.14 60.235c-0.011 0.205 0.114 0.4784 0.33 0.5695 0.046 0.1138 0.274 0.4328 0.729 0.3873" fill="none" stroke="#000" stroke-width=".063"/>
      <path d="m223.29 59.404c-0.25-0.194-0.589-0.433-1.037-0.4921" fill="none" stroke="#000" stroke-width=".063"/>
      <path d="m220.51 65.942c-0.387 0.524-0.638 1.2529-0.455 2.2781 0.182 1.0252 0.478 2.5287-0.274 3.2121" fill="none" stroke="#000" stroke-width=".063"/>
      <path d="m223.47 73.414c-0.524-0.1138-1.276-0.1138-1.686 0.1823s-1.094 0.3189-1.549 0.0911" fill="none" stroke="#000" stroke-width=".063"/>
      <path d="m222.37 73.38c-0.456 0.0797-0.672 0.3986-0.672 1.2415s-0.182 2.073-0.023 3.2804" fill="none" stroke="#000" stroke-width=".063"/>
      <path d="m221.53 73.733c-0.296 0.0797-0.603 0.091-0.546 0.8884" fill="none" stroke="#000" stroke-width=".063"/>
      <path d="m220 74.644c0.011-0.4898 0.182-0.9454 0.501-0.8657" fill="none" stroke="#000" stroke-width=".063"/>
      <path d="m223.28 74.735c0.023-1.0821-0.216-1.3896-0.535-1.3782 0.433 0.0114 0.728 0.0643 0.911 1.8338 0.137 1.3213 0.413 1.789 0.729 2.8249 0.82 2.6881 0.41 6.8342 0.82 8.2922" fill="none" stroke="#000" stroke-width=".063"/>
      <path d="m222.65 75.054c0.865 2.506 1.321 5.2852-0.091 9.7502 0.956 2.6426 1.913 4.5561 2.095 5.6497" fill="none" stroke="#000" stroke-width=".063"/>
      <path d="m219.92 80.977c0.159-0.5694-0.41-0.6378 0.091-2.6425 0.217-0.8684 0.251-1.3896 0.114-1.663" fill="none" stroke="#000" stroke-width=".063"/>
      <path d="m220.12 77.856c-0.205 0.8885 0.661 2.5515 0.228 3.7588" fill="none" stroke="#000" stroke-width=".063"/>
      <path d="m219.28 81.843c0 0.7745 0.182 1.7769 0.137 2.5515-0.046 0.7745 0.27 1.1334 0.638 1.868 1.321 2.6426 2.22 4.528 2.095 7.0165-0.022 0.4556 0.137 1.4124-0.341 1.6857" fill="none" stroke="#000" stroke-width=".063"/>
      <path d="m219.31 95.636c0.137 0.0114 0.285-0.0569 0.456-0.467s0.718-2.8704 0.49-4.5562" fill="none" stroke="#000" stroke-width=".063"/>
      <path d="m220.53 92.527c0.068 0.5239 0.068 1.5946-0.273 2.4375" fill="none" stroke="#000" stroke-width=".063"/>
      <path d="m221.4 90.955c0.205 1.1163 0.182 2.1187 0.023 2.8248" fill="none" stroke="#000" stroke-width=".063"/>
      <path d="m220.94 93.78c0.023 0.4556 0.228 1.5947-0.114 1.6859" fill="none" stroke="#000" stroke-width=".063"/>
      <path d="m222.65 88.495c0.842 1.3213 1.503 4.579 2.209 5.2623" fill="none" stroke="#000" stroke-width=".063"/>
      <path d="m223.38 93.233c-0.023-0.3645-0.046-0.8656-0.251-1.0935" fill="none" stroke="#000" stroke-width=".063"/>
      <path d="m214.28 77.287c0.011-0.2507-0.034-0.4899 0.239-0.8771" fill="none" stroke="#000" stroke-width=".063"/>
      <path d="m213.87 77.435c0.034-0.8771 0.022-0.9569 0.273-1.1961" fill="none" stroke="#000" stroke-width=".063"/>
      <path d="m213.52 77.457c0.011-0.6264-0.069-0.8429 0.182-1.2416" fill="none" stroke="#000" stroke-width=".063"/>
      <path d="m216.66 58.663c-0.097 0.0626-0.666 0.4954-0.905 0.6777" fill="none" stroke="#000" stroke-width=".063"/>
      <path d="m216.9 58.874c-0.108 0.017-0.421 0.2734-0.979 0.7062" fill="none" stroke="#000" stroke-width=".063"/>
      <path d="m216.92 59.227c-0.176 0.0797-0.512 0.4044-0.82 0.6208" fill="none" stroke="#000" stroke-width=".063"/>
      <path d="m215.52 59.164c-0.085 0.0626-0.25 0.2449-0.33 0.3075" fill="none" stroke="#000" stroke-width=".063"/>
      <path d="m223.46 97.345c-0.051-0.057-0.051-0.2564 0.04-0.4784" fill="none" stroke="#000" stroke-width=".063"/>
      <path d="m223.87 97.242c-0.062-0.0626 0-0.336 0.063-0.5126" fill="none" stroke="#000" stroke-width=".063"/>
      <path d="m224.26 97.106c-0.074-0.0342-0.097-0.1937 0.011-0.4101" fill="none" stroke="#000" stroke-width=".063"/>
      <path d="m224.56 96.946c-0.051-0.017-0.074-0.1025 0.017-0.353" fill="none" stroke="#000" stroke-width=".063"/>
      <path d="m220.08 60.144c0.165 0.2164 0.336 0.1935 0.366 0.333 0.03 0.1397 0.052 0.1496 0.084 0.191 0.032 0.0413-0.078 0.033-0.132 0.0107-0.053-0.0223-0.187-0.02-0.269-0.0188-0.081 0.0012-0.178-0.0946-0.117-0.1059 0.06-0.0112 0.052-0.0301 0.043-0.0726-9e-3 -0.0424 0.034-0.1095 0.059-0.1218 0.026-0.0123 8e-3 -0.01-0.015-0.0669-0.024-0.057-0.054-0.1953-0.019-0.1487z"/>
      <path d="m220.18 59.946c0.185 0.0217 0.504 0.1216 0.677 0.3131 0.136 0.1506 0.025 0.1107-0.044 0.1163-0.069 0.0058-0.204-0.0431-0.272-0.1287-0.067-0.0855-0.268-0.1939-0.375-0.2221-0.065-0.0168-0.126-0.0951 0.014-0.0786z"/>
    </g>
  </g>
</svg>
