<?xml version="1.0" encoding="UTF-8"?>
<svg width="900" height="600" viewBox="0 0 90 60" xmlns="http://www.w3.org/2000/svg">
  <title>Flag of Namibia</title>
  <defs>
    <clipPath id="c">
      <path d="m0 0h90v60H0z"/>
    </clipPath>
  </defs>
  <path d="m0 60V0h90z" fill="#003580"/>
  <path d="m90 0v60H0z" fill="#009543"/>
  <g clip-path="url(#c)" fill="none">
    <path d="m0 60L90 0" stroke="#fff" stroke-width="20"/>
    <path d="m0 60L90 0" stroke="#d21034" stroke-width="15"/>
  </g>
  <g transform="translate(18 16.342)" fill="#ffce00">
    <path transform="scale(.01)" d="m0-1000 155 420 345-286-76 442 442-76-286 345L1000 0 580 155l286 345-442-76 76 442-345-286L0 1000-155 580-500 866l76-442-442 76 286-345-420-155 420-155-286-345 442 76-76-442 345 286z"/>
    <circle r="5.5" stroke="#003580"/>
  </g>
</svg>
