<?xml version="1.0" encoding="UTF-8"?>
<svg width="600" height="400" version="1.0" xmlns="http://www.w3.org/2000/svg">
  <rect width="600" height="400" fill="#ce1126"/>
  <rect y="100" width="600" height="200" fill="#fff"/>
  <path d="m279.88 275.41c-6.1779 0.34881-12.334 4.5177-15.219 6.75 5.1802 2.2672 10.71 4.037 16.594 5.25 9.3748 1.574 18.75 1.5625 28.125 1.5625 1.5304-0.1927 3.0449-0.41052 4.5312-0.65625l19.75-6.6562s-9.5008-6.2714-17.031-6c-7.5312 0.27137-12.615 7.6383-18.688 7.0938-6.0727-0.54364-8.5049-7.3438-17.25-7.3438-0.27329 0-0.53902-0.01544-0.8125 0z" fill="#083d9c" fill-rule="evenodd" stroke="#083d9c" stroke-width="1.6453pt"/>
  <path d="m244.01 270.31 112.23 0.4805s-9.7159-10.323-21.134-10.563c-11.417-0.24185-8.2581 4.8012-17.003 5.5203-8.7444 0.72076-10.932-5.2809-18.948-5.0414-8.015 0.23947-12.632 5.0414-18.703 5.2824-6.0726 0.23947-13.846-6.0032-18.462-5.7614-4.6157 0.23946-21.134 7.2013-21.134 7.2013l3.1579 2.8807z" fill="#083d9c" fill-rule="evenodd" stroke="#083d9c" stroke-width="1.5455pt"/>
  <path d="m229.68 257.1 138.46 0.4813c2.1855-3.1209-6.802-10.563-15.06-11.284-6.8036 0.23946-11.66 6.9619-17.247 7.2029-5.5873 0.23947-11.902-6.9634-18.219-6.7216-6.315 0.23946-12.874 6.7216-19.19 6.7216-6.315 0-10.931-6.9634-18.946-6.9634-8.0158 0-11.66 7.6826-17.733 7.2029-6.0743-0.4805-11.418-7.6818-17.247-7.6818-5.8296 0-15.546 8.6421-17.489 8.1616-1.9432-0.47972 2.4278 3.6014 2.6725 2.8807z" fill="#083d9c" fill-rule="evenodd" stroke="#083d9c" stroke-width="1.5455pt"/>
  <path d="m282.87 181 31.823 8.4034v-44.895c-14.576 0.72077-26.72-27.368-0.97161-29.288-25.263-3.6015-28.179 2.8807-31.093 9.8426l0.2423 55.937z" fill="#ce1126" fill-rule="evenodd" stroke="#630810" stroke-linejoin="round" stroke-width="1.9319"/>
  <path d="m262.71 213.65 71.903 0.23946" fill="#630810" fill-rule="evenodd" stroke="#630810" stroke-linecap="round" stroke-width="2.7916"/>
  <g transform="matrix(1.5546 0 0 1.5365 -.11934 1.6391)" fill="#630810" fill-rule="evenodd" stroke="#630810" stroke-linecap="round" stroke-width="1.8063">
    <path d="m171.25 126.89 5.469 7.344"/>
    <path d="m171.25 134.24 5.938-7.187"/>
    <path d="m174.38 126.42-0.156 4.531"/>
  </g>
  <g transform="matrix(1.5546 0 0 1.5365 13.484 1.6391)" fill="#630810" fill-rule="evenodd" stroke="#630810" stroke-linecap="round" stroke-width="1.8063">
    <path d="m171.25 126.89 5.469 7.344"/>
    <path d="m171.25 134.24 5.938-7.187"/>
    <path d="m174.38 126.42-0.156 4.531"/>
  </g>
  <g transform="matrix(1.5546 0 0 1.5365 27.33 1.6391)" fill="#630810" fill-rule="evenodd" stroke="#630810" stroke-linecap="round" stroke-width="1.8063">
    <path d="m171.25 126.89 5.469 7.344"/>
    <path d="m171.25 134.24 5.938-7.187"/>
    <path d="m174.38 126.42-0.156 4.531"/>
  </g>
  <g transform="matrix(1.5546 0 0 1.5365 41.662 1.6391)" fill="#630810" fill-rule="evenodd" stroke="#630810" stroke-linecap="round" stroke-width="1.8063">
    <path d="m171.25 126.89 5.469 7.344"/>
    <path d="m171.25 134.24 5.938-7.187"/>
    <path d="m174.38 126.42-0.156 4.531"/>
  </g>
  <g transform="matrix(1.5546 0 0 1.5365 55.508 1.6391)" fill="#630810" fill-rule="evenodd" stroke="#630810" stroke-linecap="round" stroke-width="1.8063">
    <path d="m171.25 126.89 5.469 7.344"/>
    <path d="m171.25 134.24 5.938-7.187"/>
    <path d="m174.38 126.42-0.156 4.531"/>
  </g>
  <path d="m214.37 214.37 30.606 0.24025v-18.966l-34.98-1.6794 4.3734 20.405z" fill="#ff9c10" fill-rule="evenodd"/>
  <path d="m212.91 188.2 32.551 3.1209-0.2423-13.444-31.822-12.484-0.48701 22.807z" fill="#ff9c10" fill-rule="evenodd"/>
  <path d="m219.47 161.32 25.021 12.003 3.5727-3.6863s-2.301-1.5668-2.1871-3.0084c0.04332-1.4582 2.3147-1.6794 2.358-3.2621 0.04172-1.4582-2.573-1.6334-2.6011-3.0924-0.17088-1.5811 2.0154-3.2764 2.0154-3.2764l-22.591-19.446-5.5881 23.768z" fill="#ff9c10" fill-rule="evenodd"/>
  <path d="m383.68 214.61h-32.307l-0.2423-18.485 35.464-2.6412-2.9148 21.127z" fill="#ff9c10" fill-rule="evenodd"/>
  <path d="m384.47 187.91c-0.40794-3.001-0.83573-5.9945-1.5312-8.9375-0.93116-3.9401-2.1206-7.8167-3.5625-11.594-0.10645-0.27883-0.26579-0.53476-0.375-0.8125l-27.625 11.562 0.25 13.688 32.844-3.9062z" fill="#ff9c10" fill-rule="evenodd"/>
  <path d="m365.59 143.47-16.531 12.5c-0.00772 0.01048-0.02592 0.05022-0.03125 0.0625-0.00127 0.00448 0.00102 0.02658 0 0.03125-7.7e-4 0.00486 5.3e-4 0.0262 0 0.03125-2.9e-4 0.00523 5e-5 0.02584 0 0.03125 1.8e-4 0.00559-4.1e-4 0.02548 0 0.03125 0.00126 0.01189-0.00214 0.04992 0 0.0625 0.1423 0.71694 1.6024 2.4803 1.8125 3.7812-0.11074 1.9758-1.8051 2.8504-2.0938 3.7188-0.00678 0.02227-0.02638 0.07145-0.03125 0.09375-0.0028 0.01488 0.0019 0.04759 0 0.0625-0.00215 0.02239 0 0.07124 0 0.09375 5.3e-4 0.01483-0.00156 0.048 0 0.0625 0.00207 0.01433-0.00305 0.04848 0 0.0625 0.00353 0.01388 0.02678 0.04891 0.03125 0.0625 0.01722 0.04709 0.03496 0.1121 0.0625 0.15625 0.45412 0.68804 2.0625 1.088 2.0625 2.5312 0 1.5759-1.4696 2.5134-1.6562 2.625 1.9049 1.2571 2.2534 2.7881 2.6562 4.3438l24.75-12.875c-2.9522-6.2166-6.629-12.103-11.031-17.469z" fill="#ff9c10" fill-rule="evenodd"/>
  <path d="m319.56 191.44 13.845-0.59944 0.2423-5.5235-14.088 6.1229z" fill="#ff9c10" fill-rule="evenodd"/>
  <path d="m277.29 191.02-14.575-0.41947v-5.7622l14.575 6.1816z" fill="#ff9c10" fill-rule="evenodd"/>
  <path d="m277.23 189.34-14.515-7.3829v-9.6023s-1.7009 0.23946-1.4578-1.681c0.08023-4.0011 10.667 7.3028 16.093 10.984l-0.12114 7.6826z" fill="#ff9c10" fill-rule="evenodd"/>
  <path d="m319.55 188.44-0.05937-6.2411s13.115-11.703 15.909-13.864c0 2.401-1.5172 4.2604-1.5172 4.2604v9.1234l-14.332 6.7216z" fill="#ff9c10" fill-rule="evenodd"/>
  <path d="m234.54 135.87c0.24229 0.24026 14.718 16.14 14.718 16.14 0.40598-1.5066 3.7436-1.7357 7.1437-1.4954 3.4018 0.23946 6.1128-0.22519 6.1128 2.1758 0 2.4002-1.7258 2.0592-1.7258 3.7402s2.5858 1.5399 2.5858 3.6982c0 2.1607-1.875 1.7198-1.8846 3.3929-0.00561 1.3829 1.956 1.4566 1.956 1.4566l13.785 13.205 0.06016-14.105-28.42-44.052-14.331 15.845z" fill="#ff9c10" fill-rule="evenodd"/>
  <path d="m257.28 119.19c0.21581 0.64069 19.25 38.906 19.25 38.906s0.21583-35.913 3.4604-37.837l-5.4068-9.8338-17.303 8.765z" fill="#ff9c10" fill-rule="evenodd"/>
  <path d="m319.41 115.06-7.1875 24.844s3.47 0.43205 6.2812 0.21875c0.70302-0.05352 1.1154 0.09083 1.3438 0.3125 0.0474 0.04976 0.0942 0.12993 0.125 0.1875 0.02042 0.04182 0.04948 0.11138 0.0625 0.15625 0.0279 0.10897 0.0377 0.25571 0.03125 0.375-0.05006 0.67848-0.53125 1.4375-0.53125 1.4375l-0.03125 16 20.312-35.875c-4.1461-2.1173-8.5579-3.935-13.25-5.4062-2.4414-0.92273-4.8107-1.6525-7.1562-2.25z" fill="#ff9c10" fill-rule="evenodd"/>
  <path d="m344.69 125.44-25.125 38.625-0.03125 14.875 16.531-15.688c0.20186-0.19151 0.35179-0.36019 0.4375-0.5 0.02627-0.04564 0.04719-0.11508 0.0625-0.15625 0.00793-0.02421 0.02695-0.07095 0.03125-0.09375 0.00209-0.01491-5.8e-4 -0.04815 0-0.0625-1.6e-4 -0.01409 0.00159-0.04892 0-0.0625-0.00228-0.01335 0.00363-0.0496 0-0.0625-0.00428-0.01269-0.02571-0.0502-0.03125-0.0625-0.01537-0.0303-0.04005-0.06538-0.0625-0.09375-0.39921-0.47135-1.7132-0.74088-1.8438-2.1562 0.02656-0.27871 0.09321-0.51211 0.1875-0.6875 0.35795-0.63034 1.0974-0.74231 1.5625-1.3125 0.24186-0.30884 0.40625-0.75875 0.40625-1.5 0-0.5212-0.06135-0.87417-0.15625-1.0938-0.01128-0.02436-0.01902-0.07215-0.03125-0.09375-0.02507-0.04147-0.06531-0.09278-0.09375-0.125-0.00482-0.00514-0.02634-0.02632-0.03125-0.03125-0.00499-0.00472-0.02618-0.02673-0.03125-0.03125-0.21609-0.18193-0.51466-0.21723-0.78125-0.40625-0.01266-0.0094-0.04994-0.02101-0.0625-0.03125-0.02502-0.02138-0.06923-0.06842-0.09375-0.09375-0.03655-0.03962-0.09007-0.10579-0.125-0.15625-0.16151-0.24479-0.31165-0.64205-0.40625-1.25-0.04926-0.24216-0.06375-0.50176 0-0.75 0.01186-0.04273 0.0461-0.114 0.0625-0.15625 0.01388-0.0337 0.04549-0.09173 0.0625-0.125 0.05347-0.09944 0.13366-0.21887 0.21875-0.3125 0.02198-0.02326 0.06959-0.07097 0.09375-0.09375 0.581-0.5277 1.7835-0.9375 4.0312-0.9375 4.0773 0 8.3626-0.78216 9.0625 0.875 0.0704-0.07076 9.0417-9.0428 12.844-12.969-4.8439-5.0457-10.425-9.5241-16.688-13.281z" fill="#ff9c10" fill-rule="evenodd"/>
  <path d="m289.94 221.58c-6.9215 11.33-25.425 7.9697-29.752 0.06027-1.2965-0.36317-0.52953-48.8-0.52953-48.8s-2.0675-0.93089-2.163-2.42c-0.09466-1.5042 2.8113-1.6406 2.8113-3.5658 0-1.9236-2.9677-1.1696-3.0271-3.1059 0.01283-1.8515 3.1683-1.5962 3.0271-3.3073-0.16688-1.9284-3.5342-1.6429-3.677-3.4207-0.1091-1.4122 2.4085-2.6436 3.1082-3.2787-0.45251 0.02219-2.3387-0.02776-2.3508-0.03411-1.7667 0.03569-3.5342 0.07136-5.3 0.10704-3.7652 0.00396 0.06499 0.81116 0.00963 2.9584-0.0345 1.4027-1.9095 2.336-2.0772 3.5555-0.05937 1.252 2.6829 2.1314 2.7174 3.634 0.0313 1.3408-2.6941 1.432-2.5963 2.6777 0.16929 2.1084 2.4141 2.5722 2.3804 3.8488-0.03451 1.275-3.0207 1.7611-3.0287 2.7784 0.10429 1.968 0.43244 49.807 0.43244 49.807 4.7585 24.37 32.228 30.569 40.015-1.4955z" fill="#ce1126" fill-rule="evenodd" stroke="#630810" stroke-linejoin="round" stroke-width="1.9319"/>
  <path d="m308.05 221.58c6.9215 11.33 25.424 7.9697 29.751 0.06027 1.2965-0.36317 0.53034-48.8 0.53034-48.8s2.0675-0.93089 2.1622-2.42c0.09467-1.5042-2.6292-1.6406-2.6292-3.5658 0-1.9236 2.7864-1.1696 2.845-3.1059-0.01203-1.8515-2.9252-1.7159-2.784-3.4278 0.16608-1.9276 2.4534-1.7024 2.5834-3.4801 0.10911-1.5311-1.4361-2.4636-2.1357-3.0987 0.45249 0.02219 2.2168-0.02776 2.2296-0.03411 1.7659 0.03569 3.5334 0.07136 5.2992 0.10704 3.766 0.00396-0.06498 0.81116-0.00882 2.9584 0.0337 1.4027 1.9087 2.336 2.0772 3.5555 0.05857 1.252-2.6837 2.1314-2.7182 3.634-0.03049 1.3408 2.695 1.432 2.5963 2.6777-0.16928 2.1084-2.4141 2.5722-2.3796 3.8488 0.0337 1.275 3.0207 1.7611 3.0279 2.7784-0.10349 1.968-0.43164 49.807-0.43164 49.807-4.7593 24.37-32.228 30.569-40.015-1.4955z" fill="#ce1126" fill-rule="evenodd" stroke="#630810" stroke-linejoin="round" stroke-width="1.9319"/>
  <path d="m283.21 243.86 30.908-0.01824c0.2407-0.24025-6.9199-10.55-15.449-9.8227-9.5017 0.24581-15.956 9.841-15.459 9.841z" fill="#083d9c" fill-rule="evenodd" stroke="#083d9c" stroke-width="1.5455pt"/>
  <path d="m381.77 243.12h-42.294s5.4741-3.1971 6.9664-6.1475c2.7359 1.4756 1.9897 2.9505 7.4639 3.1963 5.4725 0.24582 10.697-6.1459 15.923-5.9001 5.2238 0.2458 11.941 9.0972 11.941 8.8514z" fill="#083d9c" fill-rule="evenodd" stroke="#083d9c" stroke-width="1.5455pt"/>
  <path d="m215.1 243.12h42.294s-5.4741-3.1971-6.9664-6.1475c-2.7359 1.4756-1.9897 2.9505-7.4638 3.1963-5.4717 0.24582-10.697-6.1459-15.923-5.9001-5.2238 0.2458-11.941 9.0972-11.941 8.8514z" fill="#083d9c" fill-rule="evenodd" stroke="#083d9c" stroke-width="1.5455pt"/>
  <path d="m218.26 229.98 30.121 0.23947s-1.9432-4.0804-2.1855-9.1218c-7.7752-2.6396-14.09 5.7614-19.677 6.0016-5.5856 0.23946-11.415-6.0016-11.415-6.0016l3.1571 8.8823z" fill="#083d9c" fill-rule="evenodd" stroke="#083d9c" stroke-width="1.5455pt"/>
  <path d="m379.07 229.98-30.122 0.23947s1.944-4.0804 2.1863-9.1218c7.7744-2.6396 14.089 5.7614 19.677 6.0016 5.5865 0.23946 11.416-6.0016 11.416-6.0016l-3.1571 8.8823z" fill="#083d9c" fill-rule="evenodd" stroke="#083d9c" stroke-width="1.5455pt"/>
  <path d="m290.89 230.22 15.302-0.47893s0.24389-4.5617-7.7728-4.5617c-8.0158 0-7.2866 5.2817-7.5296 5.0406z" fill="#083d9c" fill-rule="evenodd" stroke="#083d9c" stroke-width="1.5455pt"/>
  <path d="m281.66 223.73c2.6725-1.4415 5.1011-2.8807 6.802-6.2427l-10.446 0.23947s-4.8564 2.8823-7.2866 6.0032h10.931z" fill="#630810" fill-rule="evenodd" stroke="#630810" stroke-linecap="round" stroke-width="2.7916"/>
  <path d="m315.42 223.73c-2.6725-1.4415-5.1003-2.8807-6.8012-6.2427l10.445 0.23947s4.8572 2.8823 7.2866 6.0032h-10.931z" fill="#630810" fill-rule="evenodd" stroke="#630810" stroke-linecap="round" stroke-width="2.7916"/>
  <path id="selection_to_path" d="m0 100v200h600v-200h-600zm290.62 12.598c12.5 0 23.438 0 35.938 4.7244 70.312 22.047 79.687 121.26 17.188 159.06-10.937 7.8732-21.875 11.024-34.375 12.598-9.3748 0-18.75 0-28.125-1.574-68.75-14.174-90.625-105.51-39.063-152.76 14.063-12.598 29.688-18.898 48.437-22.047z" fill="#fff"/>
</svg>
