<?xml version="1.0" encoding="UTF-8"?>
<svg width="450" height="300" viewBox="0 0 1050 700" xmlns="http://www.w3.org/2000/svg" xmlns:xlink="http://www.w3.org/1999/xlink">
  <defs>
    <linearGradient id="f" x1="91.962" x2="92.129" y1="207.73" y2="185.55" gradientTransform="matrix(1.0629 0 0 .8398 -3.2212 474.3)" gradientUnits="userSpaceOnUse">
      <stop stop-color="#4A0000" offset="0"/>
      <stop stop-color="#FFCF00" offset="1"/>
    </linearGradient>
    <linearGradient id="g" x1="49.019" x2="62.98" y1="178.06" y2="164.97" gradientTransform="matrix(.9378 0 0 .9518 3.9096 470.18)" gradientUnits="userSpaceOnUse">
      <stop stop-color="#4A0000" offset="0"/>
      <stop stop-color="#FFCF00" offset="1"/>
    </linearGradient>
    <linearGradient id="h" x1="104.85" x2="103.97" y1="159.46" y2="166.26" gradientTransform="matrix(.7891 0 0 1.1312 12.387 448.25)" gradientUnits="userSpaceOnUse">
      <stop offset="0"/>
      <stop stop-color="#2b5df2" offset="1"/>
    </linearGradient>
    <linearGradient id="i" x1="52.271" x2="64.6" y1="179.01" y2="167.45" gradientTransform="matrix(.9239 0 0 .9662 4.7053 469.63)" gradientUnits="userSpaceOnUse">
      <stop stop-color="#4A0000" offset="0"/>
      <stop stop-color="#FFCF00" offset="1"/>
    </linearGradient>
    <linearGradient id="j" x1="44.325" x2="55.467" y1="221.73" y2="211.28" gradientTransform="matrix(1.1431 0 0 .7809 -7.7896 461.21)" gradientUnits="userSpaceOnUse">
      <stop stop-color="#4A0000" offset="0"/>
      <stop stop-color="#FFCF00" offset="1"/>
    </linearGradient>
  </defs>
  <path d="m0 233.33h286.18v233.33h-286.18z" fill="#fff"/>
  <path d="m263.45 368.98c-2.4682 1.6822-5.0958 2.0611-7.0279 1.031-1.5016-0.81445-1.6621-0.32498-0.42852 1.3012 0.64368 0.81445 2.0916 1.6821 3.379 2.0076 1.2346 0.32598 3.38 1.0845 4.775 1.6267 3.2185 1.3566 6.1152 1.3566 8.3143 0 4.4531-2.7121 1.663-7.5942-4.2917-7.5942-1.7159 0-3.0033 0.43398-4.7202 1.6277zm12.928 5.9131c-0.26807 0.59645-0.53614 2.2233-0.53614 3.6877-0.10763 9.7097-3.916 18.877-11.104 26.797-1.5554 1.6812-2.8429 3.2-2.8429 3.4176 0 0.54196 8.0463 0.37947 9.1195-0.21798 0.96556-0.48746 1.0722-0.32598 1.394 1.5733 0.42942 2.6043 1.8783 5.0988 3.648 6.2921 1.127 0.75995 1.5564 0.81444 2.79 0.1635 2.1454-1.0311 3.5404-3.2544 3.8084-6.0754 0.26807-2.1155 0.48323-2.4955 1.1798-2.1155 0.48323 0.21699 2.8977 0.48746 5.3648 0.59646l4.5059 0.21697-2.3606-2.82c-4.4521-5.3165-5.8999-7.323-7.6706-10.85-2.4672-4.8277-3.4866-8.6243-3.916-14.374-0.16145-2.7121-0.53605-5.4243-0.7513-6.1297-0.53615-1.4645-1.8773-1.5733-2.6286-0.16249zm-182.36-24.041c-0.69751 0.86793-1.5016 2.4955-1.6631 3.5265-0.21424 1.0844-0.85794 2.9833-1.394 4.231-1.395 3.1455-1.3412 5.8042 0.16043 8.082 1.8773 2.8754 5.043 2.821 6.5446-0.0505 1.395-2.6577 1.0194-6.4009-0.85794-9.2208-1.6631-2.4411-1.8773-4.6654-0.80514-7.2153 0.69752-1.4644-0.53608-1.0844-1.9849 0.65095zm6.6523 17.196c-1.0194 0.43296-2.1463 1.1933-2.521 1.7355-3.0043 3.9599 3.8084 8.2987 8.7438 5.641 5.3111-2.9289 5.4715-2.9833 7.9925-2.1155 2.1463 0.70544 2.253 0.70544 1.8245-0.16249-0.85893-1.6277-2.1992-2.3866-7.4036-4.1766-5.9538-2.0076-6.169-2.0076-8.6362-0.92243zm-20.492 1.3011c-2.4682 1.6822-5.0968 2.0611-7.0279 1.031-1.5016-0.81344-1.6631-0.32498-0.42847 1.3022 0.6437 0.81343 2.0915 1.6811 3.3789 2.0066 1.2336 0.32599 3.3799 1.0845 4.775 1.6277 3.2185 1.3556 6.1152 1.3556 8.3143 0 4.4521-2.7121 1.6631-7.5942-4.2917-7.5942-1.7159 0-3.0043 0.43297-4.7202 1.6267zm12.928 5.9131c-0.26804 0.59645-0.53608 2.2233-0.53608 3.6887-0.10762 9.7097-3.916 18.876-11.104 26.796-1.5554 1.6822-2.8439 3.201-2.8439 3.4176 0 0.54195 8.0473 0.38047 9.1205-0.21698 0.96556-0.48847 1.0722-0.32598 1.394 1.5723 0.42946 2.6043 1.8783 5.0998 3.648 6.2931 1.127 0.75894 1.5555 0.81344 2.79 0.16249 2.1453-1.0301 3.5404-3.2544 3.8084-6.0754 0.26807-2.1155 0.48233-2.4954 1.1798-2.1155 0.48332 0.21699 2.8966 0.48847 5.3648 0.59646l4.5059 0.21697-2.3606-2.82c-4.4521-5.3164-5.9009-7.323-7.6706-10.849-2.4682-4.8276-3.4876-8.6252-3.916-14.375-0.16142-2.7121-0.53708-5.4243-0.75132-6.1297-0.53609-1.4645-1.8773-1.5733-2.6286-0.16249zm91.601-24.629c-0.69749 0.86793-1.5017 2.4955-1.6631 3.5265-0.21426 1.0844-0.85793 2.9833-1.395 4.231-1.394 3.1456-1.3412 5.8042 0.16145 8.082 1.8773 2.8754 5.042 2.821 6.5446-0.0505 1.394-2.6578 1.0194-6.401-0.85893-9.221-1.6631-2.441-1.8773-4.6653-0.80411-7.2152 0.69749-1.4644-0.53704-1.0844-1.9849 0.65095zm6.6522 17.196c-1.0194 0.43297-2.1463 1.1933-2.522 1.7355-3.0043 3.9599 3.8094 8.2987 8.7438 5.641 5.311-2.9289 5.4725-2.9833 7.9935-2.1155 2.1454 0.70544 2.253 0.70544 1.8235-0.16249-0.85793-1.6277-2.1992-2.3866-7.4026-4.1766-5.9548-2.0076-6.169-2.0076-8.6362-0.92243zm-20.493 1.3011c-2.4672 1.6822-5.0958 2.061-7.027 1.031-1.5026-0.81344-1.6631-0.32498-0.42951 1.3022 0.64367 0.81343 2.0925 1.681 3.38 2.0066 1.2336 0.32597 3.3789 1.0844 4.774 1.6277 3.2185 1.3556 6.1152 1.3556 8.3153 0 4.4521-2.7121 1.6631-7.5942-4.2917-7.5942-1.7169 0-3.0043 0.43296-4.7211 1.6267zm12.929 5.9131c-0.26808 0.59644-0.53705 2.2233-0.53705 3.6887-0.10663 9.7097-3.916 18.876-11.104 26.796-1.5554 1.6822-2.8428 3.201-2.8428 3.4176 0 0.54195 8.0463 0.37946 9.1195-0.21698 0.96556-0.48847 1.0732-0.32498 1.395 1.5723 0.42941 2.6043 1.8773 5.0998 3.648 6.2931 1.126 0.75894 1.5555 0.81343 2.789 0.16249 2.1464-1.0301 3.5404-3.2544 3.8084-6.0754 0.26907-2.1155 0.48323-2.4955 1.1808-2.1155 0.48222 0.21698 2.8967 0.48846 5.3638 0.59644l4.5069 0.21699-2.3606-2.82c-4.4521-5.3164-5.901-7.3231-7.6716-10.849-2.4672-4.8277-3.4866-8.6253-3.916-14.375-0.16044-2.7122-0.53604-5.4244-0.7503-6.1298-0.53705-1.4645-1.8783-1.5733-2.6286-0.16249zm-178.62-24.561c-0.69751 0.86793-1.5016 2.4955-1.6631 3.5255-0.21424 1.0854-0.85794 2.9843-1.395 4.231-1.394 3.1466-1.3402 5.8042 0.16142 8.0831 1.8773 2.8744 5.043 2.821 6.5447-0.0505 1.395-2.6578 1.0194-6.4009-0.85794-9.222-1.6631-2.441-1.8783-4.6643-0.80513-7.2142 0.69751-1.4644-0.53609-1.0844-1.9849 0.65095zm6.6523 17.195c-1.0194 0.43397-2.1463 1.1933-2.522 1.7365-3.0033 3.9599 3.8094 8.2987 8.7448 5.641 5.3101-2.9289 5.4715-2.9833 7.9925-2.1155 2.1463 0.70544 2.253 0.70544 1.8245-0.16249-0.85894-1.6277-2.2002-2.3876-7.4036-4.1776-5.9538-2.0066-6.169-2.0066-8.6362-0.92243zm263.27-145.01c-0.26807 0.59644-0.53704 2.2233-0.53704 3.6877-0.10663 9.7097-3.916 18.877-11.104 26.797-1.5555 1.6812-2.8429 3.1999-2.8429 3.4176 0 0.54196 8.0463 0.37947 9.1195-0.21799 0.96556-0.48746 1.0732-0.32497 1.395 1.5733 0.42942 2.6043 1.8773 5.0988 3.648 6.2921 1.126 0.75994 1.5554 0.81444 2.789 0.1635 2.1463-1.031 3.5404-3.2544 3.8084-6.0753 0.26907-2.1155 0.48323-2.4954 1.1808-2.1155 0.48223 0.21699 2.8967 0.48746 5.3638 0.59645l4.507 0.21698-2.3606-2.82c-4.4531-5.3164-5.901-7.3231-7.6716-10.85-2.4672-4.8276-3.4866-8.6243-3.916-14.374-0.16045-2.7121-0.53605-5.4243-0.7503-6.1297-0.53705-1.4645-1.8783-1.5733-2.6286-0.16248zm-183.28 0.36887c-0.26804 0.59644-0.53608 2.2233-0.53608 3.6888-0.10762 9.7096-3.916 18.876-11.104 26.796-1.5555 1.6822-2.8429 3.2009-2.8429 3.4176 0 0.54195 8.0463 0.37946 9.1195-0.21699 0.96556-0.48847 1.0732-0.32497 1.395 1.5723 0.42847 2.6043 1.8773 5.0998 3.647 6.2931 1.127 0.75894 1.5564 0.81344 2.79 0.1625 2.1453-1.03 3.5404-3.2544 3.8084-6.0754 0.26804-2.1155 0.48328-2.4954 1.1808-2.1155 0.48223 0.21699 2.8967 0.48847 5.3639 0.59645l4.5059 0.21698-2.3596-2.8201c-4.4531-5.3164-5.901-7.323-7.6717-10.849-2.4672-4.8276-3.4865-8.6253-3.916-14.375-0.16042-2.7121-0.53608-5.4242-0.75132-6.1297-0.53609-1.4645-1.8773-1.5733-2.6286-0.16248zm90.689-0.2187c-0.26808 0.59645-0.53605 2.2233-0.53605 3.6887-0.10763 9.7097-3.916 18.876-11.104 26.796-1.5555 1.6821-2.8429 3.201-2.8429 3.4176 0 0.54195 8.0463 0.37947 9.1195-0.21697 0.96556-0.48847 1.0722-0.32498 1.394 1.5722 0.42951 2.6043 1.8783 5.0998 3.648 6.2931 1.127 0.75894 1.5554 0.81343 2.79 0.16248 2.1453-1.0301 3.5404-3.2544 3.8084-6.0754 0.26807-2.1155 0.48223-2.4955 1.1798-2.1155 0.48322 0.21698 2.8967 0.48847 5.3648 0.59645l4.5059 0.21698-2.3606-2.82c-4.4521-5.3165-5.9009-7.323-7.6706-10.849-2.4682-4.8277-3.4876-8.6253-3.916-14.375-0.16144-2.7122-0.53705-5.4244-0.7513-6.1298-0.53605-1.4645-1.8773-1.5733-2.6286-0.1625zm-178.55-0.15017c-0.26804 0.59644-0.53609 2.2233-0.53609 3.6877-0.053804 4.8549-1.4319 10.382-3.2962 14.877l-0.13751 16.693c0.42947 2.6043 1.8783 5.0988 3.648 6.2921 1.127 0.75993 1.5555 0.81444 2.79 0.16349 2.1453-1.031 3.5404-3.2543 3.8084-6.0753 0.26804-2.1155 0.48328-2.4954 1.1798-2.1155 0.48328 0.21699 2.8967 0.48746 5.3649 0.59645l4.5059 0.21699-2.3606-2.82c-4.4521-5.3164-5.9009-7.3231-7.6706-10.85-2.4682-4.8276-3.4866-8.6243-3.916-14.374-0.16142-2.7121-0.53609-5.4243-0.75132-6.1297-0.53609-1.4645-1.8773-1.5733-2.6286-0.16248zm227.63 206.48c-0.69748 0.86792-1.5016 2.4955-1.6631 3.5255-0.21426 1.0855-0.85793 2.9833-1.394 4.231-1.395 3.1466-1.3412 5.8043 0.16044 8.0831 1.8773 2.8744 5.043 2.82 6.5446-0.0505 1.395-2.6577 1.0194-6.4009-0.85793-9.2219-1.6631-2.4411-1.8773-4.6644-0.80512-7.2143 0.69749-1.4644-0.53614-1.0844-1.9849 0.65094zm6.6523 17.195c-1.0194 0.43398-2.1454 1.1933-2.521 1.7366-3.0043 3.9588 3.8084 8.2986 8.7438 5.641 5.311-2.9289 5.4715-2.9833 7.9925-2.1155 2.1464 0.70544 2.253 0.70544 1.8245-0.16349-0.85893-1.6267-2.1992-2.3866-7.4036-4.1766-5.9538-2.0066-6.169-2.0066-8.6362-0.92243zm-20.492 1.3021c-2.4682 1.6812-5.0968 2.0611-7.0279 1.031-1.5016-0.81444-1.6631-0.32498-0.42851 1.3012 0.64367 0.81444 2.0916 1.6822 3.379 2.0076 1.2336 0.32598 3.3799 1.0845 4.775 1.6267 3.2185 1.3566 6.1152 1.3566 8.3143 0 4.4521-2.7121 1.6631-7.5942-4.2917-7.5942-1.7159 0-3.0043 0.43397-4.7202 1.6277zm13.904 5.5367c-0.268 0.59093-0.536 2.2038-0.536 3.6547-0.1076 9.6198-3.915 18.703-11.101 26.549-1.555 1.6656-2.8421 3.1704-2.8421 3.3861 0 0.53694 8.0441 0.37595 9.117-0.21598 0.9653-0.48295 1.0719-0.32297 1.3937 1.5587 0.4293 2.5802 1.8778 5.0516 3.647 6.2339 1.1267 0.75292 1.555 0.80691 2.7893 0.16198 2.1448-1.0215 3.5394-3.2242 3.8074-6.0192 0.268-2.0959 0.4821-2.4723 1.1795-2.0959 0.4832 0.21497 2.8959 0.48294 5.3634 0.59093l4.5047 0.21498-2.36-2.7949c-4.4509-5.2663-5.8994-7.2544-7.6686-10.748-2.4675-4.783-3.4866-8.5445-3.915-14.241-0.1614-2.6871-0.537-5.3742-0.7511-6.0731-0.536-1.4508-1.8768-1.5587-2.6279-0.16198zm-183.34-23.665c-0.69751 0.86792-1.5016 2.4955-1.6631 3.5265-0.21424 1.0845-0.85794 2.9833-1.395 4.231-1.394 3.1456-1.3402 5.8033 0.16142 8.082 1.8773 2.8744 5.043 2.821 6.5446-0.0505 1.395-2.6577 1.0194-6.4009-0.85794-9.2208-1.6631-2.441-1.8783-4.6654-0.80512-7.2152 0.69751-1.4645-0.53608-1.0845-1.9849 0.65094zm6.6523 17.195c-1.0194 0.43397-2.1463 1.1943-2.522 1.7366-3.0033 3.9599 3.8094 8.2986 8.7448 5.641 5.3101-2.9289 5.4715-2.9833 7.9925-2.1155 2.1463 0.70544 2.253 0.70544 1.8245-0.16248-0.85894-1.6277-2.2002-2.3865-7.4036-4.1776-5.9548-2.0066-6.169-2.0066-8.6362-0.92243zm-20.492 1.3021c-2.4682 1.6822-5.0968 2.0611-7.0279 1.0311-1.5016-0.81444-1.6631-0.32599-0.42946 1.3011 0.6437 0.81444 2.0925 1.6822 3.3799 2.0076 1.2336 0.32598 3.3799 1.0845 4.774 1.6267 3.2195 1.3566 6.1162 1.3566 8.3153 0 4.4521-2.7121 1.6631-7.5932-4.2917-7.5932-1.7169 0-3.0043 0.43296-4.7202 1.6267zm13.953 5.5343c-0.26797 0.59093-0.53594 2.2028-0.53594 3.6537-0.10759 9.6199-3.915 18.703-11.101 26.549-1.556 1.6666-2.8431 3.1714-2.8431 3.3861 0 0.53694 8.0451 0.37595 9.117-0.21498 0.9653-0.48395 1.0729-0.32297 1.3946 1.5576 0.42935 2.5802 1.8768 5.0526 3.647 6.2349 1.1257 0.75192 1.555 0.80591 2.7883 0.16098 2.1458-1.0215 3.5394-3.2242 3.8084-6.0192 0.26797-2.0959 0.48215-2.4723 1.1795-2.0959 0.48315 0.21497 2.8959 0.48294 5.3634 0.59093l4.5047 0.21498-2.3599-2.7939c-4.4509-5.2673-5.8994-7.2554-7.6686-10.749-2.4675-4.783-3.4866-8.5445-3.915-14.241-0.16138-2.6871-0.53694-5.3742-0.75112-6.0731-0.53694-1.4508-1.8768-1.5587-2.6279-0.16098zm90.576-24.25c-0.69749 0.86793-1.5026 2.4955-1.6631 3.5265-0.21526 1.0844-0.85893 2.9833-1.395 4.231-1.395 3.1456-1.3412 5.8033 0.16144 8.082 1.8773 2.8744 5.042 2.821 6.5446-0.0505 1.394-2.6577 1.0184-6.4009-0.85893-9.221-1.6631-2.441-1.8773-4.6653-0.80411-7.2152 0.69748-1.4644-0.53705-1.0844-1.9849 0.65095zm6.6512 17.195c-1.0194 0.43397-2.1453 1.1943-2.521 1.7365-3.0043 3.9599 3.8084 8.2987 8.7438 5.641 5.3111-2.9289 5.4725-2.9833 7.9935-2.1155 2.1454 0.70545 2.253 0.70545 1.8235-0.16249-0.85793-1.6277-2.1992-2.3866-7.4026-4.1776-5.9547-2.0066-6.169-2.0066-8.6372-0.92243zm-20.492 1.3021c-2.4672 1.6822-5.0958 2.0611-7.0269 1.0311-1.5026-0.81444-1.6631-0.32598-0.42942 1.3011 0.64367 0.81444 2.0925 1.6821 3.38 2.0076 1.2336 0.32598 3.379 1.0845 4.774 1.6267 3.2185 1.3566 6.1152 1.3566 8.3153 0 4.4521-2.7121 1.662-7.5932-4.2917-7.5932-1.7169 0-3.0043 0.43296-4.7212 1.6267zm13.93 5.5363c-0.269 0.59094-0.537 2.2028-0.537 3.6537-0.1076 9.6199-3.915 18.703-11.101 26.549-1.555 1.6666-2.8421 3.1714-2.8421 3.3861 0 0.53694 8.0441 0.37596 9.117-0.21498 0.9653-0.48394 1.0729-0.32196 1.3946 1.5577 0.4284 2.5802 1.8768 5.0526 3.647 6.2349 1.1257 0.75191 1.555 0.80591 2.7883 0.16098 2.1448-1.0215 3.5394-3.2244 3.8074-6.0192 0.268-2.0959 0.4832-2.4723 1.1805-2.0959 0.4821 0.21498 2.8959 0.48295 5.3624 0.59094l4.5047 0.21497-2.359-2.794c-4.4519-5.2672-5.8994-7.2553-7.6696-10.749-2.4665-4.783-3.4856-8.5446-3.915-14.241-0.1604-2.6871-0.5359-5.3742-0.7511-6.0731-0.536-1.4508-1.8768-1.5587-2.6269-0.16098zm92.206-178.38c-0.69749 0.86793-1.5016 2.4954-1.6631 3.5255-0.21426 1.0854-0.85793 2.9833-1.395 4.231-1.394 3.1466-1.3402 5.8042 0.16144 8.083 1.8773 2.8745 5.043 2.8201 6.5447-0.0505 1.395-2.6587 1.0194-6.4009-0.85793-9.2219-1.6631-2.441-1.8783-4.6643-0.80511-7.2142 0.69748-1.4645-0.53605-1.0855-1.9849 0.65095zm6.6523 17.195c-1.0194 0.43397-2.1463 1.1933-2.522 1.7356-3.0033 3.9599 3.8094 8.2997 8.7448 5.642 5.3101-2.9298 5.4715-2.9832 7.9925-2.1154 2.1464 0.70444 2.253 0.70444 1.8245-0.16349-0.85893-1.6267-2.2002-2.3866-7.4036-4.1766-5.9538-2.0066-6.169-2.0066-8.6362-0.92242zm-20.492 1.3022c-2.4682 1.6811-5.0968 2.061-7.0279 1.03-1.5017-0.81343-1.6631-0.32597-0.42952 1.3022 0.64367 0.81343 2.0925 1.6821 3.3799 2.0066 1.2336 0.32496 3.38 1.0854 4.774 1.6277 3.2195 1.3566 6.1162 1.3566 8.3154 0 4.4521-2.7122 1.6631-7.5942-4.2917-7.5942-1.7169 0-3.0043 0.43396-4.7202 1.6277zm12.928 5.912c-0.26807 0.59645-0.53614 2.2244-0.53614 3.6888-0.10763 9.7097-3.916 18.877-11.104 26.797-1.5564 1.6811-2.8438 3.1999-2.8438 3.4166 0 0.54296 8.0473 0.37947 9.1194-0.21699 0.96556-0.48745 1.0732-0.32597 1.395 1.5733 0.42942 2.6033 1.8773 5.0987 3.648 6.292 1.126 0.75994 1.5554 0.81344 2.789 0.1635 2.1464-1.031 3.5414-3.2554 3.8094-6.0753 0.26807-2.1155 0.48223-2.4955 1.1798-2.1155 0.48323 0.21697 2.8967 0.48744 5.3649 0.59644l4.5059 0.21699-2.3606-2.821c-4.4521-5.3155-5.901-7.3231-7.6706-10.849-2.4682-4.8276-3.4876-8.6242-3.916-14.375-0.16144-2.7121-0.53704-5.4242-0.7513-6.1288-0.53614-1.4644-1.8773-1.5733-2.6286-0.16349zm-182.36-24.04c-0.69752 0.86793-1.5026 2.4954-1.6631 3.5255-0.21424 1.0854-0.85794 2.9843-1.395 4.231-1.394 3.1466-1.3412 5.8042 0.16142 8.083 1.8773 2.8745 5.042 2.8201 6.5446-0.0505 1.394-2.6577 1.0194-6.4009-0.85894-9.2219-1.6631-2.441-1.8773-4.6643-0.80413-7.2142 0.69751-1.4645-0.53708-1.0845-1.9849 0.65095zm6.6523 17.195c-1.0194 0.43498-2.1463 1.1933-2.522 1.7366-3.0043 3.9589 3.8094 8.2987 8.7438 5.6409 5.311-2.9288 5.4725-2.9832 7.9935-2.1154 2.1453 0.70545 2.253 0.70545 1.8235-0.16349-0.85794-1.6265-2.1992-2.3864-7.4026-4.1764-5.9548-2.0066-6.169-2.0066-8.6362-0.92223zm-20.493 1.3022c-2.4672 1.6811-5.0958 2.061-7.0269 1.031-1.5026-0.81444-1.6631-0.32597-0.42946 1.3012 0.6437 0.81444 2.0925 1.6821 3.3799 2.0076 1.2336 0.32496 3.3789 1.0844 4.774 1.6267 3.2185 1.3566 6.1152 1.3566 8.3153 0 4.4521-2.7122 1.6631-7.5942-4.2917-7.5942-1.7169 0-3.0043 0.43396-4.7212 1.6277zm12.929 5.912c-0.26804 0.59645-0.53708 2.2244-0.53708 3.6888-0.10662 9.7097-3.916 18.877-11.104 26.797-1.5554 1.6811-2.8429 3.1999-2.8429 3.4176 0 0.54195 8.0463 0.37946 9.1195-0.218 0.96556-0.48745 1.0732-0.32597 1.395 1.5733 0.42946 2.6043 1.8773 5.0987 3.648 6.292 1.126 0.75995 1.5554 0.81444 2.789 0.1635 2.1463-1.031 3.5404-3.2543 3.8084-6.0753 0.26904-2.1155 0.48328-2.4955 1.1808-2.1155 0.48228 0.21697 2.8967 0.48744 5.3639 0.59644l4.5069 0.21699-2.3606-2.821c-4.4531-5.3155-5.9009-7.3221-7.6716-10.849-2.4672-4.8277-3.4866-8.6243-3.916-14.374-0.16043-2.7121-0.53608-5.4242-0.75032-6.1298-0.53708-1.4644-1.8783-1.5733-2.6286-0.16349zm91.601-24.628c-0.69749 0.86793-1.5026 2.4954-1.6631 3.5254-0.21525 1.0855-0.85892 2.9843-1.395 4.2311-1.395 3.1465-1.3412 5.8042 0.16045 8.083 1.8783 2.8745 5.043 2.8201 6.5446-0.0505 1.395-2.6577 1.0194-6.4009-0.85793-9.2219-1.6631-2.441-1.8773-4.6643-0.80511-7.2142 0.69748-1.4645-0.53605-1.0845-1.9839 0.65094zm6.6513 17.195c-1.0194 0.43396-2.1453 1.1933-2.521 1.7366-3.0043 3.9589 3.8084 8.2987 8.7438 5.6409 5.3111-2.9288 5.4715-2.9832 7.9935-2.1154 2.1454 0.70545 2.253 0.70545 1.8235-0.16349-0.85793-1.6267-2.1991-2.3866-7.4026-4.1766-5.9547-2.0066-6.169-2.0066-8.6372-0.92243zm-20.492 1.3022c-2.4682 1.681-5.0958 2.061-7.0279 1.031-1.5016-0.81444-1.662-0.32597-0.42851 1.3011 0.64367 0.81444 2.0915 1.6822 3.379 2.0077 1.2346 0.32498 3.3799 1.0844 4.7749 1.6267 3.2185 1.3566 6.1152 1.3566 8.3143 0 4.4531-2.7122 1.6631-7.5942-4.2917-7.5942-1.7159 0-3.0033 0.43397-4.7202 1.6277zm12.928 5.9121c-0.26807 0.59646-0.53614 2.2243-0.53614 3.6887-0.10763 9.7097-3.916 18.877-11.104 26.797-1.5554 1.6811-2.8428 3.1999-2.8428 3.4176 0 0.54195 8.0463 0.37947 9.1194-0.218 0.96556-0.48744 1.0722-0.32597 1.394 1.5733 0.42951 2.6043 1.8783 5.0987 3.648 6.292 1.127 0.75993 1.5564 0.81444 2.79 0.16349 2.1454-1.031 3.5404-3.2543 3.8084-6.0753 0.26807-2.1155 0.48323-2.4955 1.1798-2.1155 0.48323 0.21699 2.8977 0.48746 5.3649 0.59646l4.5059 0.21698-2.3606-2.82c-4.4521-5.3165-5.9-7.3231-7.6706-10.85-2.4672-4.8276-3.4866-8.6242-3.916-14.374-0.16145-2.7121-0.53605-5.4243-0.7513-6.1298-0.53605-1.4644-1.8773-1.5733-2.6286-0.16349zm-133.7 75.733c-0.26804 0.59644-0.53609 2.2233-0.53609 3.6888-0.053804 4.8538-1.4319 10.381-3.2962 14.876l-0.13651 16.693c0.42847 2.6043 1.8773 5.0998 3.647 6.2931 1.127 0.75893 1.5564 0.81343 2.79 0.16248 2.1453-1.031 3.5404-3.2544 3.8084-6.0754 0.26804-2.1154 0.48328-2.4954 1.1808-2.1154 0.48228 0.21699 2.8967 0.48746 5.3639 0.59646l4.5059 0.21699-2.3596-2.82c-4.4531-5.3165-5.9009-7.3231-7.6716-10.849-2.4672-4.8286-3.4866-8.6252-3.916-14.375-0.16043-2.7122-0.53609-5.4244-0.75132-6.1298-0.53609-1.4644-1.8773-1.5733-2.6286-0.16248z"/>
  <g transform="matrix(.9955 0 0 .99382 .87233 -1.284)">
    <rect x="-.87628" y="1.2918" width="287.48" height="234.78" ry="0" fill="#c00"/>
    <path d="m286.6 31.814v-30.522h-35.158l-252.32 204.26v30.522h35.158z" fill="#08672f"/>
    <path d="m-0.87628 31.814v-30.522h35.158l252.32 204.26-2e-5 30.522-35.861-3e-5z" fill="#08672f"/>
    <path d="m-0.87628 95.456 287.44-0.25095 0.036144 46.706-287.44 0.25095z" fill="#fff"/>
    <path d="m119.25-1.0261 46.627-0.029946 0.25042 239.45-46.627 0.029946z" fill="#fff"/>
  </g>
  <path d="m0 700h286.18v-233.33h-286.18z" fill="#c00"/>
  <g id="k">
    <g fill="none" stroke="#650000">
      <path transform="matrix(.99936 0 0 1.004 -2.7532 -4.8775)" d="m150.87 666.4c-0.837 1.353 1.459 7.356 5.01 7.204-2.316-3.712-2.072-8.03-2.072-8.03zm-8.815-6.5c-1.28 0.189-4.369 8.081 0.556 10.896 0.157-4.899 2.476-7.807 2.476-7.807l-2.546-2.192z" fill="#2b5df2"/>
      <path transform="matrix(.99936 0 0 1.004 -2.7532 -4.8775)" d="m141.45 655.19c-1.244-1.307-6.621 2.491-6.4 8.157 3.305-3.778 7.217-3.483 7.217-3.483zm6.218-4.58c-0.088-1.777-4.765-3.831-7.22-0.278 3.531 0.402 5.543 3.718 5.543 3.718zm94.322 16.528c-0.086 1.628 0.331 2.195 1.13 3.109 0.8 0.914 1.706 3.63 1.706 3.63s2.562-7.154 1.92-8.114c-0.641-0.96-4.598 1.329-4.756 1.375zm-13.552-2.961c-1.275-0.245-3.687 5.669-1.68 9.726 1.009-4.701 3.767-6.747 3.767-6.747zm-6.218-1.779c-0.993-1.133-5.286 2.157-5.11 7.068 2.638-3.273 5.761-3.017 5.761-3.017zm3.258-7.593c-0.684-1.51-5.507-0.266-6.461 4.471 3.25-1.952 6.154-0.343 6.154-0.343zm-160.31-3.318c0.464-1.662-3.145-6.263-6.457-4.483 3.076 2.433 3.885 6.616 3.885 6.616zm-13.829 10.384c-1.204-1.5-6.257 2.768-5.955 9.219 3.081-4.267 6.806-3.893 6.806-3.893zm0.44-9.127c-0.518-2.124-6.433-1.834-8.455 3.993 4.197-1.627 7.311 1.228 7.311 1.228zm6.025 17.233c-0.324 1.569 0 2.242 0.648 3.363s1.134 4.036 1.134 4.036 3.563-6.278 3.077-7.399c-0.485-1.121-4.697 0-4.859 0zm-14.679-72.195c0-2.242-5.671-4.586-8.933 0.039 4.352 0.317 6.642 4.401 6.642 4.401zm-5.886 8.93c-1.204-1.5-6.256 2.768-5.955 9.219 3.082-4.267 6.807-3.893 6.807-3.893zm20.584-9.7c0.548-2.11-4.216-6.971-8.416-4.146 4.018 2.336 5.176 7.251 5.176 7.251zm6.726 7.704c0.945-1.209-0.832-7.541-4.371-7.961 1.988 4.06 1.383 8.309 1.383 8.309z" fill="#2b5df2"/>
      <path transform="matrix(.99936 0 0 1.004 -2.7532 -4.8775)" d="M83.455 612.149c-3.56-4.143-.042-11.699 3.15-8.476-1.672-3.092 1.062-5.54 2.302-3.991-.577-2.517 2.045-4.185 3.331-1.862-.462-2.807 3.426-4.45 4.434-1.382.068-2.759 3.868-4.937 4.707-.897.74-3.11 4.976-3.517 5.327.901 1.236-2.57 4.412-2.382 4.597 1.352 1.373-1.756 4.921.872 4.317 3.979 2.191-.475 4.869 3.962 2.198 7.233 4.738-2.528 5.858 5.667 2.978 9.388 1.49.909 1.621.106 2.935.788s3.697 1.805 5.877 2.289c1.971 0 9.198-.227 10.676-.455 1.478-.227 3.499-.999 5.913-1.819 2.529-.819 6.185-.85 9.522-1.66 2.644-.297 76.871 1.205 79.006.978 2.136-.227 5.252-2.28 5.088-4.781-.165-2.501-2.624-4.314-5.088-4.541-2.463-.227-15.11-.227-17.41.227-2.299.455-5.584 1.592-7.226 3.184-.79.508-2.094 2.433-3.2 3.698-1.035.873-3.957 1.002-3.957-.135 0-.744-.245.142-.963.431-.932.583-5.136.743-4.95 0 .329-.842-.022-1.107-1.127-.228-.822.682-6.631.934-7.698.258.64-1.069.645-1.008-1.101-.129-1.105.486-5.682.866-6.011-.068-.044-.736-.562-.375-1.208-.166-5.187 1.357-5.685-.214-4.864-.896.822-.682 2.065-4.584.751-4.357-1.314.227-9.526 1.819-12.318 2.274-2.792.454-22.995 0-25.787-.228-2.792-.227-5.912-2.855-6.077-6.593-.292-5.997 4.599-7.504 7.555-8.413 2.957-.91 10.348-2.274 13.304-2.274 2.957 0 11.389 1.046 13.689.137 2.299-.91 9.282-3.45 11.256-3.638 2.911-.271 11.25.715 15.224 5.494-2.069.94-3.042 1.493-.694.645 2.136-.455 11.301-2.365 13.436-2.865 7.391-.319 5.453.819 1.839 1.728-1.206 3.844-12.067 9.21-15.516 9.893-3.449.682-10.769.182-12.405-.116-1.643-.124-9.414-.512-12.244-2.345-4.571-3.101-13.017-5.139-16.72-5.068-3.464.07-13.346 1.108-13.304 4.548-.051 6.041 9.198 6.366 13.14 6.139 3.942-.228 13.797-.682 16.589-1.819 2.792-1.137 8.831-1.416 12.116-1.416s8.086.734 9.564.506c1.478-.227 4.928-.279 6.57-1.416 1.642-1.137 5.214-2.325 8.827-2.325 3.613 0 30.428-1.033 34.041-.806 5.231-.036 8.926 5.681 8.989 10.543.03 2.274-1.083 5.634-2.029 6.154 1.623.15 5.684.608 7.024.887 2.516.499 6.594 3.272 7.062 5.798-1.911-1.16-4.995-2.913-7.775-3.105-.544.006-59.076-.098-63.676-.07 12.507 1.479 22.066 11.112 24.454 16.627 2.135 3.41 7.391 2.046 9.362 1.591 1.971-.454 4.271-2.501 5.913-4.092 1.643-1.592 4.211-1.996 5.37-1.592 2.553-.227 3.007 2.501 2.021 3.866-.985 1.364.164.803 2.792.803 2.627 0 4.944.979 6.494 3.044-1.478 1.364-2.223.245-.088.473 2.135.227 4.713 4.143 3.121 5.248-1.392.69-1.807.436 0 .663 2.693.228 3.427 1.972 3.777 5.072-2.28.418-1.149-.297 0 .84 1.15 1.137 2.825 6.171-1.314 6.366-1.478-.682-1.451-.814-1.136.733.292 1.592-.506 5.406-2.806 5.406-3.186.614-6.077-1.137-6.405-3.183-.329-2.046-.286 3.949-4.802 4.895-4.265.949-6.531-1.484-6.86-2.621-.328-1.137-.164-.228-1.806-.455-1.643-.227-3.712-.248-4.599-2.956 0-1.591.32-3.689 3.246-3.972 1.314-.228 1.681-1.939.696-2.167-.986-.227-.165-3.638 1.971-2.728 2.135.909 7.062 1.137 8.212 2.273 1.15 1.137 1.478-.909-.329-2.728-1.806-1.819-12.811-5.457-15.767-4.093-6.884 3.469-18.396 2.956-20.367 2.501-1.971-.454-7.663.786-10.347-7.503-2.177-8.464-10.451-12.647-14.228-13.102-18.636-1.754-17.623-.405-5.538.168-.09 1.58-.528 4.815 1.431 5.289 3.285-.454 10.123-1.904 11.765-.54 1.643 1.364 3.285 2.501 2.957 5.684-.329 3.183.164 2.274-1.314 3.638-1.479 1.364-.822 4.093 1.478 5.002 2.299.91 3.285 2.047 4.763 3.411 1.478 1.364-.657 4.092-1.971 3.183-1.314-.91-1.314-.91-1.478.909-.165 1.819-1.797 5.262-4.573 5.514-.583-.22-.421-1.161-.355-1.876.165-1.591-.555 1.977-1.413 2.967-.547.668-5.197 1.976-6.51 1.294.586-1.424.247-.843-.903-.161-1.122.448-7.175 1.289-4.478-1.599.701-1.052-.962 1.315-1.878 1.727-.771.48-4.363.775-4.363-.59-1.14 1.003-3.854 1.003-4.27.228-.821-.91-.899.682-2.377.909-1.478.228-4.686-.227-4.85-2.046-.164-1.819.328-.682-1.478-.455-4.399 2.918-6.57-1.137-6.57-2.501 0-1.364-.164-2.956.328-3.865.493-.91-3.06-1.184-1.971-2.975 1.225-2.189 2.511-3.795 4.928-3.392 1.15.228.985-.454.493-1.364-.493-.909 1.314-1.364 3.449-.455 2.135.91 3.613 3.184 4.27 5.23.657 2.046 5.749.455 7.884.682 2.135.227 2.299-3.411.985-4.547-1.314-1.137-4.927-5.23-6.405-6.594-1.478-1.364-.493-6.139.821-7.276 7.649-5.171 3.449-6.821.657-6.366-2.792.454-9.967 3.326-12.267 5.827-2.299 2.501-20.164 14.759-21.807 16.124-1.642 1.364-4.031 1.695-5.016.104-.986-1.592-1.643-.455-1.479 1.818 1.305 8.588-6.406 11.325-7.758 11.217-.941-.098-2.289-.621-3.26-1.43-.959 4.799-5.197 5.277-9.027 4.803-.058-.567.715-1.625.293-1.22-1.266 1.649-5.156 1.476-8.496 1.225-.222-1.003 1.152-2.219.495-1.537-1.121 2.11-3.049 1.732-6.173 1.508-.036-.445 1.448-1.932.756-1.042-1.368 1.495-4.215 1.027-6.426 1.064-.262-.335 1.143-2.685-.142-1.132-1.228 1.326-3.829 1.547-6.315 1.191-.442-1.117.517-1.129.781-1.83.657-1.137-.328 0-1.149 0-.822 0-1.971.227-2.464-.91-.493-1.136-.21 1.137-.687 1.757-.477.536-1.015 1.798-2.658 2.252-1.642.455-5.913.91-6.57-1.136-.885-.942-1.314-2.956-.657-4.093s-3.127 2.193-4.763 2.501c-4.81.929-5.42-6.594-3.285-7.276 2.136-.682 1.807-1.819.657-2.728-1.149-.91-1.806-4.548-.328-5.685 1.478-1.136 4.899-1.767 7.062-.454 1.266.869 3.976 3.851 3.45 1.591-.366-1.396.57-3.173 1.619-3.936.91-.839 3.711-1.052 4.458.753 1.731 4.184 2.956 5.986 5.091 5.912 4.549-1.244 10.696-2.652 12.503-2.652 2.318-.551 14.591-1.755 14.591-2.892-7.361 2.548-10.336-.75-11.158-.522-.821.227-2.843-.739-2.843-1.373 0-1.364 1.854-1.201-.774-.747-1.574-.129-2.975-.202-4.299-1.844-.217-.839 1.74-3.723 2.45-6.147-1.696-.459-5.446 2.595-6.675 5.287-.861-1.033-1.21-.094-4.287.658-1.452.633-3.814.406-5.128-.276-1.313-.683-6.461-4.584-3.971-5.086-.656-.321-1.409-.505-1.905-.642-1.807-.771-3.515-2.271-2.99-2.682-.457-.683.524-.681-.2-.818-.985-.227-3.412-1.997-2.789-2.681-.622-.411-2.099-1.045-2.725-1.364-1.15-.682-2.301-3.049-2.466-4.186-1.059.102-3.32-1.903-2.299-2.501-1.726-1.282-3.195-3.392-2.045-4.074-1.008-.794-1.711-2.244-1.01-1.701-1.047-1.282-.723-2.638.099-2.638.821 0 .492-3.637-.986-3.637s-3.855 1.147-5.584 0c-1.422-1.088-2.628-5.912-1.314-7.958 1.314-2.047 3.942-4.321 5.256-4.093 1.314.227.657.682.328-1.364-.328-2.047 1.855-3.584 3.285-4.093 1.734-.793 5.092-.227 6.077.682.986.91 1.314.91 1.314-.682 0-1.118 1.269-1.701 2.398-1.994 1.88-.444 3.351.09 4.008.857 1.02 1.463 1.642 3.183.328 4.548-1.314 1.364-.174.207 1.962-.247 1.375-.455 3.856.131 4.279 1.611.57 1.591.986 4.32-.492 5.684-1.478 1.364-3.614 4.775-2.464 5.912 1.15 1.137 4.763 6.139 5.584 6.821.822.682 1.807 2.273 3.121 2.046 1.314-.227 2.792-.455 3.942-.682 4.563-.918 6.62-1.395.763-1.208 1.315-1.858 4.069-2.406 5.264-2.733-1.053-1.583 2.842-4.926 2.842-5.381z" fill="#ffcf00"/>
      <path transform="matrix(.99936 0 0 1.004 -2.7532 -4.8775)" d="m83.464 630.6c-3.148-0.496-11.112 6.404-8.543 14.985" stroke-width="1.081"/>
      <path transform="matrix(.99936 0 0 1.004 -2.7532 -4.8775)" d="m83.943 622.91c-4.251 26.888 21.825 16.473 22.004 7.416" stroke="url(#f)" stroke-width="1.067"/>
      <path transform="matrix(.99936 0 0 1.004 -2.7532 -4.8775)" d="m104.45 634.21c0.348 3.532 0.553 13.4-3.097 15.923s-8.22 2.821-11.787 1.611" stroke-width=".992"/>
      <path transform="matrix(.99936 0 0 1.004 -2.7532 -4.8775)" d="M96.373 639.675c-.359 3.473-3.841 12.12-10.626 10.933M41.506 602.483c3.548.351 5.322 3.157 6.082 5.613.76 2.455 1.267 3.858 1.267 3.858M44.529 622.459c1.52.701 4.308 0 4.308 0"/>
      <path transform="matrix(.99936 0 0 1.004 -2.7532 -4.8775)" d="M46.009 626.242c3.357 1.052 6.713-.702 6.713-.702" stroke-width=".909"/>
      <path transform="matrix(.99936 0 0 1.004 -2.7532 -4.8775)" d="m53.507 634.53c9.169 0 13.064-12.936 13.064-12.936" stroke="url(#g)" stroke-opacity=".261" stroke-width="1.017"/>
      <path transform="matrix(.99936 0 0 1.004 -2.7532 -4.8775)" d="m72.167 628.44c-2.534 6.665-2.28 6.665-5.574 8.068l-3.295 1.404" stroke-opacity=".089" stroke-width="1.232"/>
      <path transform="matrix(.99936 0 0 1.004 -2.7532 -4.8775)" d="M61.778 641.42c3.548-1.052 5.828-3.157 5.828-3.157M57.978 600.923c-2.027 2.456-1.774 7.016-1.774 7.016M99.788 601.08c.507 4.56-1.52 7.016-2.788 7.016-1.267 0-2.681 1.702-1.903 4.438M105.08 600.378c-2.281 3.157-2.787 6.665-2.027 9.472.76 2.806.039 3.622.039 3.622"/>
      <path transform="matrix(.99936 0 0 1.004 -2.7532 -4.8775)" d="m77.996 626.34c-4.055 1.088-5.706 8.508-3.546 12.498" stroke-width="1.244"/>
      <path transform="matrix(.99936 0 0 1.004 -2.7532 -4.8775)" d="M115.245 615.813h-2.787s-1.774 3.859-4.815 2.806c-3.041-1.052-.253 0-.253 0M100.295 612.595c4.338.113 3.466 3.569.253 3.218.254 4.209-4.795 3.679-4.363.454-3.036.092-4.282-4.167.128-3.577M202.985 615.817c.893-2.721 5.003-5.195 5.003-5.195M197.012 615.675c1.787-3.215 5.003-5.194 5.003-5.194M188.29 615.975c2.715-1.636 3.477-2.282 4.369-3.125.962-.942 2.859-2.721 2.859-2.721"/>
      <path transform="matrix(.99936 0 0 1.004 -2.7532 -4.8775)" d="m180.72 615.87c1.989-1.039 3.528-1.649 4.859-2.635 1.672-1.173 2.827-2.759 2.827-2.759" stroke-width=".951"/>
      <path transform="matrix(.99936 0 0 1.004 -2.7532 -4.8775)" d="m182.35 607.28c-6.318-2.15-9.143-6.42-9.143-6.42m19.659-2.683c-4.183 1.745-12.687 0.99-13.044 0.99m-62.644 54.19c1.251-4.443 3.596-5.443 6.53-6.896 3.038-1.237 7.662-4.978 4.803-2.257s-6.984 4.453-8.413 5.442c-1.43 0.99-2.323 3.195-1.594 4.205"/>
      <path transform="matrix(.99936 0 0 1.004 -2.7532 -4.8775)" d="m111.17 636.54c2.68 4.452 1.024 10.649-2.371 12.381" stroke-linecap="round"/>
      <path transform="matrix(.99936 0 0 1.004 -2.7532 -4.8775)" d="m120.11 621.2c4.351 1.807 4.506 6.06 5.133 8.573-1.534-0.709-2.648-0.369-3.799-0.892"/>
      <path transform="matrix(.99936 0 0 1.004 -2.7532 -4.8775)" d="M118.393 623.652c2.955 4.043 4.081 6.516 4.252 7.925.278 2.446.293 8.478-6.693 8.38.651-1.797 1.473-6.542.355-8.447" stroke-width=".913"/>
      <path transform="matrix(.99936 0 0 1.004 -2.7532 -4.8775)" d="m116.75 635.84c0 3.958-2.734 5.582-3.985 6.077m-6.597-23.685c0.178 4.7-8.399 8.163-8.22 0.989"/>
      <path transform="matrix(.99936 0 0 1.004 -2.7532 -4.8775)" d="M97.926 619.473c-.181 3.463-4.901 4.205-6.534 1.236-1.271-1.979-1.997-2.968-2.905-3.215-.907-.248-.805-3.128-.989-3.551-.11-.577-.698-2.064-.992-2.623" stroke-width="1.007"/>
      <path transform="matrix(.99936 0 0 1.004 -2.7532 -4.8775)" d="M91.11 620.473c2.192 3.827 7.418 1.531 8.767 3.061 1.349 1.531-1.31 6.863-2.153 9.924-1.948 2.636-6.286 2.465-7.882.507.859-3.656.931-11.451 1.099-11.706z" fill="url(#h)" stroke-width="1.052"/>
      <path transform="matrix(.99936 0 0 1.004 -2.7532 -4.8775)" d="m51.799 598.13c0.358 2.226-0.178 2.721-0.714 4.7s0.178 5.442 0.178 5.442m-0.406 51.947c1.787-0.495 5.539 0 5.539 0m1.122 5.847c1.072-1.979 3.573-3.711 3.573-3.711m16.489 6.342c0.894-1.236 0.894-5.194 0.894-5.194m5.625 5.165c1.422-1.623 1.5-5.106 1.5-5.106m3.682 5.017c1.429-2.721 1.196-5.865 1.196-5.865m6.922 6.163c0.894-1.485 0.894-4.948 0.894-4.948m57.017-2.9c-3.216-0.742-5.182 3.711-5.182 3.711m9.406-4.432c-0.357 3.216-2.859 6.184-2.859 6.184m7.927-6.452c-0.179 2.721-3.038 6.431-3.038 6.431m9.344-7.518c-0.471 3.62-3.044 6.332-3.044 6.332m7.688-7.608c0.178 3.216-1.43 8.163-2.502 9.152m8.041-7.779c0.536 1.732 0 4.205 0 4.205m-34.943-10.952c2.144 0.495 3.395 2.968 3.395 2.968m-7.056 3.242c1.127-3.895 5.982-1.992 6.569-0.947m85.13-16.996c-1.787-0.247-4.467 0.742-4.467 0.742m12.777 2.67c-2.502 0.99-5.361 1.237-5.361 1.237m8.575 4.468c-2.144-0.247-3.753-0.247-3.753-0.247m7.92 5.621c-2.144-0.248-5.539 0-5.539 0m3.891 6.958c-0.715-1.979-2.859-2.474-2.859-2.474m-18.204 7.079c0.536-2.969 4.087-5.348 6.053-5.348h1.966m-10.968-1.215c2.144-0.742 5.539-0.99 5.539-0.99m-144.54-10.686c2.144-1.732 3.831-5.298 3.831-5.298m22.31-37.963c-2.144 2.227-2.322 2.474-2.322 2.474m4.467 1.732c-2.859 0.247-3.014 0.119-3.014 0.119"/>
      <path transform="matrix(.99936 0 0 1.004 -2.7532 -4.8775)" d="M103.318 607.662c2.114-.776 7.033-.123 6.962 1.679.003 2.214-1.923 2.349-7.005.255l.043-1.626z" stroke-width="1.132"/>
      <path transform="matrix(.99936 0 0 1.004 -2.7532 -4.8775)" d="M96.654 607.892c.263-2.63-4.872-5.223-6.123-3.757-1.523 2.425 2.799 4.586 3.945 4.586 1.072 0 .437.138.437.138" stroke-width=".92"/>
      <path transform="matrix(.99936 0 0 1.004 -2.7532 -4.8775)" d="m111.9 627.6c1.62 3.14 2.097 8.469 0.266 11.055" stroke-opacity=".3"/>
      <path transform="matrix(.99936 0 0 1.004 -2.7532 -4.8775)" d="M110.602 617.737c-1.944 5.381-.324 10.314-.324 10.314M87.601 619.082c-1.619 1.345-2.915.897-2.915.897"/>
      <path transform="matrix(.99936 0 0 1.004 -2.7532 -4.8775)" d="m106.07 634.78c1.62 0.897 3.888 6.278 3.564 8.072l-0.324 1.794m-3.887-7.624c0.971 2.691 2.267 6.727 1.943 8.072l-0.324 1.345m-7.451-6.726c0.648 2.69 0.324 7.175-0.647 8.072l-0.972 0.897m0-8.521c-0.972 3.139-1.944 7.624-1.944 7.624" stroke-opacity=".3"/>
      <path transform="matrix(.99936 0 0 1.004 -2.7532 -4.8775)" d="m83.714 620.88c-1.944 2.691-4.535 5.381-4.535 5.381" stroke-linecap="round" stroke-opacity=".102" stroke-width="2.161"/>
      <path transform="matrix(.99936 0 0 1.004 -2.7532 -4.8775)" d="m82.418 631.64c-1.619 1.345-3.887 4.484-3.887 4.484m5.831 0c-2.592-1.794-5.507 1.345-5.507 1.345" stroke-opacity=".299"/>
      <path transform="matrix(.99936 0 0 1.004 -2.7532 -4.8775)" d="m68.243 640.92c-0.648 1.794-5.507 3.139-5.507 3.139" stroke-opacity=".095" stroke-width="1.232"/>
      <path transform="matrix(.99936 0 0 1.004 -2.7532 -4.8775)" d="m108.04 608.27-0.324 2.028" stroke-linecap="round" stroke-width="1.94"/>
      <path transform="matrix(.99936 0 0 1.004 -2.7532 -4.8775)" d="m94.711 604.61c-0.381 1.526-1.056 3.094-1.056 3.094" stroke-linecap="round" stroke-width="1.574"/>
    </g>
    <path transform="matrix(.99936 0 0 1.004 -2.7532 -4.8775)" d="m79.487 620.44c-5.967 3.142-6.986 5.919-6.056 12.536" fill="none" stroke="#650000"/>
    <path transform="matrix(.99936 0 0 1.004 -2.7532 -4.8775)" d="m120.03 611.39c-1.709 0.776-1.456 4.827-1.456 4.827" fill="none" stroke="#600" stroke-width="1.197"/>
    <path transform="matrix(.99936 0 0 1.004 -2.7532 -4.8775)" d="m83.695 605.75c1.824 1.288 1.094 5.152 1.094 5.152" fill="none" stroke="#600" stroke-width="1.05"/>
    <path transform="matrix(.99936 0 0 1.004 -2.7532 -4.8775)" d="M71.694 667.956c-.133 3.857-3.762 2.836-5.307 2.847l1.34-2.518c.191-.002.627.245 1.151-.148z" fill="#390000" fill-opacity=".599"/>
    <path transform="matrix(.99936 0 0 1.004 -2.7532 -4.8775)" d="M103.556 634.837c.415 1.852.383 3.086.235 5.094-.474 3.214-.618 3.316-1.93 5.97-.465.741-.236-.051-1.458 2.433l-4.274-2.948c.23.939 0-.685.207-1.004.661-1.283.623-1.489.84-3.071.089-1.439 1.213-3.844 1.86-1.501zM88.413 646.913c.977.282 3.384-.536 4.432-.759 1.676-.567.135-.858 1.503-2.14.38-.445.724-1.993 1.059-2.481l-1.816-.121c-.231 1.558-1.697.294-1.861.491-.661.643-.593.238-1.418.503-.752.145-1.571-.112-.333.351zM182.83 637.323c-.549 3.089-1.313 4.691-2.676 7.156-2.492 3.596-4.814 5.54-8.056 7.148-1.032.304-2.036.499-3.086.609l-.483-10.392c.46-.034.896-.101 1.348-.223 1.603-.738 2.627-1.688 3.831-3.482.956-1.792 1.384-4.418.846-.33z" fill="#390000" fill-opacity=".1"/>
    <path transform="matrix(.99936 0 0 1.004 -2.7532 -4.8775)" d="m57.086 637.57c7.016-1.663 10.924-11.018 10.924-11.018" fill="none" stroke="url(#i)" stroke-opacity=".261" stroke-width="1.405"/>
    <path transform="matrix(.99936 0 0 1.004 -2.7532 -4.8775)" d="M48.897 629.225c7.112.419 12.355-7.585 12.355-7.585" fill="none" stroke="url(#j)" stroke-opacity=".261" stroke-width="1.405"/>
    <path transform="matrix(.99936 0 0 1.004 -2.7532 -4.8775)" d="M218.617 649.933c.117-.322.233-.644.349-.966-.768 2.128-.575 1.145 2.095-.967h5.237c2.173.03 3.266.479 5.237.967 1.204.666 2.312 1.67 3.491 2.416" fill="none" stroke="#700" stroke-opacity=".102" stroke-width="2.556"/>
    <path transform="matrix(.99936 0 0 1.004 -2.7532 -4.8775)" d="M82.041 642.595c-.224 1.066 2.528 2.533 4.139 2.604 1.687-1.048 1.746-1.451 2.909-3.203.299-.585-.059-.191.179-.81l-3.581-3.434c-.452.273-.734.527-.862.785-.555.874-.543 1.371-1.378 1.871-.786.351-.871.155-.273.469l-.605.987zM113.487 642.427c1.003-1.101 1.411-2.066 1.996-3.706.735-2.805.906-5.123.738-8.126-.13-.912-.293-1.779-.497-2.665l-3.919 1.791c.095.385.172.758.233 1.155.104 1.473-.005 2.514-.381 3.882-.433 1.163-1.295 2.068.076.765z" fill="#390000" fill-opacity=".1"/>
    <path transform="matrix(.99936 0 0 1.004 -2.7532 -4.8775)" d="M116.172 624.214c1.286.152 2.005.661 3.133 1.614 1.7 1.84 2.727 3.709 3.721 6.44.233.893.421 1.772.58 2.702l-4.07 1.574c-.064-.408-.138-.792-.236-1.185-.469-1.356-.959-2.17-1.802-3.053-.816-.661-1.905-.756-.224-.723z" fill-opacity=".1"/>
    <path transform="matrix(.99936 0 0 1.004 -2.7532 -4.8775)" d="M109.887 647.746c1.082-1.773 1.972-.741 2.297-2.94.182-3.632-.288-6.422-1.445-9.849-.463-1.003-.959-1.936-1.52-2.872l-4.996 3.991c.252.404.476.802.684 1.237.598 1.669.762 2.939.65 4.719-.257 1.568.034 2.066 1.223 2.562z" fill="#390000" fill-opacity=".1"/>
    <path transform="matrix(.99936 0 0 1.004 -2.7532 -4.8775)" d="M243.377 656.527c2.174.03 3.266.48 5.237.967 1.204.666 2.313 1.67 3.492 2.416M233.144 642.617c2.135-.555 3.271-.408 5.272-.461 1.275.33 2.503 1.017 3.764 1.432" fill="none" stroke="#700" stroke-opacity=".102" stroke-width="2.556"/>
    <path transform="matrix(.99936 0 0 1.004 -2.7532 -4.8775)" d="M199.246 648.442c-1.411.043-2.126-.315-3.412-.679-.79-.544-1.522-1.386-2.297-2" fill="none" stroke="#700" stroke-opacity=".102" stroke-width="1.926"/>
    <path transform="matrix(.99936 0 0 1.004 -2.7532 -4.8775)" d="M212.891 622.211c-7.002-.215-12.234-.332-16.93-.463-4.531-.114-12.034-.351-16.95-.479" fill="none" stroke="#700" stroke-opacity=".102" stroke-width="2.119"/>
    <path transform="matrix(.99936 0 0 1.004 -2.7532 -4.8775)" d="M156.54 628.013c1.296-.773 2.056-.812 3.347-1.143.88.094 1.786.494 2.671.662" fill="none" stroke="#700" stroke-opacity=".102" stroke-width="1.926"/>
    <path transform="matrix(.99936 0 0 1.004 -2.7532 -4.8775)" d="M48.576 618.561c-.58 1.234-1.019 1.751-1.749 2.499-1.211.962-1.82.87-2.976.756-.339-.13-.329-2.84-.647-3.06l.623-1.846c.138.103.273.185.42.246.564.082.99-.079 1.583-.568.52-.553 1.002-1.612.289.069z" fill="#390000" fill-opacity=".1"/>
    <path transform="matrix(.99936 0 0 1.004 -2.7532 -4.8775)" d="m90.752 619.32c-0.201 4.915-2.863 7.536-2.863 7.536" fill="none" stroke="#650000" stroke-width="1.052"/>
    <path transform="matrix(.99936 0 0 1.004 -2.7532 -4.8775)" d="M88.065 617.036c-1.371 5.356.385 9.66.385 9.66" fill="none" stroke="#650000" stroke-width="1.161"/>
    <path transform="matrix(.99936 0 0 1.004 -2.7532 -4.8775)" d="m101.63 623.31c-0.325 4.862 2.033 7.888 2.033 7.888" fill="none" stroke="#650000" stroke-width="1.047"/>
    <path transform="matrix(.99936 0 0 1.004 -2.7532 -4.8775)" d="m104.54 621.52c0.787 5.494-1.412 9.425-1.412 9.425" fill="none" stroke="#650000" stroke-width="1.156"/>
    <path transform="matrix(.99936 0 0 1.004 -2.7532 -4.8775)" d="M85.286 665.351c-.185 3.943-5.24 2.9-7.391 2.911l.604-1.036c.266-.001 2.136-1.288 2.866-1.69z" fill="#390000" fill-opacity=".1"/>
    <path transform="matrix(.99936 0 0 1.004 -2.7532 -4.8775)" d="M90.179 663.566c-.158 5.564-4.469 4.091-6.304 4.107l.516-1.461c.226-.003 1.821-1.819 2.444-2.385zM98.062 663.817c-.216 8.267-6.138 6.079-8.659 6.102l.708-2.171c.311-.004 2.502-2.702 3.357-3.544z" fill="#390000" fill-opacity=".1"/>
    <path transform="matrix(.99936 0 0 1.004 -2.7532 -4.8775)" d="m105.86 663.69c-0.216 8.268-6.139 6.079-8.659 6.103l0.708-2.172c0.311-3e-3 2.502-2.701 3.357-3.543zm-28.211 0c-0.185 8.268-5.24 6.079-7.391 6.103l0.604-2.172c0.266-3e-3 2.136-2.701 2.866-3.543z" fill="#390000" fill-opacity=".1"/>
    <path transform="matrix(.99936 0 0 1.004 -2.7532 -4.8775)" d="M81.433 641.123c-.697 2.097-1.845 3.72-1.663 5.022l-1.075-.488c.843.299-.958-3.391-1.393-2.696l1.008-.735.234-.404.502-.252z" fill="#390000" fill-opacity=".599"/>
    <path transform="matrix(.99936 0 0 1.004 -2.7532 -4.8775)" d="M120.779 618.418c.531.265 1.89.022 4.39 1.07-1.034 1.524-3.701 2.41-4.74 1.964" fill="none" stroke="#650000"/>
    <path transform="matrix(.99936 0 0 1.004 -2.7532 -4.8775)" d="M182.833 653.6c-1.589.406-2.453.238-3.963.213-.977-.331-1.935-.97-2.906-1.374" fill="none" stroke="#700" stroke-opacity=".102" stroke-width="2.066"/>
    <path transform="matrix(.99936 0 0 1.004 -2.7532 -4.8775)" d="M167.219 659.182c2.984.806 4.688.779 7.611 1.052 1.957-.2 3.943-.771 5.904-1.06" fill="none" stroke="#700" stroke-opacity=".102" stroke-width="3.17"/>
    <path transform="matrix(.99936 0 0 1.004 -2.7532 -4.8775)" d="m126.98 651.13c-3.075 1.049-4.516 1.122-5.521 0.194" fill="none" stroke="#650000" stroke-linecap="round"/>
    <path transform="matrix(.99936 0 0 1.004 -2.7532 -4.8775)" d="m130.41 648.55c-2.697 1.049-4.234 1.409-5.573 0.553" fill="none" stroke="#650000" stroke-linecap="round" stroke-width=".965"/>
    <path transform="matrix(.99936 0 0 1.004 -2.7532 -4.8775)" d="m134.97 645.39c-1.794 1.049-2.815 1.409-3.706 0.553" fill="none" stroke="#650000" stroke-linecap="round" stroke-width=".787"/>
    <path transform="matrix(.99936 0 0 1.004 -2.7532 -4.8775)" d="m138.14 642.95c-2.196 1.049-3.446 1.409-4.536 0.553" fill="none" stroke="#650000" stroke-linecap="round" stroke-width=".871"/>
    <path transform="matrix(.99936 0 0 1.004 -2.7532 -4.8775)" d="M51.537 598.131c.357 2.226-.179 2.721-.715 4.7s.179 5.442.179 5.442M58.329 600.923c-2.028 2.456-1.774 7.016-1.774 7.016" fill="none" stroke="#650000"/>
    <path transform="matrix(.99936 0 0 1.004 -2.7532 -4.8775)" d="m41.769 602c3.632 0.351 5.448 3.157 6.227 5.613 0.778 2.455 1.297 3.858 1.297 3.858" fill="none" stroke="#650000" stroke-width="1.011"/>
  </g>
  <use transform="translate(-2.25e-6 -98.986)" width="100%" height="100%" xlink:href="#k"/>
  <path d="m277.29 350.48c-0.69749 0.86793-1.5026 2.4955-1.6631 3.5255-0.21525 1.0854-0.85893 2.9843-1.395 4.231-1.395 3.1466-1.3412 5.8042 0.16044 8.0831 1.8783 2.8744 5.043 2.821 6.5447-0.0505 1.395-2.6578 1.0194-6.4009-0.85793-9.222-1.6631-2.441-1.8773-4.6643-0.80511-7.2142 0.69748-1.4644-0.53615-1.0844-1.9839 0.65095zm6.6512 17.195c-1.0193 0.43397-2.1453 1.1933-2.521 1.7365-3.0043 3.9599 3.8084 8.2987 8.7438 5.641 5.311-2.9289 5.4715-2.9833 7.9935-2.1155 2.1454 0.70544 2.253 0.70544 1.8235-0.16249-0.85793-1.6277-2.1992-2.3876-7.4026-4.1776-5.9548-2.0066-6.169-2.0066-8.6372-0.92243z"/>
  <path d="m286.18 0h763.58v699.92h-763.58z" fill="#0092c8"/>
  <path d="m692.53 57.424c-2.1707 2.1758-2.8949 4.3506-2.4606 7.2514 0.5788 4.2058 0.5788 4.2058-5.21 3.0455-10.998-1.8852-31.548-0.8709-44.283 2.3196-17.222 4.3506-25.47 4.0611-45.442-2.03-2.3151-0.72492-2.1707 0 1.4474 6.6712 4.3414 7.9763 6.3676 9.571 16.498 13.197l6.512 2.3205-11.722 3.0456c-6.3676 1.7405-12.735 3.1903-14.037 3.1903-4.7757 0-2.4606 2.6102 4.3414 4.9308 9.8403 3.3351 20.26 2.9008 41.534-2.1758 15.051-3.4799 21.419-4.3506 30.825-3.9153 6.513 0.14498 12.302 1.0155 12.881 1.5956 0.7232 0.57994-2.7504 4.6402-7.3807 8.9908-7.0918 6.3807-9.6968 7.8315-13.893 7.9763-2.8949 0-7.3807 0.43496-9.8413 0.86991-4.3413 0.8709-4.4858 1.1603-4.4858 9.2814v8.4117l-33.575 31.615c-18.524 17.403-35.889 32.775-38.494 34.37-2.605 1.5957-5.21 3.9163-5.9342 5.2214-1.5919 2.8997 0.2899 8.1211 3.3292 9.2814 1.8808 0.72492 0.7232 3.1904-5.7888 12.181-9.4069 13.052-16.643 26.975-22.287 42.492l-4.0525 10.876-2.3151-7.9763c-3.7626-12.761-6.6575-31.324-6.6575-43.506 0-11.167 0-11.167 7.5252-21.898 9.118-13.052 30.536-35.385 42.402-44.376 4.7757-3.6257 12.881-8.5566 18.09-11.022 11.578-5.3662 14.472-7.8315 14.472-11.892 0-4.7861-3.4737-7.1066-8.9726-5.9463-3.1838 0.57993-16.063-1.4498-38.061-5.9462-18.234-3.6247-33.43-6.816-33.574-6.816 0-0.14498 1.4474-6.3807 3.4727-13.922 2.3161-8.846 4.7757-15.082 7.0918-17.547 4.3414-4.6413 4.4858-10.006 0.1444-14.067-7.2362-6.8161-18.09-0.8699-16.498 8.9918l0.7232 4.9309-9.5514 1.0145c-5.21 0.57994-17.655 3.1903-27.497 5.9462-19.97 5.511-35.6 6.3807-45.875 2.755-3.1838-1.1603-5.9333-2.1748-6.0787-2.1748-0.2889 0-0.4333 1.5946-0.4333 3.6256 0 6.2359 3.907 11.746 10.275 14.937l6.0777 3.0446-4.0515 1.0155c-2.1707 0.57994-8.6837 0.57994-14.617 0.14498-5.9332-0.43495-10.709-0.43495-10.709 0 0 3.0455 7.0908 11.167 11.722 13.487 10.13 5.2213 31.259 3.3351 54.703-4.9308 11.722-4.06 26.918-5.2204 25.905-2.0301-0.5788 1.7405-20.984 17.112-56.005 42.201-17.656 12.617-20.406 16.097-17.656 22.189 1.4474 3.3351 1.0131 4.6402-3.3282 11.892-9.4069 15.952-18.234 43.362-18.234 57.283 0 6.9607-0.4343 7.541-9.9857 17.693-19.537 20.593-57.743 68.595-65.992 82.952l-2.605 4.4954-2.7494-3.4799c-5.4989-6.9608-17.077-3.0456-17.077 5.8005 0 6.0911 3.7626 9.572 10.564 9.572 3.7626 0 11.288 2.8997 24.313 9.571l18.958 9.4263-3.6181 3.9163c-6.9464 7.541-8.3938 13.486-4.7757 18.562 1.7363 2.3205 3.907 2.7559 12.011 2.7559 8.6837 0 11.578 0.72492 21.563 5.6558 9.8412 4.9308 13.604 7.9763 28.075 23.058 44.717 46.842 55.716 56.558 82.489 73.091 15.486 9.571 43.705 23.494 57.598 28.569 45.152 16.242 94.935 19.288 141.97 8.7012 21.708-4.9308 37.627-10.587 58.466-21.028 11.578-5.9454 17.222-7.9763 17.511-6.816 0.4343 1.0155 1.7364 5.2213 3.0393 9.2814 2.4596 7.9763 9.6958 20.159 12.735 21.318 1.0131 0.29097 24.167-2.8998 51.664-7.1056s50.362-7.6858 50.941-7.8315c2.7495-0.14499 6.0787-15.952 6.0787-28.279 0-12.618-0.2899-13.487-6.3676-25.379-7.815-15.082-19.681-27.554-31.115-32.775l-8.1039-3.7705 3.4727-4.4954c16.064-21.319 35.022-51.918 42.402-68.305l4.1969-10.997 7.5251-0.14598c4.0525 0 7.815-0.57994 8.2494-1.3052 0.4343-0.57994-0.1445-5.1005-1.303-11.771-1.1576-6.6713-2.1707-12.327-2.1707-12.618 0-0.14498 2.605-0.28997 5.7888-0.28997h5.7888v-32.92l25.036-47.712c13.604-26.249 26.339-49.307 28.221-51.047 4.4858-4.4964 3.9071-11.311-1.4474-15.228-3.3282-2.4653-4.4868-2.6101-8.1039-1.1603-4.4868 1.8853-7.9595 7.541-6.6574 10.732 0.4343 1.1593-0.7232 4.3506-2.3151 7.2504-2.605 4.4964-3.7626 5.0755-6.9464 4.4964-2.1707-0.43495-18.669-3.1913-36.759-6.2359l-32.706-5.5109-16.064 29.004c-8.8271 15.953-15.919 29.149-15.773 29.44 0.2889 0.14499 17.076 1.4498 37.337 2.755 20.26 1.3051 37.192 2.7559 37.482 3.0455 0.2889 0.14498-4.6312 9.2815-10.854 20.159l-11.288 19.577h-33.285c-28.943 0-33.285 0.29097-34.877 2.3205-1.4465 2.0301-2.1707-0.14498-4.9201-12.616-4.4858-21.028-8.8281-48.728-8.8281-55.979 0-7.1056 6.3676-21.753 17.945-41.475 17.222-29.295 41.824-57.719 51.665-59.604 8.3938-1.5956 14.327-6.091 14.327-10.877 0-4.9309-2.3161-7.2514-8.1049-7.9763-3.907-0.43495-54.992-20.593-57.308-22.623-1.4464-1.1603 5.7888-26.104 8.3938-29.149 7.6706-8.7012-7.0908-21.173-15.34-12.907-3.1838 3.1904-3.7626 10.006-1.0131 12.907 1.9111 2.2864-0.042 1.7799-7.6696 0.57994-14.617-1.7404-28.51-1.0155-41.534 2.3196-14.472 3.7705-25.76 3.9163-38.495 0.29097-5.4989-1.4498-9.6958-2.03-9.6958-1.3051 0 3.3351 6.2222 12.327 10.564 15.227 2.605 1.7404 7.2352 3.7705 10.419 4.3506l5.6444 1.3051-8.6827 2.4654c-4.6312 1.3051-11.433 3.1913-15.051 4.061l-6.512 1.7404 5.7888 2.6102c8.6827 3.9153 23.878 3.4809 42.402-1.1603 10.564-2.6102 19.682-3.7705 28.799-3.9153 11.433-0.14498 16.932 0.86991 14.761 2.4653-19.393 15.372-86.107 65.984-93.633 71.06-11.577 7.8315-13.314 10.152-13.314 16.968 0 3.7705 0.7242 4.9308 4.1969 6.2359l4.1969 1.4498-5.0646 7.9763c-2.8949 4.3506-7.3807 12.907-10.131 18.997l-5.0646 11.022-2.605-5.0756c-2.4606-5.0755-4.9201-14.647-6.3676-25.524-0.7232-5.0755 0-7.3962 6.0777-17.838 8.5392-14.937 22.287-33.5 30.102-40.751 3.3282-3.0446 6.512-6.3807 7.0918-7.2504 1.1576-2.0301-3.1838-7.2514-6.0787-7.2514-2.1707 0-53.98-35.965-53.98-37.415 0-4.0611 7.815-24.943 10.13-27.119 1.5919-1.4498 2.8949-4.4954 2.8949-6.816 0-8.7013-11.143-13.197-17.511-6.816zm29.667 65.115c10.709 7.541 19.537 14.067 19.682 14.502 0 1.0156-37.917 14.648-38.64 13.923-0.2889-0.29096 1.7364-5.2213 4.4868-10.877 2.8939-5.6557 5.2078-11.167 5.209-12.327 2e-3 -2.1663-13.68-8.7405-17.945-9.5709-3.409-0.66393-4.0515-2.4654-2.1707-8.7014l1.7373-5.8005 4.0515 2.6101c2.1707 1.3052 12.735 8.7014 23.59 16.242zm181.77 5.8005c0 0.8709-58.177 18.998-58.901 18.418-0.2889-0.28997 8.1049-30.019 10.42-36.835 0.4343-1.1603 8.5383 1.5947 24.457 7.9764 13.169 5.3651 24.024 10.006 24.024 10.441zm-225.04-16.097c-0.4343 0.8709-1.5919 1.5956-2.4596 1.5956-0.8687 0-0.8687-0.8699 0.2889-2.1748 2.0262-2.4654 3.7626-1.8853 2.1706 0.57894zm155.28 20.014c-3.1838 10.296-6.3676 19.143-6.9464 19.723-0.8687 1.0146-20.839 7.541-53.546 17.547-10.721 3.2594-13.088 3.8737-8.6827 1.0145 2.0252-1.5946 19.247-14.937 38.35-29.729 19.103-14.647 36.003-27.69 36.437-27.69 0.5788-0.14498-2.4287 8.9819-5.6125 19.134zm-274.67-3.0456c30.39 6.2359 30.969 6.3807 25.326 7.9763-2.3161 0.72492-16.932 4.7851-32.272 9.1357l-28.075 7.8315 1.0131-3.9153c3.1838-13.343 6.9464-26.25 7.6696-26.25 0.5798 0 12.302 2.3206 26.339 5.2213zm-44.139 6.6713c-0.2899 1.0145-1.8818 6.5255-3.6181 12.181l-2.8939 10.442-11.289 3.0456c-6.0777 1.5946-15.629 4.3506-21.129 5.9462-5.4989 1.4499-9.5514 2.4644-9.2615 2.0301 1.1575-1.0155 48.047-35.385 48.48-35.385 0.1454 0 0.1454 0.86991-0.2889 1.7404zm136.61 6.5255c1.7373-0.43495 3.0393-0.43495 3.0393-0.14498 0 2.3206-26.772 36.255-29.377 37.27-1.7364 0.72492-10.276 3.7705-18.814 6.9608l-15.774 5.6558 12.011-11.311c6.6574-6.0911 19.248-17.838 27.931-26.104 10.42-9.8616 16.208-14.357 16.932-13.197 0.5788 1.0146 2.3151 1.3052 4.0515 0.8699zm13.025 11.892-4.3413 13.052-10.999 3.6257c-6.0777 2.0301-11.143 3.6257-11.288 3.3351-0.2899-0.14499 5.0646-7.6858 11.722-16.677 9.6958-12.907 12.88-16.243 15.629-16.243h3.6181zm32.417-4.3506 4.0525 2.6102-12.446 4.3506c-6.8019 2.4653-12.156 3.6256-11.866 2.7559 0.2889-0.87091 1.7363-5.0755 3.0393-9.1366l2.4596-7.6858 5.3545 2.3205c2.8949 1.1594 7.0918 3.3351 9.4069 4.7851zm19.103 88.173 3.7626 7.6867-3.6181 11.892c-4.3414 14.792-7.3797 29.439-9.6958 47.422-1.4474 11.602-2.605 14.937-7.5251 23.058-3.0393 5.2213-6.3676 11.312-7.0908 13.632-3.8487 8.8825-4.2561 2.564-4.9211-17.692-1.0131-21.753 0.8687-43.797 5.3545-64.535 3.0393-13.777 10.276-36.256 14.038-43.506l2.1707-4.3506 1.8818 9.2814c1.1576 5.2203 3.6171 12.907 5.6434 17.112zm-189 0.14599c0.1444 8.4107 3.7626 25.088 8.1039 37.995 2.8949 8.5566 3.3282 11.601 2.1707 16.532-0.7232 3.1912-2.0262 13.052-2.8939 21.608-2.7495 27.699 1.7363 54.093 13.603 78.602 3.6181 7.1055 6.8019 14.646 7.3807 16.532l1.0131 3.4809-4.0515-3.0456c-12.012-8.5565-24.603-25.379-31.549-42.056-4.3414-10.296-4.6312-11.892-1.5919-11.892 1.8818 0 2.1707-3.0456 2.1707-18.128v-18.127h-4.3414c-3.7626 0-4.4858-0.72492-6.0787-6.2359-1.1576-3.6257-1.8808-13.923-1.8808-25.669 0-21.463 2.0262-30.454 11.288-51.192 5.4476-13.804 6.9421-12.854 6.6575 1.5957zm309.84 26.684c1.8818 13.342 7.5251 42.055 10.709 54.238 1.8818 7.3962 1.8818 8.7014-0.7232 16.242-1.5919 4.4954-2.4606 8.9918-2.1707 9.8615 0.4344 1.0155-2.4605 5.2204-6.2231 9.4262-6.8019 7.5411-6.9463 7.6868-8.6827 4.4955-6.9464-13.197-9.5514-46.697-5.21-69.465 1.8808-10.006 9.2615-36.69 10.13-36.69 0.2889 0 1.1576 5.3662 2.1707 11.893zm-411.72 26.829 2.0262 8.8461-12.012 44.086-12.156 43.942-4.6312-0.43495c-6.0777-0.72492-49.204-20.593-49.204-22.769 0-5.5099 41.245-58.733 64.4-83.242l8.6827-9.1356 0.4343 4.785c0.2899 2.7559 1.4474 8.9918 2.4606 13.923zm45.586-1.4508c0 0.72592-1.8818 7.3962-4.0524 14.937l-4.0525 13.778-9.8403 0.43495c-5.4999 0.29097-10.564-0.14498-11.433-1.0146-2.0262-2.031 0.1454-12.472 3.7626-17.838 3.7626-5.6558 14.183-11.311 20.84-11.311 2.605 0 4.7757 0.43395 4.7757 1.0145zm31.259 20.448c2.7494 3.6257 4.9201 7.1066 4.9201 7.6868 0 0.72492-5.9332 1.3052-13.169 1.3052h-13.17l0.8687-4.0612c0.5788-2.1748 2.0262-7.3961 3.1838-11.601l2.1707-7.542 5.0646 3.9163c2.8949 2.1748 7.3807 6.8159 10.131 10.296zm-67.728 7.9763c2.605 6.0911 3.1838 10.442 3.1838 22.478v14.792h9.4069l0.2889 12.762c0.1444 6.9608 1.5919 17.838 3.1838 24.074 2.8949 12.326 2.3161 18.272-2.3151 18.272-1.303 0-8.9726-3.9153-17.076-8.7012-7.9595-4.786-16.499-9.2814-18.958-10.151l-4.3413-1.5956 10.853-39.736c5.9333-21.898 10.734-41.408 11.168-41.408 0.5788 0 2.8701 5.007 4.6065 9.2129zm274.67 49.308c3.3282 16.822 9.4069 32.629 18.813 49.162 4.4868 7.8305 7.9595 14.502 7.6706 14.792-1.4474 1.3051-16.209 3.6256-17.511 2.8997-2.0262-1.3051-10.13-18.852-15.63-33.934-6.2231-16.968-11.866-40.461-10.853-44.812 0.4343-2.03 3.6181-9.2804 6.9464-16.096l5.9332-12.327 1.1575 14.212c0.5788 7.8305 2.0262 19.577 3.4737 26.104zm108.39-4.786c5.6444 2.9008 7.2363 4.3506 6.9464 6.816-0.2889 2.6101 0.4343 3.1902 4.3413 3.6257 7.6706 0.72492 6.3676 4.2058-5.6433 14.646-6.2231 5.3662-11.867 9.7168-12.735 9.7168-3.3282 0-17.511-17.258-22.142-26.829l-4.7757-10.152 3.907-1.0145c8.3938-2.0301 22.576-0.57994 30.102 3.1904zm-19.537 30.019 8.3938 8.4117-3.7626 2.6101c-5.0646 3.4809-38.35 19.868-39.074 19.288-0.2889-0.28997 3.3292-13.341 7.815-29.005l8.3938-28.569 4.9201 9.4272c2.7494 5.2203 8.6837 13.197 13.314 17.837zm-49.203 9.4272c-4.1969 12.906-8.1049 24.219-8.6837 24.943-1.8808 1.8853-3.3282-8.5565-2.3151-16.242 1.7364-11.747 5.21-20.158 11.288-27.119 3.1838-3.6257 7.533-8.6482 7.9663-8.2139 0.2899 0.29097-4.2038 13.579-8.2552 26.632zm-159.48-21.754c-0.4343 1.0156-3.4737 10.297-6.9464 20.739-3.3292 10.296-6.6575 19.433-7.2362 20.013-0.5788 0.72492-3.6181 0-6.8019-1.5947-4.7757-2.4653-5.9333-3.9162-7.5251-10.297-1.7363-7.1056-1.7363-7.6858 1.8818-13.922 4.6302-7.8315 11.432-13.198 19.103-15.083 7.814-1.8852 8.2484-1.8852 7.5251 0.14498zm24.457 2.0311c2.605 0.72492 3.6181 2.8998 5.6443 12.761 1.7364 7.541 5.3545 17.113 10.275 26.83l7.5251 14.937-7.5251-0.87091c-4.1969-0.43495-14.183-2.3206-22.142-3.9153l-14.761-3.0456 3.4737-11.167c1.8808-6.091 5.21-16.678 7.3807-23.783 3.7626-12.618 4.3414-13.343 10.13-11.747zm31.982 12.181 15.051 7.2514-6.6575 7.541c-3.7626 4.2058-7.815 10.587-9.117 14.212-1.303 3.6257-2.7494 7.1066-3.3282 7.6859-2.605 2.9007-18.814-34.805-18.814-43.651 0-3.0456 5.3545-1.3051 22.865 6.9608zm30.391 16.097c15.919 9.7168 37.192 25.814 34.297 26.104-0.7232 0-8.9726 0.57994-18.09 1.3051-9.117 0.57994-23.3 0.87091-31.404 0.43495l-14.761-0.8699 0.8687-4.4954c1.302-6.9618 5.7888-15.083 12.301-22.044 3.1838-3.4809 6.0777-6.3806 6.3676-6.3806 0.4343 0 5.0646 2.6101 10.42 5.9452z" fill="#ffcf00" stroke="#000" stroke-width="1.148"/>
  <path d="m692.34 57.116c-2.0262 2.1749-2.8939 4.6403-2.4596 7.3962l0.5788 3.9153-7.3807-1.0155c-12.591-1.8852-29.513-0.55194-41.668 2.7834-14.183 3.7705-24.747 3.9153-37.482 0.28997-5.3545-1.4498-9.7937-2.9136-9.7937-2.1887 0 2.4654 4.1494 10.02 7.7675 13.355 1.8818 1.8862 6.6575 4.4964 10.42 5.9462l7.0908 2.755-8.6827 2.4654c-4.6312 1.3061-10.709 2.756-13.314 3.1914-8.6748 0.18298-7.3782 2.2548 1.302 5.3651 10.42 3.3361 17.655 2.9008 40.666-2.1749 15.629-3.4808 22.721-4.3506 31.548-3.9163 6.2232 0.14598 11.867 1.0156 12.591 1.7405 0.5788 0.57994-2.7494 4.6412-7.5251 8.9918-6.3676 5.8006-9.8412 7.8305-13.025 7.8305-2.3151 0-6.8019 0.43496-9.6958 0.87091l-4.9449 1.3848-0.554 7.8967v8.4107l-32.996 31.035c-18.09 17.113-35.6 32.92-39.073 34.951-4.9211 3.1904-6.0787 4.785-6.0787 8.2659 0 2.755 1.0131 4.786 2.8949 5.8006 2.605 1.4508 2.3151 2.1758-5.3544 12.762-9.5514 13.342-13.604 21.173-20.84 39.445l-5.3545 13.778-3.0393-10.152c-4.0514-13.777-5.9333-26.539-5.9333-41.186 0-12.037 0-12.182 6.3676-21.028 19.393-26.975 46.948-50.448 64.834-58.299 7.6696-2.6102 11.288-5.9462 11.288-10.151 0-4.061-4.4868-6.816-9.2625-5.5109-2.605 0.57994-69.898-11.602-71.345-13.052-0.2899-0.14498 1.302-6.5265 3.3282-14.067 2.3151-8.7012 5.0656-14.937 7.2362-17.403 4.3414-4.6402 4.4858-10.006 0.1445-14.067-7.2362-6.8161-18.09-0.57994-16.353 9.2814l0.8687 4.4964-12.012 1.7395c-6.512 0.8709-18.813 3.6257-27.062 6.091-18.532 4.2569-34.739 6.2179-43.994 2.3206-7.0908-3.0456-6.6565-3.1903-6.6565 1.7404 0 5.511 4.9201 11.456 12.156 14.792l4.2278 2.6002-2.4914 1.0245c-2.1707 0.43495-9.117 0.57994-15.485 0.29097-6.2231-0.43496-11.433-0.14499-11.433 0.43495 0 2.6102 9.5514 12.036 14.038 13.777 9.6958 4.0601 31.404 1.4498 54.558-6.5265 9.6968-3.4799 24.603-4.2058 23.734-1.305-0.4343 1.0155-15.629 12.762-33.864 25.959-18.234 13.341-34.876 25.814-37.048 27.844-4.4858 4.0601-5.209 8.5565-2.0252 11.456 0.282 1.9793 0.7417 2.6896-0.8687 5.8015-9.4069 13.342-21.418 48.727-21.418 63.084 0 6.091-0.7242 7.2513-12.735 20.448-24.168 26.539-53.257 63.085-61.651 77.442l-3.907 6.6713-3.4737-3.4809c-4.1959-4.2058-9.8402-4.4954-13.747-0.57993-6.3676 6.3816-1.4475 15.953 7.9594 15.953 3.3282 0 11.432 3.1904 24.023 9.4262l18.813 9.572-4.3413 5.0756c-10.42 11.747-5.7888 22.623 8.5382 20.157 12.881-2.1749 32.707 9.8616 53.111 32.34 32.417 35.531 50.362 51.483 76.411 67.58 7.2363 4.4954 13.748 8.5565 14.472 9.2814 3.0383 2.4654 35.311 17.547 45.296 21.173 45.152 16.242 95.079 19.288 141.97 8.7012 21.708-4.9308 37.627-10.587 58.466-21.028 11.578-5.9454 17.222-7.9754 17.511-6.816 0.4343 1.0155 1.7363 5.2213 3.0393 9.2814 2.4596 7.9763 9.6958 20.158 12.735 21.319 1.0131 0.28997 24.167-2.9008 51.664-7.1066s50.362-7.6858 50.941-7.8305c2.7494-0.14598 6.0787-15.953 6.0787-28.28 0-12.617-0.2899-13.487-6.3676-25.234-7.815-14.937-19.248-27.118-30.825-32.774-7.5262-3.6257-8.1049-4.2059-6.513-6.6713 1.0131-1.4498 6.0787-8.4117 11.143-15.373 10.999-15.373 27.641-43.071 33.43-56.123l4.3423-9.572h7.9595c7.5251 0 7.9595-0.14498 7.2352-3.3351-1.0131-4.786-3.6181-20.158-3.6181-21.608 0-0.57993 2.7504-1.1604 6.0787-1.1604h5.9332l-0.8687-15.373 0.2423-16.826 24.36-47.418c14.037-26.829 26.918-50.322 28.799-52.498 5.9332-6.2359 3.7626-13.777-4.6312-16.387-4.6302-1.4498-11.427 3.7983-11.427 9.3092 0 2.4654-0.7292 6.933-2.3211 9.689-2.604 4.0601-3.7626 4.785-6.9463 4.2048-14.906-3.1904-67.84-12.626-69.287-12.045-1.0038 0.98889-31.164 55.092-31.451 57.761-0.093 0.8659 2.9094 1.2718 5.5144 1.2718 2.4596 0 17.655 1.0155 33.574 2.1759 15.919 1.1593 31.007 2.6984 33.177 2.6984 3.7626 0 3.4361-0.37896-8.1415 19.78l-11.722 20.302h-33.574c-33.574 0-33.581-0.05-34.858 2.7979-1.9408-0.09-1.0652-0.15498-1.4996-0.58894-1.302-1.1603-9.0837-39.769-11.254-56.591l-0.7856-15.467 7.1532-18.033c17.366-35.965 49.783-77.151 62.228-79.472 8.3938-1.4508 14.472-5.9462 14.472-10.731 0-4.9309-2.3161-7.542-6.8019-7.542-3.3282 0-56.44-20.883-58.756-23.058-1.4474-1.4499 5.3545-25.233 8.3938-29.584 3.0393-4.4964 2.7495-8.7012-1.1576-12.327-4.3414-4.0611-9.8412-4.0611-13.748 0.14498-3.3282 3.4809-4.3413 10.297-1.7363 11.892 3.3282 2.03 1.0131 3.1904-3.908 2.03-10.268-2.8344-32.569-2.1269-44.573 1.5957-14.616 3.6257-28.364 3.6257-39.653 0.14498-4.9201-1.4498-8.8271-2.4654-8.8271-2.1749 0 0.43395 0.8677 2.755 2.0262 5.3652 2.8939 6.8161 9.2615 12.037 17.365 14.357l6.9464 2.0311-10.563 3.0456c-5.9342 1.7394-12.591 3.6247-15.051 4.06l-4.3414 1.1603 5.0646 2.1759c9.5524 4.2048 22.576 3.9153 44.574-1.0156 19.249-4.185 33.106-4.149 40.521-3.335 2.8939 0.86991-2.8949 5.8005-41.245 35.239-24.602 18.853-47.901 36.401-51.809 39.011-8.9716 5.9462-12.155 9.8615-12.301 14.648-1.0748 4.4124 3.434 8.7757 7.0918 8.5565 1.1555-0.07 0.7232 1.4498-1.1586 4.06-3.7626 5.3661-16.525 29.689-16.525 31.865 0 0.86991-0.5788 1.5946-1.302 1.5946-2.3161 0-6.6301-13.447-8.3665-24.758l-0.4377-11.126 6.2265-12.657c7.9595-13.632 22.721-33.21 30.969-41.041 7.8456-5.336 7.4979-9.6657 1.401-12.332-5.4999-2.3196-54.222-35.96-55.091-37.846-0.8677-2.6101 6.2231-23.349 9.5514-27.699 3.7626-4.9308 3.908-9.8615 0.1444-13.632-3.907-3.9153-11.009-4.2333-14.772-0.17198zm11.878 3.798c2.7494 3.335 0.4343 8.2659-3.907 7.6858-4.9211-0.57894-7.3807-4.4955-4.9211-7.541 2.4606-2.8998 6.513-3.0456 8.8282-0.14498zm159.19 4.3506c2.0262 2.4653 0.7242 7.3962-2.3151 8.5565-3.1838 1.1603-7.815-1.5956-7.815-4.6412 0-5.511 6.6575-8.1211 10.13-3.9153zm-175.4 8.2659c4.9211 0.8709 9.2625 2.031 9.6968 2.6112 0.2889 0.57994-0.7242 5.0755-2.3161 10.006-2.4596 7.2504-3.4727 8.846-5.4989 7.9763-1.302-0.57994-6.2231-1.8852-10.999-2.9008-9.9857-2.3205-19.681-1.3051-44.862 4.4955-8.6837 1.8852-18.524 3.6257-21.708 3.4808l-5.7888-0.14498 4.3413-1.4508c14.327-4.786 19.537-7.3962 19.537-10.006 0-2.3205-1.1576-2.7549-6.8019-2.7549-7.6696 0-17.221-3.7705-20.695-7.9763-2.0262-2.4654-1.8818-2.6102 0.7232-1.5957 6.3676 2.6102 25.905 2.756 35.456 0.14498 17.366-4.6402 29.957-5.2203 48.914-1.8852zm-145.3 4.3506c1.8818 3.0456-0.2889 7.3962-3.7626 8.1211-2.3151 0.43495-6.9464-3.3351-6.9464-5.5099 0-2.1759 4.6312-5.9463 6.9464-5.511 1.1585 0.28997 2.8949 1.5947 3.7626 2.8998zm304.2 2.756c4.6312 1.0145 9.117 2.1748 9.6958 2.7549 1.303 1.1604-3.0383 18.853-4.6302 18.853-0.4344 0-4.0525-1.0155-7.9595-2.1758-10.71-3.3351-23.734-2.6102-45.297 2.1758-10.564 2.3196-22.142 4.3507-25.47 4.2048h-6.0777l8.6827-3.3351c13.604-5.2203 13.893-5.5109 13.458-7.9763-0.2889-1.5946-2.7494-2.6101-8.3928-3.1902-7.9595-0.8699-16.353-4.2058-18.09-7.2514-0.7242-1.0146 1.0121-1.1594 5.9332-0.28997 10.275 1.5946 21.562 0.8699 33.864-2.3206 12.445-3.1903 31.548-3.9153 44.283-1.4498zm-312.01 13.632c0 0.43395-1.303 6.2359-3.0394 12.907l-3.0393 12.036-12.445-0.72492c-11.143-0.57993-14.183-0.14498-26.339 3.7705-26.339 8.4108-42.981 9.7168-51.664 3.7705l-4.0524-2.7549 11.578-0.87091c6.3676-0.43495 15.05-1.8852 19.392-3.335l7.9594-2.756-11.866-3.7705c-10.564-3.4799-17.945-7.6858-16.063-9.2814 0.2889-0.28997 5.21 0.14598 10.709 0.8709 10.999 1.5946 14.761 1.0145 43.415-6.816 11.866-3.3361 35.456-5.2213 35.456-3.0456zm155.86 7.1056c-0.4343 1.1603-1.5919 4.6412-2.605 7.9763s-2.605 5.9463-3.6181 5.9463c-1.8818 0-1.4474-1.5957 3.0393-14.212 0.2889-0.87091 1.302-1.7404 2.3152-1.7404 0.8687 0 1.302 0.8699 0.8687 2.03zm27.496 18.418c12.591 8.7012 23.011 16.533 23.3 17.112 0.4343 1.1604-37.337 15.083-38.35 14.067-0.2889-0.28997 1.8818-5.511 4.9201-11.747l5.4999-11.167-3.3292-2.6102c-1.7363-1.4498-6.3676-3.7705-10.13-5.2203-3.7626-1.305-7.3807-3.0456-7.9595-3.4809-1.0131-0.8699 1.5919-13.052 2.7505-13.052 0.2889 0 10.709 7.2514 23.299 16.097zm132.13-11.167c0 1.1603-1.303 6.091-2.7504 11.167-1.5919 5.0755-4.1969 13.922-5.7888 19.577-2.3152 7.8315-3.7626 10.588-6.0777 11.167-2.0262 0.57994-2.7495 0.14598-2.3151-1.0145 0.4333-1.0156 3.4727-10.587 6.8009-21.319 3.3292-10.731 6.3676-19.868 6.8019-20.593 1.0131-1.7405 3.3292-1.1604 3.3292 1.0155zm53.546 19.868c0 0.86991-58.032 19.143-58.756 18.272-0.4343-0.43396 7.9595-30.889 10.13-36.835 0.5788-1.1603 8.3938 1.3052 24.602 7.9763 13.169 5.3662 24.024 10.006 24.024 10.587zm-225.18-15.517c-1.0955 0.78391-2.4912 1.0632-2.3151 1.4498-0.7242-0.43395-0.5788-1.7404 0.4333-2.8997 2.1717-2.6112 3.1838-1.8853 1.8818 1.4498zm155.57 19.143c-3.1838 10.296-6.6565 19.433-7.5251 20.303-1.5919 1.4499-17.511 6.5255-51.375 16.677-7.5251 2.1758-13.169 3.6257-12.735 3.1912 1.8818-1.8862 76.845-59.459 77.135-59.169 0.2889 0-2.3161 8.5565-5.4999 18.998zm-166.28-5.9463c-1.1576 10.731-2.8949 11.747-2.8949 1.7405 0-6.3807-0.4343-8.2659-2.1707-8.2659-1.5919 0-1.3877 1.7684-1.6776 8.0042l-1.0719 8.6733-1.7383-4.8979c-0.4343-3.9163 2e-3 -10.33-0.8667-11.345-1.1576-1.4498-0.1444-1.8853 4.9201-1.8853h6.3676zm7.6696-6.9607c0.2899 0.72492-0.2889 5.0756-1.1576 9.8615l-1.7363 8.7012-0.5788-9.8615c-0.4343-6.816-0.1454-9.7168 1.1575-9.7168 0.8687 0 1.8808 0.43495 2.3151 1.0156zm-20.695 9.1366c0 4.785-0.5788 8.7012-1.4475 8.7012-0.8677 0-1.4464-3.9163-1.4464-8.7012 0-4.786 0.5788-8.7012 1.4464-8.7012 0.8687 0 1.4475 3.9153 1.4475 8.7012zm29.233-6.2359c-0.8677 1.45-1.8808 5.3652-2.4596 8.7014-0.5788 3.4799-1.5919 6.2358-2.4606 6.2358s-1.1576-1.7404-0.5788-4.4964c0.4343-2.4643 0.8687-6.3807 0.8687-8.7012 0-3.1904 0.7232-4.2048 2.8939-4.2048 2.4606 0 2.7495 0.57993 1.7363 2.4653zm16.788 3.3351c3.3282 1.4499 6.0777 3.4809 6.0777 4.3506 0 0.8699-1.7364 4.9309-3.7626 8.9919-2.4596 4.9298-4.1969 6.816-5.209 5.8005-0.8687-0.8709-0.4344-3.3351 1.5919-7.2514 1.7363-3.335 3.0383-6.9607 3.0383-8.2659 0-4.3506-3.0383-2.03-6.0777 4.6402-4.0525 8.5566-3.908 8.2669-4.7757 7.3962-0.4343-0.43396 0.2889-3.4799 1.4474-6.9607 2.604-7.541 2.7495-10.151 0.2889-10.151-1.0131 0-3.1838 3.7705-4.6312 8.2659-3.0383 9.2814-4.6302 7.541-2.3151-2.4654 0.7232-3.4808 1.0131-6.9607 0.5788-7.6858-1.1576-1.8852 5.7888-0.14598 13.748 3.3351zm-174.82 1.1604c0 4.786-7.0908 28.279-8.9726 29.439-2.8939 1.8853-3.0383 0.57993-0.5788-7.9763 1.303-4.4954 3.3292-11.746 4.6312-16.096 2.1707-7.6868 4.9201-10.732 4.9201-5.3661zm34.009 2.4653c14.328 2.9008 26.149 5.8382 27.307 6.4184 1.1576 0.43396-11.532 4.4577-29.477 9.5343-17.944 4.9308-32.851 8.8461-33.14 8.5555-0.2899-0.28997 0.4343-4.2048 1.7364-8.846 1.303-4.6402 3.0393-11.167 3.908-14.646 0.8677-3.3361 2.0252-6.0911 2.604-6.0911 0.5798 0 12.735 2.3196 27.062 5.0755zm359.62 4.2058c0 3.0456-3.3292 5.2204-12.591 7.9763-4.6312 1.4499-27.931 9.571-51.809 18.128-23.878 8.5565-57.018 20.448-73.661 26.393-22.721 8.1211-31.693 10.732-36.179 10.442-4.3413-0.28897-6.0777-1.1603-6.3676-3.0455-1.0131-5.2204 5.4989-9.571 21.998-14.792 69.464-22.043 151.37-46.986 154.7-46.986 2.3161-0.14598 3.908 0.57994 3.908 1.8852zm-406.95 12.036c-1.5919 6.2359-3.4727 11.747-3.907 12.327-0.8687 1.0155-13.458 4.786-36.903 11.167-3.1838 0.86991-5.0646 0.86991-4.3414 0.28997 2.0262-1.8853 47.034-34.95 47.612-34.95 0.2889 0-0.8687 5.0755-2.4606 11.167zm97.251-6.816c0 2.3206-4.7757 4.0611-48.625 17.258-93.487 27.989-109.12 32.34-111.29 31.615-1.7363-0.72492-1.8808-1.5956-0.4343-4.4954 1.7373-4.0611 2.4606-4.3506 35.167-13.052 10.419-2.756 39.942-10.877 65.846-18.129 58.466-16.242 56.874-15.807 58.321-15.082 0.5788 0.28997 1.0131 1.1603 1.0131 1.8853zm43.27 3.3351c2.605-0.57894 0.2899 3.1912-10.564 17.983l-16.113 19.312-16.16 6.2131c-10.13 3.6247-18.523 6.5254-18.813 6.3806-0.1445-0.29096 12.156-11.892 27.352-26.104 19.682-18.273 28.074-25.379 29.233-24.363-1e-3 2.3224 3.118 1.1088 5.0646 0.57894zm11.578 12.473-4.3413 12.906-10.854 3.9163c-5.9332 2.1749-11.143 3.7705-11.288 3.4799-0.2889-0.28996 4.7757-7.8305 11.288-16.822 9.8412-13.632 12.302-16.242 15.63-16.387h3.907zm12.446-11.167c-5.4999 17.983-6.9474 21.463-8.9726 21.463-1.1586 0-1.8818-0.8699-1.5919-1.8852 0.4333-0.8699 2.1706-6.0911 3.907-11.602 2.0262-5.8006 4.0525-9.7158 5.3545-9.7158 1.0131 0 1.7363 0.86991 1.303 1.7405zm73.806-0.43495c-0.8687 0.72492-18.38 7.9763-39.074 16.097-20.695 8.1211-56.874 22.333-80.318 31.469-23.445 9.2815-45.007 17.403-47.757 17.983-5.9342 1.4508-10.131 0.43495-10.131-2.1749 0-2.4654 5.6444-4.786 50.652-21.028 20.26-7.2514 55.426-20.013 78.147-28.279 37.048-13.632 52.533-17.983 48.481-14.067zm-53.836 7.2514 4.0524 2.6101-12.012 4.3506c-6.6565 2.4654-11.699 3.3689-11.844 3.2242-0.2899-0.29096 0.1217-2.644 1.4247-6.5604 1.302-3.9152 2.4596-7.9753 2.8939-8.9908 0.5788-2.03 7.6696 0.43496 15.485 5.3662zm189.73 7.6858c-43.85 46.117-74.963 124.86-68.741 173.74 0.8687 6.9608 2.8949 16.387 4.4868 21.028 1.5919 4.6402 2.8939 8.5565 2.8939 8.846 0 0.14499-3.1838-1.0155-6.9463-2.755l-6.9464-3.1912-6.512-22.043c-3.4737-12.037-6.513-21.753-6.8019-21.464-0.4343 0.43495 6.0777 33.5 7.815 40.171 0.5788 2.1758-0.1454 2.6101-4.3424 2.6101-5.6433 0-4.3414 2.9008-13.458-29.584-2.1707-7.8315-4.1969-13.632-4.3414-12.907-0.2899 0.72492 1.4475 10.442 3.7626 21.608 2.3151 11.021 4.1969 20.157 4.0524 20.448-0.1455 0.14499-2.0262 0.57894-4.0524 1.1594-3.7626 0.87091-3.7626 0.72592-9.9857-21.027-3.4727-11.893-6.3676-21.608-6.6565-21.319-0.4343 0.43495 5.3545 32.775 7.3807 41.187 0.5788 2.3196-0.1455 3.6247-2.3161 4.9299-4.0515 2.1758-4.3414 1.7404-9.9857-18.562-2.605-8.9918-5.0646-16.097-5.3545-15.808-0.4343 0.29097 1.0131 8.9918 3.0394 19.288l3.907 18.563-3.3282 2.6101c-3.7626 3.1904-3.907 3.0456-8.3938-13.052-1.8808-6.6713-3.6181-11.747-3.907-11.456-0.2899 0.28997 0.4344 6.3807 1.5919 13.341 2.8939 16.388 2.8939 17.548-0.4343 19.434-2.605 1.3052-3.0393 0.72492-5.3545-7.2514-3.0393-11.167-4.1969-10.297-1.8818 1.4499 1.303 7.1066 1.303 9.572-0.1444 12.472-2.605 4.786-3.7626 4.3506-5.4989-2.03-1.4475-5.0756-1.4475-4.7861-0.8687 2.6101 0.7232 8.8471-1.1576 13.923-3.907 10.152-1.1576-1.5957-1.303-1.0155-0.7242 2.8998 0.4343 2.7559 0 8.9918-1.0131 13.778l-1.8808 8.5555-5.21-10.731c-12.012-24.654-16.063-43.506-16.208-75.412 0-18.708 0.7232-27.698 3.1838-40.895 8.5382-45.972 30.101-91.074 43.414-91.074 1.303 0 1.5919 1.0155 1.0131 3.1904-0.7232 2.755-0.4333 2.4653 2.0262-1.0155 1.5919-2.3196 4.1969-4.7851 5.9333-5.3652 2.8949-1.0155 2.8949-1.0155 0.5788 3.3351-1.1576 2.4654-1.8808 4.786-1.4464 5.2213 0.2889 0.43495 1.7363-1.3061 2.8939-3.6256 5.3545-10.297 10.709-12.037 6.512-2.1759-3.3282 7.9763-2.7494 7.541 3.6181-1.8853 2.4606-3.7705 5.9332-7.3961 7.6706-7.9763 3.1838-1.1603 3.0383-0.72492-1.7374 8.8471-2.7494 5.6557-4.9201 10.151-4.4858 10.151 0.2899 0 3.907-5.2213 7.9595-11.457 4.1969-6.2358 8.8281-11.746 10.275-12.181 2.3161-0.57994 1.8818 1.0145-3.0384 10.731-3.0394 6.2358-5.3544 11.457-5.0656 11.457 0.2899 0 3.907-5.2214 8.1039-11.747 6.9464-10.587 11.867-15.808 14.761-15.808 0.5788 0-2.3151 5.6557-6.2232 12.617-13.603 23.639-13.168 23.929 2.3161 1.1603 6.2231-9.1356 12.301-16.678 13.314-16.678 1.7363 0 1.4474 1.0155-0.7232 4.6412-9.2625 15.662-17.511 30.165-16.932 30.165 0.2889 0 6.512-8.7012 13.748-19.434 8.1039-11.747 14.471-19.723 16.352-20.302 1.7373-0.43495 3.1838-0.57994 3.4737-0.43495 0.1444 0.28997-5.0656 8.846-11.578 19.288-19.392 30.31-18.668 30.165 3.3282-0.57994 12.881-17.983 19.248-24.943 20.985-23.203 0.2899 0.28997-4.7757 8.5556-10.999 18.563-13.458 21.027-15.05 23.783-13.314 22.768 0.5788-0.43495 7.9595-10.587 16.353-22.623 11.143-15.953 16.353-22.188 19.393-23.349 2.3151-0.72492 4.4858-1.1603 4.9201-0.8699 0.2889 0.43395-7.6706 12.761-17.655 27.554-10.131 14.792-18.091 26.975-17.656 26.975 0.2899 0 10.42-13.198 22.432-29.44l21.707-29.439 9.118-3.0456c5.0646-1.7404 9.4059-3.1904 9.6958-3.1904 0.2889-0.14598-3.3282 3.9153-7.9595 8.8461zm-153.55 4.3506c-23.3 29.439-40.086 67-47.757 107.46-3.6171 19.433-3.6171 67.435 0.1454 87.303 3.3282 18.128 10.709 42.636 17.365 58.299 2.7505 6.6703 4.7757 12.036 4.4868 12.036-1.303 0-14.472-10.442-15.34-12.182-0.5788-0.8699-6.3676-20.302-13.025-43.216-6.6565-22.913-12.301-41.476-12.59-41.187-0.1454 0.29097 4.0514 18.563 9.5514 40.607 5.4989 22.043 9.6958 40.025 9.4059 40.025-0.4333 0-2.4596-1.0145-4.6302-2.3196-3.4737-2.031-5.0656-6.091-14.617-38.431-5.9332-19.723-10.853-35.821-11.143-35.531-0.2899 0.14599 3.1838 15.228 7.5251 33.21 4.3414 18.128 7.9595 33.209 7.9595 33.645 0 0.43496-1.8808-0.14498-4.1969-1.4499-4.6302-2.3205-4.6302-2.1758-16.932-44.522-3.0384-10.297-5.6434-18.272-5.9332-17.983-0.2889 0.29097 2.3161 12.762 5.9332 27.844 3.4737 15.082 6.2231 27.554 6.0787 27.844-0.2899 0.14499-2.605-0.57993-5.3545-1.7404-4.9211-2.03-5.0656-2.3205-12.012-27.554-3.907-14.067-7.3807-25.234-7.6696-24.945-0.2899 0.14599 1.7363 11.022 4.4858 23.784 5.0656 24.219 4.9201 25.233-1.7364 21.463-2.605-1.4498-4.7757-5.8005-8.9726-18.417-6.2232-18.563-7.0908-18.418-2.8949 0.72492 1.5919 7.1055 2.605 13.197 2.3161 13.487-0.2899 0.28997-2.7495 0-5.3545-0.57993-4.4868-1.1603-5.3544-2.3206-8.9726-12.182-2.1707-6.0911-3.6181-8.5565-3.1838-5.6558 0.5788 2.755 1.302 7.2514 1.7363 9.7168 0.7232 4.3506 0.4343 4.785-2.605 4.785-4.9201 0-6.2232-1.305-9.8403-8.7012-2.8949-6.2359-3.0393-5.8006-1.0131 3.1904 0.8677 3.7705 0.5788 4.061-4.0525 4.061-3.4727 0-5.21-0.72492-5.6444-2.6102-0.5788-1.8853-0.7232-1.8853-0.8677 0.57994-0.1444 3.6257-7.3807 5.8006-9.117 3.0456-0.7242-1.1603-1.1586-1.0155-1.1586 0.43395 0 1.1603-2.1707 3.6257-4.7757 5.3661-2.605 1.8853-6.3676 5.9454-8.2484 9.1367-2.0262 3.1904-4.1969 5.8005-4.7757 5.8005-1.7364 0-9.4069-18.127-12.735-30.31-4.3414-15.953-5.3545-45.972-2.0262-65.404 4.6312-28.135 16.642-56.558 32.128-76.717 7.5251-9.7158 9.4059-11.167 18.524-14.937 5.4989-2.3206 10.853-3.7705 11.866-3.4809 1.0131 0.43495 1.8808 0.14598 1.8808-0.72492 0-1.3051 5.9342-4.3506 6.9474-3.4799 0.1444 0.14498-0.2899 2.1749-1.1586 4.4954l-1.4464 4.2058 2.605-3.4809c7.0908-10.151 10.563-11.892 7.5251-3.7705-2.4606 6.3807-0.5788 5.9464 2.7494-0.57994 1.7364-3.1903 4.3413-6.5254 5.9332-7.3962 2.7494-1.4498 2.7494-1.4498-0.1444 5.2214-4.0524 9.571-2.4606 9.4262 2.8939 0 2.4606-4.3506 5.7888-8.7013 7.3807-9.572 3.7626-2.03 3.7626-1.7404-1.4474 10.297-2.3151 5.5109-3.907 10.006-3.6171 10.006 0.2889 0 3.7626-5.5109 7.814-12.182 4.0524-6.6702 8.3938-12.472 9.5514-13.052 2.8949-1.0145 2.8949-1.1603-3.4726 12.907-3.1838 6.816-5.4999 12.327-5.3545 12.327 0.2889 0 3.907-5.6557 8.2484-12.617 4.1969-6.9618 8.8281-13.778 10.276-15.228 6.0777-6.091 5.209-1.5956-2.3161 12.617-4.4858 8.4118-7.814 15.228-7.5252 15.228 0.2899 0 5.6443-7.8315 11.722-17.402 9.6968-15.082 13.748-19.868 13.748-16.533 0 0.57994-3.907 8.4117-8.8271 17.402-4.7757 9.1366-8.3938 16.533-8.1049 16.533 0.4343 0 6.0787-8.5565 12.591-18.998 10.13-16.098 16.209-22.913 18.524-20.882 0.4343 0.43395-12.735 23.638-22.576 39.881-5.7888 9.4263 2.1707-1.4498 15.486-21.318 12.735-18.853 17.944-25.089 19.826-23.349 0.1444 0.28997-4.1969 8.2659-9.8412 17.838-16.642 28.714-17.221 29.73-16.498 29.73 0.2899 0 8.1049-11.602 17.222-25.814 13.603-20.883 17.655-26.104 21.418-27.409 2.605-1.0155 4.9201-1.7404 5.0656-1.4508 0.1444 0.14599-5.0656 8.847-11.578 19.143-20.839 33.21-24.023 38.431-23.444 38.431 0.2889 0 9.9847-13.632 21.418-30.454 16.932-24.799 21.563-30.744 25.76-32.484 8.9716-3.7705 8.9716-2.6102 0.4333 8.1211zm-157.45-2.9008c-23.879 19.723-45.442 46.842-58.032 72.946-9.9857 20.738-14.037 37.126-14.037 57.719 0 12.907-0.2899 15.227-1.8818 13.922-1.1576-0.8699-2.0262-4.6402-2.1707-8.4107 0-3.6257-0.5788-10.006-1.302-13.923-1.0131-6.9608-1.0131-6.9608-1.303 3.9163 0 6.2358-0.4343 11.311-0.7232 11.311-4.4868 0-5.21-2.1759-5.3544-15.808-0.1454-11.747-0.4344-12.907-1.4475-7.3962-0.5788 3.6257-1.1576 9.2815-1.1576 12.618-0.1454 4.6402-0.5788 5.9452-2.1707 5.3651-1.303-0.57993-2.3161-5.2203-3.1838-15.517l-1.303-14.791-0.4343 13.342c-0.1444 7.3962-0.5788 13.487-1.0131 13.487-3.907 0-5.0646-2.4653-5.209-10.732-0.1454-12.617-2.4606-18.852-2.605-7.3951-0.2899 10.876-1.303 15.227-3.908 15.227-1.4465 0-2.0262-1.8853-2.1707-6.2359 0-3.3351-0.5788-8.7012-1.1576-11.892-1.1576-4.9308-1.302-4.0611-1.4475 6.091-0.1445 9.2815-0.5788 12.036-2.1707 12.036-2.4596 0-3.6181-4.3507-3.907-14.502-0.2899-7.8315-0.2899-7.8315-1.4474 2.8997-1.4475 12.327-2.0262 14.503-4.1969 14.503-0.7232 0-1.4474-3.3361-1.4474-7.6868 0-5.3651-0.4333-6.9608-1.4465-5.3651-0.7242 1.1603-1.4474 5.5109-1.4474 9.7157 0 4.0611-0.5788 7.9764-1.4474 8.4118-0.8677 0.57993-1.4465-1.0156-1.4465-3.9154 0-3.6256-0.4343-4.2057-1.4474-2.6111-0.7242 1.1603-1.4474 3.9163-1.4474 6.0911 0 5.8015-1.5919 9.1366-3.0394 6.6712-0.8677-1.1603-1.302 0.28997-1.302 4.2058 0 3.4799-0.5788 6.2359-1.1576 6.2359-3.1838 0-7.815-21.319-8.5383-38.431-0.5788-15.373-0.2899-19.143 3.0384-31.615 3.7626-14.937 14.183-38.286 19.971-44.811 1.7363-2.031 4.9202-4.2058 6.8019-4.786 3.0394-0.86991 3.3282-0.72493 2.4596 1.5956-0.7232 2.0301 0 1.7395 3.0393-1.3061 4.9201-4.4954 9.2625-5.6557 6.0787-1.4498-1.1586 1.5956-0.4343 1.3051 1.5919-0.57993 4.1969-3.6257 11.578-6.816 11.578-4.7851 0 0.72492-0.5798 1.7395-1.4474 2.1749-0.7242 0.43496-2.1707 2.3206-3.0393 4.0611-1.0131 1.8852 1.4474 0.28997 5.6443-3.7715 10.853-10.151 12.88-9.4262 4.7757 1.8862-2.7495 3.9153-1.7373 3.3351 5.0646-3.0455 7.6706-7.3962 13.604-11.312 13.604-9.1367 0 0.57994-2.4606 3.9153-5.4989 7.6858-10.131 12.327-9.4069 12.472 2.3151 0.43495 6.512-6.5264 12.445-11.892 13.314-11.892 2.0262 0 1.302 1.3052-8.3938 13.777l-7.6696 10.151 12.735-13.341c10.853-11.311 19.247-17.547 19.247-14.212 0 0.43495-5.21 6.9608-11.578 14.357-6.3676 7.541-11.578 13.923-11.578 14.357 0 0.43495 5.3544-4.9308 11.867-11.747 18.234-19.433 18.957-20.302 22.721-21.318 2.7495-0.8699 1.5919 1.3051-5.9342 10.297-17.365 21.318-20.839 26.393-9.6958 14.357 21.129-22.913 26.628-28.135 30.969-29.149 4.0524-1.0155 4.1969-1.0155 2.1717 1.8852-1.1586 1.7405-9.2625 11.456-17.945 21.753-27.062 31.904-26.339 31.47 4.7757-2.4654 20.116-22.044 26.194-27.119 32.706-27.409 0.8687-0.14598-1.7363 2.6102-5.7878 5.9454zm418.23 46.262c2.0262 6.091-6.512 9.5709-8.8282 3.4799-1.4464-3.6247 0.5798-6.5255 4.3423-6.5255 2.3151 0 3.907 1.0155 4.4858 3.0456zm-277.71 32.049 4.0524 8.2669-3.907 12.761c-4.9211 16.097-7.815 30.31-9.6968 47.277-1.302 10.442-2.4596 14.648-5.7878 19.868-2.1717 3.6257-5.6443 9.572-7.3807 13.342-1.8818 3.9153-3.7626 6.9608-4.3424 6.9608-1.7364 0-3.1838-27.698-2.3151-45.681 1.4474-28.28 7.2363-54.819 17.222-78.893l4.6302-11.021 1.7373 9.4263c0.8677 5.2203 3.4727 13.197 5.7878 17.692zm226.19-16.967c20.984 3.4809 38.35 6.6713 38.784 6.9608 0.5788 0.72492-19.103 38.576-20.839 40.316-0.8687 0.72492-68.597-3.1904-81.042-4.785-2.7494-0.43495-2.0262-2.3206 9.4069-22.913 12.735-22.624 14.761-26.104 15.195-26.104 0.1454 0 17.511 2.8998 38.495 6.5255zm43.994-4.2058c1.4474 1.4508-1.7364 6.3816-4.0525 6.3816-2.605 0-2.605-0.72592-0.7232-4.4964 1.5919-2.755 3.1838-3.4799 4.7757-1.8852zm-459.19 18.563c0 10.442 3.6181 29.294 8.1039 41.621 3.6181 9.8616 3.6181 10.152 1.303 21.753-3.2549 14.884-3.7264 45.543-0.1444 59.604 2.7494 14.212 5.6434 22.479 13.458 38.431 3.6181 7.3962 6.2231 14.212 5.9332 15.083-0.7232 2.0301-11.722-7.1066-18.958-15.808-6.3676-7.541-14.037-21.028-18.234-31.904-2.616-7.3681-1.877-7.0663-0.1444-7.541 2.6522-0.72692 2.8939-1.0155 2.8939-18.128v-18.128h-4.3414c-3.6181 0-4.4858-0.72492-5.9332-5.5109-0.8687-2.8998-2.0262-12.907-2.3161-22.043 0.6308-12.814 0.068-18.88 2.3161-29.294 3.0393-12.907 12.591-35.965 14.761-35.965 0.7232 0 1.302 3.4799 1.302 7.8306zm311.72 41.476c2.0262 12.327 5.3545 29.149 7.3807 37.27l2.8263 14.561-2.1031 8.4974c-1.5919 4.4954-2.4606 8.7012-2.0262 9.4262 0.4343 0.72592-2.4596 4.786-6.512 8.9919l-7.0077 6.6901-2.978-5.8204c-7.701-20.613-8.2454-57.474 2.7495-93.393 1.5919-5.3662 3.1838-9.4263 3.4737-9.1367 0.2889 0.14498 2.1707 10.587 4.1969 22.913zm-413.75 14.502 2.0262 10.877-24.024 87.012-4.9201-0.43495c-5.9332-0.43396-49.06-20.448-49.06-22.768 0-5.6557 35.601-52.063 64.4-83.677 8.2484-9.1367 8.6827-9.4263 9.117-5.8006 0.1445 2.1749 1.303 8.8461 2.4606 14.791zm531.84-16.242c0 0.29097-4.3424 9.1366-9.6968 19.288-9.5514 18.128-9.9857 18.708-14.472 18.708-2.605 0-4.7757-0.43496-4.7757-0.86991 0-0.57993 4.9201-9.5709 10.999-20.013 9.9857-17.258 11.432-19.143 14.471-18.563 1.8808 0.28997 3.4737 1.0156 3.4737 1.4499zm-486.98 18.998c-0.4343 2.3206-2.3151 8.9908-4.0515 14.937l-3.3292 10.586-11.143 0.43495c-10.709 0.43495-10.856 0.04-10.849-3.1462 0.03-14.755 11.728-26.136 24.743-27.019 5.3544 0 5.4989 0.14498 4.6302 4.2058zm11.289 4.3506c-4.9211 20.013-5.3555 21.173-9.6968 21.608-3.4727 0.43495-4.0514 0-3.4727-2.1758 7.814-28.279 7.0908-26.393 10.709-24.799 2.7494 1.305 3.1838 2.3205 2.4606 5.3661zm21.418 13.632c2.3151 3.1904 4.1969 6.3807 4.1969 7.1056 0 0.57993-5.7888 1.1603-13.025 1.1603-7.0908 0-13.024-0.43495-13.024-0.8699 0-1.0155 4.1969-17.838 5.0646-20.593 1.0131-2.6112 11.289 5.5099 16.788 13.197zm-68.886 5.6558c3.0394 6.6713 3.6181 9.8615 3.6181 23.203v15.663h9.6958v11.167c0.1444 6.2358 1.5919 17.257 3.3282 24.653 3.3292 14.212 2.605 19.288-2.604 19.288-1.4474 0-8.8281-3.6247-16.353-8.1211-7.3807-4.4954-15.919-9.2814-18.814-10.587l-5.21-2.3205 10.999-40.17c6.0787-22.189 11.143-40.316 11.433-40.316 0.2889 0 2.0263 3.4799 3.907 7.541zm502.89 4.3506c0 2.6102 0.4343 8.2659 0.8687 12.327l1.0131 7.6858h-88.567l3.6181-10.587c1.8808-5.6557 3.7626-11.311 4.1969-12.327 0.4333-1.3051 9.8403-1.7404 39.797-1.7404h39.073zm-419.68 15.662v13.052h-75.253v-26.104h75.253zm189.73 15.662c2.7494 23.494 10.13 46.262 21.273 64.39 8.9726 14.937 8.9726 15.082 0.2889 16.968-4.0515 0.86991-8.4769 1.0384-9.49 1.0384-4.0525 0-22.202-46.285-26.689-68.038-1.8808-9.7168-1.0131-13.632 7.0918-29.295l5.209-10.151 0.2899 5.8006c0.2889 3.1903 1.1576 11.892 2.0262 19.288zm221.13 3.3361c0.8677 5.8005 1.4465 10.587 1.1576 10.876-0.2899 0.43496-21.852 0.43496-47.757 0.29097l-47.322-0.43495 9.117-10.442 8.9726-10.442h37.048l37.047-0.14498zm-423.3 11.746c12.445 38.285 44.573 65.984 89.869 78.021 28.799 7.542 59.769 9.8616 95.514 7.3962 73.227-5.0755 106.95-19.142 149.35-62.069l19.103-19.288h27.497c17.944 0 27.641 0.57994 27.641 1.4508 0 4.2048-18.958 37.56-32.707 57.428-10.564 15.228-13.314 17.258-38.35 27.264-30.825 12.327-75.398 22.044-121.42 26.394-29.957 2.8998-100.43 2.0301-125.18-1.4508-32.417-4.7851-57.019-10.442-81.911-19.143-20.26-7.1056-28.943-11.167-52.677-24.799-25.615-14.791-40.521-22.188-54.269-27.263-13.169-4.786-25.326-5.3661-30.826-1.7404-4.3414 2.8998-4.9201 1.4498-1.7363-4.786 3.6181-6.9608 11.722-11.602 20.406-11.602 9.8402 0 16.353 2.4653 34.009 12.907 16.642 9.8615 21.273 10.731 25.759 5.0755 3.7626-4.785 3.7626-6.091 0.1454-21.173-1.5919-6.6713-2.8949-17.112-2.8949-23.348v-11.167h48.77zm10.13-2.0311c8.5383 22.189 25.325 43.217 43.126 53.658 24.457 14.502 58.031 22.333 104.2 24.363 68.886 3.0456 134.88-20.303 173.81-61.634 5.7888-6.0911 10.854-10.297 12.591-10.297 1.5919 0 2.8939 0.57994 2.8939 1.4508 0 2.6102-29.667 31.469-41.244 40.026-35.601 26.249-78.727 37.27-146.89 37.27-27.786 0-42.402-1.5946-64.4-7.1056-48.914-12.182-80.318-39.446-92.474-80.052l-2.1707-7.541h3.4727c2.8949 0 3.908 1.5946 7.0918 9.8605zm304.49-2.03c5.5508 3.2762 3.7736 5.1924 5.559 6.3928-1.302 1.5947-0.022 2.9252 3.1613 3.3605 2.1707 0.28997 4.3038 0.25297 5.1724 1.5581 1.7363 2.9008-2.3151 7.8315-14.617 17.258-8.8271 6.9608-9.8402 6.6713-19.97-4.786-5.3545-6.2359-15.196-23.058-15.196-26.249 0-1.5946 6.6575-2.1748 17.366-1.8852 8.3938 0.29097 12.591 1.3051 18.524 4.3506zm-481.91-1.7405c2.7495 2.756 2.0262 6.6713-1.1576 7.6868-3.1838 1.0146-7.2362-1.3051-7.2362-4.2058 0-2.1758 2.8949-5.2203 5.0656-5.2203 0.8677 0 2.3151 0.72492 3.3282 1.7394zm428.51 34.226-8.9726 30.454-5.4989 1.4498c-3.1838 0.72492-5.6443 1.0156-5.6443 0.43495 0-0.43495 4.0524-13.778 8.9726-29.585 8.8282-28.134 9.117-28.86 14.183-31.47 2.7495-1.4499 5.21-2.4654 5.4989-2.1749 0.2899 0.14498-3.6181 14.066-8.5382 30.89zm18.234-22.044c2.1717 4.4954 8.1049 12.617 13.169 17.983l9.2625 9.8616-10.42 6.091c-13.946 6.6115-32.15 16.232-32.707 14.647-0.1444-0.57994 3.1838-13.197 7.6706-28.134 4.3414-14.937 7.9595-27.409 7.9595-27.844 0-2.1748 1.4474 0.14498 5.0646 7.3963zm-398.12 13.341c2.4596 0.72592 2.4596 0.8709-0.7242 2.4654-3.0383 1.7404-5.3544 0.8709-23.3-8.1211-14.327-7.2504-19.682-10.587-19.103-12.036 0.5798-1.5956 5.21 0 20.55 7.3962 10.854 5.2204 20.985 9.8616 22.576 10.296zm362.81 14.792c-4.3414 14.357-8.5382 25.664-9.117 25.664-1.7374 0-3.0394-9.5667-2.0262-16.672 1.5919-11.892 5.21-20.303 12.011-27.844 3.6181-3.9153 6.6575-7.2514 6.9474-7.2514 0.1444 0-3.3292 11.747-7.815 26.104zm-159.62-21.463c-0.4343 1.0146-3.4737 10.296-6.9464 20.738-3.3282 10.297-6.6575 19.433-7.2362 20.013-0.5788 0.72592-3.7626-0.14498-6.9464-1.7395-4.9201-2.6111-5.9332-3.9163-7.5251-10.152-1.4475-6.2359-1.303-7.6858 1.1575-12.617 4.0525-7.8314 10.42-13.487 17.801-15.808 8.1039-2.4653 10.419-2.6101 9.6958-0.43396zm13.024 0.43396c0.2899 0.29096-2.7495 10.877-6.9464 23.64l-7.2352 23.348-4.3414-1.4499c-2.3161-0.8709-3.908-2.3205-3.6181-3.1904 0.2889-1.0155 3.3282-10.297 6.6564-20.593 7.5251-23.639 7.815-24.364 11.867-23.059 1.7363 0.43495 3.3282 1.1603 3.6171 1.3051zm14.543 4.4776c0.5788 0.86991 1.6654 2.9186 1.6654 4.9497 0 5.8005 7.9595 26.829 13.604 36.4 2.8939 4.9308 4.9201 9.2815 4.4858 9.7168-0.8687 1.0155-20.55-1.8853-33.864-4.9308-7.0908-1.4499-10.275-2.9008-9.8402-4.0612 0.4343-1.0145 3.907-11.746 7.6696-23.928l7.1772-20.754 4.1105-0.56394c2.4606 0.57894 4.4133 2.156 4.9921 3.1714zm24.675 7.1244c24.009 12.094 20.593 8.1904 13.459 15.953-6.2231 7.1055-10.435 16.961-12.129 20.808-1.5017 3.4116-2.7494 2.3206-7.814-6.6703-5.3544-9.4273-12.185-28.495-12.185-33.57 0-1.7405 0.7242-3.0456 1.5919-3.0456 0.8687 0 8.5382 2.8998 17.076 6.5254zm36.18 19.143c6.0777 3.7705 16.063 10.731 22.431 15.517l10.602 9.0612-3.3659 0.94489c-4.9211 1.5956-59.19 2.1758-60.637 0.72492-0.5788-0.43395 0-4.4954 1.303-8.9908 1.7364-5.6558 4.4858-10.297 9.6958-15.953 4.0524-4.4954 7.815-8.1211 8.2484-8.1211 0.4343 0 5.6444 3.0455 11.723 6.816zm-271.64 4.2058c13.315 4.7851 28.365 12.327 53.836 26.974 30.68 17.693 51.231 26.104 84.66 34.516 38.929 9.7158 73.66 13.487 122.43 13.487 75.832 0 137.34-11.457 194.65-36.256 1.1586-0.57994-0.1444 1.8853-3.0383 5.511-3.0393 3.7705-8.3938 7.9763-13.025 10.297-11.578 5.8006-37.048 13.777-59.189 18.563-17.222 3.7705-18.379 4.2048-9.4069 3.4799 18.958-1.4498 41.678-7.1056 65.123-15.807 1.7363-0.72592 0.5788 1.305-3.4737 5.5109-5.4989 5.6558-8.3938 7.2504-20.26 11.167-7.6706 2.4654-26.918 6.6703-42.837 9.2805-15.919 2.7559-27.497 5.0765-25.905 5.0765 6.9464 0.28997 47.468-5.9462 60.637-9.2814 7.814-2.0311 14.471-3.3361 14.76-3.0456 0.4343 0.28997-3.0383 3.4799-7.3807 7.1056-8.3928 6.816-15.629 9.2814-39.363 13.342-6.9464 1.1603-9.4059 1.8853-6.3676 2.0301 2.7494 0 10.999-1.1604 18.09-2.6102 7.2362-1.4508 13.169-2.4654 13.459-2.3206 0.8677 0.72492-18.524 12.327-32.995 19.578-17.512 8.846-42.258 17.402-63.677 22.043-22.287 4.786-73.227 4.786-95.514 0-45.152-9.8615-100.58-37.27-130.97-64.824l-7.2352-6.5264 9.4069 4.3506c10.563 4.786 30.679 10.731 40.521 12.182 4.0524 0.57994 1.0131-0.72492-7.9595-3.4809-21.852-6.6713-47.901-20.013-58.466-29.874-4.9211-4.4954-8.8282-8.7012-8.8282-9.2814 0-0.57994 7.3807 2.6102 16.353 7.2514 20.26 10.587 39.219 17.547 64.11 24.074 23.589 5.9454 31.548 6.3807 11.432 0.57994-48.191-14.067-91.751-35.096-114.18-54.964-14.761-13.052-27.641-19.578-38.784-19.723-4.4868 0-7.815-0.43495-7.3807-1.1603 1.4474-2.4654 16.642-0.86991 26.772 2.7559zm458.9 45.827c-0.7242 1.0146-3.908 5.0756-6.9464 9.1357l-5.6444 7.2513 8.9726-8.5565c9.9857-9.7157 13.169-10.006 5.9332-0.57994l-4.7757 6.2359 6.512-5.9454c7.0918-6.816 11.433-7.2514 7.5261-0.87091-2.4606 3.9163-2.4606 3.9163 0.4333 1.3051 1.5919-1.3051 3.4737-2.4653 4.0524-2.4653 0.5788 0 4.6312 3.3361 8.9726 7.3962 9.2615 8.9918 17.366 23.929 19.247 35.821 1.303 8.4117 1.1576 11.602-1.4475 23.638l-1.4464 6.5265-47.757 7.541c-35.022 5.5109-48.625 7.1055-50.507 6.091-3.7626-2.031-9.4059-12.037-12.011-21.319l-2.1707-7.3962 13.169-9.7158c7.814-5.6557 22.72-19.288 35.745-32.63 20.839-21.463 25.615-25.959 22.142-21.463z"/>
  <path d="m863.16 330.65v6.5255h13.025v-13.052h-13.025zm26.049 0v6.5255h13.025v-13.052h-13.025zm26.049 0v6.5255h13.025v-13.052h-13.025zm-56.44 27.554v6.5265h13.025v-13.052h-13.025zm41.968 0v6.5265h13.025v-13.052h-13.025zm-47.757 31.904c0 5.0765 0 5.0765 6.512 5.0765 6.513 0 6.513 0 6.513-5.0765 0-5.0756 0-5.0756-6.513-5.0756-6.512 0-6.512 0-6.512 5.0756zm30.39 0c0 5.0765 0 5.0765 6.513 5.0765 6.512 0 6.512 0 6.512-5.0765 0-5.0756 0-5.0756-6.512-5.0756-6.513 0-6.513 0-6.513 5.0756zm-334.3 62.36v9.4262h13.025v-18.852h-13.025zm219.97 5.8005v9.4263h13.024v-18.852h-13.024zm-108.54 13.052v9.4272h13.025v-18.853h-13.025zm-209.84-133.42v6.5265h13.024v-13.052h-13.024zm26.049 0v6.5265h13.024v-13.052h-13.024zm26.049 0v6.5265h13.024v-13.052h-13.024zm276.4 184.55c0.9643 0.32197 2.8939 0.32197 4.0196 0 0.9653-0.48294 0.1614-0.80591-2.09-0.80591s-3.0553 0.32197-1.9296 0.80591z"/>
  <path d="m1049.7 523.35v176.65h-763v-187.5c0.7521 2.992 12.434 6.6807 20.704 9.6735 15.034 5.2371 16.163 5.2371 30.822-4.4883 19.922-13.093 32.325-12.718 54.878 1.4954 33.829 21.322 42.85 21.696 52.999 2.9929 7.5178-14.588 24.432-14.588 53.374 0.37496 12.404 6.3581 25.184 11.221 28.942 11.221 3.3829 0 11.653-5.9848 18.043-13.092 14.283-16.458 22.552-15.336 59.388 5.9848 29.694 17.581 39.843 18.703 42.85 4.115 4.1349-18.329 7.5178-21.322 24.807-21.322 10.525 0.37396 26.312 4.8627 42.475 12.344 13.907 6.7335 28.19 11.97 30.821 11.97 3.0073 0 6.3902-5.2361 7.8943-11.595 1.1276-6.3591 6.0136-13.84 10.149-16.832 10.149-6.3592 20.673-3.7406 53.75 13.092 33.077 16.458 42.475 14.963 42.475-7.1069 0-6.7336 7.1412-11.222 18.042-11.222 3.3828 0 17.291 6.7337 31.198 15.336 30.07 17.955 38.34 17.955 40.971-0.37295 2.6307-18.703 15.036-19.078 47.361-2.2443 24.056 13.092 51.058 18.38 51.058 10.525z" fill="#0091c8"/>
  <path d="m291.24 512.91c0.7491 2.9926 7.0712 7.4821 15.319 10.476 14.996 5.2383 16.121 5.2383 30.742-4.4894 19.87-13.096 32.241-12.721 54.735 1.4958 33.742 21.327 42.739 21.701 52.861 2.9936 7.4982-14.592 24.369-14.592 53.236 0.37496 12.373 6.3597 25.119 11.224 28.868 11.224 3.3741 0 11.621-5.9862 17.995-13.095 14.246-16.462 22.494-15.34 59.234 5.9862 29.617 17.585 39.74 18.708 42.739 4.116 4.1242-18.333 7.4982-21.327 24.743-21.327 10.498 0.37496 26.243 4.8639 42.364 12.347 13.871 6.7352 28.117 11.972 30.742 11.972 2.9985 0 6.3726-5.2373 7.8728-11.598 1.1247-6.3607 5.998-13.844 10.122-16.836 10.122-6.3607 20.62-3.7416 53.61 13.095 32.991 16.463 42.364 14.966 42.364-7.1086 0-6.7352 7.1227-11.225 17.995-11.225 3.374 0 17.246 6.7352 31.117 15.341 29.992 17.959 38.24 17.959 40.864-0.37496 2.625-18.708 14.996-19.082 47.238-2.2446 23.994 13.095 49.064 17.584 49.064 9.7277" fill="none" stroke="#000" stroke-linecap="round" stroke-linejoin="round" stroke-width="8.7389"/>
  <path d="m292.83 522.19c0.7501 2.9937 8.6229 7.4831 16.87 10.476 14.996 5.2384 16.121 5.2384 30.742-4.4894 19.87-13.095 32.241-12.72 54.735 1.4968 33.742 21.326 42.739 21.7 52.861 2.9926 7.4982-14.592 24.369-14.592 53.236 0.37496 12.373 6.3607 25.119 11.225 28.868 11.225 3.3741 0 11.621-5.9862 17.995-13.095 14.246-16.463 22.494-15.341 59.234 5.9862 29.617 17.584 39.74 18.707 42.739 4.115 4.1242-18.332 7.4983-21.326 24.743-21.326 10.498 0.37496 26.243 4.8639 42.365 12.347 13.871 6.7341 28.117 11.972 30.742 11.972 2.9985 0 6.3736-5.2383 7.8728-11.599 1.1247-6.3597 5.998-13.843 10.122-16.836 10.122-6.3597 20.62-3.7415 53.611 13.096 32.99 16.462 42.364 14.965 42.364-7.1096 0-6.7342 7.1227-11.224 17.995-11.224 3.3741 0 17.246 6.7342 31.117 15.34 29.992 17.959 38.24 17.959 40.864-0.37496 2.6249-18.707 14.996-19.081 47.238-2.2448 23.994 13.095 46.488 17.585 46.488 9.7277" fill="none" stroke="#fff" stroke-linecap="round" stroke-linejoin="round" stroke-width="8.7389"/>
  <path d="m358.65 573.86c-6.4224 4.12-5.7091 4.4375 5.7091 2.8528 9.6341-1.2681 16.057 0.31697 28.903 7.6069 24.621 14.262 34.969 15.214 51.383 5.0706 19.626-11.727 27.476-13.946 42.819-10.776 11.776 2.2188 12.846 2.2188 8.2075-1.9013-9.9907-9.1915-29.616-9.1915-47.101 0-19.982 10.142-29.616 10.459-52.096 0.31697-20.339-9.1916-27.832-9.8256-37.824-3.1694zm368.24 9.5081c-13.559 7.9244-28.546 14.263-33.541 14.263-4.9958 0-20.339-6.0221-33.899-13.312-23.193-12.362-25.334-12.995-36.039-9.1915-29.616 10.776-48.885 14.262-63.159 10.776-16.414-3.8035-17.841-1.2682-3.5683 6.3387 13.917 7.2904 26.049 6.9728 53.167-1.5846 22.481-6.9728 22.837-6.9728 33.899-0.9509 44.603 23.771 57.449 25.038 80.643 8.5576 26.762-19.017 37.824-20.602 76.003-9.5092 22.837 6.6563 24.622 6.6563 35.683 1.9023l11.775-5.3882h-14.63c-8.2065-0.31697-25.691-3.8034-38.537-8.2409-13.202-4.4375-28.189-7.9234-33.541-7.9234-5.7091 0-20.339 6.0222-34.256 14.262zm209.81-1.5846c-4.2816 1.5846-8.9208 4.121-10.348 6.0221-2.854 4.4375-21.409 4.4375-31.401 0-6.0657-2.5353-5.7091-1.5846 2.1408 4.7541 12.132 9.8256 21.053 10.46 36.753 1.9022 11.062-6.3387 12.489-6.3387 24.978-1.5846 21.053 7.6069 24.978 5.3881 8.2075-4.7541-16.772-10.143-18.912-10.46-30.331-6.3397zm-112.04 41.204c-10.348 6.9728-22.837 12.679-27.476 12.679-4.2826 0-17.842-4.4375-29.26-9.8256l-21.41-10.142-13.559 6.9727c-7.4933 3.8035-17.842 8.5576-23.194 10.46-5.7091 2.2178-9.9907 5.0705-9.9907 6.3387 0 4.7541 11.418 2.5353 27.118-5.7057 17.485-9.1915 27.476-8.5575 44.604 1.9023 23.551 15.214 31.044 14.58 57.092-3.8035 16.414-11.727 27.832-12.044 55.664-1.2682 20.697 7.6069 23.194 7.9244 33.899 3.8035l11.775-4.4375-12.489-0.31697c-6.779-0.31696-22.836-4.7541-34.969-9.8256-12.488-5.3881-26.405-9.508-30.686-9.508-4.2826 0-16.772 5.7047-27.119 12.677zm-292.24 1.5847c-16.771 13.629-27.476 13.947-44.961 1.5846-16.056-11.41-26.761-11.727-48.171-1.5846-12.131 5.7057-14.63 7.9243-9.9907 9.509 3.2107 1.2672 10.705-0.31796 16.771-2.8528 15.7-7.2904 23.551-6.3388 43.533 6.0221 9.9907 6.0222 19.625 11.093 21.052 11.093 1.4275 0 9.2774-4.4365 17.485-9.5081 24.977-16.164 29.973-16.798 54.237-7.9234 22.123 8.5575 28.547 7.9234 39.251-3.4869 4.6382-5.0716 4.2816-5.0716-2.855-1.9012-11.418 5.3881-19.625 4.7541-41.035-4.121-24.622-10.142-28.903-10.142-45.317 3.1694zm-194.83 20.919c-4.2826 1.9013-9.635 6.0222-11.776 9.5082-4.2816 5.7057-3.9249 6.0221 2.4984 3.1694 8.9198-4.4365 24.264-4.4365 27.118 0 1.4275 1.9022 8.9208 7.6069 16.771 12.678 18.556 11.727 33.899 12.044 52.81 0.9509 14.273-8.241 23.907-8.874 44.604-2.8529 4.9948 1.5857 4.2816-0.31696-3.5683-6.0211-13.56-10.46-27.476-10.46-48.172 0-18.911 9.5081-25.334 8.5575-48.884-8.241-19.626-13.629-20.339-13.947-31.401-9.1916zm255.13 14.262c-6.78 4.4375-14.987 9.1915-17.842 10.777-2.854 1.5846-4.2816 3.4859-3.2117 4.4365 1.0709 1.2682 9.635-1.5847 18.912-6.0222 9.2774-4.4365 19.626-7.9234 22.836-7.9234 3.5683 0 13.917 5.7057 23.907 12.995 19.626 14.263 25.691 14.58 47.816 0.95089 16.413-9.8256 19.981-9.5082 39.607 1.9022 20.339 12.044 28.546 12.044 52.81-0.31796 21.766-10.776 29.616-10.459 51.383 2.2188 7.4933 4.121 16.057 7.6069 18.911 7.6069 8.2075 0 23.907-7.9234 32.115-15.847l7.1366-6.9738-12.489 6.6563c-16.771 8.875-27.119 8.2409-48.171-2.8528-22.481-11.727-28.903-11.727-48.529 0-19.982 11.728-30.33 12.044-49.955 0-19.982-11.727-30.331-12.043-48.171 0-17.485 11.728-21.766 11.728-37.111 0.63393-14.63-10.776-26.405-16.481-32.828-16.481-2.4974 0.31696-10.347 3.8035-17.127 8.24z" fill="#fff"/>
</svg>
