<?xml version="1.0" encoding="UTF-8"?>
<!-- Created with Inkscape (http://www.inkscape.org/) -->
<svg width="1e3" height="600" version="1.0" xmlns="http://www.w3.org/2000/svg" xmlns:cc="http://creativecommons.org/ns#" xmlns:dc="http://purl.org/dc/elements/1.1/" xmlns:rdf="http://www.w3.org/1999/02/22-rdf-syntax-ns#">
  <metadata>
    <rdf:RDF>
      <cc:Work rdf:about="">
        <dc:title/>
        <dc:description/>
        <dc:subject>
          <rdf:Bag>
            <rdf:li/>
            <rdf:li>united_nations_member</rdf:li>
            <rdf:li>latin_america</rdf:li>
            <rdf:li>america</rdf:li>
            <rdf:li>south_america</rdf:li>
            <rdf:li>flag</rdf:li>
            <rdf:li>sign</rdf:li>
          </rdf:Bag>
        </dc:subject>
        <dc:publisher>
          <cc:Agent rdf:about="http://www.openclipart.org">
            <dc:title>Caleb Moore</dc:title>
          </cc:Agent>
        </dc:publisher>
        <dc:creator>
          <cc:Agent>
            <dc:title>Caleb Moore</dc:title>
          </cc:Agent>
        </dc:creator>
        <dc:rights>
          <cc:Agent>
            <dc:title>Caleb Moore</dc:title>
          </cc:Agent>
        </dc:rights>
        <dc:date/>
        <dc:format>image/svg+xml</dc:format>
        <dc:type rdf:resource="http://purl.org/dc/dcmitype/StillImage"/>
        <cc:license rdf:resource="http://web.resource.org/cc/PublicDomain"/>
        <dc:language>en</dc:language>
      </cc:Work>
      <cc:License rdf:about="http://web.resource.org/cc/PublicDomain">
        <cc:permits rdf:resource="http://web.resource.org/cc/Reproduction"/>
        <cc:permits rdf:resource="http://web.resource.org/cc/Distribution"/>
        <cc:permits rdf:resource="http://web.resource.org/cc/DerivativeWorks"/>
      </cc:License>
    </rdf:RDF>
  </metadata>
  <rect width="1e3" height="600" fill="#fff" fill-rule="evenodd" stroke-width="1pt"/>
  <rect y="400" width="1e3" height="200" fill="#0038a8" fill-rule="evenodd" stroke-width="1pt"/>
  <rect width="1e3" height="200" fill="#ce1126" fill-rule="evenodd" stroke-width="1pt"/>
  <g transform="matrix(1.2 0 0 1.2 -100 0)">
    <path d="m563.5 250a63.5 63.5 0 1 1-127 0 63.5 63.5 0 1 1 127 0z" fill="#fff" fill-rule="evenodd" stroke="#000" stroke-width="2.5"/>
    <path d="m508.59 220.33s24.478 10.546 20.204 32.339c-4.2743 21.792-17.902 21.647-23.246 24.055-5.3438 2.4082-9.0303 5.8551-11.139 5.3731-2.1086-0.48207-4.8956-2.1093-4.8956-2.1093s-0.22305 3.5792 4.069 4.2304c4.2921 0.65128 9.934-5.6487 12.644-6.3491 2.7099-0.70044 19.348-2.5064 23.396-24.681 4.7246-23.669-20.881-32.164-21.032-32.858z" fill="#006700" fill-rule="evenodd" stroke="#000" stroke-width=".17092"/>
    <path transform="matrix(.031118 -.0023866 .0076556 .030034 507.25 211.1)" d="m320.26 487.2a25.903 108.32 0 1 1-51.807 0 25.903 108.32 0 1 1 51.807 0z" fill="#006700" fill-rule="evenodd" stroke="#000" stroke-width="2.5532"/>
    <path transform="matrix(.028177 -.010293 .014176 .028639 504.17 214.54)" d="m320.26 487.2a25.903 108.32 0 1 1-51.807 0 25.903 108.32 0 1 1 51.807 0z" fill="#006700" fill-rule="evenodd" stroke="#000" stroke-width="2.5532"/>
    <path transform="matrix(.0029528 -.031978 .029013 .0084919 502.57 232.92)" d="m320.26 487.2a25.903 108.32 0 1 1-51.807 0 25.903 108.32 0 1 1 51.807 0z" fill="#006700" fill-rule="evenodd" stroke="#000" stroke-width="2.5532"/>
    <path transform="matrix(.013589 -.02695 .026423 .017719 500.79 225.92)" d="m320.26 487.2a25.903 108.32 0 1 1-51.807 0 25.903 108.32 0 1 1 51.807 0z" fill="#006700" fill-rule="evenodd" stroke="#000" stroke-width="2.5532"/>
    <path transform="matrix(.020572 -.021085 .022439 .023321 501.53 220.88)" d="m320.26 487.2a25.903 108.32 0 1 1-51.807 0 25.903 108.32 0 1 1 51.807 0z" fill="#006700" fill-rule="evenodd" stroke="#000" stroke-width="2.5532"/>
    <path d="m520.76 228.56c0.0141 0.0146-0.94434 0.53239-1.1613 0.60965-0.217 0.0772-0.51115-0.28902-1.1352 0.0313-0.62406 0.32028-1.0524 0.90449-1.1887 1.2473s0.17681 0.48652 0.93107 0.1199c0.75427-0.36662 0.95279-0.9475 1.3165-1.1751 0.36366-0.22756 0.97366-0.56248 1.3209-0.68608 0.1503-0.32822 0.63853-1.0319 0.8909-1.4357 0.25236-0.4038 1.2425-1.0703 1.603-1.8462 0.31465-0.64185 0.1965-1.1885-0.22463-0.96008-0.42114 0.22842-0.96563 0.87359-1.2192 1.3367-0.25357 0.46313-0.0358 1.0528-0.31749 1.4867-0.22182 0.31445-0.75829 1.2707-0.81575 1.2716z" fill="#006700" fill-rule="evenodd" stroke="#000" stroke-width=".044747"/>
    <path transform="matrix(.043886 .010508 .00065626 .046439 513.96 205.09)" d="m320.26 487.2a25.903 108.32 0 1 1-51.807 0 25.903 108.32 0 1 1 51.807 0z" fill="#006700" fill-rule="evenodd" stroke="#000" stroke-width="2.5532"/>
    <path transform="matrix(.04243 -.0021314 .010148 .04736 508.55 208.63)" d="m320.26 487.2a25.903 108.32 0 1 1-51.807 0 25.903 108.32 0 1 1 51.807 0z" fill="#006700" fill-rule="evenodd" stroke="#000" stroke-width="2.5532"/>
    <path transform="matrix(.014679 -.044477 .037368 .025146 500.25 234.24)" d="m320.26 487.2a25.903 108.32 0 1 1-51.807 0 25.903 108.32 0 1 1 51.807 0z" fill="#006700" fill-rule="evenodd" stroke="#000" stroke-width="2.5532"/>
    <path transform="matrix(.027744 -.032515 .030725 .037201 500.1 223.42)" d="m320.26 487.2a25.903 108.32 0 1 1-51.807 0 25.903 108.32 0 1 1 51.807 0z" fill="#006700" fill-rule="evenodd" stroke="#000" stroke-width="2.5532"/>
    <path transform="matrix(.035472 -.02099 .023353 .043441 502.79 216.54)" d="m320.26 487.2a25.903 108.32 0 1 1-51.807 0 25.903 108.32 0 1 1 51.807 0z" fill="#006700" fill-rule="evenodd" stroke="#000" stroke-width="2.5532"/>
    <path d="m526.87 236.14c0.0146 0.0272-1.4841 0.33985-1.8102 0.35339-0.3261 0.0135-0.61217-0.64266-1.5825-0.46325s-1.757 0.82438-2.0592 1.2544c-0.3022 0.43006 0.0837 0.7759 1.2497 0.58839s1.6333-0.93058 2.2123-1.0938c0.57899-0.16316 1.5347-0.36982 2.0564-0.39146 0.31684-0.40281 1.226-1.192 1.7092-1.6574 0.48322-0.46538 2.0752-0.97677 2.8313-1.9267 0.64831-0.77841 0.66571-1.6142 7e-3 -1.4755-0.65888 0.13866-1.6266 0.81898-2.1311 1.3688-0.50455 0.54979-0.39819 1.4917-0.93203 1.9871-0.41133 0.35106-1.471 1.4806-1.5508 1.456z" fill="#006700" fill-rule="evenodd" stroke="#000" stroke-width=".06533"/>
    <path transform="matrix(.040999 .018808 -.007736 .045991 522.96 212.79)" d="m320.26 487.2a25.903 108.32 0 1 1-51.807 0 25.903 108.32 0 1 1 51.807 0z" fill="#006700" fill-rule="evenodd" stroke="#000" stroke-width="2.5532"/>
    <path transform="matrix(.041856 .0060452 .0013756 .048725 517.03 215.25)" d="m320.26 487.2a25.903 108.32 0 1 1-51.807 0 25.903 108.32 0 1 1 51.807 0z" fill="#006700" fill-rule="evenodd" stroke="#000" stroke-width="2.5532"/>
    <path transform="matrix(.022371 -.041108 .031988 .032013 504.31 238.95)" d="m320.26 487.2a25.903 108.32 0 1 1-51.807 0 25.903 108.32 0 1 1 51.807 0z" fill="#006700" fill-rule="evenodd" stroke="#000" stroke-width="2.5532"/>
    <path transform="matrix(.032983 -.026784 .023321 .042643 506.11 228.23)" d="m320.26 487.2a25.903 108.32 0 1 1-51.807 0 25.903 108.32 0 1 1 51.807 0z" fill="#006700" fill-rule="evenodd" stroke="#000" stroke-width="2.5532"/>
    <path transform="matrix(.038458 -.013917 .014989 .04739 509.98 221.95)" d="m320.26 487.2a25.903 108.32 0 1 1-51.807 0 25.903 108.32 0 1 1 51.807 0z" fill="#006700" fill-rule="evenodd" stroke="#000" stroke-width="2.5532"/>
    <path d="m529.98 245.94c9e-3 0.0297-1.5119 0.0506-1.8331 1e-3 -0.32117-0.0493-0.48241-0.75231-1.4632-0.7615-0.98078-9e-3 -1.8661 0.47669-2.239 0.84338-0.37295 0.3667-0.0581 0.78241 1.1154 0.82118 1.1735 0.0388 1.7643-0.60535 2.3596-0.65531 0.59535-0.0499 1.5668-0.0705 2.0806 8e-3 0.38236-0.33697 1.4134-0.94181 1.9696-1.3086 0.55625-0.36681 2.2046-0.56608 3.115-1.359 0.7741-0.64426 0.94187-1.4664 0.27288-1.456-0.66902 0.0104-1.7376 0.49642-2.3299 0.94249-0.59233 0.44608-0.6583 1.3968-1.2694 1.7835-0.46537 0.26771-1.7048 1.1797-1.7784 1.1402z" fill="#006700" fill-rule="evenodd" stroke="#000" stroke-width=".06533"/>
    <path transform="matrix(.029813 .034391 -.02486 .03945 535.18 222.31)" d="m320.26 487.2a25.903 108.32 0 1 1-51.807 0 25.903 108.32 0 1 1 51.807 0z" fill="#006700" fill-rule="evenodd" stroke="#000" stroke-width="2.5532"/>
    <path transform="matrix(.035545 .022911 -.017673 .045751 528.86 222.14)" d="m320.26 487.2a25.903 108.32 0 1 1-51.807 0 25.903 108.32 0 1 1 51.807 0z" fill="#006700" fill-rule="evenodd" stroke="#000" stroke-width="2.5532"/>
    <path transform="matrix(.036213 -.02887 .016529 .042911 508.14 238.86)" d="m320.26 487.2a25.903 108.32 0 1 1-51.807 0 25.903 108.32 0 1 1 51.807 0z" fill="#006700" fill-rule="evenodd" stroke="#000" stroke-width="2.5532"/>
    <path transform="matrix(.040258 -.0112 .0045546 .049185 513.93 229.66)" d="m320.26 487.2a25.903 108.32 0 1 1-51.807 0 25.903 108.32 0 1 1 51.807 0z" fill="#006700" fill-rule="evenodd" stroke="#000" stroke-width="2.5532"/>
    <path transform="matrix(.040219 .002994 -.0048311 .050142 519.87 225.44)" d="m320.26 487.2a25.903 108.32 0 1 1-51.807 0 25.903 108.32 0 1 1 51.807 0z" fill="#006700" fill-rule="evenodd" stroke="#000" stroke-width="2.5532"/>
    <path d="m528.67 255.96c-3e-3 0.0314-1.3884-0.57818-1.66-0.75665-0.27162-0.1785-0.14462-0.89707-1.0289-1.3111-0.88432-0.41401-1.8744-0.32946-2.3544-0.14362s-0.3564 0.7015 0.69089 1.2226c1.0473 0.52111 1.8322 0.16807 2.3906 0.36789 0.55835 0.19984 1.4457 0.5824 1.8803 0.86798 0.47697-0.1544 1.6452-0.28901 2.2912-0.39919 0.64599-0.11017 2.2155 0.3865 3.3476 0.0276 0.95092-0.2774 1.422-0.97036 0.81234-1.2373-0.60968-0.26696-1.7658-0.25805-2.4752-0.0893-0.70942 0.16876-1.1383 1.0231-1.8417 1.129-0.52524 0.0558-2.0014 0.38912-2.0527 0.322z" fill="#006700" fill-rule="evenodd" stroke="#000" stroke-width=".06533"/>
    <path transform="matrix(.021515 .048746 -.040331 .034551 542.33 231.59)" d="m320.26 487.2a25.903 108.32 0 1 1-51.807 0 25.903 108.32 0 1 1 51.807 0z" fill="#006700" fill-rule="evenodd" stroke="#000" stroke-width="2.5532"/>
    <path transform="matrix(.031597 .038147 -.03449 .044107 535.42 229.11)" d="m320.26 487.2a25.903 108.32 0 1 1-51.807 0 25.903 108.32 0 1 1 51.807 0z" fill="#006700" fill-rule="evenodd" stroke="#000" stroke-width="2.5532"/>
    <path transform="matrix(.04935 -.018767 .0040914 .053344 507.12 240.06)" d="m320.26 487.2a25.903 108.32 0 1 1-51.807 0 25.903 108.32 0 1 1 51.807 0z" fill="#006700" fill-rule="evenodd" stroke="#000" stroke-width="2.5532"/>
    <path transform="matrix(.047996 .0022004 -.011151 .055938 516.51 232.01)" d="m320.26 487.2a25.903 108.32 0 1 1-51.807 0 25.903 108.32 0 1 1 51.807 0z" fill="#006700" fill-rule="evenodd" stroke="#000" stroke-width="2.5532"/>
    <path transform="matrix(.043287 .017854 -.021797 .053599 524.44 229.5)" d="m320.26 487.2a25.903 108.32 0 1 1-51.807 0 25.903 108.32 0 1 1 51.807 0z" fill="#006700" fill-rule="evenodd" stroke="#000" stroke-width="2.5532"/>
    <path d="m524.1 266.37c-0.0137 0.0336-1.3382-1.1404-1.5786-1.4357-0.24032-0.29527 0.13563-1.0425-0.70172-1.8194-0.83736-0.77688-1.955-1.0417-2.5445-1.0102-0.58945 0.0315-0.62286 0.64539 0.35869 1.5994s1.9616 0.84831 2.5106 1.2709c0.54893 0.42256 1.4 1.1658 1.7845 1.6383 0.57578 2e-3 1.9059 0.27613 2.6533 0.38821 0.74729 0.11209 2.3118 1.2281 3.6758 1.2415 1.1379 0.0378 1.8842-0.55667 1.3008-1.0719-0.58339-0.51523-1.8589-0.92361-2.6952-0.99394-0.83637-0.0704-1.5892 0.71754-2.3983 0.57998-0.59652-0.12835-2.331-0.2945-2.3654-0.38714z" fill="#006700" fill-rule="evenodd" stroke="#000" stroke-width=".075453"/>
    <path transform="matrix(-.0058601 .058803 -.057798 .0095344 551.73 250.6)" d="m320.26 487.2a25.903 108.32 0 1 1-51.807 0 25.903 108.32 0 1 1 51.807 0z" fill="#006700" fill-rule="evenodd" stroke="#000" stroke-width="2.5532"/>
    <path transform="matrix(.0096602 .054553 -.05738 .022 546.42 244.25)" d="m320.26 487.2a25.903 108.32 0 1 1-51.807 0 25.903 108.32 0 1 1 51.807 0z" fill="#006700" fill-rule="evenodd" stroke="#000" stroke-width="2.5532"/>
    <path transform="matrix(.057882 .010694 -.025188 .053098 513.12 238.3)" d="m320.26 487.2a25.903 108.32 0 1 1-51.807 0 25.903 108.32 0 1 1 51.807 0z" fill="#006700" fill-rule="evenodd" stroke="#000" stroke-width="2.5532"/>
    <path transform="matrix(.045122 .029851 -.041316 .04675 526.59 236.08)" d="m320.26 487.2a25.903 108.32 0 1 1-51.807 0 25.903 108.32 0 1 1 51.807 0z" fill="#006700" fill-rule="evenodd" stroke="#000" stroke-width="2.5532"/>
    <path transform="matrix(.032028 .042015 -.050314 .038368 535.61 238.27)" d="m320.26 487.2a25.903 108.32 0 1 1-51.807 0 25.903 108.32 0 1 1 51.807 0z" fill="#006700" fill-rule="evenodd" stroke="#000" stroke-width="2.5532"/>
    <path d="m515.14 273.14c-0.0315 0.024-0.66871-1.8586-0.73941-2.2784s0.70033-0.91302 0.31648-2.1362c-0.38385-1.2231-1.3179-2.1214-1.904-2.4324-0.58613-0.31097-0.95368 0.25355-0.52744 1.7286 0.42624 1.475 1.4299 1.9413 1.729 2.6606 0.299 0.71935 0.71443 1.9185 0.82751 2.5902 0.55457 0.33502 1.6887 1.3649 2.3488 1.9037 0.66003 0.53879 1.5604 2.505 2.8697 3.3066 1.0776 0.69407 2.1226 0.56031 1.841-0.26705-0.28164-0.82741-1.2897-1.9535-2.0584-2.5041-0.76882-0.55063-1.9258-0.23673-2.6316-0.83549-0.50563-0.46707-2.0889-1.6282-2.0715-1.7362z" fill="#006700" fill-rule="evenodd" stroke="#000" stroke-width=".083812"/>
    <path transform="matrix(-.00023175 .082235 -.078849 .0011586 551.35 253.24)" d="m314.71 506.2a22.479 81.591 0 1 1-44.959 0 22.479 81.591 0 1 1 44.959 0z" fill="#006700" fill-rule="evenodd" stroke="#000" stroke-width="2.5532"/>
    <path transform="matrix(.061006 .051015 -.049956 .064509 516.6 225.22)" d="m314.71 506.2a22.479 81.591 0 1 1-44.959 0 22.479 81.591 0 1 1 44.959 0z" fill="#006700" fill-rule="evenodd" stroke="#000" stroke-width="2.5532"/>
    <path transform="matrix(.029058 .075928 -.0733 .031606 539.38 236.99)" d="m314.71 506.2a22.479 81.591 0 1 1-44.959 0 22.479 81.591 0 1 1 44.959 0z" fill="#006700" fill-rule="evenodd" stroke="#000" stroke-width="2.5532"/>
    <path transform="matrix(.033745 -.018384 .036302 .032688 484.18 210.12)" d="m314.71 506.2a22.479 81.591 0 1 1-44.959 0 22.479 81.591 0 1 1 44.959 0z" fill="#006700" fill-rule="evenodd" stroke="#000" stroke-width="2.5532"/>
    <path transform="matrix(-.0068516 -.036957 .049088 .006378 488.5 230.94)" d="m314.71 506.2a22.479 81.591 0 1 1-44.959 0 22.479 81.591 0 1 1 44.959 0z" fill="#006700" fill-rule="evenodd" stroke="#000" stroke-width="2.5532"/>
    <path transform="matrix(.017856 -.029206 .046235 .023527 482.96 218.78)" d="m314.71 506.2a22.479 81.591 0 1 1-44.959 0 22.479 81.591 0 1 1 44.959 0z" fill="#006700" fill-rule="evenodd" stroke="#000" stroke-width="2.5532"/>
    <path d="m482.99 273.44s5.3919 1.1564 10.079 2.86c4.6874 1.7036 11.809 7.5509 13.724 7.8822 2.1472 0.0977 5.1249-0.63519 6.255-3.7355-3.3067 0.88199-5.2898 2.2218-8.4465 0.48742-1.1153-0.42245-4.7677-3.7479-8.7713-5.5278-4.0037-1.7799-12.079-3.8089-12.079-3.8089l-0.76149 1.8425z" fill="#006700" fill-rule="evenodd" stroke="#000" stroke-width=".088588"/>
    <path d="m488.74 224.7c-0.0193-0.0462 6.2065-3.2746 6.2065-3.2746l-6.8441 1.7502-0.79514 1.2041 1.4327 0.32031z" fill="#006700" fill-rule="evenodd" stroke="#000" stroke-width=".10842"/>
    <path d="m494.63 226.21c-2.4029-0.43681-6.0984-1.2448-8.4513-1.4333 1.6263-1.8013 3.8672-4.8475 5.2482-6.7174-0.91196 1.7834-2.3435 4.1352-2.9085 5.8423 1.6564 0.89407 4.26 1.5941 6.1116 2.3084z" fill="#006700" fill-rule="evenodd" stroke="#000" stroke-width=".10842"/>
    <path d="m487.62 225.08c-0.027-0.0426 5.5153-4.2703 5.5153-4.2703l-6.4056 2.8656-0.57012 1.3243 1.4604 0.0804z" fill="#006700" fill-rule="evenodd" stroke="#000" stroke-width=".10842"/>
    <path d="m493.51 226.15c-2.4196-0.46002-6.1434-1.3083-8.508-1.5115 1.5978-1.8555 3.7885-4.9951 5.1388-6.9222-0.88122 1.8396-2.273 4.2644-2.8076 6.0264 1.6792 0.92981 4.3051 1.6626 6.1768 2.4073z" fill="#006700" fill-rule="evenodd" stroke="#000" stroke-width=".1104"/>
    <path d="m486.7 225.42c-0.0151-0.0475 6.4948-2.7202 6.4948-2.7202l-6.9938 1.151-0.90293 1.128 1.402 0.44126z" fill="#006700" fill-rule="evenodd" stroke="#000" stroke-width=".10842"/>
    <path d="m492.78 226.2c-2.4473-0.20403-6.2302-0.66062-8.5929-0.60955 1.3621-2.0602 3.1597-5.4903 4.2686-7.5964-0.65526 1.966-1.7467 4.5825-2.0682 6.4318 1.7702 0.76224 4.4537 1.221 6.3925 1.7741z" fill="#006700" fill-rule="evenodd" stroke="#000" stroke-width=".1114"/>
    <path d="m486.04 225.45c-0.0356-0.0361 4.4-5.3615 4.4-5.3615l-5.5753 4.1688-0.25872 1.422 1.434-0.22933z" fill="#006700" fill-rule="evenodd" stroke="#000" stroke-width=".10842"/>
    <path d="m492.74 226.55c-2.6222-0.0499-6.6897-0.28103-9.1963-0.0584 1.2407-2.3447 2.8066-6.2154 3.7735-8.5924-0.49877 2.192-1.3957 5.1248-1.5514 7.1659 1.9585 0.70692 4.8575 1.0182 6.9742 1.4849z" fill="#006700" fill-rule="evenodd" stroke="#000" stroke-width=".12036"/>
    <path d="m485.15 226.72c-0.034-0.0469 5.3432-5.1267 5.3432-5.1267l-6.4653 3.5771-0.44282 1.5322 1.565 0.0173z" fill="#006700" fill-rule="evenodd" stroke="#000" stroke-width=".11951"/>
    <path d="m491.57 226.73c-2.818 0.0107-7.1573-0.14221-9.907 0.16571 1.8241-2.614 4.3152-6.917 5.8506-9.5597-0.99219 2.4271-2.5674 5.6804-3.1583 7.9327 1.966 0.72973 5.0283 1.0001 7.2147 1.4613z" fill="#006700" fill-rule="evenodd" stroke="#000" stroke-width=".13091"/>
    <path d="m483.35 227.1c-0.0269-0.0508 6.8255-5.7811 6.8255-5.7811l-7.7147 4.1022-0.79512 1.6989 1.6844-0.0201z" fill="#006700" fill-rule="evenodd" stroke="#000" stroke-width=".12998"/>
    <path d="m490.55 226.9c-2.7906 0.40245-7.1119 0.85707-9.7924 1.5398 1.4329-2.8019 3.2846-7.3432 4.4275-10.133-0.6354 2.504-1.7301 5.8946-1.9929 8.1724 2.0525 0.43786 5.1254 0.27536 7.3578 0.42078z" fill="#006700" fill-rule="evenodd" stroke="#000" stroke-width=".12998"/>
    <path d="m482.44 228.25c-0.0395-0.0409 5.259-7.2844 5.259-7.2844l-6.563 5.9342-0.3517 1.818 1.6557-0.46783z" fill="#006700" fill-rule="evenodd" stroke="#000" stroke-width=".12998"/>
    <path d="m489.01 227.76c-2.8099 0.26165-7.1517 0.49854-9.8673 1.0455 1.5887-2.7254 3.6935-7.1663 4.9918-9.894-0.77539 2.468-2.0594 5.798-2.4499 8.0589 2.0254 0.54021 5.1039 0.53228 7.3255 0.78957z" fill="#006700" fill-rule="evenodd" stroke="#000" stroke-width=".12998"/>
    <path d="m481.49 229.01c-0.0273-0.0515 6.6946-5.7933 6.6946-5.7933l-7.5956 4.0935-0.76775 1.7099 1.6687-0.01z" fill="#006700" fill-rule="evenodd" stroke="#000" stroke-width=".12998"/>
    <path d="m488.19 228.06c-2.8013 0.59081-7.1477 1.3396-9.8236 2.199 1.3088-2.8614 2.9541-7.4663 3.9702-10.295-0.51733 2.5123-1.4548 5.9302-1.6067 8.1936 2.097 0.28876 5.1958-0.0852 7.4601-0.0972z" fill="#006700" fill-rule="evenodd" stroke="#000" stroke-width=".12998"/>
    <path d="m480.38 229.31c-0.0458-0.0325 4.2766-7.9406 4.2766-7.9406l-5.7885 6.8664-0.0957 1.8142 1.6075-0.73992z" fill="#006700" fill-rule="evenodd" stroke="#000" stroke-width=".12998"/>
    <path d="m488.19 228.5c-3.0055 0.78181-7.6892 1.8072-10.524 2.8836 1.0886-3.253 2.3343-8.4683 3.1053-11.673-0.26174 2.8287-0.87451 6.6873-0.76519 9.2221 2.3391 0.23132 5.6979-0.32121 8.1841-0.43311z" fill="#006700" fill-rule="evenodd" stroke="#000" stroke-width=".1443"/>
    <path d="m479.54 231.15c-0.0455-0.0462 5.3881-7.9578 5.3881-7.9578l-6.8894 6.432-0.29065 2.0075 1.792-0.48171z" fill="#006700" fill-rule="evenodd" stroke="#000" stroke-width=".14327"/>
    <path d="m487 229.41c-2.9543 0.93433-7.5673 2.1998-10.338 3.416 0.93145-3.273 1.9275-8.4934 2.5451-11.701-0.12838 2.8092-0.55799 6.655-0.33085 9.1539 2.3385 0.10264 5.6551-0.62416 8.1239-0.86858z" fill="#006700" fill-rule="evenodd" stroke="#000" stroke-width=".14327"/>
    <path d="m478.45 232.32c-0.0523-0.0369 4.0952-8.7846 4.0952-8.7846l-5.8228 7.5656 0.0264 2.0199 1.7012-0.80089z" fill="#006700" fill-rule="evenodd" stroke="#000" stroke-width=".14327"/>
    <path d="m485.87 230.61c-3.0265 0.68978-7.7346 1.574-10.604 2.5597 1.2246-3.1865 2.6903-8.309 3.5965-11.456-0.38286 2.7898-1.1598 6.5884-1.1604 9.0979 2.3192 0.29356 5.6875-0.15972 8.168-0.20146z" fill="#006700" fill-rule="evenodd" stroke="#000" stroke-width=".14327"/>
    <path d="m477.49 233.16c-0.0363-0.054 6.6915-6.8746 6.6915-6.8746l-7.8884 5.0902-0.64242 1.9308 1.8394-0.14649z" fill="#006700" fill-rule="evenodd" stroke="#000" stroke-width=".14327"/>
    <path d="m484.52 231.8c-2.998 0.4024-7.6502 0.83616-10.513 1.5553 1.3919-3.1219 3.1382-8.1901 4.2168-11.303-0.54546 2.8015-1.5378 6.5905-1.6928 9.1445 2.2468 0.52837 5.5641 0.40053 7.9891 0.60362z" fill="#006700" fill-rule="evenodd" stroke="#000" stroke-width=".14327"/>
    <path d="m476.16 232.48c-0.0492-0.0413 4.5529-8.6019 4.5529-8.6019l-6.1757 7.2381-0.0962 2.0496 1.719-0.68583z" fill="#006700" fill-rule="evenodd" stroke="#000" stroke-width=".14327"/>
    <path d="m484.9 230.78c-3.2604 1.3352-8.3532 3.1959-11.408 4.8418 1.0018-3.8708 2.0579-10.003 2.713-13.771-0.11734 3.2648-0.55885 7.7561-0.28557 10.631 2.5882-0.0813 6.2513-1.2071 8.9807-1.7016z" fill="#006700" fill-rule="evenodd" stroke="#000" stroke-width=".16224"/>
    <path d="m475.53 235.08c-0.0528-0.046 5.4495-9.8712 5.4495-9.8712l-7.1939 8.3525-0.19872 2.3325 1.943-0.81383z" fill="#006700" fill-rule="evenodd" stroke="#000" stroke-width=".16108"/>
    <path d="m483.64 231.99c-3.1949 1.5016-8.1952 3.6255-11.171 5.4215 0.82756-3.8704 1.6087-9.9714 2.0948-13.721 0.0283 3.2229-0.21246 7.6726 0.18832 10.489 2.5798-0.228 6.1859-1.5463 8.8882-2.1894z" fill="#006700" fill-rule="evenodd" stroke="#000" stroke-width=".16108"/>
    <path d="m474.41 236.57c-0.0598-0.0344 3.9767-10.623 3.9767-10.623l-5.9516 9.488 0.15095 2.2999 1.8239-1.1645z" fill="#006700" fill-rule="evenodd" stroke="#000" stroke-width=".16108"/>
    <path d="m482.25 232.88c-3.1874 1.5268-8.1774 3.6905-11.144 5.5097 0.80332-3.8745 1.5459-9.9776 2.0083-13.729 0.0489 3.2204-0.16348 7.6689 0.25559 10.48 2.58-0.24911 6.18-1.5962 8.88-2.2611z" fill="#006700" fill-rule="evenodd" stroke="#000" stroke-width=".16108"/>
    <path d="m473.52 237.83c-0.0486-0.0515 6.1523-9.368 6.1523-9.368l-7.757 7.6675-0.37805 2.3229 1.9828-0.62244z" fill="#006700" fill-rule="evenodd" stroke="#000" stroke-width=".16108"/>
    <path d="m481.95 232.4c-2.8418 2.2687-7.3375 5.6035-9.9002 8.096-4e-3 -3.9109-0.52815-9.9388-0.8443-13.645 0.71308 3.0691 1.4208 7.3794 2.4161 9.9631 2.5039-0.89216 5.7915-3.0934 8.3284-4.4138z" fill="#006700" fill-rule="evenodd" stroke="#000" stroke-width=".16108"/>
    <path d="m473.82 238.29c-0.0682-9e-3 0.71272-11.225 0.71272-11.225l-2.9641 10.914 0.82708 2.0558 1.4243-1.744z" fill="#006700" fill-rule="evenodd" stroke="#000" stroke-width=".16108"/>
    <path d="m481.14 233.43c-2.8501 2.2541-7.3579 5.5658-9.9299 8.0453 0.0122-3.9124-0.4866-9.9454-0.78721-13.655 0.70003 3.0741 1.3896 7.3899 2.3737 9.98 2.5066-0.87891 5.8021-3.0632 8.3434-4.3703z" fill="#006700" fill-rule="evenodd" stroke="#000" stroke-width=".16108"/>
    <path d="m473.11 240.19c-0.0634-0.0267 2.867-10.968 2.867-10.968l-4.961 10.086 0.39144 2.252 1.7026-1.3703z" fill="#006700" fill-rule="evenodd" stroke="#000" stroke-width=".16108"/>
    <path d="m480.82 233.7c-2.6933 2.6534-6.9813 6.5903-9.3623 9.4414-0.42215-4.013-1.6079-10.139-2.3306-13.906 1.0647 3.0679 2.2566 7.4102 3.5609 9.9477 2.4914-1.2022 5.6524-3.8374 8.1321-5.4828z" fill="#006700" fill-rule="evenodd" stroke="#000" stroke-width=".16681"/>
    <path d="m473.12 241.59c-0.0705-0.01 0.53665-11.665 0.53665-11.665l-2.8651 11.334 0.88979 2.1393 1.4387-1.8083z" fill="#006700" fill-rule="evenodd" stroke="#000" stroke-width=".16681"/>
    <path d="m479.97 235.63c-2.8824 2.3831-7.4479 5.8891-10.037 8.5023-0.0901-4.0639-0.76338-10.323-1.1711-14.171 0.80323 3.1827 1.6282 7.6552 2.7119 10.331 2.564-0.94973 5.9078-3.2669 8.4964-4.6619z" fill="#006700" fill-rule="evenodd" stroke="#000" stroke-width=".16681"/>
    <path transform="translate(-.43985 -2.5)" d="m521 250a20.5 20.5 0 1 1-41 0 20.5 20.5 0 1 1 41 0z" fill="#2563c1" fill-rule="evenodd"/>
    <path d="m472.26 242.92c-0.0615-0.0379 4.0611-10.972 4.0611-10.972l-6.09 9.7215 0.15928 2.4082 1.8696-1.1576z" fill="#006700" fill-rule="evenodd" stroke="#000" stroke-width=".16681"/>
    <path d="m479.92 235.68c-2.551 2.6985-6.6128 6.7031-8.8677 9.6012-0.40287-4.0679-1.531-10.276-2.2186-14.094 1.0113 3.1077 2.144 7.5073 3.382 10.077 2.3607-1.2263 5.3551-3.9078 7.7044-5.5835z" fill="#006700" fill-rule="evenodd" stroke="#000" stroke-width=".16354"/>
    <path d="m472.42 243.48c-0.0714-1e-3 -0.48038-11.6-0.48038-11.6l-1.8785 11.553 1.0769 2.0082 1.2819-1.9616z" fill="#006700" fill-rule="evenodd" stroke="#000" stroke-width=".16681"/>
    <path d="m478.67 236.54c-2.4683 2.7227-6.4068 6.7654-8.5735 9.6854-0.52204-4.0689-1.8313-10.274-2.6304-14.091 1.1014 3.1026 2.362 7.4976 3.674 10.059 2.3214-1.2473 5.233-3.9566 7.5299-5.6538z" fill="#006700" fill-rule="evenodd" stroke="#000" stroke-width=".16354"/>
    <path d="m471.77 244.63c-0.0654-0.0193 1.2954-11.784 1.2954-11.784l-3.4552 11.146 0.68861 2.289 1.4712-1.6512z" fill="#006700" fill-rule="evenodd" stroke="#000" stroke-width=".16354"/>
    <path d="m478.14 237c-2.2566 2.9485-5.8803 7.3531-7.8209 10.468-0.82986-3.9962-2.6075-10.041-3.6947-13.759 1.3347 2.9787 2.9264 7.2272 4.4302 9.6472 2.2221-1.4667 4.9221-4.4451 7.0854-6.3568z" fill="#006700" fill-rule="evenodd" stroke="#000" stroke-width=".16354"/>
    <path d="m471.72 245.74c-0.0676-3e-3 -0.7477-11.798-0.7477-11.798l-1.4855 11.705 1.0698 2.0619 1.1634-1.9685z" fill="#006700" fill-rule="evenodd" stroke="#000" stroke-width=".16354"/>
    <path d="m477.91 237.68c-2.1182 3.0873-5.5365 7.7126-7.3288 10.951-1.0358-3.9805-3.1276-9.9739-4.4079-13.661 1.4916 2.9294 3.3057 7.1239 4.939 9.4819 2.1585-1.5935 4.7207-4.7341 6.7977-6.7726z" fill="#006700" fill-rule="evenodd" stroke="#000" stroke-width=".16471"/>
    <path d="m472.46 246.84c-0.066-0.0216 1.2005-11.851 1.2005-11.851l-3.3776 11.14 0.71216 2.3316 1.465-1.6201z" fill="#006700" fill-rule="evenodd" stroke="#000" stroke-width=".16471"/>
    <path d="m477.48 238.77c-1.8259 3.364-4.8044 8.4379-6.2929 11.907-1.3873-3.8134-4.0046-9.4814-5.6082-12.969 1.7453 2.7051 3.9248 6.6231 5.7594 8.7404 2.0003-1.8844 4.2624-5.3632 6.1417-7.6787z" fill="#006700" fill-rule="evenodd" stroke="#000" stroke-width=".16471"/>
    <path d="m472.04 247.82c-0.0664 0.0184-3.312-11.239-3.312-11.239l1.1193 11.846 1.4923 1.6705 0.7004-2.278z" fill="#006700" fill-rule="evenodd" stroke="#000" stroke-width=".16471"/>
    <path d="m477.41 240.09c-1.9024 3.3538-5.0026 8.4123-6.5592 11.871-1.3957-3.8019-4.0407-9.4527-5.6612-12.93 1.7722 2.6969 3.9811 6.6031 5.8496 8.714 2.0701-1.8787 4.4216-5.3469 6.3708-7.6554z" fill="#006700" fill-rule="evenodd" stroke="#000" stroke-width=".16671"/>
    <path d="m472.19 249.93c-0.07 4e-5 -1.216-11.817-1.216-11.817l-1.0946 11.819 1.1827 2.0253 1.1279-2.0266z" fill="#006700" fill-rule="evenodd" stroke="#000" stroke-width=".16671"/>
    <path d="m477.6 241.12c-1.9562 3.3087-5.1374 8.2938-6.7495 11.716-1.3337-3.8344-3.8865-9.5469-5.4502-13.062 1.728 2.7384 3.873 6.6962 5.7068 8.8509 2.1-1.8298 4.5069-5.2424 6.4929-7.5048z" fill="#006700" fill-rule="evenodd" stroke="#000" stroke-width=".16671"/>
    <path d="m472.08 250.88c-0.0697 8e-3 -2.1929-11.605-2.1929-11.605l-0.10713 11.886 1.3457 1.8712 0.95431-2.1516z" fill="#006700" fill-rule="evenodd" stroke="#000" stroke-width=".16671"/>
    <path d="m476.76 242.79c-2.11 3.1687-5.5226 7.9267-7.2946 11.232-1.1484-3.9215-3.424-9.803-4.8173-13.421 1.5942 2.8543 3.5464 6.9553 5.274 9.234 2.1831-1.6818 4.748-4.9231 6.8379-7.0448z" fill="#006700" fill-rule="evenodd" stroke="#000" stroke-width=".16671"/>
    <path d="m471.06 252.17c-0.0682-0.0186 0.98131-11.862 0.98131-11.862l-3.2325 11.248 0.78095 2.2925 1.4702-1.6782z" fill="#006700" fill-rule="evenodd" stroke="#000" stroke-width=".16671"/>
    <path d="m476.89 243.09c-1.8038 3.4317-4.7552 8.6176-6.2104 12.14-1.5058-3.7398-4.3144-9.2741-6.0355-12.68 1.85 2.6197 4.1717 6.4293 6.1009 8.4594 2.0145-1.9649 4.2639-5.53 6.1449-7.9192z" fill="#006700" fill-rule="evenodd" stroke="#000" stroke-width=".16671"/>
    <path d="m470.66 253.16c-0.0678 0.0212-3.6403-11.056-3.6403-11.056l1.4012 11.757 1.5682 1.5997 0.67098-2.3006z" fill="#006700" fill-rule="evenodd" stroke="#000" stroke-width=".16671"/>
    <path d="m476.4 243.97c-1.2596 3.766-3.3849 9.5063-4.2877 13.285-2.0446-3.3453-5.6413-8.1691-7.8475-11.139 2.2149 2.1696 5.0731 5.4052 7.2774 6.9781 1.6875-2.3708 3.3655-6.3653 4.8579-9.1238z" fill="#006700" fill-rule="evenodd" stroke="#000" stroke-width=".16671"/>
    <path d="m473.9 254.06c-0.0672 0.0239-3.9417-10.903-3.9417-10.903l1.7226 11.692 1.6114 1.5362 0.60773-2.3257z" fill="#006700" fill-rule="evenodd" stroke="#000" stroke-width=".16671"/>
    <path d="m476.37 245.12c-1.2324 3.7789-3.3163 9.541-4.1918 13.329-2.0688-3.3236-5.7003-8.1093-7.928-11.056 2.2306 2.1462 5.1122 5.3515 7.3278 6.9012 1.6704-2.3883 3.3196-6.4001 4.792-9.1741z" fill="#006700" fill-rule="evenodd" stroke="#000" stroke-width=".16671"/>
    <path d="m473.94 255.92c-0.0642 0.0341-5.0716-10.196-5.0716-10.196l2.9534 11.322 1.7625 1.2734 0.35569-2.399z" fill="#006700" fill-rule="evenodd" stroke="#000" stroke-width=".16671"/>
    <path d="m475.98 246.08c-0.78793 3.923-2.1925 9.9342-2.6254 13.815-2.4346-2.9984-6.5878-7.2223-9.1367-9.8241 2.4598 1.8079 5.6871 4.5726 8.0634 5.7914 1.3824-2.6072 2.5571-6.8208 3.6987-9.782z" fill="#006700" fill-rule="evenodd" stroke="#000" stroke-width=".16671"/>
    <path d="m474.27 257.52c-0.0692 0.0132-2.7347-11.434-2.7347-11.434l0.45094 11.871 1.4317 1.7758 0.85206-2.2127z" fill="#006700" fill-rule="evenodd" stroke="#000" stroke-width=".16671"/>
    <path d="m476 247.3c-0.41681 4.011-1.2512 10.183-1.3197 14.104-2.6942-2.6567-7.2073-6.3017-9.978-8.5482 2.6084 1.4683 6.0673 3.7856 8.5381 4.6787 1.1289-2.7813 1.9024-7.1335 2.7596-10.235z" fill="#006700" fill-rule="evenodd" stroke="#000" stroke-width=".16671"/>
    <path d="m474.4 258.36c-0.054 0.0528-7.229-8.2544-7.229-8.2544l5.4472 9.9974 1.9905 0.68013-0.20876-2.4231z" fill="#006700" fill-rule="evenodd" stroke="#000" stroke-width=".16671"/>
    <path d="m476.15 248.7c-0.43263 4.0083-1.2914 10.176-1.3753 14.096-2.6839-2.6718-7.1829-6.3422-9.9449-8.6044 2.6028 1.4831 6.0528 3.8198 8.5202 4.727 1.1399-2.7746 1.9306-7.1221 2.8-10.218z" fill="#006700" fill-rule="evenodd" stroke="#000" stroke-width=".16671"/>
    <path d="m475.21 260.27c-0.0625 0.0369-5.5524-9.9501-5.5524-9.9501l3.4881 11.169 1.8222 1.1918 0.24206-2.4106z" fill="#006700" fill-rule="evenodd" stroke="#000" stroke-width=".16671"/>
    <path d="m476.48 250.35c-0.26382 4.0324-0.86244 10.248-0.78197 14.172-2.7904-2.5076-7.4341-5.9032-10.285-7.9966 2.6597 1.3244 6.2006 3.4507 8.7011 4.2076 1.0214-2.8423 1.6283-7.2354 2.3663-10.383z" fill="#006700" fill-rule="evenodd" stroke="#000" stroke-width=".16671"/>
    <path d="m475.91 262.09c-0.0563 0.0492-6.8601-8.6982-6.8601-8.6982l5.0026 10.324 1.9592 0.80583-0.10169-2.4311z" fill="#006700" fill-rule="evenodd" stroke="#000" stroke-width=".16671"/>
    <path d="m476.55 252.2c-0.23955 4.035-0.80071 10.257-0.69668 14.179-2.8051-2.4835-7.4686-5.8389-10.332-7.9077 2.6673 1.3014 6.2205 3.397 8.7252 4.1322 1.0042-2.8514 1.5846-7.2502 2.3036-10.404z" fill="#006700" fill-rule="evenodd" stroke="#000" stroke-width=".16671"/>
    <path d="m476.53 263.57c-0.0651 0.0301-4.81-10.487-4.81-10.487l2.6619 11.481 1.7303 1.3787 0.41782-2.3725z" fill="#006700" fill-rule="evenodd" stroke="#000" stroke-width=".16671"/>
    <path d="m476.73 253.4c0.13763 4.0486 0.15955 10.317 0.62759 14.208-3.0139-2.0943-7.9525-4.8062-10.986-6.4797 2.7672 0.93615 6.4872 2.5436 9.0404 2.9382 0.73103-2.9734 0.89777-7.43 1.3177-10.666z" fill="#006700" fill-rule="evenodd" stroke="#000" stroke-width=".16671"/>
    <path d="m477.37 263.17c-0.0405 0.0664-8.7859-6.0155-8.7859-6.0155l7.4484 8.2078 2.0701 0.10688-0.73257-2.2991z" fill="#006700" fill-rule="evenodd" stroke="#000" stroke-width=".16671"/>
    <path d="m477.01 253.84c0.34954 4.03 0.69934 10.277 1.3715 14.137-3.1274-1.9735-8.2144-4.4899-11.339-6.0433 2.8198 0.82853 6.6288 2.2901 9.206 2.5869 0.57649-2.9912 0.51038-7.4394 0.76163-10.681z" fill="#006700" fill-rule="evenodd" stroke="#000" stroke-width=".16671"/>
    <path d="m478.32 265.41c-0.0538 0.0512-7.3204-8.4149-7.3204-8.4149l5.5446 10.104 2.0037 0.73043-0.22787-2.4193z" fill="#006700" fill-rule="evenodd" stroke="#000" stroke-width=".16671"/>
    <path d="m477.64 255.38c0.51856 4.0131 1.131 10.246 1.9639 14.069-3.1996-1.7871-8.3746-3.9995-11.554-5.3663 2.8447 0.65944 6.7018 1.893 9.2823 2.0348 0.44803-3.0291 0.19422-7.4779 0.30762-10.738z" fill="#006700" fill-rule="evenodd" stroke="#000" stroke-width=".16671"/>
    <path d="m479.78 266.82c-0.0413 0.0657-8.7187-6.1611-8.7187-6.1611l7.3541 8.3288 2.07 0.14219-0.70542-2.3099z" fill="#006700" fill-rule="evenodd" stroke="#000" stroke-width=".16671"/>
    <path d="m477.92 257.08c0.78143 3.966 1.8035 10.144 2.8844 13.89-3.2965-1.485-8.5834-3.2086-11.832-4.275 2.8692 0.39044 6.782 1.2594 9.3545 1.157 0.24393-3.073-0.30347-7.5-0.40721-10.772z" fill="#006700" fill-rule="evenodd" stroke="#000" stroke-width=".16671"/>
    <path d="m480.75 268.05c-0.0545 0.0501-7.2114-8.5485-7.2114-8.5485l5.4117 10.202 1.995 0.76837-0.19537-2.4216z" fill="#006700" fill-rule="evenodd" stroke="#000" stroke-width=".16671"/>
    <path d="m478.39 258.18c1.1445 3.857 2.7343 9.8908 4.1543 13.488-3.3982-1.0424-8.7863-2.0566-12.098-2.6873 2.873 6e-3 6.8227 0.35066 9.3561-0.0958-0.0471-3.1021-1.0035-7.4509-1.4129-10.705z" fill="#006700" fill-rule="evenodd" stroke="#000" stroke-width=".16671"/>
    <path d="m481.13 268.07c-0.015 0.0789-10.074-2.158-10.074-2.158l9.5804 4.7628 1.9352-0.72832-1.4414-1.8764z" fill="#006700" fill-rule="evenodd" stroke="#000" stroke-width=".16671"/>
    <path d="m479.06 259.38c1.1294 3.8626 2.6956 9.904 4.1016 13.509-3.3947-1.0613-8.7799-2.1059-12.089-2.7551 2.8736 0.0224 6.8227 0.38918 9.3584-0.0428-0.0348-3.1017-0.97409-7.4548-1.3707-10.711z" fill="#006700" fill-rule="evenodd" stroke="#000" stroke-width=".16671"/>
    <path d="m482.78 269.13c-0.0301 0.0713-9.6388-4.6552-9.6388-4.6552l8.6451 7.0083 2.0714-0.1941-1.0776-2.159z" fill="#006700" fill-rule="evenodd" stroke="#000" stroke-width=".16671"/>
    <path d="m478.56 260.06c1.9144 3.5198 4.7134 9.0703 6.843 12.276-3.5314-0.2695-8.9987-0.0723-12.36 0.0416 2.8047-0.62807 6.7299-1.1628 9.1096-2.1586-0.68745-3.0237-2.52-7.0659-3.5925-10.159z" fill="#006700" fill-rule="evenodd" stroke="#000" stroke-width=".16671"/>
    <path d="m484.29 270.18c-0.0187 0.0774-10.016-2.7662-10.016-2.7662l9.3998 5.3225 1.9766-0.60363-1.3608-1.9527z" fill="#006700" fill-rule="evenodd" stroke="#000" stroke-width=".16671"/>
    <path d="m479.59 261.55c1.935 3.5062 4.7666 9.0371 6.9147 12.227-3.5303-0.23996-8.9922 3e-3 -12.35 0.14571 2.7986-0.65214 6.7174-1.2203 9.089-2.2369-0.70589-3.0201-2.5623-7.0498-3.6534-10.136z" fill="#006700" fill-rule="evenodd" stroke="#000" stroke-width=".16671"/>
    <path d="m485.57 271.01c-0.0357 0.0673-9.3332-5.5832-9.3332-5.5832l8.1546 7.8039 2.0969 0.0208-0.91829-2.2415z" fill="#006700" fill-rule="evenodd" stroke="#000" stroke-width=".16671"/>
    <path d="m480.37 262.43c2.241 3.2724 5.5592 8.4633 7.9788 11.39-3.4907 0.21888-8.8317 1.1753-12.116 1.7561 2.6854-1.0203 6.4793-2.1022 8.71-3.4332-0.98656-2.9439-3.2012-6.7529-4.5726-9.7128z" fill="#006700" fill-rule="evenodd" stroke="#000" stroke-width=".16671"/>
    <path d="m486.25 271.82c-3e-3 0.082-10.074-0.23739-10.074-0.23739l9.967 2.9454 1.7723-1.1011-1.6649-1.6069z" fill="#006700" fill-rule="evenodd" stroke="#000" stroke-width=".16671"/>
    <path d="m492.09 223.02c1e-3 -0.0315 7.2484-1.2092 7.2484-1.2092l-7.2115 0.16821-1.2581 0.64624 1.2212 0.39479z" fill="#006700" fill-rule="evenodd" stroke="#000" stroke-width=".087376"/>
    <path d="m496.07 224.56c-2.1031-0.63549-5.281-1.7-7.4396-2.1692 2.294-0.91177 5.689-2.5291 7.7782-3.5211-1.6074 1.0062-3.9446 2.299-5.1906 3.3077 1.2035 0.8175 3.3881 1.6512 4.8519 2.3826z" fill="#006700" fill-rule="evenodd" stroke="#000" stroke-width=".088735"/>
    <path d="m491.78 223.26c-8e-3 -0.0303 7.0124-1.9264 7.0124-1.9264l-7.2649 0.92609-1.0956 0.75203 1.3482 0.24831z" fill="#006700" fill-rule="evenodd" stroke="#000" stroke-width=".087376"/>
    <path d="m496.4 225.07c-2.4573-0.2315-6.2258-0.70281-8.6506-0.72703 1.8268-1.6177 4.3879-4.324 5.9657-5.9856-1.0847 1.5615-2.7524 3.6336-3.4715 5.1106 1.6476 0.66131 4.2924 1.104 6.1564 1.602z" fill="#006700" fill-rule="evenodd" stroke="#000" stroke-width=".10129"/>
    <path d="m489.17 223.76c6e-3 -0.0318 7.2883-0.82299 7.2883-0.82299l-7.1016-0.22732-1.3281 0.58393 1.1414 0.46638z" fill="#006700" fill-rule="evenodd" stroke="#000" stroke-width=".087376"/>
    <path d="m494.57 225.35c-2.2344-0.42726-5.6296-1.1716-7.8899-1.4367 2.1474-1.0541 5.277-2.8678 7.2035-3.9808-1.4383 1.0864-3.5605 2.505-4.634 3.5639 1.3607 0.67434 3.713 1.2826 5.3204 1.8537z" fill="#006700" fill-rule="evenodd" stroke="#000" stroke-width=".087376"/>
    <path d="m488.54 223.69c-0.0185-0.0275 6.4153-2.761 6.4153-2.761l-7.0266 1.8548-0.842 0.85538 1.4533 0.0508z" fill="#006700" fill-rule="evenodd" stroke="#000" stroke-width=".087376"/>
    <path d="m494.36 226.17c-1.8594-0.76794-4.7083-2.0688-6.548-2.6103 1.4244-1.3252 3.4318-3.6477 4.6684-5.0724-0.85996 1.4236-2.1744 3.2642-2.7549 4.6759 1.2348 1.0511 3.2316 2.0827 4.6345 3.0067z" fill="#006700" fill-rule="evenodd" stroke="#000" stroke-width=".091106"/>
    <path d="m488.9 224.17c-0.0135-0.043 4.9913-2.1629 4.9913-2.1629l-5.4355 0.74469-0.66832 0.96875 1.1126 0.44946z" fill="#006700" fill-rule="evenodd" stroke="#000" stroke-width=".090457"/>
    <path d="m484.72 270.9c4e-3 0.0799-10.344 0.0781-10.344 0.0781l10.474 2.5607 1.7184-1.126-1.8485-1.5128z" fill="#006700" fill-rule="evenodd" stroke="#000" stroke-width=".16671"/>
    <path d="m486.58 271.58c-0.0126 0.0758-10.506-2.4436-10.506-2.4436l10.089 4.9457 1.9769-0.6361-1.5597-1.866z" fill="#006700" fill-rule="evenodd" stroke="#000" stroke-width=".16671"/>
    <path d="m488.31 272.27c-2e-5 0.0793-10.43-0.52578-10.43-0.52578l10.429 3.1439 1.7882-1.0138-1.7877-1.6043z" fill="#006700" fill-rule="evenodd" stroke="#000" stroke-width=".16671"/>
    <path d="m481.69 264.9c2.7135 2.9905 6.7785 7.7557 9.6256 10.393-3.5036 0.52927-8.7796 1.9456-12.025 2.8093 2.5794-1.2384 6.2724-2.6372 8.3492-4.1377-1.3991-2.7834-4.159-6.2998-5.9497-9.0641z" fill="#006700" fill-rule="evenodd" stroke="#000" stroke-width=".16671"/>
    <path d="m489.74 272.8c-0.019 0.0731-10.426-3.4117-10.426-3.4117l9.7968 5.825 2.0524-0.43271-1.4235-1.9807z" fill="#006700" fill-rule="evenodd" stroke="#000" stroke-width=".16671"/>
    <path d="m482.65 265.59c2.9573 2.6972 7.4175 7.0267 10.468 9.349-3.3571 0.96677-8.3474 3.0502-11.418 4.3242 2.3824-1.5719 5.8326-3.4431 7.6979-5.2188-1.6553-2.6488-4.713-5.8732-6.7477-8.4544z" fill="#006700" fill-rule="evenodd" stroke="#000" stroke-width=".16671"/>
    <path d="m490.6 273.45c0.0161 0.0804-9.8929 1.9453-9.8929 1.9453l10.425 0.71042 1.4718-1.4532-2.0034-1.2025z" fill="#006700" fill-rule="evenodd" stroke="#000" stroke-width=".16671"/>
    <path d="m488.53 272.83c0.01 0.0794-10.319 0.79171-10.319 0.79171l10.647 1.8295 1.6306-1.2409-1.9585-1.3803z" fill="#006700" fill-rule="evenodd" stroke="#000" stroke-width=".16671"/>
    <path d="m490.44 273.37c-7e-3 0.0764-10.669-1.7105-10.669-1.7105l10.441 4.2332 1.9254-0.77044-1.6968-1.7522z" fill="#006700" fill-rule="evenodd" stroke="#000" stroke-width=".16671"/>
    <path d="m492.21 273.95c6e-3 0.079-10.45 0.19573-10.45 0.19573l10.646 2.4138 1.7087-1.1338-1.9047-1.4757z" fill="#006700" fill-rule="evenodd" stroke="#000" stroke-width=".16671"/>
    <path d="m485.05 267.06c2.9329 2.7934 7.348 7.2624 10.388 9.6941-3.4572 0.76932-8.6168 2.545-11.791 3.6299 2.4815-1.4124 6.0624-3.0614 8.0226-4.7003-1.6054-2.6777-4.6241-5.9922-6.619-8.6237z" fill="#006700" fill-rule="evenodd" stroke="#000" stroke-width=".16671"/>
    <path d="m493.69 274.37c-0.0135 0.0742-10.662-2.681-10.662-2.681l10.216 5.1298 2.016-0.57294-1.5695-1.8759z" fill="#006700" fill-rule="evenodd" stroke="#000" stroke-width=".16671"/>
    <path d="m486.07 267.67c3.1542 2.4842 7.9311 6.4917 11.15 8.5959-3.2781 1.1953-8.1025 3.6162-11.072 5.098 2.2598-1.7312 5.5629-3.8343 7.2913-5.7329-1.851-2.5259-5.1451-5.5287-7.3698-7.961z" fill="#006700" fill-rule="evenodd" stroke="#000" stroke-width=".16671"/>
    <path d="m494.59 274.96c0.0221 0.0791-9.728 2.6216-9.728 2.6216l10.458-0.0113 1.3598-1.55-2.0899-1.0603z" fill="#006700" fill-rule="evenodd" stroke="#000" stroke-width=".16671"/>
    <path d="m511.14 261.61-11.122-7.6862-11.122 7.6862 4.1706-12.298-9.7314-7.6863h12.512l4.1706-12.298 4.1706 12.298h12.512l-9.7314 7.6863 4.1706 12.298z" fill="#ffce00" fill-rule="evenodd" stroke-width="0"/>
    <path d="m540.83 250c0 22.541-18.294 40.834-40.834 40.834-22.541 0-40.835-18.294-40.835-40.834 0-22.541 18.294-40.834 40.835-40.834s40.834 18.294 40.834 40.834zm13.612 0c0 30.054-24.392 54.446-54.446 54.446s-54.446-24.392-54.446-54.446 24.392-54.446 54.446-54.446 54.446 24.392 54.446 54.446z" fill="#ce1126" fill-rule="evenodd" stroke="#ce1126" stroke-width=".19207pt"/>
    <path d="m541.5 259.76 3.5858 1.3266 5.9493-1.0872-0.44694 1.2081-3.0998 0.53556c-0.57808 0.0958-1.1495 0.17354-1.714 0.23281 0.35966 0.38827 0.75706 0.84612 1.1927 1.3717l1.951 2.3744-0.42787 1.1565-3.7717-4.7987-3.5858-1.3266 0.36742-0.99314z" fill="#ffe600" stroke-width="1pt"/>
    <path d="m551.58 246.01 0.11526 1.0528-5.1838 0.56753c-0.90182 0.0987-1.6278 0.0864-2.1779-0.0361-0.55039-0.12347-1.0186-0.40292-1.4051-0.8404-0.38195-0.43411-0.61498-1.0345-0.6989-1.801-0.0816-0.74541-3e-3 -1.3703 0.2344-1.8753 0.23789-0.50568 0.61915-0.88943 1.1437-1.152 0.52855-0.26315 1.2683-0.44625 2.219-0.55033l5.1838-0.56753 0.11515 1.0518-5.1778 0.56689c-0.77927 0.0853-1.3475 0.21218-1.7049 0.37974-0.35311 0.16974-0.61248 0.42108-0.77848 0.75406-0.1654 0.3368-0.2233 0.73091-0.17373 1.1837 0.0846 0.77298 0.34283 1.3031 0.77485 1.5895 0.43171 0.28521 1.2107 0.36669 2.3366 0.24342l5.1778-0.56688z" fill="#ffe600" stroke-width="1pt"/>
    <path d="m544.35 235.5 1.0378-0.2104 0.67925 3.3196-3.2825 0.66545c-0.56194-0.41646-1.0145-0.87212-1.3576-1.367-0.33919-0.49584-0.56665-1.0283-0.68232-1.5988-0.15621-0.77054-0.1133-1.509 0.12903-2.2149 0.24685-0.70387 0.6897-1.2868 1.3286-1.7508 0.63896-0.46317 1.3928-0.78317 2.2618-0.95933 0.86089-0.17453 1.6956-0.17837 2.504-0.0117 0.8133 0.16876 1.4616 0.51629 1.9451 1.0416 0.48354 0.52553 0.8043 1.1788 0.96271 1.9602 0.11493 0.56693 0.11409 1.0993-3e-3 1.5981-0.11189 0.50164-0.32639 0.92051-0.6437 1.2556-0.31745 0.33528-0.76006 0.63125-1.328 0.88687l-0.47916-0.87689c0.42655-0.20904 0.75095-0.42693 0.97308-0.65347 0.22196-0.22741 0.37659-0.51821 0.46355-0.87414 0.0911-0.35586 0.0965-0.73234 0.0164-1.1275-0.0962-0.47467-0.26174-0.86775-0.49676-1.1803-0.23108-0.31349-0.50113-0.55045-0.80982-0.71024-0.30813-0.15614-0.63314-0.26119-0.97476-0.31467-0.58764-0.0889-1.2011-0.0681-1.8408 0.0616-0.78843 0.15984-1.4239 0.41319-1.9065 0.75903-0.48172 0.35048-0.80478 0.78187-0.96899 1.2941-0.16404 0.51221-0.19379 1.0266-0.089 1.5432 0.091 0.44904 0.2766 0.86851 0.55651 1.2576 0.28367 0.38723 0.55865 0.66978 0.82461 0.84593l1.6474-0.33398-0.46726-2.3049z" fill="#ffe600" stroke-width="1pt"/>
    <path d="m506.5 206.97 1.5576-8.8904 1.0422 0.18259-1.3738 7.8413 3.8814 0.68002-0.18381 1.0491-4.9236-0.86261z" fill="#ffe600" stroke-width="1pt"/>
    <path d="m497.71 206.38v-9.0258h5.7848v1.0652h-4.7257v2.7643h4.4259v1.0589h-4.4259v3.0723h4.9111v1.0651h-5.9702z" fill="#ffe600" stroke-width="1pt"/>
    <path d="m472.71 212.04 1.0003-0.45815c0.46893 0.88966 0.65122 1.7194 0.54757 2.4881-0.10349 0.76352-0.47194 1.416-1.1049 1.9571-0.65556 0.56037-1.3174 0.8669-1.9855 0.9196-0.66782 0.0471-1.3534-0.12277-2.0575-0.50921-0.70108-0.38882-1.3314-0.9111-1.8914-1.5663-0.61069-0.71443-1.0224-1.4398-1.2358-2.1754-0.2126-0.74167-0.21375-1.4398-3e-3 -2.095 0.21078-0.66071 0.58495-1.2208 1.1208-1.6788 0.60898-0.52054 1.2695-0.78272 1.983-0.78802 0.71361-5e-3 1.4225 0.23928 2.1274 0.7329l-0.61219 0.88786c-0.56758-0.37886-1.0836-0.56686-1.5459-0.56581-0.46297 2e-3 -0.89803 0.17644-1.3044 0.52378-0.46734 0.39948-0.75092 0.86043-0.84995 1.3824-0.0968 0.52029-0.0256 1.0479 0.21239 1.5844 0.23514 0.5332 0.54686 1.0254 0.93356 1.4778 0.49875 0.58348 1.0091 1.03 1.5319 1.3392 0.52292 0.30338 1.0352 0.42706 1.5373 0.37058 0.50177-0.0565 0.93866-0.24351 1.309-0.56004 0.45092-0.38544 0.70716-0.85837 0.7687-1.4185 0.0622-0.56073-0.0987-1.1763-0.48105-1.8484z" fill="#ffe600" stroke-width="1pt"/>
    <path d="m468.94 219.99-6.7138-6.0325 0.70774-0.78768 6.7138 6.0325-0.70774 0.78767z" fill="#ffe600" stroke-width="1pt"/>
    <path d="m464.6 225.11-7.1559-5.5008 0.64536-0.83954 6.3115 4.8517 2.401-3.1234 0.84442 0.64911-3.0464 3.963z" fill="#ffe600" stroke-width="1pt"/>
    <path d="m451.17 230.43 0.38981-0.98362 4.8479 1.9212c0.84339 0.33424 1.4798 0.68354 1.9089 1.0489 0.42885 0.3664 0.71212 0.83228 0.84943 1.3996 0.13468 0.56245 0.0601 1.2021-0.22403 1.919-0.27623 0.69703-0.63752 1.2131-1.084 1.549-0.44635 0.33504-0.9631 0.49694-1.5492 0.48306-0.59022-0.0145-1.3298-0.19839-2.2189-0.55074l-4.8479-1.9212 0.38981-0.98363 4.8424 1.919c0.72878 0.28881 1.2904 0.44226 1.6843 0.46212 0.39188 0.014 0.73867-0.087 1.0411-0.30377 0.30359-0.2203 0.53904-0.54176 0.70649-0.9643 0.28687-0.72386 0.30638-1.3131 0.0583-1.7683-0.24834-0.45392-0.8989-0.89006-1.9519-1.3074l-4.8424-1.919z" fill="#ffe600" stroke-width="1pt"/>
    <path d="m456.44 252.27-9.0255 0.0749-0.048-5.7846 1.0652-9e-3 0.0392 4.7266 2.7642-0.0229-0.0367-4.4258 1.0589-9e-3 0.0367 4.4258 3.0722-0.0255-0.0408-4.9119 1.065-9e-3 0.0495 5.9699z" fill="#ffe600" stroke-width="1pt"/>
    <path d="m490.15 207.65-1.7856-8.8474 2.7014-0.5452c0.60988-0.12309 1.0832-0.17454 1.4216-0.15488 0.47266 0.0261 0.89861 0.15974 1.2781 0.4015 0.49321 0.31071 0.90361 0.75351 1.2306 1.3282 0.33069 0.56978 0.57506 1.2489 0.73421 2.0374 0.13559 0.67186 0.18643 1.2815 0.15243 1.8285-0.035 0.54721-0.12614 1.0137-0.27435 1.3995-0.14904 0.38175-0.33432 0.69755-0.55478 0.94735-0.21841 0.2449-0.50017 0.45458-0.84771 0.62953-0.3431 0.17386-0.75194 0.30869-1.2267 0.40451l-2.8293 0.571zm0.82643-1.2533 1.6744-0.33792c0.51763-0.10447 0.91104-0.2403 1.1812-0.40805 0.27485-0.16851 0.47862-0.36873 0.61408-0.60119 0.1896-0.32724 0.3054-0.73793 0.3472-1.232 0.0437-0.49881-2e-3 -1.0821-0.13659-1.75-0.18673-0.92525-0.4652-1.6082-0.8362-2.0484-0.36819-0.44487-0.76144-0.71306-1.181-0.80431-0.3027-0.0645-0.76225-0.0344-1.3794 0.0901l-1.6479 0.33257 1.3642 6.7592z" fill="#ffe600" stroke-width="1pt"/>
    <path d="m519.32 211.25 4.1743-8.0026 2.6764 1.396c0.47068 0.24552 0.81734 0.45883 1.0387 0.63904 0.31427 0.24731 0.54106 0.52525 0.67967 0.83365 0.14032 0.30473 0.19565 0.66001 0.1642 1.0647-0.0275 0.40695-0.14465 0.80891-0.35151 1.2055-0.355 0.68057-0.84757 1.1575-1.4783 1.4302-0.62882 0.26916-1.445 0.14213-2.4483-0.38123l-1.8192-0.94893-1.697 3.2534-0.93888-0.48974zm3.1286-3.7081 1.834 0.95666c0.60614 0.31617 1.1036 0.41386 1.4908 0.29176 0.38815-0.12177 0.70232-0.41384 0.94337-0.87596 0.17462-0.33476 0.24767-0.6601 0.21993-0.97563-0.0233-0.31757-0.1372-0.57842-0.34271-0.78286-0.13311-0.12945-0.41302-0.30556-0.83917-0.52786l-1.8142-0.94633-1.492 2.8602z" fill="#ffe600" stroke-width="1pt"/>
    <path d="m523.93 213.63 8.3151-4.6654 0.84838 0.76132-3.591 8.9048-0.89765-0.80553 1.1312-2.6578-2.49-2.2344-2.4795 1.4478-0.83661-0.75076zm4.1931-1.2172 2.0193 1.8121 1.0477-2.4183c0.31778-0.73485 0.59374-1.3256 0.82777-1.7717-0.46279 0.36216-0.95321 0.6941-1.4723 0.99489l-2.4225 1.383z" fill="#ffe600" stroke-width="1pt"/>
    <path d="m530.38 219.7 7.1605-5.4948 2.1592 2.8138c0.43426 0.56591 0.69909 1.046 0.79451 1.4401 0.0992 0.39229 0.0534 0.80084-0.13686 1.2273-0.19056 0.42581-0.48296 0.78986-0.87694 1.0922-0.50795 0.38979-1.0479 0.57284-1.6203 0.54835-0.57187-0.0238-1.1391-0.3046-1.7008-0.84093 0.0503 0.31472 0.0605 0.57445 0.0324 0.78041-0.0657 0.44023-0.20521 0.91584-0.41786 1.4277l-1.1016 2.5994-0.8108-1.0566 0.84559-1.9826c0.24153-0.57515 0.41511-1.03 0.52116-1.3637 0.10658-0.33303 0.15609-0.5988 0.1496-0.79591-4e-3 -0.19416-0.038-0.36997-0.10139-0.52673-0.0503-0.11283-0.15848-0.27749-0.32462-0.49399l-0.74729-0.97382-3.1798 2.4401-0.64477-0.84022zm4.645-2.2295 1.3852 1.8051c0.29421 0.3834 0.56905 0.6504 0.8231 0.79944 0.25725 0.14658 0.52643 0.20055 0.80857 0.16379 0.28483-0.0402 0.54288-0.14898 0.77401-0.32634 0.33868-0.2599 0.53311-0.58287 0.5829-0.96971 0.052-0.38392-0.10263-0.81132-0.46377-1.2819l-1.5411-2.0082-2.3689 1.8179z" fill="#ffe600" stroke-width="1pt"/>
    <path d="m535.21 225.86 9.3784-1.7187 0.55592 0.99533-6.2832 7.2602-0.58812-1.053 1.9315-2.1477-1.6314-2.9208-2.8148 0.56621-0.54822-0.98153zm4.3614 0.20768 1.3229 2.3686 1.775-1.9482c0.5388-0.59219 0.99088-1.0623 1.3573-1.4078-0.5551 0.19278-1.1267 0.34771-1.7153 0.46402l-2.7399 0.5234z" fill="#ffe600" stroke-width="1pt"/>
    <path d="m543.15 249.23 8.6573 3.9947-0.11855 1.1337-9.3175 2.3183 0.12544-1.1996 2.8158-0.64383 0.34796-3.3274-2.6274-1.158 0.11691-1.118zm3.4463 2.6808-0.28209 2.6976 2.5729-0.57c0.7816-0.17499 1.4218-0.29803 1.9203-0.3695-0.56484-0.16218-1.1214-0.36464-1.6696-0.60824l-2.5415-1.1498z" fill="#ffe600" stroke-width="1pt"/>
    <path d="m457.87 260.57-8.8143 1.9426-0.76334-3.4636c-0.15355-0.69671-0.18996-1.2438-0.10939-1.6411 0.0764-0.39739 0.29101-0.74795 0.64405-1.0537 0.35307-0.3048 0.77219-0.51066 1.2572-0.61755 0.62527-0.1378 1.1919-0.0748 1.7 0.18993 0.50789 0.26384 0.90267 0.7586 1.1841 1.4824 0.0878-0.30644 0.18858-0.54609 0.30134-0.72068 0.24608-0.37087 0.57397-0.74259 0.98347-1.1161l2.0994-1.8876 0.28665 1.3006-1.6061 1.4374c-0.4625 0.41856-0.81248 0.75702-1.0499 1.0144-0.23767 0.25648-0.39514 0.4762-0.47281 0.65737-0.0787 0.17756-0.12238 0.35123-0.13138 0.52011-2e-3 0.12354 0.026 0.31855 0.0847 0.58506l0.2642 1.1988 3.9142-0.86265 0.22792 1.0342zm-5.152 0.0511-0.48972-2.222c-0.10403-0.47205-0.23981-0.83029-0.40676-1.0729-0.17089-0.24178-0.39186-0.40481-0.66296-0.49099-0.27502-0.0844-0.55487-0.0951-0.83938-0.0325-0.4169 0.0919-0.72988 0.30201-0.9389 0.63133-0.20983 0.32569-0.2509 0.77823-0.12321 1.3576l0.54485 2.4722 2.9161-0.64269z" fill="#ffe600" stroke-width="1pt"/>
    <path d="m456.77 244.27-8.9926-0.77385 0.25872-3.0066c0.0456-0.52986 0.10903-0.93104 0.19028-1.2054 0.10736-0.38525 0.27656-0.70068 0.50796-0.94813 0.22729-0.24686 0.53383-0.43361 0.91954-0.56122 0.3862-0.13128 0.80229-0.17774 1.2479-0.13939 0.76476 0.0658 1.3944 0.3378 1.8889 0.8141 0.49038 0.47689 0.68715 1.2791 0.59013 2.4065l-0.17592 2.0443 3.6558 0.31461-0.0908 1.0551zm-4.6264-1.461 0.17736-2.061c0.0586-0.68112-0.0427-1.1769-0.30429-1.4882-0.26174-0.31139-0.65221-0.48894-1.1715-0.53363-0.37617-0.0324-0.70457 0.0254-0.98513 0.1723-0.28417 0.1438-0.48111 0.34934-0.59073 0.61755-0.0684 0.17361-0.12313 0.49888-0.16434 0.9777l-0.17544 2.0387 3.2141 0.27658z" fill="#ffe600" stroke-width="1pt"/>
    <path d="m460.54 230.93-7.5097-5.007 1.6653-2.4976c0.33891-0.50833 0.68698-0.86386 1.0448-1.0675 0.356-0.2082 0.75066-0.29332 1.1833-0.25434 0.43094 0.0343 0.81893 0.16652 1.1639 0.39652 0.321 0.21403 0.57202 0.49219 0.7527 0.83533 0.1801 0.34402 0.25392 0.72904 0.2199 1.1574 0.40169-0.31408 0.83454-0.47104 1.2992-0.47253 0.46616-4e-3 0.91805 0.13973 1.3552 0.43121 0.3517 0.23448 0.63515 0.51971 0.85036 0.85569 0.21361 0.33048 0.33775 0.64731 0.37251 0.95036 0.0348 0.30305-3e-3 0.63015-0.11363 0.98083-0.11179 0.34527-0.30907 0.72979-0.59119 1.1529l-1.6926 2.5387zm-3.7667-3.7841 0.95946-1.4391c0.2604-0.39056 0.41837-0.69048 0.47298-0.89806 0.0742-0.27406 0.0617-0.52533-0.0375-0.75381-0.0977-0.23082-0.27809-0.43384-0.54109-0.60919-0.24927-0.16619-0.50292-0.25933-0.7615-0.27829-0.26164-0.0223-0.49271 0.0432-0.69216 0.1945-0.20296 0.14898-0.4635 0.46219-0.78226 0.94027l-0.88718 1.3306 2.2693 1.513zm3.468 2.3122 1.1052-1.6576c0.18957-0.28434 0.31096-0.49235 0.36361-0.62293 0.0943-0.23032 0.13864-0.44472 0.13393-0.645-5e-3 -0.20013-0.0681-0.40465-0.19071-0.61302-0.12604-0.21046-0.30833-0.39574-0.54737-0.55512-0.2801-0.18675-0.56488-0.2848-0.85462-0.29436-0.29287-0.0119-0.55647 0.0688-0.78968 0.24134-0.23481 0.167-0.49345 0.46249-0.77606 0.88636l-1.0261 1.539 2.5818 1.7214z" fill="#ffe600" stroke-width="1pt"/>
    <path d="m475.41 213.63-2.1976-9.2778 0.96624-0.60673 7.5722 5.9029-1.0207 0.64091-2.244-1.8187-2.8333 1.7791 0.70901 2.7826-0.95197 0.59777zm-0.0156-4.3668 2.2968-1.4423-2.036-1.6731c-0.6198-0.50723-1.1118-0.93505-1.4763-1.2828 0.22174 0.54401 0.4058 1.1069 0.55142 1.6892l0.66404 2.709z" fill="#ffe600" stroke-width="1pt"/>
  </g>
</svg>
