<?xml version="1.0" encoding="UTF-8"?>
<svg id="svg1589" width="900" height="600" version="1.1" xmlns="http://www.w3.org/2000/svg">
  <style id="style4614" type="text/css">.st1{fill:#fff}</style>
  <g id="g4701" transform="translate(0,100)">
    <path id="_x32_1461584" d="m900 500v-600h-900v600z" fill="#006c35" stroke-width="1.2"/>
    <g id="g4699" transform="matrix(.064 0 0 .064 0 468)">
      <g id="g4695" transform="matrix(18.096 0 0 17.214 246.64 -8836.2)">
        <g id="g4623">
          <path id="path4621" class="st1" d="m536.3 143.5c4.4-3.3 8.5-7 13.4-9.6-1.4 5.9-5.6 10.4-9.9 14.2-2.2 1.8-1.2 5.1-1.5 7.6-1.2-0.3-2.3-0.6-3.5-1 1.1 15 2.7 29.9 3.4 44.9 0.1 1.7 0.2 3.5 1.6 4.6 6.6 6.2 13.4 12.3 18.2 20.2 1.9 3.1 2.9 6.6 3.9 10.1 1.2-5.8 1.1-11.8 0.5-17.7-2.4-22.8-4.6-45.7-6.5-68.6-0.2-2.8-0.6-5.7-0.3-8.5 0.2-2.6 2.7-4.8 5.2-4.6 1.5 1.3 2.3 3.1 3.1 4.9 2 4.7 3.8 9.8 3.3 15.1-1.2-0.4-2.4-0.9-3.7-1.4 1.8 15.5 3.6 31 4.7 46.6 0.5 10.5 2 21.1-0.1 31.5-1.8 9.6-6.3 19.3-14.3 24.8-6.7 4.6-14.5 7.2-22.3 8.9-3.2 0.7-6.5 1-9.6 0.1 3.3-1.9 7-3.3 10.5-4.9 5.1-2.3 10-4.8 14.6-8 4.3-3 8.8-6 12-10.4-4-11.2-10.6-21.7-20-28.6 0.3 11 0.8 22.2-0.8 33.1-0.3 2.6-1.4 4.9-3.1 6.7-1.1-4.6-1.2-9.4-1.7-14.1-0.9-10.2-1.7-20.5-2.4-30.7 0-2.1-1.3-3.7-2.8-4.9-5.9-5.2-11.4-11-17.1-16.4 0.2 6.3 1.1 12.5 1.5 18.7 0.7 8.4 0.8 16.8 1.6 25.2 0.5 5.9 0.6 12.1-1.5 17.7-2.1 5.3-6.8 9.8-12.4 10.2-3 0.3-6 0-8.9-0.5-3.1-0.5-5.5-3-6.9-5.8-1.7-3.4-2.6-7.2-4-10.7-2.6 0.6-5.3 1.2-7.2 3.3-4 4-5.2 10.1-7.1 15.3-1.1 3.1-2.4 6.5-5.3 8.2-3 1.8-6.7 1.1-9.6-0.6-4.4-2.5-7.1-7.3-8.4-12.2-1.3-3.8 0.5-8.2-1.7-11.8-1.6-3.3-0.7-7.2 0.1-10.6 1.7-6.1 5.3-11.3 9.6-15.7l-17.1-15.6c0.5 14.4 1.6 28.8-0.2 43.1-0.3 2.9-1.3 5.6-3.3 7.7-0.6-2.7-1-5.5-1.2-8.3-1.4-15.8-2.6-31.6-3.6-47.4-0.1-1.8-0.4-3.8-1.8-5-5.8-5.8-11.4-12-16.6-18.5-3-4-6.1-8.1-7.7-12.9-0.6-2-1.1-4.8 0.7-6.3 2.1 0.2 4 1.2 5.8 2.2 3.3 2 6.4 4.6 9.1 7.6 1.2 1.3 1.8 3 2.3 4.7-1.7 0-3.3-0.1-5-0.1 3.4 5.1 7.4 9.8 12 13.8-0.4-13.4-1.8-26.9-2.4-40.3 0-1.8 0-3.8 1.2-5.3 1.1-1.3 2.8-1.8 4.3-2.4 2.8 4.3 4.8 9.1 6 14.2 0.5 2 0.4 4.1 0.3 6.2-1.2-0.3-2.4-0.7-3.5-1.1 0.8 10.9 1.9 21.7 2.6 32.6 0.1 1.5 0.2 3.1 0.6 4.6 0.6 1.1 1.5 1.8 2.3 2.6 7.1 6.3 14.2 12.6 21.4 18.7 4.3-3.9 8.5-7.9 12.8-11.7 1-0.9 2-1.7 2.8-2.7 0.8-0.9 0.5-2.2 0.5-3.3-1.4-13.1-2.4-26.2-3.5-39.3-0.3-4.8-1-9.5-1-14.2-0.1-2.8 2-5.6 4.7-5.7 1.2-0.1 1.7 1.3 2.3 2.1 2 3.7 3.5 7.7 4.4 11.9 0.5 2 0.3 4.1-0.1 6.2-1.1-0.5-2.3-1.1-3.4-1.6 1.5 12.3 2.7 24.6 3.8 36.9 3.1-2.4 5.9-5.2 8.8-7.8 3.2-2.9 6.6-5.7 9.7-8.8-3.7-4.2-7.6-8.1-11.4-12.2-2.4-2.6-5.3-5.1-6.3-8.8-0.8-2.6-0.3-5.4 0.2-7.9 4.5 0.8 8.4 3.6 12 6.4 2.5 2 4.7 4.3 6.9 6.6-0.2-5.2-0.8-10.4-1.2-15.6 0-2-0.2-4.2 1.1-5.8 1.1-1.3 2.8-1.8 4.2-2.5 2.9 4 4.7 8.8 5.9 13.6 0.6 2.2 0.6 4.4 0.5 6.6-1.2-0.3-2.5-0.6-3.7-0.9 0.4 4 0.8 7.9 1.3 11.9 4.7-3.7 9-7.9 13.7-11.6 1.6-1.6 4.5-2.8 4.5-5.6 0.1-3-0.5-6.1-0.1-9.1 0.3-2.6 2.7-4.7 5.2-4.5 2.4 2.4 3.3 5.4 4.6 8zm-24.4 28.9c-0.8 0.9-2.3 1.7-2.2 3.2 0.6 1.3 1.8 2.3 2.8 3.4 5.8 5.5 11.3 11.3 17.4 16.3-0.2-5.9-0.8-11.7-1.1-17.6-0.5-6.2-0.7-12.4-1.3-18.6-5.4 4.1-10.3 8.9-15.6 13.3zm-14.7-10.9c1.3 1.5 2.5 3 3.8 4.5 0-1.5-0.1-3-0.1-4.5h-3.7zm-14 36.5c-1 0.9-2.2 1.9-2.1 3.4-0.1 7.6 0.7 15.4-1.1 22.8-0.4 1.9-1.7 3.2-3 4.4-1.6-7.3-1.7-14.8-2.9-22.2-4.3 3.6-8.4 7.5-12.4 11.4 2.3 2.7 4.6 5.6 5.4 9.3 1.3 5.1-0.2 11-4.2 14.4-4.9 4.3-11.5 5-17.6 5.8 0.9 4.2 1.7 8.6 4.1 12.2 1.5 2.1 3.9 4.1 6.5 3.3 2.8-0.8 4.5-3.6 5.5-6.2 2-5.3 4.2-10.5 7.2-15.3 2.4-4 6.3-7.3 10.9-7.4 1.5 0.1 3.5-0.4 4.4 1.3 2 3.5 2.7 7.7 5.2 11 4.2 5.8 13.1 5.9 18.1 1.1 1.7-1.6 1.7-4.2 1.5-6.4-2.3-19.9-4-40-6-59.9-6.7 5.5-13 11.3-19.5 17zm-35.3 34c-1.1 1.5-1.7 3.4-2.2 5.3 4.5 0.5 9.1-0.5 13-2.9 1.2-0.8 2.6-2.1 2.3-3.8-0.3-3.4-3-5.8-5.4-7.8-2.7 2.8-5.4 5.9-7.7 9.2z" fill="#fff"/>
        </g>
        <path id="path4625" class="st1" d="m260.1 135c1.2-0.8 2.3 0.6 3.1 1.5 2.4 3.1 5 6.2 6.4 10-1.2 0.2-2.5 0.4-3.7 0.6 0.3 6 5.1 10.1 6.5 15.8 1 3.5 1.1 7.3 0.4 10.8-1 4.8-4.8 9-9.5 9.8-5.5 1-11.7-0.4-15.8-4.7-2.7-2.8-3.7-6.8-4.9-10.4-1.3 4.9-3.2 9.6-6.5 13.4-1.9 2.3-4.4 3.9-6.9 5.3 0.7 13.4 2 26.8 0.9 40.1-0.4 3.8-0.6 8.3-3.9 10.8-1.2-5.3-1.4-10.8-2-16.3-1.1-11.1-1.9-22.2-3-33.3-3.1-0.8-6.5-1.5-8.9-3.9-4-3.8-5.3-9.7-5-15.1 0.1-4.2 1.4-8.3 2.3-12.4-1.5 1.6-2.7 3.5-3.4 5.6-2.1 6.7-3.5 13.7-6.4 20.1-1.1 2.5-3.2 4.6-5.8 5.2-3.2 0.7-7 0.5-9.5-2.1-2.7-2.8-3.3-7-3.7-10.8-0.2-3.9-0.5-8.1 1.2-11.7 1-2.2 3.1-3.4 4.9-4.5-1.2 2.1-2.6 4.2-2.9 6.6-0.4 3.4 0.2 6.9 0.8 10.2 0.4 2 0.8 4.2 2.3 5.6 2.3 2.2 6.2 2 8.4-0.2 1.2-1.4 1.8-3.2 2.4-4.9 2-6.4 3.6-13 6.1-19.2 2.2-5.2 6.1-10.3 11.7-11.4-0.6 7.1-3.7 13.7-3.9 20.9-0.1 3.2 0.2 6.7 2.2 9.2 1.5 2.1 4 2.8 6.3 3.5-0.6-9.7-1.5-19.4-2.1-29.2-0.2-3.6-0.8-7.3-0.2-10.9 0.5-2.5 3.1-3.4 5.1-4.2 3.8 5.9 6.6 12.9 6.5 20.1-1.3-0.3-2.5-0.6-3.8-0.9 0.8 8.3 1.6 16.7 2.5 25 3.3-1.1 6.3-3.2 8.2-6.3 3.9-5.9 4.5-13.6 2.6-20.4-0.8-2.9-2.1-5.6-2.7-8.6-0.6-2.8 1.3-5.7 3.7-6.6 1.1-0.5 1.6 0.9 2.1 1.7 1.5 3.4 2 7.2 2.7 10.9 0.9 4.9 0 10 1.7 14.7 1.4 4 3.9 7.7 7.5 9.8 2.9 1.7 6.3 2.1 9.6 1.5 1.6-0.3 2.9-1.7 3.3-3.4 0.8-3.2-0.3-6.5-1.6-9.4-3-6.6-6.7-12.9-8.1-20.1-0.5-2.6 0.2-6.2 2.8-7.8z" fill="#fff"/>
        <path id="path4627" class="st1" d="m397.4 142.7c1.9-3.4 4.9-6 8.3-7.7-0.9 2.5-2.3 4.6-3.6 6.8-1 1.6-1 3.6-1.1 5.4 2.3-0.1 4.6-0.5 6.8-1.1-0.6 1.9-1.2 3.9-2.9 5.1-1.9 1.4-4.7 2.3-6.7 0.6-2.1-2.3-2.4-6.3-0.8-9.1z" fill="#fff"/>
        <g id="g4631">
          <path id="path4629" class="st1" d="m273.4 138.3c1-1.6 2.9-2.2 4.4-2.9 3.1 4.2 5 9.3 6.2 14.4 0.5 2 0.3 4 0.1 6-1.1-0.4-2.3-0.8-3.4-1.2 1.3 9.7 2.9 19.3 4 29 5.3-2.7 10.2-6 15.7-8.4 1.7-0.8 3.5-1.2 5.4-1.4-0.7 1.6-1.5 3.2-3.1 3.9-5.8 3.1-11.7 5.8-17.4 9.2 0.5 4.8 1 9.7 1.6 14.5 2.6-3.5 4.9-7.9 9.4-9 0.2 2.6-0.6 5.7 1.2 7.8 2.8 2.3 6.6 0.9 9.2-1.2-0.2-3.8 0.8-7.5 1.5-11.2 1.1 0.5 2.5 0.7 2.9 2.1 1.2 3.5 0.9 7.4 0 10.9-0.9 4-4 7-7.4 8.8-2.1 1.1-4.7 1.7-7 0.7-2.4-1-3.9-3.4-5.5-5.5-1.4 3.6-3.7 6.9-3.8 11-0.4 8.6-3.6 16.8-8.5 23.6-8.5 11.7-21.5 18.7-34.7 22.8-7.6 2.2-15.5 4.2-23.5 3.8-4.3-0.1-8.7-1.1-12.4-3.5-1.6-1.1-3-2.6-4.6-3.6-2-0.4-4.1 0.2-6.2 0.2-5 0.2-10 0.4-14.9-0.5 6-2.1 12.1-3.7 18-6-1.6-11.3 0.5-23 6-32.8 1.5-2.6 3.4-4.9 5.4-6.9-1.7 3.6-3.8 7.1-4.7 11.1-2.1 8.4-2 17.4 0.4 25.6 4.1-1.4 8.1-3.3 12-5.1 9.1-4.2 18-8.7 26.3-14.5 3.1-2.3 6.3-4.7 8.4-8.2 1-1.7 0.8-3.7 0.8-5.6-4.3 0.9-8.5 3-13 2.9-2.8-0.2-5.8-0.8-7.8-3.1s-2.1-5.6-1.7-8.5c0.6-3.8 2.2-7.6 5.1-10.1 3.3-2.9 8.2-2.8 12-1 3.7 1.8 5.8 5.6 7.6 9.2 5.6-2.2 9.4-7.4 14.9-9.9 0.2 3-0.1 6.5 2.1 8.9 1.3 1.7 3.5 1.6 5.3 1.8-0.3-4.8-1-9.5-1.6-14.2-1.9-15.7-3.8-31.5-5.4-47.3-0.1-2.3-0.4-4.7 0.7-6.6zm-34.2 68.3c-0.5 1.1 0.7 1.8 1.5 2.2 3 1.1 6.3 0.4 9.4-0.2-1.6-1.8-3.5-3.8-6.1-3.9-1.7-0.1-4.1 0-4.8 1.9zm21.8 6.5c0.2 3.2 0.3 6.4-0.7 9.4-1.6 5.1-5.3 9.2-9.1 12.6-7.3 6.3-15.9 10.4-24.2 15-3.7 2.3-7.7 4.1-11.7 5.9 5.1 0.4 10.2-0.5 15.2-0.9 7.7-0.5 15.1-2.8 22.2-5.8 7.4-3.2 14.6-7.3 20.4-13.3 3.5-3.6 6.3-8.1 7.5-13.2 0.6-2.5 0.6-5.1 0.7-7.7-3-0.1-6.2 0-8.9-1.6-2.2-1.3-3.4-3.8-4.7-6-2.1 2.1-4.4 4-6.7 5.6z" fill="#fff"/>
        </g>
        <path id="path4633" class="st1" d="m342.3 138c1.1-1.3 3.1-1.1 4.4-0.2 2.9 2 4.6 5.7 4.4 9.3-0.1 1.7-0.8 3.2-1.3 4.7-0.4-2.3-0.3-4.7-1.3-6.8-1.5-2.2-4.3-2.6-6.1-4.4-0.7-0.6-1-2-0.1-2.6z" fill="#fff"/>
        <path id="path4635" class="st1" d="m383.3 139.2c0.2-1.4 1.5-2.9 2.9-2.1 3.9 2 6.7 5.8 8.5 9.9-1.4 0-2.8-0.1-4.1-0.2 0.7 2.8 1.4 5.5 2.5 8.2 1.5 3.8 3.6 7.4 4.2 11.6 0.7 4.6-0.1 9.8-3.2 13.3-5.8 6.8-17.4 5.6-22.4-1.7-1.9-2.6-2.9-5.6-3.9-8.7-1.6 6.6-5 13-10.7 16.4-5.8 3.7-13.5 3.2-19-0.7-3.4-2.3-5.7-6.3-5.7-10.5-0.4-6.2 1.9-12 2.7-18-1.4 1.5-2.7 3.2-3.3 5.3-2.4 6.7-3.4 13.9-6.8 20.2-1.6 3-4.3 5.7-7.7 6-3.3 0.2-6.9-1.1-8.8-4.1-1.7-2.8-2.1-6.2-2.1-9.5 0.1-5 1.2-10.1 3.4-14.5 0 6.3-1.8 13.2 1.2 19.1 1.5 3.3 5.5 5.2 8.6 3.4 2.8-1.8 4.1-5.2 5.1-8.3 2.1-6.6 4.3-13.3 7.4-19.5 1.3-2.5 2.7-5.1 4.9-6.9 1.1-1 2.7-1 4.1-1.3 0.3 5.6-2.7 10.5-3.7 15.9-1 4.7-1.3 10.3 1.9 14.2 3.6 4.1 9.6 5.1 14.6 3.7 6.9-2.3 11.9-9.6 12.2-17.2 0.2-4.5 0.4-9.4-1.9-13.4-1-2.1-2.9-4.3-2.1-6.9 0.5-2.6 2.3-4.6 4.4-5.8 1.5 2.5 2.8 5.2 3.1 8.2 0.8 6.9 0.9 14 3.2 20.6 1.4 3.8 3.5 7.7 7.2 9.5 3.4 1.7 7.6 2.1 10.9 0.3 2.1-1.1 2.6-3.8 2.1-6-1.4-7.2-6.1-12.9-8.3-19.8-1.2-3.5-2.1-7.1-1.4-10.7z" fill="#fff"/>
        <path id="path4637" class="st1" d="m450.5 137.7c2.1-1 5.1-0.2 6.1 2.1 0.4 1.1-0.3 2.1-1.1 2.7-1.5-0.3-2.8-1.1-4.1-1.7-1.7 3.4-2.6 7.2-3.6 11-0.7-1.8-1.3-3.7-2.4-5.3-1.4-2-3.6-3-5.2-4.8-0.5-1.6 1.3-3.4 2.8-2.9 2.2 0.7 3.5 2.8 4.8 4.7 0.6-2.1 0.9-4.6 2.7-5.8z" fill="#fff"/>
        <path id="path4639" class="st1" d="m181.5 146.1c1.7-3.8 5-6.6 8.6-8.4-0.9 2.5-2.4 4.6-3.6 6.9-1 1.6-0.9 3.6-1 5.4 2.3-0.2 4.6-0.7 6.9-1.5-0.7 1.9-1.4 4-3.1 5.3-1.8 1.4-4.5 2.2-6.4 0.8-2.2-2-2.6-5.7-1.4-8.5z" fill="#fff"/>
        <g id="g4643">
          <path id="path4641" class="st1" d="m309.4 141c0.6-3.3 5.3-3.2 6.8-0.7 1 1.8 1.5 3.7 2.5 5.5 0.9 1.8 2 3.7 1.4 5.8-0.9 3.3-3.2 5.9-3.5 9.4 1.1-0.5 2.2-1.1 3.3-1.7-0.3 1.8 0 4.2-1.8 5.2-2.2 1.1-4.9-1.1-4.7-3.6 0.3-4.5 4.5-8 3.2-12.8-4.2 5.9-10 11.2-17.1 12.3 3.1-2.6 6.6-4.4 9.4-7.4 1.8-1.8 3-4.1 4.2-6.3-1.5-1.6-4.1-3.1-3.7-5.7zm2.9-0.3c0.7 1.1 1.6 2 2.6 2.6-0.4-1.3-1.4-2.2-2.6-2.6z" fill="#fff"/>
        </g>
        <path id="path4645" class="st1" d="m287.2 143.1c1.5-0.4 3.3-1 4.5 0.4 3.6 3.5 5.3 9.1 4.1 14.1-0.8-1.9-1.4-3.9-2.3-5.7-1.5-3.4-4.8-5.4-6.3-8.8z" fill="#fff"/>
        <path id="path4647" class="st1" d="m255 145.2c1.5 1.7 2.2 3.8 1.9 6.1-2.4 0.4-4.8 1.1-7.2 1.7-1.3 0.4-2.7-0.6-3-2-0.1-1.5 0.4-2.9 0.7-4.4 0.5 1.5 1 3 1.5 4.6 0.6-0.3 1.3-0.5 1.9-0.8v-4.1h1.4c0.2 1.2 0.4 2.5 0.6 3.7 0.8-0.1 1.5-0.2 2.3-0.3-0.1-1.5-0.1-3-0.1-4.5z" fill="#fff"/>
        <path id="path4649" class="st1" d="m458.1 148.5c1.9-0.6 4-0.8 6-0.8-1 1.2-2.1 2.3-3.5 2.9-6.9 2.9-14 5-20.6 8.7 0.6 1.3 1.2 2.5 1.8 3.8-1.6-0.3-3.5-0.3-4.7-1.7-1.1-1.1-1.2-3.2 0.1-4.2 1.1-0.9 2.3-1.4 3.6-2 5.7-2.2 11.4-4.7 17.3-6.7z" fill="#fff"/>
        <path id="path4651" class="st1" d="m353.6 153.7c0.8-0.7 1.7-1.2 2.5-1.7-0.1 2.7 0.8 5.1 1.9 7.5s0.2 5.8-2.5 6.4c-2.3 0.8-4.4-0.7-6-2.1-1.3 1.2-2.7 2.8-4.6 2.5-3.5-0.2-5.2-4.5-4.5-7.7 0.3-2.1 1.9-3.4 3.3-4.7-0.2 2.2-1 4.4-0.5 6.6 0.4 1.5 2.1 1.5 3.3 2 0.4-2.4 0.5-4.9 1.1-7.4 0.2-1.3 1.7-1.4 2.5-2 0.2 2.1 0.1 4.2 0.7 6.2 0.5 1.5 2.2 2 3.4 2.7 0.6-2.9-0.6-5.6-0.6-8.3z" fill="#fff"/>
        <path id="path4653" class="st1" d="m249.8 157.5c1.5 0 3.3-0.3 4.5 1 3.4 3.5 5.1 9 3.8 13.9-1.2-3.3-2.2-6.9-4.8-9.4-1.6-1.5-3.2-3.2-3.5-5.5z" fill="#fff"/>
        <path id="path4655" class="st1" d="m456.8 170.1c0.7-0.9 1.6-1.5 2.5-2.2 0 2.5 0.8 4.8 1.8 7s1 5.7-1.5 6.7c-2.3 1.1-4.7-0.2-6.6-1.6-1.5 1.2-3.3 2.7-5.4 2.1-3.1-0.7-4.4-4.5-3.9-7.5 0.2-2.2 2-3.6 3.4-5-0.3 2.3-1.2 4.6-0.6 6.9 0.5 1.5 2.2 1.2 3.4 1.5 0.4-2.6 0.2-5.3 1.2-7.7 0.7-0.6 1.6-1 2.5-1.4 0.1 2.3-0.3 4.8 0.8 6.9 0.7 1.3 2.2 1.4 3.4 1.8-0.1-2.5-0.8-5-1-7.5z" fill="#fff"/>
        <path id="path4657" class="st1" d="m539.9 173.7c-0.6-1.6 0.6-3.2 2.2-3.2 2.5 0 4.4 2.2 5.6 4.3 2.1 4.3 3.1 9.5 1.4 14.1-0.9-4.1-0.8-9.3-4.4-12-1.6-1-3.5-1.6-4.8-3.2z" fill="#fff"/>
        <path id="path4659" class="st1" d="m401.8 182.7c1.1-1.3 2.9-1.7 4.5-1.3 2 2 1.6 5.6 0 7.7-2.9 4-7.7 5.9-12.4 5.9 2.9-1.8 6.2-2.8 8.8-5.1 1.2-0.9 1-2.6 1.2-4-1.4 0.2-2.8 0.5-4.1 0.7 0.6-1.3 1.1-2.7 2-3.9z" fill="#fff"/>
        <path id="path4661" class="st1" d="m469 185.8c0.9-0.2 2.1-0.8 2.7 0.2-0.7 2.4-3.1 3.4-5 4.4-7.2 3.5-14.2 7.4-21.3 11.2-0.3-0.7-0.7-1.3-1-2 4-3.1 8.4-5.4 12.7-7.9 4-2.1 7.8-4.4 11.9-5.9z" fill="#fff"/>
        <g id="g4665">
          <path id="path4663" class="st1" d="m333.5 191.7c0.2-1.5 1.2-2.6 2-3.7 5.5 6.3 10.2 13.6 12.7 21.9 2.4 7.9 3 16.2 4.5 24.3 0.8 4.1 1.5 8.4 4.1 11.7 1.7 2.3 4.2 3.7 6.6 5.1 0.5-2.6 1.1-5.4 3.4-6.9 7-4.9 15.1-7.9 23.1-10.6-6.5-0.2-13.1 0-19.6-0.1-5.3-0.1-10.6 0.4-15.8-0.6 0.2-2.1 0.2-4.3 1.4-6.2 2.4-4.2 6.6-6.6 10.6-8.8 6.1-3.3 12.3-6.2 18.9-8.1-1.7-1.9-4.3-4-3.6-7.1 1.2-3.6 4.2-7.2 8-7.1 4.2 0 8.3 1.8 11.9 4 2.2 1.5 4.9 3.1 5.7 5.9-0.1 2-1.1 3.8-2.2 5.4-2.3 3-6.4 2.8-9.8 3.2-0.2 2.4-0.5 5.3-2.8 6.4-0.7-1.9-1.4-3.7-2.2-5.6-8.3 1.6-15.7 6.1-22.2 11.5 18.4 0.1 36.7-0.4 55.1-0.3 1.2 0.1 2.4 0.2 3.6 0.4-0.8 5.1-5.7 7.6-10 8.7-8.7 2-17.4 3.8-26.1 5.6-6.5 1.4-13.1 3-19 6.1-2.2 1.1-4 3-5.5 5.1 4.3 1.7 8.8 2.7 13.3 3.6 1.5 0.4 3.6 0.7 4 2.6 0.6 2.5 0.7 6-1.6 7.6-2.9 0.7-5.9 0-8.8-0.5-8-1.3-15.7-5.7-20.3-12.9-3.5-5.2-4.5-11.7-5.4-17.9-2.3 3.4-4.7 6.8-7.6 9.6-7.8 7.7-17.2 13.3-27 17.8-3.4 1.6-7.7 2.1-11.1-0.1-2.4-1.5-3.3-4.6-4.3-7.2-9.1 4.9-18.4 9.6-28.5 11.6-6.2 1.2-12.5 2.1-18.8 2 3.3-1.7 6.7-3 10-4.4 11-4.8 21.8-10.2 32.4-16 1.3-0.8 2.9-1.5 3.8-2.8 1-2.9 1.1-6 2.6-8.8 1.5-3.4 4.2-6 7.1-8-1.9 4.4-3.9 8.9-4.5 13.7 6.4-4.1 12.5-8.7 17.9-14.3 1.4-1.6 3.4-3.6 2.6-6-1-3.4-2.7-6.4-3.9-9.7-1.8-4.8-4-9.8-3.5-15.1 0.1-1.7 1.3-3 2.1-4.3 4.4 3 7.2 7.9 9.7 12.6-0.9 0.2-1.9 0.4-2.8 0.6 1.7 4.9 4.5 9.3 5.3 14.5 0.6 4-0.3 8.4-3 11.4-6.8 7.7-15.2 13.5-23.1 19.8 1.4 0.8 2.9 1.9 4.6 1.8 3.3-0.1 6.5-1.3 9.5-2.6 11-5.1 20-13.6 29.3-21.5-2.3-9.4-6.4-18.2-10.7-26.8-1.5-3-2.6-6.8-2.1-10.5zm53.1 12.4c1.1 1.6 2.6 2.9 4.4 3.6 2.7 0.6 5.3-1.1 7.3-2.9-2.5-2-5.4-3.6-8.6-3.6-1.5 0-3.1 1.3-3.1 2.9z" fill="#fff"/>
        </g>
        <g id="g4669">
          <path id="path4667" class="st1" d="m195.9 191.7c0.1-1.2 1-2.5 2.3-2.4 3.4-0.4 5.8 2.5 7.9 4.8 1.1 1.2 2 2.8 1.3 4.5-0.4 1.9-2.5 1.8-3.9 2.2-3 0.2-4.2 3.6-6.5 5.1-4.6 3.3-10.3 5.9-16 5.1 1.4-2.1 3.7-3 5.9-3.7 4.1-1.4 7.4-4.5 10.4-7.7-0.8-2.6-1.8-5.2-1.4-7.9zm1.9 0.4c0.2 1.7 0.6 3.5 1.5 5 0.6-1.4 1.2-2.9 1.7-4.3-1-0.3-2.1-0.5-3.2-0.7zm4.5 6.5c1.1-0.1 2.2-0.3 3.3-0.4-0.2-1.5-0.5-3-1.1-4.4-1.4 1.1-1.6 3.1-2.2 4.8z" fill="#fff"/>
        </g>
        <path id="path4671" class="st1" d="m365.7 192.5c0.6-0.8 1.6-1.3 2.4-1.8 0 3.5 2.4 6.2 2.7 9.6 0.3 3.5-4 5.3-6.6 3.7-0.8-0.6-1.5-1.3-2.2-1.9-1.4 1.3-2.9 3.2-5 2.7-3.2-0.6-4.9-4.5-4.3-7.7 0.3-2.2 2-3.6 3.5-4.9-0.3 2.1-1 4.1-0.8 6.3 0.2 1.6 1.9 2.1 3.1 2.8 0.8-2.4 1-5 1.4-7.6 0.2-1.4 1.8-1.6 2.7-2.3 0.1 2.1 0 4.3 0.6 6.3 0.6 1.4 2 2.1 3.1 2.9 1.2-2.7-0.5-5.4-0.6-8.1z" fill="#fff"/>
        <path id="path4673" class="st1" d="m206.1 205.3c1.7-0.8 3.5-1.8 5.4-2 1.8-0.1 2.7 2.8 1.3 4-2.1 1.7-4.6 2.4-7 3.5-5.6 2.8-11.2 5.5-16.7 8.6-1.2 0.8-2.7 0.6-4 0.4 0.8-1.7 1.9-3.3 3.5-4.3 5.8-3.7 11.6-7.1 17.5-10.2z" fill="#fff"/>
        <path id="path4675" class="st1" d="m416.4 208.4c0.4-2 2.6-2.3 4.2-2.9 0.4 2.9 0.7 5.9 2.4 8.3-0.9 0.1-1.8 0.2-2.6 0.3-1.2 1.9-2.5 4-4.5 5-3.3 1.7-7 1.7-10.6 1.5 3.8-1.1 8.5-1.4 11-5 1.7-2.1-0.1-4.8 0.1-7.2z" fill="#fff"/>
        <g id="g4679">
          <path id="path4677" class="st1" d="m491.9 211.3c0.5-1.6 2.3-1.6 3.6-1.4 2.8 0.5 4.8 3 6.6 5.1 1.3 1.3 1.7 3.6 0.5 5.2-1.8 1.5-4.7 0.6-6.3 2.6-4.8 5.8-12.2 9.5-19.6 8.7 1.4-2.1 3.7-3 6-3.7 4.1-1.4 7.3-4.6 10.3-7.7-0.8-2.8-2-5.8-1.1-8.8zm1.9 1.2c0.2 1.8 0.6 3.6 1.2 5.3 0.7-1.4 1.4-2.8 1.8-4.3-1-0.4-2.1-0.7-3-1zm5.8 2.2c-0.6 1.4-1 2.9-1.4 4.4 1.1-0.1 2.2-0.3 3.3-0.4-0.3-1.4-0.5-2.8-1.1-4.1-0.2 0-0.6 0.1-0.8 0.1z" fill="#fff"/>
        </g>
        <path id="path4681" class="st1" d="m302.7 214.4c1.9-1.9 5.3-0.9 6.5 1.4 0.6 1.3-0.7 2.3-1.2 3.3-1-0.6-2-1.4-3.1-1.7-1-0.3-1.3 0.9-1.6 1.6-1.2 3-1.8 6.2-2.7 9.3-0.7-1.9-1.2-3.8-2.3-5.5-1.2-1.8-3.2-2.8-4.7-4.3-1.4-1.2 0.1-3.8 1.7-3.5 2.3 0.3 3.7 2.5 5.3 4.1 0.6-1.6 1-3.4 2.1-4.7z" fill="#fff"/>
        <path id="path4683" class="st1" d="m182.5 231.8c1.9-3.4 4.9-6 8.3-7.7-0.9 2.5-2.3 4.7-3.6 6.9-1 1.6-1 3.5-1.1 5.3 2.3-0.1 4.6-0.5 6.9-1-0.6 1.9-1.3 4-3 5.1-1.9 1.3-4.6 2.3-6.6 0.6-2.2-2.5-2.4-6.4-0.9-9.2z" fill="#fff"/>
        <path id="path4685" class="st1" d="m342.1 247.2c1.7-0.3 3.7-1.1 5.2 0.2 1.5 1 2 3.6 0.6 5-2.1 1.2-4.8 0.5-6.6 2.2 0.3 2.6 2.2 4.7 2.6 7.2 0.1 1.6-1.1 2.9-1.8 4.2-0.5-2.5-0.9-5.2-2.2-7.4-0.8-1.6-2-3.2-1.6-5.1 0.4-2.1 2.5-3.1 4-4.1-0.1-0.6-0.2-1.4-0.2-2.2z" fill="#fff"/>
        <path id="path4687" class="st1" d="m418.8 250.3c0.8-2.1 2.7-3.1 4.4-4.2-0.7 1.7-1.9 3.4-2.1 5.3 0.8 1.5 2.1 2.6 2.8 4.2 0.2 2.6-3.4 3-4.7 1.4-1.5-1.8-1.3-4.6-0.4-6.7z" fill="#fff"/>
        <path id="path4689" class="st1" d="m400.3 247.4c2.8-1 5.8 0 8.3 1.5-1.8 3.9-6 4.9-9.1 7.3 0.1 0.4 0.2 1.2 0.2 1.6 2.2 0.1 4.5 0.4 6.4-0.8 2.5-1.4 5.1-2.7 7.9-3.3-2.2 2-4.3 4-6.5 5.9-2.6 2.2-6.2 2.2-9.3 1.3-1.5-0.5-3.4-1.9-2.9-3.9 0.8-2.5 3.2-3.8 5.1-5.3-1.4-0.1-2.7-0.2-4.1-0.3 1.1-1.6 2.1-3.6 4-4z" fill="#fff"/>
        <path id="path4691" class="st1" d="m472.8 254.5c-1-1.2-0.1-3.2 1.3-3.4 2.7-0.5 5 1.8 6.2 4.1 1.8 3.2 1.7 7.2 0.2 10.5-0.5-2.3-0.5-4.7-1.6-6.8-1.5-2.1-4.3-2.5-6.1-4.4z" fill="#fff"/>
        <path id="path4693" class="st1" d="m518.1 256c3.7-1.4 7.4-3.2 11.4-2.8-0.9 1.5-2 2.9-3.7 3.5-6.2 2.4-12.5 4.6-18.6 7.3-1.9 0.9-3.9 1.6-6 2.1-0.2-0.6-0.5-1.2-0.7-1.8 5.6-3.4 11.6-5.8 17.6-8.3z" fill="#fff"/>
      </g>
      <path id="path4697" class="st1" d="m9403.7-2218.3h-557.37v-52.843c25.172-21.759 59.333-51.289 59.333-68.385 0-29.53-70.121-90.144-86.302-90.144-17.98 0-86.302 62.169-86.302 90.144 0 18.65 30.566 45.072 55.737 66.831l1.7981 1.5544v54.397h-4396c156.42 155.42 388.36 153.87 854.03 158.53 415.33 6.217 413.53 6.217 3540.2 0v55.952c-25.172 21.759-55.737 51.289-55.737 68.385 0 29.53 66.525 90.144 86.302 90.144 12.586 0 53.939-34.192 75.515-63.723h192.38c12.586 21.759 41.353 34.193 75.515 34.193 34.161 0 62.929-13.988 75.514-34.193h230.14c28.768 32.638 68.323 34.193 91.696 34.193 88.1-3.1084 107.88-48.181 107.88-203.6-1.7981-130.55-89.898-144.54-264.3-141.43zm39.555 262.66h-204.97c-12.586-21.759-41.353-35.747-75.514-35.747s-62.929 13.988-75.515 35.747h-188.79c-10.788-15.542-32.363-35.747-50.343-48.18v-55.952h596.92c-10.788 40.409-12.586 76.156-1.7981 104.13z" fill="#fff" stroke-width="16.717"/>
    </g>
  </g>
</svg>
