<?xml version="1.0" encoding="UTF-8"?>
<svg width="5184" height="3456" viewBox="0 0 1371.6 914.4" xmlns="http://www.w3.org/2000/svg">
  <path d="m0 0h1371.6v914.4h-1371.6z" fill="#ee2436" stroke-width="1.4142"/>
  <path d="m4.88e-4 457.2h1371.6v457.2h-1371.6z" fill="#fff" stroke-width=".3175"/>
  <path d="m457.99 228.6a168.28 168.28 0 1 1-336.55 0 168.28 168.28 0 1 1 336.55 0z" fill="#fff"/>
  <path d="m534.16 228.6a168.28 168.28 0 1 1-336.55 0 168.28 168.28 0 1 1 336.55 0z" fill="#ee2436"/>
  <g fill="#fff">
    <path d="m447.8 234.22 9.8369-30.275-25.753-18.711h31.833l9.837-30.275 9.8369 30.275h31.833l-25.753 18.711 9.8368 30.275-25.753-18.711z"/>
    <path d="m356.01 167.53 9.8368-30.275-25.753-18.711h31.833l9.837-30.275 9.8369 30.275h31.833l-25.753 18.711 9.8368 30.275-25.753-18.711z"/>
    <path d="m412.74 342.13 9.8369-30.275-25.753-18.711h31.833l9.837-30.275 9.8369 30.275h31.833l-25.753 18.711 9.8368 30.275-25.753-18.711z"/>
    <path d="m299.28 342.13 9.8369-30.275-25.753-18.711h31.833l9.837-30.275 9.8369 30.275h31.833l-25.753 18.711 9.8368 30.275-25.753-18.711z"/>
    <path d="m264.21 234.22 9.8368-30.275-25.753-18.711h31.833l9.837-30.275 9.8369 30.275h31.833l-25.753 18.711 9.8368 30.275-25.753-18.711z"/>
  </g>
</svg>
