<?xml version="1.0" encoding="UTF-8"?>
<svg id="svg613" width="1200" height="600" version="1.1" xmlns="http://www.w3.org/2000/svg" xmlns:cc="http://creativecommons.org/ns#" xmlns:dc="http://purl.org/dc/elements/1.1/" xmlns:rdf="http://www.w3.org/1999/02/22-rdf-syntax-ns#">
  <metadata id="metadata619">
    <rdf:RDF>
      <cc:Work rdf:about="">
        <dc:format>image/svg+xml</dc:format>
        <dc:type rdf:resource="http://purl.org/dc/dcmitype/StillImage"/>
        <dc:title/>
      </cc:Work>
    </rdf:RDF>
  </metadata>
  <clipPath id="a">
    <path id="path2" d="m0 0v150h700v150h-100zm600 0h-300v350h-300v-50z"/>
  </clipPath>
  <path id="path5" d="m0 0h1200v600h-1200z" fill="#012169"/>
  <path id="path7" d="m0 0 600 300m0-300-600 300" stroke="#fff" stroke-width="60"/>
  <path id="path9" d="m0 0 600 300m0-300-600 300" clip-path="url(#a)" stroke="#c8102e" stroke-width="40"/>
  <path id="path11" d="m300 0v350m-300-200h700" stroke="#fff" stroke-width="100"/>
  <path id="path13" d="m300 0v350m-300-200h700" stroke="#c8102e" stroke-width="60"/>
  <path id="path15" d="m0 300h600v-300h600v600h-1200z" fill="#012169"/>
  <path id="path17" d="m999.48 257.01c-0.19257 67.849-10.98 140.95-99.473 175.76-88.498-34.818-99.285-107.91-99.477-175.76z" style="fill:#128bbf"/>
  <path id="path19" d="m900 432.77c40.117-15.782 64.966-41.538 79.395-69.002-2.2745-0.76742-6.8053-0.83731-8.6396-0.17867-2.1767-0.14123-85.552-6.283-95.343-9.8475-8.5183-3.0992-41.017 2.6339-56.187 8.0138 14.152 29.214 38.665 54.447 80.775 71.015z" style="fill:#e8ece9"/>
  <path id="path21" d="m838.16 390.71c1.3521-0.43623 3.9347-0.33236 4.9519-0.14956 1.1972 0.21603 1.4148 0.32403 1.8502-0.97214 0.43533-1.2962 1.4148-0.9721 2.1767-0.32403 0.7618 0.64807 2.7166 0.32403 3.4784-0.7561 0.76183-1.076 0.9795-0.96797 1.7413-0.21603 0.76183 0.7561 1.0883 0.54006 1.8502 0.32406 0.76183-0.2119 2.0678-1.076 2.7208-2.2641 0.653-1.1882 1.6283-1.6202 2.1725-0.97213 0.54413 0.64806 1.0883 0.97213 1.8501 0.8641 0.76183-0.108 0.9795 0.6481 0.87067 1.6161-0.10884 0.9721 0.3265 1.1881 2.1767-0.3199 1.6325 1.6161 2.1725 0.96797 2.1725-0.7561 0-1.7282-0.43113-8.0969-1.0841-8.961s-1.306-3.3484-1.4148-5.2927c-0.2051-3.6683-0.21766-3.8843-4.6798-6.1526 0-1.2962-0.3265-1.8362-3.4785-1.6202 0.10883-0.43204-0.43534-1.7282-1.0883-2.2683s-0.76183-0.7561-0.43533-2.2641c1.306 0.108 2.7208-0.108 3.4826-1.1882 0.75767-1.0801 3.2608-0.8641 4.7845-0.216 1.5237 0.64807 3.4827 0.7561 6.417 0.32403 1.0883-0.8641 2.9385-1.8362 4.8975-2.9164 1.9548-1.0801 2.499-1.5122 2.6078-3.0244 0.28044-3.876-1.0883-8.3129-2.1767-10.361-1.0841-2.0523-1.4106-4.6446-2.9343-7.885-1.6576-3.5271-1.6325-4.4244-3.4826-6.5847-0.5065-0.5941-1.0883-1.0801-1.1972-2.2641-0.10884-1.1882-0.54417-2.8084-1.846-3.9965-3.2901-2.9953-4.571-12.633-5.877-19.758-0.7493-4.0837-0.21766-13.709-1.9548-15.222-2.9385-2.3763-4.3533-1.9442-6.3123-2.7003-1.4148-1.9442-2.0636-5.8286-3.3696-9.285-2.0678 0.32403-3.4827 2.4843-4.8975 3.2404s-1.6325 0.7561-1.6325 2.7003c0 1.9401-1.0883 4.6404-3.0431 7.6648-1.959 3.0202-5.224 2.1603-7.9406 6.6927-5.9858-7.2328-6.0946-9.285-6.53-11.337-0.43533-2.0481-1.4148-2.4802-4.7844-5.3965 0-0.8641-0.43533-4.3164-0.10883-6.2606-2.5032-2.0523-4.3533-1.7282-5.5463-0.21603-1.1972 1.5122-2.0678 3.7763-3.918 4.6404-1.1093 1.4-4.4538 4.9312-7.1913 9.1355 2.4906 37.572 11.034 74.87 36.723 104.7z" style="fill:#69522b"/>
  <path id="path23" d="m999.48 257.01c0.0753-25.558-1.3562-50.372-0.70324-72.116-33.068-14.686-76.581-17.706-98.77-17.706-22.194 0-65.706 3.0202-98.774 17.706 0.653 21.744-0.77436 46.558-0.7032 72.116z" style="fill:#bca76b"/>
  <path id="path27" d="m805.9 286.59c1.0883 1.7282 3.0473 4.6986 3.265 6.3146 0.76183-1.5662 1.3604-2.2641 1.5236-3.2362 0.16327-0.97214 1.306-2.8624 0.87067-3.8885-0.43534-1.0261-0.76184-1.8362 0.43533-1.0801 1.193 0.7561 0.96277 2.0647 0.70323 3.9965-0.70323 5.2885-2.9343 6.3687-3.2608 9.9331 3.2106 7.5028 0.81627 10.203 4.2947 17.544 0.54417 0.32403 1.9967-0.25343 2.432-0.1454 1.846-1.2962 3.2273-0.82673 5.8351-0.28667 2.612 0.54007 4.0268 2.3722 4.0268 3.9924s0 2.0523 0.54416 3.0244c0.54417 0.97213 1.6325 2.4843 1.4148 3.5645-0.21767 1.076 0.21766 1.724 0.54416 2.2641 0.3265 0.54006-0.10883 1.7282-0.43533 2.4843s-0.21767 1.7282 1.0883 3.3484c1.306 1.616 4.3491 8.4209 4.3491 12.413 0 3.9965 0.21767 5.8327 1.8502 6.5847 1.6325 0.7561 2.1767 1.4042 1.959 3.1324-0.21767 1.7282 0.76183 10.689 0.97947 12.093 0.21766 1.4042 0.76183 1.0801 1.4148 1.8362 0.64883 0.75193 1.0842 1.6161 3.2608 1.6161 2.1767 0 4.278-0.28667 5.6928-0.0706 1.959 2.7003 3.1561 6.3686 3.5915 8.6369 0.43534 2.2683 0.39767 5.3633 1.1595 5.3633 0.76184 0 1.5237 0.10804 1.306-2.7003-0.21766-2.8083-0.43533-3.2404-1.4148-4.6404-0.9795-1.4042-1.5237-2.0522-0.9795-2.9164 0.54417-0.8641 0.653-2.2683 0.43533-3.3484-0.21766-1.0801-0.54416-2.6962 1.306-0.54007 1.8502 2.1603 2.3943 2.7003 2.9385 3.4564 0.54417 0.7561 0.75767 2.1603 0.653 3.4564-0.10883 1.292 0.10467 1.8321 0.8665 1.184 0.76183-0.64393 1.7413 0.43203 1.306 1.8362-0.43534 1.4042 0.10883 2.2683 1.4148 2.7003 1.306 0.43203 1.8502 0.7561 2.1767 1.7282 0.3265 0.97213 1.4148 1.4 1.4148-0.54007 0-1.9442-0.76183-6.0488-1.306-7.3408-0.54417-1.2962-0.9795-4.1045-1.0883-5.7247-0.10884-1.6202-0.43534-2.0481-1.1972-2.3722-0.76183-0.32404-1.4148-0.8641-1.5237-1.6202-0.10883-0.7561-0.7618-1.0261-1.2516-1.0261-0.48974 0-0.9209-0.37803-1.193-0.9181-0.2721-0.54006-0.54417-0.59406-1.0883-0.6481-0.54417-0.054-1.4148 0.27004-1.6869-0.59406s-0.653-2.1063-1.1972-2.8083c-0.54417-0.7021-1.0339-0.91813-1.0883-3.3443-0.0544-2.4303-0.10884-2.7544-0.87067-3.6185s-2.0678-3.1282-2.612-4.1004c-0.54-0.97213-1.0842-1.9442-1.0842 0.108 0 2.0481 0 3.1283 1.3018 3.8843 1.306 0.7561 1.6325 0.7561 1.0883 1.8362-0.54417 1.0801 0 1.8362 0.21763 2.5923 0.21767 0.7561 0.653 1.5122 0 2.2641-0.65297 0.7561-1.306 0.54006-1.1971-0.64394 0.10883-1.1881-0.3265-2.5923-0.8665-3.5644-0.54417-0.97213-0.97947-1.6202-1.6325-1.0801-0.653 0.54006-1.1972-0.10804-0.76183-0.54007 0.43533-0.43207 0.3265-0.7561 0-1.0801-0.3265-0.32407-0.43534-0.6481 0.10883-1.2962s0.54417-0.97213 0.21767-2.4802c-0.3265-1.5122-2.7208-9.069-3.8092-10.797-1.0883-1.7282-0.9795-3.0244 0.43533-1.2962 1.4148 1.7282 2.612 3.2404 2.7208 4.6404 0.10883 1.4042 0.43533 2.2683 0.87066 2.8084 0.43534 0.54006 0.76184 0.32403 0.9795-0.86414 0.21764-1.1881 1.0883-0.7561-0.43533-3.0202-1.5237-2.2683-4.3533-6.0487-5.4417-12.849-1.0883-6.8007-1.5236-11.337-2.612-13.169-1.0841-1.8362-1.4106-2.2683-1.5195-3.9965-0.10883-1.7282 0-3.4564-0.76183-4.7484-0.76184-1.2962-1.306-1.5122-1.4148 0.43203-0.10883 1.9401 0.10884 6.2606 0.653 7.0167 0.54417 0.7561 0.21767 2.6962 0.10884 3.7763-0.10884 1.0801-1.8209 2.1478 1.7413 4.3205 1.4148 0.8641 1.193 2.0523 0.97947 2.8084-0.21767 0.75193-0.43534 0.64393-1.1971-0.54007-0.76183-1.1882-1.5237-2.1603-2.2855-2.8084-0.76183-0.64806-0.87066-1.0801-0.76183-2.5923s0.43533-2.5923 0-3.1282c-0.43533-0.54007-0.653-0.108-0.87067 0.75193-0.21766 0.86413-0.43533 3.2404-0.87066 3.8885-0.43534 0.6481-0.653 0.21603-0.9795-1.1881-0.32647-1.4042 0.10883-3.5603 0.87066-6.0446 0.76184-2.4843 1.1972-5.0766 0.54417-8.3129-0.653-3.2404-0.3265-4.2125-2.8296-6.9087-2.499-2.7003-5.3286-5.2927-6.5258-8.6369-1.1972-3.3484-1.4148-6.2648-2.7208-7.777-1.3018-1.508-3.152-3.4523-4.3491-3.9923v-4.9645c0-1.1881-0.54416-1.9442-1.959-1.7282-1.4148 0.21604-2.2855 1.4042-3.152 3.0202-0.87067 1.6202-1.5236 0.8641-2.7208 3.6725-1.1972 2.8083-2.9385 4.2084-2.9385 7.2327z" style="fill:#cfa763;stroke-width:4.1701"/>
  <path id="path29" d="m813.74 318.22c0.87067 0.54007 1.7037 0.9015 3.0097 0.25343 1.306-0.6481 2.8673-2.5176 4.6086-0.68133 1.7371 1.8321 2.7166 4.8565 2.7166 7.2328 0 2.3721 0 6.8007 2.7208 9.285 2.7208 2.4802 4.1315 5.0725 4.2403 8.3129 0.10883 3.2362 1.306 8.2049 1.6325 9.501 0.3265 1.292 1.0883 2.8042 1.959 3.6683 0.87066 0.86413 1.5237 3.3484 1.6325 5.9366 0.10883 2.5923-0.3265 4.4286 0 5.7247 0.3265 1.2962 0 2.3763-0.9795 1.7282-0.9795-0.64806-1.1972-0.97213-1.7413-2.0523-0.54416-1.0801-1.1972-0.8641-0.653 0.7561 0.54417 1.6202 2.1767 3.1282 3.5915 3.1282s1.8501 0.21603 2.7208 1.0802c0.8665 0.8641 0.97534 1.2961 2.499 1.2961 1.5237 0 1.7413 0 3.1562 0.43207 1.4148 0.43206 1.4148 0.21603 2.1767 0 0.7618-0.21604 1.5195 0.43206 2.0636 1.8362 0.54416 1.4042 1.8501 5.2885 1.8501 6.3686s0 2.1603 0.76183 3.2404 0.54417 2.1603-0.3265 1.5122c-0.87066-0.64806-0.87066-0.43203-1.5236-0.32403-0.653 0.108-1.0883-0.21603-1.9548-0.7561-0.87064-0.54007-0.3265-0.43203-1.1971-1.7282-0.87066-1.2962-1.4148-1.7282-1.4148-0.7561s-0.10883 2.1603-0.76183 1.6202-0.9795-0.54007-1.5237 0-0.76183 0.97213-1.4148-0.108c-0.653-1.0802-1.4148-1.0802-2.0678-1.2962-0.653-0.21603-0.653-0.21603-0.97534-1.1882-0.3265-0.9721-1.306-1.1881-2.1766-1.1881s-1.306-0.43206-1.4148-1.0801c-0.10884-0.64393-0.653-1.076-1.0883-1.4-0.43533-0.32404-0.21766-1.0801-0.3265-1.8362-0.10883-0.7561-0.76183-0.43206-1.1972-0.64806-0.43534-0.21604-0.7618-0.10804-0.7618-1.1882s-0.43534-1.4042-0.76184-2.1603c-0.32233-0.7561 0-1.5122 0.21767-2.3721 0.21767-0.86413 0.10883-1.4042-0.54-2.1603-0.653-0.75607-0.10883-1.5122-1.8501-3.0244-1.7413-1.5122-2.612-0.21603-3.1562-3.7763-0.54417-3.5644-1.6325-10.905-2.612-12.093-0.97947-1.1881-1.6283-2.0522-2.6078-2.3763-0.97947-0.32407-1.6325-0.10804-1.7413-2.1603-0.10883-2.0481-0.76183-4.6404-2.0678-5.9366-1.306-1.2962-1.8502-1.7282-2.5032-2.2683s-0.87063-1.5122 0-3.3443c0.87067-1.8362 0.54417-4.3205 0.43533-5.5087-0.10883-1.184-0.43533-2.6962-0.21766-3.9923 0.21766-1.2962 0.10883-2.9164-0.21767-3.7805-0.3265-0.86413-0.76183-1.0801-0.21767-1.7282z" style="fill:#cfa763;stroke-width:4.1701"/>
  <path id="path95" d="m846.81 377.28c-0.653 1.2962-1.4148 0.8641-2.0678 0.21603-0.653-0.6481-1.4148-0.6481-1.0883-1.8362 0.3265-1.1882 0.21767-1.4042-0.653-2.0523-0.10047-0.0748-0.2009-0.14123-0.30137-0.2077-0.2721-8e-3 -0.59023-8e-3 -1.0046-8e-3 -1.5236 0-1.6325-0.43203-2.499-1.2961-0.19673-0.19114-0.36833-0.34897-0.53576-0.48194-0.0168 0.20774-8e-3 0.48194-8e-3 0.80597 0 1.1881 0 0.9721-1.1971 1.2962-1.1972 0.32403-0.9795-1.1882-1.1972-2.1603-0.0586-0.24924-0.12557-0.43204-0.18837-0.5816-1.3102-0.24927-2.6915-1.6202-3.1855-3.0867-0.54416-1.6202 0.10884-1.8362 0.653-0.7561 0.54417 1.0801 0.76184 1.4042 1.7413 2.0523 0.9795 0.6481 1.306-0.43203 0.9795-1.7282-0.10467-0.41543-0.12977-0.89736-0.1172-1.4333-0.23444-0.4196-0.55254-0.76027-0.97114-0.94304-1.7413-0.7561-1.1972-0.97213-1.0883-2.3763 0.10883-1.4-0.21767-1.4-1.306-0.6481-1.0883 0.7561-1.1971-0.108-1.1971-2.2641 0-2.1603-1.4148-2.1603-1.7372-0.64807-0.3265 1.5122-0.87067 0.54007-1.5236-1.6202-0.653-2.1603-1.5237-2.7003-1.6325-0.6481-0.0921 1.7365-0.57767 2.152-1.7162 1.1882 0.2009 1.2546 0.3767 2.4261 0.51903 3.3484 0.54417 3.5603 1.4148 2.2641 3.1562 3.7763 1.7413 1.5122 1.1971 2.2683 1.8501 3.0244 0.64883 0.7561 0.75767 1.2962 0.54 2.1603-0.21767 0.85993-0.54 1.616-0.21767 2.3721 0.3265 0.7561 0.76184 1.0801 0.76184 2.1603s0.32646 0.97213 0.7618 1.1882c0.2721 0.13293 0.6237 0.0581 0.87903 0.16616 0.28047-0.3656 0.5358-0.81426 0.8623-1.1383 1.306-1.2962 3.265 0.108 3.918 1.7282 0.65297 1.6202 1.4106 2.0523 2.3901 0.7561 0.97947-1.2962 0.65297-1.0801 1.7413 0.10804 1.0883 1.1881 1.5237 0.9721 1.5237 0.9721s1.0883-0.43204 1.8502 0.21603c0.76183 0.6481 1.1972 0.54007 2.6078-1.5122 1.4148-2.0522-0.64884-1.4042-1.3018-0.108z" style="fill:#d7c99c;stroke-width:4.1701"/>
  <g id="g187" transform="translate(-8e-5,-2.56e-4)" style="fill:#7fb8c1;stroke-width:4.1701">
    <path id="path97" d="m847.79 392.4c2.6078-0.21604 9.6819-2.2683 10.44-2.9164 1.7413 1.1881 4.7886 2.8083 6.0946 2.8083-2.5032 0.54007-4.1357 0.21604-4.7887-0.216 0.3265 0.75607 1.1972 1.9442 1.7413 2.0522-2.3943-0.108-5.1109-0.64807-5.9816-1.5122-2.0678 0.8641-5.5505 1.0801-7.5053-0.21603z"/>
    <path id="path99" d="m852.46 395.64c0.9251 0.27003 5.5463 1.0261 6.1449 1.0261-1.5237 1.292-0.21767 2.5342 2.3399 2.3181-1.2516 0.16204-2.6162 0.63147-1.6869 0.8101 2.2311 0.43207 8.2671-1.1881 9.4643-1.8362-2.0678 2.6463-12.126 5.0766-16.262-2.3181z"/>
    <path id="path101" d="m856.6 402.22c1.2474-0.64806 4.3491-0.43203 5.8184 0.27004-1.6325 0.5941-4.8389 0.5941-5.8184-0.27004z"/>
    <path id="path103" d="m861.27 402.11c2.2311-0.37806 8.5392 1.1341 10.77-0.21603-0.76184 1.9983-4.7342 2.2683-6.0946 1.8362-1.3562-0.43206-2.6622-0.97213-3.5873-0.9181 0.48974-0.27006-0.3265-0.32406-1.0883-0.7021z"/>
    <path id="path105" d="m863.56 405.19c1.6869 0.2659 7.7229-0.48603 9.5731-1.1881 1.9548 0.64806 5.8184 1.6701 6.689 1.562-1.8502 1.1342-5.3872 0.48607-6.5258 0-3.265 1.0801-5.9314 1.4042-9.7363-0.3739z"/>
    <path id="path107" d="m866.44 406.2c2.4152 0.54007 4.4747 0.1537 6.8523-0.63563 0.7409 0.31573 2.4864 0.7021 4.1273 0.62317 1.0925 0.619 2.5617 1.4831 3.9766 1.5911-1.4692 0.59407-6.8565 0-7.9406-0.5941-2.7208 0.054-7.4006 0.6481-8.5392 1.5662-0.0544-0.7561 0.43953-1.8071 1.5237-2.5508z"/>
    <path id="path109" d="m863.56 394.02c1.8836 0.62316 8.7024 0.32403 12.181-1.2962 1.373-0.63977 2.2227 0.43207 0.653 0.97213-5.6551 1.9442-10.117 2.7003-13.378 0.9721-1.2893-0.6813-1.4148-1.2962 0.54417-0.64806z"/>
    <path id="path111" d="m896.95 384.84c-8.3759 3.8843-13.926 5.0725-25.563 1.5122-1.0841-0.33237-1.8502 0-0.653 0.7561 1.1972 0.75193 7.6141 2.4801 9.1378 2.5882 1.5237 0.108 0.9795 0.8101 0.0544 1.0801s-1.1972 0.9181 0.0544 0.43203c1.2516-0.48603 8.242-0.66883 11.097 0.8101 1.2474 0.6481 1.5739 0.54007 1.4651 0.054-0.10883-0.48606 0.54417-0.81009 1.4692-0.91813 0.92507-0.108 1.4692-0.43203 0.76184-0.7021-0.70744-0.27003-0.81627-0.43203-0.2721-0.70206 0.54416-0.27004 0.5986-0.54007-0.21767-0.7021-0.81623-0.162-1.3604-0.37804-0.59857-0.7561 0.76184-0.37387 1.9046-0.64807 2.7752-0.75194 0.21766-0.59406-0.16324-2.1603 0.48973-2.7003z"/>
    <path id="path113" d="m883.03 385.81c4.7886 0.3365 13.6-1.8362 18.28-6.3687 1.6283 0.96796 3.9138 2.0481 5.1109 2.2641 1.1972 0.21603 2.2855 1.2962 0.43533 1.2962-1.8501 0-4.4621-0.7561-5.6551-1.2962-6.2035 3.7805-13.462 5.0226-18.062 4.6446-1.3018-0.10803-1.6283-0.6481-0.10883-0.54007z"/>
    <path id="path115" d="m875.47 372.31c-0.6446 0.11216-3.424 0.7561-4.1859 0.7021-0.76183-0.054-1.5237 0.16203-1.4692 0.7021 0.0544 0.54006 0.27207 0.8641-0.87067 0.75606-1.1427-0.108-2.1222 0.32407-2.3943 0.6481-0.27207 0.32404-0.48973 0.64807 0.653 0.7561 1.1428 0.108 1.7413 0.21604 3.0473-0.37806 1.306-0.59407 2.5576-1.5122 3.9724-1.5662 1.4106-0.054 2.8255-1.8902 1.2474-1.6202z"/>
    <path id="path117" d="m871.55 375.66c1.1888 0.7644 7.0699 2.7543 9.1922 2.5923 2.1222-0.16203 1.7246 0.84334 0.10883 1.1881-3.3194 0.69793-7.3713-0.7353-10.117-2.9164-1.3604-1.0801-0.10884-1.4582 0.81626-0.8641z"/>
    <path id="path119" d="m899.4 378.52c-4.4998 1.4249-9.0834 0.9181-10.934 0.43203-1.8501-0.48603-3.5371-0.59407-2.2855 0.5941 1.2516 1.184 5.2784 1.9941 7.5597 1.4-8.1038 1.8362-10.226 1.6742-12.235 1.3502-2.0134-0.32404-5.7933-0.2534-7.3964-0.108-1.1972 0.108-2.8297-0.054-3.5371-0.48607-0.70743-0.43203-0.9251-1.2422 1.1972-1.0261 2.118 0.21603 2.3943-0.21604 0.54413-0.48607-1.8501-0.27003-4.4077 0.48607-1.9046 2.0523 2.5032 1.5662 7.995-0.108 11.478 0.8641 3.4785 0.97213 10.875 1.6742 17.895-3.9425 0.36-0.28667 0.9795-1.076-0.3809-0.64393z"/>
    <path id="path121" d="m888.91 374.04c-0.92507 0.054-2.5576-0.54007-3.4282-0.91813-0.87066-0.37804-2.118-0.43204-1.193 0.8101 0.9209 1.2422 4.9477 1.9443 6.3625 1.3502s0.81623-1.2422 2.2269-0.37807c1.4148 0.8641 2.8841 1.4582 3.918 1.4582s1.4148 0 0.27206-0.6481c-1.1427-0.64807-1.6869-0.8101-1.7957-1.3502-0.10883-0.54006-0.27207-0.8641 0.76183-0.54006 1.0339 0.32403 2.2311 0.9181 3.0473 0.48606 0.81623-0.43206 2.3357-1.4042 3.6961-1.4042l0.3265-0.8101c-1.959-0.16204-3.2064 0.43203-3.7505 0.64806-0.54416 0.21604-1.5237 0.32404-2.5576 0.16204-1.0339-0.16204-2.3943-0.27004-2.7208-0.54007s-0.3265-0.48607 0.54417-0.6481 1.1428-0.7561-0.0544-0.54007c-1.1972 0.21604-4.4035 0.108-6.0905-0.43206-1.6869-0.5359-2.3943-0.5899-3.1017-0.32404-0.7074 0.27004-0.59857 1.0261 0.43533 1.0801s3.3738 0.27003 4.1901 1.0261 0.7074 0.8101-0.21767 0.43207c-0.92506-0.37807-2.612-0.16204-0.87066 1.0801z"/>
    <path id="path123" d="m928.28 371.13c-3.2608 2.3763-7.1788 2.9164-11.854 3.2404-1.3604 0.0956-0.9418 0.47777 0.21767 0.59407 4.8933 0.48607 10.553-1.2962 12.399-3.2404 0.5358-0.56083 0.4772-1.4914-0.76183-0.59407z"/>
    <path id="path125" d="m906.04 376.63c1.4148 0.054 6.3081 1.2962 7.8862 1.8362 1.1971-0.10804 1.5236-0.37807 1.306-0.81014-0.21766-0.43203-0.3809-0.9181 1.7958-0.8101 2.1725 0.10804 7.1788 0.054 8.1038 0.054 0.76184-0.32407 2.4446-1.6202 3.2064-1.6742-1.9548 0.10804-10.113 0.54007-11.147 0.43207-1.0339-0.108-1.5781 0-2.2311 0.37803-0.653 0.37807-1.0339 0.54007-1.8502 0.21604-0.81623-0.32404-2.2855-0.7561-3.0975-0.27004-0.81627 0.48607-2.5032 0.054-3.9724 0.6481z"/>
    <path id="path127" d="m925.13 376.9c0.76184-0.32407 2.4446-1.6202 3.2064-1.6742 1.4148-0.108 3.0473 0.48607 3.8091 0.5941 0.76183 0.108 1.5781-0.054 1.0339-0.6481-0.54417-0.59406-0.0544-1.6202 2.1766-1.3502 2.2269 0.27003 3.3696 0.64806 5.5463 0.43206 2.1766-0.21603 3.1561 1.4042 7.2876-0.21603-0.3265 1.6202 0.43533 1.7282 1.1972 1.4042 0.76183-0.32404 1.6325-0.21604 2.9385 0.7561 1.306 0.97213 9.2466 1.0801 11.097 0.7561 1.846-0.32404 2.8255 0.64806 1.4106 1.0801-1.4106 0.43207-1.7413 1.0801-1.4106 1.5122 0.32233 0.4279 0.6488 0.96797-1.0883 0.75193-1.7413-0.21603-2.0678 0.32404-2.9385 0.97214-0.87067 0.64806-1.0883 0.8641-3.4827 0.43203-2.3901-0.43203-2.8255-0.108-4.1314 0.10803-1.306 0.216-1.6325 0.216-2.9385-0.21603-1.306-0.43207-4.1315-0.86413-5.8728-0.32403-1.7413 0.54006-3.0473 1.0801-4.571 0.64806-1.5237-0.43206-1.6325-0.21603-0.653-1.1882 0.9795-0.9721 1.1972-0.8641 3.0473-1.0801 1.8502-0.21186 3.265-0.75193 1.959-1.508-1.306-0.7561-1.7413-0.64807-3.4827 0.21603s-2.612 1.4-4.5668 0.32404c-1.959-1.0801-2.9385-0.8641-4.2445-0.54007-1.306 0.32407-3.4785-0.43203-5.3286-1.2421z"/>
    <path id="path129" d="m931.66 380.14c-2.4906 0.35313-3.1603-1.238-5.764-0.91397-0.87067 0.10804-2.3399 1.184-0.3265 1.022 2.0092-0.16203 4.1859 0.9181 6.1449 0.75607 1.959-0.162 1.0883-1.0261-0.0544-0.8641z"/>
    <path id="path131" d="m928.77 382.03c1.3102-0.4736 4.0268 0.43207 5.1695 0.21604 1.1428-0.21604 2.2311 0.48606 1.0339 0.8641-1.1972 0.37806-4.0812-0.70207-5.3872-0.32404-1.306 0.37807-2.6078-0.108-0.81623-0.7561z"/>
    <path id="path133" d="m902.77 388.99c1.7958 0.0582 8.2671-0.21604 10.825-5.6126 0.19673-0.41543 0.3809-0.59407 1.1972-0.054 0.81624 0.54007 3.8091 2.3223 9.4098 2.8084 1.5697 0.1371 3.265 0.9181 0.10883 0.70206-3.1562-0.216-8.1583-1.0801-9.8452-2.1062-2.8297 4.4244-7.9113 4.9478-11.695 4.8564-2.2813-0.054-1.7371-0.64806 0-0.59406z"/>
    <path id="path135" d="m916.75 381.65c-0.87067 1.1881-3.8636 3.2404-5.224 3.3484-1.3562 0.108-5.4375-0.27003-6.4714-0.6481-1.0339-0.37803-2.2855-0.27003-0.81624 0.7561 1.4692 1.0261 5.1151 1.7282 6.5802 1.4042 1.4692-0.32403 3.1561-0.8101 4.2989-0.108s3.265 2.0481 4.5124 1.7781c1.2516-0.26587 3.8091-0.26587 4.6254 0.108 0.81626 0.37806 2.2311 1.5122 0.10883 0.86413-2.1222-0.6481-3.8635-0.10803-4.843-0.54007 1.0883 1.5122 3.558 3.9425 5.6593 3.9425 0.48973 0 0.81623 0.86413-0.21767 1.3502 1.0339 0.48603 3.424 0.8641 4.6756-0.27004-0.3265 0.43204-0.16326 0.70207 0.3809 0.9721 0.54417 0.27004 1.1972 0.6481 0.21767 0.7561s-3.2064 0.37804-3.8594 0.108c2.118 1.346 7.6141 3.5063 13.215 2.4262 1.0674-0.20357 1.6325-0.64393-0.10883-0.59407-3.5915 0.108-3.805 0.054-4.458-0.3199-0.653-0.3822-0.54417-0.7021 0.48977-1.0261 1.0297-0.32403 3.6417-0.70207 4.73-0.70207s2.1767-0.43206-0.0544-0.43206-4.9477 0-6.036-0.37804c-1.0883-0.37806-1.9046-0.86413-0.76179-1.6202 1.1427-0.75607 2.3399-0.54007 2.8841-1.2421-3.5915-0.054-7.9992-1.9443-5.5505-3.6683 0.5693-0.403 0.38094-0.43207-0.54413-0.54007-0.9251-0.10803-3.6417-0.86413-4.7845-1.5122-1.1428-0.6481-0.38093-1.1882 0.54417-1.3502-2.1222 0.37803-6.3667-0.7561-9.1922-2.8624z"/>
    <path id="path137" d="m948.68 381.55c-1.959 1.4582-5.6551 2.0522-7.2332 2.0522s-1.7958 0.54007-0.54417 0.7021c1.2516 0.16204 2.612 0.32404 3.1561 0.16204 0.54417-0.16204 0.87067-0.21604 1.6827 0.162 0.81623 0.37806 2.5576 0.59406 4.0812 0.10803 1.5237-0.48607 4.0226-0.7021 5.0565-0.6481s2.1767 0.10803 0.10884-0.48607c-2.0636-0.59406-5.4375-0.162-6.2537 0.054-0.81624 0.21604-3.0473 0.054-1.8502-0.32403s2.2311-0.9721 2.8297-1.4582c-0.43534-0.10803-0.70744-0.21603-1.0339-0.32403z"/>
    <path id="path139" d="m947.65 385.76c-1.6869 1.2422-4.1315 2.4262-6.6346 2.5342 2.2855 0.8101 4.1901 3.1324 5.6551 3.0244-0.7074 0.43203-1.5739 1.0801-2.499 1.1881 1.4148 0.37806 3.805-0.054 5.764-1.1341 3.265 0.91809 7.5053 0.32403 8.9201-0.8641-2.1222 0-4.6756-0.7561-5.8184-1.7282 1.0339 0 2.0092-0.64806 2.499-1.238-2.4446 0.4279-6.6346-0.7561-7.8862-1.7822z"/>
    <path id="path141" d="m944.17 392.5c0.9251-0.108 1.7916-0.7561 2.499-1.1881-1.7915 0.59406-9.6275-0.6481-11.963-2.7003-2.3399-2.0481-2.3399-0.48606-0.7074 0.9721 1.6325 1.4582 4.5124 3.6725 10.172 2.9164z"/>
    <path id="path143" d="m949.93 397.47c-0.9795 0.54007-5.6551 0.86414-7.1788 0.54007-1.5237-0.32403-2.1767-0.162-1.7958 0.43207 0.38093 0.59406 0.54417 1.1341-0.7074 0.97213-1.2516-0.16203-3.4827 0.108-4.4035 0.43203-0.9251 0.32407-2.0678 1.1342-0.10884 0.8101 1.9548-0.32403 3.7505-0.70206 5.2198-0.32403 1.4693 0.37807 6.689 0.48607 7.723 0.054 1.0339-0.43203 0.32646-0.43203-0.16327-0.43203s-0.7074-0.32407 0-0.6481c0.7074-0.32404 1.2516-1.2421 1.4148-1.8362z"/>
    <path id="path145" d="m904.68 391.21c-1.959 0.86413-8.4848 2.5923-10.226 2.7004-2.1767 0.9721-3.9138 1.5122-5.0021 1.5122 0.76184 0.6481 3.6961 1.292 4.8933 0.97214-0.653 0.64393-2.1725 1.4-2.7166 1.7241 1.7371-0.21603 3.805 0.21604 4.6756 0.32404-2.2855 1.2962-5.4375 1.7282-7.07 1.5122 0.54416 0.7561 1.306 1.5122 2.2855 1.5122-2.0678 0.54007-4.571 0.54007-5.877 0.10804 0.54417 1.0801 1.0883 1.7282 1.8501 1.8362-1.7413 0.21603-3.918 0.54007-5.7639-0.54007 1.4106 1.8362 4.5668 2.4801 9.2466 1.9442 4.6756-0.54007 8.5936-2.5923 9.6819-3.4564-1.959 0.21604-4.571 0.32404-5.877 0.108 2.612-0.64806 8.2671-3.0244 9.2466-3.9965-1.0883 0-2.1725-0.32403-2.9385-0.8641 1.5237 0.21604 6.8565-0.4279 8.489-1.076-1.959-0.43207-3.1562-1.6202-3.7003-2.3763 6.8523 2.1603 14.479 1.454 18.167 0.54006 0.87064-0.21603 0.9753-1.3128-0.76183-1.1882-3.0473 0.21603-8.9201-0.64807-10.444-1.4042 1.4148 1.0801 3.1561 1.7282 4.3533 1.9442-2.8296 0.7561-6.7434 1.2962-12.512-1.8362z"/>
    <path id="path147" d="m891.63 398.12c0.54417-0.32403 2.0636-1.0801 2.7166-1.7241-1.1972 0.31986-4.1315-0.32404-4.8933-0.97214 1.0883 0 2.8255-0.54006 5.0021-1.5122-3.9138-0.10804-6.6346-0.10804-8.0494-0.86414s-4.0226-0.54006-5.0021-0.32403-0.653 1.8362 3.4785 1.4042c-1.7413 1.1882-6.417 1.6202-8.1583 1.1882 0.43533 1.4 0.76183 2.8042 0.3265 3.5603 2.2855 1.2962 8.2671 2.9164 11.206 2.7003-2.612-0.97214-4.0268-2.0523-1.8501-2.2683 2.1766-0.21604 3.3738-0.64807 5.224-1.1881z"/>
    <path id="path149" d="m884.88 405.14c5.2072-0.43203 12.181-0.52343 17.731-5.1846 1.4148-1.1882 2.365-0.78934 0.9795 0.43203-2.9343 2.5923-10.226 6.1526-17.187 6.2606-2.8339 0.0457-4.1315-1.2962-1.5237-1.508z"/>
    <path id="path151" d="m923.88 396.6c-1.306 0.48607-4.9519 1.0801-6.036 0.91814-1.0883-0.16204-2.6664-0.21604-3.5371 0.32403-0.87067 0.54007-0.92507 0.8641 0.2721 0.9721 1.1971 0.10803 2.7208 0.21603 3.4826 0.16203-0.9795 0.54007-1.6325 1.2962-1.8502 1.6202 1.7413-0.43203 4.9477 0.32404 5.8728 0.8641-0.70743 0.21604-1.5237-0.054-2.1222-0.37803 2.9385 3.0784 11.641 3.0784 13.056 2.5383-0.653 0.48604-1.2516 0.9721-1.9046 1.1341 2.4487 0.43203 5.2742 0.37803 8.0494-1.2422-0.92507 0.16203-3.6961-0.108-4.4035-0.162 0.54417-0.54007 1.3562-1.0261 2.118-1.2422-1.0841-0.21603-4.5124-0.10803-5.3286 0.32404 0.3265-0.64807 0.92507-1.4582 1.5781-1.7282-4.2989 0-9.5187-0.054-11.423-1.0802 3.0473 0.32407 6.4211-1.4582 7.8318-1.4582-2.3901-0.054-5.0021-0.59406-5.6551-1.5662z"/>
    <path id="path153" d="m912.94 398.98c-2.1222 0.43207-5.3286 1.2962-6.1993 1.7822-0.87067 0.48606-1.7957 0.7561 0.10883 0.7561 1.9046 0 7.07 0.216 8.2127 0.37803-2.8841-0.43207-6.7979-0.54007-7.5597-0.54007s-1.6325-0.054-0.21767-0.48606c1.4148-0.43204 3.265-1.4042 5.6551-1.8902z"/>
    <path id="path155" d="m908.65 404c0.75763 0 4.077 0 5.383-1.1341 1.3604 1.0261 3.9724 2.4801 5.6551 2.4801 1.6869 0 1.5237 0.43206 0.0544 0.5941-1.4651 0.162-4.3491-0.69794-5.8184-1.7781-1.959 0.70207-3.5873 0.108-5.2742-0.16203z"/>
    <path id="path157" d="m883.47 418.52c3.3696 1.2961 7.8318 2.2683 11.093 1.1881 1.8502 1.6202 5.6593 1.7282 7.7229 1.2962 2.0678-0.43207 3.918-0.6481 6.2035 0.108 2.2813 0.7561 6.9611 0.8101 8.2671 1.8861-1.1972 0.0582-3.7547 0-4.3533 0.16617-0.5986 0.15786-0.2721 0.5359 0.81623 1.13-3.6961-0.21604-10.063 1.3502-12.018 3.0244 0.70323-1.6742 2.8799-3.9425 6.3081-3.9425-1.959-0.69793-8.2127-0.75193-10.226 0.48607-0.59857-0.64807-1.306-1.7241-1.3604-2.1561-3.3152 1.8861-9.8452-0.81013-12.453-3.1864z"/>
    <path id="path159" d="m874.82 412.48c4.0143-0.56914 6.7476-1.8362 7.9448-3.0244 0.70743 0.64807 3.6417 1.2962 6.8523 0.32403-0.653 0.48607-0.70743 1.4042-0.43533 1.8902-2.1222 0.054-6.1491 1.0801-7.5053 1.7822-1.3604 0.69793-5.3328 1.184-6.6346 0.4819-1.306-0.69793-1.3604-1.292-0.22187-1.454z"/>
    <path id="path161" d="m889.18 411.67c-2.1222 0.054-6.1491 1.0801-7.5053 1.7822 0.2721 0.54007 0.43533 1.4 0.48976 1.9941 3.9138-1.4042 12.888-2.2641 16.317-1.7241-1.6325 0.108-4.7342 1.7781-6.4714 1.9941 4.2403-0.32403 8.3759 0.54007 9.4601 0.8101 1.0883 0.27004 1.306 1.0801 0.48973 1.8362-0.81623 0.7561-1.193 0.8641 0.54417 0.9181 1.7413 0.054 5.3328-0.162 6.9653-1.7282-0.653-0.7021-2.3399-0.43207-2.8297-0.91814 1.1428-0.37803 2.4487-1.1881 2.9385-1.7822-2.9385-0.054-4.0268-0.10803-5.0063-0.32406-0.9795-0.21187-1.6869-0.48604-0.48976-1.13 1.1972-0.6481 1.7413-1.1882 2.1222-1.6202-2.1222 0.59407-5.4374 1.0801-8.2127-1.0801 1.0339 0.27003 3.4785 0.108 4.3491-0.27004-0.9251-0.48606-1.6827-0.86413-2.4446-0.86413 2.2269-1.0801 6.6346-2.0522 12.072 0.10803 2.7208-0.21603 5.6593-0.10803 7.7229 0.43204 0.87067-0.8641 2.7208-2.9164 3.7003-3.4564-6.417 0.54007-17.949-0.64806-17.731-3.9923-2.0678 2.6962-6.8523 4.2084-8.9201 3.7763-0.21766 0.9721 0.653 2.1603 1.4148 2.8083-2.1766 0.43206-5.877 0.7561-7.6141 0.43206 0.9795 0.9721 2.8255 1.8362 3.9138 1.7282-2.2813 0-3.4785 0.43207-5.2742 0.27004z"/>
    <path id="path163" d="m902.5 419.28c1.7413 0.054 5.3328-0.162 6.9653-1.7282-0.653-0.7021-2.3399-0.43207-2.8297-0.91814 1.1428-0.37803 2.4487-1.1881 2.9385-1.7822 4.5668-0.3739 8.648-0.15786 10.603-0.75196 1.959-0.59407 6.9653-0.27004 7.9448-0.54007-4.3533 0.69793-5.224 1.076-5.4416 1.7781-0.21767 0.7021 1.4148 1.2962 2.4487 1.2962-1.959-0.108-4.4077 1.9443-4.6254 2.7544-2.6078-1.5122-3.8594 0.27003-4.1315 0.8641-1.0883-0.43207-4.6798-0.32403-6.53 1.2422-2.3901-0.7021-3.9682-1.0801-6.3625-0.7021 1.4692-0.32404 1.1972-1.2962-0.9795-1.5122z"/>
    <path id="path165" d="m923.39 406.65c1.4692-0.054 4.6756 0.10804 5.8184-0.054-0.76183 0.37807-1.7371 1.0801-1.9548 1.4042 3.6961-0.43203 8.7527-0.70207 10.222-0.48603-1.7916-0.27004-3.6417 0.8641-4.5668 1.4582-0.92507 0.59407-0.3809 0.97214 0.87067 1.1341 1.2516 0.16203 2.9385 1.1342 0.65299 0.8101-2.2855-0.32404-6.7979-0.32404-7.8862-0.162-1.0883 0.162-1.6869-0.37807-0.10884-0.59407 1.5781-0.21603 2.6622-0.7561 3.4241-1.1882-1.306 0.32404-3.805 0.32404-4.5668 0.108-0.76183-0.216-1.2516-0.64806-0.38093-0.8641 0.87066-0.21603 0.2721-0.54006-0.653-0.43203-0.92507 0.108-3.265 1.0801-4.571 2.3223 1.4148-1.4582 2.6664-2.7543 3.7003-3.4564z"/>
    <path id="path167" d="m906.8 409.08c1.7957 1.9983 3.9138 3.1324 7.2876 3.2404 0.70743 0.0208 2.026 0.9638 0.3265 1.0261-4.571 0.162-6.8523-0.91813-8.8657-3.8345-0.41443-0.59823 0.3516-1.4333 1.2516-0.43207z"/>
    <path id="path169" d="m964.78 384.52c-1.3562 0.9181-3.152 2.5383-1.959 4.8024 0.14234-0.0748 0.27627-0.162 0.4144-0.24093 5.3203-6.3894 9.8745-13.107 13.776-20.086 0.046-0.24094 0.0879-0.46944 0.1172-0.66884-1.5237 1.2962-3.918 2.5882-4.8975 2.9122 0.653 1.7282-2.3901 3.9965-4.0226 4.6446 0.653 1.0801 0.43533 2.7003-0.9795 3.0244 0.3265 0.96797-0.76184 0.96797-2.0678 1.508-1.306 0.54007-1.959 0.97214-2.3901 1.6202 0.70323-0.37803 1.6827-0.70206 2.2269-0.54006 0.54417 0.16203 0.653 0.97213-0.3265 1.1882-0.9795 0.21604-1.6283 0.7561-1.959 1.1881 1.4148-0.54007 3.4282-0.27004 2.0678 0.6481z"/>
    <path id="path171" d="m868.89 359.9c1.6325 1.1341 4.5166 3.0202 8.2671 2.7502 1.8501 1.4582 4.7342 2.7003 6.0402 2.9704-2.5031 1.0261-5.224 1.8902-5.9314 2.7003-1.1428-1.0801-2.6078-0.91813-2.9887-1.4582-1.0883 0.86414-0.92506 1.4042-0.21766 1.8362 0.70743 0.43206 6.1993 1.3502 7.5597 0.97213s1.7246 0.73947 0.59856 1.13c-2.9385 1.0261-8.648 0.054-10.607-3.0742-1.959-3.1324-3.6459-4.3206-8.9745-1.4582-0.5986-1.5122-0.5986-1.8902-1.6325-1.8902s-2.9385-1.3502-1.4693-1.2962c1.4693 0.054 5.8226-0.59407 9.3554-3.1822z"/>
    <path id="path173" d="m870.19 366.86c-0.90833 0.22434-3.4826 1.6202-4.4035 1.7282-0.92507 0.108-2.5576 1.4042-0.87067 1.4582 1.6827 0.054 3.8594-1.7822 5.0565-1.9442 1.1972-0.16203 1.306-1.5122 0.21767-1.2422z"/>
    <path id="path175" d="m877.32 371.94c0.16326 0.54007 0.16326 1.1341 0 1.5122-0.16324 0.37804-0.16324 0.8641 0.54416 0.32404 0.7074-0.54007 1.1427-1.1882 1.8502-0.8101 0.7074 0.37803 2.5031 0.32403 3.3152 0.21603 0.82043-0.10803 1.0883-0.27003-0.10463-0.7561-1.1972-0.48607-2.3943-0.6481-3.0473-0.5941s-1.4692-0.108-2.0134-0.32403c-0.54416-0.21604-0.7074-0.108-0.54416 0.43206z"/>
    <path id="path177" d="m903.1 372.1-0.3265 0.8101c2.0134-0.054 6.9109 0.43203 8.4848 1.4042 1.5236-1.1882 1.2516-1.5662 2.3399-1.3502 1.0883 0.21603 2.4487 0.59406 3.0473 0.27003s1.0339-0.27003 1.6869-0.16203c0.64883 0.10803 2.0637-0.162 2.8799-0.64807 0.81623-0.48607 2.5032-1.1342 3.4826-1.1342 0.9795 0 2.1725-0.216 0.38093-0.48603-1.7957-0.27003-4.5166 0.27003-5.4416 0.59407-0.9209 0.32403-3.6961 0.54006-5.3286 0.54006s-3.8594 0.8101-5.7095 0.32404c-1.8502-0.48607-4.4077-0.162-5.4961-0.162z"/>
    <path id="path179" d="m934.05 371.34c2.4027 1.1258 7.2332 2.1063 10.988 1.9442 0.653-0.0291 1.9674 0.6647 0.32234 0.8101-4.2403 0.37803-8.0495-0.21187-11.582-2.1603-0.9795-0.54006-0.653-1.0261 0.27206-0.59406z"/>
    <path id="path181" d="m936.5 371.29c3.6961-0.108 6.4713-0.054 7.6141 1.0261 2.118-0.64807 5.9272-1.0261 6.7979-0.8641 0.87067 0.16203 1.8501-0.21604-0.16326-0.7021-2.0134-0.4819-6.689-0.6439-8.1583-0.37387-1.4692 0.26587-6.0402 0.4279-7.5597 0.26587 0.653 0.108 1.0842 0.21603 1.4693 0.64806z"/>
    <path id="path183" d="m950.86 372.75c1.7413-0.91813 6.7435-0.054 8.2671-0.7021-1.0883 1.2962 3.4827 1.4042 7.4509 0.37807-1.5237 0.9721-4.7845 1.1341-6.1993 1.7282-1.4148 0.59407-2.1767 0.16203-3.265-0.32403-1.0883-0.48607-3.8594-1.4582-6.2537-1.0801z"/>
    <path id="path185" d="m966.57 372.42c-3.9682 1.0261-8.5392 0.9181-7.4509-0.37807-1.5236 0.6481-6.5258-0.21603-8.2671 0.7021 1.7957-1.0801 3.1562-0.21603 4.458-2.4303 0.81623 0.16617 2.7208 0.27417 3.3738-0.58993 1.1428 0.27003 3.1562 0.7561 3.7547 1.346 0.5986 0.59407 1.5195-0.16203 0.75767-1.076 1.7957-0.64806 0.65716 0.76857 4.843-0.27003 0.87067-0.21603 2.9929-0.59407 3.7003-0.64807-1.4148 1.1341-3.1017 2.3721-5.1696 3.3443z"/>
  </g>
  <path id="path191" d="m999.48 257.01c-0.19257 67.849-10.98 140.95-99.473 175.76-88.498-34.818-99.285-107.91-99.477-175.76z" style="fill:none;stroke-width:2;stroke:#000000"/>
  <g id="g207" transform="translate(-8e-5,-2.56e-4)" style="stroke-width:4.1701">
    <path id="path193" d="m839.95 287.53c-1.4734 1.8819-3.0431 3.4564-5.0733 4.8939-2.0301 1.4416-4.6421 2.5923-3.1938 5.0392 1.4525 2.4469 2.612 2.7377 2.9008 4.6072 0.293 1.8695 0.72833 3.4564 2.1767 3.8885 1.4525 0.4279 2.0301 0.14123 2.0301 3.1656 0 3.0244 0 4.1752 1.306 5.3259 1.306 1.1508 1.1595 2.3015 1.7413 5.0393 0.57764 2.7336 0.57764 8.6369 2.319 12.667s5.6593 11.661 5.224 13.244c-0.43534 1.5828-1.0172 2.7336 0.72416 4.603 1.7413 1.8736 2.9008 4.6072 3.0473 6.19 0.14233 1.587 0.43533 2.1603 2.1725 1.587 1.7413-0.57743 2.612-1.1549 3.1938-1.8736 0.57767-0.7187 1.7371-0.5733 3.3361 0.28664 1.5948 0.8641 4.0603 1.7282 5.5086 0.8641 1.4525-0.8641 2.1766-2.1561 3.4826-2.1561 2.0302-1.4416 2.7543-4.4659 3.1896-5.3259 0.43534-0.8641 0.1465-0.8641-0.72413-1.7282-0.87067-0.8641-0.43533-2.3057-0.58187-3.7431-0.1423-1.4416-0.72413-3.5977-2.4655-6.7675-1.7371-3.1656-2.7543-7.0541-3.9138-8.0595-1.1595-1.0095-1.7413-3.4564-1.8878-4.6072-0.1423-1.1508-1.4483-2.1603-2.319-3.0244-0.87067-0.85993-1.7413-2.1561-2.7543-7.1954-1.0172-5.0392-1.7413-8.6369-1.7413-9.501s-0.1465-1.0095-1.0172-1.2962c-0.87067-0.28663-1.306-1.7282-1.013-2.4469 0.2888-0.71873-0.29303-1.4374-0.58183-2.3015-0.28884-0.8641 0-2.4469 0.58183-3.311 0.57763-0.8641 0.43533-3.311-0.14653-5.3259-0.58184-2.0149-1.1595-3.7431-3.4826-4.0339-2.319-0.28663-2.7543-0.85993-3.625-2.7336-0.87067-1.8695-1.7413-5.1805-2.0302-5.9034-0.2888-0.7187-0.72413-0.8641-2.4655 0.57747-1.7413 1.4374-2.319 1.9152-2.319 4.6072 0 1.7282 0.28883 2.3015 0.86647 3.311 0.58183 1.0054 0.72833 1.2962 1.1637 4.0297 0.43534 2.7336 2.9008 7.0541-0.293 9.501-3.1896 2.4469-2.7543 3.0244-2.6078 4.7485 0.14234 1.7282-0.87066 2.879-1.4525 0.43204-0.57766-2.4469 0-3.8843 1.7413-5.0351 1.7413-1.1549 3.3361-2.5923 2.1766-4.1751-1.1637-1.5828-1.5948-5.3259-1.7413-7.0541-0.14653-1.7282-0.43533-2.3057-1.4525-1.0095z" style="fill:#cfa763"/>
    <g id="g205" style="fill:#d7c99c">
      <path id="path195" d="m814.11 324.23c-0.0795 1.1715 0.1842 2.4594 0.27626 3.4938 0.10884 1.1882 0.43534 3.6725-0.43533 5.5087-0.87063 1.8321-0.653 2.8042 0 3.3443 0.0377 0.0291 0.0712 0.0582 0.10467 0.0872 1.7748-0.5899 2.005-2.5549 1.5278-3.5063-0.5065-1.0054-0.35997-2.2309 0.21767-3.2363 0.58183-1.0095 0.58183-1.5828 0.0753-2.3057-0.51067-0.7187-0.51067-0.7187 0.0712-2.7336 0.5107-1.7739-0.77857-1.7615-1.8376-0.65224z"/>
      <path id="path197" d="m832.66 352.13c-0.3265-1.2962-1.5236-6.2648-1.6325-9.501-0.10883-3.2404-1.5195-5.8327-4.2403-8.3129-2.1222-1.9401-2.5869-5.0559-2.6873-7.4612-1.5948-0.96796-2.2687-0.5276-2.1348 1.2712 0.14233 1.9401 2.1013 2.879 1.8125 5.6832-0.2888 2.8084-0.2888 2.0897 1.0883 3.4564 1.3772 1.3668 1.8837 2.663 1.1595 3.2404-0.72417 0.5733-0.7995 1.5828 0.21766 1.9401 1.013 0.36143 1.0883 1.4416 0.94184 2.4469-0.14654 1.0095 0.7995 1.2255 1.3771 1.9442 0.58183 0.7187 0.653 2.4469 0.0754 3.4564-0.58187 1.0054-0.653 2.5882 0.35996 1.7282 1.0172-0.86413 1.4525-0.0748 2.2478 1.292 0.69066 1.1798 1.2683 0.8101 2.0176 0.45283-0.2595-0.54423-0.4688-1.1092-0.60276-1.6368z"/>
      <path id="path199" d="m824.18 292.17c-1.0758 0.0789-1.8125 1.0137-1.1972 4.2831 0.3851 2.0232-1.1595 1.5828-1.7371 0.5733-0.58183-1.0053-1.0172-3.1656-2.1766-5.0392-1.1637-1.8695-0.58187 1.2962-0.72417 3.0244-0.1465 1.7282 1.013 1.7282 2.0301 3.1656 1.013 1.4416 0.14234 2.019-1.0172 2.019-1.1595 0-0.57764 2.3015-0.2888 3.8843 0.2888 1.5828-0.28884 1.8736-1.1637 0.57746-0.86647-1.2962-0.2888-3.311-0.1423-5.758 0.1423-2.4469 0.28883-1.8736-1.306-2.4469-1.5948-0.57743-1.306-0.8641-0.72417-2.3057 0.57767-1.4374 1.1595-2.1603 0.43533-2.879-0.72833-0.7187-0.58183-1.1508 0.57767-1.2962 1.1595-0.14126 0.72833-1.0054 1.7413-1.2962 1.0172-0.28667 1.4525 0.1454 1.5948-1.7241 0.1214-1.562 0.6488-2.5217 1.8292-2.0481 0.7116 2.4054 1.6367 6.1485 2.2687 7.266z"/>
      <path id="path201" d="m850.69 318.05c0.43114-3.1656 0.1423-6.3313 1.4483-7.4862 1.306-1.1508 2.9008-3.4523 2.7543 1.4416-0.1423 4.8938-0.2888 4.6072-1.3018 5.7579-1.0172 1.1508-1.8878 1.4374-0.87066 3.311 1.013 1.8695 1.1595 2.0149 1.013 4.8939-0.14234 2.879-0.14234 4.0297 1.0172 5.4713 1.1595 1.4374 1.4483 1.5828 1.7413 3.1656 0.2888 1.5828 1.3018 3.7431 2.6078 4.8938 1.306 1.1508 2.7585 4.4618 2.9008 6.7675 0.1465 2.3015 2.1767 2.879 4.0603 4.4618 1.8878 1.5828-0.43114 2.7336-1.8836 2.0149-1.4483-0.7187-0.87066 0-1.7413 1.0054-0.87067 1.0095-1.1595 1.1549-1.8836-0.57334-0.72417-1.7282-3.1938-2.879-4.3533-3.311-1.1595-0.43206-2.1725-2.3057-3.1896-4.1752-0.87067-1.6077-2.5952-2.7834-4.1691-2.9039 0.43533 1.2131 0.66973 2.1644 0.54417 2.6173-0.43534 1.5828-1.0172 2.7336 0.72416 4.603 1.7413 1.8736 2.9008 4.6072 3.0473 6.19 0.14233 1.587 0.43533 2.1603 2.1725 1.587 1.7413-0.57743 2.612-1.1549 3.1938-1.8736 0.57767-0.7187 1.7371-0.5733 3.3361 0.28664 1.5948 0.8641 4.0603 1.7282 5.5086 0.8641 1.4525-0.8641 2.1766-2.1561 3.4826-2.1561 2.0302-1.4416 2.7543-4.4659 3.1896-5.3259 0.43534-0.8641 0.1465-0.8641-0.72413-1.7282-0.87067-0.8641-0.43533-2.3057-0.58187-3.7431-0.1423-1.4416-0.72413-3.5977-2.4655-6.7675-1.7371-3.1656-2.7543-7.0541-3.9138-8.0595-1.1595-1.0095-1.7413-3.4564-1.8878-4.6072-0.1423-1.1508-1.4483-2.1603-2.319-3.0244-0.87067-0.85993-1.7413-2.1561-2.7543-7.1954-0.79534-3.9383-1.4106-6.9918-1.6409-8.5538-1.0423 1.6493-1.7539 2.0523-2.1306 0.92226-0.43533-1.292-1.0172-2.0149-1.5948-1.1508-0.58184 0.86413-0.72834-0.7187-0.72834-1.4374 0-0.72287-0.14233-0.8641-0.87066-0.8641-0.72417 0-0.14234-1.1508-0.43534-3.311-0.28883-2.1603-0.72416-2.4469-1.013 0.1454-0.28884 2.5882-1.7413 4.171-1.1595 4.7484 0.57763 0.57746 0.28883 1.7282-0.293 3.4564-0.57767 1.7241-0.28883 2.7336 0.1465 3.8843s-0.28883 3.311-0.58183 5.1847c-0.28884 1.8695 1.1637 3.7389 1.599 0.5733z"/>
      <path id="path203" d="m838.79 309.12c0 3.0244 0 4.1752 1.306 5.3259 1.306 1.1508 1.1595 2.3015 1.7413 5.0393 0.57764 2.7336 0.57764 8.6369 2.319 12.667 0.51903 1.2006 1.2348 2.7253 1.9674 4.3122 0.96273-0.75193 1.7999-2.0439 2.0971-2.7294 0.43116-1.0095-0.87064-3.0244-1.8878-4.7484-1.013-1.7282 0.14654-2.3057 1.1595-4.4659 1.0172-2.1561-0.1423-2.3015-1.7371-2.879-1.599-0.5733-1.599-2.0149-2.4697-4.3164-0.87066-2.3015-0.72416-3.311-0.14233-4.6072 0.57767-1.2962 0.14233-2.3015-1.0172-2.5923-1.1595-0.28663-0.87066-1.1508-0.43533-2.5882 0.43533-1.4416 0.72417-1.7282-1.013-1.2962-1.3186 0.32404-1.6367 0.56917-2.0302 1.0428 0.0963 0.41543 0.14233 0.99287 0.14233 1.8362z"/>
    </g>
  </g>
  <g id="g607" transform="matrix(1.313 0 0 1.313 -857.56 -110.01)">
    <g id="g221" style="fill:none;stroke-width:.5;stroke:#000000">
      <path id="path209" d="m1312.9 318.34-2.6476 28.968"/>
      <path id="path211" d="m1320.8 336.08c-1.0816 4.9007-2.507 10.468-3.9512 15.187"/>
      <path id="path213" d="m1355.5 322.13c2.0077 1.8665 4.7049 2.3028 7.6896 3.7506"/>
      <path id="path215" d="m1368.8 334.94-1.469 11.162"/>
      <path id="path217" d="m1367.3 335.44-2.6326 11.46"/>
      <path id="path219" d="m1319.1 336.43c-1.244 4.7636-2.9086 9.1066-4.5057 13.517"/>
    </g>
    <path id="path223" d="m1376.5 363.37c-0.068 0.0215-0.1426 0.037-0.2206 0.0488s-0.1598 0.0197-0.2432 0.0261c-0.083 6e-3 -0.1684 0.0112-0.2528 0.0166-0.084 5e-3 -0.1682 0.0114-0.2492 0.0201-0.081 9e-3 -0.1593 0.0203-0.2326 0.0368-0.073 0.0165-0.1416 0.0379-0.2028 0.0665-0.061 0.0286-0.1153 0.0643-0.16 0.10935-0.045 0.045-0.08 0.0994-0.1041 0.16527-0.031 0.0443-0.065 0.0876-0.1006 0.13031-0.035 0.0427-0.072 0.0849-0.1107 0.12688-0.038 0.042-0.078 0.0838-0.1173 0.12577-0.04 0.042-0.08 0.0842-0.1199 0.12701-0.04 0.0428-0.08 0.0862-0.1191 0.13057-0.039 0.0444-0.077 0.0897-0.1144 0.13645-0.037 0.0467-0.072 0.0948-0.106 0.14468-0.034 0.0498-0.065 0.10146-0.094 0.15522-0.544 0.43516-1.1927 0.76555-2.0563 0.8811-0.5414 0.15006-1.8135 0.18765-2.35 0-1.0351 0.014-2.1213-0.0625-2.7419-0.4895-0.7278-0.3758-1.676-0.1296-2.2521 0.1958-0.4607 0.25819-0.5508 0.73274-1.0777 0.88111-0.3166 0.41712-1.7163 0.36824-2.2521 0.1958-1.2203 0.0781-1.9674-0.31718-2.8394-0.5874-0.5755-0.40813-1.4987-0.7067-2.1545-0.0979-0.411 0.43766-0.9693 0.7279-1.6649 0.8811-1.194-0.0482-2.5476 0.15631-3.427-0.2937-0.9809-0.0825-1.3541-0.61704-2.252-0.8811-1.0251-0.17375-1.5 0.35829-2.1543 0.5874-0.5851 0.48727-1.4149 0.53903-2.448 0.4895-1.0669-0.0427-2.3636 0.14428-3.0352-0.2937-0.8651-0.0967-1.4197-0.59331-2.0562-0.8811-0.6286-0.49574-1.8007 0.0228-2.3502 0.2937-0.9407 0.14598-1.2919 0.88131-2.4765 0.7832-0.9653-0.11847-1.6221-0.51322-2.5168-0.7832-0.8418-0.37603-1.5984-0.9641-2.9372-0.8811-0.399 0.52774-1.2625 0.74771-2.1486 0.7832-0.7954 0.0101-1.5814 0.0109-2.16-0.1958-1.6011-0.0485-2.3695-1.7326-3.5287-2.6316-1.9295-1.9129-3.859-3.8257-5.7885-5.7386 0.3323-1.0262 0.449-1.2046-0.083-1.8752 0.2199-1.023-0.4807-1.1625-0.196-2.1884 0.4339-0.7878-0.7811-0.65109-1.077-1.0769-0.695-0.13516-0.9906-0.64568-1.6648-0.8811-0.5487-0.38285-1.0784-0.63661-1.7624-0.97899-0.6007-0.2479-1.1181-0.57912-1.6647-0.88111-0.4124-0.37094-0.9587-0.60801-1.3711-0.97899-0.5344-0.2462-0.9688-0.56976-1.3713-0.88111-0.5619-0.1768-0.835-0.59614-1.3714-0.88109-0.3886-0.36344-1.0156-0.67353-1.4691-0.979-0.7134-0.23488-1.3634-0.70024-2.1539-0.8811-0.5362-0.0192-0.7009-1.2164 0.2882-1.1748 0.7073 0.0219 1.1421 0.4705 1.6707 0.7832 0.8323 0.3425 1.6472 0.70248 2.6434 0.8811 0.577 0.34255 1.0934 0.52234 1.7625 0.78319 0.5785 0.44817 1.3412 0.52661 2.0564 0.97901 0.6663 0.30343 1.4614 0.66352 1.8618 0.97899 0.5666 0.2401 0.8586 0.64998 1.4693 0.8811 0.2108 0.25473 0.6427 0.3713 0.9794 0.6853 0.5999 0.22402 1.1397 0.48108 1.5665 0.7832 0.5581 0.36588 0.866 0.40665 1.2735 0.7832 0.5042 0.15613 3.6891 1.7589 3.5286 1.5694 3.136 0.60335 4.5224 0.79324 7.6758 1.2419 7.6228 0.11991 15.246 0.23981 22.868 0.35972 2.7639-1.1545 5.5275-2.309 8.2913-3.4634 0.8396-1.3294 1.6793-2.6588 2.5188-3.9882 4.0855-0.74687 8.1708-1.4938 12.256-2.2406-0.2322-0.24702 21.512-0.76401 21.97 1.0617 0.1934 0.76974 0.7821 2.3164 0.077 2.681-0.4621 0.23897-20.534-2.5546-20.845-0.75194-0.1347 0.78216 0.03 5.6522 0.1419 6.4379 0.1121 0.78572 0.2242 1.5714 0.3363 2.3572 0.112 0.78572 0.2241 1.5714 0.3362 2.3572 0.1121 0.78572 0.2241 1.5714 0.3362 2.3572 0.1121 0.78573 0.2241 1.5714 0.3362 2.3572h-3e-4z" style="fill:#666666"/>
    <g id="g261" style="fill:none;stroke-width:.5;stroke:#000000">
      <path id="path225" d="m1314.4 332.53c-3.695 4.2055-7.3737 7.5614-11.318 10.77"/>
      <path id="path227" d="m1334.7 315.41 11.914-10.307"/>
      <path id="path229" d="m1329.4 325.59c2.3869 1.6736 5.0557 3.178 8.6945 4.1006"/>
      <path id="path231" d="m1327.7 310.02c1.4828 2.3479 3.2231 4.6271 8.421 5.9843"/>
      <path id="path233" d="m1324.3 286.57c-1.6093 2.1383-4.1818 4.1319-7.5487 5.768"/>
      <path id="path235" d="m1328.6 301.03c1.6973 1.6438 4.084 2.5981 6.5245 3.4986"/>
      <path id="path237" d="m1328.6 336.91c1.1998 5.9026 2.2356 10.592 3.6046 15.479"/>
      <path id="path239" d="m1327.6 352.27c6.1912-6.3561 11.479-13.186 14.912-20.986"/>
      <path id="path241" d="m1355.2 308.3c1.9836 2.1258 4.051 3.6674 7.2842 4.5435"/>
      <path id="path243" d="m1363.8 300.69c1.6811 3.0134 3.7517 5.2478 5.6909 7.7448"/>
      <path id="path245" d="m1345.5 291.27c-0.2075 2.9964-2.0254 6.0072-3.2977 8.6043"/>
      <path id="path247" d="m1349.8 292.75c-2.2053 2.4544-4.3356 5.085-7.3517 6.5936"/>
      <path id="path249" d="m1350.1 282.06c-1.5134 1.0304-3.6209 2.2368-5.2752 2.8441"/>
      <path id="path251" d="m1372.7 304.86c-1.8274 2.1714-3.6567 4.7232-6.6667 6.5956"/>
      <path id="path253" d="m1373.1 322.94c-2.3382 2.2137-4.4362 4.7879-7.1187 6.4852"/>
      <path id="path255" d="m1386.6 335.73c-4.1893 3.2858-8.4791 6.3707-13.122 8.7484"/>
      <path id="path257" d="m1375.7 344.9c3.9335-2.4538 7.4037-5.8343 10.893-9.1772"/>
      <path id="path259" d="m1374.6 305.31c0.7553 1.9735 2.5171 4.134 4.2622 5.5419"/>
    </g>
    <path id="path263" d="m1372 285.63-0.3422 59.336 4.319-0.2561-1.812-59.271z" style="fill:#bca76b;stroke-width:.28691;stroke:#472b1f"/>
    <g id="g273" style="stroke:#000000">
      <path id="path265" d="m1374.9 362.14c1.0297 0.62106 1.6214 1.175 2.471 1.9991 1.8913 1.7379 3.1578 1.745 5.8578-0.0156 1.0063 0.11544 2.0257 0.64134 3.1173 0.44106 0.9648 0.0301 1.9015-0.14137 2.8432-0.3452 1.1536-0.27709 1.3186-1.666 1.7259-2.5956 0.5281-1.0803 1.1039-2.1956 1.8628-3.1287 0.9989-0.67116 2.0774-1.3633 2.7686-2.3635 0.7892-0.92772 0.6552-2.1378 0.4895-3.253-0.091-1.0598-0.1756-2.0476-0.1667-3.1165-0.2634-1.3496 0.905-2.394 0.8043-3.7188-0.6675-0.59364-1.769-0.75253-2.6648-1.0115-1.58-0.34672-3.1816-0.57312-4.786-0.69087-1.3147-0.10624-2.6258-0.24732-3.9347-0.34489-1.2924-0.10204-2.5825-0.18997-3.8798-0.19313-1.4535 0.0403-2.9538-0.14053-4.378 0.0943-1.0186 0.23928-2.304 0.14696-3.1428 0.61547-0.3767 0.9872-0.6179 2.0086-0.6595 3.0314-0.1382 0.88175-0.1896 1.7977-0.1885 2.7209 0.051 1.6823-0.1735 3.3948 0.294 5.0269 0.3107 1.314 0.4193 2.6506 0.6675 3.95 0.036 1.0363 0.1634 2.1036 0.8989 2.8981z" style="fill:#333333"/>
      <g id="g271" style="fill:none;stroke-width:.5">
        <path id="path267" d="m1379.8 333.25 5.8784 10.997"/>
        <path id="path269" d="m1394.5 344.82c-1.734-1.8191-3.0952-4.0111-4.1432-6.5162"/>
      </g>
    </g>
    <g id="g287" style="fill:#472b1f">
      <path id="path275" d="m1394.1 327.66 1.9355 1.3613 0.1348 0.0508c-0.6337-0.59203-1.2505-1.236-2.0547-1.4102 0-7.6e-4 -0.011-7.6e-4 -0.016-2e-3z"/>
      <path id="path277" d="m1390 328.24c-0.07 0.0218-0.2188 0.0664-0.2188 0.0664l-2.7207 10.641z"/>
      <path id="path279" d="m1403 328.62c-0.6698 0.0553-1.3075 0.33796-1.9414 0.63868l1.1426-0.39844 1.4863-0.2207c-0.251-0.0229-0.4941-0.0355-0.6875-0.0195z"/>
      <path id="path281" d="m1390.3 338.3-0.5332 0.10352c0.2235-7.6e-4 0.4363 0.0109 0.6133 0.0566 0.2697 0.0697 0.509 0.17542 0.7363 0.29492z"/>
      <path id="path283" d="m1391.4 338.9c0.6968 0.41985 1.286 0.95955 2.1113 1.1797z"/>
      <path id="path285" d="m1397.7 339.44-3.6308 0.72655c1.2711 0.11309 2.4108-0.3866 3.6308-0.72655z"/>
    </g>
    <path id="path289" d="m1390.2 327.58-3.1197 11.359 3.2797-0.63994 3.4397 1.9198 5.1995-1.0399 2.6398 0.39997c0.8157-3.65 0.5766-7.9579 2.7197-11.039l-2.1598 0.31997-3.4397 1.1999-2.7197-1.0399-2.1598-1.5199z" style="fill:#ffffff"/>
    <path id="path291" d="m1395.1 328.94c-0.5446 1.0476-1.0745 2.1028-1.2012 3.3594 0 0-1.5234-0.53104-2.3183-0.63868-0.8456-0.11449-2.5606 0-2.5606 0l-0.022 0.0723-0.7381 2.6875c0.078-0.01 2.0933-0.2589 2.9999-0.1211 0.6757 0.10271 1.9199 0.72071 1.9199 0.72071-0.3348 1.4424-0.6711 2.8837-1.0059 4.3262l0.6406 0.35742 1.3926 0.42188 0.041-8e-3 0.5879-0.11914c0.2682-1.4789 0.486-3.009 1.1425-4.0996 0 0 2.1092 0.56605 3.2793 0.48048 0.8061-0.0589 2.4674-0.23579 2.877-0.28126 0.1161-0.91498 0.2354-1.8312 0.3964-2.7305-0.4103 0.11121-2.1911 0.54852-3.1932 0.45117-0.9071-0.0881-2.5586-0.95898-2.5586-0.95898 0.2411-0.93325 0.6676-1.8675 1.1191-2.8008z" style="fill:#c8102e"/>
    <path id="path293" d="m1387.9 327.53c-1.3826-3.7852-3.0991-9.9845-3.8022-14.902" style="fill:none;stroke-width:.5;stroke:#000000"/>
    <g id="g303" style="stroke:#472b1f">
      <path id="path295" d="m1389.2 328.41s3.4188-0.80783 4.8411-0.49984c1.4891 0.32246 2.4355 2.023 3.9442 2.236 1.7373 0.24529 3.2909-1.3756 5.0395-1.5199 0.8306-0.0685 2.4798 0.31998 2.4798 0.31998l-1.1199 4.1596-0.96 3.5197v3.1197s-2.9282-0.70398-4.3995-0.55995c-1.8462 0.18072-3.369 1.2606-5.1995 0.9599-1.3524-0.22217-2.0327-1.3371-3.3597-1.6798-1.0953-0.28288-3.8822 0.44514-3.8822 0.44514z" style="fill:none"/>
      <g id="g301" style="fill:#bca76b;stroke-width:.3">
        <path id="path297" d="m1389.8 328.3-1.3613 0.0801-4.3184 15.279 2 0.0801z"/>
        <path id="path299" d="m1388.4 328.38c-0.5971-0.33202-1.0269-1.3091-0.7194-1.9191 0.3495-0.69336 1.495-0.85961 2.2398-0.63994 0.8156 0.24056 1.9534 1.1146 1.6799 1.9198-0.3498 1.03-2.2496 1.1679-3.2003 0.63924z"/>
      </g>
    </g>
    <path id="path305" d="m1404.2 328.72c-2.0817 3.0168-1.9098 7.1381-2.7011 10.682 0.9958 0.16103 1.8083 0.34374 1.8083 0.34374v-3.1191l1.0075-3.5195 1.1735-4.1602s-0.6125-0.12967-1.2882-0.22656z" style="fill:#472b1f"/>
    <g id="g335" style="fill:none;stroke-width:.5;stroke:#000000">
      <path id="path307" d="m1379.6 316.35c2.1423 1.4618 4.3328 5.3513 7.3838 8.4033"/>
      <path id="path309" d="m1383.6 310.8c-1.5861-4.1745-2.864-10.992-3.0876-16.074"/>
      <path id="path311" d="m1377.3 335.28 3.3767 8.811"/>
      <path id="path313" d="m1380.6 290.61c-2.9051-0.74505-5.6603-2.8035-6.095-4.4568"/>
      <path id="path315" d="m1361.7 293.5c1.8847 0.14376 8.475-4.7853 9.4838-7.3518"/>
      <path id="path317" d="m1378.5 334.02 4.6478 9.9263"/>
      <path id="path319" d="m1378.1 337.36 3.3846-1.2744"/>
      <path id="path321" d="m1378.7 339.21 3.6103-1.5102"/>
      <path id="path323" d="m1380.2 342.94 3.933-1.6715"/>
      <path id="path325" d="m1376.1 323.39 4.7458 5.0847"/>
      <path id="path327" d="m1366.1 335.71-3.2768 11.073"/>
      <path id="path329" d="m1365.2 338.18 3.313-0.048"/>
      <path id="path331" d="m1364.3 340.91 3.8612 0.113"/>
      <path id="path333" d="m1363.5 343.73 4.1808 0.79096"/>
    </g>
    <g id="g369" style="fill:#bca76b;stroke:#472b1f">
      <path id="path337" d="m1374.6 284.14c-0.7722-0.26701-2.8124-0.31924-3.6231 0.3323-0.4351 0.34955-0.073 1.5202 0.471 1.5299 1.0976 0.0196 2.4912 0.0716 2.9282-0.24922 0.4544-0.33352 0.7478-1.4318 0.2239-1.613z" style="stroke-width:.28957"/>
      <path id="path339" d="m1362.6 293.4c1.4172 5.7997 7.5704 4.8327 7.2861-0.46158" style="stroke-width:.39742"/>
      <path id="path341" d="m1368.2 293.13c1.8424 6.6612 9.8417 5.5506 9.4721-0.53013" style="stroke-width:.48563"/>
      <path id="path343" d="m1375 293c1.8018 4.8791 4.3406 3.9323 7.3694-0.49966" style="stroke-width:.41585"/>
      <path id="path345" d="m1384.1 290.69-22.498 1.2886 0.055 1.5241 22.681-1.1642z" style="stroke-width:.40257"/>
      <path id="path347" d="m1363.4 313.25c1.3625 6.3801 7.7782 5.4323 7.5839-0.3735" style="stroke-width:.42423"/>
      <path id="path349" d="m1369.3 313.06c1.788 7.3318 10.126 6.2601 9.8579-0.40894" style="stroke-width:.51839"/>
      <path id="path351" d="m1376.3 313.04c1.7799 5.3784 4.4375 4.3871 7.6712-0.41371" style="stroke-width:.44389"/>
      <path id="path353" d="m1385.8 310.67-23.415 1.0035 0.028 1.6709 23.603-0.86395z" style="stroke-width:.42972"/>
      <path id="path355" d="m1362.8 331.24c1.5118 6.5115 8.0756 5.4258 7.7723-0.51823" style="stroke-width:.43493"/>
      <path id="path357" d="m1368.8 330.93c1.6158 9.716 10.499 6.2318 10.104-0.59519" style="stroke-width:.53146"/>
      <path id="path359" d="m1376 330.79c1.922 5.4779 4.6302 4.4148 7.8611-0.56098" style="stroke-width:.45509"/>
      <path id="path361" d="m1385.8 328.19-24 1.4467 0.059 1.7112 24.194-1.3071z" style="stroke-width:.44056"/>
      <g id="g367" style="stroke-width:.25591">
        <path id="path363" d="m1377.7 302.28-8.9034 0.26199 0.026 2.2108 8.9734-0.0308z"/>
        <path id="path365" d="m1377.8 321.11-8.9034 0.262 0.026 2.2108 8.9734-0.0308z"/>
      </g>
    </g>
    <g id="g389" style="stroke:#000000">
      <path id="path371" d="m1355.5 331.43 6.5674 15.801" style="fill:none;stroke-width:.5"/>
      <path id="path373" d="m1322.3 336.36c-0.7178 4.9828-1.8504 11.351-3.1194 16.15" style="fill:none;stroke-width:.5"/>
      <path id="path375" d="m1395.9 345.98c-3.7398-0.60274-7.495-1.2195-11.28-1.3852-2.982-0.13054-5.9764 0.0436-8.9493 0.31066-4.3348 0.38936-8.7643 0.58903-12.921 1.8797-0.5605 0.17403-1.1596 0.36799-1.5795 0.77795-1.1717 1.1439-1.287 3.0482-2.2757 4.3535-0.9579 1.2647-4.6167 3.3741-5.9366 4.2545-9.6152 0.24112-20.3 0.10631-32.255-1.682l-1.682-1.8799-0.6926-0.6926 1.8799 0.6926 4.2545 0.099 10.389-0.39578s8.7774 0.0101 13.16-0.19788c2.4786-0.11766 4.961-0.26561 7.4206-0.59366 0.5322-0.071 1.1337-3e-3 1.5832-0.29683 0.735-0.48043 0.9732-1.4625 1.484-2.1767 0.4798-0.67061 0.7819-1.5469 1.4842-1.9789 1.8741-1.4036 4.2525-1.2767 6.2924-1.667 2.4474-0.46826 4.6998-0.56227 7.1653-0.92477 2.8497-0.41901 5.7303-0.61776 8.6066-0.77231 1.8446-0.0991 3.6986-0.23491 5.5408-0.099 2.801 0.20665 5.8747-0.0118 8.3112 1.3852 0.4469 0.25625 1.2528 0.74458 0.9894 1.1873-0.172 0.28905-0.6574-0.14435-0.9894-0.19787z" style="stroke-width:.3"/>
      <g id="g387" style="fill:none;stroke-width:.5">
        <path id="path377" d="m1352.2 282.06c1.4232 1.0904 4.0499 2 6.5982 2.3873"/>
        <path id="path379" d="m1349.2 322.19c-3.0112 2.1676-6.1922 3.6551-9.4859 4.6926"/>
        <path id="path381" d="m1357.7 350.39-5.234-13.727"/>
        <path id="path383" d="m1353.6 332.17 6.0242 15.653"/>
        <path id="path385" d="m1352.8 336.22 3.9996-1.3826"/>
      </g>
    </g>
    <path id="path391" d="m1350 280.04-1.2423 72.927 4.3191-0.25822-0.8119-72.661z" style="fill:#bca76b;stroke-width:.2881;stroke:#472b1f"/>
    <path id="path393" d="m1355.2 291.31c1.687 3.206 4.385 5.7801 8.3338 7.5726" style="fill:none;stroke-width:.5;stroke:#000000"/>
    <g id="g411" style="fill:#bca76b;stroke:#472b1f">
      <path id="path395" d="m1341.1 286.77c1.3624 6.3801 7.7781 5.4323 7.5838-0.3735" style="stroke-width:.42423"/>
      <path id="path397" d="m1347 286.57c1.7881 7.3318 10.126 6.2601 9.858-0.40893" style="stroke-width:.51839"/>
      <path id="path399" d="m1354 286.56c1.7799 5.3784 5.0293 5.8666 7.6711-0.41371" style="stroke-width:.44389"/>
      <path id="path401" d="m1363.6 284.18-23.415 1.0035 0.028 1.6709 23.603-0.86395z" style="stroke-width:.42972"/>
      <path id="path403" d="m1341.1 301.47c1.3624 6.3801 7.7781 5.4323 7.5838-0.37351" style="stroke-width:.42423"/>
      <path id="path405" d="m1347 301.27c1.7881 7.3318 10.126 6.2601 9.858-0.40893" style="stroke-width:.51839"/>
      <path id="path407" d="m1354 301.26c1.7799 5.3784 7.159 4.4733 7.6711-0.41372" style="stroke-width:.44389"/>
      <path id="path409" d="m1363.6 298.88-23.415 1.0035 0.028 1.6709 23.603-0.86394z" style="stroke-width:.42972"/>
    </g>
    <path id="path413" d="m1348.1 309.66c-2.1115 1.3867-4.0315 3.0855-6.8096 3.939" style="fill:none;stroke-width:.5;stroke:#000000"/>
    <g id="g423" style="fill:#bca76b;stroke:#472b1f">
      <path id="path415" d="m1340.4 315.27c1.3625 6.3801 7.7782 5.4323 7.5839-0.3735" style="stroke-width:.42423"/>
      <path id="path417" d="m1346.3 315.07c1.788 7.3318 10.126 6.2601 9.8579-0.40894" style="stroke-width:.51839"/>
      <path id="path419" d="m1353.3 315.06c1.7799 5.3784 6.5349 3.688 7.6712-0.41371" style="stroke-width:.44389"/>
      <path id="path421" d="m1362.9 312.68-23.415 1.0035 0.028 1.6709 23.603-0.86395z" style="stroke-width:.42972"/>
    </g>
    <g id="g431" style="fill:none;stroke-width:.5;stroke:#000000">
      <path id="path425" d="m1343.4 331.96c-0.6036 7.203-3.4894 13.721-5.4417 20.52"/>
      <path id="path427" d="m1346 332.01c-0.6447 7.0021-2.8173 13.584-4.5916 20.162"/>
      <path id="path429" d="m1348.1 331.39c-0.839 7.7798-1.7766 14.275-3.5144 20.747"/>
    </g>
    <g id="g447" style="fill:#bca76b;stroke:#472b1f">
      <path id="path433" d="m1340.7 328.47c1.3625 6.3801 7.7782 5.4323 7.5839-0.3735" style="stroke-width:.42423"/>
      <path id="path435" d="m1346.6 328.27c1.788 7.3318 10.126 6.2601 9.8579-0.40894" style="stroke-width:.51839"/>
      <path id="path437" d="m1353.6 328.26c1.7799 5.3784 6.465 4.3172 7.6712-0.41371" style="stroke-width:.44389"/>
      <path id="path439" d="m1363.2 325.88-23.415 1.0035 0.028 1.6709 23.603-0.86395z" style="stroke-width:.42972"/>
      <path id="path441" d="m1355.7 294.09-8.4039 0.26201 0.024 2.2108 8.47-0.0308z" style="stroke-width:.24862"/>
      <path id="path443" d="m1355.4 308.3-7.472 0.2456 0.021 2.0725 7.5307-0.0289z" style="stroke-width:.22698"/>
      <path id="path445" d="m1355.8 322.13-8.1235 0.26318 0.026 2.2207 8.1871-0.0308z" style="stroke-width:.24499"/>
    </g>
    <g id="g469" style="fill:none;stroke-width:.5;stroke:#000000">
      <path id="path449" d="m1343.2 334.57 4.3648 0.90696"/>
      <path id="path451" d="m1342.2 338.65 5.0449 0.11337"/>
      <path id="path453" d="m1341.4 341.59 5.2151 1.4738"/>
      <path id="path455" d="m1340 346.24 6.122-0.28343"/>
      <path id="path457" d="m1338.9 349.98 6.462-0.17006"/>
      <path id="path459" d="m1337.4 331.79c-0.6858 7.3692 4.0708 14.355 6.4456 20.547"/>
      <path id="path461" d="m1357.1 348.47 4.1478-1.2345"/>
      <path id="path463" d="m1356.1 346.25 4.691-1.9752"/>
      <path id="path465" d="m1354.6 342.74 4.839-1.432"/>
      <path id="path467" d="m1353.6 339.43 4.7404-1.2345"/>
    </g>
    <path id="path471" d="m1328.2 365.37c-0.55 0.0126-1.0763-0.18832-1.6226-0.25796-0.5432-0.17429-1.0932-0.33856-1.6039-0.59969-0.5049-0.24479-0.9811-0.62047-1.4349-0.94566-0.435-0.31139-0.8976-0.71169-1.2912-1.1062-0.5137-0.47023-1.0323-0.90349-1.4981-1.4172-0.4885-0.49854-1.0041-0.99296-1.4202-1.5096-0.451-0.50173-1.0014-0.89528-1.3677-1.4582-0.4223-0.41196-0.4235-1.1332-0.7796-1.5823-0.5806-0.11393-1.4362-0.21081-1.461-0.97767-0.1912-0.46301-0.2746-1.0295-0.8536-0.96586-0.2405 0.0121-0.3058 0.36523-0.1577 0.14555-0.298-0.16127-0.2186 0.54883-0.2576 0.16744-0.1746 0.28131-0.3645 0.8806-0.3573 0.83688-0.2562 0.5134-0.2277 1.0924 0.4432 1.1626 0.6383 0.0943 0.7135 0.79301 1.2564 1.0772 0.4334 0.42114 0.9647 0.9788 1.4468 1.3604 0.4621 0.56379 0.8161 0.8791 1.1726 1.521 0.2228 0.45187 0.8115 0.7683 1.1495 1.1425 0.282 0.46575 0.6015 0.87872 0.967 1.2911 0.4029 0.41262 0.9212 0.85015 1.4046 1.1167 0.4354 0.26384 0.8735 0.5034 1.3253 0.75712 0.4939 0.24472 0.9616 0.58002 1.5047 0.68326 0.5755 0.32196 1.2905 0.22079 1.9241 0.358 0.6331 0.0378 1.2569-3e-5 1.782-0.40219 0.5235-0.35281-0.01-0.28681-0.2708-0.39728z"/>
    <path id="path473" d="m1362.4 348.8c-0.772 1.8278-1.9997 4.3657-3.53 5.9409 5.0167 0.97011 9.0563-0.43058 13.577-1.198-0.5073-1.9341-0.49-4.078-0.3001-6.2909-3.5935 0.36604-6.1526 1.182-9.7469 1.548z"/>
    <path id="path475" d="m1362.8 349.3c-0.634 1.6165-1.1201 3.2862-2.3761 4.6793 4.1175 0.85797 7.4794-0.38077 11.19-1.0595-0.7097-1.4995-0.4981-3.1306-0.2457-4.7676-2.9499 0.32373-5.6179 0.82402-8.5677 1.1477z" style="fill:#333333"/>
    <path id="path477" d="m1319.4 356.59 14.568 1.1005c11.703 0.36007 25.125-0.17064 36.728-1.5009 0.476-0.0549 1.2549-0.1875 1.4127 0.26487 0.1924 0.55156-0.5702 1.2369-1.1478 1.3243-13.318 1.737-26.782 1.0658-40.171 0.97117l-7.9458-0.83563z"/>
    <path id="path479" d="m1324.8 323.92c-3.7484 2.8899-7.4857 5.8079-11.725 7.4701" style="fill:none;stroke-width:.5;stroke:#000000"/>
    <path id="path481" d="m1325.4 310.18c-3.424 2.4735-6.828 5.5269-10.496 7.0244" style="fill:none;stroke-width:.5;stroke:#000000"/>
    <path id="path483" d="m1324.1 285.09-0.096 68.149 3.7392-0.25832-2.1681-68.282z" style="fill:#bca76b;stroke-width:.26812;stroke:#472b1f"/>
    <path id="path485" d="m1325.6 284.7c3.0364 3.361 5.4546 5.1758 8.0168 7.351" style="fill:none;stroke-width:.5;stroke:#000000"/>
    <path id="path487" d="m1326.5 282.76c-0.7612-0.38888-2.7728-0.46496-3.5722 0.48393-0.4288 0.50904-0.073 2.2139 0.4645 2.228 1.0822 0.0286 2.4562 0.10436 2.8871-0.36295 0.4479-0.48572 0.7372-2.0852 0.2206-2.349z" style="fill:#bca76b;stroke-width:.34699;stroke:#472b1f"/>
    <path id="path489" d="m1324.4 362.05c0.1056-0.57804 0.5526-0.74674 1.0766-0.84562 0.6042 0.0235 1.3424-0.087 1.7294 0.1537 0.4637 0.11612 0.6997 0.35203 1.1152 0.5383 0.2513 0.30687 0.6858 0.51843 1.0003 0.6919 1.2227 0.47122 0.5594-0.94355 1.2552-0.99918 0.591 0.0521 1.2097-0.21962 1.7045 0 0.4393 0.0863 0.6441 0.40718 0.885 0.69201 0.2628 0.23291 0.5496 0.43223 0.6927 0.69179 0.099 0.356 1.4153 1.001 1.4611 0.1537 0.2708-0.57794 0.1495-1.5784 1.0771-1.4605 1.0315-0.0566 1.8264 0.19958 2.7675 0.30761 0.4946 0.20147 0.895 0.26652 1.3068 0.6918 0.3564 0.21331 0.3273 0.63592 0.6538 0.61484 0.9369 0.69173 0.7422-0.58887 1.0385-0.99916 0.2333-0.37194 0.9098-0.26836 1.2302-0.53821 0.5941-0.17443 1.1657-0.37152 1.9984-0.30759 0.3334 0.18795 0.9132 0.47905 1.3085 0.6921 0.2952 0.27219 0.6684 0.62703 0.8468 1.076 0.035 0.45093 0.4435 0.80823 0.8462 0.46115 0.2057-0.51569 0.6199-0.50348 0.9995-0.76861 0.3974-0.0885 0.6579-0.34109 0.9231-0.6149 0.2328-0.0592 0.4723-0.5744 0.6927-0.7689 0.4084-0.30673 1.2347-0.23361 1.9223-0.3075 0.6775 0.20039 1.3063 0.2811 1.6916 0.61509 0.2349 0.25227 0.4071 0.56736 0.7698 0.69191 0.2157 0.44587 0.7352 0.0742 1.0768-0.0769 0.2793-0.20738 0.7052-0.43224 1.0771-0.615 0.3244-0.32455 0.7877-0.51034 1.4086-0.53829 0.757-0.0861 1.1528 0.31291 1.7431 0.3845 0.5557 0.24217 1.1844 0.27967 1.5375 0.6151 0.4017 0.27349 0.9455 0.50288 1.3455 0.15369 0.5241 0.0155 0.1186-1.0098 0.3196-1.2513 0.6052-0.4803 2.0399-0.41595 2.7941-0.13216 0.6364 0.0171 1.3816-0.0747 1.8065 0.1538 0.421 0.10258 0.4833 0.50192 0.6541 0.92233 0.1924 0.39333 1.3074 0.37717 1.6916 0.0767 0.3643 8e-3 -0.082-0.52022-0.231-0.69201-0.2351-0.15467-0.4904-0.5285-0.616-0.76871 0.5722-0.27706 0.8373 0.24699 1.3069 0.3074 0.2747 0.23464 0.6458 0.31535 0.9228 0.6151 0.4487 0.16526 0.8404 0.38741 1.5341 0.30759 0.6435 0.1884 0.3607 1.1279-0.3803 0.92234-0.5415 0.17608-1.4076 0.0274-2.0756 0.0769-1.0114-0.12027-2.095-0.0653-3.1515-0.0769-0.5266 0.19581-1.3895 0.14489-1.9991 0.30741-0.6557-8e-3 -1.1634 0.13121-1.8649 0.0769-0.6624 0.0995-1.4459 0.0778-2.2086 0.0769-0.6755 0.13101-1.2601 0.15353-1.9725 0.2305-0.6164 7e-3 -1.1193 0.12849-1.7947 0.0769-0.8862 0.16424-2.0636 0.0374-3.0746 0.0769-0.6349 0.10648-1.1756 0.0892-1.7681 0.15369-0.6425 0.0184-1.2088 0.12641-1.8954 0.1538-0.701-0.0191-1.2309 0.13268-1.9686 0.0769-1.0935 0.16559-2.2979 0.0362-3.4386 0.0769-0.5479-0.12617-1.2749-0.0733-1.8685-0.1538-0.5645-0.0159-1.035-0.12602-1.6645-0.0769-0.4771-0.16478-1.3015 0.0178-1.7718-0.15381-0.9332 0.0543-1.6416-0.11622-2.5601-0.0768h-4.9723c-0.4254-0.17903-1.1843-0.0245-1.7363-0.0769-0.9238-0.0164-2.0281 0.0317-2.8486-0.0216-0.7452-0.1298-1.5585 0.0108-2.1791-0.28576-0.9936-0.18186-2.2557-0.50231-2.1704-1.3072z" style="stroke-width:.7;stroke:#000000"/>
    <g id="g499" style="fill:#bca76b;stroke:#472b1f">
      <path id="path491" d="m1316.2 293.48c1.1922 4.4174 6.806 3.7611 6.636-0.2586" style="stroke-width:.3302"/>
      <path id="path493" d="m1321.3 293.34c1.5645 5.0762 8.8603 4.3343 8.6258-0.28314" style="stroke-width:.40349"/>
      <path id="path495" d="m1327.5 293.33c1.5574 3.7238 4.4007 4.0618 6.7124-0.28644" style="stroke-width:.3455"/>
      <path id="path497" d="m1335.8 291.69-20.488 0.69481 0.025 1.1569 20.653-0.59817z" style="stroke-width:.33448"/>
    </g>
    <path id="path501" d="m1321.7 301.61c-1.7966 1.5722-5.1902 3.6277-6.679 3.4274" style="fill:none;stroke-width:.5;stroke:#000000"/>
    <path id="path503" d="m1318.1 295.93c-4.4392 16.839-10.175 34.71-15.602 48.981" style="fill:none;stroke-width:.5;stroke:#000000"/>
    <g id="g523" style="fill:#bca76b;stroke:#472b1f">
      <path id="path505" d="m1315.9 306.21c1.2257 4.745 6.9972 4.0401 6.8224-0.27778" style="stroke-width:.34699"/>
      <path id="path507" d="m1320.8 306.11c1.6085 6.3622 9.1092 5.4322 8.8681-0.35486" style="stroke-width:.45801"/>
      <path id="path509" d="m1327.6 306.06c1.7751 3.9823 5.0156 4.3437 7.6502-0.30632" style="stroke-width:.38143"/>
      <path id="path511" d="m1336.1 303.8-21.02 0.92023 0.024 1.5322 21.189-0.79224z" style="stroke-width:.3899"/>
      <path id="path513" d="m1314.8 318.35c1.3279 5.8103 7.5811 4.9471 7.3917-0.34016" style="stroke-width:.39968"/>
      <path id="path515" d="m1320.6 318.29c1.8623 8.5617 10.546 7.3102 10.267-0.47754" style="stroke-width:.57169"/>
      <path id="path517" d="m1327.4 318.16c1.7348 4.8981 4.9019 5.3426 7.4768-0.37676" style="stroke-width:.4182"/>
      <path id="path519" d="m1336.7 316-23.932 0.9139 0.028 1.5216 24.124-0.78679z" style="stroke-width:.41459"/>
      <path id="path521" d="m1314.4 332.53c1.4381 6.2922 8.2099 5.3575 8.0048-0.36834" style="stroke-width:.43283"/>
    </g>
    <path id="path525" d="m1332.1 335.81c1.3831 5.9812 3.1852 11.448 4.9215 16.546" style="fill:none;stroke-width:.5;stroke:#000000"/>
    <path id="path527" d="m1330.3 335.6c0.7574 5.7555 2.3548 11.327 4.0205 16.72" style="fill:none;stroke-width:.5;stroke:#000000"/>
    <g id="g541" style="fill:#bca76b;stroke:#472b1f">
      <path id="path529" d="m1320.6 332.34c1.7281 8.3453 10.479 7.6371 10.405-0.4033" style="stroke-width:.52889"/>
      <path id="path531" d="m1328 332.32c1.8788 5.3043 5.3085 5.7857 8.097-0.408" style="stroke-width:.45289"/>
      <path id="path533" d="m1338.1 329.69-26.662 1.0937 0.032 1.821 26.876-0.94156z" style="stroke-width:.47871"/>
      <path id="path535" d="m1329.4 299.69-7.6532 0.20264 0.024 1.7099 7.713-0.0237z" style="stroke-width:.20866"/>
      <path id="path537" d="m1329.4 312.09-7.6532 0.20263 0.024 1.7099 7.713-0.0237z" style="stroke-width:.20866"/>
      <path id="path539" d="m1329.9 325.6-8.1417 0.20197 0.024 1.7042 8.2053-0.0237z" style="stroke-width:.21486"/>
    </g>
    <g id="g571" style="fill:none;stroke:#000000">
      <g id="g559" style="stroke-width:.5">
        <path id="path543" d="m1332.9 337.55-4.3648 0.90696"/>
        <path id="path545" d="m1333.6 340.87-4.3648 0.90697"/>
        <path id="path547" d="m1334.5 344.48-4.4341-0.21377"/>
        <path id="path549" d="m1335.8 347.95-4.5727 0.68738"/>
        <path id="path551" d="m1315.4 347.25 4.5932 0.90696"/>
        <path id="path553" d="m1316.7 343.51 4.136 0.90696"/>
        <path id="path555" d="m1317.8 340.62 3.8318 0.98341"/>
        <path id="path557" d="m1318.5 338.03 3.451 0.67832"/>
      </g>
      <g id="g569">
        <path id="path561" d="m1373.1 353.3c7.6505-0.34147 16.796-1.2252 22.951 1.1758"/>
        <path id="path563" d="m1373.6 355.85c7.0528-1.0399 15.267-1.6276 21.288 0.68585"/>
        <path id="path565" d="m1374.3 360.94c5.0836-1.1389 11.888-1.405 16.711-0.19596"/>
        <path id="path567" d="m1374.9 362.14c5.0836 1.1389 11.07 1.405 15.893 0.19595"/>
      </g>
    </g>
    <path id="path573" d="m1300.5 344.36 16.51 9.9766 0.3531-0.44144-5.209-3.6198c-3.7192-2.3027-7.4564-4.5694-11.654-5.9153z"/>
    <g id="g605" style="fill:none;stroke:#000000">
      <g id="g601" style="stroke-width:.5">
        <path id="path575" d="m1379.7 352.5-0.1296-5.5057"/>
        <path id="path577" d="m1381.4 347.06 1e-4 5.6353"/>
        <path id="path579" d="m1384.5 352.76v-5.8944"/>
        <path id="path581" d="m1388 347.36 2e-4 5.6591"/>
        <path id="path583" d="m1390 347.32 0.065 5.7648"/>
        <path id="path585" d="m1392.8 347.91v5.3652"/>
        <path id="path587" d="m1394.2 347.84-0.065 6.0239"/>
        <path id="path589" d="m1380.4 354.9-0.065 5.1818"/>
        <path id="path591" d="m1378.7 355.16v4.9228"/>
        <path id="path593" d="m1383.2 355.03-0.1943 4.9228"/>
        <path id="path595" d="m1384.9 354.96-0.065 4.9228"/>
        <path id="path597" d="m1387.4 354.9-0.3239 4.7932"/>
        <path id="path599" d="m1389.8 355.55-0.9069 4.4046"/>
      </g>
      <path id="path603" d="m1373.2 347.35c7.557-0.89606 15.114 0.18585 22.671 0.93739"/>
    </g>
  </g>
  <path id="path609" d="m999.48 257.01c0.0753-25.558-1.3562-50.372-0.70324-72.116-33.068-14.686-76.581-17.706-98.77-17.706-22.194 0-65.706 3.0202-98.774 17.706 0.653 21.744-0.77436 46.558-0.7032 72.116z" style="fill:none;stroke-width:2;stroke:#000000"/>
  <g id="g1387" transform="matrix(.48584 0 0 .48584 180.71 93.35)">
    <path id="path1116" d="m1468.2 251.4s7.3535 10.937 9.3338 16.822c0.9696 2.8817 1.3334 6.0172 1.1314 9.051-0.3692 5.5447-2.5123 10.841-4.2426 16.122-1.1993 3.6602-3.8373 6.4376-2.379 10.003 0.7031 1.7189 1.3924 3.2935 3.2275 3.0082 1.1218-0.17438 1.6582-1.5547 2.5456-2.2627 0.634-0.50583 1.2306-1.1038 1.9799-1.4142 1.0597-0.43893 2.5701 0.23216 3.3941-0.56569 0.6907-0.66882 1.1753-2.0849 0.5657-2.8284-0.538-0.65621-1.6977-0.0326-2.5456 0-1.2284 0.0472-2.6073 0.88852-3.677 0.28284-1.1007-0.62322-1.697-3.3941-1.697-3.3941s2.2004-6.0581 3.3941-9.051c0.986-2.4723 2.5822-4.7454 3.1113-7.3539 0.1687-0.83159-0.06-1.6992 0-2.5456 0.094-1.33-0.3403-2.9815 0.5656-3.9598 0.5906-0.63778 2.2279 0.24339 2.5456-0.56569 1.214-3.0915-4.4304-5.1158-5.6568-8.2024-0.4579-1.1524-0.162-2.5044-0.5657-3.677-0.8794-2.5543-3.9598-7.0711-3.9598-7.0711z" style="fill:#69737c;stroke-width:1.5;stroke:#000000"/>
    <path id="path1140" d="m1491.2 259.91s6.5282 8.1489 7.2038 13.081c0.1498 1.0934-0.7318 2.1195-0.7583 3.2227-0.042 1.7347 1.0278 3.3851 0.9479 5.1185-0.2569 5.5753-3.1935 10.7-4.5498 16.114-1.1476 4.5809-3.0331 13.839-3.0331 13.839l4.1706-0.37915 0.7583-7.0142s2.1855-7.9522 3.2227-11.943c0.7209-2.7738 1.111-5.6459 2.0853-8.3412 0.6437-1.7809 2.0196-3.2778 2.4645-5.1185 0.5792-2.3962 1.2799-5.1824 0.1895-7.3933-0.3802-0.77084-1.4901-0.89656-2.0853-1.5166-1.4201-1.4792-2.4937-3.2852-3.4123-5.1185-0.9311-1.8584-2.0853-5.8768-2.0853-5.8768-0.8688 0.32335-5.1185 1.327-5.1185 1.327z" style="fill:#66452b;stroke-width:1.5;stroke:#000000"/>
    <path id="path1344" d="m1460.3 245.06 4.6579 3.711 8.0576 4.864 3.7163 0.22754 4.1969 1.5114 5.239-0.16358 3.8775 3.9586 1.0886 0.73357 4.3057-0.59593 1.5879-1.7626 8.2181-12.53-1.9721-20.66-39.161 2.5356z" style="fill:#ffffff"/>
    <path id="path1171" d="m1502.6 210.19c5.2897 4.2939 10.435 8.7892 14.571 14.243 3.1873 3.7739 5.1383 8.9067 9.8161 11.267 6.5885 7.0364 34.793 15.196 34.888 17.394-6.5014-2.6491-9.327 6.222-15.628 4.7972-5.8633 1.7028-10.692-2.1326-15.764-4.2652-7.6218-0.27244-15.562 0.12258-22.346 3.9904-3.707 2.0144-8.118-1.0943-11.049-0.0718l-0.3374 0.63789-0.4382 0.39359m-35.952-13.516c-4.5174-2.2421-7.8225-6.4514-12.027-8.988-3.2491-4.5753-7.4235-9.1562-7.2247-15.178-0.5107-6.2228-2.1394-14.828 0.8145-20.743-2.1227-4.6375-5.098-5.8871-7.4441-10.457-1.6994-6.3205-8.1084-9.9469-4.2609-14.753 4.2785-3.8024 7.273-8.2937 12.788-10.266 4.5726-1.0599 9.2108-0.6143 13.6 0.95392 5.6808 0.66742 8.7969 5.5136 11.794 9.7124 3.626 5.6463 6.058 12.045 7.0696 18.714 2.6188 5.4774 9.5822 6.5922 14.687 8.9291 4.4001 2.0822 8.7955 3.8576 12.442 7.2035" style="fill:#ffffff"/>
    <path id="path1332" d="m1533.5 246.82c-2.2148-0.31591-7.5306 1.8791-6.1396-1.4091-5.4491-0.39617-11.173 0.77301-16.416-1.0538-5.43-2.6643-11.328-4.3036-17.137-5.8869-5.6892-0.30872-12.393 1.0085-16.76-3.6607-4.534-2.648-11.16-0.73754-15.318-4.5884-4.2028-3.576-6.7304-8.512-6.5716-14.03-0.8357-5.4117-2.8492-12.693 3.2099-15.875 3.9574-1.201 7.7424-0.17068 10.134-4.143 5.0379-0.83146 9.6628 1.0116 14.003 3.4707 5.0946 2.5223 10.716 4.0839 15.667 6.9172 4.7446 3.1317 8.7807 7.2112 13.23 10.767 3.4938 4.0088 7.5657 7.711 9.827 12.633 2.6806 5.2804 8.2246 8.0621 12.975 11.122 2.8462 0.73414 9.6283 3.8858 3.1874 4.732-1.3281 0.2154-2.5602 0.86382-3.8919 1.005z" style="fill:#000000"/>
    <path id="path1327" d="m1477.9 229.04c-2.7705-0.37118-5.5778-0.93857-7.8598-2.6554-1.7976-1.0729-6.2385-3.6782-3.3562-5.7136 2.3959-0.28425 5.1336 0.90894 7.2717-0.73904 3.219-0.67407 6.6204-0.73587 9.593-2.3198 2.7677-1.5042 6.0358-0.49877 8.9204-1.4228 2.1484-1.1402 1.8458-5.4465 5.1272-4.7163 3.0113-0.76921 2.1286 5.0103-0.5579 3.1746-1.6646 2.331 3.0026 3.1186 4.2381 4.5604 2.4859 2.8221-2.9858 3.4594-3.4732 5.5523-3.4572 1.0086-5.9889-3.334-9.4451-2.1162-0.6388 1.1601 0.082 3.532-2.4225 2.9526-2.8856-1.7624-5.3869 0.21734-8.2315 0.57188 0.8328 0.63112-0.9807 2.9437 0.1958 2.8714z" style="fill:#69737c"/>
    <path id="path1258" d="m1538 249.75c-1.6258-0.8585-3.7125-0.13237-5.5157-0.0248-1.2104 0.0149-2.4167 0.0777-3.5496-0.43075-1.7867-0.044-5.1788-1.9787-5.6982 0.59424 0.1184 1.1111 3.0429 1.5828 0.6201 1.9328-2.4546 0.35036-4.655-0.76188-6.9002-1.5556-0.9173-0.8599-2.8641-1.9436-2.3817 0.13345 0.7787 1.7976-1.1519 2.629-2.6975 2.5714-2.1947-0.15632-4.6394-0.75111-6.2334-2.3472-1.1489 1.4228 1.6195 3.4256 3.2575 3.5277 1.6342 1.3857-2.47 0.84105-3.4005 0.64674-1.3831-0.23581-2.9424-0.4188-4.1444 0.4375-1.9171 0.43309-1.9656 2.3037 0.2617 2.1001 2.1413 0.70298 4.5462 1.3424 6.6694 0.23624 2.3049-1.3458 4.7966-2.3078 7.4404-2.7581 2.0714-0.45747 4.1484-0.77823 6.2582-0.95996 2.7939-0.3201 5.6053-0.28283 8.4312-0.28068 2.1975 1.174 4.3603 0.15698 6.3045-0.875 1.199-0.37039 4.8231-1.7373 2.1841-2.7803-0.3312 0.1165-0.6065-0.41912-0.9059-0.16773z" style="fill:#69737c"/>
    <path id="path1255" d="m1530.5 253.63c1.0846 0.0126 2.1567-0.0131 3.1217-0.53515 1.0577-0.58639 2.2136-0.77629 3.3391-1.186 1.4438 0.0156 2.1108-1.9326 0.5879-2.3354-0.7967-0.52852-1.7428-0.90567-2.5734-1.2754-0.8593-0.74355-2.1221-0.97395-2.8949-1.7494 0.6501-0.81042 1.213-1.6854 1.8665-2.4911 1.0108-0.40488 2.2357-0.24724 3.317-0.51939 0.7996-0.25463 1.6462-0.13054 2.4705-0.16022 1.1229 0.57033 2.3434 0.94541 3.4152 1.5768 1.108 0.60334 2.2672 1.155 3.5071 1.5323 1.0256 0.31403 2.0121 0.68167 2.9828 1.0855 1.1286 0.57295 2.4165 0.75991 3.6067 1.1602 1.1895 0.2438 1.674 1.5781 3.0889 1.3826 1.3771 0.23877 2.62 0.52438 3.6395 1.4918 0.7659 0.32088 2.1323 1.038 2.1631 1.6824-1.1218 0.14678-2.0757-0.85824-3.2402-0.6338-0.9087 0.1969-1.5013 1.0863-2.567 0.9236-0.4648 1.368-2.2416 1.1599-3.0621 2.2896-1.1536 0.88841-2.3982 1.6826-3.7665 2.2302-1.0679 0.40806-2.2467 0.36366-3.2873-0.0954-1.2331-0.33965-2.5364-0.0327-3.781-0.23752-1.3316 0.35817-2.5605 0.0651-3.8143-0.37204-1.1037-0.29635-1.941-1.1074-2.8918-1.6802-1.1425-0.46529-3.2115-1.0125-4.3478-1.487-0.5962-0.28858-0.5316-0.47012-1.1799-0.59696z" style="fill:#000000"/>
    <path id="path1245" d="m1446.3 163.94c-1.1578-0.0173-2.3175 1e-3 -3.4063 0.46485-1.907 0.42487-3.6004 1.5544-4.832 3.0547-1.5836 1.8551-3.43 3.4698-5.4453 4.8438-0.9872 0.69371-1.7965 1.5876-2.3828 2.6426 1.1545 0.75336 2.9688 0.96414 3.7754-0.40429 1.2476-1.5422 2.8737-2.7938 4.7304-3.5 1.6402-0.32483 3.3071 0.3317 4.9473 0.50586 1.3074 0.7096 2.6502 1.2685 4.1523 1.4844 0.777 0.28378 2.1039 0.40343 3.2051 0.71289 1.5134 0.58264 3.1168 0.84444 4.6817 1.2539 1.7737 0.36472 3.5767 0.23614 5.3476-0.0488 0.3973-0.0461 0.7993-0.0604 1.2012-0.0723-0.2535 0.57405-0.4572 1.1045-0.4199 1.373 0.035 1.0779 0.5038 2.0475 0.9804 2.9922 0.572 0.93473 1.1489 1.8647 1.7071 2.7832 0.4571 1.0692 0.9873 2.1016 1.3984 3.1934 0.537 0.83082 0.8378 1.7358 1.2109 2.6348 0.2448 1.0171 0.6525 2.0103 1.3594 2.752 0.7175 0.93706 1.5669 1.7916 2.2129 2.7891 0.5863 0.86242 1.0281 1.8367 1.4727 2.7383 0.7788 0.65614 1.5986 1.609 2.6699 1.4961 1.1083 0.1416 2.1577-0.302 3.2461-0.41993-0.1243-0.031-0.2488-0.0626-0.3731-0.0937-1.0189-0.52812-1.5254-1.5741-2.0644-2.5176-0.248-1.0528-0.3487-2.1522-0.5371-3.1816-0.07-1.0456-0.4388-2.0473-0.793-3.0352-0.2712-0.87177-0.6251-1.7053-0.8574-2.5762-0.421-0.88932-0.7705-1.8177-1.0996-2.75-0.3713-0.97366-0.6574-1.9848-1.2305-2.8633-0.5267-0.94179-0.9421-1.9366-1.5215-2.8613-0.6228-0.8337-0.9777-1.9178-1.6347-2.7129-0.3238-0.49984-0.779-0.76316-1.2832-0.9336 0.2031-0.49688-0.01-1.1647-0.5762-1.6953-0.755-0.89649-1.7853-1.7437-2.3594-2.9023-1.23-1.5295-3.2243-2.0209-4.9316-2.8184-1.9864-0.90383-4.1364-1.3336-6.2637-1.752-1.6724-0.44894-3.4011-0.64796-5.1328-0.5625-0.383 1e-3 -0.7684-8e-3 -1.1543-0.0137z" style="fill:#000000"/>
    <path id="path1239" d="m1466.1 191.84c-0.061-1.5187-2.1337-0.92037-2.7715-0.11263-1.0218 1.0067-1.594 2.418-2.8214 3.228-1.8078 1.3187-4.1954 1.5005-5.9927 2.8333-1.0332 1.0632-1.8257 2.4216-3.2113 3.0863-1.4182 0.76249-2.9603 1.6205-3.6982 3.1228-0.3259 1.1037-1.0728 2.6347 0.084 3.5133 1.4796 0.55633 0.061 1.9 0.1431 2.8622 0.6914 1.0164 2.3645 1.4173 3.4131 0.69257 1.3937-0.83853 2.9074-1.6174 3.817-3.028 1.3283-1.6156 2.8219-3.2098 4.7355-4.1174 1.2674-0.31322 2.2465-1.1577 3.1106-2.0768 0.9084-0.74446 0.1405-2.1915 1.5216-2.44 1.2593-0.47856 1.9277-1.6699 2.7314-2.6618 0.7432-1.1516-0.6099-2.2279-0.431-3.4572-0.072-0.53249-0.1414-1.1214-0.6301-1.4446z" style="fill:#69737c"/>
    <path id="path1157" d="m1487.7 312.34c-2.5445-6e-5 -5.089 9e-5 -7.6335 0-1.2629-0.50788-2.1467-2.6232-3.7549-1.7834-1.3997 0.5376-2.7994 1.199-4.133 1.919-1.2918 0.70401-2.3838 1.6358-3.2276 2.8107-0.1576 0.80781-2.5197 1.7176-0.5301 1.7467 1.7227 0.13999 2.7835-1.6282 4.4442-1.8604 1.3084-0.52426 2.7502-0.19667 4.1212-0.28799 1.1143 0.26713 2.3694 0.27625 3.5764 0.26788 1.356-0.10444 2.6323 0.14582 3.9528 0.1129 1.9176 0.17147-0.7097 1.3424-1.3227 1.6006-1.4996 0.67938-3.1663 0.87789-4.7701 1.2327-1.5866 0.0118-3.2234-0.0538-4.6813 0.65294-1.4703 0.67956-2.9484 1.4012-4.3049 2.33-0.7406 0.41073-2.6268 1.4018-0.7639 1.4205 1.386 0.16929 2.7277-0.17134 4.041-0.58524 2.2873-0.85884 4.6586-1.4186 7.0686-1.8004 1.5723-0.35546 3.0285-1.0346 4.6186-1.323 0.9709 1e-3 3.5608-0.4785 2.7467 1.2302-0.9927 1.1924-2.4039 2.0258-3.8066 2.6476-1.1831 0.68539-2.2833 1.7632-3.7725 1.7222-1.122-0.39378-3.4896 0.47136-1.7786 1.6066 0.8616 1.5466 2.6867 0.48646 3.8129-0.0872 1.3235-0.66095 2.6214-1.1822 4.0158-1.7195 1.5599-0.58111 3.1603-1.1847 4.6546-1.8594 1.2469-0.78764 2.8023-1.0646 3.9456-1.9299 1.3561-0.79176 2.966-1.4324 3.6124-2.998 0.4074-1.2722 1.3755-2.0575 2.5971-2.4818 1.39-0.35078 2.8671-0.13199 4.2751-0.44154 1.5859-8e-3 1.1298-2.869-0.3338-2.9416-1.2788-0.83147-2.3708-1.8095-3.6791-2.5492-1.5447-0.55952-3.1722-0.96112-4.8495-0.80378-1.3862 0.0998-2.4753 0.97437-3.1572 2.1175-0.8621 1.0103-1.0583 2.7845-2.7577 2.3855-0.7674 0.20887-1.5203-0.069-2.226-0.35113z" style="fill:#66452b;stroke-width:1.5;stroke:#000000"/>
    <path id="path1136" d="m1450.5 321.84s1.4448-5.3338 3.3281-7.1816c3.8255-3.7533 14.714-6.481 14.714-6.481-4.6471 1.8102-10.22 0.46352-14.714 1.7516-3.7472 1.1696-10.159 5.9555-10.159 5.9555s2.3756-5.0956 4.2039-7.1816c5.3925-5.8927 14.002-6.5821 20.494-5.6052l7.3568 1.051s1.2541 0.75934 0.7006 1.8781c-1.158 2.3403-4.6489 3.681-7.0064 4.8036-6.6115 3.3688-14.81 5.9978-18.917 11.01z" style="fill:#66452b;stroke-width:1.5;stroke:#000000"/>
    <path id="path1134" d="m1472.9 303.1c-5.9275 4.0104-19.604 11.177-19.092 11.561 0 0 11.657-2.6664 16.991-5.2548 1.8504-0.89808 4.4447-1.5468 5.0797-3.5032 0.325-1.0012-0.1651-2.4094-1.051-2.9777-0.5428-0.34824-1.3926-0.18625-1.9268 0.17516z" style="fill:#69737c;stroke-width:1.5;stroke:#000000"/>
    <path id="path1138" d="m1501.2 272.04c-1.4405-0.0966-1.6461 2.5385-1.7061 3.981-0.042 0.99827-0.049 2.7728 0.9478 2.8436 1.2685 0.0902 1.5839-2.1465 1.7062-3.4123 0.1136-1.175 0.23-3.3333-0.9479-3.4123z" style="fill:#69737c"/>
    <path id="path1142" d="m1495.2 310.9c0.046-1.1587-1.4248-0.54029-2.0542-0.33644-1.4352 0.32887-2.6702 1.1426-3.9268 1.8692-0.9791 0.6414-2.0382 1.1506-3.0429 1.7451-1.9864 0.95077-3.781 2.2531-5.7695 3.1977-0.8415 0.41083-1.7109 0.79939-2.6243 0.99115-0.7386 0.14354-0.4756 0.61243 0.1564 0.55658 1.368 0.29367 2.7907 0.13532 4.1023-0.32932 1.4609-0.45688 3.1202-0.83277 4.528-1.4269 0.7569-0.69062 2.3282-0.93922 3.2011-1.4433 0.7277-0.47062 2.6255-0.75538 3.4114-1.1198 1.3038-0.6836 0.772-1.6241 2.2608-1.6361 0.9294-2e-3 1.0621-1.4164 0.1408-1.5957-0.1746-0.10909-0.3347-0.26478-0.3831-0.47212z" style="fill:#69737c;stroke-width:1.5;stroke:#000000"/>
    <path id="path1149" d="m1481.7 323.41c1.0503-0.28721 2.1684-0.23509 3.1983-0.61391 1.2756-0.33004 2.5301-0.74014 3.7716-1.1724 0.5928-0.2924 1.188-0.58282 1.7775-0.87907 1.0475-0.73859 1.7633-1.8441 2.4564-2.899 0.4733-0.8969 0.9205-1.8121 1.3741-2.7173 0.2088-0.73676-0.6859-1.0624-1.1367-0.5261-0.6747 0.48434-1.2935 1.0395-1.9922 1.4931-0.6787 0.57719-1.5017 0.96722-2.1344 1.5969-0.7617 0.89804-1.1404 2.0738-1.9973 2.8972-0.4028 0.41025-0.8672 0.72406-1.3928 0.95348-1.0787 0.5906-2.2784 0.90642-3.3738 1.4607-0.1964 0.115-0.406 0.22582-0.5507 0.4065z" style="fill:#69737c;stroke-width:1.5;stroke:#000000"/>
    <path id="path1163" d="m1496 246.14c0.4295 0.68362 0.6657 1.502 0.7067 2.3025 0.1257 0.98021 0.3674 1.943 0.4962 2.9198-0.065 1.0175-1.1262 1.6325-1.295 2.6351-0.062 0.67002 0.041 1.3545-0.1187 2.0219-0.2407 1.0877 0.1073 2.2277-0.306 3.289-0.5141 0.9916-1.9849 0.24136-2.8955 0.49962-0.8859 0.20574-1.965 0.25002-2.4988-0.63726-0.7559-0.81061-1.4195-1.7097-2.2694-2.4286-1.0259-1.0006-2.0902-2.0012-2.7626-3.2866-0.6154-0.86236-1.1366-1.7807-1.7282-2.6566-0.1991-0.37004-0.4052-0.83612-0.5555-1.1532" style="fill:none;stroke-width:1.5;stroke:#000000"/>
    <path id="path1165" d="m1486.2 255.21c-0.872 6e-3 -1.7215 0.28013-2.6247 0.16361-0.8714-7e-5 -1.7429 9.6e-4 -2.6143-3e-5 -0.6404-0.2599-1.8974-0.26459-2.506-0.68198-0.7158-0.14027-1.0612-0.56589-1.6909-0.82947-0.4639-0.33293-0.889 0.0243-1.4705-0.0657-0.3947-0.72273-1.2502-1.63-1.7202-2.1309-0.4998-0.26047-1.0542-0.44618-1.442-1.0033-0.5372-0.1323-0.9522-1.0147-1.1583-1.2991-0.4042-0.4735-0.5179-1.1025-0.9105-1.6156-0.3716-0.54126-0.506-1.0659-0.8921-1.636-0.075-0.11971-0.022-0.27385 0-0.39714" style="fill:none;stroke-width:1.5;stroke:#000000"/>
    <path id="path1167" d="m1475.3 253.8c-0.1969 1.2533-1.6132-0.0156-2.2458-0.16185-0.5209-0.2582-0.9882-0.56208-1.5933-0.75306-0.4393-0.33658-1.0301-0.56818-1.4876-0.77949-0.5425-0.33974-1.2347-0.55879-1.6462-0.98473-0.7787-0.17674-1.3537-0.9413-2.0941-1.1462-0.6723-0.63562-1.4253-1.1033-2.1665-1.5967-0.7715-0.61098-1.645-1.1429-2.3852-1.8979-0.7031-0.60937-1.2993-1.2582-1.3552-2.1892-0.062-0.88989-0.3115-1.7542-0.6295-2.4188 0.088-0.47336-0.2575-0.63796-0.1801-1.0656" style="fill:none;stroke-width:1.5;stroke:#000000"/>
    <path id="path1187" d="m1533.5 254.49c0.8171 0.0479 1.6182-0.012 2.3993-0.20916 0.8236-0.047 1.5795-0.37662 2.3673-0.56298 0.8196-0.34572 1.4853-1.1639 2.4507-1.0842 0.8707-0.047 1.8448 0.26474 2.6209-0.2724 0.4891-0.66784 1.1871-0.90446 1.9861-0.76699 0.811-0.11798 1.5853 0.14817 2.3684 0.31041 0.7291 0.26139 1.486 0.42223 2.2163 0.67833 0.7035 0.36758 1.3934 0.78508 2.1349 1.0691 0.7353 0.37613-0.517 0.89355-0.7508 1.2665-0.7356 0.30462-1.6307 0.0237-2.285 0.59722-0.6746 0.35967-1.2824 0.84399-1.5968 1.557-0.3952 0.81614-1.3858 0.58204-2.1005 0.84432-0.707 0.1024-1.4278 5e-3 -2.1373 0.12186-0.6042 0.0201-1.2533 0.23746-1.8158-0.0608-0.7581-0.23571-1.5446-0.41295-2.3407-0.43287-0.6204-0.4269-1.1172-1.1179-1.9288-1.1805-1.0934-0.24719-1.9939-0.97037-3.0519-1.3201-0.2559-0.0924-0.4393-0.30644-0.5363-0.55471z" style="fill:#bca76b"/>
    <path id="path1181" d="m1435 183.95c-1.8108-0.3822-3.5868 0.46315-5.4073 0.42709-1.6696 0.37369-3.4263 0.10014-5.1351 0.18362-1.7835-0.32322-3.6992-0.15975-5.5131 0.12735-2.6982 0.43838-5.2629 1.4978-7.9789 1.9083-3.6689 0.2361-7.3781 0.0351-11.063 0.10183-2.5836 0.2172 0.2538-3.1293 1.718-2.9905 3.3608-0.90558 6.6419-2.1245 10.127-2.4639 2.5898-0.38317 5.1062-1.1718 7.6763-1.626 2.0822-0.59242 4.1861-1.0596 6.2626-1.6604 2.1579-0.36263 4.3349-0.77262 6.5169-0.3991 2.252-0.55854 4.5063-1.0899 6.653-2.0052 1.9535-0.96987 4.2914-0.3222 6.1236-1.5287 1.1584-1.7106 3.3261-1.6501 5.1687-1.4936 1.9585 0.36059 4.1032 1.0784 5.3027 2.8159 1.4414 2.0876-2.9683 1.8174-1.6484 4.0043-0.7812 0.80572-2.2836 0.99473-3.4797 0.93461-1.0326-0.061-2.1234 0.20896-3.0576-0.35067-1.6751-0.59055-2.9505-1.8842-4.4897-2.7682-1.5783-0.24445-1.6579 2.667-3.6536 2.3554-2.5247 0.96702-5.2846 0.72052-7.9393 0.7634 1.6721 0.61067 3.4982 1.2066 4.8347 2.3812 0.5228 0.81025-0.4056 1.1164-1.0178 1.2831z" style="fill:#000000;stroke-width:1px;stroke:#000000"/>
    <path id="path1185" d="m1445.7 176.62 1.6794-0.76339 0.9161-1.5268s1.4425 2.167 0.7634 2.9009c-0.7729 0.83524-3.3589-0.61072-3.3589-0.61072z" style="fill:#ffffff"/>
    <path id="path1191" d="m1450.2 172.53c0.3444-0.26278-1.3917-1.3383-0.097-1.6229 1.3709-1.6419 3.5264-0.28969 5.118 0.21382 3.0668 0.96852 6.2926 2.1628 8.3362 4.789 2.9423 3.3962 3.6039 8.0409 5.9351 11.793 0.9995 1.7952 1.6385 3.7556 2.2991 5.6869 0.4845 1.5387 2.8345 3.1365 1.6074 4.7915-1.4424 0.87801-2.9092-0.29727-4.2724-0.65307-1.848-0.19231-0.9502 1.8718 0.2605 2.112 1.3121 0.5222 1.7192 2.6123-0.1588 2.4924-1.7934-0.2134-3.5763-0.35033-5.3326-0.62569-1.4-0.75914 0.375-2.1596 1.1593-2.6693 1.0491-0.63061 2.4373-1.4695 2.2319-2.8992 0.022-2.5859-1.7679-4.7053-2.1582-7.2113-0.4667-1.8765-0.9146-3.7898-1.8484-5.5004-0.8083-4.0304-4.4285-6.8076-8.1504-8.0422-1.5937-0.81885-3.2942-1.526-4.8192-2.4215-0.037-0.0776-0.074-0.15517-0.1107-0.23276z" style="fill:#ffffff"/>
    <path id="path1193" d="m1463.6 174.55c0.535 0.29606 1.0561 0.62115 1.5999 0.89706 0.4313 0.44429 1.4231 1.9442 1.7334 2.4795 0.2091 0.44133 0.3105 0.90963 0.4175 1.3843 0.094 0.60611 0.5652 1.0239 0.8876 1.5097 0.2952 0.68863 0.5157 1.4106 0.7868 2.1089 0.3595 0.54427 0.7144 1.1024 0.8473 1.7516 0.1286 0.54933 0.2867 1.0813 0.5099 1.5973 0.3036 0.43625 0.4683 1.2974-0.2874 1.3371-0.4986-0.12762-1.0266-0.38363-1.3237-0.83404-0.5792-0.52611-0.8884-1.2653-1.3415-1.8924-0.2697-0.43947-0.4383-0.97341-0.5461-1.4362-0.3098-0.54047-0.3859-1.1821-0.6051-1.7604-0.2727-0.54702-0.3692-1.1557-0.6887-1.6793-0.3525-0.59442-0.4819-1.2853-0.8596-1.8673-0.3167-0.7035-1.4689-2.444-1.1967-3.2541 0.026-0.11322 0.051-0.22665 0.066-0.34184z" style="fill:#bca76b"/>
    <path id="path1195" d="m1451.5 170.06c-0.4186-0.13749-0.7224-0.45962-1.0032-0.77898-0.3217-0.18954-0.9037-0.39188-1.1344-0.61984-0.7819 0.31117-0.1381-0.51451-0.5235-0.38981-0.1801-0.29943-0.1579-0.51779-0.3461-0.8383-0.2436-0.28465-0.5556-0.50632-0.7805-0.80654 0.016-0.16538-0.3298-0.38184 0.014-0.37988 0.4151-0.0134 0.8557-0.0546 1.2327 0.14144 0.409-0.0722 0.7219 0.2359 1.1259 0.17254 0.5732-0.0424 1.1484 0.01 1.723-0.0156 0.2777-0.0991 0.3189 0.26091 0.6164 0.15891 0.1996 0.0373 0.2566 0.20756 0.4857 0.13256 0.4676 0.0225 0.534 0.51429 0.7863 0.78463 0.347 0.21381 0.4981 0.59467 0.583 0.94869 0.078 0.092 0.1526 0.513 0.1234 0.41995 0.049-0.0924 0.054 0.40981-0.1662 0.39002-0.2847 0.29667-0.6911 0.33314-1.0088 0.52002-0.4057 0.0334-0.7114 0.39474-1.125 0.31-0.2046-0.034-0.3992-0.10964-0.6024-0.14983z" style="fill:#bca76b"/>
    <path id="path1210" d="m1450.5 169.28c-0.5844 0.25566-1.22 0.48933-1.8684 0.39615-0.4288 0.096-0.7505 0.41689-1.0664 0.69732-0.3724 0.23819-0.8217 0.31235-1.246 0.39505-0.3492-0.0724-0.6133-0.35292-0.9608-0.44691-0.3019-0.11623-0.2893-0.52456-0.6152-0.62222-0.3257-0.22481-0.6903-0.36422-1.0528-0.51517-0.3119-0.13422-0.2066-0.51497-0.2445-0.78618-0.01-0.30859 0.035-0.61957 0.1552-0.90406-0.015-0.43512 0.3725-0.59946 0.7495-0.51478 0.7113 6e-3 1.4226 1e-3 2.1339 3e-3 0.3532-0.18677 0.7553-0.38864 1.1653-0.3229 0.3943 0.13078 0.5872 0.53856 0.9065 0.77719 0.6582 0.60364 1.2936 1.2317 1.9437 1.8437z" style="fill:#ffffff"/>
    <path id="path1212" d="m1453.7 167.62c0.4713-0.2412 0.9851-0.47541 1.5066-0.54353 0.5258-0.0234 1.0097 0.20089 1.5136 0.30731 0.5438 0.16387 1.0928 0.29892 1.5847 0.59517 0.5713 0.18683 1.0743 0.49877 1.6233 0.74612 0.4935 0.26903 0.9783 0.56229 1.4864 0.8036 0.4662 0.22889 0.9223 0.49228 1.3415 0.79652 0.4501 0.35516 0.8998 0.73244 1.2378 1.1982 0.3165 0.35954 0.01 1.032-0.4696 0.65487-0.4718-0.31041-0.9986-0.4989-1.5307-0.67888-0.4931-0.0719-0.9716-0.15329-1.419-0.38738-0.517-0.0995-0.9884-0.43697-1.5149-0.57033-0.668-0.30812-1.3769-0.50802-2.0401-0.82417-0.2849-0.2159-0.6626-0.25017-0.9703-0.43641-0.6145-0.32602-1.2475-0.61499-1.8634-0.93691-0.1881-0.20085-0.5704-0.39257-0.4859-0.7242z" style="fill:#ffffff"/>
    <path id="path1232" d="m1461.3 178.47c-2.0568-0.16182-4.1175 0.79524-6.1513 0.1431-1.5341-0.20576-2.7344 0.9546-4.0579 1.5054-1.7131-0.16863-2.0668 2.2858-3.5877 2.1643-1.303-0.15579-2.8555-1.1634-4.0363-0.69785 2.6496 1.1744 5.3552 2.3529 7.712 4.0682 1.2823 1.1896 2.7387 2.2307 4.4274 2.7468 1.1463 0.49242 2.4779 1.6381 1.9624 3.0237-0.5144 1.6213-2.9372 1.907-3.0328 3.7422-0.2745 1.6085-2.0429 2.2937-2.6138 3.7476-0.6245 1.1292-2.0758 1.8071-2.1876 3.1909 0.349 1.7249 2.3559 0.42413 2.3014-0.84389 0.3002-1.1047 1.2829-2.8132 2.6518-2.1087 1.1186 1.5809 2.4908-1.1088 3.8346-0.4643 0.6208 0.932 2.0616 1.4201 2.6846 0.18644 0.909-0.35707 2.3409-0.95077 1.4738-2.2459-0.029-1.3285 1.6122-1.2386 2.3579-1.9935 1.0397-0.46993 2.1306-1.8154 0.996-2.7901-1.0201-1.4184 0.075-3.4454-1.2014-4.7617-0.9693-1.5099 0.028-3.3971-0.7789-4.9617-0.6856-1.2967-1.2234-3.1324-2.6063-3.6945z" style="fill:#000000"/>
    <path id="path1253" d="m1516.6 234.48c-2.3528-0.0427-4.2496 1.7565-6.5778 1.9233-2.8178 0.39504 0.7346 1.6703 1.6038 2.2821 2.2404 1.4859 4.9086 1.9978 7.3978 2.8638 2.3305 1.1109 4.9615 1.7999 7.5314 1.35 2.3945-0.56124 0.6202-2.9382-0.05-4.254-1.4329-2.0494-3.8654-3.088-5.6639-4.7756-1.3023-1.1573-3.2549-0.7396-4.2417 0.61035z" style="fill:#69737c"/>
    <path id="path1264" d="m1515 239.48c-0.8634 0.10585-1.7089 0.38688-2.5889 0.28899-1.0081 0.088-2.0819 0.29661-3.0098-0.25249-1.0469-0.26606-2.1179-0.47063-3.0575-1.0391-0.7258-0.48023-1.7066-0.67606-2.1402-1.499-0.6154-0.87414 0.6321-0.94836 1.207-1.0454 1.0495-0.21178 2.1632-0.41753 3.2269-0.19964 1.1571 0.59738 2.4241 0.91414 3.5765 1.518 0.9548 0.41849 1.9095 0.8975 2.6118 1.6719-0.01-0.0297 0.1605 0.35623 0.1742 0.55672z" style="fill:#ffffff"/>
    <path id="path1266" d="m1526.6 238.78c0.1587 1.0053-1.6187 0.0501-2.251 0.38234-1.2057 0.16903-2.2601-0.20703-3.3616-0.67355-1.7488-0.82817-3.5249-1.6433-5.4113-2.0661-0.8764-0.22818-2.6642-1.0357-1.3742-2.0378 1.0142-0.7821 2.3239-1.4099 3.5681-1.5727 1.3311-0.0711 2.4744 0.81583 3.699 1.2531 1.2292 0.59508 2.5263 1.11 3.5956 1.9956 0.7624 0.63541 1.6304 1.612 1.5354 2.719z" style="fill:#ffffff"/>
    <path id="path1270" d="m1494.7 227.39c-1.7102 1.027-3.671 1.5075-5.6583 1.4553-1.7681 0.65224-4.7946-0.9425-5.4212 1.4033-0.8527 1.9084 1.4466 2.7163 2.6719 3.5526 3.5976 2.0772 7.8391 1.9714 11.857 2.1458 1.0983 0.0684 4.5798-0.41367 2.7351-1.7588-2.0137-1.5384-3.5119-3.5896-5.1171-5.5174-0.4008-0.38586-0.8395-0.75757-1.0674-1.2809z" style="fill:#69737c"/>
    <path id="path1272" d="m1514.8 228.7c-0.8042-0.1186-1.5645-0.45522-2.3367-0.68388-1.0641-0.35604-1.9668-1.0639-2.983-1.5592-1.3684-0.77818-2.7114-1.6172-4.1298-2.2884-0.6928-0.2442-0.5612-0.99713 0.1989-0.90536 0.7564 0.0235 1.0173-1.1817 1.753-0.39415 0.929 0.56079 1.8044 1.1893 2.5205 2.0179 0.8618 0.71125 1.6675 1.5846 2.7983 1.85 0.8082 0.45094 2.1218 0.89352 2.1784 1.963z" style="fill:#69737c"/>
    <path id="path1274" d="m1512.1 232.43s-3.6452 0.94855-5.3423 0.25036c-1.2495-0.37238-2.5377-0.61509-3.7026-1.2299-1.4229-0.71478-2.9618-1.3574-4.0816-2.5305-0.9024-1.136 0.2159-2.9292 1.6623-2.4608 0.8877-0.2512 0.5222-2.2813 1.8771-1.3788 1.8617 0.84078 3.7236 1.7607 5.3244 3.0389 0.9656 0.92114 2.0493 1.7208 2.9696 2.6822 0.4565 0.51989 1.2931 1.6286 1.2931 1.6286z" style="fill:#69737c"/>
    <path id="path1296" d="m1484.9 206.81c2.4341 0.62413 5.2598 1.762 6.7494 3.9071 2.1383 2.6002-2.034 4.0175-3.9223 2.5478-3.0949-1.5165-6.2114-3.0758-9.5327-4.0185-3.1785 0.40995 1.4084 2.2502 2.2966 3.088 1.4014 0.83254 2.6054 2.4283 2.5848 4.024-2.0954 1.6265-4.7855-0.11045-7.091-0.33541-2.5234-0.29275-3.9334-2.4985-5.5243-4.187-1.152-1.2011-2.4893-1.9179-4.0311-1.218-1e-3 2.1134 1.5399 2.6368 2.5158 4.4195 0.8628 1.0735 4.2065 3.8023 0.9783 3.8233-2.355-0.64572-4.5294-2.1941-5.7873-4.3433-1.4404-1.4847-2.5642-4.5715 0.3988-4.961 2.5504-1.536 5.5438-2.2931 8.5203-2.289 3.2387-0.29871 6.5234 0.22398 9.7027-0.62095 0.4467 0.13594 2.507-0.9281 2.142 0.16352z" style="fill:#69737c"/>
    <path id="path1298" d="m1460.3 208.66c-0.4006 0.69382-0.6906 1.3613-0.6948 2.0952-0.048 0.88365 0.041 1.6974 0.1186 2.5144 0.226 0.65524 0.3964 1.4131 0.6677 2.0413 0.3962 0.74873 1.0266 1.198 1.6304 1.7196 0.4953 0.54368 1.0024 0.82441 1.6304 1.1706 0.4816 0.29098 0.9588 0.47506 1.5023 0.66015 0.4827 0.2138 1.2545 0.42026 1.9092 0.55081 0.719 0.12339 1.2294 0.0121 1.5202-0.59361 0.7303-0.46111 0.1376-0.84771-0.3575-0.99758-0.5611-0.10601-1.0517-0.55764-1.5527-0.97933-0.5388-0.48551-0.937-1.0394-1.2827-1.6551-0.2033-0.55191-0.5858-1.0629-0.9571-1.5936-0.371-0.43783-0.6599-0.88216-1.1554-1.326-0.5477-0.49544-1.0342-1.0226-1.4647-1.5806-0.3515-0.48496-0.8917-1.1026-1.3311-1.5691-0.099-0.13284-0.1939-0.28475-0.1828-0.45715z" style="fill:#ffffff"/>
    <path id="path1300" d="m1481.7 217.1c-1.3537-0.12782-3.5262-0.69631-5.1436-1.1626-1.8247-0.63514-3.5119-1.7197-4.6482-3.3006-1.3555-1.2577-2.6777-2.5979-4.2542-3.5783-1.6456-0.4995-2.3203 1.8155-1.2697 2.8206 0.8997 1.441 2.2172 2.5664 3.2327 3.9276 1.1869 1.2546 2.6621 2.1682 4.1781 2.982 1.9157 1.1764 4.2238 1.5443 6.4318 1.689 1.2855-0.16101 2.8315-0.95034 3.1542-2.2997 0.099-0.86948-1.0463-1.0551-1.6811-1.0781z" style="fill:#ffffff"/>
    <path id="path1304" d="m1476.9 227.96c-1.1797 0.21511-2.4911 0.22204-3.4898-0.53988-1.0053-0.49577-1.6927-1.4882-2.2943-2.4042-0.8199-0.95943-1.7691-1.9811-3.0161-2.3501-1.1028-0.31406-2.4318 0.45793-2.0841 1.7127 0.1517 1.0436 0.9484 1.8628 1.6557 2.5893 1.1744 1.1656 2.7652 1.6825 4.2485 2.3303 0.7417 0.39677 1.6444 0.48203 2.4788 0.49708 0.8521-0.0134 2.2084 0.3075 2.4981-0.77344 0.042-0.35333-0.028-0.70814 0-1.0617z" style="fill:#ffffff"/>
    <path id="path1306" d="m1488.8 224.5c1.0096 0.44208 1.7098 1.7394 1.0465 2.7477-0.7522 1.0679-2.1148 1.695-3.4232 1.5264-1.1038-0.0381-2.2196 0.12419-3.2985-0.19526-1.2296-0.37174-2.3784-0.93333-3.5001-1.544-1.2446-0.413-1.3803-1.8732-2.2026-2.7132-0.5103-0.95078 1.203-1.4107 1.9135-1.1379 1.2028 0.3888 1.9324 1.5289 3.0963 1.962 0.9222 0.48483 1.8551 0.94719 2.9104 1.0612 0.8928 0.21207 2.0798 0.39771 2.6629-0.51022 0.2186-0.42559 0.5058-0.81539 0.7948-1.1968z" style="fill:#ffffff"/>
    <path id="path1308" d="m1499.2 221.89c0.8729 0.91409 0.3364 2.6364-0.8965 2.9237-1.0171 0.211-2.1035 0.4491-3.1241 0.10958-1.5122-0.3655-2.8535-1.1864-4.1503-2.0113-0.7812-0.65183-2.0061-0.87708-2.5825-1.7841-0.3509-1.2345 1.002-2.2165 2.148-1.7763 1.6475 0.53912 3.4084 0.74536 4.9424 1.6073 1.1134 0.47332 2.2477 0.97219 3.4576 1.012z" style="fill:#ffffff"/>
    <path id="path1342" d="m1502.6 210.19c5.2897 4.2939 10.435 8.7892 14.571 14.243 3.1873 3.7739 5.1383 8.9067 9.8161 11.267 6.5885 7.0364 34.793 15.196 34.888 17.394-6.5014-2.6491-9.327 6.222-15.628 4.7972-5.8633 1.7028-10.692-2.1326-15.764-4.2652-7.6218-0.27244-15.562 0.12258-22.346 3.9904-3.707 2.0144-8.118-1.0943-11.049-0.0718l-0.3374 0.63789-0.4382 0.39359m-35.952-13.516c-4.5174-2.2421-7.8225-6.4514-12.027-8.988-3.2491-4.5753-7.4235-9.1562-7.2247-15.178-0.5107-6.2228-2.1394-14.828 0.8145-20.743-2.1227-4.6375-5.098-5.8871-7.4441-10.457-1.6994-6.3205-8.1084-9.9469-4.2609-14.753 4.2785-3.8024 7.273-8.2937 12.788-10.266 4.5726-1.0599 9.2108-0.6143 13.6 0.95392 5.6808 0.66742 8.7969 5.5136 11.794 9.7124 3.626 5.6463 6.058 12.045 7.0696 18.714 2.6188 5.4774 9.5822 6.5922 14.687 8.9291 4.4001 2.0822 8.7955 3.8576 12.442 7.2035" style="fill:none;stroke-width:1.5;stroke:#000000"/>
  </g>
</svg>
