<?xml version="1.0" encoding="UTF-8"?>
<svg width="1200" height="600" viewBox="0 0 12 6" xmlns="http://www.w3.org/2000/svg" xmlns:xlink="http://www.w3.org/1999/xlink">
  <path d="m0 0h12v6h-12z" fill="#f00"/>
  <path d="m0 0h12v4h-12z" fill="#005ce5"/>
  <path d="m0 0h12v2h-12z" fill="#fff"/>
  <g transform="matrix(.021 0 0 .021 -.10648 3.478)">
    <path transform="matrix(.47619 0 0 .47619 5.0706 -165.62)" d="m299.97 105.21c-1.3428 0.00213-2.6819 0.02963-4.0176 0.06836-25.976 0.67332-50.364 7.3815-67.729 15.562l0.00195 0.02344c-1.8988 0.7936-3.7588 1.5892-5.5273 2.3848l5.9688 93.49c4.1356 48.856 35.974 77.301 71.35 88.471 35.375-11.17 67.212-39.615 71.348-88.471l5.9356-93.193c-1.7722-0.91732-3.6305-1.8065-5.5273-2.6816l0.00195-0.02344c-18.251-8.5986-44.257-15.583-71.715-15.629-0.02026-4e-5 -0.04029-0.00193-0.06055-0.00196-0.0098 2e-5 -0.0195-1e-5 -0.0293 0z" fill="#005ce5" fill-rule="evenodd" stroke-width="2.1"/>
    <path d="m147.93-84.712-8.3144 16.236-5.3752-6.9829-14.046 18.562c0.25384 1.1522 0.55195 2.2644 0.87746 3.3503 1.5687 2.6474 4.5832 5.6698 8.4494 5.6698 3.0681 0 6.1361-2.4544 9.2042-2.4544s6.1361 2.4545 9.2042 2.4544c3.0681 0 6.1361-2.4544 9.2042-2.4544s6.1361 2.4545 9.2042 2.4544c3.8313 0 6.8257-2.9662 8.4065-5.5961 0.3374-1.1151 0.64046-2.2636 0.90201-3.4485l-14.027-18.537-5.3752 6.9829zm-9.2042 36.835c-3.0681 0-6.1361 2.4545-9.2042 2.4544-2.4282 0-4.5141-0.86-6.13-2.0801 0.57062 1.2111 1.1742 2.3889 1.8347 3.5037 1.2658 0.78705 2.7043 1.3193 4.2953 1.3193 3.0681 0 6.1361-2.4545 9.2042-2.4544 3.0681 0 6.1361 2.4545 9.2042 2.4544 3.0681 0 6.1361-2.4545 9.2042-2.4544 3.0681 0 6.1361 2.4545 9.2042 2.4544 1.5686 0 2.987-0.52035 4.2401-1.2886 0.66018-1.1112 1.2634-2.285 1.8347-3.4915-1.6082 1.1974-3.6749 2.0372-6.0748 2.0372-3.0681 0-6.1361-2.4544-9.2042-2.4544s-6.1361 2.4545-9.2042 2.4544c-3.0681 0-6.1361-2.4544-9.2042-2.4544zm0 5.1973c-3.0681 0-6.1361 2.4545-9.2042 2.4544-0.66657 0-1.3004-0.07808-1.9145-0.19636 5.3079 7.0911 12.55 11.838 20.317 14.567 7.7512-2.725 14.981-7.475 20.286-14.555-0.6005 0.11285-1.2211 0.18408-1.8715 0.18408-3.0681 0-6.1361-2.4544-9.2042-2.4544s-6.1361 2.4545-9.2042 2.4544c-3.0681 0-6.1361-2.4544-9.2042-2.4544z" fill="#fff" fill-rule="evenodd"/>
    <g id="a" transform="translate(0 -.00067)">
      <path id="b" d="m134.09-109.56h6.9608l-3.4804 6.0273" fill="#ffe500" fill-rule="evenodd"/>
      <use transform="matrix(1 0 0 -1 3e-4 -215.1)" width="600" height="300" fill="#ffe500" xlink:href="#b"/>
    </g>
    <g fill="#ffe500">
      <use transform="translate(20.72)" width="600" height="300" xlink:href="#a"/>
      <use transform="translate(10.36 13.875)" width="600" height="300" xlink:href="#a"/>
    </g>
  </g>
  <path transform="matrix(.01 0 0 .01 .50357 3.264)" d="m249.62-221.19c-1.3863 2e-3 -2.7678 0.0311-4.1465 0.0723 1.3787-0.0368 2.7596-0.0702 4.1465-0.0723zm-71.748 15.654c-1.8994 0.79383-3.7582 1.589-5.5273 2.3848l5.9688 93.492c4.1356 48.856 35.972 77.299 71.348 88.469 35.375-11.17 67.212-39.613 71.348-88.469l5.9356-93.195c-1.7723-0.91738-3.6304-1.8065-5.5273-2.6816l-5.5391 92.781c-3.8391 47.5-33.393 75.154-66.232 86.014-32.84-10.86-62.395-38.514-66.234-86.014z" fill="#f00" fill-rule="evenodd" stroke-width="2.1"/>
</svg>
