<?xml version="1.0" encoding="UTF-8"?>
<svg id="Layer_1" style="enable-background:new 0 0 900 600" version="1.1" viewBox="0 0 900 600" xmlns="http://www.w3.org/2000/svg">
  <style type="text/css">.st0{fill:#EE1C25;}
	.st1{fill:#0B4EA2;}
	.st2{fill:#FFFFFF;}</style>
  <title>Flag of Slovakia</title>
  <rect class="st0" width="900" height="600"/>
  <rect class="st1" width="900" height="400"/>
  <rect class="st2" width="900" height="200"/>
  <path id="_x3C_Path_x3E_" class="st2" d="m393.48 141h-247.12l-0.847 8.059c-0.184 1.752-4.511 43.971-4.511 136.69 0 43.563 14.726 81.996 43.77 114.23 20.349 22.585 46.923 41.599 81.242 58.129l3.905 1.881 3.906-1.881c34.32-16.53 60.896-35.544 81.246-58.129 29.044-32.234 43.771-70.667 43.771-114.23 0-92.718-4.328-134.94-4.512-136.69l-0.849-8.059z"/>
  <path class="st0" d="m269.92 450c-49.34-23.766-119.92-70.938-119.92-164.25s4.461-135.75 4.461-135.75h230.92s4.463 42.437 4.463 135.75-70.578 140.48-119.92 164.25z"/>
  <path class="st2" d="m280.48 261.28c13.36 0.216 39.425 0.739 62.635-7.027 0 0-0.613 8.306-0.613 17.98 0 9.677 0.613 17.982 0.613 17.982-21.289-7.125-47.58-7.273-62.635-7.082v51.539h-21.104v-51.539c-15.055-0.191-41.345-0.043-62.635 7.082 0 0 0.613-8.305 0.613-17.982 0-9.675-0.613-17.98-0.613-17.98 23.21 7.766 49.275 7.243 62.635 7.027v-32.368c-12.177-0.108-29.723 0.473-49.563 7.113 0 0 0.613-8.305 0.613-17.982 0-9.676-0.613-17.981-0.613-17.981 19.81 6.628 37.336 7.219 49.509 7.114-0.626-20.498-6.597-46.332-6.597-46.332s12.289 0.959 17.202 0.959c4.918 0 17.203-0.959 17.203-0.959s-5.969 25.835-6.596 46.33c12.174 0.106 29.699-0.485 49.509-7.114 0 0-0.613 8.305-0.613 17.981 0 9.677 0.613 17.982 0.613 17.982-19.839-6.639-37.386-7.221-49.563-7.113v32.37z"/>
  <path class="st1" d="m269.9 329.09c-24.852 0-38.163 34.469-38.163 34.469s-7.385-16.344-27.661-16.344c-13.719 0-23.829 12.201-30.256 23.5 24.959 39.705 64.78 64.207 96.079 79.281 31.305-15.075 71.152-39.571 96.112-79.281-6.427-11.299-16.537-23.5-30.256-23.5-20.277 0-27.693 16.344-27.693 16.344s-13.308-34.469-38.162-34.469z"/>
</svg>
