<?xml version="1.0" encoding="UTF-8"?>
<svg width="1800" height="900" version="1.1" xmlns="http://www.w3.org/2000/svg" xmlns:cc="http://creativecommons.org/ns#" xmlns:dc="http://purl.org/dc/elements/1.1/" xmlns:rdf="http://www.w3.org/1999/02/22-rdf-syntax-ns#" xmlns:xlink="http://www.w3.org/1999/xlink">
  <metadata>
    <rdf:RDF>
      <cc:Work rdf:about="">
        <dc:format>image/svg+xml</dc:format>
        <dc:type rdf:resource="http://purl.org/dc/dcmitype/StillImage"/>
        <dc:title/>
      </cc:Work>
    </rdf:RDF>
  </metadata>
  <defs>
    <g id="Pentagram">
      <g id="Arm" transform="translate(0 -.32492)">
        <path d="m0 0v0.5l1-0.5z"/>
        <path transform="matrix(.80902 -.58779 .58779 .80902 .19098 .58779)" d="m0 0v-0.5l1 0.5z"/>
      </g>
      <use transform="scale(-1,1)" width="1200" height="600" xlink:href="#Arm"/>
      <use transform="matrix(.30902 .95106 -.95106 .30902 0 0)" width="1200" height="600" xlink:href="#Arm"/>
      <use transform="matrix(.30902 -.95106 .95106 .30902 0 0)" width="1200" height="600" xlink:href="#Arm"/>
      <use transform="matrix(-.30902 .95106 .95106 .30902 0 0)" width="1200" height="600" xlink:href="#Arm"/>
    </g>
  </defs>
  <rect width="1800" height="900" fill="#00247d"/>
  <path d="m329.38 777.27c-17.934-0.14984 168.62-99.431 324.77-226.6 204.64-166.67 645.4-433.51 774.97-476.87 13.543-4.5322-27.776 23.073-33.14 32.015-138.34 163.74-27.925 472.72 144.97 628.05 51.99 39.763 49.327 41.851 145.71 45.746v9l-1357.3-11.34z" fill="#fed100"/>
  <path d="m318.13 795.32s-13.163 9.4029-13.125 16.406c0.043 7.7725 14.766 18.047 14.766 18.047l1338.7 14.766 24.609-16.406-34.453-21.328-1330.5-11.484z" fill="#fed100"/>
  <use transform="matrix(45 0 0 45 342.96 112.58)" width="1200" height="600" fill="#ffffff" xlink:href="#Pentagram"/>
  <use transform="matrix(37.5 1.1682e-6 -1.1682e-6 37.5 521.2 267.53)" width="1200" height="600" fill="#ffffff" xlink:href="#Pentagram"/>
  <use transform="matrix(45 1.4854e-6 -1.4854e-6 45 135 321.81)" width="1200" height="600" fill="#ffffff" xlink:href="#Pentagram"/>
  <use transform="matrix(52.5 0 0 52.5 342.96 652.58)" width="1200" height="600" fill="#ffffff" xlink:href="#Pentagram"/>
</svg>
