<?xml version="1.0" encoding="UTF-8"?>
<svg width="1200" height="600" xmlns="http://www.w3.org/2000/svg">
  <clipPath id="c1">
    <path d="M0,0H650V350H0z"/>
  </clipPath>
  <clipPath id="c2">
    <path d="M0,0V150H650V300H600zM0,300V350H300V0H600z"/>
  </clipPath>
  <rect width="1200" height="600" fill="#012169"/>
  <path d="M0,0 600,300M600,0 0,300" clip-path="url(#c1)" stroke="#fff" stroke-width="60"/>
  <path d="M0,0 600,300M600,0 0,300" clip-path="url(#c2)" stroke="#c8102e" stroke-width="40"/>
  <path d="M0,150H650M300,0V350" stroke="#fff" stroke-width="100"/>
  <path d="M0,150H650M300,0V350" stroke="#c8102e" stroke-width="60"/>
  <path d="M0,300H600V0H1200V600H0z" fill="#009cde"/>
  <g fill="#fedd00">
    <path d="m645.34 490.91 29.437 90.597-77.066-55.992h95.259l-77.066 55.993z"/>
    <path d="m817.46 464-29.437 90.597-29.437-90.597 77.066 55.992-95.26 7.4e-4z"/>
    <path d="m817.46 342.02-29.437 90.597-29.437-90.597 77.066 55.992-95.26 7.4e-4z"/>
    <path d="m943.47 433.17-29.437 90.597-29.437-90.597 77.066 55.992-95.26 7.3e-4z"/>
    <path d="m943.47 167.75-29.437 90.597-29.437-90.597 77.066 55.992-95.26 7.3e-4z"/>
    <path d="m996.44 339.96 29.437 90.597-77.067-55.992h95.259l-77.067 55.993z"/>
    <path d="m1049.4 131.56-29.437 90.597-29.437-90.597 77.067 55.992-95.26 7.3e-4z"/>
    <path d="m1102.8 271.47 29.437 90.597-77.066-55.992h95.259l-77.066 55.993z"/>
    <path d="m1102.8 37.405 29.437 90.597-77.066-55.992h95.259l-77.066 55.993z"/>
  </g>
</svg>
