<?xml version="1.0" encoding="UTF-8"?>
<svg width="945" height="630" viewBox="-5 -5 945 630" xmlns="http://www.w3.org/2000/svg">
  <path d="m-5-5h945v630h-945z" fill="#fff"/>
  <g transform="matrix(35 0 0 35 170 170)" fill="#0038a8">
    <path d="m5-3h17v2h-17z"/>
    <path d="m5 1h17v2h-17z"/>
    <path d="m-5 5h27v2h-27z"/>
    <path d="m-5 9h27v2h-27z"/>
  </g>
  <g transform="matrix(3.7795 0 0 3.7795 234.29 -392.52)">
    <g stroke="#7b3f00" stroke-miterlimit="20">
      <g fill="#fcd116">
        <path d="m-19.106 157.89 3.0655 4.5775c-12.596 9.1158-4.9062 14.506-13.833 17.424 5.552-5.4183-0.73387-6.254 3.944-17.547" stroke-linecap="square" stroke-width=".611"/>
        <g transform="matrix(.38982 .94111 -.94111 .38982 -17.009 148.83)" stroke-width=".6">
          <path d="m1.5 9 4.5 3c-8 13 1 15-6 21 3-7-3.0116-5.5812-3.0116-17.581" stroke-linecap="square"/>
          <path d="m1.501 9-1.304 2.03.1.015c-.99 6.447.12 10.63.933 13.883.406 1.627.745 3.026.687 4.367a5.658 5.658 0 0 1 -.71 2.538c4.649-5.153-2.663-7.713 4.795-19.833z" fill="#7b3f00" stroke-linecap="square" stroke-width=".273"/>
          <path d="m0 11c-2 13 4.5 17 0 22" fill="none"/>
        </g>
        <path d="m-17.009 148.83-4.3217-4.3218-19.448 28.091 28.091-19.448-4.3217-4.3218-23.77 23.77" stroke-width=".611"/>
        <g stroke-width=".6">
          <g transform="matrix(0 1.0186 -1.0186 0 -17.009 148.83)">
            <g transform="matrix(.92388 .38268 -.38268 .92388 0 0)">
              <path d="m1.5 9 4.5 3c-8 13 1 15-6 21 3-7-3.0252-5.4474-3.0252-17.447" stroke-linecap="square"/>
              <path d="m1.501 9-1.304 2.03.1.015c-.99 6.447.12 10.63.933 13.883.406 1.627.745 3.026.687 4.367a5.658 5.658 0 0 1 -.71 2.538c4.649-5.153-2.663-7.713 4.795-19.833z" fill="#7b3f00" stroke-linecap="square" stroke-width=".273"/>
              <path d="m0 11c-2 13 4.5 17 0 22" fill="none"/>
            </g>
            <path d="m0 0h-6l6 33 6-33h-6v33"/>
            <path d="m0 0h6-6v33l6-33" fill="#7b3f00" stroke="none"/>
          </g>
          <g transform="matrix(-.72029 .72029 -.72029 -.72029 -17.009 148.83)">
            <g transform="matrix(.92388 .38268 -.38268 .92388 0 0)">
              <path d="m1.5 9 4.5 3c-8 13 1 15-6 21 3-7-3.0161-6.2423-3.0161-18.242" stroke-linecap="square"/>
              <path d="m1.501 9-1.304 2.03.1.015c-.99 6.447.12 10.63.933 13.883.406 1.627.745 3.026.687 4.367a5.658 5.658 0 0 1 -.71 2.538c4.649-5.153-2.663-7.713 4.795-19.833z" fill="#7b3f00" stroke-linecap="square" stroke-width=".273"/>
              <path d="m0 11c-2 13 4.5 17 0 22" fill="none"/>
            </g>
            <path d="m0 0h-6l6 33 6-33h-6v33"/>
            <path d="m0 0h6-6v33l6-33" fill="#7b3f00" stroke="none"/>
          </g>
          <g transform="matrix(-1.0186 0 0 -1.0186 -17.009 148.83)">
            <g transform="matrix(.92388 .38268 -.38268 .92388 0 0)">
              <path d="m1.5 9 4.5 3c-8 13 1 15-6 21 3-7-3.0077-5.461-3.0077-17.461" stroke-linecap="square"/>
              <path d="m1.501 9-1.304 2.03.1.015c-.99 6.447.12 10.63.933 13.883.406 1.627.745 3.026.687 4.367a5.658 5.658 0 0 1 -.71 2.538c4.649-5.153-2.663-7.713 4.795-19.833z" fill="#7b3f00" stroke-linecap="square" stroke-width=".273"/>
              <path d="m0 11c-2 13 4.5 17 0 22" fill="none"/>
            </g>
            <path d="m0 0h-6l6 33 6-33h-6v33"/>
            <path d="m0 0h6-6v33l6-33" fill="#7b3f00" stroke="none"/>
            <g transform="matrix(.70711 .70711 -.70711 .70711 0 0)">
              <g transform="matrix(.92388 .38268 -.38268 .92388 0 0)">
                <path d="m1.5 9 4.5 3c-8 13 1 15-6 21 3-7-2.9511-5.7928-2.9511-17.793" stroke-linecap="square"/>
                <path d="m1.501 9-1.304 2.03.1.015c-.99 6.447.12 10.63.933 13.883.406 1.627.745 3.026.687 4.367a5.658 5.658 0 0 1 -.71 2.538c4.649-5.153-2.663-7.713 4.795-19.833z" fill="#7b3f00" stroke-linecap="square" stroke-width=".273"/>
                <path d="m0 11c-2 13 4.5 17 0 22" fill="none"/>
              </g>
              <path d="m0 0h-6l6 33 6-33h-6v33"/>
              <path d="m0 0h6-6v33l6-33" fill="#7b3f00" stroke="none"/>
            </g>
          </g>
          <g transform="matrix(0 -1.0186 1.0186 0 -17.009 148.83)">
            <g transform="matrix(.92388 .38268 -.38268 .92388 0 0)">
              <path d="m1.5 9 4.5 3c-8 13 1 15-6 21 3-7-3.0168-5.5885-3.0168-17.588" stroke-linecap="square"/>
              <path d="m1.501 9-1.304 2.03.1.015c-.99 6.447.12 10.63.933 13.883.406 1.627.745 3.026.687 4.367a5.658 5.658 0 0 1 -.71 2.538c4.649-5.153-2.663-7.713 4.795-19.833z" fill="#7b3f00" stroke-linecap="square" stroke-width=".273"/>
              <path d="m0 11c-2 13 4.5 17 0 22" fill="none"/>
            </g>
            <path d="m0 0h-6l6 33 6-33h-6v33"/>
            <path d="m0 0h6-6v33l6-33" fill="#7b3f00" stroke="none"/>
          </g>
          <g transform="matrix(.72029 -.72029 .72029 .72029 -17.009 148.83)">
            <g transform="matrix(.92388 .38268 -.38268 .92388 0 0)">
              <path d="m1.5 9 4.5 3c-8 13 1 15-6 21 3-7-2.9819-5.6603-2.9819-17.66" stroke-linecap="square"/>
              <path d="m1.501 9-1.304 2.03.1.015c-.99 6.447.12 10.63.933 13.883.406 1.627.745 3.026.687 4.367a5.658 5.658 0 0 1 -.71 2.538c4.649-5.153-2.663-7.713 4.795-19.833z" fill="#7b3f00" stroke-linecap="square" stroke-width=".273"/>
              <path d="m0 11c-2 13 4.5 17 0 22" fill="none"/>
            </g>
            <path d="m0 0h-6l6 33 6-33h-6v33"/>
            <path d="m0 0h6-6v33l6-33" fill="#7b3f00" stroke="none"/>
          </g>
        </g>
      </g>
      <path d="m-19.105 157.89-2.0185 1.4021 0.08826 0.0531c-3.4449 5.6814-4.0308 10.051-4.5338 13.429-0.25215 1.6894-0.47847 3.1382-1.0558 4.3776a5.7635 5.7635 0 0 1-1.6575 2.1118c6.3839-3.0372 0.50051-8.2968 12.244-16.796z" fill="#7b3f00" stroke-linecap="square" stroke-width=".278"/>
      <g stroke-width=".611">
        <path d="m-21.297 159.19c-6.9499 11.455-2.3919 17.753-8.576 20.704" fill="none"/>
        <path d="m-17.009 148.83h-6.1119l6.1119 33.615 6.1119-33.615h-6.1119v33.615" fill="#fcd116"/>
      </g>
    </g>
    <path d="m-17.009 148.83h6.1119-6.1119v33.615l6.1119-33.615" fill="#7b3f00"/>
    <path d="m-17.009 148.83 4.3217 4.3218-4.3217-4.3218-23.77 23.77 28.091-19.448" fill="#7b3f00"/>
    <circle cx="-17.009" cy="148.83" r="11.205" fill="#fcd116" stroke="#7b3f00" stroke-miterlimit="20" stroke-width=".611"/>
    <g fill="#7b3f00">
      <path d="m-8.7579 144.35c-0.71305 0.81492-1.1205-0.61119-3.6671-0.61119s-2.9541 1.528-3.3615 1.2224c-0.40746-0.3056 2.1392-2.1392 2.9541-2.241 0.81492-0.10187 3.1578 0.71305 4.0746 1.6298m-2.9541 0.91678c0.71305 0.61119 0.10186 1.9354-0.61119 1.9354s-2.0373-1.2224-1.4261-2.0373"/>
      <path d="m-15.074 146.18c0.10186-1.2224 1.1205-1.4261 2.7503-1.4261s2.3429 1.2224 2.9541 1.528c-0.71305 0-1.3242-1.0186-2.9541-1.0186-1.6298 0-1.6298 0-2.7503 1.0186m0.30559 0.20372c0.40746-0.61118 0.91678 0.61119 2.0373 0.61119 1.1205 0 1.7317-0.30559 2.4448-0.81491 0.71305-0.50933-1.0186 1.2224-2.1392 1.2224s-2.6485-0.61119-2.3429-1.0186"/>
      <path d="m-22.713 145.17c-0.50932 0.20373-1.3242 1.2222 0 1.9353-1.0186-0.71305-0.20373-1.7316 0-1.9353z"/>
      <path d="m-11.304 145.17c0.20373 0.20373 1.0186 1.2222 0 1.9353 1.3242-0.71305 0.50932-1.7316 0-1.9353z"/>
      <path d="m-18.638805 149.54648c-.916781.20372-.611351 1.52801-1.426268 1.62987-.814916.10187-1.222211 1.0186-1.120346.91674.509323-.40746 1.629897-.71313 2.444813-.71313.814917 0 1.018625.50952 1.731677.50952s.91676-.50952 1.731677-.50952c.814916 0 1.93549.30567 2.444813.71313.101865.10186-.30543-.81487-1.120346-.91674-.814917-.10186-.509487-1.42615-1.426268-1.62987 0 .40745.305345.30555.407209.91674 0 .50932-.916617.50932-1.120346 0 .203729.81491-.407416.81493-.916739.81493s-1.120468-.00002-.916739-.81493c-.203729.50932-1.120346.50932-1.120346 0 .101864-.61119.407209-.50929.407209-.91674z"/>
      <path d="m-21.796749 153.00983c-.814917.61119-1.018482.91682-1.120347 1.62987.244322-.42756.36431-.60327.549839-.85472-.0491-.0211-.09131-.0405-.142111-.062.0593.007.112419.0163.169498.0243.123195-.1664.232648-.31052.543121-.73742z"/>
      <path d="m-22.33987 153.74725c-.0029.004-.01005.0137-.01291.0176.127347.0296.26244.0434.404112.0439-.124442-.022-.255239-.0425-.391192-.0615z"/>
      <path d="m-21.949 153.81c0.63523 0.11214 1.134 0.2583 1.5911 0.40617 0.57016-0.0422 1.3566-0.18655 3.3486-0.18655s2.7785 0.14436 3.3486 0.18655c0.45716-0.14787 0.95588-0.29403 1.5911-0.40617-1.1225 4e-3 -2.6186-0.79892-3.3099-0.79892-0.81492 0-1.0187 0.20361-1.6299 0.20361s-0.81496-0.20361-1.6299-0.20361c-0.69128 0-2.1874 0.80298-3.3099 0.79892z"/>
      <path d="m-12.06918 153.80875c.141672-.00053.276765-.0143.404112-.0439-.0029-.004-.01-.0136-.01291-.0176-.135953.019-.26675.0395-.391192.0615z"/>
      <path d="m-11.677988 153.74725c.05708-.008.110196-.0169.169498-.0243-.0508.0215-.09301.0409-.142111.062.185529.25145.305517.42716.549839.85472-.101865-.71305-.30543-1.01868-1.120347-1.62987.310473.4269.419926.57102.543121.73742z"/>
      <path d="m-11.651 153.78c-0.0011-2e-3 -4e-3 -6e-3 -0.0052-7e-3 -1.0631 0.40958-1.4374 0.47916-2.0045 0.43718-0.96581 0.31241-1.762 0.62839-3.3486 0.62839s-2.3828-0.31598-3.3486-0.62839c-0.56713 0.042-0.94142-0.0276-2.0045-0.43718-0.0011 2e-3 -4e-3 6e-3 -0.0052 7e-3 3.2 1.3774 2.8502 1.8733 5.3583 1.8733s2.1583-0.49592 5.3583-1.8733z"/>
      <path d="m-22.36209 153.77774c.0021-.003.0072-.0101.0093-.0129-.0531-.0123-.10655-.0236-.156578-.0419.05815.0228.09302.0339.147278.0548z"/>
      <path d="m-11.655768 153.77774c.05426-.0209.08913-.032.147278-.0548-.05003.0182-.103476.0295-.156578.0418.0021.003.0072.0101.0093.0129z"/>
      <g transform="matrix(-.10186 0 0 .10186 -17.009 148.83)">
        <path d="m81-44c-7 8-11-6-36-6s-29 15-33 12 21-21 29-22 31 7 40 16m-29 9c7 6 1 19-6 19s-20-12-14-20"/>
        <path d="m19-26c1-12 11-14 27-14s23 12 29 15c-7 0-13-10-29-10s-16 0-27 10m3 2c4-6 9 6 20 6s17-3 24-8-10 12-21 12-26-6-23-10"/>
      </g>
      <path d="m-17.009 156.58c-0.50932 0-1.8336 0.30559 0 0.30559s0.50932-0.30559 0-0.30559"/>
    </g>
  </g>
</svg>
