<?xml version="1.0" encoding="UTF-8"?>
<svg id="svg30" width="1260" height="630" version="1.1" xmlns="http://www.w3.org/2000/svg" xmlns:cc="http://creativecommons.org/ns#" xmlns:dc="http://purl.org/dc/elements/1.1/" xmlns:rdf="http://www.w3.org/1999/02/22-rdf-syntax-ns#">
  <metadata id="metadata34">
    <rdf:RDF>
      <cc:Work rdf:about="">
        <dc:format>image/svg+xml</dc:format>
        <dc:type rdf:resource="http://purl.org/dc/dcmitype/StillImage"/>
      </cc:Work>
    </rdf:RDF>
  </metadata>
  <defs id="defs5">
    <clipPath id="a">
      <path id="path2" d="M0 0h1260v630H0z" fill="#00f" fill-rule="evenodd"/>
    </clipPath>
  </defs>
  <path id="path7" d="M0 0h1260v630H0z" fill="#006400" style="stroke-width:0"/>
  <path id="path9" d="M0 90h1260v450H0z" fill="#ffd200" style="stroke-width:0"/>
  <path id="path11" d="M0 180h1260v270H0z" fill="#d40000" style="stroke-width:0"/>
  <path id="path13" d="M0 270h1260v90H0z" style="stroke-width:0"/>
  <path id="path15" d="m0 0v630l420-315z" clip-path="url(#a)" stroke="#000" stroke-width="30"/>
  <path id="path17" d="m0 0v630l420-315z" fill="#ffffff" style="stroke-width:0"/>
  <path id="path19" d="m159.78 156.62 83.19 256.03-217.79-158.23h269.2l-217.79 158.23z" fill="#d40000" style="stroke-width:0"/>
  <path id="path636" d="m152.88 218.67c-2.9281-3.3533-7.263-5.1339-11.703-4.8057-4.4397 0.32744-8.466 2.726-10.87 6.4727-2.5494-0.062-5.0988 0.12521-7.6116 0.55712-2.3506 0.40443-4.3896 1.8545-5.5424 3.9429-1.154 2.0873-1.2951 4.5861-0.38593 6.7903l8.589-0.50933c3.5189 1.9858 5.7401 5.6699 5.8555 9.7087l0.96765 34.131c-1.6595 3.428-2.4977 7.1955-2.4498 11.004 0.0588 4.5854 0.42251 9.1609 1.091 13.698 0.67038 4.5563-0.82767 9.1632-4.0497 12.453-4.9939 5.0995-9.3364 10.799-12.927 16.967-2.7569 4.7385-2.2714 10.691 1.217 14.92l9.7864 37.866h73.45l4.0761-32.127c1.7304-13.64 9.5076-25.775 21.178-33.043l2.8904 0.82051c1.9416 0.55039 4.0014-0.34967 4.9158-2.1495 0.91406-1.7998 0.42666-3.995-1.1638-5.2388l-69.482-54.332-1.8262-22.868c-0.42143-5.2742-2.5268-10.272-6.0053-14.258" style="fill-rule:evenodd;fill:#ffd200"/>
  <path id="path638" d="m152.17 219.29-0.0578-0.0653 1.4075-1.2445 0.0578 0.0653zm-0.0578-0.0653c-0.37952-0.42967-0.79336-0.83826-1.2287-1.2181l1.2385-1.4158c0.48666 0.42474 0.95589 0.8899 1.3977 1.3894zm0.0117-2.6369v3e-3l-0.61905 0.70812zm-1.2385 1.4222c-0.43608-0.37951-0.89184-0.72737-1.3569-1.0363l1.0393-1.5697c0.54771 0.36368 1.0684 0.75934 1.5561 1.1838zm-1.3569-1.0363c-2.414-1.604-5.3256-2.3868-8.2899-2.1684l-0.1327-1.8866c3.374-0.24895 6.6987 0.6492 9.4616 2.4853zm-8.2895-2.1684-0.0866 8e-3 -0.13237-1.8866 0.0866-8e-3zm-0.2266-1.8802h9e-3l0.0662 0.94307zm0.14735 1.8866c-0.60096 0.0471-1.1728 0.13013-1.7089 0.24477l-0.39117-1.8417c0.66097-0.14105 1.3154-0.23953 1.9526-0.28968zm-1.7089 0.24477c-0.55906 0.11848-1.1098 0.27579-1.6444 0.46516l-0.62654-1.7753c0.61038-0.21579 1.2404-0.39459 1.8798-0.53157zm-1.6444 0.46516c-2.7342 0.96765-5.1093 2.8252-6.7115 5.321l-1.5844-1.0159c1.8296-2.8519 4.5435-4.9747 7.6693-6.0804zm-6.7115 5.321-0.81484 0.43533 0.0224-0.94348zm-0.81484 0.43533c-0.092-2e-3 -0.18703-4e-3 -0.25204-4e-3l0.0224-1.8862c0.11122 9.9e-4 0.1958 4e-3 0.27611 4e-3l-0.0449 1.8866zm-0.25204-4e-3h-3e-3l0.0139-0.94306zm-3e-3 0c-0.34625-4e-3 -0.69486-8e-3 -1.037-4e-3l-0.0139-1.8862c0.36145-3e-3 0.72619-2e-3 1.0823 4e-3zm-1.037-4e-3c-0.32744 2e-3 -0.67605 0.0118-1.0333 0.0224l-0.0662-1.8862c0.34624-0.0117 0.70887-0.0224 1.0842-0.0224zm-1.0333 0.0224c-1.7184 0.061-3.4272 0.23954-5.1037 0.52741l-0.31685-1.8564c1.7794-0.30595 3.5706-0.49309 5.3546-0.55724zm-5.1037 0.52741-0.0374 8e-3 -0.31653-1.8564 0.0374-8e-3 0.31685 1.8564zm-0.35845-1.85h3e-3l0.15848 0.92798-0.16264-0.92798zm0.32519 1.8564c-0.29535 0.0513-0.58098 0.12191-0.8514 0.20521l-0.55148-1.7987c0.35685-0.11014 0.71946-0.19997 1.0778-0.26296zm-0.8514 0.20521c-0.26627 0.0823-0.53788 0.18821-0.80619 0.30893l-0.77409-1.7172c0.32475-0.14672 0.66813-0.2792 1.0287-0.39043zm-1.5836-1.4082h3e-3l0.38701 0.85858zm0.78051 1.7172c-1.3377 0.60845-2.4645 1.6361-3.1877 2.9474l-1.6508-0.90691c0.92275-1.6746 2.3566-2.9847 4.058-3.7577zm-4.8419 2.048 3e-3 -8e-3 0.82542 0.4534zm1.6576 0.89184-0.0513 0.0952-1.6576-0.89183 0.0513-0.0952zm-1.7089-0.79261v-4e-3l0.82873 0.44592-0.82873-0.44174zm1.6576 0.88349c-0.13046 0.24479-0.25237 0.51115-0.35951 0.79336l-1.7598-0.67145c0.12362-0.32743 0.28092-0.6662 0.46175-1.0054zm-2.1194 0.12597v-4e-3l0.87975 0.33577-0.87975-0.33161zm1.7598 0.66321c-0.10268 0.27236-0.19014 0.55039-0.2589 0.82767l-1.8262-0.44934c0.0866-0.35277 0.19666-0.70244 0.32519-1.0415zm-2.085 0.38176v-3e-3l0.91333 0.22446zm1.8262 0.4425c-0.34518 1.4094-0.24017 2.9119 0.32411 4.2828l-1.7387 0.71411c-0.71752-1.7417-0.84991-3.6483-0.41159-5.4394zm-0.48965 5.5832-0.92498-0.58622 0.86959-0.35683zm-0.11121-1.8862 8.589-0.50934 0.11122 1.8866-8.589 0.5089zm8.589-0.50934 0.51233 0.12191-0.45639 0.82126zm0.51233 0.12191c0.12822 0.0717 0.18414 0.10373 0.21697 0.12297l-0.96005 1.621c-0.0952-0.0556-0.17228-0.10155-0.17228-0.10155l0.91333-1.6425zm0.21697 0.12297c0.51874 0.30594 1.0151 0.65145 1.4811 1.0269l-1.1781 1.4671c-0.39278-0.31652-0.81485-0.60962-1.2607-0.87259zm1.4811 1.0269c0.46442 0.37428 0.90273 0.7817 1.3049 1.2159l-1.3773 1.2811c-0.34026-0.367-0.7111-0.71218-1.1057-1.0299zm1.3049 1.2159c2.036 2.1865 3.2518 5.0709 3.3393 8.1386l-1.8862 0.0513c-0.0738-2.6082-1.1046-5.0558-2.8304-6.9088zm3.3393 8.1386 0.96797 34.13-1.8866 0.0513-0.96765-34.131zm0.96797 34.13-0.0963 0.43417-0.84735-0.40819 0.94348-0.0256zm-0.0963 0.43417c-0.0546 0.11345-0.13154 0.27728-0.20853 0.44516l-1.7089-0.78917c0.062-0.13581 0.13154-0.2837 0.22329-0.47267zm-1.9176-0.33996v-3e-3l0.85441 0.39459-0.85441-0.39043zm1.7089 0.78052c-0.20735 0.45234-0.40443 0.92305-0.58814 1.4l-1.7538-0.67787c0.1913-0.49724 0.40323-1.0012 0.63294-1.5026zm-2.3453 0.72501 3e-3 -3e-3 0.87675 0.33877zm1.7602 0.67155c-0.18082 0.47159-0.34625 0.94947-0.49607 1.4286l-1.7987-0.56023c0.16158-0.51639 0.33984-1.0318 0.53457-1.5399zm-0.49607 1.4286c-0.73367 2.357-1.0951 4.8294-1.0642 7.32l-1.8862 0.0224c-0.0343-2.6818 0.35728-5.3508 1.1517-7.9013l1.7987 0.56023zm-1.0642 7.32c9.9e-4 0.15933 3e-3 0.32177 9e-3 0.49607l-1.8862 0.03c-2e-3 -0.1573-3e-3 -0.33234-9e-3 -0.50473l1.8862-0.0225zm9e-3 0.49607c0.0117 0.61155 0.0256 1.2434 0.0513 1.8862l-1.8862 0.0662c-0.0224-0.62247-0.0407-1.266-0.0513-1.9228l1.8862-0.03zm0.0513 1.8862c0.0203 0.60097 0.0502 1.231 0.0866 1.8855l-1.8862 0.10268c-0.0343-0.61188-0.0631-1.2544-0.0866-1.9217zm0.0866 1.8855c0.17121 3.1288 0.48324 6.235 0.93439 9.3054l-1.8647 0.27161c-0.46399-3.1579-0.78393-6.321-0.95588-9.4744zm0.93439 9.3054 9e-3 0.0438-1.8647 0.27161-9e-3 -0.0438zm9e-3 0.0438v3e-3l-0.93215 0.1327zm0 3e-3c0.0984 0.68244 0.15195 1.3637 0.16073 2.033l-1.8866 0.0224c-9e-3 -0.59905-0.0546-1.1989-0.13892-1.7892l1.8647-0.26509zm0.16073 2.033c9e-3 0.66619-0.0258 1.3411-0.1048 2.0114l-1.8715-0.21388c0.0662-0.5783 0.0972-1.1751 0.0898-1.776l1.8866-0.0224zm-0.1048 2.0114c-0.39801 3.4133-1.9141 6.6459-4.3738 9.1579l-1.3407-1.3196c2.1608-2.2072 3.4932-5.0494 3.8429-8.0522zm-4.3738 9.1579-3e-3 9e-3 -0.66737-0.66737zm-3e-3 9e-3c-0.0256 0.0256 0.15933-0.21077 0.10897-0.13463l-1.5697-1.046c0.0545-0.0823 0.092-0.11966 0.12585-0.15388zm0.10897-0.13463-0.11454 0.13666-0.67036-0.65979zm-0.11454 0.13666c-0.64662 0.66097-1.3256 1.3807-2.0326 2.1537l-1.3924-1.2743c0.63828-0.69872 1.3336-1.432 2.0842-2.199zm-3.425 0.88232v-3e-3l0.69604 0.63712zm1.3924 1.2683c-0.68129 0.7462-1.3377 1.4897-1.9624 2.222l-1.4289-1.2232c0.66844-0.78351 1.3366-1.5418 1.9986-2.2668zm-3.3952 0.99857h3e-3l0.71442 0.61187-0.71859-0.61187zm1.4373 1.2234c-3.2937 3.8701-6.2366 8.0202-8.7848 12.397l-1.6274-0.94305c2.6177-4.4963 5.6235-8.7395 8.975-12.677zm-10.417 11.454h3e-3l0.81366 0.47157-0.81827-0.47157zm1.6361 0.94304-0.0374 0.0631-1.6361-0.94349 0.0374-0.0631zm-0.0374 0.0631c-0.36027 0.62663-0.6568 1.266-0.88885 1.9032l-1.7685-0.64172c0.27814-0.76544 0.61905-1.5056 1.0212-2.205zm-0.88885 1.9032c-0.2374 0.65453-0.41799 1.3241-0.53755 1.9922l-1.8505-0.33107c0.14008-0.78159 0.34742-1.5535 0.61903-2.3023zm-0.53755 1.9922c-0.6213 3.4499 0.26819 7.0823 2.5875 9.8928l-1.452 1.1932c-2.6759-3.2418-3.7027-7.4356-2.986-11.417zm2.5875 9.8928 0.18414 0.36027-0.9099 0.23622zm0.18414 0.36027 9.7868 37.866-1.8202 0.47265-9.7868-37.866zm8.8765 39.045-0.9099-0.70652 0.9099-0.23654zm0-1.8862h73.45v1.8862h-73.454zm74.383 1.0608-0.93215 0.82543v-0.94306zm-1.8647-0.23537 4.0761-32.127 1.8651 0.23536-4.0765 32.127zm5.9446-31.895-3e-3 3e-3 -0.93257-0.11773zm-1.8719-0.22808c0.0139-0.11464-0.0256 0.22969 0.0117-0.0578l1.8651 0.2436c-0.0343 0.25546 0.0139-0.10587-3e-3 0.0428l-1.8715-0.22862zm1.8745 0.18189v3e-3l-0.93257-0.1219 0.93257 0.11774zm-1.8651-0.23536c0.25043-1.9613 0.62128-3.8807 1.1016-5.7412l1.8266 0.46398c-0.46858 1.8145-0.8265 3.6581-1.063 5.5126zm1.1016-5.7412c0.48549-1.8821 1.0865-3.7238 1.7934-5.5092l1.7538 0.6926c-0.68021 1.7206-1.2577 3.4853-1.7206 5.2806zm1.7934-5.5092c3.6378-9.1911 10.148-17.091 18.711-22.424l0.99481 1.5999c-8.2148 5.1169-14.461 12.697-17.952 21.517zm18.711-22.424 0.75185-0.10693-0.25439 0.90648zm0.75185-0.10693 2.8904 0.82008-0.5089 1.8134-2.8904-0.82018zm2.8904 0.82008h3e-3l-0.25771 0.90691zm3e-3 0 0.0224 9e-3 -0.51532 1.8134-0.0224-9e-3zm-0.48549 1.8198h-9e-3l0.25772-0.9065zm0.50025-1.8134c0.19462 0.0534 0.40965 0.0898 0.63755 0.10586l-0.13923 1.8866c-0.31536-0.0224-0.6522-0.0834-0.99857-0.17879zm0.63755 0.10586c0.22326 0.0139 0.43607 0.0118 0.6308-0.0117l0.22039 1.8715c-0.33577 0.0395-0.6692 0.0492-0.99021 0.0256zm0.6308-0.0117c1.0608-0.12587 2.0276-0.76886 2.5343-1.7678l1.6814 0.84693c-0.80128 1.5784-2.325 2.5924-3.9954 2.7923zm4.2187-0.92392-3e-3 3e-3 -0.8405-0.42325zm-1.6874-0.8405 0.0117-0.0225 1.6874 0.84052-0.0118 0.0224zm0.0117-0.0225c0.10051-0.20231 0.17965-0.40666 0.23429-0.60545l1.8138 0.50056c-0.0898 0.32593-0.21077 0.64588-0.36069 0.94529zm2.0511-0.10832-3e-3 3e-3 -0.90691-0.25034zm-1.8202-0.49382c0.0524-0.1958 0.0888-0.4056 0.10479-0.62246l1.8866 0.1389c-0.0224 0.31878-0.0823 0.64814-0.1712 0.97749zm1.9915-0.48666v3e-3l-0.94349-0.0695zm-1.8866-0.1327c0.0791-1.0702-0.36552-2.1439-1.2457-2.8327l1.157-1.4818c1.3935 1.0895 2.0982 2.775 1.9752 4.4473zm-1.2457-2.8327-69.482-54.332 1.157-1.4822 69.482 54.333zm-69.482-54.332-0.36487-0.66737 0.94316-0.0738zm-0.36487-0.66737-1.8262-22.868 1.8862-0.14746 1.8266 22.868zm-1.8262-22.868-9e-3 -0.0802 1.8862-0.14789 9e-3 0.0802zm1.8798-0.23087v3e-3l-0.94316 0.0738zm-1.8862 0.15387c-0.061-0.74201-0.15077-1.4478-0.26626-2.1107l1.8564-0.31684c0.13581 0.78201 0.23622 1.5444 0.2961 2.2736zm-0.26626-2.1107c-0.11998-0.69112-0.27386-1.3807-0.45651-2.0631l1.8198-0.48516c0.19687 0.73037 0.36143 1.4765 0.49307 2.2314zm-0.45651-2.0631c-0.93257-3.4804-2.6512-6.7228-5.0411-9.4612l1.4158-1.2385c2.5826 2.9598 4.439 6.4599 5.4451 10.215" style="fill-rule:nonzero;fill:#000000"/>
  <path id="path870" d="m152.69 280.72c-9e-3 0.0203 0.0139-0.0395-0.0117 0.0374l-1.8051-0.54548c9e-3 -0.0257 0.0139-0.0417 0.0396-0.10982l1.7753 0.61786zm-0.0117 0.0374-9e-3 0.0225-0.89482-0.29536zm-9e-3 0.0225c-0.16885 0.50772-0.30551 1.0114-0.40849 1.5033l-1.8413-0.38294c0.12308-0.58813 0.27695-1.16 0.45992-1.7108zm-0.40849 1.5033c-0.10694 0.51114-0.18478 1.0235-0.23205 1.5259l-1.8711-0.16897c0.0546-0.58814 0.14339-1.171 0.26166-1.7399zm-0.23205 1.5259c-0.24584 2.6135 0.26734 5.2697 1.5112 7.6342l-1.6663 0.87665c-1.4131-2.6867-1.9948-5.7064-1.7156-8.6795zm1.5112 7.6342 0.0118 0.0203-1.6659 0.87676-0.0117-0.0203 1.6663-0.87664zm0.0118 0.0203c0.24359 0.46293 0.51456 0.90991 0.80617 1.3354l-1.5537 1.06c-0.33267-0.4855-0.64053-0.99439-0.91739-1.5196zm0.80617 1.3354c0.29429 0.4301 0.61188 0.84169 0.94349 1.2257l-1.4226 1.2294c-0.38476-0.4459-0.74737-0.91406-1.0755-1.3943zm0.94349 1.2257c1.7259 1.9952 4.0131 3.4676 6.5964 4.1991l-0.5089 1.8138c-2.9384-0.83218-5.5424-2.5086-7.5101-4.7834" style="fill-rule:nonzero;fill:#000000"/>
  <path id="path872" d="m161.24 256.57-28.522 19.491-1.0608-1.5546 28.523-19.491" style="fill-rule:nonzero;fill:#000000"/>
  <path id="path874" d="m145.54 225.66c0-2.0673-1.6757-3.743-3.7426-3.743s-3.7426 1.6757-3.7426 3.743c0 2.0669 1.6757 3.7426 3.7426 3.7426s3.7426-1.6757 3.7426-3.7426" style="fill-rule:evenodd;fill:#ffd200"/>
  <path id="path876" d="m144.6 225.66v-8e-3h1.8862v8e-3zm0-8e-3c-9.8e-4 -0.77112-0.31427-1.4716-0.81784-1.9741l1.326-1.3347c0.84874 0.8481 1.3762 2.019 1.378 3.3088zm-0.81784-1.9741c-0.50279-0.50174-1.2011-0.81591-1.9688-0.81826l9e-3 -1.8862c1.2811 4e-3 2.4445 0.52815 3.2884 1.3698l-1.326 1.3347zm-1.9658-2.7044h3e-3l-3e-3 0.94306zm0 1.8862h-0.0139v-1.8862h0.0139zm-0.0139 0h-9e-3v-1.8862h9e-3zm-9e-3 0c-0.77111 9.8e-4 -1.4712 0.31461-1.9741 0.81827l-1.3343-1.326c0.84799-0.84916 2.019-1.3762 3.3084-1.3784zm-1.9741 0.81827c-0.5013 0.50248-0.81559 1.2008-0.81783 1.9688l-1.8862-8e-3c3e-3 -1.2819 0.52815-2.4453 1.3698-3.288l1.3343 1.326zm-2.7041 1.9654v-3e-3l0.94317 3e-3zm1.8862 0v0.0149h-1.8862v-0.0149zm0 0.0149v8e-3h-1.8862v-8e-3zm0 8e-3c9.9e-4 0.77217 0.31429 1.4716 0.81783 1.9741l-1.326 1.3347c-0.84885-0.8481-1.3762-2.0201-1.3781-3.3088zm0.81783 1.9741c0.50281 0.50174 1.2011 0.81603 1.9688 0.81827l-9e-3 1.8862c-1.2822-4e-3 -2.4457-0.52814-3.2884-1.3698l1.327-1.3346zm1.9654 2.7044h-3e-3l3e-3 -0.94306zm0-1.8862h0.0139v1.8862h-0.0139zm0.0139 0h9e-3v1.8862h-9e-3zm9e-3 0c0.77186-9.9e-4 1.4712-0.31461 1.9741-0.81827l1.3343 1.326c-0.84809 0.84916-2.0198 1.3762-3.3084 1.3784zm1.9741-0.81827c0.50131-0.50248 0.81559-1.2008 0.81783-1.9684l1.8862 8e-3c-3e-3 1.2807-0.52814 2.4445-1.3698 3.288l-1.3343-1.326zm2.7041-1.9654v3e-3l-0.94305-3e-3zm-1.8862 0v-0.0149h1.8862v0.0149" style="fill-rule:nonzero;fill:#000000"/>
  <path id="path878" d="m137.97 315 0.0662-0.0343 0.84052 1.6874-0.0662 0.0342-0.8405-1.6878zm0.90991 1.6512-3e-3 3e-3 -0.42025-0.84392zm-0.84692-1.681c0.77217-0.39042 1.5014-0.83933 2.1752-1.3388l1.1204 1.5101c-0.76544 0.56664-1.5856 1.0736-2.4487 1.5097zm2.1752-1.3388c0.6756-0.50025 1.3075-1.0574 1.8851-1.6584l1.3558 1.3045c-0.64588 0.67145-1.3558 1.2981-2.1205 1.864zm1.8851-1.6584c2.9526-3.0704 4.5254-7.3294 4.1417-11.744l1.8862-0.16264c0.43192 4.9573-1.3418 9.7479-4.6721 13.211" style="fill-rule:nonzero;fill:#000000"/>
  <path id="path880" d="m150.92 295.09-0.0662 0.0343-0.8405-1.6874 0.0663-0.0343 0.8405 1.6878zm-0.91407-1.6512 9e-3 -3e-3 0.42025 0.84393zm0.85559 1.681c-0.26852 0.13807-0.51458 0.28969-0.72962 0.45116l-1.1268-1.5033c0.32177-0.24188 0.65754-0.45341 1.0008-0.62889zm-0.72962 0.45116c-0.22435 0.16779-0.43725 0.35834-0.63081 0.5613l-1.3622-1.2958c0.26168-0.27505 0.55381-0.535 0.86618-0.76887zm-0.63081 0.5613c-0.97963 1.0287-1.5003 2.4566-1.372 3.9365l-1.8862 0.16265c-0.17548-2.019 0.5444-3.975 1.896-5.3949" style="fill-rule:nonzero;fill:#000000"/>
  <path id="path882" d="m161.51 322.76-0.0139 9e-3 -0.69935-1.7474 0.0139-9e-3zm-0.0139 9e-3c-0.97182 0.39117-1.9813 0.80501-3.0134 1.2328l-0.72373-1.7396c0.97857-0.40516 1.9911-0.82018 3.0368-1.2415zm-3.0134 1.2328c-1.006 0.41726-2.0092 0.84051-3.0047 1.2649l-0.73786-1.7323c1.006-0.42967 2.0156-0.85527 3.0198-1.2713zm-3.0047 1.2649c-5.1256 2.1868-10.204 4.5129-15.225 6.9733l-0.8264-1.6947c5.0335-2.466 10.141-4.8057 15.313-7.0118" style="fill-rule:nonzero;fill:#000000"/>
  <path id="path884" d="m160.82 321.01 0.0343-0.0117 0.67785 1.7538-0.0343 0.0118zm0.72619 1.7379-0.0139 3e-3 -0.33876-0.87665zm-0.708-1.7474c1.0729-0.43415 2.0982-0.93781 3.0658-1.5014l0.94348 1.6274c-1.06 0.61712-2.1646 1.1604-3.3012 1.6214zm3.0658-1.5014c0.95706-0.55606 1.8877-1.1925 2.7802-1.8971l1.1721 1.4822c-0.93256 0.7356-1.9386 1.4203-3.0089 2.0424zm2.7802-1.8971c4.513-3.5619 7.6599-8.683 8.7207-14.477l1.85 0.33804c-1.1453 6.2588-4.5371 11.784-9.3986 15.621" style="fill-rule:nonzero;fill:#000000"/>
  <path id="path886" d="m151.54 325h61.294v1.8866h-61.294" style="fill-rule:nonzero;fill:#000000"/>
  <path id="path888" d="m165.67 337.44c0-3.9256-3.1824-7.108-7.1068-7.108-3.9256 0-7.1069 3.1824-7.1069 7.108 0 3.9244 3.1813 7.1068 7.1069 7.1068 3.9244 0 7.1068-3.1824 7.1068-7.1068" style="fill-rule:evenodd;fill:#ffd200"/>
  <path id="path890" d="m164.73 337.44v-9e-3h1.8862v9e-3zm0-9e-3c-9.8e-4 -1.698-0.69411-3.2401-1.8081-4.3541l1.3343-1.3347c1.4543 1.4543 2.3581 3.468 2.36 5.6888zm-0.47799-5.6888h3e-3l-0.66696 0.66738 0.66278-0.66738zm-1.326 1.3347c-1.112-1.1102-2.6486-1.7998-4.3435-1.8032v-1.8862c2.2125 3e-3 4.2176 0.90466 5.6696 2.3548zm-4.3435-1.8032h-0.0139v-1.8862h0.0139zm-0.0139 0h-9e-3v-1.8862h9e-3zm-9e-3 0c-1.7014 9.9e-4 -3.242 0.69068-4.353 1.804l-1.3347-1.326c1.4565-1.4584 3.4699-2.3619 5.6877-2.3642zm-4.353 1.804c-1.1102 1.1121-1.7998 2.649-1.8032 4.3451h-1.8862c3e-3 -2.2136 0.90467-4.2187 2.3547-5.6711zm-1.8032 4.3451v0.0139h-1.8862v-0.0139zm0 0.0139v9e-3h-1.8862v-9e-3zm0 9e-3c9.9e-4 1.7002 0.69186 3.2424 1.804 4.3534l-1.326 1.3343c-1.4586-1.4571-2.3621-3.4708-2.3644-5.6874zm1.804 4.3534c1.1113 1.1098 2.649 1.7994 4.3439 1.8028v1.8862c-2.2125-3e-3 -4.2187-0.90467-5.67-2.3547zm4.3439 1.8028h0.0139v1.8862h-0.0139zm0.0139 0h9e-3v1.8862h-9e-3zm9e-3 0c1.6972-9.8e-4 3.239-0.69412 4.3534-1.8081l1.3347 1.3343c-1.4546 1.4543-3.468 2.3581-5.6881 2.36zm5.6881-0.478v3e-3l-0.66739-0.66737 0.66739 0.66321zm-1.3347-1.326c1.1098-1.1121 1.7998-2.649 1.8028-4.3435h1.8862c-3e-3 2.2122-0.90466 4.2172-2.3543 5.6696zm1.8028-4.3435v-0.0139h1.8862v0.0139" style="fill-rule:nonzero;fill:#000000"/>
  <path id="path892" d="m193.95 337.44c0-3.9256-3.1824-7.108-7.1068-7.108-3.9256 0-7.108 3.1824-7.108 7.108 0 3.9244 3.1824 7.1068 7.108 7.1068 3.9244 0 7.1068-3.1824 7.1068-7.1068" style="fill-rule:evenodd;fill:#ffd200"/>
  <path id="path894" d="m193 337.44v-9e-3h1.8862v9e-3zm0-9e-3c-9.9e-4 -1.698-0.69411-3.2401-1.8085-4.3541l1.3347-1.3347c1.4542 1.4543 2.3578 3.468 2.36 5.6888zm-0.47799-5.6888h3e-3l-0.66738 0.66738 0.6632-0.66738zm-1.326 1.3347c-1.1121-1.1102-2.649-1.7998-4.3439-1.8032v-1.8862c2.2125 3e-3 4.2175 0.90466 5.6699 2.3548zm-4.3439-1.8032h-0.0139v-1.8862h0.0139zm-0.0139 0h-9e-3v-1.8862h9e-3zm-9e-3 0c-1.7014 9.9e-4 -3.2435 0.69187-4.3545 1.804l-1.3343-1.326c1.4573-1.4584 3.4699-2.3619 5.6888-2.3642zm-4.3545 1.804c-1.1098 1.1121-1.7998 2.649-1.8028 4.3451h-1.8862c3e-3 -2.2136 0.90467-4.2187 2.3548-5.6711zm-1.8028 4.3451v0.0139h-1.8862v-0.0139zm0 0.0139v9e-3h-1.8862v-9e-3zm0 9e-3c9.9e-4 1.7002 0.69187 3.2424 1.804 4.3534l-1.326 1.3343c-1.4586-1.4571-2.3625-3.4708-2.3644-5.6874zm1.804 4.3534c1.1121 1.1098 2.6486 1.7994 4.3447 1.8028v1.8862c-2.2137-3e-3 -4.2183-0.90467-5.6707-2.3547zm4.3447 1.8028h0.0139v1.8862h-0.0139zm0.0139 0h9e-3v1.8862h-9e-3zm9e-3 0c1.6968-9.8e-4 3.239-0.69412 4.353-1.8081l1.3347 1.3343c-1.4543 1.4543-3.468 2.3581-5.6877 2.36zm5.6877-0.478v3e-3l-0.66739-0.66737 0.66739 0.66321zm-1.3347-1.3257c1.1102-1.1121 1.7998-2.649 1.8032-4.3436h1.8862c-3e-3 2.2122-0.90467 4.2172-2.3547 5.6696zm1.8032-4.3436v-0.0139h1.8862v0.0139" style="fill-rule:nonzero;fill:#000000"/>
  <path id="path896" d="m172.41 312.32c0.33267 0.0995 0.66502 0.19356 0.99439 0.2821l-0.4855 1.8198c-0.35042-0.0941-0.70351-0.1944-1.0476-0.29727zm0.99439 0.2821c0.52323 0.14008 1.0268 0.26626 1.5059 0.37416l-0.41308 1.8349c-0.54964-0.12416-1.0778-0.25441-1.5784-0.38935zm1.5059 0.37416c0.50667 0.11314 1.0136 0.21815 1.5184 0.31119l-0.33801 1.85c-0.53457-0.0984-1.0684-0.20853-1.5935-0.32626zm1.5184 0.31119c2.3642 0.43425 4.7819 0.64696 7.2117 0.63304l9e-3 1.8862c-2.5249 0.0139-5.0569-0.21044-7.5561-0.66919" style="fill-rule:nonzero;fill:#000000"/>
  <path id="path898" d="m183.64 313.92c0.33342-9.9e-4 0.65337-0.0203 0.94723-0.0481l0.19237 1.8715c-0.39117 0.0396-0.77068 0.061-1.1333 0.0631l-9e-3 -1.8862zm0.94723-0.0481h3e-3l0.092 0.93588-0.0963-0.93588zm3e-3 0c0.53157-0.0524 1.0608-0.15057 1.5776-0.28638l0.47875 1.8198c-0.60396 0.15955-1.2317 0.27385-1.8722 0.33801zm1.5776-0.28638c0.50773-0.13377 1.0102-0.31117 1.4939-0.52398l0.75902 1.7236c-0.56664 0.25034-1.1623 0.45874-1.7742 0.62022zm1.4939-0.52398c2.2796-1.0053 4.1606-2.838 5.198-5.2067l1.7236 0.75069c-1.2317 2.8135-3.4616 4.9882-6.1626 6.1796" style="fill-rule:nonzero;fill:#000000"/>
  <path id="path900" d="m223.29 317.6-61.903-17.562 0.5089-1.8138 61.903 17.562" style="fill-rule:nonzero;fill:#000000"/>
  <path id="path902" d="m116.3 347.88h86.194v1.8862h-86.194" style="fill-rule:nonzero;fill:#000000"/>
  <path id="path904" d="m136.2 366.61h63.91v1.8862h-63.91" style="fill-rule:nonzero;fill:#000000"/>
  <path id="path906" d="m166.08 360.2-6.9739 6.8805-1.3196-1.3407 6.9739-6.8808" style="fill-rule:nonzero;fill:#000000"/>
  <path id="path908" d="m152.79 359.53 6.9746 6.8817-1.3196 1.3407-6.9746-6.8813" style="fill-rule:nonzero;fill:#000000"/>
  <path id="path910" d="m153.45 360.2-6.975 6.8805-1.3196-1.3407 6.975-6.8808" style="fill-rule:nonzero;fill:#000000"/>
  <path id="path912" d="m140.16 359.53 6.9758 6.8817-1.3196 1.3407-6.9757-6.8813" style="fill-rule:nonzero;fill:#000000"/>
  <path id="path914" d="m178.71 360.2-6.9739 6.8805-1.3196-1.3407 6.9739-6.8808" style="fill-rule:nonzero;fill:#000000"/>
  <path id="path916" d="m165.42 359.53 6.9746 6.2109-1.3196 1.3407-6.9746-6.2105" style="fill-rule:nonzero;fill:#000000"/>
  <path id="path918" d="m191.34 360.2-6.9756 6.8805-1.3196-1.3407 6.9756-6.8808" style="fill-rule:nonzero;fill:#000000"/>
  <path id="path920" d="m178.05 359.53 6.9763 6.2109-1.3196 1.3407-6.9763-6.2105" style="fill-rule:nonzero;fill:#000000"/>
  <path id="path922" d="m201.47 362.68-4.4763 4.4024-1.3196-1.3407 4.4763-4.4024" style="fill-rule:nonzero;fill:#000000"/>
  <path id="path924" d="m190.68 359.53 6.9752 6.8817-1.3196 1.3407-6.9752-6.8813" style="fill-rule:nonzero;fill:#000000"/>
  <path id="path926" d="m166.08 350.63-6.9739 6.8814-1.3196-1.3407 6.9739-6.8818" style="fill-rule:nonzero;fill:#000000"/>
  <path id="path928" d="m152.79 349.96 6.9746 6.8808-1.3196 1.3407-6.9746-6.8803" style="fill-rule:nonzero;fill:#000000"/>
  <path id="path930" d="m153.45 350.63-6.975 6.8814-1.3196-1.3407 6.975-6.8818" style="fill-rule:nonzero;fill:#000000"/>
  <path id="path932" d="m140.16 349.96 6.9758 6.8808-1.3196 1.3407-6.9757-6.8803" style="fill-rule:nonzero;fill:#000000"/>
  <path id="path934" d="m178.71 350.63-6.9739 6.8814-1.3196-1.3407 6.9739-6.8818" style="fill-rule:nonzero;fill:#000000"/>
  <path id="path936" d="m165.42 349.96 6.9746 6.8808-1.3196 1.3407-6.9746-6.8803" style="fill-rule:nonzero;fill:#000000"/>
  <path id="path938" d="m191.34 350.63-6.9756 6.8814-1.3196-1.3407 6.9756-6.8818" style="fill-rule:nonzero;fill:#000000"/>
  <path id="path940" d="m178.05 349.96 6.9763 6.8808-1.3196 1.3407-6.9763-6.8803" style="fill-rule:nonzero;fill:#000000"/>
  <path id="path942" d="m202.86 351.75-5.8646 5.7669-1.3196-1.3407 5.8646-5.7673" style="fill-rule:nonzero;fill:#000000"/>
  <path id="path944" d="m190.68 349.96 6.9752 6.8808-1.3196 1.3407-6.9752-6.8803" style="fill-rule:nonzero;fill:#000000"/>
  <path id="path946" d="m133.66 231.57-8.2552 0.48998-0.11122-1.8866 8.2555-0.48965" style="fill-rule:nonzero;fill:#000000"/>
  <path id="path948" d="m138.8 316.69-0.0256 0.0118-0.81034-1.7021 0.0256-0.0119 0.81069 1.7021zm-0.85215-1.6817 0.0139-9e-3 0.40517 0.8511zm0.84049 1.6874c-1.6029 0.80084-3.099 1.7406-4.4729 2.7908l-1.1423-1.495c1.4769-1.1291 3.0734-2.1333 4.7748-2.9832zm-4.4729 2.7908c-1.3754 1.0521-2.6414 2.2276-3.7856 3.5012l-1.4007-1.26c1.2147-1.3524 2.5683-2.6067 4.044-3.7362zm-3.7856 3.5012c-5.8665 6.5304-8.4596 15.645-6.4855 24.617l-1.8414 0.40442c-2.108-9.5782 0.66277-19.308 6.9262-26.282" style="fill-rule:nonzero;fill:#000000"/>
  <path id="path950" d="m140.25 332.24-0.11549 0.0568-0.82543-1.6938 0.11549-0.0567zm-0.9484-1.6338 9e-3 -3e-3 0.41267 0.84693zm0.8405 1.6874c-0.80425 0.40206-1.5644 0.86499-2.2714 1.3784l-1.1057-1.5248c0.79335-0.57638 1.6425-1.094 2.5366-1.541zm-2.2714 1.3784c-0.7123 0.51757-1.375 1.0883-1.9794 1.7002l-1.3407-1.3196c0.68321-0.69294 1.4252-1.3324 2.2144-1.9055zm-1.9794 1.7002c-3.1107 3.1481-4.8483 7.7052-4.6193 12.292l-1.8617 0.0667c-0.25547-5.1154 1.6625-10.159 5.1403-13.678" style="fill-rule:nonzero;fill:#000000"/>
  <path id="path952" d="m118.12 338.77-1.7685-0.11774-0.0258 0.69294c-9e-3 -0.0256 0.03-0.67903 0.0258-0.69294l1.7692 0.11881zm-1.7938 0.5753 1.7976-0.56021-1.7723-0.13273zm1.7976-0.56021c0.1327 0.45339 0.28861 0.90647 0.46291 1.3528l-1.7534 0.68428c-0.19044-0.48773-0.35608-0.96381-0.50697-1.4769zm0.46291 1.3528c0.17345 0.44593 0.367 0.882 0.57456 1.3022l-1.6874 0.83183c-0.23428-0.47564-0.4504-0.96123-0.64053-1.4497zm0.57456 1.3022c1.0744 2.1782 2.6252 4.1085 4.5469 5.6356l-1.1721 1.4735c-2.1379-1.7002-3.8649-3.8486-5.0623-6.2773" style="fill-rule:nonzero;fill:#000000"/>
  <path id="path954" d="m118.08 339.4-2.1601 4.9713-1.7236-0.75068 2.1601-4.9713" style="fill-rule:nonzero;fill:#000000"/>
  <path id="path956" d="m122.2 348.01 0.0845-0.64129 1.6874 0.84052-9e-3 0.0203zm1.7719 0.19923-1.6799-0.85558zm-1.6799-0.85558c0.23313-0.44475 0.45341-0.88008 0.66098-1.3015l1.6938 0.82576c-0.22777 0.46398-0.4564 0.91631-0.68245 1.346zm0.66098-1.3015c0.24583-0.5013 0.45875-0.94423 0.62962-1.3173l1.7089 0.78052c-0.23963 0.52217-0.45532 0.97749-0.64472 1.3626zm0.62962-1.3173c1.0397-2.2616 1.9326-4.6004 2.6705-6.9944l1.7983 0.55157c-0.75784 2.4619-1.681 4.8762-2.7599 7.2234" style="fill-rule:nonzero;fill:#000000"/>
  <path id="path958" d="m129.41 347.73-9e-3 -0.0256 1.8349-0.41908 9e-3 0.0256zm1.8285-0.45116v3e-3l-0.91738 0.20969 0.91738-0.21386zm-1.8349 0.42742c-0.1155-0.49264-0.22778-0.94499-0.33043-1.3407l1.8202-0.47265c0.13237 0.50773 0.24808 0.9699 0.34517 1.386zm-0.33043-1.3407c-0.0984-0.37533-0.22211-0.82008-0.36894-1.3313l1.8138-0.51574c0.11122 0.38636 0.2374 0.84692 0.37535 1.3743zm1.4407-1.8511 3e-3 3e-3 -0.90692 0.25803 0.90274-0.26231zm-1.8051 0.52399c-0.65219-2.254-1.4599-4.4752-2.4125-6.6429l-0.0396-0.65487 1.7628-0.10373c0.97857 2.2254 1.8127 4.5254 2.494 6.8779" style="fill-rule:nonzero;fill:#000000"/>
  <path id="path960" d="m137.97 381.66-2.7309-14.049 1.8516-0.3599 2.7309 14.049" style="fill-rule:nonzero;fill:#000000"/>
  <path id="path962" d="m135.31 367.85-6.4097-18.733 1.7836-0.60504 6.4097 18.733" style="fill-rule:nonzero;fill:#000000"/>
  <path id="path964" d="m140.82 360.2-5.0085 4.9452-1.3196-1.3411 5.0084-4.9452" style="fill-rule:nonzero;fill:#000000"/>
  <path id="path966" d="m140.82 350.63-7.4583 7.3563-1.3196-1.3411 7.4583-7.3564" style="fill-rule:nonzero;fill:#000000"/>
</svg>
