<?xml version="1.0" encoding="UTF-8"?>
<svg width="1008" height="504" viewBox="0 0 252 126" xmlns="http://www.w3.org/2000/svg" xmlns:xlink="http://www.w3.org/1999/xlink">
  <rect id="green_stripes" width="252" height="126" fill="#319208"/>
  <rect id="yellow_stripes" y="18" width="252" height="90" fill="#FFD200"/>
  <rect id="red_stripes" y="36" width="252" height="54" fill="#DE2010"/>
  <rect id="black_stripe" y="54" width="252" height="18"/>
  <path d="m4.5826 0 84 63-84 63h-4.5826v-126z"/>
  <comment>value has to be sqrt(21)</comment>
  <path d="m0 0 84 63-84 63" fill="#FFF"/>
  <g id="star" fill="#DE2010">
    <g id="upper_star_part" transform="translate(34,63) scale(32)">
      <polygon id="triangle_ur" transform="translate(0 -1) rotate(26.268)" points="0 0 0 1 0.75 1"/>
      <use id="triangle_ul" transform="scale(-1,1)" xlink:href="#triangle_ur"/>
      <polygon id="triangle2_ur" transform="translate(0 -1) rotate(19.58)" points="0 0 0 1 0.75 1"/>
      <use id="triangle2_ul" transform="scale(-1,1)" xlink:href="#triangle2_ur"/>
      <use transform="rotate(72)" xlink:href="#triangle_ur"/>
      <use transform="rotate(-72)" xlink:href="#triangle_ul"/>
      <use transform="rotate(72)" xlink:href="#triangle2_ur"/>
      <use transform="rotate(-72)" xlink:href="#triangle2_ul"/>
    </g>
    <g id="lower_star_part" transform="translate(34,63) scale(27.5)">
      <g id="cone_l">
        <polygon id="triangle_l" transform="translate(0 -1) rotate(24.225)" points="0 0 0 1 0.5 1"/>
        <use transform="scale(-1,1)" xlink:href="#triangle_l"/>
      </g>
      <use transform="rotate(144)" xlink:href="#cone_l"/>
      <use transform="rotate(216)" xlink:href="#cone_l"/>
    </g>
  </g>
  <g id="bird">
    <path d="m28.635 55.109c1.9762 4.3053 2.4703 4.5877 7.4108 6.2816 4.9405 1.6937 18.898 3.2995 20.274 3.4583-0.89989-0.89988-16.621-12.545-19.85-14.875-3.229-2.3291-4.1289-3.3878-4.1289-3.3878s-2.9114-5.2405-3.9172-6.7756-2.8585-3.7054-5.2934-3.7054c-2.435 0-3.917 1.4292-4.6229 3.9701-0.38822 0.10587-2.4703 1.3765-2.3997 2.6821 0.59996-0.07072 4.376-1.1294 5.6817 3.1407 1.3058 4.2701 1.3763 11.257 0.035255 14.716-1.341 3.4585-3.4231 6.0697-3.4231 9.1047 0 0.42347 0.28225 1.2704 0.98808 1.2704 0.24699 1.3412 2.2232 10.904 2.2232 10.904h28.161l4.473-17.292" fill="#ffc618"/>
    <g fill="none" stroke="#000" stroke-width=".21174">
      <path d="m28.635 55.109c1.9762 4.3053 2.4703 4.5877 7.4108 6.2816 4.9405 1.6937 18.898 3.2995 20.274 3.4583-0.89989-0.89988-16.621-12.545-19.85-14.875-3.229-2.3291-4.1289-3.3878-4.1289-3.3878s-2.9114-5.2405-3.9172-6.7756-2.8585-3.7054-5.2934-3.7054c-2.435 0-3.917 1.4292-4.6229 3.9701-0.38822 0.10587-2.4703 1.3765-2.3997 2.6821 0.59996-0.07072 4.376-1.1294 5.6817 3.1407 1.3058 4.2701 1.3763 11.257 0.035255 14.716-1.341 3.4585-3.4231 6.0697-3.4231 9.1047 0 0.42347 0.28225 1.2704 0.98808 1.2704 0.24699 1.3412 2.2232 10.904 2.2232 10.904h28.161l4.473-17.292"/>
      <path d="m19.39 70.99s5.9993-0.35276 7.6227-0.35276c1.6232 0 16.734 0.01862 25.165 1.9679"/>
      <path d="m21.508 70.871s-0.6011-0.72806-0.21298-2.1749c0.38812-1.4468 4.623-5.1878 4.623-10.481"/>
      <path d="m25.142 70.637s-0.49399-2.3645 4.9053-4.376c1.5175-0.45883 5.8579-2.8938 5.9992-4.87"/>
      <path d="m29.473 66.485s13.243 0.05789 23.724 2.1753"/>
      <path d="m32.793 64.905s4.5505 0.1557 5.2916-0.05604c0.74108-0.21174 2.0529-0.76217 2.5748-2.3132"/>
      <path d="m35.49 64.959s2.4342-1.2655 2.911-2.911"/>
      <path d="m28.141 81.894s-1.0411-7.2164-1.2528-11.257l2.7174 2.5938 2.8748-2.5142 2.4716 2.6378 2.8576-2.4248 2.471 2.7776 2.8299-2.4066 2.2518 2.6184 2.8223-2.0409 3.3551 3.1887"/>
      <path d="m50.951 77.345c-10.08-1.4437-23.57-1.35-23.57-1.35"/>
      <path d="m22.694 51.052s8.1999-3.9184 9.6469-4.4653"/>
    </g>
    <g transform="matrix(.21174 0 0 .21174 16 36)" fill="none" stroke="#000">
      <polyline points="52.487 177.09 65.505 188.94 77.267 177.18 89.163 189.44 102.01 178.08 113.84 190.51 127.17 179.5 138.07 192.23 151.34 182.08 165.29 194.4"/>
      <circle cx="89.425" cy="154.58" r="5.1665"/>
      <circle cx="111.24" cy="156.05" r="5.1665"/>
      <circle cx="30.05" cy="16.5" r="4"/>
    </g>
  </g>
</svg>
